<?xml version="1.0" encoding="utf-8"?>
<!-- Generator: Adobe Illustrator 24.2.3, SVG Export Plug-In . SVG Version: 6.00 Build 0)  -->
<svg version="1.1"
	 id="svg14" xmlns:cc="http://creativecommons.org/ns#" xmlns:dc="http://purl.org/dc/elements/1.1/" xmlns:inkscape="http://www.inkscape.org/namespaces/inkscape" xmlns:rdf="http://www.w3.org/1999/02/22-rdf-syntax-ns#" xmlns:sodipodi="http://sodipodi.sourceforge.net/DTD/sodipodi-0.dtd" xmlns:svg="http://www.w3.org/2000/svg"
	 xmlns="http://www.w3.org/2000/svg" xmlns:xlink="http://www.w3.org/1999/xlink" x="0px" y="0px" viewBox="0 0 750 471"
	 style="enable-background:new 0 0 750 471;" xml:space="preserve">
<style type="text/css">
	.st0{fill:#00B5E5;}
	.st1{fill:#00AFD8;}
	.st2{fill:#006E90;}
	.st3{fill:url(#SVGID_1_);}
	.st4{fill:url(#SVGID_2_);}
	.st5{fill:url(#SVGID_3_);}
</style>
<sodipodi:namedview  bordercolor="#666666" borderopacity="1" gridtolerance="10" guidetolerance="10" id="namedview16" inkscape:current-layer="Page-1" inkscape:cx="83.333333" inkscape:cy="235.5" inkscape:pageopacity="0" inkscape:pageshadow="2" inkscape:window-height="928" inkscape:window-maximized="0" inkscape:window-width="1515" inkscape:window-x="2301" inkscape:window-y="293" inkscape:zoom="0.384" objecttolerance="10" pagecolor="#ffffff" showgrid="false">
	</sodipodi:namedview>
<desc  id="desc2">Created with Sketch.</desc>
<g>
	<g>
		<path class="st0" d="M690.2,20c19.3,0,35.1,15.7,35.1,35.1V415c0,19.3-15.7,35.1-35.1,35.1H59.8c-19.3,0-35.1-15.7-35.1-35.1V55
			C24.7,35.7,40.5,20,59.8,20L690.2,20 M690.2,13H59.8c-23.2,0-42,18.8-42,42V415c0,23.2,18.8,42,42,42h630.4c23.2,0,42-18.8,42-42
			V55C732.3,31.8,713.4,13,690.2,13L690.2,13z"/>
	</g>
	<g>
		<g>
			<path class="st1" d="M99.5,341v-63.6H80.8v-19.7h60v19.7h-18.7V341H99.5z"/>
			<path class="st1" d="M152,341v-83.3h23.7c9.3,0,15.8,0.4,19.4,1.3c3.7,0.9,6.8,2.3,9.5,4.3c3,2.3,5.3,5.2,6.9,8.7
				c1.6,3.5,2.4,7.4,2.4,11.7c0,6.4-1.6,11.7-4.8,15.7c-3.2,4-7.8,6.7-13.9,8.1L218,341h-25.7l-19.1-32.6V341H152z M173.3,297h4.2
				c4.9,0,8.5-0.8,10.7-2.5c2.3-1.7,3.4-4.3,3.4-7.9c0-4.2-1.1-7.1-3.2-8.9c-2.1-1.8-5.6-2.6-10.6-2.6h-4.6L173.3,297L173.3,297z"/>
			<path class="st1" d="M216.9,341l28.7-83.3h28.4l28.8,83.3h-22.6l-4.2-14.9h-32.3l-4.3,14.9H216.9z M248.7,309.9h22.6l-8.5-27.5
				c-0.3-0.8-0.6-2.2-1.1-4c-0.5-1.9-1-4.2-1.8-7.2c-0.5,2-1,4-1.4,5.9c-0.5,1.9-1,3.6-1.5,5.3L248.7,309.9z"/>
			<path class="st1" d="M310.8,341v-83.3h21.9l31.5,42.8c0.6,0.9,1.6,2.6,3,5.3c1.4,2.6,2.9,5.8,4.6,9.4c-0.5-3.5-0.8-6.5-1-9.2
				c-0.2-2.7-0.3-5.1-0.3-7.2v-41.1h21.8V341h-21.8L339,298c-0.6-0.9-1.7-2.6-3-5.3c-1.4-2.6-2.9-5.7-4.5-9.3c0.5,3.5,0.8,6.6,1,9.3
				c0.2,2.7,0.3,5.1,0.3,7.2V341L310.8,341L310.8,341z"/>
			<path class="st1" d="M413.8,314.1c3.4,3.8,6.7,6.7,10,8.6c3.3,1.9,6.6,2.8,9.8,2.8c3,0,5.5-0.8,7.5-2.4c2-1.6,2.9-3.7,2.9-6.2
				c0-2.8-0.8-4.9-2.5-6.4c-1.7-1.5-5.5-3-11.5-4.6c-8.2-2.2-13.9-5.1-17.3-8.6c-3.4-3.5-5.1-8.4-5.1-14.5c0-8,2.7-14.5,8-19.5
				c5.3-5,12.2-7.5,20.7-7.5c4.6,0,8.9,0.6,13.1,1.8c4.1,1.2,8,3.1,11.7,5.6l-7.1,16.3c-2.6-2.2-5.2-3.9-7.9-5
				c-2.7-1.1-5.4-1.7-8.1-1.7c-2.7,0-5,0.7-6.7,2c-1.7,1.3-2.6,3-2.6,5c0,2.1,0.7,3.8,2.2,5c1.5,1.3,4.4,2.4,8.7,3.6l1,0.3
				c9.3,2.5,15.3,5.3,18.3,8.3c2,2.1,3.5,4.5,4.5,7.4c1,2.9,1.5,6,1.5,9.5c0,8.8-2.9,15.9-8.7,21.3c-5.8,5.4-13.5,8.1-23.2,8.1
				c-5.8,0-11.1-1-15.8-3c-4.8-2-9.3-5.1-13.7-9.3L413.8,314.1z"/>
			<path class="st1" d="M477.8,341v-83.3h51v18.3H500v14.5h27.3v17.9H500V341L477.8,341L477.8,341z"/>
			<path class="st1" d="M541.2,341v-83.3h51v18.3h-28.9v14.5h27.3v17.9h-27.3v14.1h28.9V341L541.2,341L541.2,341z"/>
			<path class="st1" d="M607.3,341v-83.3H631c9.3,0,15.8,0.4,19.4,1.3c3.7,0.9,6.8,2.3,9.5,4.3c3,2.3,5.3,5.2,6.9,8.7
				c1.6,3.5,2.4,7.4,2.4,11.7c0,6.4-1.6,11.7-4.8,15.7c-3.2,4-7.8,6.7-13.9,8.1l22.7,33.6h-25.7l-19.1-32.6V341H607.3z M628.6,297
				h4.2c4.9,0,8.5-0.8,10.7-2.5c2.3-1.7,3.4-4.3,3.4-7.9c0-4.2-1.1-7.1-3.2-8.9c-2.1-1.8-5.6-2.6-10.6-2.6h-4.6V297z"/>
		</g>
		<g>
			<path class="st2" d="M219.4,242.6V131.5h30.4c12.5,0,21.3,0.4,26.3,1.2c5,0.8,9.3,2.2,12.9,4.2c4.1,2.3,7.2,5.3,9.4,9.1
				c2.2,3.8,3.2,8.2,3.2,13.2c0,6.3-1.6,11.3-4.8,15.1c-3.2,3.7-8.3,6.5-15.4,8.5c7.9,0.6,14.1,3.4,18.5,8.3
				c4.4,4.9,6.7,11.5,6.7,19.8c0,5.9-1.3,11.1-3.8,15.6c-2.5,4.5-6.1,8-10.7,10.5c-3.8,2-8.5,3.5-14,4.3s-14.7,1.3-27.3,1.3
				L219.4,242.6L219.4,242.6z M247.5,175.9h6.1c7.5,0,12.6-0.8,15.4-2.5c2.8-1.6,4.2-4.5,4.2-8.5c0-4.2-1.3-7.1-3.9-8.8
				c-2.6-1.7-7.7-2.5-15.2-2.5h-6.5L247.5,175.9L247.5,175.9z M247.5,219.9h10.6c7.2,0,12.3-0.9,15.2-2.7c3-1.8,4.5-4.8,4.5-9
				c0-4.7-1.4-7.9-4.1-9.7c-2.7-1.8-7.8-2.8-15.2-2.8h-11.1L247.5,219.9L247.5,219.9z"/>
			<path class="st2" d="M311.8,242.6l38.3-111.1H388l38.4,111.1h-30.1l-5.6-19.9h-43l-5.8,19.9H311.8z M354.2,201.1h30.1L373,164.4
				c-0.4-1.1-0.8-2.9-1.4-5.4c-0.6-2.5-1.4-5.7-2.4-9.6c-0.7,2.7-1.3,5.3-1.9,7.8c-0.6,2.5-1.3,4.9-1.9,7.1L354.2,201.1z"/>
			<path class="st2" d="M437,242.6V131.5h29.2l42,57.1c0.8,1.2,2.1,3.5,4,7c1.8,3.5,3.9,7.7,6.1,12.6c-0.6-4.6-1.1-8.7-1.3-12.3
				c-0.3-3.6-0.4-6.8-0.4-9.6v-54.9h29.1v111.1h-29.1l-42-57.4c-0.9-1.2-2.2-3.5-4.1-7c-1.8-3.5-3.9-7.6-6-12.4
				c0.6,4.7,1.1,8.8,1.3,12.4c0.3,3.6,0.4,6.8,0.4,9.6v54.9H437z"/>
			<path class="st2" d="M569.4,242.6V131.5h30V182l35.1-50.4h35.3l-41,54.2l44.6,56.9h-37.8l-36.2-49.8v49.8L569.4,242.6
				L569.4,242.6z"/>
		</g>
		
			<linearGradient id="SVGID_1_" gradientUnits="userSpaceOnUse" x1="72.1553" y1="329.7712" x2="195.1585" y2="329.7712" gradientTransform="matrix(1 0 0 -1 0 472)">
			<stop  offset="0" style="stop-color:#E70000;stop-opacity:0"/>
			<stop  offset="0.3317" style="stop-color:#DE0000;stop-opacity:0.4506"/>
			<stop  offset="0.7362" style="stop-color:#CD0000"/>
			<stop  offset="0.7931" style="stop-color:#C20000"/>
			<stop  offset="0.8916" style="stop-color:#A60000"/>
			<stop  offset="1" style="stop-color:#800000"/>
		</linearGradient>
		<rect x="72.2" y="131.2" class="st3" width="123" height="22"/>
		
			<linearGradient id="SVGID_2_" gradientUnits="userSpaceOnUse" x1="72.1553" y1="287.0434" x2="195.1585" y2="287.0434" gradientTransform="matrix(1 0 0 -1 0 472)">
			<stop  offset="0" style="stop-color:#E70000;stop-opacity:0"/>
			<stop  offset="0.3317" style="stop-color:#DE0000;stop-opacity:0.4506"/>
			<stop  offset="0.7362" style="stop-color:#CD0000"/>
			<stop  offset="0.7931" style="stop-color:#C20000"/>
			<stop  offset="0.8916" style="stop-color:#A60000"/>
			<stop  offset="1" style="stop-color:#800000"/>
		</linearGradient>
		<rect x="72.2" y="174" class="st4" width="123" height="22"/>
		
			<linearGradient id="SVGID_3_" gradientUnits="userSpaceOnUse" x1="72.1553" y1="240.4324" x2="195.1585" y2="240.4324" gradientTransform="matrix(1 0 0 -1 0 472)">
			<stop  offset="0" style="stop-color:#E70000;stop-opacity:0"/>
			<stop  offset="0.3317" style="stop-color:#DE0000;stop-opacity:0.4506"/>
			<stop  offset="0.7362" style="stop-color:#CD0000"/>
			<stop  offset="0.7931" style="stop-color:#C20000"/>
			<stop  offset="0.8916" style="stop-color:#A60000"/>
			<stop  offset="1" style="stop-color:#800000"/>
		</linearGradient>
		<rect x="72.2" y="220.6" class="st5" width="123" height="22"/>
	</g>
</g>
</svg>
