<?xml version="1.0" encoding="utf-8"?>
<!-- Generator: Adobe Illustrator 24.0.1, SVG Export Plug-In . SVG Version: 6.00 Build 0)  -->
<svg version="1.1" id="Calque_1" xmlns="http://www.w3.org/2000/svg" xmlns:xlink="http://www.w3.org/1999/xlink" x="0px" y="0px"
	 viewBox="0 0 445 250" style="enable-background:new 0 0 445 250;" xml:space="preserve">
<style type="text/css">
	.st0{opacity:0.1;fill:#08ACC1;}
	.st1{fill:#FCA992;}
	.st2{fill:#08ACC1;}
	.st3{fill:#FF9B21;}
	.st4{fill:#118A93;}
	.st5{fill:#F79E86;}
	.st6{fill:#F48A69;}
	.st7{fill:#3D71F6;}
	.st8{fill:#1A65E8;}
	.st9{opacity:0.25;fill:#E27356;enable-background:new    ;}
	.st10{fill:#FFD9D2;}
	.st11{fill:#FFC8C1;}
	.st12{fill:#FF8200;}
	.st13{fill:#532443;}
	.st14{opacity:0.47;fill:#E27356;enable-background:new    ;}
</style>
<g id="Group_1788" transform="translate(-1217 -428)">
	<path id="Path_7037" class="st0" d="M1614.1,499.8c-10.9-2.6-21.8-0.7-32.6-0.2c-76.5,3.9-110.1-49.5-159.2-64
		c-61.2-18-149,62.1-174.9,108.9c-17.2,31-41.5,52.2-24.7,76.4c30.4,43.8,109.3-42.4,227.7,14.6c34.1,16.4,90.9,65,164.6,16.5
		C1690.6,602.1,1663.6,511.4,1614.1,499.8z"/>
	<g id="Group_1778" transform="translate(1753.436 429.029)">
		<g id="Group_1778-2" transform="translate(-348.73 79.501)">
			<path id="Path_7005" class="st1" d="M6.2,71.5c0,0-9.1-26.6-5.2-36.4C7,20,19.8,8.1,19.8,8.1l4.3,2.2c0,0-10.3,15.7-13.2,23.1
				c-1.5,3.8-1.4,12.9,7,27.3C12,65.5,9.9,66,6.2,71.5z"/>
			<path id="Path_7006" class="st1" d="M19.8,8.1c0,0,5.2-8.2,6.1-8c0.4,0.1-1.2,3.3-1.2,3.3s2.7-3.8,3.2-3.4c0.9,0.7-2,3.8-2,3.8
				s3-3,3.4-2.6C29.8,1.9,26.3,5,26.3,5s3.2-2.8,3.6-2.4s-3.7,4-3.7,4s2.8-1.3,3-0.3s-5.2,4.1-5.2,4.1L19.8,8.1z"/>
		</g>
		<g id="Group_1779" transform="translate(-301.195 79.722)">
			<path id="Path_7007" class="st1" d="M19.4,71.1c0,0,8.6-25.9,5-35.4C18.9,21,7.8,8,7.8,8l-4,2.1c0,0,8.8,16.7,11.5,23.9
				c1.4,3.7,1.2,12.6-6.6,26.6C14,65.2,15.9,65.7,19.4,71.1z"/>
			<path id="Path_7008" class="st1" d="M8.8,9.8c0,0-3.1-9.2-4-9.2c-0.5,0,0.4,3.5,0.4,3.5S3.5-0.3,2.9,0C1.9,0.5,4,4.2,4,4.2
				S1.8,0.5,1.3,0.8C0.5,1.4,3.2,5.1,3.2,5.1s-2.4-3.5-3-3.2s2.7,4.7,2.7,4.7S0.4,4.7,0,5.7s4,5.3,4,5.3L8.8,9.8z"/>
		</g>
		<g id="Group_1780" transform="translate(-346.925 -1.029)">
			<path id="Path_7009" class="st2" d="M32.7,0c10.1-0.2,18.4,2.9,24.9,9.3s9.8,13.9,10,22.4c0.1,3.9-0.6,7.8-2,11.4
				c-1.2,3.1-2.9,5.9-5.2,8.3c-1.9,1.9-4,3.7-6.3,5.2c-1.7,1.2-3.5,2.2-5.3,3l-2.3,0.8c0,1.2,0,2.5-0.2,3.7c-0.2,1-0.6,2-1.2,2.8
				c-0.9,1.1-2.1,1.9-3.5,2.2c-2.2,0.5-4.4,0.8-6.6,0.8c-2.2,0.1-4.5-0.1-6.7-0.6c-1.4-0.3-2.7-1.1-3.5-2.4c-0.6-0.9-1-2-1.3-3.1
				c-0.2-1.4-0.3-2.8-0.3-4.2c0-0.2,0-0.3,0.1-0.5c0-0.2,0.1-0.4,0.1-0.6c-0.1-4.1,1-7.4,3.3-9.8c2-2.3,4.7-3.9,7.6-4.8
				c2.8-0.8,5.3-2.2,7.6-4c2.2-1.7,3.5-4.4,3.4-7.2c-0.1-3.2-1-5.7-2.8-7.4s-4.9-2.5-9.3-2.4c-2.3-0.1-4.5,0.5-6.5,1.8
				c-1.4,0.8-2.4,2-3,3.4l-0.4,1.7c-0.6,2.1-1.6,4-2.9,5.7c-1.2,1.4-3,2.1-4.8,2c-2-0.1-3.9-0.5-5.7-1.2c-3.6-1.4-6.2-2.7-7.6-4
				c-1.3-1.1-2.1-2.7-2.1-4.4c0.2-1.7,0.5-3.4,1.1-5l0.3-0.7c0.2-0.6,0.5-1.4,0.8-2.4c0.8-1.8,1.8-3.6,3-5.3
				c1.6-2.4,3.5-4.7,5.6-6.6c2.7-2.2,5.7-4,9-5.3C23.9,0.9,28.3,0,32.7,0z"/>
			<path id="Path_7010" class="st2" d="M36.1,74.7c5.7-0.1,9.6,0.8,11.9,2.8c1.9,1.7,2.9,5.2,3,10.5c0.1,1.7,0,3.4-0.2,5.1
				c-0.3,1.4-0.8,2.8-1.5,4c-1,1.6-2.6,2.8-4.4,3.2c-2.7,0.7-5.6,1.1-8.4,1.1c-5.6,0.1-9.6-0.8-12-2.8c-1.8-1.6-2.8-4.3-2.8-8.2
				l0-2.3c-0.1-1.7,0-3.3,0.2-5c0.2-1.4,0.7-2.7,1.4-4c1-1.6,2.6-2.8,4.4-3.3C30.3,75,33.2,74.7,36.1,74.7z"/>
		</g>
		<g id="Group_1782" transform="translate(-336.756 233.751)">
			<path id="Path_7011" class="st3" d="M17.7,0.1C13.5-0.1,9.3,0,5.1,0.2c-0.3,0-0.6,0-0.9,0.1C2.4,1.8,1.8,3.6,1.9,6.4
				C2,8.6,3,10.6,4.8,11.9c2.6,0.3,13.7,0.5,16.4-1.4c1.3-0.8,2.1-2.1,2.4-3.6C23.9,3.5,20.7,0.2,17.7,0.1z"/>
			<g id="Group_1781" transform="translate(0)">
				<path id="Path_7012" class="st3" d="M1.9,6.4c0-2.8,0.5-4.7,2.3-6.2C2.8,0.2,1.5,0.9,0.7,2C0.3,2.8,0.1,3.6,0.1,4.5
					C0,7-0.8,11.3,4.8,11.9C4.5,11.5,1.9,8,1.9,6.4z"/>
				<path id="Path_7013" class="st4" d="M1.9,4.8C1.8,2,2.8,1.4,4.2,0.3c0.3,0,0.6-0.1,0.9-0.1C9.3,0,13.5-0.1,17.7,0.1
					c1.2,0.1,2.4,0.6,3.3,1.3c1.1-0.6,2.6-1.2,3.4-0.1c1.2,1.8,1.1,8.1,0.6,8.7c-0.3,0.4-1.8,0.4-3.1-0.1c-0.2,0.2-0.5,0.4-0.7,0.6
					c-2.6,1.8-13.7,1.6-16.4,1.4C3.2,10.7,2.2,8.9,1.9,7C1.9,7,1.9,4.8,1.9,4.8z"/>
			</g>
		</g>
		
			<ellipse id="Ellipse_548" transform="matrix(1.560256e-02 -0.9999 0.9999 1.560256e-02 -554.3257 -74.7908)" class="st0" cx="-315.1" cy="244.1" rx="4.2" ry="43.8"/>
		<path id="Path_7014" class="st5" d="M-314.6,232.7c-0.5,0.9-0.5,2.1,0.2,2.9c0.3,0.4,0.6,0.9,0.8,1.4c0.6,1,1.4,2.1,2.6,2.1
			c0.5,0,0.9-0.1,1.3-0.3c2-0.7,3.9-1.5,5.7-2.5c0.4-0.2,0.7-0.5,0.9-0.8c0.1-0.5,0-1-0.3-1.5c-0.7-1.1-1.8-2-2.6-3.1
			c-1.3-1.7-2.7-5.9-5.4-3.9C-311.8,227.6-313.5,230.7-314.6,232.7z"/>
		<path id="Path_7015" class="st6" d="M-308.1,235.5c0.6,0.8,0.7,2,0.2,2.9c-0.2,0.5-0.4,1-0.6,1.5c-0.4,1.1-1.1,2.3-2.3,2.5
			c-0.5,0.1-0.9,0-1.4-0.1c-2.1-0.4-4.1-1-6-1.7c-0.4-0.1-0.8-0.4-1-0.7c-0.2-0.5-0.2-1,0.1-1.5c0.5-1.2,1.5-2.2,2.2-3.4
			c1-1.9,1.9-6.2,4.8-4.6C-311.6,230.7-309.6,233.7-308.1,235.5z"/>
		<path id="Path_7016" class="st7" d="M-305.6,226.1c0,0-8.9,12-14.8,16.8c-1.3,1.1-3.2,1-4.4-0.1c-8.3-7.4-40.3-36.4-41.6-39.2
			c-4-8.6,4.8-14.9,13.5-13S-305.6,226.1-305.6,226.1z"/>
		<path id="Path_7017" class="st8" d="M-320.5,243c-1.3,1-3.1,1-4.4-0.1c-8.3-7.4-40.3-36.4-41.6-39.2c-0.9-1.8-1.2-3.9-0.8-5.8
			c1.6,0.2,3.1,0.7,4.4,1.6c4.4,2.9,6.8,8,10.4,11.9c4.3,4.6,10.1,7.3,15.9,9.6s11.8,4.4,16.9,8c2.7,1.9,5.2,4.4,5.8,7.7l0,0
			C-315.9,238.8-318.1,241-320.5,243z"/>
		<path id="Path_7018" class="st4" d="M-278.5,205.2l-7.9-8.5c0,0-52.3-1.9-52.3-1.9l-0.2,0.4l-0.2,0l-2.3,4.2l0.9,0.7
			c0.3,0.1,0.6,0.2,1,0.2l28.1,23L-278.5,205.2z"/>
		<path id="Path_7019" class="st2" d="M-305.6,226.1c0,0-8.9,12-14.8,16.8c-1.3,1.1-3.2,1-4.4-0.1c-8.3-7.4-40.3-36.4-41.6-39.2
			c-4-8.6,4.8-14.9,13.5-13S-305.6,226.1-305.6,226.1z"/>
		<path id="Path_7020" class="st1" d="M-309.5,135.8c0,0-0.8,6.7,6.4,6.8c4.2,0.1-4.7,7.1-6.5,8.1s-7.8,0.5-7.8,0.5l-6.2-9l2.3-0.1
			c4.2,0.2,5.7-2.2,6.4-5.6c0,0,0-0.1,0-0.1C-314.2,132.5-309.5,135.8-309.5,135.8z"/>
		<path id="Path_7021" class="st9" d="M-315,136.5c0,0,0-0.1,0-0.1c0.8-3.9,5.5-0.6,5.5-0.6c-0.1,1.2,0.1,2.5,0.6,3.6
			c-0.9,0.6-2,0.8-3.1,0.7c-1.4,0.1-2.7-0.2-3.9-0.8C-315.5,138.4-315.2,137.5-315,136.5z"/>
		<path id="Path_7022" class="st1" d="M-300.8,118.3c0,0-2.1,20.5-11.3,20.3s-14.4-20.9-14.4-20.9l16.1-7.9c0,0,6,4.1,6.1,4.3
			S-300.8,118.3-300.8,118.3z"/>
		<g id="Group_1783" transform="translate(-302.541 122.03)">
			<path id="Path_7023" class="st10" d="M0.6,0.5C0.6,0.5,4-1,3,1.3c-0.4,1.3-1.7,2.1-3,2L0.6,0.5z"/>
			<path id="Path_7024" class="st11" d="M0.9,1.3c0,0,1.4-1.1,1.4,0c0,0.7-1.6,1-1.6,1L0.9,1.3z"/>
		</g>
		<path id="Path_7025" class="st12" d="M-330.8,162.5l1.7-2.5l-2.2,4.3L-330.8,162.5z"/>
		<path id="Path_7026" class="st2" d="M-285.3,199.1c0,0,15.7-16,23.5-9c1.3,1.2,2.7,5.1,1.9,8.2c-2.8,12.2-21.3,31.9-34.9,45.1
			c-4.3-3.9-8.5-8.1-12.4-12.5c-6.1-6.6-6.1-7.5-6.1-7.5L-285.3,199.1z"/>
		<g id="Group_1785" transform="translate(-310.553 233.751)">
			<path id="Path_7027" class="st3" d="M7.6,0.1c4.2-0.1,8.4-0.1,12.6,0.1c0.3,0,0.6,0,0.9,0.1c1.7,1.5,2.4,3.4,2.3,6.2
				c-0.1,2.2-1.2,4.2-2.9,5.5c-2.6,0.3-13.7,0.5-16.4-1.4C3,9.7,2.1,8.4,1.8,6.9C1.4,3.5,4.7,0.2,7.6,0.1z"/>
			<g id="Group_1784" transform="translate(0)">
				<path id="Path_7028" class="st3" d="M23.5,6.4c0-2.8-0.5-4.7-2.3-6.2c1.4,0,2.7,0.7,3.5,1.8c0.4,0.8,0.6,1.6,0.5,2.4
					c0.1,2.5,0.9,6.8-4.7,7.4C20.9,11.5,23.4,8,23.5,6.4z"/>
				<path id="Path_7029" class="st4" d="M23.4,4.8c0.1-2.8-0.9-3.3-2.2-4.5c-0.3,0-0.6-0.1-0.9-0.1C16.1,0,11.8-0.1,7.6,0.1
					C6.4,0.2,5.3,0.6,4.3,1.4C3.2,0.8,1.7,0.2,1,1.3C-0.3,3.1-0.1,9.4,0.4,10c0.3,0.4,1.8,0.4,3.1-0.1c0.2,0.2,0.5,0.4,0.7,0.6
					c2.6,1.8,13.7,1.6,16.4,1.4c1.6-1.2,2.6-2.9,2.8-4.9C23.4,7,23.5,4.8,23.4,4.8z"/>
			</g>
		</g>
		<path id="Path_7030" class="st3" d="M-294,137.3c-1.6,0-2.2,5.8-5.9,5c-1-0.2-2-0.4-3-0.4l-3.6-0.1c0,0,0.8,6-6.7,6.7
			c-7.5-0.7-6.6-6.6-6.6-6.6l-3.6,0.2c-1,0.1-2,0.2-3,0.4c-3.7,0.8-4.4-5.3-5.9-5.3c-6.5,0-15.3,6.9-13.4,12.4
			c0.9,2.6,13.8,12.9,15,12.8l-9.2,34.2c-1.8-0.5,9.8,4.6,26.8,4.5c0,0,0,0,0,0c0,0,0,0,0,0c20.4-0.7,26.8-4.5,26.8-4.5l-9.2-34.2
			c1.2,0.1,14.1-10.2,15-12.8C-278.8,144.2-287.5,137.3-294,137.3z"/>
		<path id="Path_7031" class="st13" d="M-297,117.5c0.3-6.7-2.7-8.8-3.3-9.2c0.6-1.9-0.1-3.6-1.1-4.1c-1.8-0.8-7.5,3.3-10.5,1.4
			s-10.6-4.6-14.2-1.7s-2,10.5,5.8,13.4c5.9,2.2,14.3,1.6,17.1-0.4c0.6-0.5,1.5,0.9,1.7,1.7c0.9,4.1-2.1,10.4-1.9,10.9
			C-302.9,130.4-297.1,121.4-297,117.5z"/>
		<path id="Path_7032" class="st13" d="M-328,113.3c-0.7,2.7-0.6,5.5,0,8.1c0.7,2.9,4.7,8.7,5.5,7.3c0.2-0.3-2.6-6.6-1.3-11.6
			c0.4-1.4,2.8-1.5,2.6-2.5c-0.3-2.6-4.1-5.1-4.8-4.7C-327.2,110.7-327.9,112-328,113.3z"/>
		<g id="Group_1786" transform="translate(-326.52 121.149)">
			<path id="Path_7033" class="st1" d="M2.6,0.5c0,0-3.3-1.5-2.4,0.9c0.4,1.3,1.7,2.1,3,2L2.6,0.5z"/>
			<path id="Path_7034" class="st14" d="M2.3,1.3c0,0-1.4-1.1-1.4,0c0,0.7,1.6,1,1.6,1L2.3,1.3z"/>
		</g>
		<g id="Group_1787" transform="translate(-302.541 122.03)">
			<path id="Path_7035" class="st1" d="M0.6,0.5C0.6,0.5,4-1,3,1.3c-0.4,1.3-1.7,2.1-3,2L0.6,0.5z"/>
			<path id="Path_7036" class="st14" d="M0.9,1.3c0,0,1.4-1.1,1.4,0c0,0.7-1.6,1-1.6,1L0.9,1.3z"/>
		</g>
	</g>
</g>
</svg>
