<?xml version="1.0" encoding="utf-8"?>
<!-- Generator: Adobe Illustrator 24.2.3, SVG Export Plug-In . SVG Version: 6.00 Build 0)  -->
<svg version="1.1" id="Group_861" xmlns="http://www.w3.org/2000/svg" xmlns:xlink="http://www.w3.org/1999/xlink" x="0px" y="0px"
	 viewBox="0 0 107.1 106.9" style="enable-background:new 0 0 107.1 106.9;" xml:space="preserve">
<style type="text/css">
	.st0{fill:#FFFFFF;}
</style>
<g>
	<g>
		<g>
			<path class="st0" d="M84.8,27.2H22.3c-3.4,0-6.2,2.8-6.2,6.2v39.9c0,3.4,2.8,6.2,6.2,6.2h62.4c0.4,0,0.7,0,1-0.1
				c3-0.5,5.2-3.1,5.2-6.2V33.5C91,30,88.2,27.2,84.8,27.2z M22.3,77.2c-1.9,0-3.6-1.5-3.7-3.4l24.9-16.3l25.3,19.7H22.3z
				 M88.5,73.4c0,1.8-1.3,3.4-3.1,3.7c-0.2,0-0.4,0.1-0.6,0.1H72.9L56.3,64.3l14.8-11.8l17.4,10.4V73.4z M88.5,60L71.7,49.9
				c-0.4-0.3-1-0.2-1.4,0.1L54.3,62.7l-10-7.8c-0.4-0.3-1-0.4-1.4-0.1L18.6,70.8V33.5c0-2.1,1.7-3.7,3.7-3.7h62.4
				c2.1,0,3.7,1.7,3.7,3.7V60z"/>
			<path class="st0" d="M53.5,34.7c-4.1,0-7.5,3.4-7.5,7.5c0,4.1,3.4,7.5,7.5,7.5c4.1,0,7.5-3.4,7.5-7.5S57.7,34.7,53.5,34.7z
				 M53.5,47.2c-2.8,0-5-2.2-5-5c0-2.8,2.2-5,5-5c2.8,0,5,2.2,5,5C58.5,45,56.3,47.2,53.5,47.2z"/>
		</g>
	</g>
</g>
</svg>
