<?xml version="1.0" encoding="utf-8"?>
<!-- Generator: Adobe Illustrator 24.2.3, SVG Export Plug-In . SVG Version: 6.00 Build 0)  -->
<svg version="1.1" id="Group_861" xmlns="http://www.w3.org/2000/svg" xmlns:xlink="http://www.w3.org/1999/xlink" x="0px" y="0px"
	 viewBox="0 0 107.1 106.9" style="enable-background:new 0 0 107.1 106.9;" xml:space="preserve">
<style type="text/css">
	.st0{fill:#FFFFFF;}
</style>
<g>
	<path class="st0" d="M18.6,27.2h8.7V36h-8.7V27.2z"/>
	<path class="st0" d="M36.1,27.2h8.7V36h-8.7V27.2z"/>
	<path class="st0" d="M27.3,36h8.7v8.7h-8.7V36z"/>
	<path class="st0" d="M44.8,36h8.7v8.7h-8.7V36z"/>
	<path class="st0" d="M18.6,44.7h8.7v8.7h-8.7V44.7z"/>
	<path class="st0" d="M36.1,44.7h8.7v8.7h-8.7V44.7z"/>
	<path class="st0" d="M27.3,53.5h8.7v8.7h-8.7V53.5z"/>
	<path class="st0" d="M44.8,53.5h8.7v8.7h-8.7V53.5z"/>
	<path class="st0" d="M53.6,27.2h8.7V36h-8.7V27.2z"/>
	<path class="st0" d="M62.3,36H71v8.7h-8.7V36z"/>
	<path class="st0" d="M53.6,44.7h8.7v8.7h-8.7V44.7z"/>
	<path class="st0" d="M62.3,53.5H71v8.7h-8.7V53.5z"/>
	<path class="st0" d="M18.6,62.2h8.7v8.7h-8.7V62.2z"/>
	<path class="st0" d="M36.1,62.2h8.7v8.7h-8.7V62.2z"/>
	<path class="st0" d="M27.3,70.9h8.7v8.7h-8.7V70.9z"/>
	<path class="st0" d="M44.8,70.9h8.7v8.7h-8.7V70.9z"/>
	<path class="st0" d="M53.6,62.2h8.7v8.7h-8.7V62.2z"/>
	<path class="st0" d="M62.3,70.9H71v8.7h-8.7V70.9z"/>
	<path class="st0" d="M71,27.2h8.7V36H71V27.2z"/>
	<path class="st0" d="M79.8,36h8.7v8.7h-8.7V36z"/>
	<path class="st0" d="M71,44.7h8.7v8.7H71V44.7z"/>
	<path class="st0" d="M79.8,53.5h8.7v8.7h-8.7V53.5z"/>
	<path class="st0" d="M71,62.2h8.7v8.7H71V62.2z"/>
	<path class="st0" d="M79.8,70.9h8.7v8.7h-8.7V70.9z"/>
</g>
</svg>
