<?xml version="1.0" encoding="utf-8"?>
<!-- Generator: Adobe Illustrator 24.0.1, SVG Export Plug-In . SVG Version: 6.00 Build 0)  -->
<svg version="1.1" id="Calque_1" xmlns="http://www.w3.org/2000/svg" xmlns:xlink="http://www.w3.org/1999/xlink" x="0px" y="0px"
	 viewBox="0 0 92 60.5" style="enable-background:new 0 0 92 60.5;" xml:space="preserve">
<style type="text/css">
	.st0{fill:#08ACC1;}
	.st1{fill:none;}
	.st2{fill:none;stroke:#08ACC1;stroke-miterlimit:10;}
	.st3{fill:#FFFFFF;}
</style>
<g transform="translate(-2317.492 -165)">
	<g transform="translate(2317.508 165)">
		<path class="st0" d="M6.6,55.6V2.8C6.6,1.3,7.9,0,9.4,0h73.2c1.5,0,2.8,1.3,2.8,2.8l0,0v52.8"/>
		<path class="st1" d="M6.6,55.6V2.8C6.6,1.3,7.9,0,9.4,0h73.2c1.5,0,2.8,1.3,2.8,2.8l0,0v52.8"/>
		<line class="st1" x1="7.5" y1="10.9" x2="7.5" y2="7.7"/>
		<path class="st2" d="M89.2,55.6H56.6c-0.2,0-0.4,0.1-0.4,0.3c-0.2,0.7-0.8,1.2-1.5,1.2H37.3c-0.7,0-1.3-0.5-1.5-1.2
			c0-0.2-0.2-0.3-0.4-0.3H2.8c-1.2,0-2.2,0.9-2.3,2.1c0,1.2,0.8,2.2,2,2.3h86.8c1.2,0,2.2-1,2.2-2.2v-0.3
			C91.3,56.4,90.3,55.5,89.2,55.6z"/>
		<path class="st0" d="M35,53.5c0,0,0,2.9,2.4,3.6h17.4c1.7-0.5,3-1.9,3.3-3.6c0.3-2.9-14.8-2.4-14.8-2.4"/>
	</g>
	<path class="st3" d="M2362.4,203.4c-0.5,0-1-0.2-1.3-0.6l-6.5-6.5c-0.7-0.7-0.8-1.8-0.1-2.5c0,0,0.1-0.1,0.1-0.1l0,0
		c0.7-0.7,1.8-0.8,2.5-0.1c0,0,0.1,0.1,0.1,0.1l0,0l5.2,5.2l9.3-9.3c0.7-0.7,1.8-0.8,2.5-0.1c0,0,0.1,0.1,0.1,0.1l0,0
		c0.7,0.7,0.8,1.8,0.1,2.5c0,0-0.1,0.1-0.1,0.1l0,0l-10.6,10.7C2363.3,203.2,2362.9,203.4,2362.4,203.4z"/>
</g>
</svg>
