<?xml version="1.0" encoding="utf-8"?>
<!-- Generator: Adobe Illustrator 24.2.3, SVG Export Plug-In . SVG Version: 6.00 Build 0)  -->
<svg version="1.1" id="Calque_1" xmlns="http://www.w3.org/2000/svg" xmlns:xlink="http://www.w3.org/1999/xlink" x="0px" y="0px"
	 viewBox="0 0 132.5 86.9" style="enable-background:new 0 0 132.5 86.9;" xml:space="preserve">
<style type="text/css">
	.st0{fill:none;stroke:#C6D2E0;stroke-width:2;stroke-linecap:round;stroke-miterlimit:10;}
	.st1{fill:none;stroke:#717791;stroke-width:2;stroke-miterlimit:10;}
	.st2{fill:none;}
</style>
<g id="Group_866" transform="translate(0.032)">
	<path id="Path_754" class="st0" d="M103.3,65.4H29.1c-0.3,0-0.6-0.3-0.6-0.6V17.7c0-0.3,0.2-0.6,0.6-0.6h74.2
		c0.3,0,0.6,0.3,0.6,0.6v47C103.9,65.1,103.7,65.4,103.3,65.4z"/>
	<path id="Path_755" class="st1" d="M25.5,68.9V16.5c0-1.5,1.2-2.8,2.7-2.8h76c1.5,0,2.7,1.3,2.7,2.8l0,0v52.5"/>
	<line id="Line_18" class="st2" x1="28.3" y1="24.5" x2="28.3" y2="21.3"/>
	<path id="Path_756" class="st1" d="M110.8,68.9H76.7c-0.2,0-0.3,0.2-0.4,0.3c-0.2,0.7-0.7,1.2-1.5,1.2H57.7c-0.7,0-1.3-0.5-1.5-1.2
		c0-0.2-0.2-0.3-0.4-0.3H21.7c-1.2,0-2.1,0.8-2.3,2c-0.1,1.2,0.7,2.3,1.9,2.4c0.1,0,0.2,0,0.2,0h89.3c1.2,0,2.1-0.9,2.1-2.2
		c0-0.1,0-0.2,0-0.3C112.9,69.7,111.9,68.9,110.8,68.9z"/>
</g>
</svg>
