<?xml version="1.0" encoding="utf-8"?>
<!-- Generator: Adobe Illustrator 24.2.3, SVG Export Plug-In . SVG Version: 6.00 Build 0)  -->
<svg version="1.1"
	 id="svg14" xmlns:cc="http://creativecommons.org/ns#" xmlns:dc="http://purl.org/dc/elements/1.1/" xmlns:inkscape="http://www.inkscape.org/namespaces/inkscape" xmlns:rdf="http://www.w3.org/1999/02/22-rdf-syntax-ns#" xmlns:sodipodi="http://sodipodi.sourceforge.net/DTD/sodipodi-0.dtd" xmlns:svg="http://www.w3.org/2000/svg"
	 xmlns="http://www.w3.org/2000/svg" xmlns:xlink="http://www.w3.org/1999/xlink" x="0px" y="0px" viewBox="0 0 750 471"
	 style="enable-background:new 0 0 750 471;" xml:space="preserve">
<style type="text/css">
	.st0{fill:#016FD0;}
</style>
<sodipodi:namedview  bordercolor="#666666" borderopacity="1" gridtolerance="10" guidetolerance="10" id="namedview16" inkscape:current-layer="Page-1" inkscape:cx="83.333333" inkscape:cy="235.5" inkscape:pageopacity="0" inkscape:pageshadow="2" inkscape:window-height="928" inkscape:window-maximized="0" inkscape:window-width="1515" inkscape:window-x="2301" inkscape:window-y="293" inkscape:zoom="0.384" objecttolerance="10" pagecolor="#ffffff" showgrid="false">
	</sodipodi:namedview>
<desc  id="desc2">Created with Sketch.</desc>
<path id="blue" class="st0" d="M723.7,382.8c13.7-0.1,25.5-8.1,25.5-8.1v234.9H1V228.8h34.6l7.4-18.5h19.9l7.4,18.5h281.9v-18.5
	l15,18.5h75.8v-13c0,0,12.9,13,33,13h50.3l7.3-18.5h19.9l7.5,18.5h74.1V208l13.3,20.8h50.9V111.4h-50.9v20.8l-13.9-20.8h-50.5v36.5
	l-15.6-36.1l-87.8-0.3c-23.4,0-37.6,13.3-37.6,13.3v-13.3H172.4l-9.2,26.5l-9.5-26.5H93.5V148l-15.9-36.6H29L1,176.8v-315.3h748.1
	v403.9H297.7l-13.8,17.4l-13.3-17.4H146.2v117.5h123.6l13.5-17.8l13.3,17.8h74.6v-27.2h16.8c14.6,0,21.3-4.4,21.3-4.4v31.6h49.3
	v-18.5l15,18.5L723.7,382.8L723.7,382.8z M25.8,213.8H14.1H1.1l10.8-25L39,125.9v0h28.7l37.8,87.9H80.3l-6.9-17.6H32.8L25.8,213.8z
	 M40.6,177.1h24.8L53,146.3L40.6,177.1z M218,213.8v-87.9h-34.7l-19.9,56.8L143,126l-35-0.1v87.9h22V149l23.4,64.8h19.3L196,149
	v64.8H218z M304.8,145.5v-19.7H233v87.9l71.7,0v-19.1h-49.5v-15.6h48.4v-18.5h-48.4v-15L304.8,145.5L304.8,145.5z M373,181.4
	l28.9,32.4h-26.9l-26.4-31.2h-9.3v31.2h-22v-87.9v0h48.9c16.2,0,30.7,10,30.7,28.5C397.2,170.2,384.9,180.4,373,181.4z M375,154.8
	c0-4.5-4.4-9.3-10.4-9.3h-25.1v18.5h25.5C369.4,164.1,375,160.6,375,154.8z M406.1,125.9v87.9h22.4v-87.9
	C428.6,125.9,406.1,125.9,406.1,125.9z M439.3,170.2c0,25.1,14.2,43.6,37.7,43.6h4.8l9.3-19.2h-5.8c-14,0-23.7-7.2-23.7-24.2
	c0-14.3,8.5-23.7,20.5-23.7h25.2v-20.8H483C453.4,125.9,439.3,144.4,439.3,170.2z M491.8,213.8l37.8-87.9v0h28.7l37.8,87.9H571
	l-6.9-17.6h-40.6l-7,17.6L491.8,213.8L491.8,213.8z M531.3,177.1H556l-12.4-30.8L531.3,177.1z M657.3,213.8h27.1v-87.9h-22v55.3
	l-35.7-55.3h-28v87.9h22v-56.7L657.3,213.8z M233,299.4v-19.7h-71.7v87.9l71.7,0v-19.1h-49.5V333h48.4v-18.5h-48.4v-15L233,299.4
	L233,299.4z M584.6,299.4v-19.7h-71.7v87.9l71.7,0v-19.1h-49.5V333h48.1v-18.5h-48.1v-15L584.6,299.4L584.6,299.4z M305.3,279.8
	L284,307.3l-21.3-27.5H235l35.8,44.5l-34.9,43.4l27.3,0l20.2-27.1l20.7,27.1h27.7l-35-44l35.3-44L305.3,279.8L305.3,279.8z
	 M382.8,279.8c19.9,0,31.6,12.8,31.6,29.6c0,20.2-14.8,30.6-34.4,30.6h-23.1v27.8h-22.6v-87.9H382.8z M381.2,299.7h-24.4v20.3h24.3
	c6.4,0,10.9-4.3,10.9-10.1C392.1,303.5,387.5,299.7,381.2,299.7z M479.5,335.3l28.9,32.4h-26.9l-26.4-31.2h-9.3v31.2h-22v-87.9h48.9
	c16.2,0,30.7,10,30.7,28.5C503.6,324.1,491.4,334.3,479.5,335.3z M481.5,308.7c0-4.5-4.4-9.3-10.4-9.3h-25.1V318h25.5
	C475.8,318,481.5,314.5,481.5,308.7z M638.8,348.6h-44v19.1h46.9c19.4,0,28.7-12.6,28.7-28c0-14.3-8.4-25.2-27.6-25.2h-20.8
	c-5.4,0-8.1-4-8.1-7.7c0-3.5,2.2-7.3,9.3-7.3h37l9.3-19.8h-42.8c-25.7,0-34.5,13.6-34.5,27.7c0,15.8,9.6,26.3,26.9,26.3h19.9
	c6.5,0,9.3,3.7,9.3,7.4C648.1,345.1,645.3,348.6,638.8,348.6z M749.1,329.1c-3.4-8.8-11.6-14.6-25.8-14.6h-5.7h-15.1
	c-5.4,0-8.1-4-8.1-7.7c0-3.5,2.2-7.3,9.3-7.3h23.5h13.5l8.4-18l0.8-1.8h-0.8h-9.3h-32.7c-25.7,0-34.5,13.6-34.5,27.7
	c0,15.8,9.6,26.3,26.9,26.3h19.9c0.1,0,0.2,0,0.3,0c6.3,0.1,9,3.8,9,7.4c0,1.3-0.4,2.6-1,3.7c-1.3,2.2-4,3.7-8.3,3.7h-44v19.1h46.9
	c7.6,0,13.6-1.9,18.1-5.2c4.1-2.9,7-7,8.7-11.7c1.2-3.4,1.9-7.2,1.9-11.1C751,335.9,750.4,332.3,749.1,329.1z"/>
</svg>
