<?xml version="1.0" encoding="utf-8"?>
<!-- Generator: Adobe Illustrator 24.2.3, SVG Export Plug-In . SVG Version: 6.00 Build 0)  -->
<svg version="1.1" id="Group_861" xmlns="http://www.w3.org/2000/svg" xmlns:xlink="http://www.w3.org/1999/xlink" x="0px" y="0px"
	 viewBox="0 0 107.1 106.9" style="enable-background:new 0 0 107.1 106.9;" xml:space="preserve">
<style type="text/css">
	.st0{fill:#717791;}
</style>
<g>
	<g>
		<g>
			<path class="st0" d="M63.3,68H59c-0.6,0-1.1,0.5-1.1,1.1s0.5,1.1,1.1,1.1h4.2c0.6,0,1.1-0.5,1.1-1.1C64.4,68.5,63.9,68,63.3,68z"
				/>
		</g>
	</g>
	<g>
		<g>
			<path class="st0" d="M88,55.9l-6.1-2.4l-3.1-3.1c-0.2-0.2-0.5-0.3-0.7-0.3v-2.5c1.5-1.6,2.5-3.6,2.9-5.8c0.3,0,0.5,0,0.8-0.1
				c1.5-0.3,2.6-1.7,2.6-3.3v-0.8c0-0.9-0.4-1.8-1-2.4c1-5.4,0.2-9.8-2.4-12.8c-2.5-2.9-6.4-4.2-11.5-3.9c-4.7,0.3-7.7,2.4-8.6,3.2
				c-0.5,0.1-1.4,0.2-2.3,0.8c-1.2,0.7-2.7,2.3-2.7,5.6c0,2.8,0.5,5.2,0.8,6.5c-1.1,0.5-1.8,1.7-1.8,3v0.8c0,1.6,1.1,3,2.6,3.3
				c0.3,0.1,0.5,0.1,0.8,0.1c0.4,2.2,1.5,4.2,2.9,5.8v2.5c-0.3,0-0.5,0.1-0.7,0.3l-3.1,3.1l-6.1,2.4c-0.5,0.2-1,0.5-1.5,0.8
				s-0.6,1-0.3,1.6c0.2,0.3,0.6,0.5,0.9,0.5c0.2,0,0.4-0.1,0.6-0.2c0.3-0.2,0.7-0.4,1.1-0.5l5.7-2.2l4.3,6.5
				c0.5,0.8,1.4,1.3,2.4,1.4c0.1,0,0.2,0,0.3,0c0.6,0,1.1-0.1,1.6-0.4l-0.9,21.2c0,0.6,0.5,1.1,1.1,1.2c0,0,0,0,0.1,0
				c0.6,0,1.1-0.5,1.1-1.1L68.4,65h2.3l0.9,19.6c0,0.6,0.5,1.1,1.1,1.1c0,0,0,0,0.1,0c0.6,0,1.1-0.6,1.1-1.2L73,63.3
				c0.5,0.3,1,0.4,1.6,0.4c0.1,0,0.2,0,0.3,0c1-0.1,1.8-0.6,2.4-1.4l4.3-6.5l5.7,2.2c0.8,0.3,1.5,0.8,2,1.4l-3.9,3.9
				c-1.4,1.4-2.2,3.3-2.2,5.3v16c0,0.6,0.5,1.1,1.1,1.1s1.1-0.5,1.1-1.1v-16c0-1.4,0.5-2.7,1.5-3.7l3.4-3.4c0.1,0.5,0.2,1,0.2,1.6
				l-0.9,21.5c0,0.6,0.5,1.1,1.1,1.2l0,0c0.6,0,1.1-0.5,1.1-1.1l0.9-21.5C92.9,60,91,57.1,88,55.9z M60.3,41.4
				c-0.2-1.1-1.2-1.9-2.3-1.8c-0.1,0-0.2,0-0.3,0C57.3,39.5,57,39,57,38.5v-0.8c0-0.5,0.3-1,0.8-1.1c0.4-0.1,0.7,0.1,1,0.4
				c0.2,0.3,0.5,0.5,0.8,0.6c0.5,0.1,1,0.1,1.4-0.2c0.7-0.5,1.3-1.1,1.8-1.8c0.4-0.5,0.3-1.2-0.2-1.6c-0.5-0.4-1.2-0.3-1.6,0.2
				c-0.3,0.3-0.6,0.7-0.9,0.9c-0.4-0.3-0.8-0.5-1.2-0.7c-0.3-1.1-0.8-3.5-0.8-6.3c0-1.7,0.5-2.9,1.6-3.6c0.8-0.5,1.7-0.5,1.7-0.5
				c0.3,0,0.6-0.1,0.8-0.3c0,0,2.8-2.6,7.5-2.8c4.3-0.2,7.7,0.9,9.7,3.2s2.7,5.9,2,10.4c-0.3,0-0.6,0-1,0.1l-1.1-2.5
				c-0.2-0.5-0.8-0.8-1.3-0.7c-0.1,0-10.5,2.7-14.9-2.8c-0.4-0.5-1.1-0.6-1.6-0.2s-0.6,1.1-0.2,1.6c4.4,5.5,13.3,4.3,16.2,3.7l0.8,2
				c0.4,0.8,1.3,1.3,2.1,1.1c0.4-0.1,0.7-0.1,0.8-0.1c0.5,0.1,0.8,0.5,0.8,1.1v0.8c0,0.5-0.3,1-0.8,1.1c-0.1,0-0.2,0-0.3,0
				c-1.1-0.1-2.1,0.7-2.3,1.8c-0.8,4.5-4.7,7.7-9.2,7.7C65,49.1,61.2,45.8,60.3,41.4z M65.3,61.3c-0.3,0.3-0.6,0.3-0.8,0.3
				c-0.2,0-0.5-0.1-0.7-0.4l-4.4-6.6l1.8-1.8l6.7,5.9L65.3,61.3z M68.5,62.8l0.1-1.5l1-1l1,1l0.1,1.5H68.5z M69.6,57.1l-6.2-5.5
				v-2.2c1.8,1.2,4,1.8,6.2,1.8s4.4-0.7,6.2-1.8v2.2L69.6,57.1z M75.3,61.1c-0.2,0.3-0.5,0.4-0.7,0.4s-0.5,0-0.8-0.3l-2.6-2.6
				l6.7-5.9l1.8,1.8L75.3,61.1z"/>
		</g>
	</g>
	<g>
		<g>
			<path class="st0" d="M51.7,61.8l-5.5-2.4l-3-3c-0.2-0.2-0.5-0.3-0.7-0.3v-1.8c2.6-1.7,4.4-4.4,5-7.6c0.3,0,0.6,0,0.9-0.1
				c1.4-0.3,2.5-1.7,2.5-3.3v-0.8c0-1.1-0.6-2.2-1.4-2.8c0.3-1,0.4-2.1,0.4-3.1c0-4.7-2.5-8.8-6.3-11.1c0-3.9-3.4-7-7.4-7
				s-7.4,3.2-7.4,7c-3.8,2.4-6.3,6.5-6.3,11.1c0,1,0.1,2.1,0.4,3.1c-0.9,0.6-1.4,1.6-1.4,2.8v0.8c0,1.6,1,2.9,2.5,3.3
				c0.3,0.1,0.6,0.1,0.9,0.1c0.6,3.2,2.5,5.9,5,7.6v1.8c-0.3,0-0.5,0.1-0.7,0.3l-3,3l-5.5,2.4c-2.8,1.2-4.6,4.1-4.5,7.1l0.7,15.7
				c0,0.6,0.5,1.1,1.1,1.1l0,0c0.6,0,1.1-0.6,1.1-1.2l-0.7-15.7c0-1,0.2-2,0.7-2.8l3,3.5c0.9,1.1,1.4,2.5,1.4,4v11
				c0,0.6,0.5,1.1,1.1,1.1s1.1-0.5,1.1-1.1v-11c0-2-0.7-3.9-2-5.4l-3.1-3.8c0.3-0.2,0.6-0.3,0.9-0.5l4.8-2.1l3.4,5.5
				c0.3,0.5,0.9,0.9,1.5,1c0.1,0,0.2,0,0.3,0c0.5,0,1-0.2,1.4-0.5l2.1-1.8v18.6c0,0.6,0.5,1.1,1.1,1.1s1.1-0.5,1.1-1.1V66l2.1,1.8
				c0.4,0.3,0.9,0.5,1.4,0.5c0.1,0,0.2,0,0.3,0c0.6-0.1,1.2-0.5,1.5-1l3.4-5.5l4.8,2.1c0.3,0.1,0.6,0.3,0.9,0.5l-3.1,3.8
				c-1.3,1.5-2,3.5-2,5.4v11c0,0.6,0.5,1.1,1.1,1.1s1.1-0.5,1.1-1.1v-11c0-1.5,0.5-2.9,1.4-4l3-3.5c0.5,0.8,0.8,1.8,0.7,2.8
				l-0.7,15.7c0,0.6,0.5,1.1,1.1,1.2l0,0c0.6,0,1.1-0.5,1.1-1.1L56.1,69C56.3,65.9,54.5,63.1,51.7,61.8z M36.1,20.8
				c2.4,0,4.4,1.5,5,3.6c-1.6-0.6-3.2-0.9-5-0.9s-3.5,0.3-5,0.9C31.6,22.3,33.7,20.8,36.1,20.8z M26.8,46.3
				c-0.2-1.1-1.2-1.9-2.3-1.8c-0.1,0-0.2,0-0.3,0c-0.4-0.1-0.8-0.6-0.8-1.1v-0.8c0-0.5,0.3-1,0.8-1.1c0.4-0.1,0.7,0.1,1,0.4
				c0.2,0.3,0.5,0.5,0.8,0.6c0.5,0.1,1,0.1,1.4-0.2c0.7-0.5,1.3-1.1,1.8-1.8c0.4-0.5,0.3-1.2-0.2-1.6c-0.5-0.4-1.2-0.3-1.6,0.2
				c-0.3,0.3-0.5,0.6-0.9,0.9c-0.5-0.4-1.1-0.7-1.7-0.7c-0.2-0.8-0.3-1.7-0.3-2.6c0-6.1,5.2-11,11.5-11s11.5,4.9,11.5,11
				c0,0.9-0.1,1.7-0.3,2.6c-0.3,0-0.6,0.1-0.9,0.1l-0.8-0.7c-0.4-0.3-1-0.5-1.5-0.5c-1.7,0.1-10.1,0.3-14.5-4.9
				c-0.4-0.5-1.1-0.5-1.6-0.1s-0.5,1.1-0.1,1.6c2.1,2.6,5.3,4.3,9.3,5.2c3.1,0.7,5.9,0.6,6.9,0.5l1.3,1.1c0.4,0.3,0.9,0.3,1.3,0.1
				c0.2-0.1,0.8-0.2,1.1-0.1c0.5,0.1,0.8,0.5,0.8,1.1v0.8c0,0.5-0.3,1-0.8,1.1c-0.1,0-0.2,0-0.3,0c-1.1-0.1-2.1,0.7-2.3,1.8
				c-0.8,4.5-4.7,7.7-9.2,7.7C31.5,54,27.6,50.8,26.8,46.3z M31.4,66.1L28,60.6l1.7-1.7l4.7,4.7L31.4,66.1z M36.1,62L32,57.9v-2.3
				c1.3,0.5,2.7,0.8,4.1,0.8c1.5,0,2.8-0.3,4.1-0.8v2.3L36.1,62z M40.7,66.1l-3-2.6l4.7-4.7l1.7,1.7L40.7,66.1z"/>
		</g>
	</g>
	<g>
		<g>
			<path class="st0" d="M31.8,73h-3.2c-0.6,0-1.1,0.5-1.1,1.1s0.5,1.1,1.1,1.1h3.2c0.6,0,1.1-0.5,1.1-1.1C33,73.5,32.5,73,31.8,73z"
				/>
		</g>
	</g>
</g>
</svg>
