<?xml version="1.0" encoding="utf-8"?>
<!-- Generator: Adobe Illustrator 24.2.3, SVG Export Plug-In . SVG Version: 6.00 Build 0)  -->
<svg version="1.1" id="Group_861" xmlns="http://www.w3.org/2000/svg" xmlns:xlink="http://www.w3.org/1999/xlink" x="0px" y="0px"
	 viewBox="0 0 107.1 106.9" style="enable-background:new 0 0 107.1 106.9;" xml:space="preserve">
<style type="text/css">
	.st0{fill:#717791;}
</style>
<g>
	<g>
		<g>
			<path class="st0" d="M86.8,50.3c-3-1.5-8.5-1.5-8.8-1.5c-0.7,0-1.3,0.6-1.3,1.3s0.6,1.3,1.3,1.3c1.4,0,5.6,0.2,7.6,1.2
				c0.2,0.1,0.4,0.1,0.6,0.1c0.5,0,0.9-0.3,1.1-0.7C87.7,51.3,87.5,50.6,86.8,50.3z"/>
		</g>
	</g>
	<g>
		<g>
			<path class="st0" d="M93.2,68.4l-5.3-1.5c-0.2-0.1-0.4-0.3-0.4-0.5v-1.8c0.4-0.3,0.8-0.6,1.2-1c1.9-1.8,2.9-4.2,2.9-6.8v-2.4
				l0.5-1c0.6-1.1,0.9-2.4,0.9-3.6v-6.6c0-0.7-0.6-1.3-1.3-1.3H79.4c-4.5,0-8.1,3.6-8.1,8.1v0.1c0,1,0.2,2.1,0.7,3l0.7,1.3v2.1
				c0,3.3,1.6,6.3,4.1,8l0,1.8c0,0.3,0,0.4-1.1,0.7l-2.6,0.7l-7.4-2.7c0-0.4-0.1-0.7-0.3-1L63,61.7v-4.2c0.3-0.2,0.5-0.4,0.7-0.6
				c3-2.8,4.7-6.8,4.7-10.9v-3.3c0.9-2,1.4-4.1,1.4-6.2V22.8c0-0.7-0.6-1.3-1.3-1.3H49.5c-6.7,0-12.2,5.5-12.2,12.2v2.7
				c0,2.1,0.5,4.2,1.4,6.2v2.9c0,4.8,2.1,9.1,5.5,11.9v4.3l-2.4,2.5c-0.3,0.3-0.4,0.6-0.3,1L33.5,68c-0.6,0.2-1.1,0.5-1.6,0.8
				l-1.2-0.6c3.7-1.6,4.8-3.8,4.9-4c0.2-0.4,0.2-0.8,0-1.1c-0.9-1.8-1-5.2-1.1-7.9c0-0.9-0.1-1.8-0.1-2.5
				c-0.4-6.1-5.1-10.7-10.8-10.7s-10.4,4.6-10.8,10.7c-0.1,0.8-0.1,1.6-0.1,2.5c-0.1,2.7-0.2,6.1-1.1,7.9c-0.2,0.4-0.2,0.8,0,1.1
				c0.1,0.1,1.2,2.4,4.9,4L13,69.9c-1.8,0.9-3,2.8-3,4.8v9.4c0,0.7,0.6,1.3,1.3,1.3s1.3-0.6,1.3-1.3v-9.4c0-1.1,0.6-2,1.6-2.5
				l4.3-2.1l1.5,1.4c1,1,2.4,1.5,3.7,1.5c1.3,0,2.7-0.5,3.7-1.5l1.5-1.4l1.4,0.7c-0.7,1-1,2.3-1,3.6v9.8c0,0.7,0.6,1.3,1.3,1.3
				s1.3-0.6,1.3-1.3v-9.8c0-1.8,1.1-3.3,2.8-3.9l8.3-3l3.4,5.2c0.4,0.7,1.1,1.1,1.9,1.2c0.1,0,0.2,0,0.3,0c0.7,0,1.4-0.3,1.9-0.8
				l2.1-2.1v13.3c0,0.7,0.6,1.3,1.3,1.3s1.3-0.6,1.3-1.3V70.9l2.1,2.1c0.5,0.5,1.2,0.8,1.9,0.8c0.1,0,0.2,0,0.3,0
				c0.8-0.1,1.5-0.5,1.9-1.2l3.4-5.2l8.3,3c1.6,0.6,2.8,2.2,2.8,3.9v9.8c0,0.7,0.6,1.3,1.3,1.3c0.7,0,1.3-0.6,1.3-1.3v-9.8
				c0-1.8-0.7-3.4-1.9-4.7l0.3-0.1c0.3-0.1,0.8-0.2,1.2-0.4l3.3,3.3v11.7c0,0.7,0.6,1.3,1.3,1.3c0.7,0,1.3-0.6,1.3-1.3V72.4l3.2-3.2
				c0.2,0.1,0.4,0.2,0.5,0.2l5.3,1.5c1.2,0.3,2,1.5,2,2.7v10.6c0,0.7,0.6,1.3,1.3,1.3c0.7,0,1.3-0.6,1.3-1.3V73.6
				C97.1,71.2,95.5,69.1,93.2,68.4z M18.2,66.2c-2.4-0.9-3.6-2-4.1-2.6c0.3-0.9,0.6-2,0.7-3.1c0.7,1.7,1.9,3.1,3.4,4.2V66.2z
				 M25.5,69.6c-1.1,1-2.8,1-3.9,0l-1.2-1.1c0.2-0.4,0.3-0.8,0.3-1.2v-1.4c0.9,0.3,1.8,0.4,2.8,0.4c1,0,1.9-0.2,2.8-0.4l0,1.4
				c0,0.4,0.1,0.9,0.3,1.2L25.5,69.6z M23.5,63.8c-3.8,0-6.9-3.1-6.9-6.9c0-0.7-0.6-1.3-1.3-1.3c-0.1,0-0.1,0-0.2,0
				c0-0.1,0-0.2,0-0.3c0-0.9,0.1-1.7,0.1-2.4c0.2-2.3,1.1-4.4,2.6-5.9c1.5-1.6,3.5-2.4,5.7-2.4s4.2,0.9,5.7,2.4
				c1.5,1.5,2.4,3.7,2.6,5.9c0.1,0.7,0.1,1.5,0.1,2.4c0,0.1,0,0.2,0,0.2c-1.4-2.1-3.5-3.7-6.3-4.6c-2.6-0.8-4.8-0.8-4.9-0.8
				c-0.3,0-0.7,0.1-0.9,0.4l-2.3,2.4c-0.5,0.5-0.5,1.3,0,1.8c0.5,0.5,1.3,0.5,1.8,0l1.9-2c1.6,0.1,7,0.7,9,5.2
				C29.8,61.3,27,63.8,23.5,63.8z M28.9,66.2l0-1.5c1.5-1,2.7-2.5,3.4-4.2c0.2,1.1,0.4,2.1,0.7,3C32.5,64.2,31.3,65.3,28.9,66.2z
				 M41.2,45.5v-3.2c0-0.2,0-0.4-0.1-0.6c-0.8-1.7-1.2-3.5-1.2-5.4v-2.7c0-5.3,4.3-9.6,9.6-9.6h17.8v12.4c0,1.9-0.4,3.7-1.2,5.4
				c-0.1,0.2-0.1,0.4-0.1,0.6v3.6c0,3.5-1.4,6.7-3.9,9c-0.3,0.3-0.6,0.6-1,0.8c0,0,0,0,0,0c-2.4,1.8-5.3,2.7-8.3,2.5
				C46.3,57.9,41.2,52.2,41.2,45.5z M48.4,71.1C48.4,71.2,48.3,71.2,48.4,71.1c-0.1,0-0.1,0-0.1,0l-4-6l1.3-1.3l6,4.1L48.4,71.1z
				 M53.5,66.2l-6.9-4.7v-2.4c1.8,1,3.8,1.6,5.9,1.7c0.3,0,0.7,0,1,0c2.4,0,4.8-0.6,6.9-1.7v2.3L53.5,66.2z M58.9,71.1
				C58.9,71.1,58.8,71.2,58.9,71.1c-0.1,0-0.1,0-0.1,0L55.5,68l6-4.1l1.3,1.3L58.9,71.1z M82.2,70.1l-2.9-2.9
				c0.1-0.2,0.1-0.5,0.1-0.8l0-0.5c0.8,0.3,1.7,0.4,2.5,0.4c0.1,0,0.2,0,0.3,0c1,0,1.9-0.1,2.8-0.4v0.5c0,0.3,0,0.5,0.1,0.7
				L82.2,70.1z M87,61.8c-1.4,1.3-3.1,2-5,1.9c-3.7-0.1-6.7-3.4-6.7-7.2v-2.4c0-0.2,0-0.4-0.1-0.6L74.3,52c-0.3-0.6-0.4-1.2-0.4-1.9
				V50c0-3.1,2.5-5.5,5.5-5.5h11v5.3c0,0.9-0.2,1.7-0.6,2.5l-0.6,1.3c-0.1,0.2-0.1,0.4-0.1,0.6v2.7C89.1,58.7,88.3,60.5,87,61.8z"/>
		</g>
	</g>
	<g>
		<g>
			<path class="st0" d="M90.3,74.7c-0.7,0-1.3,0.6-1.3,1.3v8.2c0,0.7,0.6,1.3,1.3,1.3c0.7,0,1.3-0.6,1.3-1.3V76
				C91.6,75.3,91,74.7,90.3,74.7z"/>
		</g>
	</g>
	<g>
		<g>
			<path class="st0" d="M16.7,76.4c-0.7,0-1.3,0.6-1.3,1.3v6.5c0,0.7,0.6,1.3,1.3,1.3s1.3-0.6,1.3-1.3v-6.5
				C18,76.9,17.4,76.4,16.7,76.4z"/>
		</g>
	</g>
	<g>
		<g>
			<path class="st0" d="M64,36.9C59.2,32,49.1,33,45,33.6c-1.3,0.2-2.2,1.3-2.2,2.6v2.9c0,0.7,0.6,1.3,1.3,1.3
				c0.7,0,1.3-0.6,1.3-1.3v-2.9c0,0,0-0.1,0.1-0.1c1.6-0.2,4.9-0.6,8.3-0.4c4,0.3,6.9,1.3,8.6,3c0.5,0.5,1.3,0.5,1.8,0
				C64.5,38.2,64.5,37.4,64,36.9z"/>
		</g>
	</g>
	<g>
		<g>
			<path class="st0" d="M38.5,77.4c-0.7,0-1.3,0.6-1.3,1.3v5.5c0,0.7,0.6,1.3,1.3,1.3s1.3-0.6,1.3-1.3v-5.5
				C39.8,78,39.2,77.4,38.5,77.4z"/>
		</g>
	</g>
	<g>
		<g>
			<path class="st0" d="M68.6,77.4c-0.7,0-1.3,0.6-1.3,1.3v5.5c0,0.7,0.6,1.3,1.3,1.3c0.7,0,1.3-0.6,1.3-1.3v-5.5
				C69.8,78,69.3,77.4,68.6,77.4z"/>
		</g>
	</g>
</g>
</svg>
