<?xml version="1.0" encoding="utf-8"?>
<!-- Generator: Adobe Illustrator 24.2.3, SVG Export Plug-In . SVG Version: 6.00 Build 0)  -->
<svg version="1.1" id="Group_861" xmlns="http://www.w3.org/2000/svg" xmlns:xlink="http://www.w3.org/1999/xlink" x="0px" y="0px"
	 viewBox="0 0 107.1 106.9" style="enable-background:new 0 0 107.1 106.9;" xml:space="preserve">
<style type="text/css">
	.st0{fill:#717791;}
</style>
<g>
	<g>
		<g>
			<path class="st0" d="M71.3,57.6l-8.8-3.9c-0.6-0.3-1-0.9-1-1.6v-2.4c3-2.4,4.8-6,4.8-10v-3.4c1-0.5,1.6-1.6,1.6-2.7v-0.3
				c0-7.1-5.8-12.8-12.8-12.8h-3.2c-7.1,0-12.8,5.8-12.8,12.8v3c0,1,0.4,1.9,1.2,2.5c0.1,0.1,0.3,0.2,0.4,0.3v0.7
				c0,4.1,1.9,7.7,4.8,10v2.4c0,0.7-0.4,1.3-1,1.6l-8.8,3.9c-2.9,1.3-4.7,4.1-4.7,7.3v20c0,0.8,0.7,1.5,1.5,1.5S34,85.8,34,85v-20
				c0-0.2,0-0.3,0-0.5l4,4c0.6,0.6,1,1.5,1,2.4V85c0,0.8,0.7,1.5,1.5,1.5c0.8,0,1.5-0.7,1.5-1.5V70.8c0-1.7-0.7-3.3-1.9-4.5
				l-4.8-4.8c0.4-0.5,1-0.8,1.5-1.1l8.6-3.8L52,63v22c0,0.8,0.7,1.5,1.5,1.5c0.8,0,1.5-0.7,1.5-1.5V63l6.4-6.4l8.6,3.8
				c0.6,0.3,1.1,0.6,1.5,1.1l-4.8,4.8c-1.2,1.2-1.9,2.8-1.9,4.5V85c0,0.8,0.7,1.5,1.5,1.5S68,85.8,68,85V70.8c0-0.9,0.3-1.7,1-2.4
				l4-4c0,0.2,0,0.3,0,0.5v20c0,0.8,0.7,1.5,1.5,1.5c0.8,0,1.5-0.7,1.5-1.5v-20C76,61.8,74.2,58.9,71.3,57.6z M53.5,60.2l-5.6-5.6
				c0.4-0.7,0.7-1.6,0.7-2.4v-0.6c1.5,0.6,3.2,1,5,1s3.4-0.4,5-1v0.6c0,0.9,0.2,1.7,0.7,2.4L53.5,60.2z M53.5,49.5
				c-5.4,0-9.8-4.4-9.8-9.8V39c0.9-0.4,1.9-1,2.7-1.8c0.6-0.6,0.7-1.5,0.1-2.1C46,34.5,45,34.5,44.4,35c-0.8,0.7-1.5,1.1-2.2,1.3
				c0,0,0,0,0,0c0,0,0-0.1,0-0.1v-3c0-5.4,4.4-9.8,9.8-9.8h3.2c5.4,0,9.8,4.4,9.8,9.8v0.3c0,0,0,0.1-0.1,0.1
				c-9.1,1.8-13.6-1.6-15.1-3.1c-0.6-0.6-1.5-0.6-2.1,0c-0.6,0.6-0.6,1.5,0,2.1c4.7,4.7,11.5,4.8,15.7,4.3v2.7
				C63.3,45.1,58.9,49.5,53.5,49.5z"/>
		</g>
	</g>
	<g>
		<g>
			<path class="st0" d="M29.2,49.4v-3.2c0-3.9-2-7.4-5.1-9.4c0.2-0.6,0.3-1.3,0.3-1.9c0-3.5-2.9-6.4-6.4-6.4s-6.4,2.9-6.4,6.4
				c0,0.7,0.1,1.3,0.3,1.9c-3.1,2-5.1,5.5-5.1,9.4v3.2c0,3.8,1.9,7.2,4.8,9.2V62c0,0.7-0.4,1.2-1,1.5l-5.2,2.6
				c-2.2,1.1-3.5,3.3-3.5,5.7V85c0,0.8,0.7,1.5,1.5,1.5S5,85.8,5,85V72.4l2.5,2.5c0.6,0.6,1,1.5,1,2.4V85c0,0.8,0.7,1.5,1.5,1.5
				s1.5-0.7,1.5-1.5v-7.7c0-1.7-0.7-3.3-1.9-4.5l-3.4-3.4c0,0,0,0-0.1,0c0.2-0.2,0.5-0.4,0.7-0.5l5.2-2.6c0.3-0.1,0.5-0.3,0.7-0.5
				l3.7,3.7V85c0,0.8,0.7,1.5,1.5,1.5c0.8,0,1.5-0.7,1.5-1.5V69.4l3.7-3.7c0.2,0.2,0.5,0.3,0.7,0.5l1.4,0.7c0.2,0.1,0.4,0.2,0.7,0.2
				c0.6,0,1.1-0.3,1.4-0.8c0.4-0.7,0.1-1.7-0.7-2l-1.4-0.7c-0.6-0.3-1-0.9-1-1.5v-3.3C27.3,56.6,29.2,53.2,29.2,49.4z M18,31.5
				c1.8,0,3.3,1.5,3.3,3.3c0,0.2,0,0.4-0.1,0.6c-1-0.3-2.1-0.5-3.3-0.5c-1.1,0-2.2,0.2-3.3,0.5c0-0.2-0.1-0.4-0.1-0.6
				C14.7,33,16.1,31.5,18,31.5z M18,38c4.5,0,8.2,3.7,8.2,8.2v0.5c-6.3,1.9-10-2.9-10.2-3.1c-0.3-0.4-0.7-0.6-1.1-0.6
				c-0.4,0-0.9,0.1-1.2,0.4c-1.4,1.4-2.9,2.1-3.9,2.5C9.9,41.6,13.5,38,18,38z M18,66.7l-3.5-3.5c0.1-0.4,0.2-0.8,0.2-1.2v-1.8
				c1.1,0.3,2.2,0.5,3.3,0.5s2.3-0.2,3.3-0.5V62c0,0.4,0.1,0.8,0.2,1.2L18,66.7z M18,57.6c-4.5,0-8.2-3.7-8.2-8.2v-0.3
				c1.2-0.3,3-0.9,4.9-2.4c0.7,0.6,1.6,1.4,2.8,2c1.4,0.8,3.4,1.5,5.8,1.5c0.9,0,1.9-0.1,2.9-0.3C25.9,54.2,22.3,57.6,18,57.6z"/>
		</g>
	</g>
	<g>
		<g>
			<path class="st0" d="M101.6,62.9l-8.5-4.2c-0.6-0.3-1-0.9-1-1.5V55c2-1.8,3.2-4.3,3.2-7.2v-1.7c0,0,0.1,0,0.1,0
				c0.8,0,1.5-0.7,1.5-1.5v-3.2c0-5.3-4.3-9.6-9.6-9.6h-3.2c-5.3,0-9.6,4.3-9.6,9.6v3.2c0,0.8,0.7,1.5,1.5,1.5c0,0,0,0,0.1,0v1.7
				c0,2.9,1.3,5.4,3.2,7.2v2.1c0,0.7-0.4,1.2-1,1.5c-0.7,0.4-1,1.3-0.7,2c0.3,0.5,0.8,0.8,1.4,0.8c0.2,0,0.5-0.1,0.7-0.2
				c0.3-0.1,0.5-0.3,0.7-0.5l3.7,3.7V85c0,0.8,0.7,1.5,1.5,1.5s1.5-0.7,1.5-1.5V64.6l3.7-3.7c0.2,0.2,0.5,0.3,0.7,0.5l8.2,4.1
				l-2.5,2.5c-1.2,1.2-1.9,2.8-1.9,4.5V85c0,0.8,0.7,1.5,1.5,1.5c0.8,0,1.5-0.7,1.5-1.5V72.4c0-0.9,0.3-1.7,1-2.4l2.4-2.4
				c0.1,0.3,0.1,0.6,0.1,0.9V85c0,0.8,0.7,1.5,1.5,1.5s1.5-0.7,1.5-1.5V68.6C105.1,66.1,103.8,64,101.6,62.9z M77.7,42.7v-1.4h0
				c0-3.6,2.9-6.6,6.6-6.6h3.2c3.6,0,6.6,2.9,6.6,6.6V43c-6.6-0.4-10.5-2.9-10.6-2.9c-0.3-0.2-0.5-0.3-0.8-0.3
				c-0.4,0-0.8,0.2-1.1,0.4C80.1,41.7,78.7,42.4,77.7,42.7z M85.8,61.8l-3.5-3.5c0.1-0.4,0.2-0.8,0.2-1.2v-0.3
				c1,0.4,2.2,0.6,3.3,0.6c1.2,0,2.3-0.2,3.3-0.6v0.3c0,0.4,0.1,0.8,0.2,1.2L85.8,61.8z M85.8,54.4c-3.6,0-6.6-2.9-6.6-6.6v-2.4l0,0
				c1.1-0.4,2.3-1.1,3.5-2.2c1.6,0.8,4.9,2.3,9.6,2.7v1.9C92.4,51.4,89.5,54.4,85.8,54.4z"/>
		</g>
	</g>
</g>
</svg>
