<?xml version="1.0" encoding="utf-8"?>
<!-- Generator: Adobe Illustrator 24.2.3, SVG Export Plug-In . SVG Version: 6.00 Build 0)  -->
<svg version="1.1" id="Group_861" xmlns="http://www.w3.org/2000/svg" xmlns:xlink="http://www.w3.org/1999/xlink" x="0px" y="0px"
	 viewBox="0 0 107.1 106.9" style="enable-background:new 0 0 107.1 106.9;" xml:space="preserve">
<style type="text/css">
	.st0{fill:#717791;}
</style>
<g>
	<path class="st0" d="M79.8,76.5v6.9c0,0.6-0.5,1.2-1.2,1.2c-0.6,0-1.2-0.5-1.2-1.2v-6.9c0-5.4-4.4-9.7-9.7-9.7
		c-2.5,0-4.9-1.3-6.2-3.5c-0.3-0.6-0.2-1.3,0.4-1.6c0.6-0.3,1.3-0.2,1.6,0.4c0.9,1.5,2.5,2.3,4.2,2.3C74.4,64.4,79.8,69.8,79.8,76.5
		L79.8,76.5z M58,63.9c-2.4,0.5-4.9,0-6.9-1.4c0.3-0.7,0.5-1.6,0.6-2.4c10,3,20-4.6,20-15c0-9.9,0-9.8,0-10.2
		c-0.2-1.6-2.5-1.4-2.3,0.2c0,0.3,0,0.5,0,9.9c0,7.3-6,13.3-13.3,13.3s-13.3-6-13.3-13.3c0-2.6,0-4.7,0-6.2c0-3.8,3.5-6.8,7.4-5.8
		c5.4,1.3,7.6,4.7,14.5,4.4c0.6,0,1.1-0.6,1.1-1.2c0-0.6-0.6-1.1-1.2-1.1c-6.3,0.3-8-2.9-13.9-4.3c-5.3-1.3-10.3,2.8-10.2,8.1
		c0,1.2,0,2.6,0,4.3c-0.8-0.4-1.3-1.2-1.3-2.1c0,0,0-6.1,0-6.1c-0.1-2.7,0.3-9.3,5.1-13.9c5.3-5.1,13.6-5.1,20.1-2.9l-0.9,0.4
		c-1.1,0.5-0.9,2.1,0.3,2.2l2.1,0.2c4,0.4,7.5,2.5,9.7,5.7c-1.5,1.8-2.3,4-2.3,6.4v8c0,0.6,0.5,1.2,1.2,1.2c0.6,0,1.2-0.5,1.2-1.2
		v-8c0-2,0.8-3.9,2.2-5.4c0.4-0.4,0.4-1.1,0.2-1.5c-2.3-3.7-5.8-6.1-9.8-7.1c0.6-0.5,0.5-1.6-0.2-1.9c-3.4-1.7-8.2-2.9-12.9-2.7
		C43.4,14.9,36.6,23.6,36.8,35v6.1c0,2.2,1.6,4.1,3.7,4.6c0.2,6,3.8,11.1,8.9,13.5v0.3c0,2.7-2.2,4.9-4.9,4.9
		c-6.7,0-12.1,5.4-12.1,12.1v6.9c0,0.6,0.5,1.2,1.2,1.2s1.2-0.5,1.2-1.2v-6.9c0-5.4,4.4-9.7,9.7-9.7c2,0,3.9-0.8,5.3-2.3
		c2.5,1.7,5.6,2.4,8.7,1.7c0.6-0.1,1-0.8,0.9-1.4C59.3,64.2,58.6,63.8,58,63.9L58,63.9z M68,78.6h-3.5c-0.6,0-1.2,0.5-1.2,1.2
		s0.5,1.2,1.2,1.2H68c0.6,0,1.2-0.5,1.2-1.2S68.6,78.6,68,78.6z"/>
</g>
</svg>
