<svg xmlns="http://www.w3.org/2000/svg" width="92.008" height="61" viewBox="0 0 92.008 61">
  <g id="Group_2035" data-name="Group 2035" transform="translate(-2317.492 -164.5)">
    <g id="Group_1018" data-name="Group 1018" transform="translate(2317.508 165)">
      <path id="Path_755_1_" d="M6.6,55.6V2.8A2.862,2.862,0,0,1,9.4,0H82.594a2.862,2.862,0,0,1,2.8,2.8h0V55.6" transform="translate(-0.001)" fill="none" stroke="#717791" stroke-width="1"/>
      <path id="Path_6784_1_" d="M6.6,55.6V2.8A2.862,2.862,0,0,1,9.4,0H82.594a2.862,2.862,0,0,1,2.8,2.8h0V55.6" transform="translate(-0.001)" fill="none"/>
      <line id="Line_18_1_" y1="3.2" transform="translate(7.499 7.7)" fill="none"/>
      <path id="Path_756_1_" d="M89.193,55.6H56.6c-.2,0-.4.1-.4.3a1.593,1.593,0,0,1-1.5,1.2H37.3a1.593,1.593,0,0,1-1.5-1.2c0-.2-.2-.3-.4-.3H2.8A2.206,2.206,0,0,0,2.5,60H89.293a2.219,2.219,0,0,0,2.2-2.2v-.3A2.2,2.2,0,0,0,89.193,55.6Z" fill="none" stroke="#717791" stroke-miterlimit="10" stroke-width="1"/>
    </g>
  </g>
</svg>
