<svg xmlns="http://www.w3.org/2000/svg" width="34" height="61" viewBox="0 0 34 61"><g transform="translate(-1628.5 -152.5)"><g transform="translate(1629 153)"><path d="M28.378,61H6.576A5.671,5.671,0,0,1,1,55.281V6.719A5.671,5.671,0,0,1,6.576,1H28.424A5.671,5.671,0,0,1,34,6.719V55.281A5.74,5.74,0,0,1,28.378,61Z" transform="translate(-1 -1)" fill="none" stroke="#717791" stroke-miterlimit="10" stroke-width="1"/></g><path d="M-1909,3974.969h32.926" transform="translate(3538 -3816.853)" fill="none" stroke="#717791" stroke-width="1"/><path d="M-1909,4027.9h33" transform="translate(3538 -3824.333)" fill="none" stroke="#717791" stroke-width="1"/><g transform="translate(1643.385 206.143)" fill="none" stroke="#717791" stroke-width="1"><ellipse cx="2.115" cy="2.143" rx="2.115" ry="2.143" stroke="none"/><ellipse cx="2.115" cy="2.143" rx="1.615" ry="1.643" fill="none"/></g></g></svg>