<?xml version="1.0" encoding="utf-8"?>
<!-- Generator: Adobe Illustrator 24.0.1, SVG Export Plug-In . SVG Version: 6.00 Build 0)  -->
<svg version="1.1" id="Calque_1" xmlns="http://www.w3.org/2000/svg" xmlns:xlink="http://www.w3.org/1999/xlink" x="0px" y="0px"
	 viewBox="0 0 34 61" style="enable-background:new 0 0 34 61;" xml:space="preserve">
<style type="text/css">
	.st0{fill:none;stroke:#08ACC1;stroke-miterlimit:10;}
	.st1{fill:none;stroke:#717791;}
	.st2{fill:none;}
	.st3{fill:none;stroke:#08ACC1;}
	.st4{fill:#08ACC1;}
	.st5{fill:#FFFFFF;}
</style>
<g transform="translate(-1628.5 -152.5)">
	<g transform="translate(1629 153)">
		<path class="st0" d="M27.4,60H5.6C2.5,59.9,0,57.4,0,54.3V5.7C0,2.6,2.5,0.1,5.6,0h21.8C30.5,0.1,33,2.6,33,5.7v48.6
			C33,57.4,30.5,59.9,27.4,60z"/>
	</g>
	<path class="st1" d="M1629,203.6h33"/>
	<g transform="translate(1643.385 206.143)">
		<ellipse class="st2" cx="2.1" cy="2.1" rx="2.1" ry="2.1"/>
		<ellipse class="st3" cx="2.1" cy="2.1" rx="1.6" ry="1.6"/>
	</g>
	<path class="st4" d="M1635,153h21c3.3,0,6,2.7,6,6v45l0,0h-33l0,0v-45C1629,155.7,1631.7,153,1635,153z"/>
	<path class="st5" d="M1643.4,188.4c-0.5,0-1-0.2-1.3-0.6l-6.5-6.5c-0.7-0.7-0.8-1.8-0.1-2.5c0,0,0.1-0.1,0.1-0.1l0,0
		c0.7-0.7,1.8-0.8,2.5-0.1c0,0,0.1,0.1,0.1,0.1l0,0l5.2,5.2l9.3-9.3c0.7-0.7,1.8-0.8,2.5-0.1c0,0,0.1,0.1,0.1,0.1l0,0
		c0.7,0.7,0.8,1.8,0.1,2.5c0,0-0.1,0.1-0.1,0.1l0,0l-10.6,10.7C1644.3,188.2,1643.9,188.4,1643.4,188.4z"/>
</g>
</svg>
