<?xml version="1.0" encoding="utf-8"?>
<!-- Generator: Adobe Illustrator 24.2.3, SVG Export Plug-In . SVG Version: 6.00 Build 0)  -->
<svg version="1.1"
	 id="svg14" xmlns:cc="http://creativecommons.org/ns#" xmlns:dc="http://purl.org/dc/elements/1.1/" xmlns:inkscape="http://www.inkscape.org/namespaces/inkscape" xmlns:rdf="http://www.w3.org/1999/02/22-rdf-syntax-ns#" xmlns:sodipodi="http://sodipodi.sourceforge.net/DTD/sodipodi-0.dtd" xmlns:svg="http://www.w3.org/2000/svg"
	 xmlns="http://www.w3.org/2000/svg" xmlns:xlink="http://www.w3.org/1999/xlink" x="0px" y="0px" viewBox="0 0 750 471"
	 style="enable-background:new 0 0 750 471;" xml:space="preserve">
<style type="text/css">
	.st0{fill:#179BD7;}
	.st1{fill:#253B80;}
	.st2{fill:#222D65;}
</style>
<sodipodi:namedview  bordercolor="#666666" borderopacity="1" gridtolerance="10" guidetolerance="10" id="namedview16" inkscape:current-layer="Page-1" inkscape:cx="83.333333" inkscape:cy="235.5" inkscape:pageopacity="0" inkscape:pageshadow="2" inkscape:window-height="928" inkscape:window-maximized="0" inkscape:window-width="1515" inkscape:window-x="2301" inkscape:window-y="293" inkscape:zoom="0.384" objecttolerance="10" pagecolor="#ffffff" showgrid="false">
	</sodipodi:namedview>
<desc  id="desc2">Created with Sketch.</desc>
<g>
	<path class="st0" d="M606.7,195.5c-5.9-6.9-16.3-10.6-30.2-10.6H535c-2.8,0-5.2,2.1-5.7,4.9l-16.8,106.4c-0.3,2.1,1.3,4,3.4,4h21.3
		c2,0,3.7-1.4,4-3.4l4.8-30.2c0.4-2.8,2.9-4.9,5.7-4.9h13.1c27.3,0,43.1-13.2,47.2-39.5C613.9,210.8,612.1,201.8,606.7,195.5z
		 M581.3,223.8c-2.3,14.9-13.6,14.9-24.7,14.9h-6.3l4.4-27.8c0.3-1.7,1.7-2.9,3.4-2.9h2.9c7.5,0,14.6,0,18.2,4.3
		C581.4,214.7,582.1,218.5,581.3,223.8z"/>
	<path class="st0" d="M700.5,223.3h-19.9c-1.7,0-3.2,1.2-3.4,2.9l-0.9,5.6l-1.4-2c-4.3-6.2-13.9-8.3-23.5-8.3
		c-22,0-40.7,16.6-44.4,40c-1.9,11.6,0.8,22.8,7.4,30.5c6.1,7.1,14.7,10.1,25,10.1c17.7,0,27.5-11.4,27.5-11.4l-0.9,5.5
		c-0.3,2.1,1.3,4,3.4,4h17.9c2.8,0,5.3-2.1,5.7-4.9l10.7-68C704.3,225.2,702.7,223.3,700.5,223.3z M672.8,262
		c-1.9,11.4-10.9,19-22.4,19c-5.8,0-10.4-1.9-13.3-5.4c-2.9-3.5-4-8.4-3.1-14c1.8-11.3,11-19.1,22.3-19.1c5.6,0,10.2,1.9,13.3,5.4
		C672.5,251.5,673.7,256.5,672.8,262z"/>
	<path class="st0" d="M746.5,184.9h-19.2c-1.7,0-3.2,1.2-3.4,2.9l-17,108.4c-0.3,2.1,1.3,4,3.4,4h17.1c2.8,0,5.3-2.1,5.7-4.9
		L750,188.9C750.3,186.8,748.7,184.9,746.5,184.9z"/>
	<path class="st1" d="M310.7,195.5c-5.9-6.9-16.4-10.6-30.3-10.6h-41.5c-2.8,0-5.3,2.1-5.7,4.9l-16.8,106.4c-0.3,2.1,1.3,4,3.4,4
		h19.8c2.8,0,5.3-2.1,5.7-4.9l4.5-28.7c0.4-2.8,2.9-4.9,5.7-4.9h13.1c27.3,0,43.1-13.2,47.2-39.5
		C317.8,210.8,316.1,201.8,310.7,195.5z M285.2,223.8c-2.3,14.9-13.6,14.9-24.6,14.9h-6.3l4.4-27.8c0.3-1.7,1.7-2.9,3.4-2.9h2.9
		c7.5,0,14.6,0,18.2,4.3C285.4,214.7,286.1,218.5,285.2,223.8z"/>
	<path class="st1" d="M404.5,223.3h-19.9c-1.7,0-3.2,1.2-3.4,2.9l-0.9,5.6l-1.4-2c-4.3-6.2-13.9-8.3-23.5-8.3
		c-22,0-40.7,16.6-44.4,40c-1.9,11.6,0.8,22.8,7.4,30.5c6.1,7.1,14.7,10.1,25,10.1c17.7,0,27.5-11.4,27.5-11.4l-0.9,5.5
		c-0.3,2.1,1.3,4,3.4,4h17.9c2.8,0,5.2-2.1,5.7-4.9l10.7-68C408.2,225.2,406.6,223.3,404.5,223.3z M376.8,262
		c-1.9,11.4-10.9,19-22.4,19c-5.8,0-10.4-1.9-13.3-5.4c-2.9-3.5-4.1-8.4-3.1-14c1.8-11.3,11-19.1,22.3-19.1c5.6,0,10.2,1.9,13.3,5.4
		C376.5,251.5,377.7,256.5,376.8,262z"/>
	<path class="st1" d="M510.3,223.3h-20c-1.9,0-3.7,0.9-4.8,2.5l-27.5,40.6l-11.7-39c-0.7-2.4-3-4.1-5.5-4.1h-19.6
		c-2.4,0-4,2.3-3.3,4.6l22,64.6l-20.7,29.2c-1.6,2.3,0,5.5,2.8,5.5H442c1.9,0,3.7-0.9,4.7-2.5l66.4-95.9
		C514.8,226.4,513.1,223.3,510.3,223.3z"/>
	<path class="st0" d="M148,196.7c-2.2-2.5-4.9-4.6-8.1-6.2l0,0c-0.2,1.1-0.4,2.2-0.6,3.3c-0.2,1.1-0.4,2.1-0.7,3.1
		c-7.3,31.7-27.5,45.3-53.9,48.1c-1.8,0.2-3.5,0.3-5.4,0.4c-2,0.1-4,0.2-6.1,0.2H56.6c-4,0-7.4,2.9-8,6.9l-7.6,48l-1,6.2l-2.4,15.4
		c-0.4,2.6,1.6,4.9,4.2,4.9h29.6c3.5,0,6.5-2.5,7-6l0.3-1.5l5.6-35.4l0.4-1.9c0.5-3.5,3.5-6,7-6h4.4c28.7,0,51.2-11.6,57.7-45.4
		C156.7,216.7,155.2,205,148,196.7z"/>
	<path class="st1" d="M48.6,252.5l0.3-1.8l9.5-60.1c0.4-2.4,1.9-4.3,4-5.3c0.9-0.4,2-0.7,3.1-0.7H110c5.3,0,10.2,0.3,14.7,1.1
		c1.3,0.2,2.5,0.4,3.8,0.7c1.2,0.3,2.4,0.6,3.5,0.9c0.4,0.1,0.9,0.3,1.3,0.4c0.1,0,0.3,0.1,0.4,0.1c0.1,0,0.1,0.1,0.2,0.1
		c2.1,0.7,4.1,1.5,5.9,2.5c0,0,0,0,0,0c2.2-14.2,0-23.9-7.7-32.7c-8.5-9.7-23.8-13.8-43.4-13.8H31.8c-4,0-7.4,2.9-8,6.9L0.1,301.1
		c-0.5,3,1.8,5.7,4.8,5.7H40l1-6.2L48.6,252.5z"/>
	<path class="st2" d="M139.9,190.5c-1.8-1-3.8-1.8-5.9-2.5c-0.1,0-0.1-0.1-0.2-0.1c-0.1,0-0.3-0.1-0.4-0.1c-0.4-0.1-0.9-0.3-1.3-0.4
		c-1.1-0.3-2.3-0.6-3.5-0.9c-1.2-0.3-2.5-0.5-3.8-0.7c-4.5-0.7-9.4-1.1-14.7-1.1H65.4c-1.1,0-2.1,0.2-3.1,0.7c-2.1,1-3.6,2.9-4,5.3
		l-9.5,60.1l-0.3,1.8c0.6-4,4-6.9,8-6.9h16.7c2,0,4.1-0.1,6.1-0.2c1.8-0.1,3.6-0.2,5.4-0.4c26.4-2.9,46.6-16.4,53.9-48.1
		c0.2-1,0.5-2.1,0.7-3.1C139.5,192.7,139.7,191.5,139.9,190.5C139.9,190.5,139.9,190.5,139.9,190.5z"/>
</g>
</svg>
