<?xml version="1.0" encoding="utf-8"?>
<!-- Generator: Adobe Illustrator 24.2.3, SVG Export Plug-In . SVG Version: 6.00 Build 0)  -->
<svg version="1.1" id="Group_861" xmlns="http://www.w3.org/2000/svg" xmlns:xlink="http://www.w3.org/1999/xlink" x="0px" y="0px"
	 viewBox="0 0 107.1 106.9" style="enable-background:new 0 0 107.1 106.9;" xml:space="preserve">
<style type="text/css">
	.st0{fill:#717791;}
	.st1{fill:#C6D2E0;}
</style>
<g>
	<path class="st0" d="M27.5,47.1c-0.6,1.5-0.2,3.2,1.1,4.3c2.3,2.3,7.2,10.8,9.6,16.7c1.6,4,5.2,8.1,7.9,10.7
		c1.2,1.2,1.8,2.7,1.8,4.4v0.4c0,2.1,1.6,3.7,3.7,3.7h19.7c2.1,0,3.7-1.6,3.7-3.7v-3.8c0-0.3,0.1-0.6,0.3-0.8
		c4.5-4.1,4.6-11,4.6-11.4V48.2c0.1-2.6-1.9-4.9-4.5-5.1c-1-0.1-2,0.2-2.8,0.7v-1.9c0-1.7-0.9-3.4-2.5-4.3s-3.5-0.8-4.9,0.1
		C65,36,64,34.6,62.5,33.8s-3.2-0.7-4.7,0.2v-2.1c3-1.7,4.9-4.9,4.9-8.5c0-5.4-4.4-9.8-9.8-9.8s-9.8,4.4-9.8,9.8
		c0,3.5,1.9,6.8,4.9,8.5v19.8c0,1.5-0.2,2.9-0.6,4.3c-0.2,0.4-0.5,0.7-0.9,0.8s-0.8,0-1.1-0.3c-1-0.9-1.8-1.9-2.6-3
		c-2.1-3.2-7.5-9.1-10.9-9.1C30,44.3,28.3,45.4,27.5,47.1z M45.4,23.5c0-4,3.3-7.3,7.3-7.3s7.3,3.3,7.3,7.3c0,2.1-0.9,4.1-2.5,5.5
		v-5.5c0-2.7-2.2-4.9-4.9-4.9c-2.7,0-4.9,2.2-4.9,4.9V29C46.3,27.6,45.4,25.6,45.4,23.5z M40.7,54.8c0.8,1.2,1.8,2.4,2.9,3.5
		c0.9,0.8,2.1,1.2,3.4,0.9c1.2-0.3,2.2-1.2,2.6-2.4c0.5-1.6,0.7-3.4,0.7-5V23.5c0-1.3,1.1-2.5,2.5-2.5c1.4,0,2.5,1.1,2.5,2.5v25.8
		c0,0.7,0.6,1.2,1.2,1.2c0.7,0,1.2-0.6,1.2-1.2V38.2c0-1.3,1.1-2.5,2.5-2.5c1.3,0,2.5,1.1,2.5,2.5v11c0,0.7,0.6,1.2,1.2,1.2
		c0.7,0,1.2-0.6,1.2-1.2v-7.3c0-1.3,1.1-2.5,2.5-2.5c1.3,0,2.5,1.1,2.5,2.5v8.6c0,0.7,0.6,1.2,1.2,1.2s1.2-0.6,1.2-1.2V48
		c0-0.7,0.2-1.2,0.7-1.7c0.5-0.5,1.2-0.7,1.9-0.7c1.3,0.2,2.3,1.3,2.3,2.6v19.4c0,0.1-0.1,6.1-3.8,9.6c-0.7,0.7-1.2,1.6-1.2,2.6v3.8
		c0,0.7-0.6,1.2-1.2,1.2H51.5c-0.7,0-1.2-0.6-1.2-1.2v-0.4c0-2.3-0.9-4.5-2.6-6.1c-2.1-2-5.8-6-7.3-9.8c-2.6-6.3-7.5-15-10-17.5
		c-0.6-0.6-0.7-1.2-0.6-1.6c0.4-0.7,1.2-1.2,2.1-1.2C33.6,46.8,38.1,51,40.7,54.8z"/>
	<path class="st1" d="M73.6,66.4c0.7,0,1.2-0.6,1.2-1.2v-7.3c0-0.7-0.6-1.2-1.2-1.2s-1.2,0.6-1.2,1.2v7.3
		C72.5,65.9,72.9,66.4,73.6,66.4z"/>
	<path class="st1" d="M72.5,73.8c0.3,0,0.7-0.2,0.9-0.3c0.9-0.8,1.5-2.1,1.6-3.3c0-0.7-0.5-1.2-1.2-1.2c-0.7,0-1.2,0.5-1.2,1.2
		c-0.1,0.7-0.4,1.2-0.9,1.6c-0.3,0.3-0.5,0.9-0.2,1.3C71.5,73.4,72,73.8,72.5,73.8z"/>
	<path class="st1" d="M54.1,87.3h1.4c0.7,0,1.4-0.7,1.4-1.4c0-0.7-0.7-1.4-1.4-1.4h-1.4c-0.7,0-1.4,0.7-1.4,1.4
		C52.7,86.6,53.3,87.3,54.1,87.3z"/>
	<path class="st1" d="M61.2,87.3h9.9c0.7,0,1.4-0.7,1.4-1.4c0-0.7-0.7-1.4-1.4-1.4h-9.9c-0.7,0-1.4,0.7-1.4,1.4
		C59.8,86.6,60.4,87.3,61.2,87.3z"/>
	<path class="st1" d="M43,34c0.5,0,0.9-0.3,1.2-0.7s0.1-1-0.2-1.3c-4.3-4.5-4.4-11.4-0.6-16.2c0.3-0.3,0.4-0.8,0.2-1.2
		c-0.2-0.4-0.5-0.7-1-0.8c-0.5-0.1-0.9,0.1-1.2,0.4c-4.7,5.7-4.4,14.1,0.7,19.4C42.3,33.8,42.6,34,43,34z"/>
	<path class="st1" d="M64.2,30.7c0.3,0.2,0.7,0.2,0.9,0.1c0.3-0.1,0.6-0.3,0.7-0.6c2.7-5.2,2-11.5-1.7-16.1
		c-0.2-0.3-0.7-0.5-1.2-0.4c-0.4,0.1-0.8,0.4-1,0.8c-0.2,0.4-0.1,0.9,0.2,1.2c3.1,3.8,3.7,9.1,1.5,13.3
		C63.4,29.7,63.6,30.4,64.2,30.7z"/>
</g>
</svg>
