<?xml version="1.0" encoding="utf-8"?>
<!-- Generator: Adobe Illustrator 24.2.3, SVG Export Plug-In . SVG Version: 6.00 Build 0)  -->
<svg version="1.1" id="Group_861" xmlns="http://www.w3.org/2000/svg" xmlns:xlink="http://www.w3.org/1999/xlink" x="0px" y="0px"
	 viewBox="0 0 107.1 106.9" style="enable-background:new 0 0 107.1 106.9;" xml:space="preserve">
<style type="text/css">
	.st0{fill:none;stroke:#717791;stroke-width:2.5;stroke-miterlimit:10;}
	.st1{fill:#FFFFFF;}
	.st2{fill:#717791;}
	.st3{fill:#C6D2E0;stroke:#C6D2E0;stroke-miterlimit:10;}
</style>
<path class="st0" d="M71.1,34.9H31.6c-1.3,0-2.4-1.1-2.4-2.4V14.9c0-1.3,1.1-2.4,2.4-2.4h39.6c1.3,0,2.4,1.1,2.4,2.4v17.6
	C73.5,33.8,72.4,34.9,71.1,34.9z"/>
<rect x="39.7" y="20.7" class="st1" width="18.1" height="19.7"/>
<g>
	<g>
		<g>
			<path class="st2" d="M73.4,45.2c-1,0-1.9,0.3-2.8,0.7c-0.7-2.3-2.8-3.9-5.3-3.9c-1.6,0-3,0.7-4,1.7c-1-1.1-2.4-1.7-4-1.7
				c-0.9,0-1.8,0.2-2.5,0.6V32.4c0-3-2.5-5.5-5.5-5.5c-3,0-5.5,2.5-5.5,5.5v7.8c0,0.8,0.7,1.5,1.5,1.5s1.5-0.7,1.5-1.5v-7.8
				c0-1.4,1.1-2.5,2.5-2.5c1.4,0,2.5,1.1,2.5,2.5v24.9c0,0.8,0.7,1.5,1.5,1.5c0.8,0,1.5-0.7,1.5-1.5v-9.7c0-1.4,1.1-2.5,2.5-2.5
				s2.5,1.1,2.5,2.5V49v8.3c0,0.8,0.7,1.5,1.5,1.5c0.8,0,1.5-0.7,1.5-1.5V49v-1.4c0-1.4,1.1-2.5,2.5-2.5c1.4,0,2.5,1.1,2.5,2.5v3.2
				v2.6v4c0,0.8,0.7,1.5,1.5,1.5s1.5-0.7,1.5-1.5v-4v-2.6c0-1.4,1.1-2.5,2.5-2.5s2.5,1.1,2.5,2.5v15.6c0,1.1-0.1,2.2-0.3,3.3
				c-0.1,0.8,0.4,1.6,1.2,1.7c0.1,0,0.2,0,0.3,0c0.7,0,1.3-0.5,1.5-1.2c0.2-1.3,0.3-2.5,0.3-3.8V50.7C78.9,47.7,76.4,45.2,73.4,45.2
				z"/>
		</g>
	</g>
	<g>
		<g>
			<path class="st2" d="M72.2,79.7c-0.6-0.6-1.5-0.6-2.1-0.1c-3.4,3.2-7.8,4.9-12.5,4.9c-7,0-13.4-4-16.4-10.3l-6.9-14.2
				c-0.6-1.3-0.1-2.8,1.1-3.5c1.3-0.7,2.9-0.3,3.7,0.9l4.8,8c0.3,0.6,1,0.8,1.7,0.7s1.1-0.8,1.1-1.4V50c0-0.8-0.7-1.5-1.5-1.5
				s-1.5,0.7-1.5,1.5v9.3l-2.1-3.4c-1.6-2.7-5-3.5-7.7-2c-2.6,1.5-3.6,4.7-2.3,7.4l6.9,14.2c1.7,3.6,4.4,6.6,7.8,8.8
				c3.4,2.1,7.3,3.2,11.3,3.2c5.4,0,10.5-2,14.5-5.7C72.7,81.3,72.7,80.3,72.2,79.7z"/>
		</g>
	</g>
	<g>
		<g>
			<path class="st3" d="M76,74.7c-0.3-0.3-0.7-0.4-1.1-0.4s-0.8,0.2-1.1,0.4c-0.3,0.3-0.4,0.7-0.4,1.1c0,0.4,0.2,0.8,0.4,1.1
				c0.3,0.3,0.7,0.4,1.1,0.4s0.8-0.2,1.1-0.4c0.3-0.3,0.4-0.7,0.4-1.1C76.5,75.3,76.3,75,76,74.7z"/>
		</g>
	</g>
	<g>
		<g>
			<path class="st3" d="M46.3,44.2c-0.3-0.3-0.7-0.4-1.1-0.4s-0.8,0.2-1.1,0.4c-0.3,0.3-0.4,0.7-0.4,1.1c0,0.4,0.2,0.8,0.4,1.1
				c0.3,0.3,0.7,0.4,1.1,0.4s0.8-0.2,1.1-0.4s0.4-0.7,0.4-1.1C46.7,44.9,46.6,44.5,46.3,44.2z"/>
		</g>
	</g>
</g>
</svg>
