<?xml version="1.0" encoding="utf-8"?>
<!-- Generator: Adobe Illustrator 24.2.3, SVG Export Plug-In . SVG Version: 6.00 Build 0)  -->
<svg version="1.1" id="Group_861" xmlns="http://www.w3.org/2000/svg" xmlns:xlink="http://www.w3.org/1999/xlink" x="0px" y="0px"
	 viewBox="0 0 107.1 106.9" style="enable-background:new 0 0 107.1 106.9;" xml:space="preserve">
<style type="text/css">
	.st0{fill:none;stroke:#717791;stroke-width:2.5;stroke-miterlimit:10;}
	.st1{fill:#FFFFFF;}
	.st2{fill:#717791;}
	.st3{fill:#C6D2E0;stroke:#C6D2E0;stroke-miterlimit:10;}
</style>
<path class="st0" d="M-32.7,59.1h-39.6c-1.3,0-2.4-1.1-2.4-2.4V39.1c0-1.3,1.1-2.4,2.4-2.4h39.6c1.3,0,2.4,1.1,2.4,2.4v17.6
	C-30.4,58-31.4,59.1-32.7,59.1z"/>
<rect x="-64.2" y="44.9" class="st1" width="18.1" height="19.7"/>
<g>
	<g>
		<g>
			<path class="st2" d="M-30.5,69.5c-1,0-1.9,0.3-2.8,0.7c-0.7-2.3-2.8-3.9-5.3-3.9c-1.6,0-3,0.7-4,1.7c-1-1.1-2.4-1.7-4-1.7
				c-0.9,0-1.8,0.2-2.5,0.6V56.6c0-3-2.5-5.5-5.5-5.5c-3,0-5.5,2.5-5.5,5.5v7.8c0,0.8,0.7,1.5,1.5,1.5s1.5-0.7,1.5-1.5v-7.8
				c0-1.4,1.1-2.5,2.5-2.5s2.5,1.1,2.5,2.5v24.9c0,0.8,0.7,1.5,1.5,1.5s1.5-0.7,1.5-1.5v-9.7c0-1.4,1.1-2.5,2.5-2.5
				c1.4,0,2.5,1.1,2.5,2.5v1.4v8.3c0,0.8,0.7,1.5,1.5,1.5c0.8,0,1.5-0.7,1.5-1.5v-8.3v-1.4c0-1.4,1.1-2.5,2.5-2.5
				c1.4,0,2.5,1.1,2.5,2.5V75v2.6v4c0,0.8,0.7,1.5,1.5,1.5c0.8,0,1.5-0.7,1.5-1.5v-4V75c0-1.4,1.1-2.5,2.5-2.5S-28,73.6-28,75v15.6
				c0,1.1-0.1,2.2-0.3,3.3c-0.1,0.8,0.4,1.6,1.2,1.7c0.1,0,0.2,0,0.3,0c0.7,0,1.3-0.5,1.5-1.2c0.2-1.3,0.3-2.5,0.3-3.8V75
				C-25,71.9-27.5,69.5-30.5,69.5z"/>
		</g>
	</g>
	<g>
		<g>
			<path class="st2" d="M-31.7,103.9c-0.6-0.6-1.5-0.6-2.1-0.1c-3.4,3.2-7.8,4.9-12.5,4.9c-7,0-13.4-4-16.4-10.3l-6.9-14.2
				c-0.6-1.3-0.1-2.8,1.1-3.5c1.3-0.7,2.9-0.3,3.7,0.9l4.8,8c0.3,0.6,1,0.8,1.7,0.7s1.1-0.8,1.1-1.4V74.3c0-0.8-0.7-1.5-1.5-1.5
				s-1.5,0.7-1.5,1.5v9.3l-2.1-3.4c-1.6-2.7-5-3.5-7.7-2c-2.6,1.5-3.6,4.7-2.3,7.4l6.9,14.2c1.7,3.6,4.4,6.6,7.8,8.8
				c3.4,2.1,7.3,3.2,11.3,3.2c5.4,0,10.5-2,14.5-5.7C-31.2,105.5-31.1,104.5-31.7,103.9z"/>
		</g>
	</g>
	<g>
		<g>
			<path class="st3" d="M-27.8,98.9c-0.3-0.3-0.7-0.4-1.1-0.4s-0.8,0.2-1.1,0.4c-0.3,0.3-0.4,0.7-0.4,1.1c0,0.4,0.2,0.8,0.4,1.1
				s0.7,0.4,1.1,0.4s0.8-0.2,1.1-0.4c0.3-0.3,0.4-0.7,0.4-1.1C-27.4,99.6-27.6,99.2-27.8,98.9z"/>
		</g>
	</g>
	<g>
		<g>
			<path class="st3" d="M-57.6,68.5c-0.3-0.3-0.7-0.4-1.1-0.4s-0.8,0.2-1.1,0.4c-0.3,0.3-0.4,0.7-0.4,1.1s0.2,0.8,0.4,1.1
				c0.3,0.3,0.7,0.4,1.1,0.4s0.8-0.2,1.1-0.4c0.3-0.3,0.4-0.7,0.4-1.1S-57.3,68.7-57.6,68.5z"/>
		</g>
	</g>
</g>
<g>
	<path class="st2" d="M57.2,10.7H50c-4,0-7.8,1.6-10.8,4.5c-3,2.9-4.6,6.8-4.6,10.8l-0.1,16c0,0.7,0.5,1.2,1.2,1.2h0
		c0.7,0,1.2-0.5,1.2-1.2l0-9.2h21.8c1.5,0,1.5-2.4,0-2.4h-4.1v-7.7c0-0.7-0.5-1.2-1.2-1.2s-1.2,0.5-1.2,1.2v7.7H37l0-4.4
		c0-7,5.9-13,13-13h2.4V17c0,0.7,0.5,1.2,1.2,1.2s1.2-0.5,1.2-1.2v-3.9h2.5c7.1,0,13,5.8,13,13v4.4h-5.7c-1.5,0-1.5,2.4,0,2.4h5.7
		v21c0,6.9-5.4,12.5-12.1,12.9v-4.2c0-2.4-2-4.4-4.4-4.4c-2.4,0-4.4,2-4.4,4.4v4.2c-6.8-0.4-12.3-6-12.3-12.9v-6
		c0-0.7-0.5-1.2-1.2-1.2s-1.2,0.5-1.2,1.2v6c0,8.2,6.5,14.9,14.7,15.3v8.2l-4-4c-1.7-1.7-4.5-1.7-6.2,0c-1.7,1.7-1.7,4.5,0,6.2
		l11.4,11.4c1.6,1.7,4.6,1.7,6.2,0l4.4-4.4c0.5-0.5,0.5-1.2,0-1.7c-0.5-0.5-1.2-0.5-1.7,0L55,89.2c-0.7,0.8-2.1,0.8-2.8,0L40.8,77.9
		c-0.8-0.8-0.8-2,0-2.8c0.7-0.8,2.1-0.8,2.8,0l6,6c0.7,0.8,2.1,0.2,2.1-0.9V62.5c0-1.1,0.9-2,2-2s2,0.9,2,2V80c0,1,1.3,1.6,2.1,0.9
		l5.8-5.8c0.8-0.8,2-0.8,2.8,0c0.8,0.8,0.8,2,0,2.8l-3,3c-0.5,0.5-0.5,1.2,0,1.7c0.5,0.5,1.2,0.5,1.7,0l3-3c1.7-1.7,1.7-4.5,0-6.2
		c-1.7-1.7-4.5-1.7-6.2,0L58,77.2v-8.1c3.8-0.2,7.4-1.7,10.1-4.5c2.9-2.9,4.4-6.7,4.4-10.8V26.1C72.6,17.6,65.7,10.7,57.2,10.7
		L57.2,10.7z"/>
</g>
</svg>
