<?xml version="1.0" encoding="utf-8"?>
<!-- Generator: Adobe Illustrator 24.2.3, SVG Export Plug-In . SVG Version: 6.00 Build 0)  -->
<svg version="1.1" id="Group_861" xmlns="http://www.w3.org/2000/svg" xmlns:xlink="http://www.w3.org/1999/xlink" x="0px" y="0px"
	 viewBox="0 0 107.1 106.9" style="enable-background:new 0 0 107.1 106.9;" xml:space="preserve">
<style type="text/css">
	.st0{fill:#C6D2E0;}
	.st1{fill:#717791;}
</style>
<g>
	<g>
		<g>
			<path class="st0" d="M58.7,84c15.7,0,28.4-12.7,28.4-28.4S74.4,27.2,58.7,27.2S30.3,39.9,30.3,55.6C30.4,71.3,43.1,83.9,58.7,84z
				 M36.8,54.3H33c0.7-13.2,11.2-23.8,24.4-24.4v3.8c0,0.7,0.6,1.3,1.3,1.3s1.3-0.6,1.3-1.3v-3.8c13.2,0.7,23.8,11.2,24.4,24.4h-5.1
				c-0.7,0-1.3,0.6-1.3,1.3s0.6,1.3,1.3,1.3h5.1C83.7,70.1,73.2,80.6,60,81.3v-3.8c0-0.7-0.6-1.3-1.3-1.3s-1.3,0.6-1.3,1.3v3.8
				C44.2,80.6,33.7,70.1,33,56.9h3.8c0.7,0,1.3-0.6,1.3-1.3S37.5,54.3,36.8,54.3z"/>
			<path class="st1" d="M87.7,38.9c-0.4-0.7-0.8-1.3-1.2-2l3.2-3.2c0.5-0.5,0.5-1.3,0-1.8l-7.3-7.3c-0.5-0.5-1.3-0.5-1.8,0l-3.2,3.2
				c-5.2-3.5-11.2-5.4-17.4-5.7v-7.8h9c0.7,0,1.3-0.6,1.3-1.3s-0.6-1.3-1.3-1.3H48.4c-0.7,0-1.3,0.6-1.3,1.3s0.6,1.3,1.3,1.3h9v7.8
				c-11.5,0.4-22,6.8-27.7,16.7h-7.1c-0.7,0-1.3,0.6-1.3,1.3s0.6,1.3,1.3,1.3h7.7c0,0,0.1,0,0.1,0c0.5,0,0.9-0.2,1.1-0.6
				c8.2-15,27-20.5,42-12.3s20.5,27,12.3,42c-8.2,15-27,20.5-42,12.3c-5.2-2.8-9.5-7.1-12.3-12.3c-0.2-0.4-0.7-0.7-1.1-0.7
				c0,0-0.1,0-0.1,0h-7.7c-0.7,0-1.3,0.6-1.3,1.3s0.6,1.3,1.3,1.3h7.1c9.3,16,29.7,21.5,45.8,12.3C91.5,75.4,97,54.9,87.7,38.9z
				 M79.5,29.4l2-2l5.5,5.5l-2,2C83.4,32.8,81.5,31,79.5,29.4z"/>
			<path class="st1" d="M27.8,55.6c0-0.7-0.6-1.3-1.3-1.3H16.2c-0.7,0-1.3,0.6-1.3,1.3s0.6,1.3,1.3,1.3h10.3
				C27.2,56.9,27.8,56.3,27.8,55.6z"/>
			<path class="st1" d="M18.7,49.2h9c0.7,0,1.3-0.6,1.3-1.3c0-0.7-0.6-1.3-1.3-1.3h-9c-0.7,0-1.3,0.6-1.3,1.3
				C17.5,48.6,18,49.2,18.7,49.2z"/>
			<path class="st1" d="M29.1,63.3c0-0.7-0.6-1.3-1.3-1.3h-9c-0.7,0-1.3,0.6-1.3,1.3s0.6,1.3,1.3,1.3h9C28.5,64.6,29.1,64,29.1,63.3
				z"/>
			<path class="st1" d="M55.2,64.2c0.5,0.5,1.3,0.5,1.8,0L75,46.3c0.5-0.5,0.5-1.3,0-1.8c-0.5-0.5-1.3-0.5-1.8,0l-17,17l-7.7-7.7
				c-0.5-0.5-1.3-0.5-1.8,0c-0.5,0.5-0.5,1.3,0,1.8L55.2,64.2z"/>
		</g>
	</g>
</g>
</svg>
