<?xml version="1.0" encoding="utf-8"?>
<!-- Generator: Adobe Illustrator 24.2.3, SVG Export Plug-In . SVG Version: 6.00 Build 0)  -->
<svg version="1.1" id="Calque_1" xmlns="http://www.w3.org/2000/svg" xmlns:xlink="http://www.w3.org/1999/xlink" x="0px" y="0px"
	 viewBox="0 0 548 354.2" style="enable-background:new 0 0 548 354.2;" xml:space="preserve">
<style type="text/css">
	.st0{opacity:0.43;}
	.st1{fill:url(#Path_7004_1_);}
	.st2{fill:url(#Path_7005_1_);}
	.st3{fill:url(#Path_7006_1_);}
	.st4{fill:url(#Path_7007_1_);}
	.st5{fill:#08ACC1;}
	.st6{fill:#FA7561;}
	.st7{fill:#5E7AE4;}
	.st8{fill:#3CD3B6;}
	.st9{fill:#41DAED;}
	.st10{fill:url(#Path_7028_1_);}
	.st11{fill:#0F3871;}
	.st12{fill:url(#Path_7030_1_);}
	.st13{fill:#FDC8A8;}
	.st14{fill:#7B424E;}
	.st15{fill:#C591A5;}
	.st16{fill:#283042;}
	.st17{fill:#DB967F;}
	.st18{fill:#F48BAA;}
	.st19{fill:#B3DEFF;}
	.st20{fill:#F6F1EC;}
	.st21{fill:#B74C4E;}
	.st22{fill:#F7C651;}
	.st23{fill:url(#Path_7110_1_);}
	.st24{fill:#F48BBF;}
	.st25{fill:#D33C70;}
	.st26{fill:#FFFFFF;}
	.st27{fill:#F2EBDD;}
	.st28{fill:#FFBC5E;}
	.st29{fill:#BAC8E2;}
	.st30{fill:url(#Path_7169_1_);}
	.st31{fill:url(#Path_7182_1_);}
	.st32{fill:url(#Path_7184_1_);}
	.st33{fill:#5E98FF;}
	.st34{fill:url(#Path_7203_1_);}
	.st35{fill:#FDC9A3;}
	.st36{fill:#FFAA21;}
	.st37{fill:url(#Path_7221_1_);}
	.st38{fill:url(#Path_7289_1_);}
	.st39{fill:#1C8891;}
	.st40{fill:#BABABA;}
	.st41{fill:#AFBDD3;}
	.st42{clip-path:url(#SVGID_2_);}
	.st43{fill:#FDFEFF;}
	.st44{fill:#FBFDFF;}
	.st45{fill:#FAFDFF;}
	.st46{fill:#F8FCFF;}
	.st47{fill:#F6FBFF;}
	.st48{fill:#F5FBFF;}
	.st49{fill:#F3FAFF;}
	.st50{fill:#F2F9FF;}
	.st51{fill:#F0F8FF;}
	.st52{fill:#EFF8FF;}
	.st53{fill:#EDF7FF;}
	.st54{fill:#ECF7FF;}
	.st55{fill:#EAF6FF;}
	.st56{fill:#E9F5FF;}
	.st57{fill:#E8F5FF;}
	.st58{fill:#E7F4FF;}
	.st59{fill:#E5F4FF;}
	.st60{fill:#E4F3FF;}
	.st61{fill:#E3F3FF;}
	.st62{fill:#E2F2FF;}
	.st63{fill:#E1F2FF;}
	.st64{fill:#E0F1FF;}
	.st65{fill:#DFF1FF;}
	.st66{fill:#DEF1FF;}
	.st67{fill:#DDF0FF;}
	.st68{fill:#DCF0FF;}
	.st69{fill:#DCEFFF;}
	.st70{fill:#DBEFFF;}
	.st71{fill:#DAEFFF;}
	.st72{fill:#D9EEFF;}
	.st73{fill:#D8EEFF;}
	.st74{fill:#D7EEFF;}
	.st75{fill:#D7EDFF;}
	.st76{fill:#D6EDFF;}
	.st77{fill:#FDD4BB;}
	.st78{fill:#FFD4B3;}
	.st79{fill:#E5A67C;}
	.st80{fill:#152F39;}
	.st81{fill:#FFC55E;}
	.st82{font-family:'Helvetica-Bold';}
	.st83{font-size:24px;}
	.st84{font-family:'Helvetica';}
	.st85{font-size:11.7485px;}
</style>
<g id="Group_1981" transform="translate(-246.001 -437)">
	<g id="Group_1752" transform="translate(153.203 340.953)">
		<g id="Group_1753" transform="translate(117.623 137.035)" class="st0">
			<g id="Group_1752-2" transform="translate(0 0)">
				
					<radialGradient id="Path_7004_1_" cx="-169.8026" cy="433.6143" r="1.325" gradientTransform="matrix(-252.8596 0 0 -216.0938 -42644.9414 93730.6562)" gradientUnits="userSpaceOnUse">
					<stop  offset="0" style="stop-color:#F6F7FC"/>
					<stop  offset="0.311" style="stop-color:#F3F5FC"/>
					<stop  offset="0.512" style="stop-color:#EAF1FC"/>
					<stop  offset="0.682" style="stop-color:#DBEAFC"/>
					<stop  offset="0.834" style="stop-color:#C6E0FC"/>
					<stop  offset="0.974" style="stop-color:#ABD3FC"/>
					<stop  offset="1" style="stop-color:#A6D1FC"/>
				</radialGradient>
				<path id="Path_7004" class="st1" d="M475.6,157.4c-41.8-38.5,21.5-210-164-141.4C186.1,62.4,81.4-52.6,60.1,36.1
					c-5.5,23,40.5,49.3,41.5,107.9c0.8,46.8-51.9,80.6-69,108.7h460.1C487,197.1,518,196.5,475.6,157.4z"/>
			</g>
		</g>
		
			<linearGradient id="Path_7005_1_" gradientUnits="userSpaceOnUse" x1="-51.1065" y1="565.4097" x2="-50.1065" y2="565.4097" gradientTransform="matrix(-69.674 0 0 -22.1692 -3340.9072 12720.2197)">
			<stop  offset="0" style="stop-color:#A6D1FC"/>
			<stop  offset="2.600000e-02" style="stop-color:#ABD3FC"/>
			<stop  offset="0.166" style="stop-color:#C6E0FC"/>
			<stop  offset="0.318" style="stop-color:#DBEAFC"/>
			<stop  offset="0.488" style="stop-color:#EAF1FC"/>
			<stop  offset="0.689" style="stop-color:#F3F5FC"/>
			<stop  offset="1" style="stop-color:#F6F7FC"/>
		</linearGradient>
		<path id="Path_7005" class="st2" d="M219.9,196.6c-0.1-0.2-0.1-0.3-0.2-0.5c-1.8-4.3-6.8-6.3-11-4.5c-0.6-3.6-3.3-6.6-6.8-7.5
			c0-0.1,0-0.2,0-0.3c0-0.7-0.1-1.4-0.2-2.1c-1.2-5-6.2-8.2-11.2-7c-5,1.2-8.2,6.2-7,11.2c-5.2-1-10.5,1.3-13.3,5.8
			c-0.2-0.1-0.4-0.3-0.7-0.4c-3.9-1.9-8.7-0.3-10.6,3.6c-0.2-0.2-0.5-0.3-0.7-0.5c-2.7-1.5-6.2-0.6-7.8,2.1L219.9,196.6z"/>
		
			<linearGradient id="Path_7006_1_" gradientUnits="userSpaceOnUse" x1="-51.2449" y1="565.7739" x2="-50.2449" y2="565.7739" gradientTransform="matrix(-74.5999 0 0 -23.7685 -3411.97 13555.5342)">
			<stop  offset="0" style="stop-color:#F6F7FC"/>
			<stop  offset="0.311" style="stop-color:#F3F5FC"/>
			<stop  offset="0.512" style="stop-color:#EAF1FC"/>
			<stop  offset="0.682" style="stop-color:#DBEAFC"/>
			<stop  offset="0.834" style="stop-color:#C6E0FC"/>
			<stop  offset="0.974" style="stop-color:#ABD3FC"/>
			<stop  offset="1" style="stop-color:#A6D1FC"/>
		</linearGradient>
		<path id="Path_7006" class="st3" d="M336.3,119.8c0.1-0.2,0.1-0.3,0.2-0.5c1.9-4.6,7.2-6.8,11.8-4.8c0.6-3.9,3.5-7.1,7.3-8.1
			c0-0.1,0-0.2,0-0.3c0-0.8,0.1-1.5,0.3-2.3c1.3-5.4,6.7-8.7,12.1-7.5c5.4,1.3,8.7,6.7,7.5,12.1c0.9-0.2,1.8-0.3,2.7-0.3
			c4.7,0,9.1,2.4,11.6,6.5c0.2-0.1,0.5-0.3,0.7-0.4c4.2-2.1,9.3-0.3,11.4,3.9c0.2-0.2,0.5-0.4,0.8-0.5c2.9-1.7,6.6-0.6,8.3,2.3
			H336.3z"/>
		
			<linearGradient id="Path_7007_1_" gradientUnits="userSpaceOnUse" x1="-50.8656" y1="564.7827" x2="-49.8656" y2="564.7827" gradientTransform="matrix(-62.49 0 0 -19.868 -2546.1899 11362.4766)">
			<stop  offset="0" style="stop-color:#F6F7FC"/>
			<stop  offset="0.311" style="stop-color:#F3F5FC"/>
			<stop  offset="0.512" style="stop-color:#EAF1FC"/>
			<stop  offset="0.682" style="stop-color:#DBEAFC"/>
			<stop  offset="0.834" style="stop-color:#C6E0FC"/>
			<stop  offset="0.974" style="stop-color:#ABD3FC"/>
			<stop  offset="1" style="stop-color:#A6D1FC"/>
		</linearGradient>
		<path id="Path_7007" class="st4" d="M569.9,151.3c0-0.1,0.1-0.3,0.2-0.4c1.6-3.9,6.1-5.7,9.9-4c0.5-3.3,2.9-5.9,6.1-6.8
			c0-0.1,0-0.2,0-0.3c0-0.6,0.1-1.2,0.2-1.9c1-4.5,5.5-7.3,10.1-6.3c4.5,1,7.3,5.5,6.3,10.1c0.7-0.1,1.5-0.2,2.2-0.2
			c4,0,7.6,2,9.7,5.4c0.2-0.1,0.4-0.2,0.6-0.3c3.5-1.7,7.8-0.3,9.5,3.2c0.2-0.2,0.4-0.3,0.6-0.4c2.5-1.4,5.6-0.5,7,1.9L569.9,151.3z
			"/>
		<path id="Path_7008" class="st5" d="M462.4,139.5C462.4,139.5,462.4,139.5,462.4,139.5c-0.4-1.5-2-2.4-3.5-1.9
			c-1.5,0.4-2.4,2-1.9,3.5c0.4,1.5,2,2.4,3.5,1.9C462,142.6,462.8,141,462.4,139.5z"/>
		<path id="Path_7009" class="st5" d="M149.9,122.7C149.9,122.7,149.9,122.7,149.9,122.7c-0.4-1.5-2-2.4-3.5-1.9
			c-1.5,0.4-2.4,2-1.9,3.5c0.4,1.5,2,2.4,3.5,1.9C149.5,125.8,150.3,124.2,149.9,122.7z"/>
		<path id="Path_7010" class="st5" d="M461.1,179.8c0.3-1-0.3-2-1.2-2.3c-0.1,0-0.1,0-0.2-0.1c-0.9-0.2-1.9,0.3-2.1,1.3
			c-2.9,22.2,0.6,39.9,0.5,38.9C456.4,203.2,460.8,180.7,461.1,179.8C461.1,179.8,461.1,179.8,461.1,179.8z"/>
		<path id="Path_7011" class="st6" d="M443.1,201.6C443.1,201.6,443,201.6,443.1,201.6c-0.6,0.2-0.8,0.7-0.7,1.2
			c2.8,6.2,6.4,12,10.9,17.1c-4.7-5.9-8.9-17.1-9-17.6C444.1,201.8,443.6,201.5,443.1,201.6z"/>
		<path id="Path_7012" class="st6" d="M422.5,225.8C422.5,225.7,422.5,225.7,422.5,225.8c0.1-0.6,0.5-1,1-0.9
			c6.7,1.3,13.1,3.6,19.1,6.9c-6.8-3.3-18.6-4.9-19.1-5C422.9,226.7,422.5,226.3,422.5,225.8z"/>
		<path id="Path_7013" class="st5" d="M414.6,197.4C414.7,197.4,414.7,197.4,414.6,197.4c0.8-0.9,2.1-1,2.9-0.3
			c20.6,19,30.5,29.1,29.6,28.4c-13.5-10.8-31.4-24.5-32.3-25.2C414,199.6,413.9,198.3,414.6,197.4z"/>
		<path id="Path_7014" class="st5" d="M404.1,248.6c-0.9,0.5-2,0.2-2.5-0.7c0-0.1-0.1-0.1-0.1-0.2c-0.4-0.9-0.1-1.9,0.8-2.3
			c21-7.8,39.1-8.3,38.1-8.2C425.9,238.8,405,248.1,404.1,248.6C404.1,248.6,404.1,248.6,404.1,248.6z"/>
		<path id="Path_7015" class="st5" d="M638.6,244.6c0.6,0.4,1.5,0.3,1.9-0.3c0,0,0.1-0.1,0.1-0.1c0.4-0.6,0.2-1.4-0.4-1.8
			c-8.7-4.2-18-7.1-27.6-8.6C623.2,235.9,638,244.2,638.6,244.6C638.6,244.6,638.6,244.6,638.6,244.6z"/>
		<path id="Path_7016" class="st6" d="M626.6,227.5c0.4,0,0.7-0.3,0.7-0.7c0,0,0,0,0-0.1c0-0.4-0.3-0.7-0.7-0.7
			c-5,0.5-9.9,1.8-14.6,3.7C617.4,227.9,626.2,227.5,626.6,227.5C626.6,227.5,626.6,227.5,626.6,227.5z"/>
		<path id="Path_7017" class="st6" d="M615,206.7C615.1,206.8,615.1,206.8,615,206.7c0.4,0.2,0.6,0.6,0.4,0.9
			c-2.5,4.4-5.6,8.4-9.2,11.9c3.9-4.1,7.8-12,7.9-12.4C614.3,206.8,614.7,206.6,615,206.7z"/>
		<path id="Path_7018" class="st5" d="M636.9,207.7C636.9,207.7,636.9,207.7,636.9,207.7c0.5,0.8,0.2,1.7-0.5,2.2
			c-18.2,10.2-27.6,14.8-26.9,14.3c10.8-7,24.5-16.5,25.2-17C635.5,206.8,636.4,207,636.9,207.7z"/>
		<path id="Path_7019" class="st5" d="M604.2,186.8c0,0,0.1,0,0.1,0c0.7-0.1,1.4,0.4,1.5,1.1c0.4,9.7-0.6,19.4-3,28.8
			c2.3-10.6,0.5-27.5,0.4-28.2C603,187.7,603.5,187,604.2,186.8z"/>
		<g id="Group_1756" transform="translate(205.228 119.24)">
			<g id="Group_1755">
				<g id="Group_1754">
					<path id="Path_7020" class="st7" d="M319.2,3.3c-0.7-1-0.4-2.3,0.6-3c1-0.7,2.3-0.4,3,0.6s0.4,2.3-0.6,3
						C321.2,4.6,319.9,4.3,319.2,3.3z M320.3,1.1c-0.5,0.4-0.7,1.1-0.3,1.7c0,0,0,0,0,0c0.4,0.5,1.1,0.7,1.7,0.3
						c0.5-0.4,0.7-1.1,0.3-1.7C321.6,0.9,320.9,0.8,320.3,1.1L320.3,1.1z"/>
				</g>
			</g>
		</g>
		<g id="Group_1759" transform="translate(452.496 105.895)">
			<g id="Group_1758">
				<g id="Group_1757">
					<path id="Path_7021" class="st7" d="M-175.3,3.3C-175.3,3.3-175.3,3.3-175.3,3.3c-0.7-1-0.4-2.3,0.6-3c1-0.7,2.3-0.4,3,0.6
						c0.7,1,0.4,2.3-0.6,3C-173.3,4.6-174.7,4.3-175.3,3.3z M-174.5,2.8C-174.5,2.8-174.5,2.8-174.5,2.8c0.4,0.6,1.1,0.7,1.7,0.3
						c0.5-0.4,0.7-1.1,0.3-1.7s-1.1-0.7-1.7-0.3C-174.8,1.5-174.9,2.3-174.5,2.8z"/>
				</g>
			</g>
		</g>
		<g id="Group_1764" transform="translate(380.707 157.48)">
			<g id="Group_1760" transform="translate(0 2.272)">
				<path id="Path_7022" class="st8" d="M-28,0.8c0.2,0.2,0.3,0.5,0.1,0.7c-0.2,0.2-0.5,0.3-0.7,0.2l-1-0.7
					c-0.2-0.2-0.3-0.5-0.1-0.7s0.5-0.3,0.7-0.1L-28,0.8L-28,0.8z"/>
			</g>
			<g id="Group_1761" transform="translate(2.496 0.509)">
				<path id="Path_7023" class="st8" d="M-32.9,1.5c-0.2,0.2-0.5,0.3-0.7,0.2l-1-0.7c-0.2-0.2-0.3-0.5-0.1-0.7s0.5-0.3,0.7-0.1
					l1,0.7C-32.8,0.9-32.8,1.2-32.9,1.5z"/>
			</g>
			<g id="Group_1762" transform="translate(0.509 0)">
				<path id="Path_7024" class="st8" d="M-28.9,0.8l-0.7,1C-29.8,2-30.1,2-30.3,1.9c-0.2-0.2-0.3-0.5-0.2-0.7l0.7-1c0,0,0,0,0,0
					c0.2-0.2,0.5-0.3,0.7-0.1C-28.8,0.3-28.8,0.6-28.9,0.8z"/>
			</g>
			<g id="Group_1763" transform="translate(2.272 2.496)">
				<path id="Path_7025" class="st8" d="M-32.6,0.1c0.2,0.2,0.3,0.5,0.1,0.7l-0.7,1c0,0,0,0,0,0c-0.2,0.2-0.5,0.3-0.7,0.1
					s-0.3-0.5-0.1-0.7l0.7-1c0,0,0,0,0,0C-33.1,0-32.8-0.1-32.6,0.1C-32.6,0.1-32.6,0.1-32.6,0.1z"/>
			</g>
		</g>
		<path id="Path_7026" class="st9" d="M577,176.5c0,0,3.6,2.6,7,1.4l-0.1-1.5c-2.4-0.5-4.7-1.3-6.8-2.4
			C577.2,174,578.4,176.3,577,176.5z"/>
		<path id="Path_7027" class="st9" d="M268.4,183.3c0,0,3.6,2.6,7,1.4l-0.1-1.5c-2.4-0.5-4.7-1.3-6.8-2.4
			C268.5,180.8,269.8,183.1,268.4,183.3z"/>
		
			<linearGradient id="Path_7028_1_" gradientUnits="userSpaceOnUse" x1="-52.3221" y1="558.5899" x2="-51.3221" y2="558.5899" gradientTransform="matrix(-207.7144 0 0 -9.8098 -10352.7764 5904.3979)">
			<stop  offset="0" style="stop-color:#D6EDFF"/>
			<stop  offset="0.378" style="stop-color:#D8EEFF"/>
			<stop  offset="0.637" style="stop-color:#E1F2FF"/>
			<stop  offset="0.861" style="stop-color:#F1F8FF"/>
			<stop  offset="1" style="stop-color:#FFFFFF"/>
		</linearGradient>
		<path id="Path_7028" class="st10" d="M440.1,422.6c71.4,1.3,107.4,1.7,109,4.9c0.5,1.1,25.5,3.6-79.1,1
			c-123.6-3.1-118.9,2-123.6-3.1C337.7,416,354.5,421,440.1,422.6z"/>
		<g id="Group_1801" transform="translate(544.577 329.569)">
			<g id="Group_1766" transform="translate(11.975 40.383)">
				<g id="Group_1765">
					<path id="Path_7029" class="st11" d="M-380.7,5c-0.5-1.7-2.5-5.3-3.8-5l-6.5,2.6c0.1,1.5,0.4,2.9,0.7,4.4l4.5,17.6
						c0.5,1.7,1.4,5,2.8,4.6l0.9-2.3c1.4-0.3,2.6,0.9,2.6-0.9L-380.7,5z"/>
				</g>
			</g>
			
				<linearGradient id="Path_7030_1_" gradientUnits="userSpaceOnUse" x1="-596.0128" y1="201.4805" x2="-595.0128" y2="201.4805" gradientTransform="matrix(-63.4986 0 0 -3.0171 -38169.0234 700.5245)">
				<stop  offset="0" style="stop-color:#FFFFFF"/>
				<stop  offset="0.139" style="stop-color:#F1F8FF"/>
				<stop  offset="0.363" style="stop-color:#E1F2FF"/>
				<stop  offset="0.622" style="stop-color:#D8EEFF"/>
				<stop  offset="1" style="stop-color:#D6EDFF"/>
			</linearGradient>
			<path id="Path_7030" class="st12" d="M-384,91.7c-10.7-1.5-36.4,0.1-36.4,1.2c0,1.3,14.1,0.5,28.8,1.2c2.1,0.1,5.3-0.3,7.2-0.3
				c27.6,0.4,28.5-1,27-1.1C-360.9,92.5-379.7,92.4-384,91.7z"/>
			<path id="Path_7031" class="st13" d="M-367.9,86.4l-2.3,0.3l0.6,4l2.3-0.3L-367.9,86.4z"/>
			<path id="Path_7032" class="st13" d="M-367.9,86.4l0.6,4l-1,0.1c0-0.2,0.1-0.3,0.1-0.5c0.1-0.4,0.1-0.7,0.1-1.1
				c-0.3-0.6-0.8-0.6-1.4-0.6c-0.1,0-0.3,0-0.4,0.1l-0.2-1.6L-367.9,86.4z"/>
			<path id="Path_7033" class="st14" d="M-359.5,92.5c0,0.2,0,0.4-0.5,0.4c-0.8,0-4.4,0-6.7,0l-0.1-3c0.4,0,0.8,0.2,1.3,0.1
				c0.2-0.1,0-0.1,0.2,0.1c0.4,0.2,0.8,0.4,1.2,0.5c1.7,0.3,4.5,1,4.5,1.4c0,0.3,0,0.4,0,0.4C-359.5,92.4-359.5,92.4-359.5,92.5z"/>
			<path id="Path_7034" class="st15" d="M-359.5,92.5c0,0.2,0,0.4-0.5,0.4c-0.8,0-4.4,0-6.7,0l-0.1-3c0.5,0,0.8,0.2,1.3,0.1
				c0.2-0.1,0-0.1,0.2,0.1c0.4,0.2,0.8,0.4,1.2,0.5c1.7,0.3,4.5,1,4.5,1.4c0,0.3,0,0.4,0,0.4C-359.5,92.4-359.5,92.4-359.5,92.5z"/>
			<path id="Path_7035" class="st16" d="M-359.5,92.4C-359.5,92.4-359.5,92.4-359.5,92.4c0,0.3,0,0.5-0.4,0.5c-0.8,0-4.4,0-6.7,0
				l0-0.6L-359.5,92.4z"/>
			<path id="Path_7036" class="st17" d="M-359.5,92.4C-359.5,92.4-359.5,92.4-359.5,92.4c0,0.3,0,0.5-0.5,0.5c-0.8,0-4.4,0-6.7,0
				l0-0.5L-359.5,92.4z"/>
			<path id="Path_7037" class="st16" d="M-361.3,92l-8.7-0.1c0,0,0,0,0,0c-0.2,0-0.4,0.2-0.5,0.4l0,0c0,0.2,0.3,0.4,0.5,0.4
				c0.4,0.1,7.6,0.1,8.7,0.1c0.5,0,0.5-0.2,0.5-0.4C-360.9,92.2-361.1,92-361.3,92z"/>
			<g id="Group_1767" transform="translate(5.295 89.719)">
				<path id="Path_7038" class="st14" d="M-375.4,0c0.5-0.2,0.3,1.4,3.2,0.2c0.2-0.1,0-0.1,0.2,0.1c0.4,0.2,0.8,0.4,1.2,0.5
					c1.7,0.3,4.5,1,4.5,1.4c0,0.4,0,0.4-0.1,0.4c-6.6,0-9.6,0-9.6-0.2C-375.8,2.2-376,0.2-375.4,0z"/>
			</g>
			<path id="Path_7039" class="st16" d="M-366,90.3C-366,90.3-366,90.2-366,90.3L-366,90.3c-0.1-0.1-0.2-0.1-0.2-0.1l-0.4,0.7
				c0,0,0,0.1,0.1,0.1l0,0c0,0,0.1,0,0.1,0L-366,90.3z"/>
			<path id="Path_7040" class="st16" d="M-365.5,90.4C-365.5,90.4-365.5,90.4-365.5,90.4L-365.5,90.4c-0.1-0.1-0.2-0.1-0.2-0.1
				l-0.2,0.6c0,0,0,0.1,0.1,0.1l0,0c0,0,0.1,0,0.1,0L-365.5,90.4z"/>
			<path id="Path_7041" class="st16" d="M-365,90.6C-365,90.5-365,90.5-365,90.6L-365,90.6c-0.1-0.1-0.2-0.1-0.2-0.1l-0.1,0.4
				c0,0,0,0,0.1,0.1l0,0c0.1,0,0.1,0,0.1,0L-365,90.6z"/>
			<g id="Group_1769" transform="translate(11.8 63.977)">
				<g id="Group_1768">
					<path id="Path_7042" class="st11" d="M-379.3,3.1l0.1,21.5l-3.2,0.3l-0.3-2.1l-2.2-20.1c-0.1-1.9,0.7-2.8,2.2-2.7l0.6,0
						C-380.5,0.1-379.2,1.5-379.3,3.1z"/>
				</g>
			</g>
			<g id="Group_1771" transform="translate(18.118 42.162)">
				<g id="Group_1770">
					<path id="Path_7043" class="st11" d="M-391.8,5.8c0.1-1.7-0.6-5.7-2-5.8l-7,0.5c-0.4,1.4-0.6,2.9-0.8,4.4l-1.6,18
						c-0.1,1.7-0.3,5.1,1.1,5.2l1.7-1.9c1.4,0.1,2.2,1.6,2.7-0.1L-391.8,5.8z"/>
				</g>
			</g>
			<path id="Path_7044" class="st18" d="M-383.4,46.7c0.2-1.3,0.4-2.7,0.7-4l5.3-0.4l4.7-1.9c1.4-0.3,3.4,3.3,3.8,5l1.2,21v0
				c0,0.2,0.1,0.5,0.1,0.7l0.1,21.5l-1.8,0.2c1.8-0.2,1-5.7,0.3-21.7c-0.4-9.2-1.3-18.1-1.7-18.8c-1-1.7-1.7-0.5-6.5-1.1
				C-379.1,46.8-380.6,46.9-383.4,46.7z"/>
			<path id="Path_7045" class="st13" d="M-384.6,87.4l-2.3-0.1l-0.2,3.6l2.3,0.1L-384.6,87.4z"/>
			<path id="Path_7046" class="st13" d="M-384.6,87.4l-0.2,3.6l-1-0.1c0.1-0.2,0.1-0.3,0.2-0.5c0.2-0.3,0.3-0.7,0.3-1.1
				c-0.2-0.6-0.7-0.8-1.3-0.9c-0.1,0-0.3,0-0.4,0l0.1-1.2L-384.6,87.4z"/>
			<g id="Group_1773" transform="translate(28.48 90.108)">
				<path id="Path_7047" class="st14" d="M-421.4,2.8c0,0.2,0,0.4,0.4,0.4c0.6,0,3.7,0,5.7-0.1l-0.2-3c-0.3,0-0.6,0.2-1.1,0.1
					c-0.1-0.1,0-0.1-0.2,0.1c-0.3,0.2-0.6,0.4-1,0.5c-1.4,0.4-3.7,1-3.7,1.4c0,0.1,0,0.3,0,0.4C-421.4,2.7-421.4,2.7-421.4,2.8z"/>
				<path id="Path_7048" class="st15" d="M-421.4,2.8c0,0.2,0,0.4,0.4,0.4c0.6,0,3.7,0,5.7-0.1l-0.2-3c-0.4,0-0.6,0.2-1.1,0.1
					c-0.1-0.1,0-0.1-0.2,0.1c-0.3,0.2-0.6,0.4-1,0.5c-1.4,0.4-3.7,1-3.7,1.4c0,0.1,0,0.3,0,0.4C-421.4,2.7-421.4,2.7-421.4,2.8z"/>
				<path id="Path_7049" class="st16" d="M-421.4,2.7C-421.4,2.7-421.4,2.8-421.4,2.7c0,0.3,0,0.5,0.4,0.5c0.6,0,3.7,0,5.7-0.1
					l0-0.5L-421.4,2.7z"/>
				<path id="Path_7050" class="st17" d="M-421.4,2.7C-421.4,2.7-421.4,2.8-421.4,2.7c0,0.3,0,0.5,0.4,0.5c0.6,0,3.7,0,5.7-0.1
					l0-0.5L-421.4,2.7z"/>
				<path id="Path_7051" class="st16" d="M-419.2,2.3l6.3-0.1c0.2,0,0.4,0.2,0.4,0.4l0,0c0,0.2-0.1,0.4-0.3,0.4
					c-0.3,0.1-5.5,0.1-6.3,0.1c-0.3,0-0.3-0.2-0.4-0.4C-419.5,2.5-419.4,2.3-419.2,2.3z"/>
				<g id="Group_1772" transform="translate(0.013)">
					<path id="Path_7052" class="st14" d="M-413.1,0c-0.4-0.2-0.1,1.4-2.3,0.2c-0.1-0.1,0-0.1-0.2,0.1c-0.2,0.2-0.5,0.4-0.9,0.5
						c-1.2,0.3-3.2,1-3.2,1.4c0,0.4,0,0.4,0.1,0.4c4.7,0,6.9,0,6.9-0.2C-412.6,2.2-412.6,0.2-413.1,0z"/>
				</g>
				<path id="Path_7053" class="st16" d="M-415.9,0.6C-416,0.5-415.9,0.5-415.9,0.6L-415.9,0.6C-415.9,0.5-415.9,0.5-415.9,0.6
					c0.1-0.1,0.1-0.1,0.1-0.1l0.3,0.7c0,0,0,0.1,0,0.1l0,0c0,0,0,0,0,0c0,0-0.1,0-0.1,0L-415.9,0.6z"/>
				<path id="Path_7054" class="st16" d="M-416.5,0.8C-416.5,0.8-416.5,0.8-416.5,0.8L-416.5,0.8c0.1-0.1,0.1-0.1,0.1-0.1l0.2,0.6
					c0,0,0,0.1,0,0.1l0,0c0,0-0.1,0-0.1,0L-416.5,0.8z"/>
				<path id="Path_7055" class="st16" d="M-417,1.1C-417,1.1-417,1.1-417,1.1L-417,1.1c0.1-0.1,0.1-0.1,0.1-0.1l0.1,0.4
					c0,0,0,0-0.1,0.1l0,0c0,0-0.1,0-0.1,0L-417,1.1z"/>
				<path id="Path_7056" class="st16" d="M-416.8,0.5C-416.9,0.5-416.9,0.4-416.8,0.5L-416.8,0.5C-416.9,0.4-416.9,0.4-416.8,0.5
					c-0.1-0.1,0-0.1,0-0.1l0.9,0.1c0,0,0.1,0,0.1,0.1l0,0c0,0,0,0,0,0c0,0,0,0-0.1,0L-416.8,0.5z"/>
				<path id="Path_7057" class="st16" d="M-417.3,0.7C-417.3,0.7-417.3,0.7-417.3,0.7L-417.3,0.7C-417.3,0.6-417.3,0.6-417.3,0.7
					c-0.1-0.1,0-0.1,0-0.1l0.8,0.1c0,0,0.1,0,0.1,0.1l0,0c0,0,0,0,0,0c0,0,0,0-0.1,0L-417.3,0.7z"/>
				<path id="Path_7058" class="st16" d="M-417.7,0.9C-417.8,0.9-417.8,0.8-417.7,0.9L-417.7,0.9C-417.8,0.8-417.8,0.8-417.7,0.9
					c0-0.1,0-0.1,0-0.1l0.8,0.2c0,0,0.1,0,0,0.1l0,0c0,0,0,0,0,0c0,0,0,0-0.1,0L-417.7,0.9z"/>
			</g>
			<g id="Group_1775" transform="translate(23.999 65.015)">
				<g id="Group_1774">
					<path id="Path_7059" class="st11" d="M-405.6,0.3c1.5,0.4,2.4,2,2,3.5l-4.3,20.6l-3.2-0.2l0.1-1.7l2-20.2
						c0.4-1.9,1.3-2.6,2.7-2.2L-405.6,0.3C-405.7,0.2-405.7,0.3-405.6,0.3z"/>
				</g>
			</g>
			<path id="Path_7060" class="st18" d="M-373.7,48l-5.9,20.3l0,0c0,0.2-0.1,0.5-0.2,0.7l-4.2,20.4h-1.2c1.9-5,2.8-16.3,4.7-22.2
				C-374.9,49.5-373.7,48-373.7,48z"/>
			<path id="Path_7061" class="st19" d="M-381.8,16.7l0.4,8.3l5.7,7.5l2.8-7.9l-0.7-8.4L-381.8,16.7z"/>
			<path id="Path_7062" class="st13" d="M-376.3,10.5c-0.3-2-6.2-0.2-4.9,2.5c0.9,1.8-1.4,3.9-1.8,4.5c-1.2,1.7,3,0.7,4.5,0.5
				c1.4-0.4,2.7-1,3.9-1.7C-376.3,13.4-376,12.1-376.3,10.5z"/>
			<path id="Path_7063" class="st13" d="M-381.2,13c-1.3-2.7,4.6-4.5,4.9-2.5c0.3,1.6,0,2.9,1.8,5.8c0.1,0.2-0.6,0.1-0.6,0.3
				c-2.2-0.8-3.7-1.4-5.9-2.2C-380.9,13.9-381,13.4-381.2,13z"/>
			<path id="Path_7064" class="st13" d="M-375.6,14.1c0,0.3-1.3,1.2-1.9,1.1c-1.4-0.5-2.7-1.2-3.9-2.1l0-1.2l5.6,0.6L-375.6,14.1z"
				/>
			<path id="Path_7065" class="st13" d="M-376,7.7l1.3-0.1c-0.2-0.8,0.6-1,0.4-2c-0.2-0.6-0.6-0.8-1.1-0.5l-0.6,0.4L-376,7.7z"/>
			<path id="Path_7066" class="st13" d="M-381.7,10.4l-1.1,0.7c-0.4-0.8-1.1-0.6-1.4-1.5c-0.2-0.6,0.1-1,0.7-1l0.7,0L-381.7,10.4z"
				/>
			<path id="Path_7067" class="st13" d="M-375.8,3.3c-1.2-2.4-3.4-1.2-4.8-0.8c-5.2,1.2-2.9,8.1-1.1,10.4c0.7,0.9,4.2,1.8,5.3,1.4
				c0.9-0.4,1.7-2.6,1.9-4C-374.4,7.8-374.8,5.4-375.8,3.3z"/>
			<path id="Path_7068" class="st13" d="M-376.4,14.2c0,0,1.4-1.2,1.8-4.5c0.1-1.5-0.2-2.9-0.9-4.3c-0.3-0.8-2.1,0.1-2.6,0.2
				c-0.6,0-1.1-0.2-1.7-0.4c0-0.1-0.2,0.2-0.2,0.2c-0.8-0.8-1.7-1.4-2.7-1.9c-0.1,0-0.1,0-0.2-0.1c0.6-0.6,1.4-0.9,2.2-1.1
				c1.4-0.3,3.6-1.6,4.8,0.8c0.9,2.2,1.4,4.5,1.3,6.9C-374.6,11.6-375.4,13.8-376.4,14.2z"/>
			<path id="Path_7069" class="st14" d="M-375.3,10.8c-0.5-0.2-0.2-0.5-1.9-0.3c-2.3,0.3-1.8,1.5-2.5,1.6c-1,0-2.3-1.3-2.7-1.3
				c-0.6,0.1-0.6,0.4,0.4,2.4c0.6,1.1,4.8,2.3,6,1.8c1.1-0.4,2.3-3.8,1.7-4.9C-374.6,9.5-374.6,11-375.3,10.8z"/>
			<g id="Group_1776" transform="translate(21.022 0.664)">
				<path id="Path_7070" class="st14" d="M-405.6,5.4c0.4,0.2,0.9,0.3,1.3,0.4c-0.1-0.8,0.4-1.5,1.2-1.7c0.3-0.1,0.6-0.1,0.9-0.2
					l4.6-2.1c-0.8-1-2-1.1-2.4-0.7c-0.9,0.9-0.8-1.6-1.1-1.1C-402.2,1.8-406.2,1.1-405.6,5.4z"/>
			</g>
			<path id="Path_7071" class="st14" d="M-379.1,0.6c-0.6,0.9-1.6,0.6-1.3,1.1c0.6,0.7,1.6,0.9,2.4,0.5c0.6-0.4,0.9-1.1,0.7-1.8
				C-377.5-0.2-378.5-0.1-379.1,0.6z"/>
			<path id="Path_7072" class="st14" d="M-375.3,3.6c0.7,1.3,0.9,3.1,0.6,3.2c0,0-0.6-2.3-1.8-2C-377.4,5-375.8,2.8-375.3,3.6z"/>
			<path id="Path_7073" class="st18" d="M-375.3,3.6c0.7,1.3,0.9,3.1,0.6,3.2c0,0-0.6-2.3-1.8-2C-377.4,5-375.8,2.8-375.3,3.6z"/>
			<path id="Path_7074" class="st14" d="M-381.1,1.7c-2.4,1.1-3.9,3.4-3.3,5c0.1,0.3,0.9,3.7,1.4,3.6c-0.3-0.8-0.2-1.7,0.2-2.4
				c0.7-0.9,0.1-1.5,0.4-1.6c3-1.4,3.8,0,5.9-1.3c0.9-0.4,1.3-1.5,0.9-2.4C-376.2,0.9-378.6,0.5-381.1,1.7z"/>
			<path id="Path_7075" class="st18" d="M-383,10.3c-0.5,0.1-1.3-3.2-1.4-3.6c-0.1-0.2-0.1-0.4-0.1-0.6l-0.1,0
				c-0.6-4.3,3.4-3.6,4.5-5.3c0.1-0.2,0.2,0.1,0.3,0.5c0.1,0,0.2-0.1,0.3-0.1c-0.3,0.5-0.8,1-1.4,1.2c-0.8,0.2-1.6,0.6-2.4,1
				c-0.9,0.8-0.8,1.5-0.7,2.6c0.2,1.1,0.5,2.3,0.9,3.4C-383.1,9.6-383.1,9.9-383,10.3z"/>
			<g id="Group_1777" transform="translate(20.256 10.857)">
				<path id="Path_7076" class="st13" d="M-398.6,0.3L-398.6,0.3c0.1,0.7,0.8,1.2,1.5,1.1c0,0,0.1,0,0.1,0c0.6-0.1,1-0.7,0.9-1.4v0
					L-398.6,0.3z"/>
				<path id="Path_7077" class="st20" d="M-398.5,0.4L-398.5,0.4c0.1,0.6,0.7,1,1.3,1c0,0,0.1,0,0.1,0c0.6-0.1,0.9-0.7,0.8-1.2v0
					L-398.5,0.4z"/>
			</g>
			<g id="Group_1779" transform="translate(0 16.537)">
				<g id="Group_1778">
					<path id="Path_7078" class="st19" d="M-375.8,3.5c2.6,2,7.6,4.3,8.8,5.5l4.2,4c1.2,1.3,2.2,2.3,2.9,3.2l4.3-1.5
						c0.4-0.7-1-2.5-1.4-3l-7.1-8c-4.7-4.6-9.7-3.6-9-3.6C-375.4,1.7-375.1,2.6-375.8,3.5z"/>
				</g>
			</g>
			<path id="Path_7079" class="st19" d="M-384.9,33.4l-4-10.5c0.7-2.4,1.9-4.2,7.4-5.6c-0.5,1-0.8,2.2-0.7,3.3l6.4,11
				c0.6,0.1-0.2-4.8,0.2-5.1c0.9-0.6,0.2-3.1,1-3.9c1.6-1.6,0.5-4.3,0.8-6.3c4.5,0.1,6.2,2.6,6.2,3.9l-1.5,23.4c0,0.6,0,0.6,0,1.6
				l-14.1-0.4C-383.2,40.9-383.8,37.1-384.9,33.4z"/>
			<g id="Group_1781" transform="translate(11.972 16.233)">
				<g id="Group_1780">
					<path id="Path_7080" class="st19" d="M-393.6,5.4l-0.6-1c0-0.9,0.1-1.8,0.4-2.6L-393.6,5.4z"/>
					<path id="Path_7081" class="st19" d="M-379.5,3.9l-1.5,23.4c0,0.6,0,0.6,0,1.6l-9.1-0.3c0.2-0.1,0.3-0.1,0.5-0.2
						c1.2-0.4,2.1-1.5,3.3-1.5c6.3,0.2,4.7-2.5,5.5-13.8c0.3-3,0.3-6,0.1-9c-0.3-2.5-4.4-4.2-7.1-3.8c-0.2-0.1-0.3-0.2-0.4-0.3
						l2.6-0.2v0h0.1h0l0,0C-381.3,0.1-379.6,2.6-379.5,3.9z"/>
				</g>
			</g>
			<g id="Group_1783" transform="translate(23.011 17.079)">
				<g id="Group_1782">
					<path id="Path_7082" class="st19" d="M-401.6,3.1c-2.4,2.3-7,5.1-8.1,6.5l-3.7,4.5c-1.1,1.4-1.9,2.5-2.5,3.5l-4.5-1
						c-0.4-0.7,0.7-2.6,1-3.1l6.1-8.7c4.2-5.1,9.2-4.7,8.5-4.6C-402.2,1.3-402.4,2.3-401.6,3.1z"/>
				</g>
			</g>
			<path id="Path_7083" class="st19" d="M-382,16.5l4.2,1.6l-0.2,2.2l-4.1-2.8L-382,16.5z"/>
			<path id="Path_7084" class="st19" d="M-382.1,15.6l4.3,2.4l-0.4,1.9l-4.6-2.8L-382.1,15.6z"/>
			<path id="Path_7085" class="st19" d="M-374.8,15.2l-3,2.8l0.7,2.3l2.5-3.8L-374.8,15.2z"/>
			<path id="Path_7086" class="st19" d="M-374.9,14.9l-3,3l0.8,2l2.9-3.6L-374.9,14.9z"/>
			<path id="Path_7087" class="st19" d="M-375.9,27C-375.9,27-375.9,27-375.9,27c0.3,0,0.4,0.2,0.4,0.4s-0.2,0.3-0.4,0.3
				c-0.2,0-0.3-0.2-0.3-0.4C-376.2,27.2-376.1,27-375.9,27z"/>
			<path id="Path_7088" class="st19" d="M-377,22.2C-377,22.2-377,22.2-377,22.2c0.3,0,0.4,0.2,0.4,0.4c0,0.2-0.2,0.3-0.4,0.3
				s-0.3-0.2-0.3-0.4C-377.4,22.3-377.2,22.2-377,22.2z"/>
			<path id="Path_7089" class="st19" d="M-375.2,31.6c0-0.2,0.1-0.3,0.3-0.3c0.2,0,0.4,0.1,0.4,0.3c0,0.2-0.2,0.3-0.3,0.3
				C-375,31.9-375.1,31.8-375.2,31.6L-375.2,31.6z"/>
			<path id="Path_7090" class="st19" d="M-374.7,35.4c0.2,0,0.3,0.1,0.4,0.3c0,0.2-0.1,0.3-0.3,0.4c-0.2,0-0.4-0.1-0.4-0.3
				C-374.9,35.5-374.8,35.4-374.7,35.4z"/>
			<path id="Path_7091" class="st19" d="M-374.7,39.8c0.2,0,0.3,0.1,0.4,0.3c0,0.2-0.1,0.3-0.3,0.4c-0.2,0-0.4-0.1-0.4-0.3
				C-374.9,39.9-374.8,39.8-374.7,39.8z"/>
			<g id="Group_1784" transform="translate(14.543 22.549)">
				<path id="Path_7092" class="st19" d="M-385.2,0l-3.5,0.6l0.5,2.9l2.1,1.3l1.5-1.9L-385.2,0z"/>
				<path id="Path_7093" class="st19" d="M-385.3,0.3l-3.2,0.5l0.5,2.6l1.9,1.1l1.3-1.7L-385.3,0.3z"/>
			</g>
			<path id="Path_7094" class="st21" d="M-368.3,44.6c0-0.5,0.1-1-0.4-1h-14.5c-0.4,0-0.4,0.4-0.4,1l0,0c0,0.5-0.1,1,0.4,1h14.5
				C-368.2,45.6-368.3,45.2-368.3,44.6L-368.3,44.6z"/>
			<g id="Group_1790" transform="translate(8.151 39.071)">
				<g id="Group_1785" transform="translate(5.116 3.211)">
					<path id="Path_7095" class="st13" d="M-382.3,1.3c0.2-0.3,0.3-0.7,0.1-1c0-0.1-0.1-0.1-0.1-0.2c-0.2-0.2-0.6-0.2-0.8,0
						c-0.6,0.6-1,1.2-1.2,2c-0.2,0.6,0.6,0.7,0.6,0.7C-383.3,2.8-383,2-382.3,1.3z"/>
				</g>
				<g id="Group_1786" transform="translate(4.196 3.497)">
					<path id="Path_7096" class="st13" d="M-380.5,1.3c0.2-0.3,0.3-0.7,0.1-1c0-0.1-0.1-0.1-0.1-0.2c-0.2-0.2-0.6-0.2-0.8,0.1
						c-0.5,0.5-0.9,1.2-1.2,1.9c-0.2,0.6,0.7,0.7,0.7,0.7C-381.5,2.8-381.1,2-380.5,1.3z"/>
				</g>
				<g id="Group_1787" transform="translate(3.261 3.843)">
					<path id="Path_7097" class="st13" d="M-378.7,1.6c0.3-0.4,0.4-0.9,0.1-1.3c0-0.1-0.1-0.1-0.1-0.2c-0.2-0.2-0.6-0.2-0.8,0.1
						c-0.5,0.5-0.9,1.2-1.2,1.9c-0.2,0.6,0.9,0.5,0.9,0.5C-379.2,2.6-379.5,2.2-378.7,1.6z"/>
				</g>
				<g id="Group_1788" transform="translate(0)">
					<path id="Path_7098" class="st13" d="M-373.9,0c0.2-0.4,1.1,2.1,1.7,1.8c1.2-0.6-1,1.6-3.1,3.5c-0.5,0.4-0.2,0.1-1.6,0.2
						c-0.4,0-1.2-0.6-1.7-1.5c-0.2-0.5,0.1-1.1,0.6-1.3C-376.3,2.3-374.9,1.4-373.9,0z"/>
				</g>
				<g id="Group_1789">
					<path id="Path_7099" class="st13" d="M-373.8,3.9c1.4-1.4,2.5-2.6,1.6-2.1c-0.6,0.3-1.4-2.2-1.7-1.8c-1,1.3-2.4,2.3-4,2.6
						c-0.5,0.2-0.7,0.7-0.6,1.2c0.4-0.8,1.2-1.3,2-1.3C-375.9,2.6-374.3,3.8-373.8,3.9z"/>
				</g>
			</g>
			<g id="Group_1792" transform="translate(0.058 28.253)">
				<g id="Group_1791">
					<path id="Path_7100" class="st19" d="M-367.3,13.5c0.9,0.8,1.6,1.5,1.9,1.2l7.6-9.1c0.8-0.8,1.5-1.7,2-2.7
						c-1.5-0.8-2.2-2-3.6-2.9l-8.6,12.5C-367.8,12.9-367.6,13.2-367.3,13.5z"/>
				</g>
			</g>
			<path id="Path_7101" class="st19" d="M-367.9,40.7c0.1,0.4,0.3,0.8,0.6,1.1c0.4,0.3,1,0.8,1.1,1c-0.8-0.7-1-1.9-0.4-2.8
				c0.5-0.8,5.1-7,5.8-8.1s-4.5-4.9-5.8-5.8l3.6,3.5c0.6,0.6,1.1,1.2,1.6,1.7L-367.9,40.7z"/>
			<g id="Group_1798" transform="translate(24.828 40.258)">
				<g id="Group_1793" transform="translate(0 2.753)">
					<path id="Path_7102" class="st13" d="M-407.4,1.4c-0.3-0.3-0.3-0.7-0.2-1c0-0.1,0.1-0.1,0.1-0.2c0.2-0.2,0.5-0.2,0.8,0
						c0.6,0.5,1.1,1.1,1.4,1.8c0.3,0.6-0.5,0.7-0.5,0.7C-406.3,2.7-406.7,2-407.4,1.4z"/>
				</g>
				<g id="Group_1794" transform="translate(0.928 3.143)">
					<path id="Path_7103" class="st13" d="M-409.2,1.4c-0.3-0.3-0.3-0.7-0.2-1c0-0.1,0.1-0.1,0.1-0.2c0.2-0.2,0.5-0.2,0.8,0
						c0.6,0.5,1.1,1.1,1.4,1.7c0.3,0.6-0.6,0.8-0.6,0.8C-408,2.7-408.5,2-409.2,1.4z"/>
				</g>
				<g id="Group_1795" transform="translate(1.842 3.596)">
					<path id="Path_7104" class="st13" d="M-410.9,1.6c-0.3-0.3-0.5-0.8-0.3-1.3c0-0.1,0.1-0.1,0.1-0.2c0.2-0.2,0.5-0.2,0.8,0
						c0.6,0.5,1.1,1.1,1.4,1.7c0.3,0.5-0.9,0.6-0.9,0.6C-410.3,2.6-410,2.1-410.9,1.6z"/>
				</g>
				<g id="Group_1796" transform="translate(0.875)">
					<path id="Path_7105" class="st13" d="M-412,0c-0.3-0.4-0.8,2.2-1.5,2c-1.3-0.5,1.2,1.5,3.4,3.1c0.5,0.4,0.2,0,1.6,0
						c0.4,0,1.1-0.7,1.5-1.7c0.1-0.5-0.2-1.1-0.7-1.2C-409.4,2-410.9,1.2-412,0z"/>
				</g>
				<g id="Group_1797" transform="translate(0.876)">
					<path id="Path_7106" class="st13" d="M-411.7,3.9c-1.6-1.2-2.8-2.3-1.8-1.9c0.6,0.2,1.2-2.4,1.5-2c1.1,1.2,2.7,2,4.3,2.1
						c0.5,0.2,0.8,0.6,0.7,1.1c-0.4-0.7-1.3-1.2-2.2-1C-409.7,2.4-411.2,3.7-411.7,3.9z"/>
				</g>
			</g>
			<g id="Group_1800" transform="translate(28.497 30.26)">
				<g id="Group_1799">
					<path id="Path_7107" class="st19" d="M-413.1,12.5c-0.8,0.9-1.5,1.7-1.8,1.4l-8.7-8.2c-0.9-0.7-1.7-1.5-2.3-2.4
						c1.4-1,1.9-2.3,3.2-3.3l10,11.4C-412.6,11.8-412.8,12.2-413.1,12.5z"/>
				</g>
			</g>
			<path id="Path_7108" class="st19" d="M-384.1,41.7c0,0.4-0.2,0.8-0.5,1.1c-0.3,0.4-0.9,0.9-1,1.1c0.8-0.8,0.8-2,0-2.9
				c-0.6-0.8-5.9-6.4-6.7-7.4s3.9-5.4,5.1-6.4l-3.2,3.9c-0.5,0.7-1,1.3-1.4,1.8L-384.1,41.7z"/>
			<path id="Path_7109" class="st22" d="M-373.8,43.6h-2.3c-0.6,0-0.6,0.5-0.6,1l0,0c0,0.6,0,1,0.6,1h2.3c0.6,0,0.6-0.5,0.6-1
				C-373.2,44-373.2,43.6-373.8,43.6z"/>
		</g>
		<g id="Group_1809" transform="translate(481.624 351.218)">
			
				<linearGradient id="Path_7110_1_" gradientUnits="userSpaceOnUse" x1="-532.6329" y1="180.6391" x2="-531.6329" y2="180.6391" gradientTransform="matrix(-66.573 0 0 -3.0797 -35691.1562 653.7933)">
				<stop  offset="0" style="stop-color:#FFFFFF"/>
				<stop  offset="0.354" style="stop-color:#E8F5FF"/>
				<stop  offset="0.702" style="stop-color:#DAEFFF"/>
				<stop  offset="1" style="stop-color:#D6EDFF"/>
			</linearGradient>
			<path id="Path_7110" class="st23" d="M-265.5,95.9c-11.1,0-22.1,0.7-33.1,2.1c-3.4,0.6,39.3,0.8,48,0.9c8.1,0.1,15.8,0,17.9-0.9
				C-228.5,96.2-251.9,95.9-265.5,95.9z"/>
			<path id="Path_7111" class="st13" d="M-244.6,91.7l-2.1,0.1l0.2,3.2l2.1-0.1L-244.6,91.7z"/>
			<path id="Path_7112" class="st13" d="M-244.6,91.7l0.2,3.2l-0.9,0c0-0.1,0.1-0.3,0.1-0.4c0.1-0.3,0.2-0.6,0.1-1
				c-0.2-0.6-0.7-0.6-1.2-0.7c-0.1,0-0.3,0-0.4,0l-0.1-1.1L-244.6,91.7z"/>
			<path id="Path_7113" class="st11" d="M-237.4,96.7c0,0.2,0,0.4-0.4,0.4c-0.7,0-3.9,0-6-0.1l0-2.7c0.4,0,0.7,0.2,1.1,0.1
				c0.1-0.1,0-0.1,0.2,0.1c0.3,0.2,0.7,0.4,1.1,0.5c1.5,0.3,4,0.9,4,1.3C-237.4,96.4-237.4,96.5-237.4,96.7
				C-237.4,96.6-237.4,96.6-237.4,96.7z"/>
			<path id="Path_7114" class="st15" d="M-237.4,96.7c0,0.2,0,0.4-0.4,0.4c-0.7,0-3.9,0-6-0.1l0-2.7c0.4,0,0.7,0.2,1.1,0.1
				c0.1-0.1,0-0.1,0.2,0.1c0.3,0.2,0.7,0.4,1.1,0.5c1.5,0.3,4,0.9,4,1.3C-237.4,96.4-237.4,96.5-237.4,96.7
				C-237.4,96.6-237.4,96.6-237.4,96.7z"/>
			<path id="Path_7115" class="st11" d="M-237.5,96.6C-237.4,96.6-237.4,96.6-237.5,96.6c0,0.3,0,0.5-0.4,0.5c-0.7,0-3.9,0-6-0.1
				l0-0.5L-237.5,96.6z"/>
			<path id="Path_7116" class="st17" d="M-237.4,96.6C-237.4,96.6-237.4,96.6-237.4,96.6c0,0.3,0,0.4-0.4,0.4c-0.7,0-3.9,0-6-0.1
				l0-0.5L-237.4,96.6z"/>
			<path id="Path_7117" class="st11" d="M-238.6,96.6c0-0.2-0.2-0.4-0.4-0.4l-7.8-0.1c0,0,0,0,0,0c-0.2,0-0.4,0.2-0.4,0.4l0,0
				c0,0.2,0.2,0.4,0.4,0.4c0.3,0.1,6.8,0.1,7.8,0.1C-238.6,97-238.6,96.9-238.6,96.6L-238.6,96.6z"/>
			<g id="Group_1803" transform="translate(8.968 94.114)">
				<g id="Group_1802">
					<path id="Path_7118" class="st11" d="M-255.9,0c0.4-0.2,0.2,1.2,2.9,0.2c0.1-0.1,0-0.1,0.2,0.1c0.3,0.2,0.7,0.4,1.1,0.5
						c1.5,0.3,4,0.9,4,1.3c0,0.4,0,0.4-0.1,0.4c-5.9-0.1-8.6-0.1-8.6-0.2C-256.3,2-256.4,0.2-255.9,0z"/>
				</g>
			</g>
			<path id="Path_7119" class="st11" d="M-243.3,94.7C-243.2,94.6-243.3,94.6-243.3,94.7L-243.3,94.7c-0.1-0.1-0.1-0.1-0.2-0.1
				l-0.3,0.7c0,0,0,0.1,0.1,0.1l0,0c0,0,0.1,0,0.1,0L-243.3,94.7z"/>
			<path id="Path_7120" class="st11" d="M-242.8,94.8C-242.7,94.8-242.8,94.7-242.8,94.8L-242.8,94.8c-0.1-0.1-0.2-0.1-0.2-0.1
				l-0.2,0.5c0,0,0,0.1,0.1,0.1l0,0c0,0,0.1,0,0.1,0L-242.8,94.8z"/>
			<path id="Path_7121" class="st11" d="M-242.3,94.9C-242.3,94.9-242.3,94.9-242.3,94.9L-242.3,94.9c-0.1-0.1-0.2-0.1-0.2,0
				l-0.1,0.3c0,0,0,0,0.1,0l0,0c0,0,0.1,0,0.1,0L-242.3,94.9z"/>
			<path id="Path_7122" class="st13" d="M-255,91.5l-2.2,0.1l0.2,3.5l2.2-0.1L-255,91.5z"/>
			<path id="Path_7123" class="st13" d="M-255,91.5l0.2,3.5l-0.9,0.1c0-0.2,0.1-0.3,0.1-0.5c0.2-0.3,0.2-0.7,0.1-1.1
				c-0.2-0.6-0.7-0.6-1.3-0.7c-0.1,0-0.3,0-0.4,0.1l-0.1-1.2L-255,91.5z"/>
			<g id="Group_1806" transform="translate(24.222 94.244)">
				<path id="Path_7124" class="st11" d="M-286.7,2.7c0,0.2,0,0.4,0.4,0.4c0.6,0,3.6,0,5.5-0.1l-0.2-2.9c-0.3,0-0.6,0.2-1,0.1
					c-0.1-0.1,0-0.1-0.2,0.1c-0.3,0.2-0.6,0.4-1,0.5c-1.4,0.3-3.6,1-3.6,1.4C-286.7,2.3-286.7,2.5-286.7,2.7
					C-286.7,2.6-286.7,2.7-286.7,2.7z"/>
				<path id="Path_7125" class="st15" d="M-286.7,2.7c0,0.2,0,0.4,0.4,0.4c0.6,0,3.6,0,5.5-0.1l-0.2-2.9c-0.4,0-0.6,0.2-1,0.1
					c-0.1-0.1,0-0.1-0.2,0.1c-0.3,0.2-0.6,0.4-1,0.5c-1.4,0.3-3.6,1-3.6,1.4C-286.7,2.3-286.7,2.5-286.7,2.7
					C-286.7,2.6-286.7,2.7-286.7,2.7z"/>
				<path id="Path_7126" class="st11" d="M-286.7,2.6C-286.7,2.6-286.7,2.7-286.7,2.6c0,0.3,0,0.5,0.4,0.5c0.6,0,3.6,0,5.5-0.1
					l0-0.5L-286.7,2.6z"/>
				<path id="Path_7127" class="st17" d="M-286.7,2.6C-286.7,2.7-286.7,2.7-286.7,2.6c0,0.3,0,0.5,0.4,0.5c0.6,0,3.6,0,5.5-0.1
					l0-0.5L-286.7,2.6z"/>
				<path id="Path_7128" class="st11" d="M-284.9,2.7c0-0.2,0.1-0.4,0.3-0.4l6.1-0.1c0.2,0,0.4,0.2,0.4,0.4l0,0
					c0,0.2-0.1,0.4-0.3,0.4c-0.2,0.1-5.3,0.1-6.1,0.1C-284.9,3.1-284.9,2.9-284.9,2.7L-284.9,2.7z"/>
				<g id="Group_1805" transform="translate(0.012)">
					<g id="Group_1804">
						<path id="Path_7129" class="st11" d="M-278.6,0c-0.3-0.2-0.1,1.3-2.3,0.2c-0.1-0.1,0-0.1-0.2,0.1c-0.2,0.2-0.5,0.4-0.8,0.5
							c-1.2,0.3-3.1,0.9-3.1,1.3c0,0.4,0,0.4,0.1,0.4c4.6,0,6.7,0,6.7-0.2C-278.2,2.2-278.2,0.2-278.6,0z"/>
					</g>
				</g>
				<path id="Path_7130" class="st11" d="M-281.4,0.6C-281.4,0.5-281.4,0.5-281.4,0.6L-281.4,0.6C-281.4,0.5-281.4,0.5-281.4,0.6
					c0.1-0.1,0.1-0.1,0.1-0.1l0.3,0.7c0,0,0,0.1,0,0.1l0,0c0,0-0.1,0-0.1,0L-281.4,0.6z"/>
				<path id="Path_7131" class="st11" d="M-282,0.8C-282,0.8-282,0.7-282,0.8L-282,0.8c0.1-0.1,0.1-0.1,0.1-0.1l0.2,0.6
					c0,0,0,0.1,0,0.1l0,0c0,0-0.1,0-0.1,0L-282,0.8z"/>
				<path id="Path_7132" class="st11" d="M-282.5,1.1C-282.5,1-282.4,1-282.5,1.1L-282.5,1.1c0.1-0.1,0.1-0.1,0.1,0l0.1,0.4
					c0,0,0,0-0.1,0l0,0c0,0-0.1,0-0.1,0L-282.5,1.1z"/>
				<path id="Path_7133" class="st11" d="M-282.3,0.4C-282.3,0.4-282.3,0.4-282.3,0.4L-282.3,0.4C-282.3,0.4-282.3,0.4-282.3,0.4
					c-0.1-0.1,0-0.1,0-0.1l0.9,0.1c0,0,0.1,0,0.1,0.1l0,0c0,0,0,0,0,0c0,0,0,0-0.1,0L-282.3,0.4z"/>
				<path id="Path_7134" class="st11" d="M-282.7,0.7C-282.7,0.7-282.7,0.7-282.7,0.7L-282.7,0.7C-282.7,0.6-282.7,0.6-282.7,0.7
					c-0.1-0.1,0-0.1,0-0.1l0.8,0.1c0,0,0.1,0,0.1,0.1l0,0c0,0,0,0,0,0c0,0,0,0-0.1,0L-282.7,0.7z"/>
				<path id="Path_7135" class="st11" d="M-283.1,0.9C-283.2,0.9-283.2,0.8-283.1,0.9L-283.1,0.9C-283.2,0.8-283.2,0.8-283.1,0.9
					c0-0.1,0-0.1,0-0.1l0.8,0.2c0,0,0.1,0,0,0.1l0,0c0,0,0,0,0,0c0,0,0,0-0.1,0L-283.1,0.9z"/>
			</g>
			<path id="Path_7136" class="st11" d="M-242.5,77.9c0.1-0.7,0-6.4-0.1-7.1c0-1.5-0.4-2.9-1.1-4.2c-2,0.9-2.6,6.6-4.6,5.7
				c0.1,0.5-0.9,6.8-0.9,6.9c0.6,4.5,1.3,8.1,2.2,13.4h3.7C-243,89.1-243,83.6-242.5,77.9z"/>
			<path id="Path_7137" class="st11" d="M-251.4,23.7c-0.2-2.1,2-4.4,4.1-4.6l2.5-2.1c2.1-0.2,3.7,1.8,3.8,3.9l2.3,15.9
				c-0.7,1-1.8,1.7-3.1,1.8l0.2,0c-2.1,0.2-3.6,0.8-3.6,0.4L-251.4,23.7z"/>
			<path id="Path_7138" class="st13" d="M-236.8,52.1c0.4-0.7,1-1.2,1.8,0s3.1,2.7,2.7,3.4c-0.1,0.2-0.3,0.4-0.5,0.6
				c-0.7,0.5-1.6,0.3-2.1-0.4C-236.1,53.9-237.1,52.8-236.8,52.1z"/>
			<path id="Path_7139" class="st13" d="M-233.9,27.2c-0.9-0.3-1.6-0.9-0.4-2.1s2.5-4.2,3.4-4c0.3,0.1,0.6,0.2,0.8,0.5
				c0.7,0.7,0.7,1.8,0,2.5C-231.9,26-233,27.4-233.9,27.2z"/>
			<path id="Path_7140" class="st11" d="M-243.8,39.3l2.4-3.5c1-1.4,1.8-2.4,2.4,0l4.6,16.3c-0.7,0.8-1.4,1.6-2,2.5
				C-236.5,54.5-242.6,42.7-243.8,39.3z"/>
			<path id="Path_7141" class="st24" d="M-251.4,23.7l6.3,15.3c0,0.3,0.6,0.1,1.5,0l-0.2,0.3c1.2,3.4,7.4,15.2,7.4,15.2
				c0.6-0.9,1.3-1.7,2-2.5l-4.3-15.1c0-0.1,0.1-0.1,0.1-0.1l-2.3-15.9c-0.2-2.1-1.8-4.1-3.8-3.9l-2.5,2.1
				C-249.3,19.3-251.5,21.7-251.4,23.7z"/>
			<path id="Path_7142" class="st11" d="M-251.7,46.1c0.6-2.9,6.7-5.5,8-1.1c1.7,5.8,1.4,29,1.1,30.5c-0.1,0.3-5.2-2.9-5.8-2.7
				C-248.3,72.4-253.9,56.8-251.7,46.1z"/>
			<path id="Path_7143" class="st11" d="M-253.6,79.1c0-0.1,0.2-5.4,0.3-5.9c-2,0.9-3.1-5.7-5.1-6.6c-0.7,1.3-1,2.7-1,4.2
				c0,0.7,0,6.4,0.1,7.1c0.6,5.7,1.2,11.2,1.5,14.8h3.5C-253.7,87.3-254.1,83.6-253.6,79.1z"/>
			<path id="Path_7144" class="st11" d="M-259.1,45.8c0.8-2.9,15.2,6.5,10.6,6.9c-2.4,0.2-4.5,20.8-4.9,22.3c-0.1,0.3-5-2.7-5.7-2.6
				C-259.1,72.1-262.1,56.3-259.1,45.8z"/>
			<path id="Path_7145" class="st11" d="M-259.1,72.5c0.6-0.2,5.6,2.9,5.7,2.6c0.2-0.9,1-8,2.1-14c0.8,4,1.7,7.9,3,11.8
				c0.6-0.2,5.7,3,5.8,2.7c0.3-1.5,0.6-24.7-1.1-30.5c-1.3-4.3-7.4-1.8-8,1.1c-0.1,0.6-0.2,1.2-0.3,1.8c-3.1-2-6.8-3.6-7.2-2.2
				C-262.1,56.3-259.1,72.1-259.1,72.5z"/>
			<path id="Path_7146" class="st24" d="M-248.3,72.9c-0.1,1.6-0.9,6.3-0.9,6.4c0.6,4.5,1.3,8.1,2.2,13.4h0.9
				c-0.4-2.9-2.1-9-2.5-11.8c-0.6-4,1.5-4.9,0.9-8.5c-0.5-2.9-2.3-9.2-3.5-11.3c0,0,0,0,0,0.1C-250.5,65.1-249.5,69-248.3,72.9z"/>
			<path id="Path_7147" class="st24" d="M-259.4,70.8c0,0.7,0,6.4,0.1,7.1c0.6,5.7,1.2,11.2,1.5,14.8h1.7c-1.7-4.2-1.4-8.8-1.4-13.4
				c-0.1-3.3-1.1-18.1-1.2-21.3c-0.1-6.7,7.7-2.9,16-5.7c-0.1-2.5-0.4-4.9-1-7.3c-1.3-4.3-7.4-1.8-8,1.1c-0.1,0.6-0.2,1.2-0.3,1.8
				c-3.1-2-6.8-3.6-7.2-2.2c-2.3,8.2-1,19.6-0.3,24.4C-259.4,70.4-259.4,70.6-259.4,70.8z"/>
			<path id="Path_7148" class="st25" d="M-254.1,43.6l-6-0.4c0.3,5.7,4,7.3,9.9,7s6.8-0.2,6.6-5.9l0.1,0.2L-254.1,43.6z"/>
			<g id="Group_1807" transform="translate(17.056 14.377)">
				<path id="Path_7149" class="st26" d="M-272.5,0.3v37c2.9-0.1,6.1-0.4,8.8-0.7V0.5C-266.7-0.1-269.6-0.1-272.5,0.3z"/>
			</g>
			<path id="Path_7150" class="st27" d="M-255.4,14.9v10.5l4.7,8.6l5.3-8.6l-0.6-10.2L-255.4,14.9z"/>
			<path id="Path_7151" class="st13" d="M-246.7,15.1c-1.6-3.1-1.2-5.3-1.3-6.9c-0.2-2.1-6.9-0.8-5.7,2.1c0.7,1.9-0.6,3.6-1.2,4.3
				c1.5,0.3,3,0.5,4.5,0.9c0.1,0,0.2,0.1,0.4,0.1c0.1-0.1,0.3-0.1,0.4-0.1C-248.7,15.4-247.7,15.3-246.7,15.1z"/>
			<path id="Path_7152" class="st13" d="M-248,8.2c-0.2-2.1-6.9-0.8-5.7,2.1c0.7,1.9-0.6,3.6-1.2,4.3c0.9,0.2,1.8,0.3,2.7,0.5
				c0.1-0.2,0.2-0.3,0.3-0.5c1.2-1.2,2.7-1.7,4.2-2.3C-248,11-248.1,9.6-248,8.2z"/>
			<path id="Path_7153" class="st13" d="M-254.3,6c0.5-2.9,3.2-4.8,6.1-4.2c2.1,0.2,1.8,6.1,2.1,8.9c0.1,1.4-2.8,2.6-5.8,1.3
				c-2.6-1.1-2.7-3.7-2.5-5.3C-254.4,6.4-254.4,6.2-254.3,6z"/>
			<path id="Path_7154" class="st28" d="M-248.9,5c-1.6,0.1-3.2-0.2-4.7,0.4c-1.4,0.5,0,3.8-0.8,3.6c-0.4-0.8-0.7-1.7-0.9-2.7
				c-1.1-4.1,1.4-5.1,3-5.4c2-0.4,5.5-1.2,6.1,3.3C-246.4,4.7-246.8,5-248.9,5z"/>
			<path id="Path_7155" class="st28" d="M-246,4.4c0,0.5-0.8,0.6-2.9,0.6c-1.1,0-2.3,0.1-3.4,0.4c-0.2,0-1.8,0.2-2,0.1
				c-0.6-0.1-0.8-0.6-1.4-0.8c-0.1-2.7,1.9-3.5,3.3-3.8C-250.4,0.6-245.1-2.4-246,4.4z"/>
			<path id="Path_7156" class="st29" d="M-254.7,13.2l5.3,2.4l-1.1,3.2l-4.7-3.7L-254.7,13.2z"/>
			<path id="Path_7157" class="st27" d="M-254.7,12.8l5.3,2.8l-1.1,2.7l-4.7-3.2L-254.7,12.8z"/>
			<path id="Path_7158" class="st29" d="M-247.4,14.4l-2,1.2l1.4,3l1.2-3.5L-247.4,14.4z"/>
			<path id="Path_7159" class="st27" d="M-247.4,13.3l-2,2.1l1.4,2.3l1.2-2.7L-247.4,13.3z"/>
			<g id="Group_1808" transform="translate(11.689 14.506)">
				<path id="Path_7160" class="st11" d="M-273.2,38.3c2.4,0.6,8.4,0.3,12.9-0.2c-0.7-2.4-1.2-4.8-1.5-7.2c-0.2-2.1-0.1-4.1,0.2-6.2
					c0.2-2.6,0.2-5.2,0.1-7.7c0-2.2-0.2-4.5-0.8-6.7c-0.5-1.5-0.9-3-1.1-4.5c-0.3-3.1-0.6-5.4-2.5-5.7c-0.4-0.1-0.8-0.1-1.3-0.1
					c-1.9,0.4-3.6,1.4-5,2.7c0,0-1.7,2-0.1,16.8C-271.8,23.7-272.2,31.3-273.2,38.3z"/>
				<path id="Path_7161" class="st18" d="M-262.2,21.6c-0.8,2.8-1.1,5.7-0.8,8.6c0.3,2.7,0.9,5.4,1.7,8c0.4,0,0.7-0.1,1.1-0.1
					c-0.7-2.4-1.2-4.8-1.5-7.2c-0.2-2.1-0.1-4.1,0.2-6.2c0.2-2.6,0.2-5.2,0.1-7.7c0-2.2-0.2-4.5-0.8-6.7c-0.3-1-0.6-1.9-0.9-2.9
					c-0.3,0.4-0.5,0.8-0.6,1.3C-262.2,12.7-261.2,17.4-262.2,21.6z"/>
				<path id="Path_7162" class="st11" d="M-259.4,38c2.7-0.3,5.4-0.6,6.2-0.8c0.6-1.2-0.2-33-0.2-33.1c-0.5-2-4.6-4.4-5.1-4
					c-0.1,0.1-0.4,1.6-0.4,1.5c-0.6,2.5-1,2.2-1.1,5c-0.1,1.3,0,2.7,0.4,4c0.5,1.7,0.1,3.7,0.2,5.5c0.2,4.4-1.3,8.8-1.3,13.2
					C-260.9,32.2-260.4,35.2-259.4,38z"/>
				<path id="Path_7163" class="st18" d="M-261,29.2c0.1,3,0.6,5.9,1.5,8.7c0.5-0.1,1-0.1,1.5-0.2c-1.4-3.5-2-7.3-1.7-11
					c0.2-2.6,1.3-5,1.2-7.7c0-2,0.2-4,0.3-6.1c-0.3-0.3-0.6-0.5-0.9-0.8c-0.2-0.1-0.3-0.1-0.5-0.2c0.1,1.3-0.1,2.7-0.1,4
					C-259.4,20.5-260.9,24.8-261,29.2z"/>
				<path id="Path_7164" class="st18" d="M-268,3.1c0.3,0.3,0.7,0.5,1.1,0.7c0,0-0.8,1.3-0.7,1.7c0.3,1.1,3.1,4.7,5.5,12l0.7-0.5
					c-0.9-3-2.1-13.3-2.4-14.2c-0.4-1.7-1.2-2.7-2.1-2.7c-0.1,0-1.6-0.3-1.8,0.3C-268,1.3-268.1,2.2-268,3.1z"/>
				<path id="Path_7165" class="st18" d="M-256.3,6.7c-0.1-0.8-0.4-1.5-0.7-2.3c0.4-0.2,0.8-0.4,1.1-0.7c0.2-0.5-0.4-2.2-0.4-2.2
					c-0.4-0.8-1.3-1.4-2.3-1.4c-0.3,1.3-1.5,3.9-1.6,6.8c-0.1,3.9,1.1,8.2,0.9,10.6l0.8,0.3C-257.2,11.4-256.7,7.9-256.3,6.7z"/>
			</g>
			<path id="Path_7166" class="st24" d="M-260.6,26.3L-248,37c0.1,0.1,0.2,0.1,0.3,0l0.1,0c1.1-0.2,4.1-1.1,6.3-1.7V32l-2.7-1
				l-5.4-7.5h-8.2v-6.2c-0.1,0-0.1,0.1-0.2,0.1l-1.3,3C-260.8,21.4-261.7,24.5-260.6,26.3z"/>
			<path id="Path_7167" class="st11" d="M-259.7,28c-1.4-1.6-2.9-5.5-1.3-8l0.8-3.2c1.6-1.4,4-0.7,5.4,0.9l11.3,11.4
				c0,1.2-0.5,2.4-1.4,3.2l0.2-0.1c-1.6,1.4-2.4,2.8-2.7,2.4L-259.7,28z"/>
			<path id="Path_7168" class="st11" d="M-247.1,34.8l-3.5-2.3c-1.4-0.9-2.4-1.7,0-2.4l16.3-4.8c0.8,0.7,1.6,1.4,2.5,2
				C-232,27.3-243.7,33.6-247.1,34.8z"/>
		</g>
		
			<linearGradient id="Path_7169_1_" gradientUnits="userSpaceOnUse" x1="-44.8257" y1="508.3697" x2="-43.5577" y2="508.3697" gradientTransform="matrix(-43.204 0 0 -1.9214 -1527.8615 1385.3195)">
			<stop  offset="0" style="stop-color:#FFFFFF"/>
			<stop  offset="0.354" style="stop-color:#E8F5FF"/>
			<stop  offset="0.702" style="stop-color:#DAEFFF"/>
			<stop  offset="1" style="stop-color:#D6EDFF"/>
		</linearGradient>
		<path id="Path_7169" class="st30" d="M603,407.6c-7.2,0-14.3,0.5-21.4,1.3c-2.2,0.4,25.5,0.5,31.2,0.6c5.3,0,10.2,0,11.6-0.6
			C627.1,407.7,611.9,407.6,603,407.6z"/>
		<g id="Group_1817" transform="translate(414.574 321.082)">
			
				<linearGradient id="Path_7182_1_" gradientUnits="userSpaceOnUse" x1="-463.609" y1="208.4862" x2="-462.609" y2="208.4862" gradientTransform="matrix(-62.8766 0 0 -2.9088 -29361.7227 694.4896)">
				<stop  offset="0" style="stop-color:#FFFFFF"/>
				<stop  offset="0.354" style="stop-color:#E8F5FF"/>
				<stop  offset="0.702" style="stop-color:#DAEFFF"/>
				<stop  offset="1" style="stop-color:#D6EDFF"/>
			</linearGradient>
			<path id="Path_7182" class="st31" d="M-127,86.6c10.4,0,20.9,0.7,31.2,2c3.2,0.5-37.1,0.8-45.3,0.9c-7.7,0.1-14.9,0-16.9-0.9
				C-161.9,86.8-139.8,86.6-127,86.6z"/>
			<path id="Path_7183" class="st13" d="M-146.6,67.3c0.1-0.6,0.6-3.6,0.9-4.2c0.8-1.7,4-19.7,3.1-21.8c-1.2-2.5,0.5-3-3.6-2.5
				c-4.6,0.6-4.2,22.3-4.2,23.8c0.1,5.3-0.2,14.8-0.3,22.3c0,0.8,1.7-0.5,1.7-0.5S-148.3,76.1-146.6,67.3z"/>
			
				<linearGradient id="Path_7184_1_" gradientUnits="userSpaceOnUse" x1="-454.5481" y1="235.6953" x2="-454.4311" y2="235.0443" gradientTransform="matrix(-12.1409 0 0 -11.5928 -5670.6499 2809.0515)">
				<stop  offset="0" style="stop-color:#E83F3E"/>
				<stop  offset="5.300000e-02" style="stop-color:#E94644"/>
				<stop  offset="0.705" style="stop-color:#F89E95"/>
				<stop  offset="1" style="stop-color:#FFC1B5"/>
			</linearGradient>
			<path id="Path_7184" class="st32" d="M-137.4,28.1l-0.1,6.4c0,0.8-1.6,2.6-0.7,4.5c0.4,0.8-10.7,1-10.2,0.1
				c0.9-1.4,0.9-2.2,0.1-4l-1.2-7.1L-137.4,28.1z"/>
			<path id="Path_7185" class="st13" d="M-124.2,16.3c-1.2,1.2-2.5,2.3-3.5,1.6l0,0c-1-0.7-0.9-2.3,0.3-3.5l8.6-7.3
				c0,0,0.3-0.4,1.3,0.4c0,0-1.4,2.1-1.7,2.3L-124.2,16.3z"/>
			<path id="Path_7186" class="st33" d="M-138.9,20.4c-1.7,0.1-3.3,0-3.2-1.7l0,0c0.2-1.8,1.5-3.1,3.3-3.3l11.4-0.3
				c0.7,0.7,1.1,1.6,1,2.6l0-0.2c-0.1,1.7-2.5,1.4-2.9,1.4L-138.9,20.4z"/>
			<path id="Path_7187" class="st13" d="M-138.3,66.8c0.1-0.6,0.3-3.7,0.5-4.3c0.6-1.8,1.4-19.9,0.3-21.9c-1.4-2.4-1.9-2.8-6-2
				c-4.5,1,0.8,22.4,0.9,23.9c0.6,5.3,0.2,14.8,0.8,22.3c0.1,0.8,1.7-0.7,1.7-0.7S-139.3,75.7-138.3,66.8z"/>
			<path id="Path_7188" class="st13" d="M-150.4,62.6c0-1.4-0.4-23.2,4.2-23.8c4.2-0.5,2.5,0,3.6,2.5c1,2.1-2.3,20.1-3.1,21.8
				c-0.3,0.6-0.8,3.6-0.9,4.2c-0.3,1.6-0.6,3.2-0.8,4.7c-0.8,0.6-1.6,1.3-2.3,2c-0.3,0.3-0.5,0.5-0.8,0.8
				C-150.5,70.1-150.4,65.7-150.4,62.6z"/>
			<path id="Path_7189" class="st13" d="M-142.6,62.5c-0.2-1.4-5.4-22.9-0.9-23.9c4.1-0.9,4.6-0.4,6,2c1.2,2,0.3,20.1-0.3,21.9
				c-0.2,0.9-0.3,1.8-0.4,2.7c-1.2,0.9-2.5,1.7-3.7,2.6l-0.3,0.2C-142.3,66-142.4,64.1-142.6,62.5z"/>
			<path id="Path_7190" class="st11" d="M-139.5,84.2c0.4,2.1,1.1,1.5,1.8,2.9c0.3,0.6,0,0.7-4.4,1c-1.8,0.2,0.1-2.3,0.1-3
				C-142.2,84.5-139.8,83-139.5,84.2z"/>
			<path id="Path_7191" class="st33" d="M-137.2,62c-3.4,0.1-14,3-14.1,0.6c-1-14.8,2.8-21.3,2.9-26.7c0-1.9-3-13.1-3-13.1
				c0-4.2,2.9-7.7,9-7.7s6.9,3.5,6.9,7.7c0,0-0.4,2.4-1.2,6c-0.5,2.6-1.2,5.8-0.5,9C-135.4,46-136.9,62-137.2,62z"/>
			<path id="Path_7192" class="st33" d="M-146.6,20.8l-4.2,9.1c-0.5,0.7-1,1.5-1.4,2.3c-1-0.7-2.2-1.2-3.5-1.5l4.5-12.5
				c0.8-1.6,2.8-2.3,4.4-1.5C-145.2,17.5-145.8,19.2-146.6,20.8z"/>
			<path id="Path_7193" class="st13" d="M-160.4,40.9c0-0.1-0.1-0.1-0.2-0.2c-0.5-0.6-1.3-0.6-1.9-0.1c-1.1,0.6-3.8,1.2-3.5,1.7
				c0.7,0.8,1.9,1.1,2.9,0.6C-161.3,42-160.1,41.4-160.4,40.9z"/>
			<path id="Path_7194" class="st13" d="M-118.3,8.2c-0.5-0.2-1-0.8-0.4-1.9s1-3.7,1.5-3.5c0.8,0.6,1.1,1.7,0.7,2.7
				C-117.3,7.2-117.8,8.5-118.3,8.2z"/>
			<path id="Path_7195" class="st13" d="M-153.3,33.9c1-1.4,2-2.8,1.1-3.9l0,0c-0.9-1.1-2.5-0.8-3.5,0.6l-6.3,10.1
				c0,0,0,0.2,0.9,1.3c0.6-0.5,1.2-1,1.8-1.6L-153.3,33.9z"/>
			<path id="Path_7196" class="st11" d="M-148.5,84.6c0.2,2.2,1,1.6,1.5,3c0.2,0.6-0.1,0.7-4.5,0.7c-1.8,0,0.3-2.3,0.3-3
				C-151.1,84.6-148.6,83.3-148.5,84.6z"/>
			<path id="Path_7197" class="st13" d="M-143.4,9.1c3.6,0,0,4.5,3.6,6.2c2.2,1.1-2.2,1.8-3.9,1.8s-5.5-0.3-3.1-1.1
				C-142.7,14.6-146.5,9.2-143.4,9.1z"/>
			<path id="Path_7198" class="st13" d="M-146.7,16c4-1.4,0.2-6.9,3.4-6.9c2.3,0,1.6,1.9,1.9,3.7c-0.3,0.2-0.6,0.4-0.9,0.7
				c-1.4,1.1-2.8,2.1-4.1,3.3c0,0-0.1,0.1-0.1,0.1C-147.5,16.8-148,16.5-146.7,16z"/>
			<path id="Path_7199" class="st11" d="M-139.3,3.3c0-0.9-0.8-1.7-1.7-1.6c0,0,0,0,0,0c-0.9,0-1.7,0.8-1.6,1.7
				c0,0.9,0.8,1.7,1.7,1.6S-139.3,4.2-139.3,3.3C-139.3,3.3-139.3,3.3-139.3,3.3z"/>
			<path id="Path_7200" class="st13" d="M-142.5,0.9c2.4,0,2.6,3.7,2.9,6.9c0,0.1,0,0.2,0,0.3c0.1,2.1-1.5,3.9-3.6,4
				c-0.9,0-4.8-2.8-4.8-4.6C-147.9,4.2-144.9,1-142.5,0.9z"/>
			<path id="Path_7201" class="st11" d="M-142.3,1.7c-0.4-1.2-1.7-2-2.9-1.6c-4.8,0.9-6.6,9.2-3.6,9.1s2.8-6.7,6.6-6.7
				C-142.2,2.2-142.2,1.9-142.3,1.7z"/>
			<path id="Path_7202" class="st11" d="M-142.7,0c-1.4,0-2.5,0.8-2.5,1.7s1.1,1.6,2.5,1.6s2.5-0.8,2.5-1.7
				C-140.2,0.7-141.3,0-142.7,0z"/>
		</g>
		<g id="Group_1848" transform="translate(350.602 342.34)">
			
				<linearGradient id="Path_7203_1_" gradientUnits="userSpaceOnUse" x1="-401.2363" y1="180.7367" x2="-400.2363" y2="180.7367" gradientTransform="matrix(-56.8607 0 0 -2.5133 -22782.2188 545.9802)">
				<stop  offset="0" style="stop-color:#FFFFFF"/>
				<stop  offset="0.354" style="stop-color:#E8F5FF"/>
				<stop  offset="0.702" style="stop-color:#DAEFFF"/>
				<stop  offset="1" style="stop-color:#D6EDFF"/>
			</linearGradient>
			<path id="Path_7203" class="st34" d="M9.7,90.5c-19.2,0-27.8,0.5-33.5,1.4c-4.8,0.7,17.7,1,29.9,1.1c11.5,0.1,20.5-0.2,25.1-0.6
				C35.3,92,28.8,90.5,9.7,90.5z"/>
			<path id="Path_7204" class="st13" d="M22.4,71.2c-0.1-0.6-0.6-3.6-0.9-4.2c-0.8-1.7-4-19.7-3.1-21.8c1.2-2.5-0.5-3,3.6-2.5
				c4.6,0.6,4.2,22.4,4.2,23.8c-0.1,5.3,0.2,16.3,0.3,23.8c0,0.8-1.7-0.5-1.7-0.5C24.3,83.6,23.5,77.4,22.4,71.2z"/>
			<path id="Path_7205" class="st13" d="M16.8,70.7c-0.1-0.6-0.3-3.7-0.5-4.3c-0.6-1.8-1.4-19.9-0.3-21.9c1.4-2.4,1.9-2.8,6-2
				c4.5,1-0.8,22.4-0.9,23.9c-0.6,5.3-0.2,15.5-0.8,23c-0.1,0.8-1.7,0.3-1.7,0.3S17.8,79.7,16.8,70.7z"/>
			<path id="Path_7206" class="st13" d="M26.2,66.5c0-1.4,0.4-23.2-4.2-23.8c-4.2-0.5-2.5,0-3.6,2.5c-1,2.1,2.3,20.1,3.1,21.8
				c0.3,0.6,0.8,3.6,0.9,4.2c0.3,1.6,0.6,3.2,0.8,4.7c0.8,0.6,1.6,1.3,2.3,2c0.3,0.3,0.5,0.5,0.8,0.8C26.2,74.1,26.1,69.6,26.2,66.5
				z"/>
			<path id="Path_7207" class="st13" d="M21.1,66.5c0.2-1.4,5.4-22.9,0.9-23.9c-4.1-0.9-4.6-0.4-6,2c-1.2,2-0.3,20.1,0.3,21.9
				c0.2,0.9,0.3,1.8,0.4,2.7c1.2,0.9,2.5,1.7,3.7,2.6c0.1,0.1,0.2,0.2,0.4,0.2C20.8,69.9,20.9,68,21.1,66.5z"/>
			<path id="Path_7208" class="st13" d="M15.4,39.6c0.4-1.6,0.8-3.1,2.1-3l0,0c1.3,0.1,2.1,1.4,1.7,2.9l-3.3,10c0,0-0.1,0.4-1.4,0.4
				c0,0,0-2.3,0.1-2.7L15.4,39.6z"/>
			<path id="Path_7209" class="st13" d="M14.8,46.5l2.1,0.2c0,0-0.6,5.3-1,5.9c-1.3,1.6-4.9-0.2-2.5-2.3
				C14.1,49.7,14.8,46.5,14.8,46.5z"/>
			<path id="Path_7210" class="st19" d="M15.7,66c3.4,0.1,12.2,3,12.4,0.6c1-14.8-1.1-21.4-1.1-26.7c0-2.5-0.2-12.6-0.2-12.6
				c0-4.2,0.3-8.2-5.7-8.2c-2.3,0-3.3,1.5-4.3,2.3c-1.7,1.2-2.7,3.3-2.5,5.4c0,0,0.4,2.4,1.2,6c0.5,2.6,1.2,5.8,0.5,9
				C13.9,49.9,15.4,66,15.7,66z"/>
			<path id="Path_7211" class="st13" d="M13,33.3c1.7-0.6,3.3-1.2,3.1-2.6l0,0c-0.1-1.4-1.6-2.1-3.2-1.6L2,33.7c0,0-0.1,0.1,0,1.6
				c0,0-1.1,0.5-0.7,0.4L13,33.3z"/>
			<path id="Path_7212" class="st19" d="M22.2,21l-8,6.2c-0.6,0.7-1.3,1.4-2,2c1,1.1,1.7,2.4,2.2,3.8l11.3-7.1
				c1.5-1.4,1.7-3.6,0.5-5.3C25.1,18.8,23.6,19.8,22.2,21z"/>
			<path id="Path_7213" class="st11" d="M24.3,89c-0.3,2.2-3.8,1.1-4.6,2.5c-0.3,0.6-0.9,0.4,5.9,0.4c2.7,0,1.2-2,1.2-2.7
				C26.9,88.5,24.3,89,24.3,89z"/>
			<path id="Path_7214" class="st11" d="M18,89c-0.3,2.2-3.3,1.1-4.1,2.5c-0.3,0.6-0.9,0.4,5.9,0.4c2.7,0,1.2-2,1.2-2.7
				C21.1,88.5,18.1,89,18,89z"/>
			<path id="Path_7215" class="st13" d="M21.9,13c-3.6,0-0.9,5.1-3.6,7.2c-1.9,1.5,2.2,0.8,3.9,0.8s1.7-0.8,1.4-1.9
				C22.2,15.3,25,13.1,21.9,13z"/>
			<path id="Path_7216" class="st13" d="M23.5,19.2c-1.2-4.4,1.6-6.1-1.6-6.1c-2.3,0-1.6,1.9-1.9,3.7c0.3,0.2,0.3-1.1,0.6-0.8
				c1.4,1.1,3,4.4,1.2,5.1c-0.1,0,0.6,0,0.6,0C23.4,20.9,23.9,20.7,23.5,19.2z"/>
			<g id="Group_1818" transform="translate(7.005 3.435)">
				<path id="Path_7217" class="st35" d="M14.8,0c-2.7-0.4-5.1,2.1-5.4,5.4c-0.2,2.2,0,4.4,0.4,6.5c0.2,0.9,3,2.7,4.1,2.7
					c0.1,0,3.2-1.1,3.7-2.4c0.6-1.8,0.8-3.8,0.7-5.7C18.3,2.9,17.5,0.4,14.8,0z"/>
			</g>
			<g id="Group_1819" transform="translate(8.218 3.435)">
				<path id="Path_7218" class="st13" d="M8.6,12c0.2,0.9,3,2.7,4.1,2.7c-0.8-0.2-1.6-0.6-2.2-1.1c-0.6-0.5-1.1-1.1-1.4-1.8
					c-0.7-2.4-0.1-5,1.5-6.9c0,0,0.5,0,0.6,0c-0.1-0.3,0-0.6,0.3-0.8c0.9-0.9,2-1.6,3.2-2.2c0.4-0.2,0.9-0.3,1.4-0.4
					c-0.6-0.8-1.4-1.2-2.3-1.3c-2.7-0.4-5.1,2.1-5.4,5.4C8,7.6,8.2,9.8,8.6,12z"/>
			</g>
			<path id="Path_7219" class="st36" d="M26.6,4.5C26.6,3,25.4,1.9,24,2c-1.4,0-2.5,1.2-2.5,2.6c0,1.4,1.2,2.5,2.6,2.5
				C25.5,7.1,26.7,5.9,26.6,4.5C26.6,4.5,26.6,4.5,26.6,4.5z"/>
			<g id="Group_1822" transform="translate(4.922 2.661)">
				<g id="Group_1821">
					<g id="Group_1820">
						<path id="Path_7220" class="st36" d="M13.6,5.6c1,0.2,2,0.3,3,0.3c1.8,0.2,4.7,3.9,3,7.1c1.1-0.3,2.3-0.5,3-3.5
							c-0.2-3.4-0.7-6.7-1.7-7.6c-4.1-3.6-7.6-1.2-8.6-0.4C11.3,1.8,9.4,8,10.9,16.4c0.4,0.3,0.6-4.1,1-3.8c0-0.4-0.1-2.5-0.1-2.9
							C12,8.2,12.6,6.7,13.6,5.6z"/>
					</g>
				</g>
			</g>
			
				<linearGradient id="Path_7221_1_" gradientUnits="userSpaceOnUse" x1="-401.8169" y1="191.6011" x2="-400.8169" y2="191.6011" gradientTransform="matrix(-73.4741 0 0 -3.2537 -29537.1074 715.2542)">
				<stop  offset="0" style="stop-color:#FFFFFF"/>
				<stop  offset="0.354" style="stop-color:#E8F5FF"/>
				<stop  offset="0.702" style="stop-color:#DAEFFF"/>
				<stop  offset="1" style="stop-color:#D6EDFF"/>
			</linearGradient>
			<path id="Path_7221" class="st37" d="M-45.4,90.9c-12.4-1.6-42.1,0.1-42.1,1.3c0,1.4,16.3,0.5,33.4,1.2c2.5,0.1,6.2-0.4,8.4-0.3
				c31.9,0.4,32.9-1.1,31.2-1.2C-18.6,91.8-40.3,91.6-45.4,90.9z"/>
			<g id="Group_1824" transform="translate(56.251 43.537)">
				<g id="Group_1823">
					<path id="Path_7222" class="st11" d="M-84,2.9c-0.5-1.7-4.1-2.1-5.4-1.8L-91.9,0c-1.3,0.4-1.6,3.4-1.1,5l6.9,16.7
						c0.5,1.7,1.4,5,2.7,4.6l0.8-2.3c1.3-0.4,2.5,0.9,2.4-0.9L-84,2.9z"/>
				</g>
			</g>
			<path id="Path_7223" class="st13" d="M-24,87.8l-1.9,0.3l0.5,3l1.9-0.3L-24,87.8z"/>
			<path id="Path_7224" class="st13" d="M-24,87.8l0.5,3l-0.8,0.1c0-0.1,0.1-0.3,0.1-0.4c0.1-0.3,0.1-0.6,0-0.9
				c-0.2-0.5-0.7-0.5-1.2-0.5c-0.1,0-0.2,0-0.4,0.1l-0.2-1L-24,87.8z"/>
			<path id="Path_7225" class="st11" d="M-16.8,91.9c0,0.2,0,0.4-0.4,0.4c-0.6,0.1-3.7,0.3-5.7,0.4l-0.3-2.5c0.3,0,0.7,0.2,1.1,0
				c0.1-0.1,0-0.1,0.2,0.1c0.3,0.2,0.7,0.3,1.1,0.3c1.5,0.2,3.9,0.5,3.9,0.8C-16.8,91.7-16.8,91.8-16.8,91.9
				C-16.8,91.9-16.8,91.9-16.8,91.9z"/>
			<path id="Path_7226" class="st15" d="M-16.8,91.9c0,0.2,0,0.4-0.4,0.4c-0.6,0.1-3.7,0.3-5.7,0.4l-0.3-2.5c0.4,0,0.7,0.2,1.1,0
				c0.1-0.1,0-0.1,0.2,0.1c0.3,0.2,0.7,0.3,1.1,0.3c1.5,0.2,3.9,0.5,3.9,0.8C-16.8,91.7-16.8,91.8-16.8,91.9
				C-16.8,91.9-16.8,91.9-16.8,91.9z"/>
			<path id="Path_7227" class="st11" d="M-16.9,91.8C-16.8,91.9-16.8,91.9-16.9,91.8c0,0.3,0.1,0.4-0.3,0.5c-0.6,0-3.7,0.3-5.7,0.4
				l-0.1-0.5L-16.9,91.8z"/>
			<path id="Path_7228" class="st17" d="M-16.8,91.9C-16.8,91.9-16.8,91.9-16.8,91.9c0,0.3,0.1,0.4-0.3,0.4
				c-0.6,0.1-3.7,0.3-5.7,0.4l0-0.4L-16.8,91.9z"/>
			<path id="Path_7229" class="st11" d="M-18,92c0-0.2-0.2-0.4-0.4-0.3l-7.4,0.5c0,0,0,0,0,0c-0.2,0-0.4,0.2-0.4,0.4l0,0
				c0,0.2,0.3,0.3,0.4,0.3c0.3,0,6.4-0.5,7.4-0.5C-17.9,92.4-17.9,92.2-18,92L-18,92z"/>
			<g id="Group_1826" transform="translate(50.35 90.232)">
				<g id="Group_1825">
					<path id="Path_7230" class="st11" d="M-76.3,0.1c0.4-0.2,0.3,1.2,2.8-0.1c0.1-0.1,0-0.1,0.2,0.1c0.3,0.2,0.7,0.3,1.1,0.3
						c1.5,0.2,3.9,0.5,3.9,0.8c0,0.4,0.1,0.4-0.1,0.4c-5.5,0.4-8.1,0.6-8.1,0.5C-76.5,2-76.8,0.3-76.3,0.1z"/>
				</g>
			</g>
			<path id="Path_7231" class="st11" d="M-22.5,90.5C-22.5,90.5-22.5,90.5-22.5,90.5L-22.5,90.5c-0.1-0.1-0.1-0.1-0.1-0.1l-0.2,0.6
				c0,0,0,0.1,0.1,0.1l0,0c0,0,0.1,0,0.1,0L-22.5,90.5z"/>
			<path id="Path_7232" class="st11" d="M-22,90.6C-22,90.6-22,90.6-22,90.6L-22,90.6c-0.1-0.1-0.2-0.1-0.2,0l-0.1,0.5
				c0,0,0,0,0.1,0.1l0,0c0,0,0.1,0,0.1,0L-22,90.6z"/>
			<path id="Path_7233" class="st11" d="M-21.6,90.7C-21.6,90.7-21.6,90.6-21.6,90.7L-21.6,90.7c-0.1,0-0.2,0-0.2,0l-0.1,0.3
				c0,0,0,0,0.1,0l0,0c0,0,0.1,0,0.1,0L-21.6,90.7z"/>
			<g id="Group_1828" transform="translate(55.608 64.353)">
				<g id="Group_1827">
					<path id="Path_7234" class="st11" d="M-79.4,3l0.6,21.2l-2.6,0.4l-0.3-1.7l-2.9-20.1c-0.1-1.9,0.6-2.8,2-2.8l0.6,0
						C-80.5,0.1-79.3,1.5-79.4,3z"/>
				</g>
			</g>
			<g id="Group_1830" transform="translate(65.838 42.466)">
				<g id="Group_1829">
					<path id="Path_7235" class="st11" d="M-99.3,4.5c-0.1-1.7-3.7-3-5.1-2.9l-2.3-1.6c-1.4,0.1-1.5,3.2-1.5,4.9l1.7,17.8
						c0.1,1.7,1,3.1,2.4,3.1l0.6,0c1.4-0.1,2.6,1.6,2.5-0.1L-99.3,4.5z"/>
				</g>
			</g>
			<path id="Path_7236" class="st13" d="M-37.1,87.5l-2,0.1l0.2,3l2-0.1L-37.1,87.5z"/>
			<path id="Path_7237" class="st13" d="M-37.1,87.5l0.2,3l-0.8,0c0-0.1,0.1-0.3,0.1-0.4c0.1-0.3,0.2-0.6,0.1-0.9
				c-0.2-0.5-0.6-0.6-1.2-0.6c-0.1,0-0.2,0-0.4,0l-0.1-1.1L-37.1,87.5z"/>
			<g id="Group_1833" transform="translate(68.424 89.925)">
				<path id="Path_7238" class="st11" d="M-112,2.4c0,0.2,0,0.4,0.4,0.4c0.5,0,3.1,0,4.8-0.1l-0.1-2.5c-0.3,0-0.5,0.2-0.9,0.1
					c-0.1-0.1,0-0.1-0.2,0.1c-0.3,0.2-0.5,0.4-0.9,0.4c-1.2,0.3-3.2,0.8-3.1,1.2C-112,2-112,2.2-112,2.4C-112,2.3-112,2.3-112,2.4z"
					/>
				<path id="Path_7239" class="st15" d="M-112,2.4c0,0.2,0,0.4,0.4,0.4c0.5,0,3.1,0,4.8-0.1l-0.1-2.5c-0.3,0-0.5,0.2-0.9,0.1
					c-0.1-0.1,0-0.1-0.2,0.1c-0.3,0.2-0.5,0.4-0.9,0.4c-1.2,0.3-3.2,0.8-3.1,1.2C-112,2-112,2.2-112,2.4C-112,2.3-112,2.3-112,2.4z"
					/>
				<path id="Path_7240" class="st11" d="M-112,2.3C-112,2.3-112,2.3-112,2.3c0,0.3,0,0.4,0.4,0.4c0.5,0,3.1,0,4.8-0.1l0-0.5
					L-112,2.3z"/>
				<path id="Path_7241" class="st17" d="M-112,2.3C-112,2.3-112,2.3-112,2.3c0,0.3,0,0.4,0.4,0.4c0.5,0,3.1,0,4.8-0.1l0-0.4
					L-112,2.3z"/>
				<path id="Path_7242" class="st11" d="M-110.4,2.3c0-0.2,0.1-0.4,0.3-0.4l5.3-0.1c0.2,0,0.3,0.2,0.3,0.4l0,0
					c0,0.2-0.1,0.3-0.3,0.4c-0.2,0.1-4.7,0.1-5.3,0.1C-110.4,2.7-110.4,2.5-110.4,2.3L-110.4,2.3z"/>
				<g id="Group_1832" transform="translate(0.012)">
					<g id="Group_1831">
						<path id="Path_7243" class="st11" d="M-104.9,0c-0.3-0.1-0.1,1.2-2,0.2c-0.1-0.1,0-0.1-0.1,0.1c-0.2,0.2-0.5,0.4-0.7,0.4
							c-1,0.3-2.7,0.8-2.7,1.2c0,0.4,0,0.4,0.1,0.4c4,0,5.9,0,5.8-0.2C-104.5,1.9-104.6,0.2-104.9,0z"/>
					</g>
				</g>
				<path id="Path_7244" class="st11" d="M-107.4,0.5C-107.4,0.5-107.4,0.4-107.4,0.5L-107.4,0.5C-107.3,0.4-107.3,0.4-107.4,0.5
					c0.1-0.1,0.1-0.1,0.1-0.1L-107,1c0,0,0,0.1,0,0.1l0,0c0,0,0,0,0,0c0,0,0,0-0.1,0L-107.4,0.5z"/>
				<path id="Path_7245" class="st11" d="M-107.8,0.7C-107.9,0.7-107.8,0.6-107.8,0.7L-107.8,0.7c0.1-0.1,0.1-0.1,0.1,0l0.2,0.5
					c0,0,0,0,0,0.1l0,0c0,0-0.1,0-0.1,0L-107.8,0.7z"/>
				<path id="Path_7246" class="st11" d="M-108.3,0.9C-108.3,0.9-108.3,0.9-108.3,0.9L-108.3,0.9c0.1-0.1,0.1-0.1,0.1,0l0.1,0.3
					c0,0,0,0,0,0l0,0c0,0-0.1,0-0.1,0L-108.3,0.9z"/>
				<path id="Path_7247" class="st11" d="M-108.1,0.4C-108.1,0.4-108.2,0.4-108.1,0.4L-108.1,0.4C-108.2,0.3-108.2,0.3-108.1,0.4
					c-0.1-0.1,0-0.1,0-0.1l0.8,0.1c0,0,0.1,0,0.1,0.1l0,0c0,0,0,0,0,0c0,0,0,0-0.1,0L-108.1,0.4z"/>
				<path id="Path_7248" class="st11" d="M-108.5,0.6C-108.5,0.6-108.5,0.6-108.5,0.6L-108.5,0.6C-108.5,0.5-108.5,0.5-108.5,0.6
					c0-0.1,0-0.1,0-0.1l0.7,0.1c0,0,0,0,0,0.1l0,0c0,0,0,0,0,0c0,0,0,0,0,0L-108.5,0.6z"/>
				<path id="Path_7249" class="st11" d="M-108.9,0.8C-108.9,0.7-108.9,0.7-108.9,0.8L-108.9,0.8C-108.9,0.7-108.9,0.7-108.9,0.8
					c0-0.1,0-0.1,0-0.1l0.7,0.2c0,0,0,0,0,0.1l0,0c0,0,0,0,0,0c0,0,0,0-0.1,0L-108.9,0.8z"/>
			</g>
			<g id="Group_1835" transform="translate(67.334 63.876)">
				<g id="Group_1834">
					<path id="Path_7250" class="st11" d="M-104.9,0.1c1.6,0.2,2.7,1.6,2.6,3.2l-1.3,21.1l-2.8,0.2l-0.2-1.7l-1.3-20.3
						c0.1-1.9,0.9-2.8,2.4-2.6L-104.9,0.1C-104.9,0.1-104.9,0.1-104.9,0.1z"/>
				</g>
			</g>
			<path id="Path_7251" class="st18" d="M-34,55.2l-0.9,12c0,0.3,0,0.6-0.1,0.9l-1.2,20.2l-0.7,0.1c0.4-3.3,2.4-28.9,2.5-31
				c0-1.3,0.9-8.4,1-8.4L-34,55.2z"/>
			<path id="Path_7252" class="st18" d="M-32.4,57.5c1.8,4.7,3.4,9.5,3.4,10.3c-0.3-0.9-0.6-1.8-0.8-2.5l-4.2-10.2l0.6-6.2
				C-32.8,49.4-33.9,53.5-32.4,57.5z"/>
			<path id="Path_7253" class="st18" d="M-23.2,88.6l-1.2,0.1c0-5.4-0.1-16-1.2-22.1c-0.3-1.6-3.7-17.9-5.8-18.4
				c-3-0.8-3.1-1.2-3.1-1.2c-2.9,1.4-7.7,1.2-7.7,1.2l-0.1-0.6c0.6-1.1,2.1-3.3,3.1-3.4l0.6,0c0.7,0,1.3,0.1,2,0.4
				c0.1-0.5,0.5-0.9,1-1.1l2.5,1.1c1.3-0.4,4.9,0.1,5.4,1.8l3.9,20.3l0,0c0.1,0.2,0.1,0.5,0.1,0.7L-23.2,88.6z"/>
			<path id="Path_7254" class="st27" d="M-38.2,16.5v8.4l3.7,6.9l4.2-6.9l-0.5-8.1L-38.2,16.5z"/>
			<path id="Path_7255" class="st13" d="M-44.8,46.2l-2.4,0.9c0,0,0.8,4.7,1.3,5.3c1.3,1.6,4.9-0.3,2.5-2.4
				C-44.2,49.4-44.8,46.2-44.8,46.2z"/>
			<path id="Path_7256" class="st13" d="M3.6,33.1l0,1.9c-1.7,0.6-3.5,1-5.2,1.3c-1.9-0.2-1.4-3.2,1.4-2.6C0.6,34,3.6,33.1,3.6,33.1
				z"/>
			<path id="Path_7257" class="st13" d="M-6.4,32.9l-0.2,2.6c0,0,4.6,1.2,5.3,1c2-0.5,1.8-4.5-1.1-3.2C-3.4,33.7-6.4,32.9-6.4,32.9z
				"/>
			<g id="Group_1837" transform="translate(37.531 30.391)">
				<g id="Group_1836">
					<path id="Path_7258" class="st11" d="M-42.8,2.9c0.2,1.2,0,3.3-0.6,3.4l-11-0.8c-1.5,0.2-5.8-0.2-5.4-2.5
						c0.8-0.8,1.4-1.8,1.5-2.9l14.8,2.3C-43.4,2.3-42.9,2.1-42.8,2.9z"/>
				</g>
			</g>
			<g id="Group_1839" transform="translate(49.423 16.995)">
				<g id="Group_1838">
					<path id="Path_7259" class="st11" d="M-66.5,15l-4.6,2.7c-0.4-0.5-0.5-0.7-0.8-1.1l-3.6-4.9c-0.8-1.4-3.7-4.3-6.2-4l5.4-7.7
						c1.7,0.6,3.2,5.2,4.1,6.7l3.2,4.8C-68.2,12.7-67.3,13.9-66.5,15z"/>
				</g>
			</g>
			<path id="Path_7260" class="st18" d="M-26.6,17.1c0,0,1,0.3,2.6,3.7c0.4,1,1.1,2.4,1.3,2.9l4.7,7.2l5.5,0.9c0,0-4.8,0.1-5.9-0.5
				c-1-0.5-2.9-4.1-4.8-7.1C-23.7,23.2-27.6,17-26.6,17.1z"/>
			<path id="Path_7261" class="st11" d="M-44.5,20.2l1.7,22.8c0.1,0.8-0.2,5,0.6,4.9c6.3-0.7,7.1-2.6,7.1-2.6
				c1.3,1.3,8.2,2.4,8.4,1.9c0,0,0.2-3.3,0.3-4.5l1.5-22.3c0.1-0.9-0.2-1.9-0.8-2.6c-0.5-0.7-0.7-1.3-4.9-1.6l0,0
				c-0.4,2,0.5,4.8-1.1,6.3c-0.8,0.7-0.2,3.3-1.1,3.9c-0.4,0.3-1.1,5.3-1.7,5.2c0,0-4.3-10.4-4.3-11.3c0-1.4,0.3-2.8,0.9-4l0,0
				C-40.2,16.3-43.7,17.9-44.5,20.2z"/>
			<path id="Path_7262" class="st18" d="M-24.9,20.5l-1.5,22.3c-0.1,1.2-0.3,4.5-0.3,4.5c-0.2,0.4-6.3-0.5-8.1-1.7
				c0.5-0.2,5,1.1,6.3,0.1c0.7-0.6,0.8-1.7,0.8-2.6c0-1,0.8-10,1.2-14.4c0.2-2.3,0.1-7.5,0.2-9.8c0.1-1.7-1.4-1.6-2.9-1.7
				c-0.4-0.1-1.2,0.2-1.5-0.1c0-0.2,0.1-0.5,0.1-0.7c4,0.3,4,0.7,4.6,1.3C-25.2,18.3-24.8,19.4-24.9,20.5z"/>
			<g id="Group_1841" transform="translate(73.995 18.133)">
				<g id="Group_1840">
					<path id="Path_7263" class="st11" d="M-115.6,3.3c-0.2,0.8-0.3,1.5-0.5,2.2l-2.8,12.6c-0.1,0.5-0.5,0.4-0.1,2l-4.4-2.5
						c0.2-1.5,0.3-3.9,0.7-5.6l1-5.6c0.7-2.6,2.3-4.9,4.6-6.3L-115.6,3.3z"/>
				</g>
			</g>
			<g id="Group_1843" transform="translate(76.481 33.154)">
				<g id="Group_1842">
					<path id="Path_7264" class="st11" d="M-121.1,15.1c-1.2,0.6-2.3,1.1-2.5,0.6l-1.7-10c-0.5-1.3-1.1-5.4,1.5-5.7
						c0,0,0.6,2.9,2.5,2.4l0.7,12C-120.7,14.4-120.3,14.7-121.1,15.1z"/>
				</g>
			</g>
			<path id="Path_7265" class="st18" d="M-47.3,23.4c-0.1,0.3-0.3,0.7-0.3,1.1l-1,5.6c0,0-0.5,3.8-0.5,5.1c0.1,0,1.8-7.9,2.1-10.4
				C-47,23.6-46.3,23-47.3,23.4z"/>
			<g id="Group_1844" transform="translate(60.865 15.813)">
				<path id="Path_7266" class="st13" d="M-96,29.6C-96,29.6-96,29.6-96,29.6C-96,29.5-96,29.6-96,29.6z"/>
				<path id="Path_7267" class="st11" d="M-89.4,2.9c-0.3,0.2-0.7,0.4-1.1,0.6c0,0,0.9,1.1,0.8,1.3c-0.4,1.1-3.7,4.8-5.3,11.2
					c0,0.1-0.9,12.4-0.9,13.5c0-0.9,0.2-10,0.3-13.6c-1.4-4-3.1-7.9-5.2-11.6c-0.1-0.3,0.8-1.3,0.8-1.3c-0.4-0.1-0.8-0.3-1.1-0.6
					c-0.3-0.4,0.7-1.6,0.7-1.6c0.4-0.4,0.9-0.7,1.5-0.9c0.8,3.1,3.7,15.4,3.7,15.4c0.1,0.1,3.1-12.2,3.9-15.4c0.7,0,1.4,0.5,1.7,1.1
					C-89.8,1.1-89.2,2.5-89.4,2.9z"/>
				<path id="Path_7268" class="st18" d="M-89.4,2.9c-0.3,0.2-0.7,0.4-1.1,0.6c0,0,0.9,1.1,0.8,1.3c-0.4,1.1-3.7,4.8-5.3,11.2
					c0,0.1-0.9,12.4-0.9,13.5c0-0.9,0.2-10,0.3-13.6c-1.4-4-3.1-7.9-5.2-11.6c-0.1-0.3,0.8-1.3,0.8-1.3c-0.4-0.1-0.8-0.3-1.1-0.6
					c-0.3-0.4,0.7-1.6,0.7-1.6c0.4-0.4,0.9-0.7,1.5-0.9c0.8,3.1,3.7,15.4,3.7,15.4c0.1,0.1,3.1-12.2,3.9-15.4c0.7,0,1.4,0.5,1.7,1.1
					C-89.8,1.1-89.2,2.5-89.4,2.9z"/>
			</g>
			<g id="Group_1845" transform="translate(63.689 7.01)">
				<path id="Path_7269" class="st13" d="M-101.3,2.1c-0.1-1,0.7-2,2.4-2.1l0,0c1.7-0.2,2.9,0.6,3,1.6l0.9,7.8c0.1,1-1.2,2-2.9,2.2
					l-0.1-0.3c-1.7,0.2-3-0.3-3.1-1.3L-101.3,2.1z"/>
			</g>
			<path id="Path_7270" class="st13" d="M-31.5,14.5c0,0.3-1.4,1.2-2,1.2c-1.5-0.5-2.9-1.3-4.2-2.3l0-1.3l5.9,0.6L-31.5,14.5z"/>
			<path id="Path_7271" class="st29" d="M-38.1,15.1l3.8,2.9l-1,2l-2.8-3.4L-38.1,15.1z"/>
			<path id="Path_7272" class="st27" d="M-38.1,14.8l3.9,3.2l-1,1.7l-2.8-3.1L-38.1,14.8z"/>
			<path id="Path_7273" class="st29" d="M-30.8,15.1l-3.5,2.8l0.6,2.4l2.8-3.7L-30.8,15.1z"/>
			<path id="Path_7274" class="st27" d="M-30.8,14.8l-3.5,3.1l0.6,1.8l2.8-3.1L-30.8,14.8z"/>
			<path id="Path_7275" class="st13" d="M-30.4,8.4l1.4,0.2c0-0.9,0.9-0.9,0.8-2c-0.1-0.6-0.5-1-1.1-0.7L-30,6.2L-30.4,8.4z"/>
			<path id="Path_7276" class="st13" d="M-37,10.1l-1.3,0.5c-0.2-0.9-1.1-0.8-1.2-1.9c-0.1-0.6,0.3-1,0.9-0.9l0.7,0.2L-37,10.1z"/>
			<path id="Path_7277" class="st13" d="M-29.3,3.8c-0.8-2.8-3.3-1.9-4.8-1.9c-5.6,0.2-4.7,7.8-3.2,10.6c0.5,1,4,2.8,5.2,2.5
				c1-0.2,2.3-2.3,2.8-3.8C-28.8,8.9-28.8,6.3-29.3,3.8z"/>
			<path id="Path_7278" class="st13" d="M-32.1,15.2c0,0,1.7-0.9,2.7-4.3c0.4-1.5,0.4-3.1,0-4.6c-0.2-0.9-2.2-0.3-2.7-0.4
				c-0.6-0.2-1.1-0.4-1.7-0.7c0-0.1-0.2,0.2-0.3,0.1c-0.7-1-1.5-1.8-2.4-2.5c0,0-0.1-0.1-0.2-0.1C-35.9,2.2-35,2-34.1,2
				c1.5-0.1,4-0.9,4.8,1.9c0.5,2.5,0.5,5,0,7.5C-29.8,12.8-31.1,14.9-32.1,15.2z"/>
			<g id="Group_1847" transform="translate(62.378 0.281)">
				<g id="Group_1846">
					<path id="Path_7279" class="st11" d="M-101.4,4.7c0.4,0.3,0.9,0.5,1.3,0.7c0.1-0.8,0.7-1.5,1.5-1.5c0.3,0,0.7,0,1,0l5.2-1.3
						c-0.7-1.2-1.9-1.6-2.4-1.2c-1.2,0.8-0.5-1.8-0.9-1.3C-97.1,1.7-101.2,0.1-101.4,4.7z"/>
				</g>
			</g>
			<path id="Path_7280" class="st11" d="M-32.2,0.4c-0.8,0.8-1.7,0.3-1.6,0.8c0.5,0.8,1.5,1.2,2.4,1c0.8-0.4,1.3-1.2,1.1-1.7
				C-30.4-0.1-31.5-0.2-32.2,0.4z"/>
			<path id="Path_7281" class="st11" d="M-28.9,4.3c0.4,1.5,0.3,3.4,0,3.5c0,0-0.2-2.6-1.5-2.5C-31.3,5.4-29.2,3.4-28.9,4.3z"/>
			<path id="Path_7282" class="st18" d="M-28.9,4.3c0.4,1.5,0.3,3.4,0,3.5c0,0-0.2-2.6-1.5-2.5C-31.3,5.4-29.2,3.4-28.9,4.3z"/>
			<path id="Path_7283" class="st11" d="M-34.5,1.1c-2.8,0.7-4.8,2.7-4.5,4.6c0.1,0.4,0.2,4,0.7,4c-0.2-0.9,0.1-1.8,0.7-2.4
				c0.9-0.8,0.4-1.5,0.7-1.6c3.4-0.8,4,0.8,6.4-0.1c1-0.3,1.7-1.3,1.5-2.3C-29.3,1.4-31.7,0.4-34.5,1.1z"/>
			<path id="Path_7284" class="st18" d="M-38.2,9.7c-0.5,0-0.7-3.6-0.7-4c0-0.2,0-0.4,0-0.6L-39,5c0.2-4.6,4.3-3,5.7-4.7
				c0.2-0.2,0.2,0.1,0.2,0.6c0.1,0,0.2,0,0.3-0.1c-0.5,0.5-1.1,0.8-1.7,1c-0.9,0.1-1.8,0.3-2.7,0.5c-1.1,0.6-1.2,1.4-1.3,2.6
				c0,1.2,0.1,2.5,0.3,3.7C-38.3,9-38.2,9.4-38.2,9.7z"/>
			<path id="Path_7285" class="st18" d="M-35.3,37.8C-35.2,37.8-35.2,37.8-35.3,37.8c0.2,0,0.4,0.2,0.3,0.4c0,0.2-0.2,0.3-0.4,0.3
				c-0.2,0-0.3-0.2-0.3-0.4C-35.6,37.9-35.4,37.8-35.3,37.8z"/>
			<path id="Path_7286" class="st18" d="M-33.5,33.2C-33.5,33.2-33.4,33.2-33.5,33.2c0.2,0,0.4,0.2,0.3,0.4c0,0.2-0.2,0.3-0.4,0.3
				c-0.2,0-0.3-0.2-0.3-0.4C-33.8,33.3-33.6,33.2-33.5,33.2z"/>
			<path id="Path_7287" class="st18" d="M-34.1,41.8C-34.1,41.8-34.1,41.8-34.1,41.8c0.2,0,0.4,0.2,0.3,0.4c0,0.2-0.2,0.3-0.4,0.3
				c-0.2,0-0.3-0.2-0.3-0.4C-34.5,42-34.3,41.8-34.1,41.8z"/>
		</g>
		
			<linearGradient id="Path_7289_1_" gradientUnits="userSpaceOnUse" x1="-41.7946" y1="508.4014" x2="-40.5266" y2="508.4014" gradientTransform="matrix(-43.2035 0 0 -1.9224 -2016.5212 1390.8734)">
			<stop  offset="0" style="stop-color:#FFFFFF"/>
			<stop  offset="0.354" style="stop-color:#E8F5FF"/>
			<stop  offset="0.702" style="stop-color:#DAEFFF"/>
			<stop  offset="1" style="stop-color:#D6EDFF"/>
		</linearGradient>
		<path id="Path_7289" class="st38" d="M114.4,412.5c-7.2,0-14.3,0.5-21.4,1.3c-2.2,0.4,25.5,0.5,31.2,0.6c5.3,0,10.2,0,11.6-0.6
			C138.4,412.7,123.2,412.5,114.4,412.5z"/>
		<g id="Group_1856" transform="translate(129.309 188.125)">
			<path id="Path_7302" class="st39" d="M429.8,6.7l-13.4-4.1C396,61.9,311.5,199.4,335.8,227.9l14.1,7.1
				c40.4,13.9,93.8-25.6,115.5-88.7C487.2,83.2,470.2,20.7,429.8,6.7z"/>
			<path id="Path_7304" class="st26" d="M417.5,3C375-11.5,322.6,28.1,300.6,91.3s-5.4,126.1,37.1,140.6s94.9-25.1,116.9-88.3
				C476.6,80.3,460,17.4,417.5,3z"/>
			<path id="Path_7305" class="st5" d="M407.9,17.6c-35-12-78.6,22.5-97.4,77.1s-5.7,108.7,29.3,120.7s78.6-22.5,97.4-77.1
				C456.1,83.7,442.9,29.6,407.9,17.6z"/>
			<path id="Path_7306" class="st26" d="M398.2,36c-28.1-9.7-63.2,18.1-78.3,62s-4.6,87.4,23.6,97.1s63.2-18.1,78.3-62
				C436.9,89.2,426.3,45.7,398.2,36z"/>
			<path id="Path_7307" class="st5" d="M389.5,55.6c-21-7.2-47.3,13.5-58.6,46.4s-3.4,65.4,17.6,72.6s47.3-13.5,58.6-46.4
				C418.4,95.3,410.5,62.8,389.5,55.6z"/>
			<path id="Path_7308" class="st26" d="M381.5,72.7c-14.8-5.1-33.2,9.5-41.2,32.6s-2.4,46,12.4,51.1s33.2-9.5,41.2-32.6
				C401.9,100.6,396.3,77.8,381.5,72.7z"/>
			<path id="Path_7309" class="st5" d="M372.2,91.9c-7.7-2.7-17.4,5-21.5,17.1s-1.3,24,6.5,26.7s17.4-5,21.5-17.1
				C382.9,106.5,380,94.6,372.2,91.9z"/>
			<path id="Path_7310" class="st29" d="M336.3,231.3c15.6,5.9,35.4,4.7,53.1-5.8c-12.3,5.8-31.5,9.3-42.3,5.6
				c-76.1-26.1-59.8-129.7-23.5-184.9c-7.4,11.9-17.2,27.6-22.3,42C278.8,152.4,293.2,215.1,336.3,231.3z"/>
		</g>
		<path id="Path_7335" class="st40" d="M443.3,378.4c0.7,0.8,1.6,1,2.1,0.6l0,0l1-1.4c3.3,3,12.4,7.1,15,3.1
			c2.4-3.7-1.4-18.8-0.4-25.3l30.3-46c2.2,3.2,2.9,6.8,4.3,4.8c1.1-1.6,1.1-8.4,0.9-12.7l-3.2-3.2c-3.4,0.6-8.5,1.8-9.5,3.4
			c-1.4,2.1,1.6,2.4,4.5,4.5l-30.3,46c-4.8,2.4-17.3,0.5-19.7,4.1c-2.6,4,2.2,14.5,5.1,18l-1,1.4l0,0
			C442.3,376.8,442.6,377.8,443.3,378.4z"/>
		<path id="Path_7336" class="st39" d="M494.5,298c1.3,0.2,2.1,2.2,1.7,4.4s-1.7,3.8-3.1,3.6s-2.1-2.2-1.7-4.4
			C491.8,299.3,493.2,297.7,494.5,298z"/>
		<g id="Group_1883" transform="translate(238.975 260.391)">
			<path id="Path_7337" class="st5" d="M140.8,9.1L140.8,9.1l35.9,9.7c-6.4-1.7-15.2-16.9-21.4-18.6C149.1-1.4,141.7,5.8,140.8,9.1z
				"/>
			<path id="Path_7338" class="st39" d="M140.1,11.7L140.1,11.7l35.9,9.7c-6.4-1.7-21.6,7-27.9,5.3
				C141.9,24.9,139.2,14.9,140.1,11.7z"/>
			<path id="Path_7339" class="st5" d="M140.1,11.7L140.1,11.7l35.9,9.7C169.6,19.6,139.2,14.9,140.1,11.7z"/>
			<path id="Path_7340" class="st16" d="M137.8,11.5L137.8,11.5l106.7,28.9l0.9-3.4L138.8,8.1l0,0c-0.9-0.1-1.7,0.5-1.9,1.3
				C136.6,10.3,137,11.1,137.8,11.5z"/>
			<path id="Path_7341" class="st16" d="M137.8,11.5L137.8,11.5l106.7,28.9l1.1-1.4L138.9,10.1l-0.7,0.1c-0.8-0.1-1.1-1.6-1.4-0.7
				C136.6,10.3,137,11.1,137.8,11.5z"/>
			<path id="Path_7342" class="st29" d="M255.6,39.6l-0.8,3.6c-4.2,1-11,2.4-13.5,1.7c-3.7-1,1.3-2.9,2.3-6.6s-2.4-7.9,1.4-6.9
				C247.4,32.1,252.5,36.6,255.6,39.6z"/>
			<path id="Path_7343" class="st41" d="M241.3,44.9c2.5,0.7,9.3-0.7,13.5-1.7l0.4-1.9l-11.6-2.8c0,0,0,0-0.1-0.1
				C242.5,42,237.6,43.9,241.3,44.9z"/>
		</g>
		<g id="Group_1886" transform="translate(257.201 433.765)">
			<g id="Group_1885">
				<g>
					<defs>
						<path id="SVGID_1_" d="M172.6,0c19.1,0,40.7,1.3,46.4,2c4.8,0.5-55.2,0.8-67.3,0.8c-11.4,0.1-22.1,0-25.1-0.8
							C120.6,0.2,153.5,0,172.6,0z"/>
					</defs>
					<clipPath id="SVGID_2_">
						<use xlink:href="#SVGID_1_"  style="overflow:visible;"/>
					</clipPath>
					<g id="Group_1884" class="st42">
						<rect id="Rectangle_798" x="120.6" y="0" class="st26" width="5.2" height="2.9"/>
						<rect id="Rectangle_799" x="125.8" y="0" class="st26" width="2.3" height="2.9"/>
						<rect id="Rectangle_800" x="128.1" y="0" class="st43" width="2.3" height="2.9"/>
						<rect id="Rectangle_801" x="130.4" y="0" class="st44" width="2.3" height="2.9"/>
						<rect id="Rectangle_802" x="132.6" y="0" class="st45" width="2.3" height="2.9"/>
						<rect id="Rectangle_803" x="134.9" y="0" class="st46" width="2.3" height="2.9"/>
						<rect id="Rectangle_804" x="137.2" y="0" class="st47" width="2.3" height="2.9"/>
						<rect id="Rectangle_805" x="139.5" y="0" class="st48" width="2.3" height="2.9"/>
						<rect id="Rectangle_806" x="141.7" y="0" class="st49" width="2.3" height="2.9"/>
						<rect id="Rectangle_807" x="144" y="0" class="st50" width="2.3" height="2.9"/>
						<rect id="Rectangle_808" x="146.3" y="0" class="st51" width="2.3" height="2.9"/>
						<rect id="Rectangle_809" x="148.6" y="0" class="st52" width="2.3" height="2.9"/>
						<rect id="Rectangle_810" x="150.9" y="0" class="st53" width="2.3" height="2.9"/>
						<rect id="Rectangle_811" x="153.1" y="0" class="st54" width="2.3" height="2.9"/>
						<rect id="Rectangle_812" x="155.4" y="0" class="st55" width="2.3" height="2.9"/>
						<rect id="Rectangle_813" x="157.7" y="0" class="st56" width="2.3" height="2.9"/>
						<rect id="Rectangle_814" x="160" y="0" class="st57" width="2.3" height="2.9"/>
						<rect id="Rectangle_815" x="162.2" y="0" class="st58" width="2.3" height="2.9"/>
						<rect id="Rectangle_816" x="164.5" y="0" class="st59" width="2.3" height="2.9"/>
						<rect id="Rectangle_817" x="166.8" y="0" class="st60" width="2.3" height="2.9"/>
						<rect id="Rectangle_818" x="169.1" y="0" class="st61" width="2.3" height="2.9"/>
						<rect id="Rectangle_819" x="171.3" y="0" class="st62" width="2.3" height="2.9"/>
						<rect id="Rectangle_820" x="173.6" y="0" class="st63" width="2.3" height="2.9"/>
						<rect id="Rectangle_821" x="175.9" y="0" class="st64" width="2.3" height="2.9"/>
						<rect id="Rectangle_822" x="178.2" y="0" class="st65" width="2.3" height="2.9"/>
						<rect id="Rectangle_823" x="180.5" y="0" class="st66" width="2.3" height="2.9"/>
						<rect id="Rectangle_824" x="182.7" y="0" class="st67" width="2.3" height="2.9"/>
						<rect id="Rectangle_825" x="185" y="0" class="st68" width="2.3" height="2.9"/>
						<rect id="Rectangle_826" x="187.3" y="0" class="st69" width="2.3" height="2.9"/>
						<rect id="Rectangle_827" x="189.6" y="0" class="st70" width="2.3" height="2.9"/>
						<rect id="Rectangle_828" x="191.8" y="0" class="st71" width="2.3" height="2.9"/>
						<rect id="Rectangle_829" x="194.1" y="0" class="st71" width="2.3" height="2.9"/>
						<rect id="Rectangle_830" x="196.4" y="0" class="st72" width="2.3" height="2.9"/>
						<rect id="Rectangle_831" x="198.7" y="0" class="st73" width="2.3" height="2.9"/>
						<rect id="Rectangle_832" x="201" y="0" class="st73" width="2.3" height="2.9"/>
						<rect id="Rectangle_833" x="203.2" y="0" class="st74" width="2.3" height="2.9"/>
						<rect id="Rectangle_834" x="205.5" y="0" class="st75" width="2.3" height="2.9"/>
						<rect id="Rectangle_835" x="207.8" y="0" class="st75" width="2.3" height="2.9"/>
						<rect id="Rectangle_836" x="210.1" y="0" class="st76" width="2.3" height="2.9"/>
						<rect id="Rectangle_837" x="212.3" y="0" class="st76" width="2.3" height="2.9"/>
						<rect id="Rectangle_838" x="214.6" y="0" class="st76" width="2.3" height="2.9"/>
						<rect id="Rectangle_839" x="216.9" y="0" class="st76" width="2.3" height="2.9"/>
						<rect id="Rectangle_840" x="219.2" y="0" class="st76" width="4.5" height="2.9"/>
					</g>
				</g>
			</g>
		</g>
		<g id="Group_1927" transform="translate(258.789 314.858)">
			<g id="Group_1887" transform="translate(16.802)">
				<path id="Path_7345" class="st11" d="M180.8,0l-6.1,60.5c0,0.4,0.3,0.7,0.6,0.8c0.4,0.1,0.9-0.2,1-0.6L182.4,0L180.8,0z"/>
			</g>
			<g id="Group_1888" transform="translate(0.284 1.093)">
				<path id="Path_7346" class="st11" d="M197.9,0.7C197.9,0.7,197.9,0.7,197.9,0.7c0-0.4,0.3-0.7,0.7-0.7l16.2,0
					c0.4,0,0.7,0.3,0.7,0.7l0,0c0,0.4-0.3,0.7-0.7,0.7h-16.2c0,0,0,0,0,0C198.2,1.3,197.9,1,197.9,0.7L197.9,0.7z"/>
			</g>
			<g id="Group_1889" transform="translate(1.375 8.866)">
				<path id="Path_7347" class="st11" d="M195.7,0.7C195.7,0.7,195.7,0.7,195.7,0.7c0-0.4,0.3-0.7,0.7-0.7l16.2,0
					c0.4,0,0.7,0.3,0.7,0.7l0,0c0,0.4-0.3,0.7-0.7,0.7h-16.2c0,0,0,0,0,0C196,1.3,195.7,1,195.7,0.7L195.7,0.7z"/>
			</g>
			<g id="Group_1890" transform="translate(2.104 16.984)">
				<path id="Path_7348" class="st11" d="M194.3,0.7c0-0.4,0.3-0.7,0.7-0.7l16.2,0c0.4,0,0.7,0.3,0.7,0.7l0,0l0,0
					c0,0.4-0.3,0.7-0.7,0.7h-16.2l0,0C194.6,1.3,194.3,1,194.3,0.7L194.3,0.7z"/>
			</g>
			<g id="Group_1891" transform="translate(3.195 25.24)">
				<path id="Path_7349" class="st11" d="M192.7,0L209,0c0.4,0,0.7,0.3,0.7,0.7l0,0c0,0.4-0.3,0.7-0.7,0.7h-16.2
					c-0.4,0-0.7-0.3-0.7-0.7C192.1,0.3,192.4,0,192.7,0z"/>
			</g>
			<g id="Group_1892" transform="translate(3.926 33.359)">
				<path id="Path_7350" class="st11" d="M190.6,0.7C190.6,0.7,190.6,0.7,190.6,0.7c0-0.4,0.3-0.7,0.7-0.7l16.2,0l0,0
					c0.4,0,0.7,0.3,0.7,0.7l0,0c0,0.4-0.3,0.7-0.7,0.7h-16.2C190.9,1.3,190.6,1,190.6,0.7L190.6,0.7z"/>
			</g>
			<g id="Group_1893" transform="translate(4.653 41.132)">
				<path id="Path_7351" class="st11" d="M189.8,0L206,0c0.4,0,0.7,0.3,0.7,0.7l0,0c0,0.4-0.3,0.7-0.7,0.7h-16.2
					c-0.4,0-0.7-0.3-0.7-0.7C189.2,0.3,189.5,0,189.8,0z"/>
			</g>
			<g id="Group_1894" transform="translate(5.382 49.252)">
				<path id="Path_7352" class="st11" d="M187.7,0.7C187.7,0.7,187.7,0.7,187.7,0.7c0-0.4,0.3-0.7,0.7-0.7l16.2,0c0,0,0,0,0,0
					c0.4,0,0.7,0.3,0.7,0.7l0,0c0,0.4-0.3,0.7-0.7,0.7h-16.2C188,1.3,187.7,1,187.7,0.7L187.7,0.7z"/>
			</g>
			<g id="Group_1895" transform="translate(0.284 1.093)">
				<path id="Path_7353" class="st11" d="M197.9,0.7C197.9,0.7,197.9,0.7,197.9,0.7c0-0.4,0.3-0.7,0.7-0.7l16.2,0
					c0.4,0,0.7,0.3,0.7,0.7l0,0c0,0.4-0.3,0.7-0.7,0.7h-16.2c0,0,0,0,0,0C198.2,1.3,197.9,1,197.9,0.7L197.9,0.7z"/>
			</g>
			<g id="Group_1896" transform="translate(1.375 8.866)">
				<path id="Path_7354" class="st11" d="M195.7,0.7C195.7,0.7,195.7,0.7,195.7,0.7c0-0.4,0.3-0.7,0.7-0.7l16.2,0
					c0.4,0,0.7,0.3,0.7,0.7l0,0c0,0.4-0.3,0.7-0.7,0.7h-16.2c0,0,0,0,0,0C196,1.3,195.7,1,195.7,0.7L195.7,0.7z"/>
			</g>
			<g id="Group_1897" transform="translate(2.104 16.984)">
				<path id="Path_7355" class="st11" d="M194.3,0.7c0-0.4,0.3-0.7,0.7-0.7l16.2,0c0.4,0,0.7,0.3,0.7,0.7l0,0l0,0
					c0,0.4-0.3,0.7-0.7,0.7h-16.2l0,0C194.6,1.3,194.3,1,194.3,0.7L194.3,0.7z"/>
			</g>
			<g id="Group_1898" transform="translate(3.195 25.24)">
				<path id="Path_7356" class="st11" d="M192.7,0L209,0c0.4,0,0.7,0.3,0.7,0.7l0,0c0,0.4-0.3,0.7-0.7,0.7h-16.2
					c-0.4,0-0.7-0.3-0.7-0.7C192.1,0.3,192.4,0,192.7,0z"/>
			</g>
			<g id="Group_1899" transform="translate(3.926 33.359)">
				<path id="Path_7357" class="st11" d="M190.6,0.7C190.6,0.7,190.6,0.7,190.6,0.7c0-0.4,0.3-0.7,0.7-0.7l16.2,0l0,0
					c0.4,0,0.7,0.3,0.7,0.7l0,0c0,0.4-0.3,0.7-0.7,0.7h-16.2C190.9,1.3,190.6,1,190.6,0.7L190.6,0.7z"/>
			</g>
			<g id="Group_1900" transform="translate(4.653 41.132)">
				<path id="Path_7358" class="st11" d="M189.8,0L206,0c0.4,0,0.7,0.3,0.7,0.7l0,0c0,0.4-0.3,0.7-0.7,0.7h-16.2
					c-0.4,0-0.7-0.3-0.7-0.7C189.2,0.3,189.5,0,189.8,0z"/>
			</g>
			<g id="Group_1901" transform="translate(5.382 49.252)">
				<path id="Path_7359" class="st11" d="M187.7,0.7C187.7,0.7,187.7,0.7,187.7,0.7c0-0.4,0.3-0.7,0.7-0.7l16.2,0c0,0,0,0,0,0
					c0.4,0,0.7,0.3,0.7,0.7l0,0c0,0.4-0.3,0.7-0.7,0.7h-16.2C188,1.3,187.7,1,187.7,0.7L187.7,0.7z"/>
			</g>
			<g id="Group_1902" transform="translate(0)">
				<path id="Path_7360" class="st11" d="M214.4,0l-6.1,60.5c0,0.4,0.3,0.7,0.6,0.8c0.4,0.1,0.9-0.2,1-0.6L216,0L214.4,0z"/>
			</g>
			<g id="Group_1903" transform="translate(18.898 19.93)">
				<path id="Path_7361" class="st11" d="M173.2,50.4l5-49.6c0-0.4-0.3-0.7-0.6-0.8c-0.4-0.1-0.9,0.2-1,0.6l-5,49.8H173.2z"/>
			</g>
			<g id="Group_1904" transform="translate(5.381 49.323)">
				<path id="Path_7362" class="st11" d="M188.4,0l16.2,0c0.4,0,0.7,0.3,0.7,0.7l0,0c0,0.4-0.3,0.7-0.7,0.7h-16.2
					c-0.4,0-0.7-0.3-0.7-0.7C187.7,0.3,188,0,188.4,0z"/>
			</g>
			<g id="Group_1905" transform="translate(6.473 57.579)">
				<path id="Path_7363" class="st11" d="M185.5,0.7c0-0.4,0.3-0.7,0.7-0.7l16.2,0c0.4,0,0.7,0.3,0.7,0.7l0,0c0,0.4-0.3,0.7-0.7,0.7
					h-16.2C185.8,1.3,185.5,1,185.5,0.7L185.5,0.7z"/>
			</g>
			<g id="Group_1906" transform="translate(7.203 65.698)">
				<path id="Path_7364" class="st11" d="M184.1,0.7C184.1,0.7,184.1,0.7,184.1,0.7c0-0.4,0.3-0.7,0.7-0.7l16.2,0l0,0
					c0.4,0,0.7,0.3,0.7,0.7l0,0c0,0.4-0.3,0.7-0.7,0.7h-16.2C184.4,1.3,184.1,1,184.1,0.7L184.1,0.7z"/>
			</g>
			<g id="Group_1907" transform="translate(10.395 117.774)">
				<path id="Path_7365" class="st11" d="M195.2,3.4c0-0.1,0-0.1,0-0.2c0-1.7-1.4-3.1-3.2-3.2c-1.8,0-3.3,1.4-3.3,3.2
					c0,0.1,0,0.1,0,0.2H195.2z"/>
			</g>
			<g id="Group_1908" transform="translate(2.096 19.93)">
				<path id="Path_7366" class="st11" d="M206.8,50.4l5-49.6c0-0.4-0.3-0.7-0.6-0.8c-0.4-0.1-0.9,0.2-1,0.6l-5,49.8H206.8z"/>
			</g>
			<g id="Group_1909" transform="translate(23.096 60.221)">
				<path id="Path_7367" class="st11" d="M168.9,10.1l0.9-9.3c0-0.4-0.3-0.7-0.6-0.8c-0.4-0.1-0.9,0.2-1,0.6l-1,9.5H168.9z"/>
			</g>
			<g id="Group_1910" transform="translate(23.886 69.213)">
				<path id="Path_7368" class="st11" d="M166.6,0l-2.3,22.8c0,0.4,0.3,0.7,0.6,0.8c0.4,0.1,0.9-0.2,1-0.6L168.2,0L166.6,0z"/>
			</g>
			<g id="Group_1911" transform="translate(7.03 65.604)">
				<path id="Path_7369" class="st11" d="M184.4,0.7C184.4,0.7,184.4,0.7,184.4,0.7c0-0.4,0.3-0.7,0.7-0.7l16.2,0c0,0,0,0,0,0
					c0.4,0,0.7,0.3,0.7,0.7l0,0c0,0.4-0.3,0.7-0.7,0.7h-16.2C184.7,1.3,184.4,1,184.4,0.7L184.4,0.7z"/>
			</g>
			<g id="Group_1912" transform="translate(7.859 72.589)">
				<path id="Path_7370" class="st11" d="M182.7,0.7C182.7,0.7,182.7,0.7,182.7,0.7c0-0.4,0.3-0.7,0.7-0.7l16.3,0c0,0,0,0,0,0
					c0.4,0,0.7,0.3,0.7,0.7l0,0c0,0.4-0.3,0.7-0.7,0.7h-16.3c0,0,0,0,0,0C183,1.3,182.7,1,182.7,0.7L182.7,0.7z"/>
			</g>
			<g id="Group_1913" transform="translate(8.589 80.734)">
				<path id="Path_7371" class="st11" d="M181.2,0.7C181.2,0.7,181.2,0.7,181.2,0.7c0-0.4,0.3-0.7,0.7-0.7l16.3,0c0,0,0,0,0,0
					c0.4,0,0.7,0.3,0.7,0.7l0,0c0,0,0,0,0,0c0,0.4-0.3,0.7-0.7,0.7h-16.3c0,0,0,0,0,0C181.5,1.3,181.2,1,181.2,0.7L181.2,0.7z"/>
			</g>
			<g id="Group_1914" transform="translate(7.03 65.604)">
				<path id="Path_7372" class="st11" d="M184.4,0.7C184.4,0.7,184.4,0.7,184.4,0.7c0-0.4,0.3-0.7,0.7-0.7l16.2,0c0,0,0,0,0,0
					c0.4,0,0.7,0.3,0.7,0.7l0,0c0,0.4-0.3,0.7-0.7,0.7h-16.2C184.7,1.3,184.4,1,184.4,0.7L184.4,0.7z"/>
			</g>
			<g id="Group_1915" transform="translate(7.859 72.589)">
				<path id="Path_7373" class="st11" d="M182.7,0.7C182.7,0.7,182.7,0.7,182.7,0.7c0-0.4,0.3-0.7,0.7-0.7l16.3,0c0,0,0,0,0,0
					c0.4,0,0.7,0.3,0.7,0.7l0,0c0,0.4-0.3,0.7-0.7,0.7h-16.3c0,0,0,0,0,0C183,1.3,182.7,1,182.7,0.7L182.7,0.7z"/>
			</g>
			<g id="Group_1916" transform="translate(8.589 80.734)">
				<path id="Path_7374" class="st11" d="M181.2,0.7C181.2,0.7,181.2,0.7,181.2,0.7c0-0.4,0.3-0.7,0.7-0.7l16.3,0c0,0,0,0,0,0
					c0.4,0,0.7,0.3,0.7,0.7l0,0c0,0,0,0,0,0c0,0.4-0.3,0.7-0.7,0.7h-16.3c0,0,0,0,0,0C181.5,1.3,181.2,1,181.2,0.7L181.2,0.7z"/>
			</g>
			<g id="Group_1917" transform="translate(6.293 60.221)">
				<path id="Path_7375" class="st11" d="M202.5,10.1l0.9-9.3c0-0.4-0.3-0.7-0.6-0.8c-0.4-0.1-0.9,0.2-1,0.6l-1,9.5H202.5z"/>
			</g>
			<g id="Group_1918" transform="translate(7.032 69.213)">
				<path id="Path_7376" class="st11" d="M200.3,0L198,22.8c0,0.4,0.3,0.7,0.6,0.8c0.4,0.1,0.9-0.2,1-0.6L201.9,0L200.3,0z"/>
			</g>
			<g id="Group_1919" transform="translate(23.883 69.213)">
				<path id="Path_7377" class="st11" d="M166.6,0l-5.1,49.9h1.6L168.2,0L166.6,0z"/>
			</g>
			<g id="Group_1920" transform="translate(8.588 80.805)">
				<path id="Path_7378" class="st11" d="M181.2,0.7c0-0.4,0.3-0.7,0.7-0.7l16.3,0c0.4,0,0.7,0.3,0.7,0.7l0,0c0,0.4-0.3,0.7-0.7,0.7
					h-16.3C181.5,1.3,181.2,1,181.2,0.7L181.2,0.7z"/>
			</g>
			<g id="Group_1921" transform="translate(9.683 89.086)">
				<path id="Path_7379" class="st11" d="M179.1,0.7c0-0.4,0.3-0.7,0.7-0.7L196,0c0.4,0,0.7,0.3,0.7,0.7l0,0c0,0.4-0.3,0.7-0.7,0.7
					h-16.3C179.4,1.3,179.1,1,179.1,0.7L179.1,0.7z"/>
			</g>
			<g id="Group_1922" transform="translate(10.415 97.23)">
				<path id="Path_7380" class="st11" d="M177.6,0.7c0-0.4,0.3-0.7,0.7-0.7l16.3,0c0,0,0,0,0,0c0.4,0,0.7,0.3,0.7,0.7l0,0l0,0
					c0,0.4-0.3,0.7-0.7,0.7h-16.3l0,0C177.9,1.3,177.6,1,177.6,0.7C177.6,0.7,177.6,0.7,177.6,0.7z"/>
			</g>
			<g id="Group_1923" transform="translate(11.145 105.025)">
				<path id="Path_7381" class="st11" d="M176.1,0.7C176.1,0.7,176.1,0.7,176.1,0.7c0-0.4,0.3-0.7,0.7-0.7l16.3,0c0,0,0,0,0,0
					c0.4,0,0.7,0.3,0.7,0.7l0,0l0,0c0,0.4-0.3,0.7-0.7,0.7h-16.3c0,0,0,0,0,0C176.4,1.3,176.1,1,176.1,0.7L176.1,0.7z"/>
			</g>
			<g id="Group_1924" transform="translate(11.876 113.17)">
				<path id="Path_7382" class="st11" d="M174.7,0.7C174.7,0.7,174.7,0.7,174.7,0.7c0-0.4,0.3-0.7,0.7-0.7l16.3,0c0,0,0,0,0,0
					c0.4,0,0.7,0.3,0.7,0.7l0,0c0,0,0,0,0,0c0,0.4-0.3,0.7-0.7,0.7h-16.3c0,0,0,0,0,0C175,1.3,174.7,1,174.7,0.7L174.7,0.7z"/>
			</g>
			<g id="Group_1925" transform="translate(7.03 69.213)">
				<path id="Path_7383" class="st11" d="M200.3,0l-5.1,49.9h1.6L201.9,0L200.3,0z"/>
			</g>
			<g id="Group_1926" transform="translate(27.88 117.774)">
				<path id="Path_7384" class="st11" d="M160.2,3.4c0-0.1,0-0.1,0-0.2c0-1.7-1.4-3.1-3.2-3.2c-1.8,0-3.3,1.4-3.3,3.2
					c0,0.1,0,0.1,0,0.2H160.2z"/>
			</g>
		</g>
		<g id="Group_1979" transform="translate(240.642 293.07)">
			<g id="Group_1929" transform="translate(31.062 74.153)">
				<g id="Group_1928">
					<path id="Path_7385" class="st6" d="M183.7,0.2c1.1-0.7,2.7,0.8,3.2,1.6c1.6,2.4,3.4,2.5,3.3,3.8c-0.1,1-3.3,0.3-4.8,0.2
						s-3.1-0.8-3-2.2C182.5,3.2,183.1,0.6,183.7,0.2z"/>
				</g>
			</g>
			<g id="Group_1931" transform="translate(31.07 77.55)">
				<g id="Group_1930">
					<path id="Path_7386" class="st26" d="M190.2,2.2C190.2,2.2,190.2,2.2,190.2,2.2c-0.1,1.1-3.3,0.3-4.8,0.2s-3.1-0.8-3-2.2
						c0,0,0-0.1,0-0.2c0.5,0.6,0.8,1.1,1.5,1.3c0.6,0.2,1.5,0.4,2.2,0.6c0.5,0.1,0.9,0.2,1.4,0.2c0,0,0.7,0.1,0.8,0.1
						C188.9,2.4,189.6,2.3,190.2,2.2z"/>
				</g>
			</g>
			<g id="Group_1978">
				<g id="Group_1933" transform="translate(11.273 19.289)">
					<g id="Group_1932">
						<path id="Path_7387" class="st77" d="M217.9,0c-1.1-0.1-2.2,0.5-2.7,1.6l0,0c-0.2,0.9,0.7,1.6,1.9,1.6l9.8,0
							c1.3,0,2.5-0.5,2.7-1.4l-0.3,0.1c0.2-0.9-0.9-1.3-2.2-1.3L217.9,0z"/>
					</g>
				</g>
				<g id="Group_1935" transform="translate(22.506 17.611)">
					<g id="Group_1934">
						<path id="Path_7388" class="st33" d="M205.3,0.1l-1.3,0.4c0.8,0.3,3.2,1.3,3.2,1.3l-1.6,4.2c-0.1-0.1-3.5-0.7-4.5-0.2
							c-0.1,0-2.2-0.8,0.2-2.3l1.2-2C203.1,0.4,204.2-0.1,205.3,0.1z"/>
					</g>
				</g>
				<g id="Group_1937" transform="translate(0 15.328)">
					<g id="Group_1936">
						<path id="Path_7389" class="st77" d="M239.2,7c0.5-0.1,1.1-0.3,1.6-0.5l10.7-4.2c1.2-0.6,0.8-2.2,0.8-2.2
							c-1.3,0.6-2.6,1.1-4,1.5l-8.7,2.9c-0.3,0.2-0.9,0.2-1.3,0.4c0.4,0.2,0.8,0.6,0.9,1.1C239.2,6.2,239.3,6.6,239.2,7z"/>
					</g>
				</g>
				<g id="Group_1977" transform="translate(23.422)">
					<g id="Group_1939" transform="translate(6.739 38.217)">
						<g id="Group_1938">
							<path id="Path_7390" class="st77" d="M185.8,5.7c0.2-1.5-2.5-5.8-1.4-5.7l7.5,0.7c-1.3,15.3-2.5,20.7-2.5,20.7
								c-0.2,1.5-1.2,2.6-2.3,2.5l0.2,0.1c-1.1-0.1-1.4-1.3-1.2-2.8L185.8,5.7z"/>
						</g>
					</g>
					<g id="Group_1941" transform="translate(32.856 65.582)">
						<g id="Group_1940">
							<path id="Path_7391" class="st6" d="M137.9,0c1.3,0.1,1.6,2.3,1.4,3.3c-0.3,2.9,1,4.1,0.1,5c-0.7,0.7-2.8-1.9-3.8-2.9
								s-1.9-2.6-0.9-3.6C135,1.5,137.2-0.1,137.9,0z"/>
						</g>
					</g>
					<g id="Group_1943" transform="translate(33.17 67.272)">
						<g id="Group_1942">
							<path id="Path_7392" class="st26" d="M139.1,6.6C139.1,6.6,139.1,6.6,139.1,6.6c-0.8,0.7-2.8-1.9-3.8-2.9s-1.9-2.6-0.9-3.6
								c0,0,0.1-0.1,0.2-0.1c-0.1,0.7,0,1.3,0.3,2c0.4,0.6,1,1.3,1.3,1.8c0.3,0.4,0.6,0.8,0.9,1.1c0,0,0.5,0.5,0.5,0.6
								C138,6,138.5,6.3,139.1,6.6z"/>
						</g>
					</g>
					<g id="Group_1945" transform="translate(9.103 56.799)">
						<g id="Group_1944">
							<path id="Path_7393" class="st77" d="M184.4,17.8l2.9-15.2c0.1-1.5-0.7-2.6-1.8-2.6L185,0c-1.1,0-1,1.5-1.1,3l-1.1,4.1
								l-0.4,11.5c0.3,0.3,0.7,0.5,1.1,0.5c0.2,0,0.4,0,0.7-0.1C184.3,18.7,184.4,18.2,184.4,17.8z"/>
						</g>
					</g>
					<g id="Group_1947" transform="translate(11.694 36.403)">
						<g id="Group_1946">
							<path id="Path_7394" class="st77" d="M180,7.7c4,0.4,1.2-5.5,0.1-5.7l-3.6-2c-1-0.2-1.6,4.4-1.9,5.9L172,21.1
								c-0.3,1.5,0.4,2.7,1.5,2.9l0.5,0.1c1,0.2,1.4-1,1.7-2.5L180,7.7z"/>
						</g>
					</g>
					<g id="Group_1949" transform="translate(18.35 58.059)">
						<g id="Group_1948">
							<path id="Path_7395" class="st77" d="M153.3,9.8L167,3.3c1.3-0.8,2.2-2,1.6-2.9L168.3,0c-0.4-0.2-6.8,1.7-6.8,1.7l-9.8,6.4
								c-0.1,0.2-0.2,0.3-0.3,0.5c-0.2,0.4,0.3,0.8,0.6,1C152.4,9.7,152.8,9.8,153.3,9.8C153.2,9.8,153.2,9.8,153.3,9.8z"/>
						</g>
					</g>
					<g id="Group_1950" transform="translate(11.694 36.403)">
						<path id="Path_7396" class="st77" d="M158.1,30.2c-0.2,0.4,0.3,0.8,0.6,1c0.4,0.2,0.7,0.2,1.1,0.3c0,0,0,0,0.1,0l13.7-6.5
							c0.9-0.4,1.5-1.2,1.8-2.1c0.1-0.4,0.2-0.7,0.3-1.1l4.3-14c4,0.4,1.2-5.5,0.1-5.7l-3.6-2c-1-0.2-1.6,4.4-1.9,5.9l-1.8,10.8
							c3.6,0.5,2.7,2.7,1.4,6.3c-0.3,0.8-14.9,9.8-15.8,6.9C158.2,30,158.2,30.1,158.1,30.2z"/>
					</g>
					<g id="Group_1952" transform="translate(6.739 36.401)">
						<g id="Group_1951">
							<path id="Path_7397" class="st77" d="M187.1,38.3l2.5-15.3c0-0.1,0-0.3,0-0.4c0.3-1.8,1.3-7.8,2.4-20.1l-7.1-0.6L181.4,0
								c-0.6-0.1-1,1.1-1.3,2.7c0.9,0.7,3.3,14.7,6.4,15.3c2.1,0.4,2.5,1.6,2.2,3.9c-1.1,9-2.1,15.4-2.9,16.9
								c-0.1,0.2-0.2,0.5-0.1,0.7c0.1,0,0.1,0,0.2,0c0.3,0,0.7,0,1-0.2C187.1,39,187.1,38.6,187.1,38.3z"/>
						</g>
					</g>
					<g id="Group_1954" transform="translate(12.929 17.232)">
						<g id="Group_1953">
							<path id="Path_7398" class="st77" d="M175.5,1.6C175.5,1.5,175.5,1.5,175.5,1.6c0.6-1.3,2-1.9,3.3-1.4l0,0
								c1.1,0.4,0.9,1.3,0.5,2.7l-3.8,8.9c-0.4,1.4-0.4,2.4-1.5,2.1l0,0c-0.6-0.2-1.1-0.5-1.6-0.9C172.5,12.8,174.1,4.2,175.5,1.6z"
								/>
						</g>
					</g>
					<g id="Group_1955" transform="translate(12.929 17.232)">
						<path id="Path_7399" class="st77" d="M172.7,14.8l4.2,8.6c0.5,1,1.1,2,1.7,2.8c0.3,0.1-0.1-2.6-0.7-3.9l-2.5-8.5
							c-0.1-0.4-0.1-0.8-0.1-1.2c0.1-0.3,0.1-0.6,0.2-0.9l3.8-8.9c0.4-1.4,0.5-2.3-0.5-2.7c0,0,0,0-0.1,0c-1.3-0.5-2.7,0.1-3.2,1.4
							c-1.4,2.6-3,11.3-3,11.3C172.4,13.5,172.5,14.2,172.7,14.8z"/>
					</g>
					<g id="Group_1956" transform="translate(12.929 17.232)">
						<path id="Path_7400" class="st77" d="M172.7,14.8l4.2,8.6c0.5,1,1.1,2,1.7,2.8c0.3,0.1-0.1-2.6-0.7-3.9l-2.5-8.5
							c-0.1-0.4-0.1-0.8-0.1-1.2c0.1-0.3,0.1-0.6,0.2-0.9l3.8-8.9c0.4-1.4,0.5-2.3-0.5-2.7c0,0,0,0-0.1,0c-1.3-0.5-2.7,0.1-3.2,1.4
							c-1.4,2.6-3,11.3-3,11.3C172.4,13.5,172.5,14.2,172.7,14.8z"/>
					</g>
					<g id="Group_1958" transform="translate(2.506 15.328)">
						<g id="Group_1957">
							<path id="Path_7401" class="st33" d="M200.4,4.1c0-2.2-1.5-2.3-3.8-3.3c-1.3-0.6-2.7-0.9-4.2-0.6c-1.9,0.6-3.6,0.7-4,1.8
								c-2.1,5.8-4.4,24.8-8.1,33.5c-0.8,2,16.5,5.1,16.3,2.9C195.4,25,200.2,15.3,200.4,4.1z"/>
						</g>
					</g>
					<g id="Group_1960" transform="translate(6.982 15.329)">
						<g id="Group_1959">
							<path id="Path_7402" class="st78" d="M191.5,38.9c-4-1.5-11-0.6-12.8-4.6c-0.6-1.3,2.2-15.4,4-24.9c0.4-2.4,0.6-4.7,1.3-5.9
								c0.6-1,2.9-1.3,3.4-1.3c1.7,0,2.3-1.5,3.7-1.5c0-0.2,0-0.3,0-0.5c-1-0.3-2-0.4-3-0.2c-1.9,0.6-3.6,0.7-4,1.8
								c-2.1,5.8-4.4,24.8-8.1,33.5C175.2,37.1,188.2,39.7,191.5,38.9z"/>
						</g>
					</g>
					<g id="Group_1962" transform="translate(12.591 16.447)">
						<g id="Group_1961">
							<path id="Path_7403" class="st33" d="M174.2,5c0.3-1,0.8-1.9,1.3-2.7c0.9-1.7,3.1-2.6,4.2-2.2s0.3,2.2-0.1,3.6l-1.3,4.7
								C176.9,7.3,175.5,6.2,174.2,5z"/>
						</g>
					</g>
					<g id="Group_1964" transform="translate(12.592 16.447)">
						<g id="Group_1963">
							<path id="Path_7404" class="st78" d="M174.2,5c0.9,0.9,1.9,1.7,2.9,2.4l0,0c0.1-4.3,0.3-5.4,3.1-6.1c0.1-0.6,0-1.1-0.5-1.3
								c-1.1-0.4-3.3,0.5-4.2,2.2C175,3.2,174.6,4.1,174.2,5z"/>
						</g>
					</g>
					<g id="Group_1966" transform="translate(5.744 10.768)">
						<g id="Group_1965">
							<path id="Path_7405" class="st77" d="M190.1,0.9c0.1-0.7,1.1-1.1,2.2-0.9l0,0c1.1,0.2,1.8,0.9,1.7,1.6l-1,5.2
								c-0.1,0.7-1.1,1.1-2.2,0.9l0,0c-1.1-0.2-1.8-0.9-1.7-1.6L190.1,0.9z"/>
						</g>
					</g>
					<g id="Group_1968" transform="translate(5.744 10.768)">
						<g id="Group_1967">
							<path id="Path_7406" class="st79" d="M192.9,7.1l1.1-5.4c0.1-0.7-0.6-1.4-1.7-1.6s-2,0.2-2.2,0.9l-0.8,4
								C189.9,6.3,191.3,7.1,192.9,7.1z"/>
						</g>
					</g>
					<g id="Group_1972">
						<g id="Group_1971">
							<g id="Group_1970">
								<g id="Group_1969">
									<path id="Path_7407" class="st80" d="M193.6,15.9c-5.7-1.6-1.3-13.2,1-14.6c4.8-2.9,8,0.2,8.8,1.2
										c1.8,0.9,4.9,18.9-3.8,19.5C196.5,22.1,199,17.4,193.6,15.9z"/>
								</g>
							</g>
						</g>
					</g>
					<g id="Group_1976" transform="translate(5.06 0.003)">
						<g id="Group_1975">
							<g id="Group_1974">
								<g id="Group_1973">
									<path id="Path_7408" class="st81" d="M188.6,15.8c5.3,1.5,2.9,6.3,6,6c0.2,0,0.4,0,0.5-0.1c-0.9-0.5-1.5-1.4-1.7-2.4
										c-0.2-0.7-0.4-1.5-0.5-2.3c-0.6-0.7-1.3-1.4-2.1-1.9c-2-1.5-3.2-3.9-3.3-6.4c-0.1-4.6,2.9-9,7.8-8.6
										c-2-0.6-4.1-0.3-5.8,0.9C187.2,2.6,182.8,14.2,188.6,15.8z"/>
								</g>
							</g>
						</g>
					</g>
				</g>
			</g>
		</g>
	</g>
</g>
<g id="Group_1980">
	<path id="Rectangle_842" class="st5" d="M93.2,54.7h110c22.1,0,40,17.9,40,40l0,0c0,22.1-17.9,40-40,40h-110c-22.1,0-40-17.9-40-40
		l0,0C53.2,72.6,71.1,54.7,93.2,54.7z"/>
	<g id="Group_1980-2">
		<path id="Path_7409" class="st26" d="M93.2,64.7c-16.6,0-30,13.4-30,30c0,7.5,2.8,14.8,8,20.4L87,99.2l0,0c0.7-0.7,2-0.5,2.9,0.5
			s1.1,2.2,0.5,2.9l0,0l-15.7,15.7c13,10.2,31.9,8,42.1-5c10.2-13,8-31.9-5-42.1C106.4,66.9,99.9,64.7,93.2,64.7L93.2,64.7z
			 M107.9,80.8c-0.8,4-0.5,4.5,3.2,6.2c-4-0.8-4.5-0.5-6.2,3.2c0.8-4,0.5-4.5-3.2-6.2C105.7,84.7,106.2,84.5,107.9,80.8z M98.3,88.6
			c-2.6,2-2.7,2.4-1.4,5.4c-2-2.6-2.4-2.7-5.4-1.4c2.6-2,2.7-2.4,1.4-5.4C94.9,89.8,95.3,89.9,98.3,88.6L98.3,88.6z M75.2,99.5
			c0.4-2.9,0.2-3.3-2.6-4.4c2.9,0.4,3.3,0.2,4.4-2.6c-0.4,2.9-0.2,3.3,2.6,4.4C76.6,96.6,76.2,96.8,75.2,99.5L75.2,99.5z M86.6,89.1
			c-0.8-6.8-1.5-7.4-8.3-8.3c6.8-0.8,7.4-1.5,8.3-8.3c0.8,6.8,1.5,7.4,8.3,8.3C88.1,81.7,87.4,82.3,86.6,89.1z M98.6,115.3
			c-3.5-3.4-4.1-3.5-8.3-1c3.4-3.5,3.5-4.1,1-8.3c3.5,3.4,4.1,3.5,8.3,1C96.1,110.5,96,111.1,98.6,115.3L98.6,115.3z M107.1,107.4
			c1.1-6.6,0.7-7.4-5.4-10.1c6.6,1.1,7.4,0.7,10.1-5.4c-1.1,6.6-0.7,7.4,5.4,10.1C110.6,100.8,109.8,101.3,107.1,107.4L107.1,107.4z
			"/>
		<text transform="matrix(1 0 0 1 137.0316 92.679)" class="st26 st82 st83">SMART</text>
		<text transform="matrix(1 0 0 1 137.2662 109.2497)" class="st26 st84 st85">OVERLAPPING</text>
	</g>
</g>
</svg>
