<?xml version="1.0" encoding="utf-8"?>
<!-- Generator: Adobe Illustrator 24.2.3, SVG Export Plug-In . SVG Version: 6.00 Build 0)  -->
<svg version="1.1" id="Calque_1" xmlns="http://www.w3.org/2000/svg" xmlns:xlink="http://www.w3.org/1999/xlink" x="0px" y="0px"
	 viewBox="0 0 84 70" style="enable-background:new 0 0 84 70;" xml:space="preserve">
<style type="text/css">
	.st0{fill-rule:evenodd;clip-rule:evenodd;fill:#FFFFFF;fill-opacity:0.6;}
	.st1{fill-rule:evenodd;clip-rule:evenodd;fill:#DFE0E6;fill-opacity:0.6;}
	.st2{fill-rule:evenodd;clip-rule:evenodd;fill:#08ACC1;}
</style>
<g>
	<g>
		<path class="st0" d="M1,0h82c0.6,0,1,0.4,1,1v68c0,0.6-0.4,1-1,1H1c-0.6,0-1-0.4-1-1V1C0,0.4,0.4,0,1,0z"/>
		<g>
			<polygon class="st1" points="6,12 78,12 78,6 6,6 			"/>
			<polygon class="st1" points="6,24 54,24 54,18 6,18 			"/>
			<polygon class="st1" points="6,46 78,46 78,30 6,30 			"/>
		</g>
		<polygon class="st2" points="6,64 78,64 78,52 6,52 		"/>
	</g>
</g>
</svg>
