<?xml version="1.0" encoding="utf-8"?>
<!-- Generator: Adobe Illustrator 24.2.3, SVG Export Plug-In . SVG Version: 6.00 Build 0)  -->
<svg version="1.1" id="Calque_1" xmlns="http://www.w3.org/2000/svg" xmlns:xlink="http://www.w3.org/1999/xlink" x="0px" y="0px"
	 viewBox="0 0 84 70" style="enable-background:new 0 0 84 70;" xml:space="preserve">
<style type="text/css">
	.st0{fill-rule:evenodd;clip-rule:evenodd;fill:#FFFFFF;fill-opacity:0.6;}
	.st1{fill-rule:evenodd;clip-rule:evenodd;fill:#DFE0E6;fill-opacity:0.6;}
	.st2{fill-rule:evenodd;clip-rule:evenodd;fill:#08ACC1;}
</style>
<g>
	<g>
		<path class="st0" d="M83,70H1c-0.6,0-1-0.4-1-1V1c0-0.6,0.4-1,1-1h82c0.6,0,1,0.4,1,1v68C84,69.6,83.6,70,83,70z"/>
		<g>
			<polygon class="st1" points="23.1,64 78,64 78,58 23.1,58 			"/>
			<polygon class="st1" points="23.1,52 59.7,52 59.7,46 23.1,46 			"/>
			<polygon class="st1" points="23.1,40 78,40 78,24 23.1,24 			"/>
		</g>
		<polygon class="st1" points="23.1,18 70,18 70,6 23.1,6 		"/>
		<polygon class="st2" points="6.2,5.9 6.2,64 18.2,64 18.2,5.9 		"/>
	</g>
</g>
</svg>
