<?xml version="1.0" encoding="utf-8"?>
<!-- Generator: Adobe Illustrator 24.2.3, SVG Export Plug-In . SVG Version: 6.00 Build 0)  -->
<svg version="1.1" id="Calque_1" xmlns="http://www.w3.org/2000/svg" xmlns:xlink="http://www.w3.org/1999/xlink" x="0px" y="0px"
	 viewBox="0 0 500 500" style="enable-background:new 0 0 500 500;" xml:space="preserve">
<style type="text/css">
	.st0{fill:#EBEBEB;}
	.st1{fill:#F5F5F5;}
	.st2{fill:#E0E0E0;}
	.st3{fill:#263238;}
	.st4{fill:#08ACC1;}
	.st5{opacity:0.3;enable-background:new    ;}
	.st6{opacity:0.2;}
	.st7{opacity:0.3;}
	.st8{fill:#455A64;}
	.st9{fill:#FFBE9D;}
</style>
<g id="freepik--background-complete--inject-18">
	<path class="st0" d="M453.6,196.9c-7-12.5-19.1-23.1-33.8-25.1c-15.1-2-29.9,5.4-41.7,14.6c-11.9,9.2-22.1,20.4-30,33.1
		c-4.6,7.5-9.4,16.1-18.1,18.6c-8.2,2.3-16.8-2-23.4-7.2S294,219.4,286,216.4c-20.8-7.7-43.9,10.8-65.5,5.4
		c-18.6-4.6-27.5-24-39-38.7c-19.1-24.1-52.2-38.1-83.4-33s-54.9,57.5-59.2,87.4l427.1-0.1C463.4,223.5,460.6,209.4,453.6,196.9z"/>
	<path class="st1" d="M119.6,88.8c0.4-2.8-3.6-5.1-6.5-5.3c-1.4,0.1-2.8-0.1-4.2-0.4c-2.9-1-4-4.8-6.9-5.9c-2.1-0.9-4.5-0.1-6.6,0.9
		s-4.1,2.3-6.4,2.5c-2,0.1-4.2-0.6-5.9,0.4c-1.3,0.7-2,2.2-3.2,3.1c-1.2,0.8-2.7,1.2-4.1,1.2c-1.5,0-2.9,0.2-4.3,0.7
		c-1.4,0.5-2.3,1.9-2.1,3.4L119.6,88.8z"/>
	<path class="st1" d="M252.5,115.3c0.4-2.8-3.6-5.1-6.5-5.3c-1.4,0.1-2.8-0.1-4.2-0.4c-2.9-1-4-4.8-6.9-5.9
		c-2.1-0.9-4.5-0.1-6.6,0.9s-4.1,2.3-6.4,2.5c-2,0.1-4.1-0.6-5.9,0.4c-1.3,0.7-2,2.2-3.2,3.1c-1.2,0.8-2.7,1.2-4.1,1.1
		c-1.5,0-2.9,0.2-4.3,0.7c-1.4,0.5-2.3,1.9-2.1,3.4L252.5,115.3z"/>
	<path class="st0" d="M470.3,113.7c0.7-5-6.4-9.2-11.7-9.6c-2.5-0.2-5.2,0.2-7.6-0.7c-5.2-1.8-7.3-8.6-12.4-10.7
		c-3.8-1.6-8.2-0.2-11.9,1.7s-7.3,4.2-11.4,4.5c-3.6,0.2-7.5-1.1-10.6,0.7c-2.3,1.3-3.5,4-5.7,5.6s-4.9,1.9-7.5,2s-5.3,0.2-7.7,1.3
		s-4.3,3.6-3.9,6.2L470.3,113.7z"/>
	<path class="st0" d="M264.8,63.9c0.9-6.3-8.1-11.6-14.8-12.1c-3.2-0.3-6.5,0.2-9.6-0.8c-6.6-2.3-9.2-10.8-15.6-13.5
		c-4.8-2-10.3-0.2-15,2.1s-9.3,5.3-14.5,5.6c-4.5,0.3-9.4-1.4-13.4,0.8c-3,1.6-4.5,5-7.2,7s-6.1,2.4-9.4,2.6s-6.7,0.2-9.7,1.6
		s-5.5,4.6-4.9,7.8L264.8,63.9z"/>
</g>
<g id="freepik--Road--inject-18">
	<path class="st2" d="M20.9,353.6l3.2-29.2l181.4,11.9c8.2,0.5,15.3-5.3,16.5-13.4l11.8-85.7h41.1l17.8,87.6
		c1.5,7.5,8.3,12.8,16,12.5l170.4-7.8v30.6l-149.6,25.5c-14.3,1.4-24.8,14.2-23.4,28.5c0,0.4,0.1,0.7,0.1,1.1l7,49.9H207.7l4.3-45.7
		c1.6-17.5-10.6-33.3-27.9-36.1L20.9,353.6z"/>
	<polygon class="st1" points="262.2,316.1 252.2,316.1 254.6,273.4 258.9,273.4 	"/>
	<polygon class="st1" points="265.8,414.7 252.2,414.7 254.6,361.8 262,361.9 	"/>
	<polygon class="st1" points="326.8,364 325.8,355.7 378.5,351.1 379.9,356.6 	"/>
	<polygon class="st1" points="433.6,352.6 432.7,344.4 479.1,340.3 479.1,346.3 	"/>
	<polygon class="st1" points="190.9,359.1 191.8,350.8 139.1,346.2 137.7,351.7 	"/>
	<polygon class="st1" points="74.1,346.2 74.8,339.6 23.1,333 22.4,339 	"/>
</g>
<g id="freepik--Sign--inject-18">
	<path class="st3" d="M323,318.4h-8.6V57.6c0-2.4,1.9-4.3,4.3-4.3l0,0c2.4,0,4.3,1.9,4.3,4.3L323,318.4z"/>
	<polygon class="st4" points="277.9,163.1 301.7,160.9 360.6,192.6 356.7,199.9 349.2,199.9 354.2,204.5 348.8,214.5 290.3,183 	"/>
	<polygon class="st5" points="277.9,163.1 301.7,160.9 360.6,192.6 356.7,199.9 349.2,199.9 354.2,204.5 348.8,214.5 290.3,183 	"/>
	<path class="st4" d="M277.1,160.1l16.8-1.6c1.9-0.2,3.8,0.2,5.5,1.1l56.3,30.3l-3.9,7.3h-7.4l5,4.6l-5.4,10l-56.3-30.3
		c-1.5-0.8-2.7-2-3.6-3.4l-8.9-14.3c-0.7-1.2-0.4-2.8,0.8-3.5C276.4,160.2,276.8,160.1,277.1,160.1z"/>
	<g class="st6">
		<path d="M341.5,210.7c-0.2-0.9-0.5-1.7-1-2.4c-1.4-1.9-3.2-3.6-5.3-4.8c-6.5-4.6-13.5-8.5-20.8-11.6c-4.3-1.9-8.5-3.3-12.2-4.8
			c-3.4-1.2-6.7-2.6-9.9-4.2c-2.2-1.1-4.2-2.4-6.2-3.8c-0.7-0.5-1.2-1-1.5-1.2c-0.2-0.1-0.4-0.3-0.5-0.5c0,0,0.8,0.6,2.1,1.6
			c2,1.4,4,2.6,6.2,3.7c3.2,1.6,6.5,2.9,9.9,4.1c3.8,1.4,8,2.9,12.3,4.7c7.3,3.2,14.3,7.2,20.8,11.8c2.1,1.3,3.9,3,5.2,5
			c0.3,0.6,0.6,1.2,0.7,1.9c0,0.2,0.1,0.3,0.1,0.5C341.5,210.6,341.6,210.7,341.5,210.7z"/>
		<path d="M279.1,160.2c-0.3,1.1-0.3,2.2-0.1,3.3c0.3,1.3,0.8,2.5,1.5,3.5c1,1.4,2.2,2.6,3.6,3.6c3.5,2.8,7.2,5.3,11,7.6
			c4.3,2.6,9.2,5.2,14.4,7.9l26.6,13.6c3.4,1.8,6.1,3.2,8,4.2l2.2,1.2c0.3,0.1,0.5,0.3,0.7,0.4c-0.3-0.1-0.5-0.2-0.8-0.3L344,204
			l-8.1-4l-26.6-13.5c-5.2-2.7-10.1-5.3-14.4-8c-3.8-2.3-7.5-4.9-11-7.7c-1.4-1.1-2.6-2.3-3.6-3.8c-0.7-1.1-1.3-2.3-1.5-3.6
			c-0.2-0.8-0.2-1.7,0-2.5C278.9,160.7,279,160.4,279.1,160.2z"/>
		<path d="M302.3,171.1c-0.2-0.2-0.4-0.5-0.5-0.7c-0.5-0.7-1-1.4-1.5-2c-2-2.3-4.4-4.1-7.1-5.4c-0.9-0.4-1.8-0.8-2.8-1
			c-1-0.3-2.1-0.2-3.1,0.1c-1.1,0.4-1.9,1.2-2.1,2.3c-0.1,1.2,0.3,2.4,1,3.3c2.9,4.1,7.5,7.5,12.5,10.4c1.3,0.7,2.5,1.4,3.8,2.1
			c1.2,0.7,2.5,1,3.9,1.1c1.3,0.1,2.6-0.5,3.4-1.5c0.7-1,1-2.3,0.8-3.5c-0.2-1.2-0.6-2.3-1.2-3.4c-0.6-1-1.2-2-1.9-2.9
			c-1.2-1.7-2.5-3.3-4-4.8c-2.2-2.1-4.6-3.9-7.4-5.2c-1-0.5-1.7-0.8-2.2-1c-0.3-0.1-0.5-0.2-0.8-0.4c0.3,0.1,0.6,0.1,0.8,0.2
			c0.8,0.3,1.6,0.6,2.3,0.9c2.8,1.3,5.3,3,7.5,5.1c1.5,1.5,2.9,3.1,4.1,4.8c0.6,0.9,1.3,1.9,1.9,3c0.7,1.1,1.1,2.3,1.3,3.5
			c0.2,1.4-0.1,2.8-0.9,3.9c-0.9,1.1-2.3,1.7-3.8,1.7c-1.5-0.1-2.9-0.5-4.2-1.2c-1.3-0.6-2.5-1.4-3.8-2.1
			c-5.1-2.9-9.7-6.3-12.6-10.6c-0.8-1-1.2-2.3-1-3.6c0.3-1.2,1.2-2.2,2.4-2.6c1.1-0.4,2.2-0.4,3.3-0.1c1,0.2,1.9,0.6,2.9,1
			c3.6,1.6,6.5,4.3,8.6,7.6C302.1,170.5,302.2,170.8,302.3,171.1z"/>
		<path d="M354.1,193.3c0,0.1-0.8-0.3-2.3-0.6c-2.2-0.3-4.4-0.3-6.6,0c-2.8,0.3-6,1.2-9.8,1.2c-2,0-3.9-0.3-5.8-1
			c-2-0.7-3.9-1.7-5.6-3c-3.2-2.5-6-5.5-8.1-9c-1.7-2.8-3.3-5.7-4.6-8.7c-1.2-2.5-2.2-4.6-2.9-6l-0.8-1.6c-0.1-0.2-0.2-0.4-0.3-0.6
			c0.1,0.2,0.3,0.3,0.4,0.5c0.2,0.4,0.5,0.9,0.9,1.6c0.8,1.4,1.8,3.4,3.1,5.9c1.4,3,3,5.9,4.7,8.6c2.1,3.4,4.8,6.4,8,8.8
			c3.2,2.5,7,3.8,11.1,3.9c3.7,0,7-0.8,9.8-1.1c2.2-0.3,4.5-0.2,6.7,0.2c0.6,0.1,1.2,0.3,1.7,0.6C353.7,193,353.9,193.1,354.1,193.3
			z"/>
		<path d="M333.4,183.2c-0.2-0.1-0.4-0.1-0.6-0.2c-0.4-0.2-0.9-0.4-1.6-0.8s-1.5-0.8-2.5-1.4c-0.5-0.3-1-0.6-1.5-1
			c-0.6-0.3-1.1-0.8-1.5-1.4c-0.2-0.4-0.2-0.9,0.1-1.2c0.4-0.3,0.8-0.4,1.2-0.2c0.8,0.2,1.5,0.5,2.3,0.7c1.6,0.6,3.2,1.2,4.9,2
			c1.8,0.8,3.5,1.7,5.2,2.7c1,0.5,1.8,1.2,2.4,2.1c0.6,0.9,0.4,2.2-0.5,2.8c-0.1,0.1-0.3,0.2-0.4,0.2c-1,0.4-2.2,0.5-3.2,0.4
			c-1-0.1-2.1-0.2-3.1-0.4c-1.9-0.4-3.8-1-5.5-1.9c-5-2.6-8.7-7.1-10.4-12.5c-0.2-0.6-0.3-1.2-0.4-1.8c-0.1-0.2-0.1-0.4-0.1-0.6
			c0,0,0.2,0.9,0.7,2.3c0.7,2.1,1.7,4.1,3,5.8c1.9,2.6,4.5,4.8,7.4,6.3c1.7,0.9,3.5,1.5,5.4,1.9c1,0.2,2,0.3,3,0.4c1,0.1,2,0,3-0.3
			c0.4-0.2,0.8-0.5,0.9-1c0.1-0.4,0-0.9-0.2-1.3c-0.6-0.8-1.3-1.5-2.2-1.9c-1.7-1-3.4-1.9-5.1-2.7c-1.7-0.8-3.3-1.5-4.8-2
			c-0.8-0.3-1.5-0.6-2.2-0.8c-0.3-0.1-0.6-0.1-0.9,0.1c-0.2,0.2-0.2,0.5-0.1,0.8c0.4,0.5,0.8,1,1.4,1.3c0.5,0.4,1,0.7,1.5,1
			c0.9,0.6,1.8,1.1,2.4,1.5s1.2,0.7,1.6,0.9C333.1,182.9,333.3,183,333.4,183.2z"/>
	</g>
	<path class="st4" d="M371.2,138.7l-0.1-0.1l-16.9-10l-66.7-4.7l-0.6,8.3l6.3,4l-6.7,1.3l-0.8,11.3l62.5,4.4
		c2.5,0.2,4.9-0.3,7.1-1.4l12.4-6C370.4,144.6,371.2,141.7,371.2,138.7z"/>
	<path class="st5" d="M371.2,138.7l-0.1-0.1l-16.9-10l-66.7-4.7l-0.6,8.3l6.3,4l-6.7,1.3l-0.8,11.3l62.5,4.4
		c2.5,0.2,4.9-0.3,7.1-1.4l12.4-6C370.1,144.2,371.4,141.5,371.2,138.7z"/>
	<path class="st4" d="M370.2,137.4L356.9,127c-1.5-1.2-3.3-1.9-5.2-2l-63.8-4.5l-0.6,8.3l6.3,3.9l-6.7,1.3l-0.8,11.3l63.7,4.5
		c1.7,0.1,3.4-0.2,4.9-0.9l15.1-7.3c1.3-0.6,1.8-2.2,1.2-3.4C370.8,137.9,370.5,137.6,370.2,137.4z"/>
	<g class="st6">
		<path d="M288.7,145.7c0,0,0-0.1,0.1-0.1c0.1-0.1,0.2-0.3,0.3-0.4c0.5-0.5,1-0.9,1.6-1.2c2.2-1,4.7-1.5,7.1-1.5
			c8-0.5,16-0.1,23.9,1.1c4.6,0.7,9,1.7,12.9,2.6c3.5,0.8,7,1.4,10.6,1.8c2.4,0.3,4.8,0.3,7.2,0.2c1.7-0.1,2.6-0.2,2.6-0.2
			c-0.2,0.1-0.4,0.1-0.7,0.1c-0.7,0.1-1.3,0.2-2,0.2c-2.4,0.2-4.8,0.2-7.3,0c-3.6-0.4-7.1-0.9-10.6-1.7c-4-0.8-8.3-1.8-12.9-2.5
			c-7.9-1.2-15.8-1.6-23.8-1.2c-2.4,0-4.8,0.4-7,1.3C290.1,144.6,289.3,145.1,288.7,145.7z"/>
		<path d="M368.5,136.4c0,0.3-0.1,0.6-0.2,0.8c-0.3,0.8-0.7,1.5-1.3,2.1c-0.9,1-2,1.7-3.2,2.3c-1.6,0.7-3.3,1.1-5,1.3
			c-4.5,0.5-8.9,0.7-13.4,0.6c-5-0.1-10.6-0.4-16.4-1l-29.7-2.9l-9-0.9l-2.5-0.3c-0.3,0-0.6-0.1-0.8-0.1c0.3,0,0.6,0,0.9,0l2.5,0.2
			l9,0.8l29.7,2.7c5.8,0.5,11.3,0.9,16.4,1c4.5,0.1,8.9-0.1,13.4-0.5c1.7-0.2,3.4-0.5,5-1.2c1.2-0.5,2.3-1.2,3.1-2.1
			C367.6,138.3,368.1,137.4,368.5,136.4z"/>
		<path d="M343,133.2c0.2-0.2,0.5-0.3,0.8-0.4c0.7-0.4,1.5-0.7,2.3-0.9c2.9-1,6-1.3,9-0.9c1,0.1,2,0.3,3,0.6c1.1,0.3,2,1,2.8,1.9
			c0.8,1,1,2.3,0.6,3.5c-0.6,1.2-1.6,2.1-2.8,2.5c-4.8,2-10.5,2.5-16.4,2.2c-1.5-0.1-2.9-0.1-4.3-0.3c-1.4-0.1-2.9-0.5-4.1-1.2
			c-1.3-0.7-2.1-2-2.3-3.4c-0.1-1.4,0.4-2.7,1.3-3.8c0.8-0.9,1.9-1.7,3-2.3c1.1-0.6,2.1-1,3.2-1.5c1.9-0.8,3.9-1.4,6-1.8
			c3-0.6,6.1-0.7,9.1-0.3c0.8,0.1,1.6,0.2,2.4,0.4c0.3,0.1,0.6,0.1,0.8,0.2c-0.3,0-0.6-0.1-0.9-0.1c-0.5-0.1-1.4-0.2-2.4-0.3
			c-3-0.3-6-0.2-9,0.5c-2,0.4-4,1.1-5.9,1.9c-1,0.4-2.1,0.9-3.1,1.5c-1.1,0.5-2,1.3-2.9,2.2c-0.8,0.9-1.3,2.2-1.2,3.4
			c0.2,1.3,1,2.4,2.1,3.1c1.2,0.7,2.5,1.1,3.9,1.1c1.4,0.1,2.9,0.2,4.3,0.3c5.8,0.3,11.5-0.1,16.1-2.1c1.1-0.4,2.1-1.2,2.6-2.2
			c0.4-1.1,0.2-2.2-0.5-3.1c-0.7-0.8-1.5-1.4-2.5-1.8c-0.9-0.3-1.9-0.5-2.9-0.7c-3-0.4-6-0.1-8.9,0.8c-1,0.3-1.8,0.6-2.3,0.9
			C343.5,133,343.3,133.1,343,133.2z"/>
		<path d="M287.4,124.3c0.2,0,0.4,0,0.6,0.1c0.6,0.1,1.2,0.3,1.8,0.5c2.1,0.8,4,1.9,5.8,3.4c2.2,1.7,4.6,4.2,7.7,6.1
			c3.4,2.1,7.4,3,11.4,2.6c4-0.4,7.9-1.4,11.5-3.2c3-1.4,5.8-3,8.6-4.8c2.4-1.5,4.4-2.6,5.8-3.3c0.7-0.4,1.2-0.6,1.6-0.8
			c0.2-0.1,0.4-0.2,0.6-0.2c-0.2,0.1-0.3,0.2-0.5,0.3l-1.6,0.9c-1.4,0.8-3.3,2-5.7,3.5c-2.8,1.8-5.6,3.4-8.6,4.9
			c-3.7,1.8-7.6,2.9-11.7,3.3c-2.1,0.2-4.2,0-6.3-0.4c-1.9-0.4-3.8-1.2-5.4-2.3c-3.2-2-5.5-4.5-7.7-6.3c-1.7-1.4-3.6-2.6-5.6-3.5
			C289,124.7,288.2,124.5,287.4,124.3z"/>
		<path d="M310.2,126.8c0.2,0,0.4,0,0.6,0c0.4,0,1,0.1,1.8,0.1s1.7,0.1,2.9,0.1c0.6,0,1.1,0,1.8-0.1c0.6,0,1.3-0.1,1.9-0.4
			c0.3-0.1,0.4-0.4,0.4-0.7c-0.1-0.3-0.4-0.4-0.7-0.6c-0.7-0.2-1.5-0.4-2.3-0.6c-1.6-0.4-3.3-0.6-5.2-0.9s-3.8-0.4-5.8-0.4
			c-1-0.1-2,0-2.9,0.4c-0.4,0.2-0.7,0.6-0.9,1c-0.1,0.5,0,0.9,0.3,1.3c0.6,0.8,1.4,1.4,2.4,1.9c0.9,0.5,1.8,0.9,2.8,1.3
			c1.8,0.7,3.7,1.1,5.6,1.3c3.3,0.3,6.5-0.2,9.6-1.4c2.1-0.8,4-1.9,5.7-3.3c1.2-1,1.8-1.6,1.8-1.6s-0.1,0.2-0.4,0.5
			c-0.4,0.5-0.8,0.9-1.2,1.3c-4.3,3.7-9.8,5.5-15.4,5c-2-0.2-3.9-0.6-5.7-1.3c-1-0.4-1.9-0.8-2.8-1.3c-1-0.5-1.9-1.1-2.5-2
			c-0.4-0.5-0.5-1.1-0.3-1.7c0.2-0.6,0.6-1.1,1.1-1.3c1-0.4,2.1-0.6,3.1-0.5c1.9,0,3.9,0.2,5.8,0.4c1.9,0.2,3.6,0.6,5.2,0.9
			c0.8,0.2,1.6,0.4,2.3,0.6c0.4,0.1,0.8,0.4,0.9,0.9c0.1,0.4-0.1,0.9-0.5,1.1c-0.6,0.3-1.3,0.4-2,0.4c-0.6,0-1.2,0-1.8,0
			c-1.1,0-2.1-0.1-2.9-0.1s-1.4-0.1-1.8-0.2C310.7,127,310.5,126.9,310.2,126.8z"/>
	</g>
	<polygon class="st4" points="275.8,94.1 296.2,106.6 363.1,104.2 362.8,95.9 356.1,92.6 362.6,90.6 362.2,79.3 295.8,81.7 	"/>
	<polygon class="st5" points="275.8,94.1 296.2,106.6 363.1,104.2 362.8,95.9 356.1,92.6 362.6,90.6 362.2,79.3 295.8,81.7 	"/>
	<path class="st4" d="M273.8,96.5l14.4,8.8c1.6,1,3.5,1.5,5.4,1.4l63.9-2.3l-0.3-8.3l-6.7-3.3l6.5-2l-0.4-11.4l-63.9,2.3
		c-1.7,0.1-3.3,0.6-4.8,1.4l-14.2,8.9c-1.2,0.7-1.6,2.3-0.8,3.5C273.2,96,273.5,96.3,273.8,96.5z"/>
	<g class="st6">
		<path d="M354,79.5c0,0.1-0.1,0.1-0.1,0.2c-0.1,0.1-0.2,0.3-0.3,0.4c-0.4,0.5-0.9,1-1.5,1.3c-2.1,1.2-4.5,2-6.9,2.2
			c-7.9,1.3-15.9,1.8-23.9,1.4c-4.7-0.2-9.1-0.8-13.1-1.2c-3.6-0.4-7.1-0.7-10.7-0.7c-2.4,0-4.8,0.2-7.2,0.6
			c-1.7,0.3-2.6,0.5-2.6,0.4c0.2-0.1,0.4-0.1,0.7-0.2c0.4-0.1,1.1-0.3,1.9-0.4c2.4-0.5,4.8-0.7,7.2-0.7c3.6,0,7.2,0.2,10.8,0.6
			c4,0.4,8.4,0.9,13.1,1.2c8,0.4,15.9-0.1,23.8-1.3c2.4-0.2,4.7-0.9,6.9-2C352.7,80.8,353.4,80.2,354,79.5z"/>
		<path d="M275.7,97.3c0-0.3,0.1-0.6,0.1-0.8c0.2-0.8,0.6-1.6,1.1-2.2c0.8-1.1,1.8-1.9,2.9-2.6c1.5-0.8,3.2-1.4,4.9-1.8
			c4.4-1,8.8-1.6,13.3-2c5-0.5,10.6-0.7,16.4-0.8l29.9-0.3h9h2.5c0.3,0,0.6,0,0.9,0c-0.3,0-0.6,0.1-0.9,0.1l-2.5,0.1l-9,0.2
			l-29.9,0.4c-5.8,0.1-11.4,0.3-16.4,0.7c-4.5,0.4-8.9,1.1-13.3,2c-1.7,0.3-3.3,0.9-4.8,1.7c-1.1,0.6-2.1,1.4-2.9,2.5
			C276.4,95.2,275.9,96.2,275.7,97.3z"/>
		<path d="M301.2,97.7c-0.2,0.2-0.5,0.4-0.7,0.5c-0.7,0.4-1.4,0.8-2.2,1.2c-2.8,1.3-5.8,1.9-8.9,1.9c-1,0-2-0.1-3-0.3
			c-1.1-0.2-2.1-0.8-2.9-1.6c-0.9-0.9-1.3-2.2-1-3.4c0.4-1.2,1.4-2.2,2.5-2.8c4.5-2.5,10.2-3.6,16-3.9c1.5-0.1,2.9-0.2,4.4-0.2
			c1.4-0.1,2.9,0.2,4.2,0.8c1.3,0.6,2.3,1.8,2.7,3.2c0.2,1.4-0.1,2.8-0.9,3.9c-0.7,1-1.7,1.9-2.8,2.6c-1,0.7-2,1.3-3,1.8
			c-1.9,1-3.8,1.8-5.8,2.5c-2.9,0.9-5.9,1.4-9,1.3c-0.8,0-1.7-0.1-2.5-0.2c-0.3,0-0.6-0.1-0.9-0.1c0.3,0,0.6,0,0.9,0
			c0.6,0,1.4,0.1,2.5,0.1c3,0,6-0.5,8.9-1.4c2-0.7,3.9-1.5,5.7-2.5c1-0.6,2-1.1,3-1.8c1-0.6,1.9-1.5,2.6-2.5c0.7-1,1-2.3,0.8-3.5
			c-0.3-1.3-1.2-2.3-2.4-2.8c-1.3-0.5-2.6-0.8-4-0.7c-1.4,0-2.9,0.1-4.3,0.2c-5.8,0.3-11.4,1.3-15.8,3.8c-1.1,0.5-1.9,1.4-2.3,2.5
			c-0.2,1.1,0.1,2.2,0.9,3c0.7,0.8,1.7,1.3,2.7,1.5c1,0.2,2,0.3,2.9,0.3c3,0.1,6-0.5,8.8-1.7c0.8-0.3,1.5-0.7,2.2-1.1
			C300.8,97.9,301,97.8,301.2,97.7z"/>
		<path d="M357.5,100.7c-0.2,0-0.4,0-0.6,0c-0.6,0-1.2-0.1-1.8-0.3c-2.2-0.6-4.2-1.5-6.1-2.8c-2.4-1.5-5-3.7-8.3-5.3
			c-3.6-1.7-7.7-2.2-11.6-1.4c-3.9,0.8-7.7,2.3-11.1,4.4c-2.8,1.7-5.5,3.6-8,5.7c-2.2,1.7-4.1,3.1-5.4,3.9c-0.6,0.4-1.2,0.8-1.5,1
			c-0.2,0.1-0.4,0.2-0.6,0.3c0.2-0.1,0.3-0.3,0.5-0.4l1.5-1.1c1.3-0.9,3.1-2.3,5.3-4.1c2.5-2.1,5.2-4,8-5.8
			c3.4-2.2,7.3-3.7,11.2-4.5c2.1-0.4,4.2-0.5,6.3-0.2c2,0.2,3.9,0.8,5.6,1.7c3.4,1.7,5.9,3.9,8.3,5.4c1.8,1.2,3.8,2.2,6,2.8
			C356.6,100.6,357.5,100.6,357.5,100.7z"/>
		<path d="M334.6,100.6c-0.2,0-0.4,0-0.6,0c-0.4,0-1,0-1.8,0.1s-1.7,0.1-2.8,0.3c-0.5,0.1-1.1,0.2-1.8,0.3c-0.6,0-1.3,0.2-1.8,0.6
			c-0.3,0.1-0.4,0.4-0.3,0.7c0.2,0.3,0.4,0.5,0.8,0.5c0.7,0.1,1.5,0.2,2.3,0.3c1.6,0.2,3.4,0.3,5.2,0.3c1.9,0,3.9,0,5.8-0.2
			c1,0,2-0.3,2.8-0.7c0.4-0.2,0.7-0.6,0.8-1.1c0.1-0.5-0.1-0.9-0.4-1.3c-0.7-0.7-1.6-1.3-2.5-1.6c-0.9-0.4-1.9-0.7-2.9-1
			c-1.9-0.5-3.8-0.7-5.7-0.7c-3.3,0-6.5,0.8-9.4,2.4c-2,1-3.7,2.3-5.3,3.9c-1.1,1.1-1.6,1.8-1.7,1.8c0.1-0.2,0.2-0.4,0.4-0.5
			c0.4-0.5,0.7-1,1.2-1.4c3.8-4.1,9.2-6.5,14.8-6.6c2,0,3.9,0.2,5.8,0.7c1,0.3,2,0.6,3,1c1,0.4,2,1,2.8,1.8c0.4,0.5,0.6,1.1,0.5,1.7
			c-0.1,0.6-0.5,1.1-1,1.4c-0.9,0.5-2,0.8-3.1,0.8c-1.9,0.2-3.9,0.2-5.8,0.2c-1.9,0-3.6-0.2-5.3-0.4c-0.8-0.1-1.6-0.2-2.4-0.4
			c-0.4-0.1-0.8-0.3-1-0.7c-0.1-0.4,0-0.9,0.4-1.2c0.6-0.4,1.3-0.6,2-0.6c0.6-0.1,1.2-0.2,1.8-0.2c1.1-0.1,2.1-0.2,2.9-0.2
			s1.4,0,1.8,0C334.2,100.5,334.4,100.5,334.6,100.6z"/>
	</g>
</g>
<g id="freepik--Floor--inject-18">
	<path class="st3" d="M448.9,237.2c0,0.1-87.3,0.3-194.9,0.3s-194.9-0.2-194.9-0.3s87.3-0.3,194.9-0.3S448.9,237,448.9,237.2z"/>
</g>
<g id="freepik--Plants--inject-18">
	<path class="st3" d="M69.4,400.6c-0.1,0-0.4-1.5-1.2-3.9c-1-3.1-2.1-6.1-3.5-9c-1.4-2.9-3-5.7-4.8-8.4c-1.4-2-2.3-3.3-2.3-3.3
		c0.3,0.2,0.5,0.5,0.8,0.8c0.5,0.5,1.1,1.3,1.8,2.3c1.9,2.6,3.6,5.4,5,8.4c1.4,2.9,2.6,6,3.4,9.1c0.3,1.2,0.6,2.2,0.7,2.9
		C69.3,399.9,69.4,400.2,69.4,400.6z"/>
	<path class="st3" d="M76,404.9c-0.1,0-2.7-8.4-5.6-18.8s-5.3-18.9-5.1-18.9s2.7,8.4,5.6,18.8S76.1,404.9,76,404.9z"/>
	<path class="st3" d="M81.4,382.4c-0.1,1.1-0.2,2.3-0.4,3.4c-0.3,2.1-0.6,5-0.8,8.2s-0.2,6.1-0.1,8.2c0.1,1.1,0.1,2.3,0,3.4
		c-0.1-0.3-0.2-0.6-0.2-0.9c-0.1-0.6-0.2-1.4-0.2-2.5c-0.2-2.8-0.2-5.5,0-8.3c0.1-2.8,0.4-5.5,0.9-8.2c0.2-1,0.3-1.9,0.5-2.5
		C81.2,382.9,81.2,382.6,81.4,382.4z"/>
	<path class="st3" d="M366.7,210.8c0.1,0,2,5.8,4,13.1s3.7,13.2,3.5,13.3s-2-5.8-4-13.1S366.6,210.8,366.7,210.8z"/>
	<path class="st3" d="M378.6,212.7c0.1,0-0.3,1.4-0.7,3.6c-0.6,2.9-0.9,5.8-1,8.7c-0.1,2.9,0.1,5.8,0.5,8.7c0.3,2.2,0.6,3.6,0.5,3.6
		c-0.1-0.3-0.2-0.6-0.3-0.9c-0.2-0.9-0.4-1.7-0.6-2.6c-1-5.8-0.8-11.8,0.5-17.5c0.2-0.9,0.4-1.7,0.7-2.6
		C378.3,213.3,378.4,212.9,378.6,212.7z"/>
	<path class="st3" d="M386,217.3c0.1,0.1-0.6,1-1.6,2.7c-1.2,2.2-2.2,4.5-3,6.9c-0.7,2.4-1.2,4.9-1.5,7.4c-0.2,1.9-0.2,3.1-0.3,3.1
		c-0.1-0.3-0.1-0.6-0.1-0.8c0-0.8,0-1.5,0-2.3c0.3-5.1,1.8-10.1,4.5-14.4c0.4-0.7,0.8-1.3,1.3-1.9
		C385.7,217.5,385.9,217.3,386,217.3z"/>
	<path class="st4" d="M320.7,306.4c-0.5-2,0.8-4.1,2.3-5.6s3.3-2.8,4.1-4.8c1.3-3.2-0.4-7.3,1.7-10c1.3-1.6,3.6-2.1,4.7-3.8
		c0.5-0.9,0.9-1.9,1-3c1.2-5.3,3.8-10.2,7.5-14.1c0.2,4.7-0.8,9.4-3,13.6c-1,1.6-1.8,3.3-2.2,5.1c-0.5,3,1.2,6.1,0.5,9.1
		c-0.9,3.4-4.7,5.7-4.9,9.2c-0.1,3,2.4,5.5,2.2,8.5c-0.2,1.3-0.6,2.5-1.3,3.5c-2.3,3.8-5.6,6.4-10.7,6.3l-6.2,0.2L320.7,306.4z"/>
	<g class="st7">
		<path d="M320.7,306.4c-0.5-2,0.8-4.1,2.3-5.6s3.3-2.8,4.1-4.8c1.3-3.2-0.4-7.3,1.7-10c1.3-1.6,3.6-2.1,4.7-3.8
			c0.5-0.9,0.9-1.9,1-3c1.2-5.3,3.8-10.2,7.5-14.1c0.2,4.7-0.8,9.4-3,13.6c-1,1.6-1.8,3.3-2.2,5.1c-0.5,3,1.2,6.1,0.5,9.1
			c-0.9,3.4-4.7,5.7-4.9,9.2c-0.1,3,2.4,5.5,2.2,8.5c-0.2,1.3-0.6,2.5-1.3,3.5c-2.3,3.8-5.6,6.4-10.7,6.3l-6.2,0.2L320.7,306.4z"/>
	</g>
	<path class="st3" d="M315.1,321c-0.6,0.1-1.1,0.1-1.7,0c-0.7-0.1-1.4-0.3-2-0.5c-0.9-0.3-1.7-0.8-2.5-1.4c-0.4-0.4-0.8-0.8-1-1.4
		c-0.2-0.6-0.3-1.2-0.3-1.9c0-0.7-0.1-1.3-0.1-2c-0.1-0.7-0.4-1.4-0.8-2c-0.7-1.3-2-2.5-2.4-4.3c-0.3-1.8-0.2-3.7,0.2-5.5
		c0.5-1.9,0.4-3.9-0.1-5.9c-0.7-2-2-3.7-2.7-5.9s-0.4-4.6-0.5-7c0-1.2-0.3-2.4-0.8-3.5c-0.5-1.1-1.2-2.1-1.8-3.3
		c-1.1-2.4-1.3-5-1.6-7.6c-0.1-1.3-0.3-2.6-0.4-4c-0.1-1.4-0.3-2.7-0.7-4c-0.4-1.3-0.9-2.6-1.5-3.9c-0.3-0.6-0.5-1.3-0.7-2
		c-0.1-0.7-0.2-1.4-0.2-2.1c-0.1-1.4,0-2.9,0.2-4.3c0.2-1.4,0.4-2.9,0.6-4.3v-0.2v-0.3l0.2,0.1c1.3,0.7,2.5,1.6,3.4,2.8
		c0.9,1.2,1.6,2.4,2.1,3.8c0.9,2.7,1.5,5.4,1.9,8.2c0.4,2.6,1.3,5.2,2.6,7.5c0.7,1.1,1.5,2.1,2.2,3.2c0.8,1.1,1.3,2.3,1.5,3.5
		c0.4,2.6-1.1,5-0.8,7.3c0.1,1.1,0.5,2.2,1.1,3.2c0.6,1,1.2,1.9,1.9,2.9c0.6,0.9,1.2,1.9,1.7,2.9c0.4,1,0.7,2,0.8,3.1
		c0.1,2.1-0.1,4.1,0,6c0.2,1.8,0.7,3.5,1.5,5.1c0.8,1.5,1.6,2.9,2.3,4.3c0.4,0.7,0.7,1.3,0.9,2c0.3,0.6,0.4,1.3,0.5,2
		c0.2,1.2,0.2,2.4,0,3.6c-0.2,1.7-0.8,3.2-1.8,4.5c-0.2,0.2-0.3,0.4-0.5,0.5c-0.1,0.1-0.3,0.2-0.4,0.3
		C315.3,321,315.1,321.1,315.1,321c0.4-0.3,0.8-0.7,1.2-1.1c1-1.3,1.5-2.9,1.7-4.5c0.1-1.2,0.1-2.3-0.1-3.5
		c-0.1-0.7-0.3-1.3-0.5-1.9c-0.3-0.7-0.6-1.4-1-2c-0.7-1.3-1.5-2.7-2.3-4.2c-0.9-1.6-1.4-3.4-1.6-5.2c-0.2-1.9,0.1-3.9,0-6
		c-0.1-1-0.3-2.1-0.8-3c-0.5-1-1-1.9-1.7-2.8c-0.6-0.9-1.3-1.9-1.9-2.9c-0.6-1-1-2.2-1.2-3.4c-0.3-2.5,1.1-4.8,0.8-7.3
		c-0.2-1.2-0.8-2.4-1.5-3.4c-0.7-1.1-1.5-2.1-2.2-3.2c-1.3-2.4-2.2-5-2.6-7.7c-0.4-2.7-1-5.5-1.9-8.1c-0.5-1.3-1.2-2.6-2-3.7
		c-0.8-1.1-1.9-2.1-3.2-2.7l0.3-0.2v0.2c-0.2,1.5-0.4,2.9-0.6,4.3c-0.2,1.4-0.2,2.8-0.2,4.2c0,0.7,0.1,1.4,0.2,2.1
		c0.2,0.7,0.4,1.3,0.7,1.9c0.6,1.3,1.1,2.6,1.5,3.9c0.4,1.3,0.6,2.7,0.7,4.1c0.1,1.3,0.3,2.7,0.4,4c0.3,2.6,0.5,5.2,1.6,7.5
		c0.5,1.1,1.2,2.2,1.8,3.3c0.5,1.1,0.8,2.4,0.8,3.6c0.1,2.4-0.2,4.8,0.5,6.9s2,3.9,2.7,5.9c0.6,2,0.6,4,0.1,6
		c-0.4,1.8-0.5,3.6-0.2,5.4c0.4,1.7,1.5,2.9,2.3,4.2c0.4,0.6,0.7,1.3,0.8,2.1c0.1,0.7,0.1,1.3,0.1,2c0,0.6,0.1,1.2,0.3,1.8
		c0.2,0.5,0.6,1,1,1.3c0.7,0.6,1.6,1,2.4,1.4c0.6,0.2,1.3,0.4,2,0.5c0.4,0.1,0.8,0.1,1.3,0.1L315.1,321z"/>
	<path class="st3" d="M295.5,247.6c0,0.1,0.1,0.1,0.1,0.2c0,0.1,0.1,0.3,0.1,0.6c0.1,0.5,0.3,1.2,0.5,2.2s0.8,2,1.3,3.3
		c0.6,1.4,1.1,2.9,1.5,4.4c0.5,1.7,0.9,3.5,1.3,5.5c0.4,2.1,1.1,4.2,2,6.1c0.5,1,1.1,2,1.5,3.2c0.4,1.2,0.8,2.4,0.9,3.6
		c0.3,2.5,0.8,5.1,1.3,7.5c1.2,5.1,2.4,10,3.5,14.4l3,11.7c0.8,3.3,1.5,6,2,7.9c0.2,0.9,0.4,1.6,0.5,2.2l0.1,0.6c0,0.1,0,0.2,0,0.2
		c0-0.1-0.1-0.1-0.1-0.2l-0.2-0.6c-0.1-0.5-0.3-1.2-0.6-2.1l-2.1-7.9c-0.9-3.3-1.9-7.3-3-11.7s-2.3-9.3-3.6-14.4
		c-0.6-2.5-1-5-1.3-7.6c-0.1-1.2-0.4-2.4-0.9-3.5c-0.4-1.1-1-2.1-1.5-3.1c-1-2-1.6-4-2-6.2c-0.4-2-0.8-3.8-1.3-5.5s-0.9-3.1-1.4-4.4
		s-1-2.3-1.2-3.3s-0.3-1.7-0.4-2.2c0-0.2-0.1-0.4-0.1-0.6C295.5,247.7,295.5,247.7,295.5,247.6z"/>
	<path class="st4" d="M314,321.1c-4.1-2.4-5.2-9.8-3.5-14.2s4.7-8.5,5.1-13.2c0.4-3.6-0.8-7.3,0-10.9c1.1-4.8,5.8-8.5,5.8-13.4
		c0-2.8-1.6-5.4-1.5-8.1c0.1-3.4,2.7-6.1,4.4-9c2.5-4.5,2.6-9.9,3.5-15s2.8-10.6,7.3-13.1c0.7,4.3,1.8,7.3,1.5,13.2
		c-0.1,2.1-2.6,6.1-2.9,10.8c-0.2,2.8-0.3,5.5-0.5,8.3c0,2.7-0.5,5.4-1.3,7.9c-0.7,1.9-1.9,3.7-2.5,5.7c-1,3.8,0.3,7.8-0.5,11.6
		c-0.7,3.2-2.9,6-3.4,9.2c-0.6,4.6,2.3,9.3,0.8,13.7c-0.8,2.2-2.5,3.9-3,6.1c-0.4,1.7,0,3.6-0.3,5.3c-0.6,2.8-5.9,5-8.8,4.8"/>
	<path class="st3" d="M333.9,228.4c0,0.1,0,0.2,0,0.2c0,0.2,0,0.4-0.1,0.7c-0.1,0.6-0.2,1.6-0.4,2.7s-0.8,2.6-1.3,4.2
		s-1,3.5-1.5,5.6s-0.9,4.4-1.3,6.9c-0.3,2.7-1,5.3-2.1,7.8c-0.6,1.3-1.2,2.6-1.7,4c-0.5,1.4-0.8,2.9-0.9,4.4
		c-0.2,3.2-0.6,6.4-1.2,9.5c-1.2,6.4-2.4,12.5-3.5,18.1s-2.2,10.5-3,14.8s-1.6,7.6-2.1,9.9c-0.2,1.1-0.5,2-0.6,2.7
		c-0.1,0.3-0.1,0.5-0.2,0.7c0,0.1,0,0.2-0.1,0.2c0-0.1,0-0.2,0-0.2c0-0.2,0.1-0.4,0.1-0.7c0.1-0.6,0.3-1.6,0.5-2.7
		c0.5-2.4,1.1-5.8,2-10s1.8-9.2,2.9-14.8s2.2-11.7,3.5-18.1c0.6-3.1,1-6.3,1.2-9.5c0.1-1.5,0.4-3,0.9-4.5c0.5-1.4,1.1-2.7,1.7-4
		c1.1-2.5,1.8-5,2.1-7.7c0.4-2.5,0.8-4.8,1.3-6.9c0.4-1.9,0.9-3.7,1.5-5.6c0.5-1.6,1.2-3,1.4-4.1s0.4-2.1,0.5-2.7l0.1-0.7
		L333.9,228.4z"/>
	<path class="st4" d="M401.7,414.8c2,0.9,3.5,2.6,4.1,4.7c0.7,2.1,0.9,4.2,0.5,6.4c-0.5,4.1-2.8,8.3-5.3,11.6c-3.5-3-4.3-8.3-4.5-11
		C396.2,422.1,398.1,414.2,401.7,414.8"/>
	<path class="st4" d="M405.1,444.3c-0.5-2.4,0.4-4.9,2.2-6.5c1.9-1.6,4.3-2.3,6.7-2.1c1.1,0,2.2,0.5,2.9,1.3c0.6,0.9,0.6,2.1,0,3
		c-0.5,0.9-1.3,1.6-2.2,2.2C411.8,444.1,408.5,445.4,405.1,444.3"/>
	<path class="st3" d="M400.7,457c0-0.3,0.1-0.6,0.1-0.9l0.4-2.3c0.4-2.6,1.2-5,2.4-7.3c1.2-2.3,3-4.2,5.3-5.6c0.7-0.4,1.4-0.7,2.1-1
		c0.2-0.1,0.4-0.1,0.6-0.1c0.1,0,0.1,0,0.2,0c-1,0.3-2,0.8-2.9,1.3c-2.1,1.4-3.9,3.3-5.1,5.6c-1.2,2.3-2,4.7-2.4,7.2
		c-0.2,1-0.4,1.7-0.5,2.3C400.8,456.4,400.8,456.7,400.7,457z"/>
	<path class="st3" d="M400.8,421c0,0.1,0,0.2,0,0.4c0,0.3,0,0.6,0.1,1.1c0,0.9,0.1,2.3,0.1,3.9c0.1,3.3,0.2,7.9,0.2,13
		s-0.1,9.6-0.3,12.9c-0.1,1.6-0.1,3-0.2,3.9c0,0.4,0,0.8-0.1,1.1c0,0.1,0,0.2,0,0.4c0-0.1,0-0.2,0-0.4c0-0.3,0-0.6,0-1.1
		c0-1,0.1-2.3,0.1-3.9c0.1-3.3,0.2-7.9,0.2-12.9s0-9.6-0.1-12.9c0-1.6,0-3-0.1-3.9v-1.1C400.7,421.3,400.8,421.1,400.8,421z"/>
	<path class="st4" d="M399.1,446.8c-0.9-5.1-4.1-9.4-8.7-11.7c-1.2-0.6-2.7-0.9-3.6-0.1s-0.7,2.4-0.3,3.6c2.1,5.1,7,8.5,12.6,8.5"/>
	<path class="st3" d="M390.9,439c0.3,0.1,0.5,0.2,0.7,0.3c0.3,0.1,0.6,0.3,0.8,0.4c0.3,0.2,0.7,0.4,1.1,0.7c0.4,0.3,0.8,0.6,1.2,0.9
		c0.4,0.4,0.9,0.8,1.3,1.2c0.9,1,1.8,2,2.5,3.1c0.7,1.2,1.2,2.4,1.6,3.7c0.2,0.6,0.3,1.2,0.4,1.7c0.1,0.5,0.2,1,0.2,1.5
		c0,0.4,0,0.8,0,1.2c0,0.3,0,0.6,0,1c0,0.3,0,0.5-0.1,0.8c-0.1,0,0-1.1-0.2-3c-0.1-0.5-0.1-1-0.2-1.5c-0.1-0.6-0.3-1.1-0.4-1.7
		c-0.8-2.5-2.2-4.8-4-6.7c-0.4-0.4-0.8-0.8-1.2-1.2c-0.4-0.4-0.8-0.6-1.2-0.9C392,439.6,390.9,439.1,390.9,439z"/>
	<path class="st3" d="M371.2,384c-0.1,0.2-0.1,0.3-0.2,0.5c-0.2,0.4-0.5,0.8-0.8,1.3s-0.8,1.3-1.2,2.1s-1,1.8-1.5,2.8
		c-1.1,2.1-2.3,4.7-3.6,7.6c-1.3,3.2-2.4,6.4-3.4,9.7c-1,3.5-1.8,6.9-2.3,10s-0.9,5.9-1.1,8.3c-0.1,1.2-0.2,2.3-0.2,3.2
		s-0.1,1.8-0.1,2.4s0,1.1,0,1.5c0,0.2,0,0.4-0.1,0.5c0-0.2-0.1-0.4,0-0.5c0-0.4,0-0.9,0-1.5s0-1.5,0-2.4s0-2,0.1-3.2
		c0.2-2.8,0.5-5.6,1-8.4c0.6-3.4,1.4-6.8,2.3-10.1c1-3.3,2.1-6.5,3.5-9.7c1.3-2.9,2.5-5.5,3.7-7.6c0.6-1.1,1.1-2,1.6-2.8
		s0.9-1.5,1.3-2.1s0.6-0.9,0.9-1.3S371.2,383.9,371.2,384z"/>
	<path class="st3" d="M355.4,398.4c0,0.4,0,0.9-0.1,1.3c-0.1,1-0.2,2.2-0.3,3.7c-0.3,3.1-0.7,7.4-1,12.1s-0.5,9-0.6,12.1l-0.2,3.7
		c0,0.5,0,0.9-0.1,1.4c-0.1-0.4-0.1-0.9-0.1-1.4c0-0.9,0-2.1,0-3.7c0-3.1,0.2-7.4,0.5-12.1s0.8-9,1.1-12.1c0.2-1.5,0.4-2.8,0.5-3.6
		C355.2,399.2,355.3,398.8,355.4,398.4z"/>
	<path class="st3" d="M340.1,411.5c0.3,0.2,0.5,0.4,0.7,0.6c0.6,0.6,1.2,1.3,1.8,1.9c1.8,2.2,3.3,4.7,4.5,7.4
		c1.2,2.6,1.9,5.4,2.3,8.3c0.1,0.9,0.2,1.7,0.2,2.6c0,0.3,0,0.7,0,1c-0.1,0-0.2-1.4-0.6-3.5c-1-5.6-3.3-10.9-6.8-15.5
		C341,412.5,340,411.5,340.1,411.5z"/>
	<path class="st3" d="M401.4,246.7c0.2,0.1,0.3,0.3,0.5,0.5l1.3,1.4l0.9,1c0.3,0.4,0.7,0.8,1,1.3c0.7,0.9,1.6,1.9,2.4,3.1l1.3,1.9
		c0.5,0.7,0.9,1.4,1.3,2.1c1,1.5,1.8,3.1,2.7,4.8c3.9,7.5,6.4,15.6,7.4,24c0.2,1.9,0.4,3.8,0.5,5.5c0,0.9,0.1,1.7,0.1,2.5v2.3
		c0,1.5-0.1,2.8-0.2,3.9c0,0.6-0.1,1.1-0.1,1.6s-0.1,0.9-0.2,1.4c-0.1,0.8-0.2,1.4-0.3,1.9c0,0.2-0.1,0.4-0.1,0.6c0-0.2,0-0.4,0-0.7
		c0-0.5,0.1-1.1,0.2-1.9c0-0.4,0.1-0.9,0.1-1.4s0.1-1,0.1-1.6c0-1.1,0.2-2.5,0.1-3.9v-2.3c0-0.8-0.1-1.6-0.1-2.5
		c0-1.7-0.3-3.5-0.5-5.5c-1.1-8.3-3.6-16.4-7.4-23.8c-0.9-1.7-1.7-3.3-2.6-4.8c-0.5-0.7-0.9-1.5-1.3-2.1c-0.4-0.7-0.9-1.3-1.3-1.9
		c-0.8-1.2-1.6-2.2-2.3-3.2c-0.4-0.5-0.7-0.9-1-1.3l-0.9-1l-1.2-1.4C401.6,247.1,401.5,246.9,401.4,246.7z"/>
	<path class="st3" d="M431.2,266.5c-0.1,0.5-0.2,1-0.4,1.5c-0.3,1-0.7,2.3-1.2,4c-2.4,8.9-3.9,18-4.2,27.3c-0.1,1.8-0.1,3.2-0.1,4.2
		c0,0.5,0,1-0.1,1.5c-0.1-0.5-0.1-1-0.1-1.5c0-1-0.1-2.4,0-4.2c0.2-9.3,1.6-18.5,4.3-27.4c0.5-1.7,1-3.1,1.3-4
		C430.8,267.4,431,266.9,431.2,266.5z"/>
	<path class="st3" d="M433.4,286.1c-1.3,2.3-2.4,4.7-3.3,7.1c-0.8,2.5-1.3,5.1-1.8,7.6c-0.1-0.8-0.1-1.6,0-2.3
		c0.2-1.9,0.6-3.7,1.2-5.5c0.6-1.8,1.4-3.5,2.4-5.1C432.3,287.2,432.8,286.6,433.4,286.1z"/>
</g>
<g id="freepik--Character--inject-18">
	<polygon class="st4" points="147.9,431.1 146.5,463.5 129,463.1 130.3,430.6 	"/>
	<path class="st3" d="M137.9,462.1c-0.1,0,0.1-7.1,0.6-15.9s1-15.9,1.1-15.9s-0.1,7.1-0.6,15.9S138,462.1,137.9,462.1z"/>
	<polygon class="st3" points="146.6,461.3 129.1,460.9 129,463.1 146.5,463.5 	"/>
	<path class="st3" d="M129.4,452.8c0.1-0.3,0.3-0.5,0.5-0.7c0.5-0.6,1-1.1,1.6-1.6c0.9-0.7,1.9-1.3,2.9-1.8
		c3.8-1.6,8.2-0.6,10.8,2.5c0.5,0.6,0.9,1.3,1.2,2c0.1,0.3,0.2,0.5,0.2,0.8c-0.5-0.9-1.1-1.7-1.7-2.5c-1.7-1.8-4-2.9-6.4-3
		c-2.5,0-4.9,0.8-6.8,2.3C130.2,451.9,129.4,452.8,129.4,452.8z"/>
	<g class="st7">
		<polygon points="129.9,439.9 129.8,443.5 147.3,443.8 147.4,441.1 		"/>
	</g>
	<path class="st4" d="M189.1,433l-0.9,19.8c0,0,19.8,7.5,20,11.2l-38.4-0.3l0.1-30.9L189.1,433z"/>
	<path class="st2" d="M176.7,451.1c-0.8,0.2-1.3,1-1.1,1.8c0.2,0.8,1,1.3,1.8,1.1c0.8-0.2,1.3-1.1,1.2-1.9c-0.3-0.8-1.1-1.3-2-1
		c0,0,0,0,0,0"/>
	<path class="st3" d="M169.9,463.7v-3.1L207,462c0,0,1.7,0.8,1.5,2L169.9,463.7z"/>
	<path class="st3" d="M188.6,452.9c0,0.2-0.9,0.3-1.9,0.9s-1.4,1.4-1.6,1.3s0.1-1.2,1.3-1.9S188.7,452.7,188.6,452.9z"/>
	<path class="st3" d="M192.7,454.6c0,0.2-0.8,0.5-1.4,1.3s-0.8,1.6-1,1.6s-0.3-1.1,0.5-2S192.7,454.4,192.7,454.6z"/>
	<path class="st3" d="M194.9,459.5c-0.2,0-0.4-0.9,0.1-1.9s1.4-1.4,1.4-1.3s-0.5,0.7-0.9,1.5S195.1,459.5,194.9,459.5z"/>
	<path class="st3" d="M188.3,448.4c-0.1,0.2-1-0.1-2,0s-1.9,0.4-2,0.2s0.7-0.8,2-0.9S188.4,448.2,188.3,448.4z"/>
	<path class="st3" d="M189,444.1c-0.6,0.2-1.3,0.2-1.9,0c-0.7-0.1-1.4-0.3-2-0.6c-0.4-0.2-0.8-0.4-1.1-0.6c-0.2-0.1-0.4-0.3-0.6-0.5
		c-0.3-0.3-0.3-0.7-0.1-1c0.2-0.3,0.5-0.4,0.8-0.4c0.2,0,0.5,0,0.7,0.1c0.4,0.1,0.8,0.2,1.2,0.4c0.7,0.3,1.3,0.7,1.8,1.2
		c0.9,0.8,1.2,1.5,1.1,1.6s-0.5-0.5-1.4-1.2c-0.5-0.4-1.1-0.7-1.7-1c-0.4-0.1-0.7-0.3-1.1-0.4c-0.4-0.1-0.8-0.1-0.9,0.1s0,0.1,0,0.2
		c0.1,0.1,0.3,0.2,0.4,0.3c0.3,0.2,0.7,0.4,1,0.6c0.6,0.3,1.2,0.6,1.9,0.7C187.8,443.7,188.4,443.9,189,444.1z"/>
	<path class="st3" d="M188.8,444.4c-0.4-0.6-0.5-1.2-0.5-1.9c0-0.7,0.1-1.4,0.3-2.1c0.1-0.4,0.3-0.8,0.5-1.2c0.2-0.5,0.7-0.9,1.2-1
		c0.4,0,0.7,0.2,0.8,0.5c0.1,0.2,0.2,0.5,0.2,0.7c0.2,1.2-0.1,2.4-0.9,3.3c-0.8,1-1.6,1.2-1.6,1.2s0.6-0.5,1.2-1.4
		c0.3-0.5,0.6-1.2,0.6-1.8c0-0.4,0-0.7,0-1.1c-0.1-0.4-0.2-0.7-0.4-0.7s-0.5,0.3-0.7,0.6c-0.2,0.3-0.4,0.7-0.5,1
		c-0.2,0.6-0.4,1.3-0.4,1.9C188.7,443.6,188.9,444.3,188.8,444.4z"/>
	<g class="st7">
		<polygon points="169.9,444.7 169.9,449.1 188.4,449.1 188.4,445.1 		"/>
	</g>
	<polyline class="st3" points="159.3,307.2 153.6,361.9 149.5,444.2 127.8,444.2 127.2,269 189.4,273.4 202.3,365.4 191.1,445.8 
		167.3,445.8 172.9,369.3 159.3,307.2 	"/>
	<path class="st8" d="M159.2,307.2c1.3,1.5,2.7,2.9,4.2,4.2c1.4,1.4,2.9,2.7,4.6,3.8c-1.3-1.5-2.7-2.9-4.2-4.2
		C162.4,309.6,160.9,308.3,159.2,307.2z"/>
	<path class="st8" d="M159.3,306.1c0.1-2.3,0-4.7-0.1-7c0-2.3-0.1-4.7-0.4-7c-0.3,2.3-0.3,4.7-0.1,7
		C158.7,301.5,158.9,303.8,159.3,306.1z"/>
	<path class="st8" d="M152.1,285.7c-0.1,0-0.2,0-0.4,0l-1.1-0.1l-4.1-0.2l-14.7-0.6h-0.3v0.2c0,4.6,0,9.8,0,15.3v0.5l0.2,0.1
		l9.6,3.8h0.1h0.1l8.5-2.9l0.1,0v-0.1c0.6-4.8,1.1-8.7,1.5-11.6c0.2-1.3,0.3-2.4,0.4-3.2C152.1,286.5,152.1,286.1,152.1,285.7
		c0,0.1,0,0.2-0.1,0.4c0,0.2-0.1,0.5-0.1,0.9c-0.1,0.8-0.3,1.9-0.5,3.2c-0.4,2.8-1,6.7-1.7,11.4l0.1-0.2l-8.5,2.9h0.2l-9.6-3.9
		l0.2,0.2v-0.3c0-5.5,0-10.7,0-15.3l-0.2,0.2l14.6,0.4l4.2,0.1L152.1,285.7L152.1,285.7z"/>
	<path class="st8" d="M183.5,286h-0.3h-1l-3.7-0.1l-13.4-0.3h-0.2v0.2c0.1,4.5,0.3,9.8,0.5,15.3v0.1l0.1,0.1l1.6,1l7.9,5.1l0.1,0.1
		l0.1-0.1l8.9-5.4l0.1-0.1v-0.1c-0.2-4.8-0.3-8.7-0.4-11.6c-0.1-1.3-0.1-2.4-0.1-3.2S183.4,285.9,183.5,286
		c-0.1,0.1-0.1,0.2-0.1,0.3v0.9c0,0.8,0,1.9,0,3.2c0,2.8,0.1,6.7,0.2,11.4l0.1-0.2l-8.9,5.3h0.3l-7.8-5.2l-1.6-1l0.1,0.2
		c-0.2-5.6-0.4-10.8-0.6-15.3L165,286l13.3,0.1h4.8L183.5,286z"/>
	<path class="st8" d="M133.9,310.8c1,0.1,2,0,2.9-0.1c1.8-0.1,4.3-0.4,7.1-0.7s5.2-0.8,7-1.1c1-0.1,1.9-0.4,2.9-0.7
		c-1,0-2,0.1-2.9,0.3l-7,0.9l-7,0.9C135.9,310.4,134.9,310.5,133.9,310.8z"/>
	<path class="st8" d="M134.4,371.7c0,0,0.1,0.3,0.5,0.7c0.6,0.5,1.4,0.8,2.2,0.8c1.2,0,2.3-0.5,3.2-1.2c1.1-0.9,2.1-1.9,3-3
		c1.7-1.9,3.1-4,4.4-6.2c0.6-0.9,1-1.8,1.4-2.8c-0.6,0.8-1.2,1.7-1.7,2.6c-1.4,2.1-2.9,4.1-4.5,6c-0.9,1.1-1.8,2-2.9,3
		c-0.8,0.7-1.8,1.2-2.9,1.2c-0.7,0-1.5-0.1-2.1-0.5C134.6,371.9,134.5,371.7,134.4,371.7z"/>
	<path class="st8" d="M177.3,373.6c0,0,0,0.3,0.3,0.7c0.4,0.6,0.9,1.1,1.5,1.4c0.9,0.5,1.9,0.8,3,0.8c1.3-0.1,2.5-0.4,3.6-1.1
		c1.9-1.3,3.4-3.1,4.3-5.1c0.5-0.8,0.8-1.7,1.1-2.6c-0.5,0.8-1,1.6-1.4,2.4c-1,1.9-2.5,3.6-4.3,4.9c-1,0.6-2.1,1-3.3,1.1
		c-1,0-1.9-0.2-2.8-0.6C178.5,375,177.8,374.3,177.3,373.6z"/>
	<path class="st8" d="M175.9,365.4c0.5,0.4,1.1,0.8,1.8,1c1.5,0.6,3.2,1,4.9,1.1c1.7,0.1,3.4-0.1,5-0.7c0.7-0.2,1.3-0.5,1.9-0.9
		c-2.2,0.7-4.5,1-6.8,1C180.4,366.7,178.1,366.2,175.9,365.4z"/>
	<path class="st9" d="M158.5,174.4l-23.4-0.3l2.6-19.3c0,0-1.6-0.3-1.7-8.7s-0.5-22.6-0.5-22.6l0,0c10.1-4.2,21.6-2.8,30.3,3.7
		l1.3,1L158.5,174.4z"/>
	<path class="st9" d="M164.3,138.4c0.1-0.1,6-1.7,5.8,4s-6.1,4.4-6.1,4.2S164.3,138.4,164.3,138.4z"/>
	<path class="st9" d="M136.4,137.2c-0.1-0.1-5.4-1.4-5.2,4.3s6.1,4.4,6.1,4.2S136.4,137.2,136.4,137.2z"/>
	<path class="st3" d="M166.2,137.8c-0.9,4.8-0.7,7.3-1.5,10.5c-1.3,5.1-3.9,9-8.6,11.5s-11.1,2.5-15.2-1c-2.8-2.4-4.8-5.1-5.2-8.7
		s-0.8-10-0.9-13.6c0-6.5-0.5-12.8-0.5-12.8l19.4-3.4l11,6.3L166.2,137.8z"/>
	<path class="st3" d="M146.2,162.7c1.1,0.4,2.3,0.5,3.4,0.3c1.2,0,2.3-0.4,3.2-1c0-0.1-1.5,0.3-3.3,0.5S146.3,162.6,146.2,162.7z"/>
	<path class="st3" d="M165.3,145.9c0.6-4.9,0.9-10.5,1.7-15.7c0.3-2,1-4.7,0.8-6.7c-0.1-2-0.5-3.9-1.3-5.8c-1.2-2.3-3.4-3.9-5.9-4.4
		c-2.5-0.5-5.2,0.2-7.2,1.8c-1.5-2.1-4.1-3.1-6.6-2.5c-2.5,0.6-4.4,2.6-4.8,5.1c-1.5-1.3-3.6-1.5-5.3-0.6c-1.6,1-2.4,2.9-1.9,4.8
		c-1.4,0.2-2.6,1.1-3.2,2.4c-0.6,1.3-0.4,2.7,0.3,3.9c0.9,1.3,2.5,2.1,3.5,3.3c1.1,1.5,1.3,3.5,0.3,5.2"/>
	<path class="st8" d="M138.4,128.2c0,0.2,0.1,0.4,0.2,0.5c0.3,0.5,0.7,0.9,1.1,1.2c0.7,0.5,1.6,0.8,2.5,0.8c1.2,0,2.3-0.5,3.1-1.4
		l-0.4-0.1c0.3,1.3,1.3,2.4,2.6,2.9c1.5,0.5,3.1,0.3,4.4-0.5c1.1-0.7,2-1.8,2.5-3.1l-0.5,0.1c1,1.4,2.6,2.3,4.4,2.3
		c1.4,0,2.7-0.5,3.7-1.4c0.6-0.6,1.1-1.4,1.3-2.2c0.1-0.3,0.1-0.6,0.1-0.9c0,0-0.1,0.3-0.3,0.9c-0.3,0.8-0.8,1.5-1.4,2
		c-0.9,0.8-2.2,1.3-3.4,1.2c-1.6-0.1-3.1-0.9-4-2.2l-0.3-0.4l-0.2,0.5c-0.4,1.2-1.2,2.2-2.3,2.9c-1.1,0.8-2.6,1-3.9,0.5
		c-1.1-0.4-2-1.3-2.3-2.5l-0.1-0.5L145,129c-1.3,1.4-3.5,1.7-5.1,0.7C139.3,129.3,138.8,128.8,138.4,128.2z"/>
	<path class="st8" d="M138.5,125.9c0.1-0.7,0.4-1.5,0.8-2.1c0.5-0.7,1.2-1.1,2-1.3c1-0.2,2.1,0,2.9,0.5l0.5,0.3l-0.1-0.6
		c0-0.6,0-1.1,0.2-1.6c0.4-1.2,1.3-2.1,2.4-2.7c0.9-0.4,2-0.5,3-0.3c0.9,0.3,1.8,0.7,2.5,1.4c0,0-0.1-0.3-0.5-0.6
		c-0.6-0.5-1.2-0.9-1.9-1.1c-2.5-0.8-5.2,0.6-6,3.1c-0.2,0.6-0.3,1.2-0.2,1.9l0.4-0.2c-1-0.7-2.2-0.9-3.4-0.6
		c-0.9,0.2-1.7,0.8-2.2,1.6c-0.3,0.5-0.5,1.1-0.6,1.6C138.4,125.7,138.4,125.9,138.5,125.9z"/>
	<path class="st8" d="M150.8,126.1c0.1,0,0-0.3,0-0.8c0.1-0.6,0.3-1.2,0.6-1.7c0.4-0.6,0.9-1.2,1.1-1.5s0.6-0.1,0.6-0.1
		s0-0.1-0.1-0.2c-0.2-0.1-0.5-0.1-0.7,0.1c-0.2,0.2-0.5,0.4-0.7,0.7c-0.2,0.3-0.5,0.6-0.7,0.9c-0.4,0.6-0.6,1.3-0.5,2
		C150.5,125.8,150.7,126.1,150.8,126.1z"/>
	<path class="st8" d="M162.2,118.9c0.1,0,0-0.4-0.4-1c-0.2-0.4-0.5-0.7-0.9-0.9c-0.5-0.3-1-0.4-1.6-0.3c-0.9,0.2-1.8,0.7-2.4,1.4
		c-0.4,0.5-0.6,0.9-0.6,0.9s0.4-0.2,0.9-0.7c0.6-0.6,1.3-1,2.1-1.2c0.8-0.1,1.6,0.3,2.1,0.9C162,118.5,162.2,118.9,162.2,118.9z"/>
	<path class="st8" d="M159.2,143.2c1.8-2.2,2.8-4.9,2.8-7.8c-0.2,0-0.5,1.8-1.2,3.9S159.1,143.1,159.2,143.2z"/>
	<path class="st8" d="M156.7,144.5c0.7-0.8,1.1-1.6,1.4-2.6c0.4-0.9,0.7-1.9,0.7-2.9c-0.5,0.8-0.9,1.7-1.2,2.7
		C157.2,142.6,156.8,143.6,156.7,144.5z"/>
	<path class="st8" d="M140.4,144.9c-0.3,1.7,0,3.4,0.7,5c0.6,1.7,1.6,3.1,3,4.2c-0.9-1.4-1.7-2.9-2.4-4.4
		C141,148.2,140.6,146.6,140.4,144.9z"/>
	<path class="st8" d="M137.8,140.7c-0.6,1.4-0.8,3-0.4,4.5c0.2,1.6,0.9,3,2,4.1c-0.6-1.4-1.1-2.8-1.5-4.2
		C137.7,143.7,137.7,142.2,137.8,140.7z"/>
	<path class="st4" d="M106.4,220.9v24c0,0,18,39.8,18,39.2s6.4-25.1,6.4-25.1l-7.2-19.1l-0.7-12.5l-14.9-29.7c0,0-3.7,20-3.1,21.2
		C105.4,219.6,105.8,220.3,106.4,220.9z"/>
	<path class="st4" d="M128.8,173.3c0,0-16.4,8.5-18.4,11.1s-2.4,13.3-2.4,13.3l20.8,41.6l1,16.8c0,0-6.3,13-6.3,22.2v1l-1,12.5
		l25,2.2c0,0,1.4-6.9,1.4-6.3s1.8,6.3,1.8,6.3h41.4l-1.5-27.6l-7.1-42.6c0,0,3-24.4,3.1-25.3c0.3-1.6,26.5-13.2,26.5-13.2l12.4-6.7
		c3.2-1.7,5.2-5.1,5.2-8.8l0,0c0-3.8-2.2-7.2-5.5-8.9l-34.8-17.2l-8.1,13.6l10.6,6.8l7.6,5.3l-21.1,2c0,0-3.8-4.9-5.4-4.9
		s-14.5,3-14.5,3l0.2-3.2c0,0-3.4-3.8-7.3-3.6s-20,4.9-20,4.9L128.8,173.3z"/>
	<path class="st9" d="M187.6,148.6L187.6,148.6l-9.1-5.3l-13.8-7.5c0,0-4.6-3.5-6.4-3.4c-1.5,0.3-2.9,1.2-3.7,2.6
		c-0.1,0.4,0.7,1.2,1.8,0.9c0.4-0.1,1.4-0.9,2-0.8c1.1,0.3,2,0.9,2.6,1.9c0.2,0.3,0.2,0.7-0.1,0.9c-0.1,0.1-0.2,0.1-0.4,0.1
		c0,0-7.8-2-10.8-0.4c-0.7,0.3-1.1,1.2-0.8,1.9c0.2,0.5,0.8,1,2.1,0.7c2.8-0.5,7.3,1.6,7.3,1.6s-10.2-0.3-11.9,0.5
		c-0.7,0.3-1.4,2.6,0.6,2.8c2.4,0.3,7.2,0.2,7.2,0.2s4.5,0.6,3.8,1.5s-7.7,0.9-8.2,1s-2.9,0-2.8,1.9c0.1,1.1,2.1,1.8,4.8,1.7
		c2.2-0.1,9.2-0.2,10,1.1s0.3,2.2-0.4,2.5c-2,0.5-4.1,0.8-6.2,1c-0.9,0-2.1,1.7,0.1,2.2c2.4,0.6,4.5,0.1,6.6,0.1s4.8,0.2,10.7-2.1
		c0,0,4-1.8,9.4,1.3L187.6,148.6z"/>
	<path class="st3" d="M158.6,169.8c0,0.1-6.4,1-14.3,2s-14.3,1.6-14.3,1.5s6.4-1,14.3-2S158.5,169.6,158.6,169.8z"/>
	<path class="st3" d="M157.1,258.2c0.1-0.2,0.2-0.4,0.4-0.6l1.1-1.6c1-1.4,2.3-3.4,4-5.9s3.5-5.5,5.5-9s4-7.3,6.1-11.4
		s3.8-8.1,5.3-11.8s2.7-7,3.7-9.9s1.7-5.1,2.2-6.8c0.2-0.8,0.4-1.4,0.6-1.8c0.1-0.2,0.1-0.4,0.2-0.6c0,0.2-0.1,0.4-0.1,0.7
		c-0.1,0.5-0.3,1.1-0.5,1.9c-0.4,1.6-1.1,4-2.1,6.8s-2.1,6.2-3.6,9.9s-3.2,7.7-5.2,11.8s-4.1,8-6.1,11.4s-3.9,6.4-5.6,8.9
		s-3.1,4.5-4.1,5.8l-1.2,1.5C157.5,257.9,157.3,258,157.1,258.2z"/>
	<path class="st3" d="M123.2,284.1c0-0.2,0-0.4,0-0.6c0-0.4,0.1-0.9,0.2-1.6c0.2-1.4,0.4-3.4,0.9-6c1.3-6.8,3.1-13.5,5.3-20.1v0.1
		c-0.2-3.5-0.4-7.2-0.7-11.1c-0.1-1.9-0.2-3.8-0.3-5.6v0.1c-4.5-8.7-8.1-16.4-10.6-22.1c-1.3-2.8-2.2-5.1-2.9-6.7
		c-0.3-0.8-0.5-1.4-0.7-1.8c-0.1-0.2-0.1-0.4-0.2-0.6c0.1,0.2,0.2,0.4,0.3,0.6l0.8,1.8c0.7,1.6,1.7,3.8,3,6.6
		c2.6,5.6,6.3,13.3,10.8,22l0,0v0.1c0.1,1.8,0.2,3.7,0.3,5.6c0.2,3.9,0.5,7.6,0.7,11.1l0,0v0c-2.3,6.5-4.1,13.2-5.5,19.9
		c-0.5,2.5-0.8,4.5-1,5.9l-0.2,1.6C123.4,283.7,123.3,283.9,123.2,284.1z"/>
	<path class="st3" d="M150.4,276c-0.2,3.1-0.6,6.1-1.1,9.2c-0.4,3.1-0.9,6.1-1.6,9.1c0.2-3.1,0.6-6.1,1.1-9.2
		C149.1,282,149.7,279,150.4,276z"/>
	<path class="st3" d="M180,191.1c-0.2-0.2-0.4-0.5-0.5-0.7c-0.3-0.5-0.7-1.2-1.2-2.1c-1.2-2.4-2.2-4.9-2.9-7.5
		c-0.7-2.6-1.2-5.2-1.3-7.9c-0.1-1-0.1-1.9-0.1-2.4c0-0.3,0-0.6,0.1-0.9c0.1,0,0.1,1.3,0.3,3.3c0.5,5.3,2,10.5,4.2,15.3
		C179.1,189.1,179.6,190.1,180,191.1z"/>
	<g class="st7">
		<path d="M158.2,256.3c2.1,0.9,4.5,0.7,6.4-0.4c1.9-1.2,3.6-2.7,4.9-4.4c10.5-12.7,15.7-29,14.6-45.5
			c-5.9,17.6-14.4,34.2-25.2,49.3"/>
	</g>
	<g class="st7">
		<path d="M115.1,210.3c-0.9-1-2-1.9-3.3-2.4c-1.2-0.5-2.6,0.1-3.1,1.3c-0.1,0.7,0,1.4,0.3,2c1.9,5.7,3.9,11.5,7.7,16.2
			c0.7,0.8,1.5,1.4,2.4,1.9c0.9,0.6,3.3,1.1,3.7,0.1c0.2-0.8,0.2-1.7,0-2.5c0,0-5.4-11-8-16.6"/>
	</g>
	<g class="st7">
		<path d="M200.4,169.5c2.4,0.6,4.9,0.5,7.3-0.1c-3.8-2.8-8.6-3.5-13.3-4.1L200.4,169.5"/>
	</g>
	<path class="st3" d="M215.8,169.9c-0.8,0.1-1.6,0.1-2.3,0l-5.6-0.2l-5.6-0.1c-0.8,0-1.6,0-2.3-0.1c0.8-0.2,1.5-0.3,2.3-0.2
		c1.4-0.1,3.4-0.1,5.6-0.1s4.2,0.2,5.6,0.3C214.3,169.5,215.1,169.7,215.8,169.9z"/>
	<path class="st3" d="M112.2,237.2c0-0.1,0.5,0.3,1.3,0.9c0.9,0.8,2,1.4,3.1,1.9c1.1,0.5,2.3,0.6,3.5,0.5c0.9-0.2,1.4-0.5,1.5-0.4
		s-0.4,0.5-1.4,0.8c-1.3,0.3-2.6,0.2-3.8-0.3c-1.2-0.5-2.2-1.3-3.1-2.1C112.6,237.6,112.2,237.2,112.2,237.2z"/>
	<polygon class="st5" points="150.4,277.9 155.3,294 150.9,294 148.8,286.8 	"/>
</g>
</svg>
