<?xml version="1.0" encoding="utf-8"?>
<!-- Generator: Adobe Illustrator 24.2.3, SVG Export Plug-In . SVG Version: 6.00 Build 0)  -->
<svg version="1.1" id="Calque_1" xmlns="http://www.w3.org/2000/svg" xmlns:xlink="http://www.w3.org/1999/xlink" x="0px" y="0px"
	 viewBox="0 0 500 500" style="enable-background:new 0 0 500 500;" xml:space="preserve">
<style type="text/css">
	.st0{fill:#E0E0E0;}
	.st1{fill:#EBEBEB;}
	.st2{fill:#F5F5F5;}
	.st3{fill:#455A64;}
	.st4{fill:#263238;}
	.st5{fill:#FAFAFA;}
	.st6{fill:#407BFF;}
	.st7{opacity:0.3;}
	.st8{opacity:0.5;}
	.st9{fill:#08ACC1;}
	.st10{fill:#FFBE9D;}
	.st11{opacity:0.2;}
	.st12{opacity:0.6;}
	.st13{fill:#FFFFFF;}
	.st14{fill:#EB996E;}
</style>
<g>
	<path class="st0" d="M234.1,430.8c-4.9-11.2-13.7-20.2-24.8-25.5c-11-5.1-35.4-2.8-35.4-2.8l-64.3-0.1c1.3,5.7,5.5,20.2,8.6,25
		c3.1,4.9,7.8,9,13.3,10.6c6.8,1.9,14.1-0.1,21.1-0.5c12.5-0.8,24.7,3.2,36.7,6.7s24.7,6.4,36.9,3.5c3.4-0.8,7.1-2.4,8.7-5.5
		C236.8,438.7,235.7,434.4,234.1,430.8z"/>
	<g id="freepik--background-complete--inject-9">
		<path class="st1" d="M37.4,203.9c0,0-6.4-0.5-5.8,13.8c0.6,14.3,2,21.9,2,21.9s-0.2,3.2-2.6,2.5s-7.1-3.7-9.4-1.4
			s-1.5,6.1,1.6,10.4s9.7,14,10.3,14.9c0.6,0.9,0.8,2.5-0.9,2.3s-13.5-4.1-15,1.6c-1.6,5.7,9.2,16.3,10.3,17.5s1.2,1.9,0.7,2.6
			s-4.3-1-7.7-2s-7.5-1.6-8.1,1.8s4.1,13.2,21.8,23.5l8.5,4.3l8.1-5.1c16.6-12.1,20.3-22.3,19.3-25.6c-1-3.3-5-2.3-8.3-1
			s-6.9,3.4-7.4,2.8c-0.5-0.7-0.5-1.4,0.5-2.7s10.6-12.9,8.5-18.4c-2.1-5.5-13.4-0.4-15.1,0c-1.7,0.3-1.6-1.3-1.2-2.2
			s6-11.3,8.7-15.9c2.7-4.6,3.2-8.4,0.6-10.5c-2.6-2.1-6.8,1.5-9.2,2.3c-2.4,0.9-2.9-2.3-2.9-2.3s0.7-7.7-0.2-22
			c-0.8-14.3-7.3-13.1-7.3-13.1"/>
		<path class="st0" d="M37.9,216.7c0,0,0,0.1,0,0.3s0,0.5,0.1,0.9c0.1,0.8,0.1,1.9,0.2,3.4c0.2,2.9,0.4,7.2,0.7,12.4
			c0.6,10.5,1.3,25,2,41s1.3,30.5,1.9,41.1c0.3,5.2,0.5,9.5,0.6,12.4c0.1,1.5,0.1,2.6,0.2,3.4c0,0.4,0,0.7,0,0.9c0,0.1,0,0.2,0,0.3
			c0,0,0-0.1,0-0.3c0-0.2,0-0.5-0.1-0.9c-0.1-0.8-0.1-1.9-0.2-3.4c-0.2-2.9-0.4-7.2-0.7-12.4c-0.6-10.5-1.3-25-2-41.1
			s-1.3-30.5-1.9-41.1c-0.3-5.2-0.5-9.5-0.6-12.4c-0.1-1.5-0.1-2.6-0.2-3.4c0-0.4,0-0.7,0-0.9C37.9,216.8,37.9,216.8,37.9,216.7z"/>
		<path class="st0" d="M28,245.4c0.2,0.1,0.4,0.3,0.5,0.4c0.3,0.3,0.8,0.7,1.4,1.3c1.1,1.1,2.6,2.7,4.3,4.5l4.2,4.6l1.3,1.4
			c0.2,0.2,0.3,0.3,0.4,0.5c-0.2-0.1-0.4-0.3-0.5-0.4c-0.3-0.3-0.8-0.7-1.3-1.3c-1.1-1.1-2.6-2.7-4.2-4.5l-4.1-4.5
			c-0.5-0.5-0.9-1-1.3-1.4C28.3,245.7,28.1,245.6,28,245.4z"/>
		<path class="st0" d="M40.8,257.7c-0.1-0.1,3.1-3.3,6.9-7.2c3.9-3.9,7.1-7.1,7.2-7c0.1,0.1-3.1,3.3-7,7.2
			C44.1,254.6,40.9,257.8,40.8,257.7z"/>
		<path class="st0" d="M40.8,282.4c0.2-0.1,0.4-0.3,0.6-0.4l1.7-0.9c1.4-0.8,3.3-1.9,5.4-3.2c2.1-1.3,4-2.5,5.3-3.4l1.6-1.1
			c0.2-0.1,0.4-0.3,0.6-0.4c-0.2,0.2-0.3,0.3-0.5,0.5c-0.4,0.3-0.9,0.7-1.5,1.1c-1.3,0.9-3.2,2.2-5.3,3.5s-4,2.4-5.5,3.1
			c-0.7,0.4-1.3,0.7-1.7,0.8C41.3,282.2,41,282.3,40.8,282.4z"/>
		<path class="st0" d="M26.7,273.8c0.2,0.1,0.4,0.2,0.6,0.3l1.5,0.9c1.3,0.7,3.1,1.8,5,2.9s3.7,2.2,5,3c0.6,0.4,1.1,0.7,1.5,0.9
			c0.2,0.1,0.4,0.2,0.5,0.4c-0.2-0.1-0.4-0.2-0.6-0.3l-1.5-0.8c-1.3-0.7-3.1-1.8-5-2.9s-3.7-2.2-5-3c-0.6-0.4-1.1-0.7-1.5-0.9
			C27,274.1,26.9,273.9,26.7,273.8z"/>
		<path class="st0" d="M23.9,295.6c0.3,0.1,0.5,0.2,0.7,0.4l2,1.1c1.7,0.9,4,2.2,6.4,3.7c2.5,1.5,4.8,2.8,6.4,3.8l1.9,1.2
			c0.2,0.1,0.5,0.3,0.7,0.5c-0.3-0.1-0.5-0.2-0.7-0.4l-2-1.1c-1.7-0.9-4-2.2-6.4-3.7s-4.8-2.8-6.4-3.8l-1.9-1.2
			C24.4,295.9,24.1,295.7,23.9,295.6z"/>
		<path class="st0" d="M41.8,305.8c0.2-0.2,0.5-0.4,0.7-0.5l2.1-1.3c1.7-1.1,4.1-2.5,6.8-4.2c2.6-1.7,4.9-3.3,6.6-4.5l2-1.4
			c0.2-0.2,0.5-0.3,0.7-0.5c-0.2,0.2-0.4,0.4-0.7,0.6c-0.5,0.4-1.1,0.9-1.9,1.5c-1.6,1.2-4,2.8-6.6,4.6c-2.6,1.7-5,3.2-6.8,4.2
			c-0.9,0.5-1.6,0.9-2.1,1.2C42.4,305.5,42.1,305.7,41.8,305.8z"/>
		<polygon class="st0" points="54.6,320.4 31,320.4 38.7,378.6 46.9,378.6 		"/>
		<path class="st2" d="M32.3,327.6c0,0,0,0.1,0.1,0.2c0.2,0.2,0.3,0.3,0.6,0.4c0.8,0.3,1.8,0.2,2.5-0.3c0.9-0.5,1.8-1.6,3.1-2
			c1.4-0.5,2.9-0.4,4.3,0.1c1.4,0.5,2.8,1.1,4,2c1.1,0.7,2.2,1.2,3.3,1.8c0.8,0.3,1.6,0.6,2.4,0.7c0.2,0,0.5,0.1,0.7,0
			c0.2,0,0.2,0,0.2,0c-1.1-0.2-2.2-0.5-3.2-1c-1.1-0.5-2.2-1.2-3.2-1.8c-1.3-0.8-2.7-1.5-4.1-2c-1.5-0.5-3.1-0.6-4.6,0
			c-0.6,0.3-1.2,0.6-1.7,1.1c-0.4,0.4-0.9,0.7-1.4,1c-0.7,0.5-1.5,0.6-2.3,0.4C32.7,328,32.5,327.8,32.3,327.6z"/>
		<path class="st2" d="M33.1,338.3c0,0,0.2-0.2,0.6-0.6c0.5-0.5,1.2-0.9,1.9-1.2c1-0.4,2.2-0.5,3.3-0.5c1.4,0.1,2.7,0.3,4.1,0.6
			c1.4,0.3,2.8,0.3,4.2,0.2c1.1-0.1,2.3-0.5,3.3-0.9c0.7-0.3,1.4-0.7,2-1.2c0.2-0.2,0.4-0.3,0.6-0.6c-0.9,0.6-1.8,1.1-2.7,1.5
			c-1,0.4-2.1,0.7-3.2,0.8c-1.4,0.1-2.7,0.1-4.1-0.2c-1.4-0.3-2.8-0.4-4.1-0.5c-1.2,0-2.3,0.2-3.4,0.6c-0.7,0.3-1.4,0.7-1.9,1.3
			c-0.1,0.2-0.3,0.3-0.4,0.5C33.1,338.2,33.1,338.3,33.1,338.3z"/>
		<path class="st2" d="M51.9,344c-0.2-0.2-0.4-0.3-0.7-0.3c-0.6-0.2-1.3-0.4-1.9-0.4c-1-0.1-2,0-2.9,0.2c-1.1,0.2-2.3,0.5-3.5,0.7
			c-1.1,0.3-2.3,0.4-3.5,0.4c-1,0-1.9-0.2-2.8-0.6c-0.8-0.4-1.5-0.9-2.1-1.6c0.1,0.2,0.2,0.4,0.4,0.6c0.4,0.5,1,0.9,1.6,1.2
			c0.9,0.4,1.9,0.7,2.9,0.7c1.2,0,2.4-0.1,3.6-0.4c1.3-0.3,2.4-0.6,3.5-0.8c0.9-0.2,1.9-0.3,2.9-0.2C50.2,343.6,51.1,343.7,51.9,344
			z"/>
		<path class="st2" d="M35.2,352.1c0.7-0.3,1.5-0.4,2.3-0.2c0.8,0.2,1.6,0.5,2.4,0.9c1,0.5,2,0.8,3.1,0.9c2,0.2,3.9-0.3,5.6-1.3
			c0.5-0.3,1-0.7,1.4-1.1c0.3-0.3,0.4-0.5,0.4-0.5c-0.6,0.5-1.3,0.9-1.9,1.3c-1.7,0.9-3.6,1.3-5.5,1.2c-2.2-0.1-3.9-1.5-5.5-1.6
			c-0.6-0.1-1.2-0.1-1.8,0.2C35.4,351.9,35.2,352.1,35.2,352.1z"/>
		<path class="st2" d="M36.5,363.3c0.7,0,1.3-0.1,2-0.4c1.2-0.4,2.6-1.3,4.4-2c0.8-0.3,1.6-0.5,2.5-0.5c0.7,0,1.4,0.2,2,0.5
			s1.1,0.7,1.4,1.2c0-0.2-0.1-0.3-0.2-0.5c-0.3-0.4-0.7-0.8-1.1-1c-0.7-0.4-1.4-0.6-2.1-0.6c-0.9,0-1.8,0.2-2.6,0.5
			c-1.8,0.7-3.2,1.6-4.3,2.1S36.5,363.2,36.5,363.3z"/>
		<path class="st2" d="M37.7,368.5c0.5,0.2,1,0.4,1.5,0.5c1.2,0.3,2.5,0.5,3.7,0.6c1.3,0.1,2.5,0.2,3.8,0.1c0.5,0,1.1-0.1,1.6-0.2
			c0-0.1-2.4,0-5.3-0.3C40,368.9,37.7,368.3,37.7,368.5z"/>
		
			<rect x="409.3" y="229.7" transform="matrix(0.9749 -0.2227 0.2227 0.9749 -45.4654 105.7141)" class="st2" width="73.4" height="49.5"/>
		<path class="st0" d="M476.7,222.7c-0.1,0.3-0.3,0.6-0.5,0.8l-1.6,2.2l-6,8.1c-5.1,6.8-12.1,16.1-19.9,26.4l-0.2,0.2l-0.2-0.1
			l-0.6-0.3l-30.2-14.7l-9.1-4.5l-2.4-1.3c-0.3-0.1-0.6-0.3-0.8-0.5c0.3,0.1,0.6,0.2,0.9,0.4l2.5,1.1l9.2,4.3l30.2,14.5l0.6,0.3
			l-0.4,0.1c7.8-10.3,14.9-19.5,20.1-26.3c2.6-3.3,4.6-6,6.1-7.9l1.7-2.1C476.3,223.1,476.5,222.9,476.7,222.7z"/>
		<path class="st0" d="M416.2,287.3c-0.2-0.1,3.7-7.9,8.6-17.5s9.1-17.3,9.2-17.2c0.2,0.1-3.7,7.9-8.6,17.5
			C420.5,279.7,416.3,287.4,416.2,287.3z"/>
		<path class="st0" d="M457.7,246.5c0.1-0.1,6.9,5.2,15.2,11.9c8.3,6.7,14.9,12.3,14.8,12.5s-6.9-5.2-15.2-12
			C464.2,252.2,457.6,246.7,457.7,246.5z"/>
		
			<rect x="160.8" y="88.4" transform="matrix(0.225 -0.9744 0.9744 0.225 28.7051 256.1277)" class="st2" width="29.2" height="43.3"/>
		<path class="st0" d="M199.7,101.1c-0.2,0.1-0.3,0.2-0.5,0.3l-1.4,0.8l-5.2,2.7l-17.4,8.9l-0.1,0.1l-0.1-0.1l-0.2-0.3L162.6,98
			l-3.7-4.7l-1-1.3c-0.1-0.1-0.2-0.3-0.3-0.5c0.1,0.1,0.3,0.3,0.4,0.4l1,1.3l3.8,4.7l12.3,15.5l0.2,0.3h-0.2l17.4-8.8l5.3-2.6
			l1.4-0.7C199.4,101.2,199.5,101.2,199.7,101.1z"/>
		<path class="st0" d="M151,119.8c-0.1-0.1,4-3.2,9.1-7.1c5.1-3.8,9.3-6.8,9.3-6.8s-4,3.2-9.1,7.1S151,119.9,151,119.8z"/>
		<path class="st0" d="M183.5,108.9c0.1,0,2.3,4.5,5,10.3s4.7,10.4,4.6,10.5c-0.1,0.1-2.3-4.5-5-10.3
			C185.5,113.6,183.4,108.9,183.5,108.9z"/>
		
			<rect x="397.2" y="103.8" transform="matrix(0.9188 -0.3947 0.3947 0.9188 -11.82 172.731)" class="st2" width="33.5" height="22.6"/>
		<path class="st0" d="M425.1,98.3c0,0.1-0.1,0.3-0.2,0.4l-0.5,1.1c-0.5,1-1.2,2.4-2,4.1l-6.8,13.5l-0.1,0.1h-0.1l-0.3-0.1
			l-14.8-4.1l-4.5-1.4l-1.2-0.4l-0.4-0.1c0.1,0,0.3,0,0.4,0.1l1.2,0.3l4.5,1.2l14.8,4l0.3,0.1l-0.2,0.1c2.7-5.3,5.1-10,6.9-13.5
			c0.9-1.7,1.6-3.1,2.1-4l0.6-1.1C424.9,98.6,425,98.4,425.1,98.3z"/>
		<path class="st0" d="M403.2,132.3c-0.1,0,1-3.9,2.4-8.6c1.4-4.7,2.7-8.5,2.8-8.5s-1,3.9-2.4,8.6
			C404.5,128.5,403.3,132.3,403.2,132.3z"/>
		<path class="st0" d="M418.5,110.6c0-0.1,3.6,1.8,7.8,4.1c4.3,2.4,7.7,4.3,7.7,4.4s-3.5-1.8-7.8-4.1
			C421.9,112.6,418.5,110.6,418.5,110.6z"/>
	</g>
	<g id="freepik--Device--inject-9">
		<path class="st3" d="M128.3,170.2h286.1c6.5,0,11.7,5.3,11.7,11.7v181.2c0,6.5-5.3,11.7-11.7,11.7H128.3
			c-6.5,0-11.7-5.3-11.7-11.7V181.9C116.6,175.5,121.8,170.2,128.3,170.2z"/>
		<path class="st3" d="M104.5,361.7h335.4l0,0v3.6c0,7.9-6.4,14.3-14.3,14.3H118.8c-7.9,0-14.3-6.4-14.3-14.3V361.7L104.5,361.7
			L104.5,361.7z"/>
		<rect x="124.9" y="178.3" class="st4" width="292.1" height="172.9"/>
		<polygon class="st4" points="240.9,359.8 245,366.4 303.6,366.4 307.4,359.8 		"/>
		<path class="st1" d="M133.6,184.2H409c1.5,0,2.6,1.2,2.6,2.6V348c0,1.5-1.2,2.6-2.6,2.6H133.6c-1.5,0-2.6-1.2-2.6-2.6V186.8
			C130.9,185.4,132.1,184.2,133.6,184.2z"/>
		<polygon class="st5" points="411.3,350.9 130.6,350.9 130.9,196.6 411.3,196.6 		"/>
		<path class="st4" d="M153.9,190.6c0,1.2-1,2.2-2.2,2.3c-1.2,0-2.2-1-2.3-2.2c0-1.2,1-2.2,2.2-2.3l0,0
			C152.9,188.4,153.9,189.4,153.9,190.6L153.9,190.6z"/>
		<path class="st4" d="M140.3,190.6c0,1.2-1,2.2-2.2,2.3c-1.2,0-2.2-1-2.3-2.2c0-1.2,1-2.2,2.2-2.3l0,0
			C139.3,188.4,140.3,189.4,140.3,190.6L140.3,190.6z"/>
		<path class="st4" d="M146.9,190.6c0,1.2-1,2.2-2.2,2.3c-1.2,0-2.2-1-2.3-2.2s1-2.2,2.2-2.3l0,0
			C145.9,188.4,146.9,189.4,146.9,190.6L146.9,190.6z"/>
		<path class="st4" d="M423.5,359.8c0,0.1-68.7,0.2-153.4,0.2s-153.5-0.1-153.5-0.2s68.7-0.2,153.5-0.2S423.5,359.7,423.5,359.8z"/>
		<polygon class="st6" points="220.8,256.9 335,255.8 338.3,333.5 220.1,332.6 		"/>
		<path class="st6" d="M220.8,256.9l53.9-43.8c2.3-1.9,5.6-1.9,7.8,0l52.4,42.8"/>
		<g class="st7">
			<path d="M220.8,256.9l53.9-43.8c2.3-1.9,5.6-1.9,7.8,0l52.4,42.8"/>
		</g>
		<path class="st4" d="M220.1,332.6c-0.1-0.1,9-10.1,20.4-22.3c11.4-12.2,20.7-21.9,20.9-21.8c0.1,0.1-9,10.1-20.4,22.3
			S220.2,332.7,220.1,332.6z"/>
		<path class="st4" d="M338.3,333.5c-0.1,0.1-9.1-9.7-19.9-21.8c-10.9-12.1-19.5-22.1-19.4-22.3s9.1,9.7,19.9,21.8
			S338.4,333.3,338.3,333.5z"/>
		<g class="st8">
			<polyline points="335,255.8 277.7,301.8 220.8,256.9 			"/>
		</g>
		<polygon class="st5" points="226.5,261.1 226.3,225.5 326.3,224.1 327.5,261.6 277.7,301.2 		"/>
		<path class="st4" d="M226.5,261.1c0,0,0.3,0.2,0.9,0.7l2.7,2.1l10.4,8.1c8.9,7,21.7,16.9,37.2,29h-0.2l49.7-39.6l-0.1,0.2
			c-0.2-7.2-0.5-14.7-0.7-22.3c-0.2-5.1-0.3-10.2-0.5-15.2l0.2,0.2l-100,1.3l0.1-0.1c0,11.2,0.1,20.1,0.1,26.2c0,3.1,0,5.4,0,7
			c0,0.8,0,1.4,0,1.8S226.5,261.2,226.5,261.1c0,0,0-0.2,0-0.6s0-1,0-1.8c0-1.6,0-3.9-0.1-7c-0.1-6.1-0.1-15-0.2-26.3v-0.1h0.1
			l99.9-1.4h0.2v0.2c0.2,5,0.3,10.1,0.5,15.2c0.2,7.6,0.5,15.2,0.7,22.3v0.1l-0.1,0.1l-49.8,39.5l-0.1,0.1l-0.1-0.1l-37.2-29.2
			L230,264l-2.7-2.1L226.5,261.1z"/>
		<path class="st4" d="M310.5,242.1c0,0.1-15.3,0.3-34.1,0.5c-18.9,0.2-34.1,0.2-34.1,0.1c0-0.1,15.3-0.3,34.1-0.5
			S310.5,242,310.5,242.1z"/>
		<path class="st4" d="M310.5,252.1c0,0.1-15.3,0.3-34.1,0.5c-18.8,0.2-34.1,0.2-34.1,0.1c0-0.1,15.3-0.3,34.1-0.5
			C295.2,252.1,310.5,252,310.5,252.1z"/>
		<path class="st4" d="M310.5,263.8c0,0.1-15.3,0.3-34.1,0.5c-18.8,0.2-34.2,0.2-34.2,0.1s15.3-0.3,34.1-0.5
			C295.3,263.7,310.5,263.6,310.5,263.8z"/>
		<path class="st4" d="M310.6,275.4c0,0.1-14.6,0.3-32.6,0.5s-32.6,0.2-32.6,0.1s14.6-0.3,32.6-0.5S310.6,275.3,310.6,275.4z"/>
		<path class="st4" d="M297.8,285.6c-0.1,0-0.3,0.1-0.4,0h-1.2l-4.2,0.1l-13.9,0.3c-5.4,0.1-10.4,0.1-13.9,0.1H260h-1.2
			c-0.1,0-0.3,0-0.4,0c0.1,0,0.3-0.1,0.4,0h1.1l4.2-0.1l13.9-0.2c5.4-0.1,10.4-0.1,13.9-0.1h4.2h1.2
			C297.5,285.5,297.7,285.6,297.8,285.6z"/>
		<path class="st4" d="M284.9,295.4c-2.4,0.2-4.8,0.3-7.2,0.2c-2.4,0.1-4.8,0-7.2-0.2c2.4-0.2,4.8-0.3,7.2-0.2
			C280.1,295.1,282.5,295.2,284.9,295.4z"/>
	</g>
	<g id="freepik--Floor--inject-9">
		<path class="st4" d="M487.4,378.9c0,0.1-107.3,0.2-239.7,0.2S8,379,8,378.9s107.3-0.2,239.7-0.2S487.4,378.8,487.4,378.9z"/>
	</g>
	<g id="freepik--envelope-2--inject-9">
		<path class="st4" d="M279.7,210.5c0.1,0,0.3,0.4,0.4,1c0.1,0.5,0.1,1,0,1s-0.3-0.4-0.4-1C279.5,211,279.6,210.5,279.7,210.5z"/>
		<path class="st4" d="M278.4,202.7c0.3,0.6,0.5,1.3,0.5,1.9c0.2,0.7,0.2,1.3,0.1,2c-0.3-0.6-0.5-1.3-0.5-1.9
			C278.3,204,278.3,203.3,278.4,202.7z"/>
		<path class="st4" d="M277.2,194.8c0.3,0.6,0.5,1.3,0.5,1.9c0.2,0.7,0.2,1.3,0.1,2c-0.3-0.6-0.5-1.3-0.5-1.9
			C277.2,196.1,277.1,195.4,277.2,194.8z"/>
		<path class="st4" d="M276.3,186.9c0.3,0.6,0.4,1.3,0.4,2c0.1,0.7,0.1,1.3,0,2c-0.3-0.6-0.4-1.3-0.4-2
			C276.2,188.2,276.2,187.5,276.3,186.9z"/>
		<path class="st4" d="M275.8,178.9c0.4,1.3,0.4,2.7,0.2,4C275.7,181.6,275.6,180.3,275.8,178.9z"/>
		<path class="st4" d="M275.7,171c0.3,1.3,0.3,2.7,0,4c-0.2-0.6-0.3-1.3-0.2-2C275.4,172.3,275.5,171.6,275.7,171z"/>
		<path class="st4" d="M276.2,163c0.1,0.7,0.2,1.3,0,2c0,0.7-0.1,1.3-0.4,2c-0.2-0.7-0.2-1.3,0-2C275.8,164.3,275.9,163.7,276.2,163
			z"/>
		<path class="st4" d="M277.4,155.2c0.1,0.7,0.1,1.3-0.1,2c0,0.7-0.2,1.3-0.6,1.9C276.7,157.7,276.9,156.4,277.4,155.2L277.4,155.2z
			"/>
		<path class="st4" d="M279.4,147.5c0,0.7-0.1,1.3-0.4,2c-0.1,0.7-0.4,1.3-0.8,1.9c0-0.7,0.1-1.3,0.4-2
			C278.8,148.7,279,148,279.4,147.5z"/>
		<path class="st4" d="M282.4,140.1c-0.1,0.7-0.3,1.3-0.6,1.9c-0.2,0.6-0.5,1.2-1,1.7C281.1,142.4,281.6,141.2,282.4,140.1
			L282.4,140.1z"/>
		<path class="st4" d="M286.3,133.2c-0.2,0.7-0.4,1.3-0.8,1.8c-0.6,0.9-1.1,1.6-1.2,1.6c0.2-0.7,0.4-1.3,0.9-1.8
			C285.6,133.8,286.2,133.1,286.3,133.2z"/>
		<path class="st4" d="M291.1,126.8c0.1,0.1-0.4,0.8-1.1,1.7s-1.3,1.5-1.4,1.4c0.2-0.6,0.6-1.2,1.1-1.7
			C290.3,127.4,291,126.7,291.1,126.8z"/>
		<path class="st4" d="M296.7,121.2c0.1,0.1-0.5,0.8-1.3,1.5s-1.5,1.3-1.6,1.2c-0.1-0.1,0.5-0.7,1.3-1.5
			C295.9,121.6,296.6,121.1,296.7,121.2z"/>
		<path class="st4" d="M303.2,116.6c0.1,0.1-0.6,0.7-1.6,1.2c-0.5,0.4-1.1,0.7-1.8,0.9c-0.1-0.1,0.6-0.7,1.6-1.2
			C302,117.1,302.6,116.8,303.2,116.6z"/>
		<path class="st4" d="M310.5,113.4c-0.5,0.4-1.1,0.7-1.8,0.9c-0.6,0.3-1.3,0.5-1.9,0.5c0.5-0.4,1.1-0.7,1.8-0.9
			C309.1,113.6,309.8,113.4,310.5,113.4z"/>
		<path class="st4" d="M316.3,111.9c0,0.1-0.4,0.3-0.9,0.4s-1,0.1-1,0s0.4-0.3,0.9-0.4S316.3,111.8,316.3,111.9z"/>
		
			<rect x="273.8" y="81.4" transform="matrix(0.3606 -0.9327 0.9327 0.3606 84.1723 345.3791)" class="st6" width="40.3" height="59.8"/>
		<path class="st4" d="M314.7,140.9L314.7,140.9l-55.8-21.6l0,0l14.6-37.6l0,0l55.8,21.6l0,0L314.7,140.9z M258.9,119.3l55.8,21.6
			l14.5-37.6l-55.8-21.6L258.9,119.3z"/>
		<path class="st4" d="M329.3,103.8c-0.2,0.1-0.5,0.2-0.7,0.3l-2.1,0.8l-7.7,2.7l-25.5,8.8l-0.2,0.1l-0.1-0.2l-0.3-0.5L279,92.1
			l-4.1-7.2l-1.1-2c-0.1-0.2-0.3-0.5-0.4-0.7c0.2,0.2,0.3,0.4,0.4,0.7l1.2,1.9l4.2,7.1c3.6,6.1,8.5,14.4,13.8,23.6l0.3,0.5l-0.3-0.1
			l25.6-8.6l7.7-2.5l2.1-0.7C328.8,103.9,329,103.8,329.3,103.8z"/>
		<path class="st4" d="M258.9,119.8c-0.1-0.1,6.1-3.7,13.8-7.9c7.7-4.2,14-7.6,14.1-7.4c0.1,0.1-6.1,3.7-13.8,7.9
			C265.3,116.7,259,120,258.9,119.8z"/>
		<path class="st4" d="M305.6,111.2c0.1,0,2.3,6.7,4.8,15s4.5,15.1,4.3,15.2c-0.1,0-2.3-6.7-4.8-15S305.4,111.3,305.6,111.2z"/>
	</g>
	<g id="freepik--envelope-1--inject-9">
		<path class="st4" d="M256.2,219.3c0.1,0,0.2,0.5,0.1,1c0,0.6-0.2,1-0.3,1c-0.1,0-0.2-0.5-0.1-1C256,219.8,256.1,219.3,256.2,219.3
			z"/>
		<path class="st4" d="M256.4,211.1c0.2,0.7,0.3,1.4,0.2,2.1c0.1,0.7,0,1.4-0.2,2c-0.2-0.7-0.3-1.4-0.2-2
			C256.2,212.5,256.2,211.8,256.4,211.1z"/>
		<path class="st4" d="M255.9,203c0.4,1.3,0.5,2.7,0.4,4.1c-0.3-0.6-0.4-1.3-0.4-2C255.7,204.4,255.7,203.7,255.9,203z"/>
		<path class="st4" d="M254.5,194.9c0.3,0.6,0.5,1.3,0.6,2c0.2,0.7,0.3,1.4,0.2,2.1c-0.3-0.6-0.5-1.3-0.6-2
			C254.5,196.3,254.4,195.6,254.5,194.9z"/>
		<path class="st4" d="M252.3,187c0.7,1.2,1.1,2.5,1.2,3.9c-0.4-0.6-0.7-1.2-0.8-1.9C252.5,188.4,252.3,187.7,252.3,187z"/>
		<path class="st4" d="M249.2,179.4c0.5,0.5,0.8,1.1,1,1.8c0.3,0.6,0.6,1.3,0.7,2c-0.5-0.5-0.8-1.1-1-1.8
			C249.5,180.8,249.2,180.1,249.2,179.4z"/>
		<path class="st4" d="M245.1,172.3c0.1-0.1,0.7,0.7,1.3,1.6c0.4,0.6,0.7,1.2,0.9,1.9c-0.1,0.1-0.7-0.7-1.2-1.7
			C245.6,173.6,245.3,173,245.1,172.3z"/>
		<path class="st4" d="M240.1,165.9c0.1-0.1,0.7,0.6,1.5,1.4c0.5,0.5,0.9,1.1,1.2,1.7c-0.1,0.1-0.7-0.6-1.5-1.4
			C240.7,167.1,240.3,166.5,240.1,165.9z"/>
		<path class="st4" d="M234.2,160.2c0.1-0.1,0.8,0.5,1.7,1.2s1.5,1.4,1.4,1.5c-0.6-0.3-1.2-0.7-1.7-1.2
			C234.7,160.9,234.1,160.3,234.2,160.2z"/>
		<path class="st4" d="M227.6,155.4c0.7,0.2,1.3,0.5,1.8,1c0.9,0.6,1.7,1.2,1.6,1.3c-0.7-0.2-1.3-0.5-1.8-1
			C228.2,156.1,227.5,155.5,227.6,155.4z"/>
		<path class="st4" d="M220.3,151.7c0.7,0.1,1.4,0.3,1.9,0.7c0.7,0.2,1.3,0.6,1.8,1c-0.7-0.1-1.4-0.3-1.9-0.7
			C221.4,152.5,220.8,152.1,220.3,151.7z"/>
		<path class="st4" d="M212.5,149.2c0.7,0,1.4,0.1,2,0.3c0.7,0.1,1.3,0.4,1.9,0.7c-0.7,0-1.4-0.1-2-0.3
			C213.7,149.8,213.1,149.6,212.5,149.2z"/>
		<path class="st4" d="M204.3,148.2c1.4-0.2,2.8-0.1,4.1,0.3C207.1,148.6,205.7,148.5,204.3,148.2z"/>
		<path class="st4" d="M196.2,148.7c1.3-0.4,2.7-0.6,4.1-0.5c-0.6,0.3-1.3,0.4-2,0.5S196.9,148.8,196.2,148.7z"/>
		<path class="st4" d="M188.3,150.8c0.6-0.4,1.2-0.7,1.9-0.8c0.6-0.3,1.3-0.4,2-0.4c-0.6,0.4-1.2,0.7-1.9,0.8
			C189.6,150.7,189,150.8,188.3,150.8z"/>
		<path class="st4" d="M180.9,154.4c-0.1-0.1,0.7-0.6,1.7-1.2c0.6-0.4,1.2-0.7,1.9-0.8C183.4,153.3,182.2,154,180.9,154.4
			L180.9,154.4z"/>
		<path class="st4" d="M174.4,159.3c-0.1-0.1,0.6-0.7,1.4-1.5c0.5-0.5,1.1-0.9,1.7-1.2c0.1,0.1-0.6,0.8-1.4,1.5
			C175.6,158.6,175,159,174.4,159.3z"/>
		<path class="st4" d="M169,165.5c0.2-0.7,0.6-1.3,1-1.8c0.7-0.9,1.4-1.5,1.5-1.5c0.1,0.1-0.4,0.8-1.1,1.7
			C169.7,164.9,169.1,165.5,169,165.5z"/>
		<path class="st4" d="M166,170.8c-0.1,0,0-0.5,0.2-1s0.5-0.9,0.6-0.8s0,0.5-0.2,1C166.4,170.5,166.1,170.8,166,170.8z"/>
		<path class="st4" d="M114.9,218.3c0-0.1,0.4-0.3,1-0.3c0.5-0.1,1,0,1,0.1s-0.4,0.3-1,0.3C115.3,218.4,114.9,218.4,114.9,218.3z"/>
		<path class="st4" d="M106.9,217.4c0.7,0,1.4,0.1,2,0.3c0.7,0.1,1.3,0.2,1.9,0.5C109.5,218.4,108.1,218.1,106.9,217.4L106.9,217.4z
			"/>
		<path class="st4" d="M99.7,213.8c0.6,0.2,1.3,0.5,1.8,0.9c0.9,0.6,1.7,1,1.7,1.2c-0.7-0.1-1.3-0.4-1.9-0.8
			C100.3,214.5,99.6,213.9,99.7,213.8z"/>
		<path class="st4" d="M93.7,208.5c0.1-0.1,0.7,0.5,1.5,1.3s1.4,1.5,1.3,1.5c-0.1,0.1-0.8-0.5-1.6-1.2
			C94.1,209.3,93.6,208.5,93.7,208.5z"/>
		<path class="st4" d="M89,201.9c0.1-0.1,0.7,0.6,1.3,1.6c0.4,0.5,0.7,1.1,0.9,1.8c-0.1,0.1-0.7-0.6-1.3-1.6
			C89.5,203.2,89.1,202.6,89,201.9z"/>
		<path class="st4" d="M85.5,194.7c0.4,0.5,0.8,1.1,1,1.8c0.3,0.6,0.5,1.3,0.6,1.9c-0.4-0.5-0.8-1.1-1-1.8
			C85.8,196,85.6,195.3,85.5,194.7z"/>
		<path class="st4" d="M83.2,186.9c0.4,0.6,0.6,1.2,0.7,1.9c0.2,0.6,0.3,1.3,0.3,2c-0.4-0.6-0.6-1.2-0.7-1.9
			C83.2,188.3,83.1,187.6,83.2,186.9z"/>
		<path class="st4" d="M81.8,179c0.3,0.6,0.5,1.3,0.5,2c0.2,0.7,0.2,1.4,0.1,2c-0.3-0.6-0.5-1.3-0.5-2
			C81.7,180.4,81.7,179.7,81.8,179z"/>
		<path class="st4" d="M81,171c0.4,1.3,0.5,2.7,0.3,4c-0.3-0.6-0.4-1.3-0.4-2C80.8,172.3,80.8,171.6,81,171z"/>
		<path class="st4" d="M80.7,164.9c0.1,0,0.2,0.4,0.3,1s0,1-0.2,1c-0.1,0-0.2-0.4-0.3-1S80.6,164.9,80.7,164.9z"/>
		
			<rect x="45.1" y="117.7" transform="matrix(0.9989 -4.710502e-02 4.710502e-02 0.9989 -6.5217 3.8582)" class="st6" width="67" height="45.2"/>
		<path class="st4" d="M46.1,164.4L46.1,164.4L44,119.3l0,0l67-3.2l0,0l2.1,45.1l0,0L46.1,164.4z M44.1,119.3l2.1,45.1l66.9-3.2
			l-2.1-45.1L44.1,119.3z"/>
		<path class="st4" d="M111.2,116.6c-0.2,0.2-0.4,0.4-0.6,0.6l-1.8,1.7l-6.6,6.3L80,145.7l-0.2,0.2l-0.2-0.1l-0.5-0.4l-24.7-18
			c-3.1-2.3-5.6-4.2-7.5-5.5l-2-1.5c-0.2-0.2-0.5-0.4-0.7-0.6c0.3,0.1,0.5,0.3,0.7,0.5l2.1,1.4l7.6,5.4L79.4,145l0.5,0.4h-0.4
			l22.3-20.4l6.8-6.1l1.9-1.6C110.7,117,111,116.8,111.2,116.6z"/>
		<path class="st4" d="M46.4,164.9c-0.1-0.1,4.6-6.5,10.6-14.3s10.9-14.1,11.1-14c0.1,0.1-4.6,6.5-10.6,14.3
			C51.5,158.8,46.5,165,46.4,164.9z"/>
		<path class="st4" d="M90.3,135c0.1-0.1,5.4,5.8,11.8,13.2s11.4,13.5,11.3,13.6c-0.2,0.1-5.4-5.8-11.8-13.2
			C95.2,141.2,90.2,135.1,90.3,135z"/>
	</g>
</g>
<g id="freepik--background-complete--inject-2">
	<path class="st0" d="M208.7,401.4c-4.3-9.7-11.9-17.6-21.5-22.1c-9.5-4.5-30.7-2.4-30.7-2.4l-55.8-0.1c1.1,4.9,4.8,17.5,7.5,21.7
		s6.7,7.8,11.6,9.2c5.9,1.7,12.2-0.1,18.3-0.5c10.8-0.7,21.4,2.8,31.8,5.8c10.4,3,21.5,5.6,32,3c3-0.7,6.1-2.1,7.6-4.8
		C211,408.2,210,404.5,208.7,401.4z"/>
	<path class="st1" d="M37.4,203.6c0,0-6.3-0.5-5.8,13.8s2,21.8,2,21.8s-0.2,3.1-2.6,2.5s-7-3.7-9.3-1.4s-1.5,6,1.6,10.3
		s9.6,14,10.2,14.9s0.8,2.5-0.9,2.3s-13.4-4.1-15,1.5c-1.5,5.7,9.1,16.2,10.3,17.4c1.1,1.2,1.2,1.9,0.7,2.6s-4.3-1-7.6-2
		c-3.4-1-7.5-1.6-8.1,1.8s4.1,13.1,21.7,23.4l8.5,4.2l8-5.1c16.5-12,20.2-22.2,19.2-25.4c-1-3.3-5-2.3-8.2-1
		c-3.3,1.3-6.9,3.4-7.4,2.7c-0.5-0.7-0.5-1.4,0.5-2.7c1-1.3,10.6-12.8,8.5-18.3c-2.1-5.5-13.3-0.4-15.1,0c-1.7,0.3-1.6-1.3-1.2-2.2
		c0.4-0.9,6-11.2,8.7-15.8s3.1-8.3,0.6-10.4s-6.8,1.5-9.1,2.3c-2.4,0.9-2.9-2.3-2.9-2.3s0.7-7.7-0.2-21.9
		c-0.8-14.2-7.3-13.1-7.3-13.1"/>
	<path class="st0" d="M37.9,216.3c0,0,0,0.1,0,0.3s0,0.5,0.1,0.9c0.1,0.8,0.1,1.9,0.2,3.4c0.2,2.9,0.4,7.1,0.7,12.4
		c0.6,10.4,1.3,24.9,2,40.8s1.3,30.4,1.9,40.9c0.3,5.2,0.5,9.4,0.6,12.4c0.1,1.5,0.1,2.6,0.2,3.4c0,0.4,0,0.7,0,0.9
		c0,0.1,0,0.2,0,0.3c0,0,0-0.1,0-0.3c0-0.2,0-0.5-0.1-0.9c-0.1-0.8-0.1-1.9-0.2-3.4c-0.2-2.9-0.4-7.1-0.7-12.4
		c-0.6-10.4-1.3-24.9-2-40.9s-1.3-30.4-1.9-40.9c-0.3-5.2-0.5-9.4-0.6-12.4c-0.1-1.5-0.1-2.6-0.2-3.4c0-0.4,0-0.7,0-0.9
		C37.9,216.5,37.9,216.4,37.9,216.3z"/>
	<path class="st0" d="M28,244.9c0.2,0.1,0.4,0.3,0.5,0.4c0.3,0.3,0.8,0.7,1.3,1.3c1.1,1.1,2.6,2.7,4.2,4.4l4.1,4.5l1.3,1.4
		c0.2,0.2,0.3,0.3,0.4,0.5c-0.2-0.1-0.4-0.3-0.5-0.4c-0.3-0.3-0.8-0.7-1.3-1.3c-1.1-1.1-2.6-2.7-4.2-4.5l-4.1-4.5
		c-0.5-0.5-0.9-1-1.3-1.4C28.3,245.3,28.1,245.1,28,244.9z"/>
	<path class="st0" d="M40.8,257.2c-0.1-0.1,3-3.3,6.9-7.2s7.1-7.1,7.2-7s-3,3.3-6.9,7.2S40.9,257.3,40.8,257.2z"/>
	<path class="st0" d="M40.8,281.7c0.2-0.1,0.4-0.3,0.6-0.4l1.7-0.9c1.4-0.8,3.3-1.9,5.4-3.2c2.1-1.3,3.9-2.5,5.3-3.4l1.6-1
		c0.2-0.1,0.4-0.3,0.6-0.4c-0.2,0.2-0.3,0.3-0.5,0.5c-0.4,0.3-0.9,0.7-1.5,1.1c-1.3,0.9-3.1,2.2-5.2,3.5c-2.1,1.3-4,2.3-5.5,3.1
		c-0.7,0.4-1.3,0.7-1.7,0.8C41.2,281.6,41,281.7,40.8,281.7z"/>
	<path class="st0" d="M26.7,273.2c0.2,0.1,0.4,0.2,0.6,0.3l1.5,0.9c1.3,0.7,3.1,1.8,5,2.9c1.9,1.2,3.7,2.2,5,3
		c0.6,0.4,1.1,0.7,1.5,0.9c0.2,0.1,0.4,0.2,0.5,0.4c-0.2-0.1-0.4-0.2-0.6-0.3l-1.5-0.8c-1.3-0.7-3.1-1.8-5-2.9s-3.7-2.2-5-3
		c-0.6-0.4-1.1-0.7-1.5-0.9C27.1,273.5,26.9,273.3,26.7,273.2z"/>
	<path class="st0" d="M24,294.9c0.3,0.1,0.5,0.2,0.7,0.4l2,1.1c1.7,0.9,3.9,2.2,6.4,3.7s4.8,2.8,6.4,3.8l1.9,1.2
		c0.2,0.1,0.5,0.3,0.7,0.5c-0.3-0.1-0.5-0.2-0.7-0.4l-2-1.1c-1.7-0.9-3.9-2.2-6.4-3.7s-4.8-2.8-6.4-3.8l-1.9-1.2
		C24.4,295.2,24.2,295,24,294.9z"/>
	<path class="st0" d="M41.8,305c0.2-0.2,0.5-0.4,0.7-0.5l2.1-1.2c1.7-1.1,4.1-2.5,6.7-4.2c2.6-1.7,4.9-3.3,6.6-4.4l2-1.4
		c0.2-0.2,0.5-0.3,0.7-0.5c-0.2,0.2-0.4,0.4-0.7,0.6c-0.4,0.4-1.1,0.8-1.9,1.5c-1.6,1.2-3.9,2.8-6.5,4.5s-5,3.1-6.8,4.2
		c-0.9,0.5-1.6,0.9-2.1,1.2C42.3,304.8,42,304.9,41.8,305z"/>
	<polygon class="st0" points="54.5,319.6 31,319.6 38.7,377.5 46.8,377.5 	"/>
	<path class="st2" d="M32.3,326.7c0,0,0,0.1,0.1,0.2c0.2,0.2,0.3,0.3,0.6,0.4c0.8,0.3,1.7,0.2,2.5-0.3c0.9-0.5,1.8-1.5,3-2
		c1.4-0.5,2.9-0.4,4.3,0.1c1.4,0.5,2.8,1.1,4,1.9c1,0.7,2.1,1.2,3.3,1.7c0.8,0.3,1.6,0.6,2.4,0.7c0.2,0,0.5,0.1,0.7,0
		c0.2,0,0.2,0,0.2,0c-1.1-0.2-2.2-0.5-3.2-1c-1.1-0.5-2.2-1.1-3.2-1.8c-1.3-0.8-2.6-1.5-4.1-2s-3.1-0.5-4.6,0
		c-0.6,0.3-1.2,0.6-1.7,1.1c-0.4,0.4-0.9,0.7-1.3,1c-0.7,0.5-1.5,0.6-2.3,0.4C32.7,327.1,32.5,326.9,32.3,326.7z"/>
	<path class="st2" d="M33.1,337.4c0,0,0.2-0.2,0.6-0.6c0.5-0.5,1.2-0.9,1.9-1.2c1-0.4,2.2-0.5,3.3-0.5c1.4,0.1,2.7,0.3,4.1,0.6
		c1.4,0.3,2.8,0.3,4.2,0.2c1.1-0.1,2.2-0.5,3.3-0.9c0.7-0.3,1.4-0.7,2-1.2c0.2-0.2,0.4-0.3,0.6-0.6c-0.9,0.6-1.8,1.1-2.7,1.5
		c-1,0.4-2.1,0.7-3.2,0.8c-1.4,0.1-2.7,0.1-4.1-0.2c-1.4-0.3-2.7-0.4-4.1-0.5c-1.2,0-2.3,0.2-3.4,0.6c-0.7,0.3-1.4,0.7-1.9,1.3
		c-0.1,0.2-0.3,0.3-0.4,0.5C33.1,337.3,33.1,337.4,33.1,337.4z"/>
	<path class="st2" d="M51.8,343.1c-0.2-0.2-0.4-0.3-0.6-0.3c-0.6-0.2-1.3-0.4-1.9-0.4c-1-0.1-2,0-2.9,0.2c-1.1,0.2-2.3,0.5-3.5,0.7
		c-1.1,0.3-2.3,0.4-3.5,0.4c-1,0-1.9-0.2-2.8-0.6c-0.8-0.4-1.5-0.9-2.1-1.6c0.1,0.2,0.2,0.4,0.4,0.6c0.4,0.5,1,0.9,1.6,1.2
		c0.9,0.4,1.9,0.7,2.9,0.7c1.2,0,2.4-0.1,3.6-0.4c1.2-0.3,2.4-0.6,3.5-0.8c0.9-0.2,1.9-0.3,2.9-0.2C50.1,342.6,51,342.8,51.8,343.1z
		"/>
	<path class="st2" d="M35.2,351.1c0.7-0.3,1.5-0.4,2.3-0.2c0.8,0.2,1.6,0.5,2.4,0.9c1,0.5,2,0.8,3.1,0.8c2,0.2,3.9-0.3,5.6-1.3
		c0.5-0.3,1-0.7,1.4-1.1c0.3-0.3,0.4-0.5,0.4-0.5c-0.6,0.5-1.3,0.9-1.9,1.3c-1.7,0.9-3.5,1.3-5.4,1.2c-2.2-0.1-3.9-1.5-5.5-1.6
		c-0.6-0.1-1.2-0.1-1.8,0.2C35.4,350.9,35.2,351.1,35.2,351.1z"/>
	<path class="st2" d="M36.5,362.2c0.7,0,1.3-0.1,2-0.4c1.2-0.4,2.6-1.3,4.3-2c0.8-0.3,1.6-0.5,2.5-0.5c0.7,0,1.4,0.2,2,0.5
		s1.1,0.7,1.4,1.2c0-0.2-0.1-0.3-0.2-0.5c-0.3-0.4-0.7-0.8-1.1-1c-0.7-0.4-1.4-0.6-2.1-0.6c-0.9,0-1.8,0.2-2.6,0.5
		c-1.8,0.7-3.2,1.6-4.3,2.1C37.2,362.1,36.5,362.2,36.5,362.2z"/>
	<path class="st2" d="M37.6,367.4c0.5,0.2,1,0.4,1.5,0.5c1.2,0.3,2.5,0.5,3.7,0.6s2.5,0.2,3.8,0.1c0.5,0,1-0.1,1.6-0.2
		c0-0.1-2.4,0-5.3-0.3C40,367.8,37.7,367.3,37.6,367.4z"/>
	
		<rect x="407.6" y="229.3" transform="matrix(0.9749 -0.2227 0.2227 0.9749 -45.4004 105.2891)" class="st2" width="73.1" height="49.3"/>
	<path class="st0" d="M474.6,222.3c-0.1,0.3-0.3,0.6-0.5,0.8l-1.6,2.2l-5.9,8c-5.1,6.8-12.1,16-19.8,26.3l-0.2,0.2l-0.2-0.1
		l-0.6-0.3l-30-14.6l-9.1-4.5l-2.4-1.2c-0.3-0.1-0.6-0.3-0.8-0.5c0.3,0.1,0.6,0.2,0.9,0.4l2.5,1.1l9.2,4.3l30.1,14.4l0.6,0.3
		l-0.4,0.1c7.8-10.2,14.8-19.4,20-26.2c2.5-3.3,4.6-6,6.1-7.9l1.7-2.1C474.2,222.8,474.4,222.5,474.6,222.3z"/>
	<path class="st0" d="M414.3,286.6c-0.2-0.1,3.7-7.9,8.6-17.4s9-17.2,9.2-17.1c0.2,0.1-3.7,7.9-8.6,17.4S414.5,286.7,414.3,286.6z"
		/>
	<path class="st0" d="M455.7,246c0.1-0.1,6.9,5.2,15.2,11.9c8.3,6.7,14.9,12.3,14.7,12.4c-0.1,0.1-6.9-5.2-15.2-11.9
		C462.1,251.7,455.6,246.2,455.7,246z"/>
	<rect x="160.1" y="88.7" transform="matrix(0.225 -0.9744 0.9744 0.225 27.9169 255.5882)" class="st2" width="29" height="43.1"/>
	<path class="st0" d="M198.9,101.3c-0.2,0.1-0.3,0.2-0.5,0.3l-1.4,0.8l-5.2,2.7l-17.3,8.8l-0.1,0.1l-0.1-0.1l-0.2-0.3l-12.2-15.4
		l-3.7-4.7l-1-1.3c-0.1-0.1-0.2-0.3-0.3-0.5c0.1,0.1,0.3,0.3,0.4,0.4l1,1.2l3.7,4.6l12.3,15.4l0.2,0.3h-0.2l17.3-8.7l5.3-2.6
		l1.4-0.7C198.6,101.5,198.7,101.4,198.9,101.3z"/>
	<path class="st0" d="M150.4,119.9c-0.1-0.1,4-3.2,9.1-7c5-3.8,9.2-6.8,9.3-6.7c0.1,0.1-4,3.2-9.1,7
		C154.6,117,150.5,120,150.4,119.9z"/>
	<path class="st0" d="M182.8,109c0.1,0,2.3,4.5,5,10.2s4.7,10.3,4.6,10.4c-0.1,0.1-2.3-4.5-5-10.2
		C184.8,113.8,182.7,109.1,182.8,109z"/>
	
		<rect x="395.4" y="104" transform="matrix(0.9188 -0.3947 0.3947 0.9188 -12.0309 172.0083)" class="st2" width="33.4" height="22.5"/>
	<path class="st0" d="M423.2,98.6c0,0.1-0.1,0.3-0.2,0.4l-0.5,1.1c-0.5,1-1.2,2.4-2,4.1l-6.8,13.4l-0.1,0.1h-0.1l-0.3-0.1l-14.7-4.1
		l-4.4-1.4l-1.2-0.4l-0.4-0.1c0.1,0,0.3,0,0.4,0.1l1.2,0.3l4.5,1.2l14.7,4l0.3,0.1l-0.2,0.1c2.7-5.2,5.1-10,6.8-13.4
		c0.9-1.7,1.6-3.1,2.1-4l0.6-1.1C423,98.8,423.1,98.7,423.2,98.6z"/>
	<path class="st0" d="M401.4,132.4c-0.1,0,1-3.9,2.4-8.5c1.4-4.7,2.7-8.4,2.8-8.4s-1,3.8-2.4,8.5
		C402.8,128.6,401.5,132.4,401.4,132.4z"/>
	<path class="st0" d="M416.7,110.7c0-0.1,3.5,1.8,7.8,4.1c4.3,2.3,7.7,4.3,7.6,4.4c0,0.1-3.5-1.8-7.8-4.1S416.6,110.8,416.7,110.7z"
		/>
</g>
<g id="freepik--Device--inject-2">
	<path class="st3" d="M127.9,170.1h284.7c6.4,0,11.7,5.2,11.7,11.7v180.4c0,6.4-5.2,11.7-11.7,11.7H127.9c-6.4,0-11.7-5.2-11.7-11.7
		V181.8C116.2,175.3,121.4,170.1,127.9,170.1z"/>
	<path class="st3" d="M104.2,360.7H438l0,0v3.6c0,7.9-6.4,14.3-14.3,14.3H118.4c-7.9,0-14.3-6.4-14.3-14.3L104.2,360.7L104.2,360.7
		L104.2,360.7z"/>
	<rect x="124.5" y="178.2" class="st4" width="290.7" height="172"/>
	<polygon class="st4" points="239.9,358.8 244,365.4 302.3,365.4 306.1,358.8 	"/>
	<path class="st1" d="M133.1,184h274.1c1.4,0,2.6,1.2,2.6,2.6V347c0,1.4-1.2,2.6-2.6,2.6H133.1c-1.4,0-2.6-1.2-2.6-2.6V186.7
		C130.5,185.2,131.6,184,133.1,184z"/>
	<polygon class="st5" points="409.5,349.9 130.2,349.9 130.5,196.4 409.5,196.4 	"/>
	<path class="st4" d="M153.4,190.4c0,1.2-1,2.2-2.2,2.2s-2.2-1-2.2-2.2s1-2.2,2.2-2.2l0,0C152.4,188.2,153.4,189.2,153.4,190.4
		L153.4,190.4z"/>
	<path class="st4" d="M139.8,190.4c0,1.2-1,2.2-2.2,2.2s-2.2-1-2.2-2.2s1-2.2,2.2-2.2l0,0C138.8,188.2,139.8,189.2,139.8,190.4
		L139.8,190.4z"/>
	<path class="st4" d="M146.3,190.4c0,1.2-1,2.2-2.2,2.2s-2.2-1-2.2-2.2s1-2.2,2.2-2.2l0,0C145.3,188.2,146.3,189.2,146.3,190.4
		L146.3,190.4z"/>
	<path class="st4" d="M421.6,358.8c0,0.1-68.4,0.2-152.7,0.2s-152.7-0.1-152.7-0.2s68.4-0.2,152.7-0.2S421.6,358.7,421.6,358.8z"/>
	<polygon class="st9" points="219.9,256.4 333.5,255.3 336.8,332.6 219.2,331.7 	"/>
	<path class="st9" d="M219.9,256.4l53.7-43.6c2.3-1.8,5.5-1.8,7.8,0l52.1,42.6"/>
	<g class="st7">
		<path d="M219.9,256.4l53.7-43.6c2.3-1.8,5.5-1.8,7.8,0l52.1,42.6"/>
	</g>
	<path class="st4" d="M219.2,331.7c-0.1-0.1,8.9-10.1,20.3-22.2c11.3-12.1,20.6-21.8,20.8-21.7c0.1,0.1-8.9,10.1-20.3,22.2
		S219.3,331.9,219.2,331.7z"/>
	<path class="st4" d="M336.8,332.6c-0.1,0.1-9-9.6-19.8-21.7s-19.5-22-19.3-22.2c0.1-0.1,9,9.6,19.8,21.7
		C328.4,322.5,337,332.4,336.8,332.6z"/>
	<g class="st8">
		<polyline points="333.5,255.3 276.6,301 219.9,256.4 		"/>
	</g>
	<polygon class="st5" points="225.6,260.6 225.4,225.1 324.9,223.7 326.1,261.1 276.5,300.4 	"/>
	<path class="st4" d="M225.6,260.6c0,0,0.3,0.2,0.9,0.7l2.7,2.1l10.3,8c8.9,6.9,21.6,16.8,37.1,28.9h-0.2l49.5-39.4l-0.1,0.2
		c-0.2-7.1-0.5-14.6-0.7-22.2c-0.2-5.1-0.3-10.2-0.5-15.1l0.2,0.2l-99.5,1.3l0.1-0.1c0,11.2,0.1,20,0.1,26.1c0,3,0,5.4,0,7
		c0,0.8,0,1.4,0,1.8C225.6,260.4,225.6,260.6,225.6,260.6s0-0.2,0-0.6s0-1,0-1.8c0-1.6,0-3.9-0.1-7c-0.1-6.1-0.1-15-0.2-26.2l0,0
		h0.1l99.4-1.4h0.2v0.2c0.2,5,0.3,10,0.5,15.1c0.2,7.6,0.5,15.1,0.7,22.2v0.1l-0.1,0.1l-49.5,39.3l-0.1,0.1l-0.1-0.1l-37-29.1
		l-10.2-8.1l-2.7-2.1L225.6,260.6z"/>
	<path class="st4" d="M309.2,241.6c0,0.1-15.2,0.3-34,0.5s-34,0.2-34,0.1s15.2-0.3,34-0.5C294,241.5,309.2,241.5,309.2,241.6z"/>
	<path class="st4" d="M309.2,251.7c0,0.1-15.2,0.3-34,0.5s-34,0.2-34,0.1c0-0.1,15.2-0.3,34-0.5S309.2,251.5,309.2,251.7z"/>
	<path class="st4" d="M309.2,263.2c0,0.1-15.2,0.3-34,0.5s-34,0.2-34,0.1s15.2-0.3,34-0.5S309.2,263.1,309.2,263.2z"/>
	<path class="st4" d="M309.2,274.8c0,0.1-14.5,0.3-32.4,0.5c-17.9,0.1-32.4,0.2-32.4,0.1s14.5-0.3,32.4-0.5
		C294.7,274.7,309.2,274.7,309.2,274.8z"/>
	<path class="st4" d="M296.6,284.9c-0.1,0-0.3,0.1-0.4,0h-1.1l-4.2,0.1l-13.9,0.3c-5.4,0.1-10.3,0.1-13.9,0.1h-4.2h-1.1
		c-0.1,0-0.3,0-0.4,0c0.1,0,0.3-0.1,0.4,0h1.1l4.2-0.1l13.9-0.2c5.4-0.1,10.3-0.1,13.9-0.1h4.2h1.1
		C296.3,284.9,296.4,284.9,296.6,284.9z"/>
	<path class="st4" d="M283.7,294.7c-2.4,0.2-4.8,0.3-7.2,0.2c-2.4,0.1-4.8,0-7.2-0.2c2.4-0.2,4.8-0.3,7.2-0.2
		C278.9,294.4,281.3,294.5,283.7,294.7z"/>
</g>
<g id="freepik--envelope-2--inject-2">
	<path class="st4" d="M278.5,210.2c0.1,0,0.3,0.4,0.4,1c0.1,0.5,0.1,1,0,1s-0.3-0.4-0.4-1C278.4,210.7,278.4,210.2,278.5,210.2z"/>
	<path class="st4" d="M277.2,202.4c0.3,0.6,0.5,1.3,0.5,1.9c0.2,0.6,0.2,1.3,0.1,2c-0.3-0.6-0.5-1.3-0.5-1.9
		C277.2,203.7,277.1,203.1,277.2,202.4z"/>
	<path class="st4" d="M276.1,194.6c0.3,0.6,0.5,1.3,0.5,1.9c0.2,0.7,0.2,1.3,0.1,2c-0.3-0.6-0.5-1.3-0.5-1.9
		C276,195.9,276,195.2,276.1,194.6z"/>
	<path class="st4" d="M275.2,186.7c0.3,0.6,0.4,1.3,0.4,1.9c0.1,0.7,0.1,1.3,0,2c-0.3-0.6-0.4-1.3-0.4-1.9
		C275,188,275,187.4,275.2,186.7z"/>
	<path class="st4" d="M274.6,178.8c0.4,1.3,0.4,2.6,0.2,4C274.5,181.5,274.4,180.1,274.6,178.8z"/>
	<path class="st4" d="M274.5,170.9c0.3,1.3,0.3,2.7,0,4c-0.2-0.6-0.3-1.3-0.2-2C274.3,172.2,274.3,171.5,274.5,170.9z"/>
	<path class="st4" d="M275,163c0.1,0.7,0.2,1.3,0,2c0,0.7-0.1,1.3-0.4,2c-0.2-0.7-0.2-1.3,0-2C274.7,164.3,274.8,163.6,275,163z"/>
	<path class="st4" d="M276.2,155.1c0.1,0.7,0.1,1.3-0.1,2c0,0.7-0.2,1.3-0.6,1.9C275.5,157.7,275.7,156.4,276.2,155.1L276.2,155.1z"
		/>
	<path class="st4" d="M278.3,147.5c0,0.7-0.1,1.3-0.4,2c-0.1,0.7-0.4,1.3-0.8,1.8c0-0.7,0.1-1.3,0.4-2
		C277.6,148.7,277.9,148,278.3,147.5z"/>
	<path class="st4" d="M281.2,140.1c-0.1,0.7-0.3,1.3-0.6,1.9c-0.2,0.6-0.5,1.2-1,1.7C279.9,142.5,280.4,141.2,281.2,140.1
		L281.2,140.1z"/>
	<path class="st4" d="M285.1,133.2c-0.2,0.7-0.4,1.3-0.8,1.8c-0.6,0.9-1.1,1.6-1.2,1.6c0.2-0.7,0.4-1.3,0.8-1.8
		C284.4,133.9,285,133.2,285.1,133.2z"/>
	<path class="st4" d="M289.8,126.9c0.1,0.1-0.4,0.8-1.1,1.7c-0.7,0.9-1.3,1.5-1.4,1.4c0.2-0.6,0.6-1.2,1.1-1.7
		C289.1,127.5,289.7,126.8,289.8,126.9z"/>
	<path class="st4" d="M295.5,121.3c0.1,0.1-0.5,0.8-1.3,1.5s-1.5,1.3-1.6,1.2c-0.1-0.1,0.5-0.7,1.3-1.5
		C294.7,121.8,295.4,121.2,295.5,121.3z"/>
	<path class="st4" d="M301.9,116.8c0.1,0.1-0.6,0.7-1.6,1.2c-0.5,0.4-1.1,0.7-1.8,0.9c-0.1-0.1,0.6-0.6,1.6-1.2
		C300.7,117.3,301.3,116.9,301.9,116.8z"/>
	<path class="st4" d="M309.1,113.5c-0.5,0.4-1.1,0.7-1.8,0.9c-0.6,0.3-1.2,0.5-1.9,0.5c0.5-0.4,1.1-0.7,1.8-0.9
		C307.8,113.7,308.5,113.6,309.1,113.5z"/>
	<path class="st4" d="M314.9,112.1c0,0.1-0.4,0.3-0.9,0.4s-1,0.1-1,0s0.4-0.3,0.9-0.4C314.5,112,314.9,112,314.9,112.1z"/>
	
		<rect x="272.8" y="81.7" transform="matrix(0.3606 -0.9327 0.9327 0.3606 83.2687 344.4451)" class="st9" width="40.1" height="59.6"/>
	<path class="st4" d="M313.4,141L313.4,141l-55.6-21.5l0,0L272.3,82l0,0l55.6,21.5l0,0L313.4,141z M257.9,119.5l55.5,21.5l14.5-37.4
		L272.3,82L257.9,119.5z"/>
	<path class="st4" d="M327.9,104c-0.2,0.1-0.5,0.2-0.7,0.3l-2.1,0.8l-7.7,2.7l-25.4,8.7l-0.2,0.1l-0.1-0.2l-0.3-0.5l-13.6-23.5
		l-4.1-7.2l-1.1-2c-0.1-0.2-0.3-0.5-0.4-0.7c0.2,0.2,0.3,0.4,0.4,0.6l1.2,1.9l4.2,7.1c3.6,6,8.4,14.3,13.8,23.5l0.3,0.5l-0.3-0.1
		l25.5-8.6l7.7-2.5l2.1-0.7C327.4,104.1,327.6,104.1,327.9,104z"/>
	<path class="st4" d="M257.8,120c-0.1-0.1,6.1-3.6,13.8-7.9c7.7-4.2,13.9-7.5,14-7.4s-6.1,3.6-13.8,7.9
		C264.2,116.8,257.9,120.1,257.8,120z"/>
	<path class="st4" d="M304.3,111.4c0.1,0,2.3,6.6,4.8,14.9s4.4,15.1,4.3,15.1s-2.3-6.6-4.8-14.9
		C306.1,118.2,304.1,111.5,304.3,111.4z"/>
</g>
<g id="freepik--envelope-2--inject-2_1_">
	<path class="st4" d="M394.9,209.7c0,0-0.1,0.3-0.3,0.7c-0.2,0.3-0.4,0.6-0.5,0.5c0,0,0.1-0.3,0.3-0.7
		C394.6,210,394.9,209.7,394.9,209.7z"/>
	<path class="st4" d="M398.1,204.9c-0.2,0.5-0.4,0.9-0.7,1.2c-0.2,0.4-0.5,0.8-0.9,1.1c0.2-0.5,0.4-0.9,0.7-1.2
		C397.5,205.6,397.7,205.2,398.1,204.9z"/>
	<path class="st4" d="M401.4,200.2c-0.2,0.5-0.4,0.9-0.7,1.2c-0.2,0.5-0.5,0.8-0.9,1.1c0.2-0.5,0.4-0.9,0.7-1.2
		C400.7,200.8,401,200.5,401.4,200.2z"/>
	<path class="st4" d="M404.8,195.5c-0.2,0.5-0.4,0.9-0.7,1.2c-0.3,0.4-0.6,0.8-1,1.1c0.2-0.5,0.4-0.9,0.7-1.2
		C404.1,196.1,404.4,195.8,404.8,195.5z"/>
	<path class="st4" d="M408.4,190.9c-0.4,0.9-1.1,1.6-1.9,2.3C407,192.3,407.6,191.5,408.4,190.9z"/>
	<path class="st4" d="M412.2,186.5c-0.5,0.8-1.2,1.6-1.9,2.2c0.2-0.4,0.5-0.8,0.9-1.2C411.4,187.1,411.8,186.8,412.2,186.5z"/>
	<path class="st4" d="M416.2,182.4c-0.3,0.4-0.5,0.8-1,1.1c-0.3,0.4-0.7,0.7-1.2,0.9c0.2-0.5,0.5-0.8,1-1.1
		C415.5,183,415.9,182.6,416.2,182.4z"/>
	<path class="st4" d="M420.7,178.6c-0.3,0.4-0.6,0.8-1,1.1c-0.3,0.4-0.7,0.6-1.2,0.8C419.1,179.7,419.8,179.1,420.7,178.6
		L420.7,178.6z"/>
	<path class="st4" d="M425.3,175.3c-0.3,0.4-0.7,0.7-1.2,0.9c-0.4,0.3-0.8,0.5-1.3,0.7c0.3-0.4,0.7-0.7,1.2-0.9
		C424.4,175.7,424.9,175.4,425.3,175.3z"/>
	<path class="st4" d="M430.3,172.4c-0.4,0.3-0.8,0.6-1.2,0.8c-0.4,0.2-0.8,0.4-1.3,0.5C428.5,173.2,429.4,172.7,430.3,172.4
		L430.3,172.4z"/>
	<path class="st4" d="M435.5,170.3c-0.4,0.3-0.8,0.5-1.3,0.7c-0.7,0.2-1.3,0.4-1.3,0.4c0.4-0.3,0.8-0.5,1.3-0.7
		C434.8,170.4,435.4,170.3,435.5,170.3z"/>
	<path class="st4" d="M440.8,168.8c0,0.1-0.6,0.3-1.3,0.5s-1.3,0.3-1.3,0.2c0.4-0.2,0.9-0.4,1.3-0.5
		C440.2,168.8,440.8,168.7,440.8,168.8z"/>
	<path class="st4" d="M446.2,168.1c0,0.1-0.6,0.2-1.3,0.3c-0.7,0-1.3,0.1-1.3,0s0.6-0.2,1.3-0.3C445.6,168.1,446.2,168,446.2,168.1z
		"/>
	<path class="st4" d="M451.4,168.3c0,0.1-0.6,0.1-1.3,0c-0.4,0-0.9-0.1-1.3-0.3c0-0.1,0.6-0.1,1.3,0
		C450.6,168.1,451,168.1,451.4,168.3z"/>
	<path class="st4" d="M456.4,169.5c-0.4,0-0.9-0.1-1.3-0.3c-0.4-0.1-0.8-0.2-1.1-0.5c0.4,0,0.9,0.1,1.3,0.3
		C455.7,169.1,456,169.3,456.4,169.5z"/>
	<path class="st4" d="M459.8,171.2c0,0.1-0.3,0-0.6-0.2c-0.3-0.2-0.5-0.4-0.5-0.4c0-0.1,0.3,0,0.6,0.2S459.8,171.1,459.8,171.2z"/>
	<polygon class="st9" points="429.4,151.4 454.4,136.9 470.1,171.9 445.1,186.4 	"/>
	<path class="st4" d="M445,186.4L445,186.4l-15.7-35l0,0l25.1-14.5l0,0l15.7,35l0,0L445,186.4z M429.4,151.4l15.6,35l25-14.4
		l-15.6-35.1L429.4,151.4z"/>
	<path class="st4" d="M469.8,172.2c-0.1,0-0.3-0.1-0.5-0.1l-1.4-0.4L463,170l-16.2-5.8h-0.1l0.1-0.2l0.1-0.4l5-18.6l1.6-5.7l0.5-1.6
		c0.1-0.2,0.1-0.4,0.2-0.6c0,0.2-0.1,0.3-0.1,0.5l-0.4,1.5l-1.5,5.6c-1.2,4.8-3,11.3-4.9,18.6l-0.1,0.4l-0.1-0.2l16.2,5.9l4.8,1.8
		l1.3,0.5C469.6,172,469.6,172.1,469.8,172.2z"/>
	<path class="st4" d="M429.1,151.7c0-0.1,4.6,0.6,10.3,1.4c5.7,0.9,10.2,1.7,10.2,1.8s-4.6-0.6-10.3-1.4
		C433.6,152.6,429.1,151.8,429.1,151.7z"/>
	<path class="st4" d="M455.1,166.4c0,0-2.1,4.6-5,10.2s-5.3,10.1-5.3,10.1s2.1-4.6,5-10.2C452.7,170.9,455,166.4,455.1,166.4z"/>
</g>
<g id="freepik--envelope-1--inject-2">
	<path class="st4" d="M255.2,219c0.1,0,0.2,0.5,0.1,1c0,0.6-0.2,1-0.3,1s-0.2-0.5-0.1-1C254.9,219.4,255.1,219,255.2,219z"/>
	<path class="st4" d="M255.4,210.8c0.2,0.7,0.3,1.4,0.2,2c0.1,0.7,0,1.4-0.2,2c-0.2-0.7-0.3-1.4-0.2-2
		C255.1,212.2,255.2,211.5,255.4,210.8z"/>
	<path class="st4" d="M254.8,202.7c0.4,1.3,0.5,2.7,0.4,4.1c-0.3-0.6-0.4-1.3-0.4-2C254.7,204.1,254.7,203.4,254.8,202.7z"/>
	<path class="st4" d="M253.5,194.7c0.3,0.6,0.5,1.3,0.6,2c0.2,0.7,0.3,1.4,0.2,2c-0.3-0.6-0.5-1.3-0.6-2
		C253.4,196,253.4,195.4,253.5,194.7z"/>
	<path class="st4" d="M251.2,186.8c0.7,1.2,1.1,2.5,1.2,3.9c-0.4-0.6-0.7-1.2-0.8-1.9C251.4,188.2,251.3,187.5,251.2,186.8z"/>
	<path class="st4" d="M248.1,179.3c0.5,0.5,0.8,1.1,1,1.8c0.3,0.6,0.6,1.3,0.6,1.9c-0.5-0.5-0.8-1.1-1-1.8
		C248.4,180.6,248.2,180,248.1,179.3z"/>
	<path class="st4" d="M244.1,172.2c0.1-0.1,0.7,0.7,1.3,1.6c0.4,0.6,0.7,1.2,0.9,1.9c-0.1,0.1-0.6-0.7-1.2-1.7
		C244.6,173.5,244.3,172.9,244.1,172.2z"/>
	<path class="st4" d="M239.1,165.8c0.1-0.1,0.7,0.6,1.5,1.4c0.5,0.5,0.9,1.1,1.1,1.7c-0.1,0.1-0.7-0.6-1.5-1.4
		C239.7,167,239.4,166.4,239.1,165.8z"/>
	<path class="st4" d="M233.3,160.1c0.1-0.1,0.8,0.5,1.7,1.2c0.8,0.8,1.5,1.4,1.4,1.5c-0.6-0.3-1.2-0.7-1.7-1.2
		C233.8,160.9,233.2,160.2,233.3,160.1z"/>
	<path class="st4" d="M226.6,155.4c0.7,0.2,1.3,0.5,1.8,1c0.9,0.6,1.7,1.2,1.6,1.3c-0.7-0.2-1.3-0.5-1.8-1
		C227.3,156,226.6,155.5,226.6,155.4z"/>
	<path class="st4" d="M219.4,151.7c0.7,0.1,1.3,0.3,1.9,0.7c0.7,0.2,1.3,0.6,1.8,1c-0.7-0.1-1.3-0.3-1.9-0.7
		C220.5,152.5,219.9,152.1,219.4,151.7z"/>
	<path class="st4" d="M211.6,149.2c0.7,0,1.4,0.1,2,0.3c0.7,0.1,1.3,0.4,1.9,0.7c-0.7,0-1.4-0.1-2-0.3
		C212.9,149.8,212.2,149.6,211.6,149.2z"/>
	<path class="st4" d="M203.5,148.2c1.4-0.2,2.8-0.1,4.1,0.3C206.2,148.6,204.9,148.5,203.5,148.2z"/>
	<path class="st4" d="M195.4,148.7c1.3-0.4,2.7-0.6,4.1-0.5c-0.6,0.3-1.3,0.4-2,0.4C196.8,148.8,196.1,148.8,195.4,148.7z"/>
	<path class="st4" d="M187.5,150.8c0.6-0.4,1.2-0.7,1.9-0.8c0.6-0.3,1.3-0.4,2-0.4c-0.6,0.4-1.2,0.7-1.9,0.8
		C188.9,150.7,188.2,150.8,187.5,150.8z"/>
	<path class="st4" d="M180.2,154.4c-0.1-0.1,0.7-0.6,1.7-1.2c0.6-0.4,1.2-0.7,1.9-0.8C182.7,153.3,181.5,153.9,180.2,154.4
		L180.2,154.4z"/>
	<path class="st4" d="M173.7,159.2c-0.1-0.1,0.6-0.7,1.4-1.5c0.5-0.5,1.1-0.9,1.7-1.1c0.1,0.1-0.6,0.8-1.4,1.5
		C174.9,158.6,174.3,159,173.7,159.2z"/>
	<path class="st4" d="M168.4,165.4c0.2-0.7,0.6-1.3,1-1.8c0.7-0.9,1.4-1.5,1.5-1.5c0.1,0.1-0.4,0.8-1.1,1.7
		C169,164.8,168.5,165.5,168.4,165.4z"/>
	<path class="st4" d="M165.4,170.7c-0.1,0,0-0.5,0.2-1s0.5-0.9,0.6-0.8c0.1,0.1,0,0.5-0.2,1S165.5,170.7,165.4,170.7z"/>
	<path class="st4" d="M114.5,217.9c0-0.1,0.4-0.3,1-0.3c0.5-0.1,1,0,1,0.1s-0.4,0.3-1,0.3S114.5,218.1,114.5,217.9z"/>
	<path class="st4" d="M106.5,217.1c0.7,0,1.3,0.1,2,0.3c0.7,0.1,1.3,0.2,1.9,0.5C109.1,218,107.7,217.7,106.5,217.1L106.5,217.1z"/>
	<path class="st4" d="M99.4,213.5c0.6,0.2,1.3,0.5,1.8,0.9c0.9,0.6,1.7,1,1.7,1.1c-0.7-0.1-1.3-0.4-1.9-0.8
		C100,214.2,99.3,213.6,99.4,213.5z"/>
	<path class="st4" d="M93.4,208.2c0.1-0.1,0.7,0.5,1.5,1.3s1.4,1.5,1.3,1.5s-0.8-0.4-1.6-1.2C93.8,209,93.3,208.2,93.4,208.2z"/>
	<path class="st4" d="M88.7,201.7c0.1-0.1,0.7,0.6,1.3,1.6c0.4,0.5,0.7,1.1,0.9,1.8c-0.1,0.1-0.7-0.6-1.3-1.6
		C89.2,203,88.9,202.3,88.7,201.7z"/>
	<path class="st4" d="M85.2,194.4c0.4,0.5,0.8,1.1,1,1.8c0.3,0.6,0.5,1.3,0.6,1.9c-0.4-0.5-0.8-1.1-1-1.8
		C85.5,195.8,85.3,195.1,85.2,194.4z"/>
	<path class="st4" d="M82.9,186.8c0.4,0.6,0.6,1.2,0.7,1.9c0.2,0.6,0.3,1.3,0.3,2c-0.4-0.6-0.6-1.2-0.7-1.9
		C83,188.1,82.9,187.4,82.9,186.8z"/>
	<path class="st4" d="M81.5,178.8c0.3,0.6,0.5,1.3,0.5,2c0.2,0.7,0.2,1.3,0.1,2c-0.3-0.6-0.5-1.3-0.5-2
		C81.5,180.2,81.4,179.5,81.5,178.8z"/>
	<path class="st4" d="M80.8,170.9c0.4,1.3,0.5,2.7,0.3,4c-0.3-0.6-0.4-1.3-0.4-2C80.6,172.2,80.6,171.5,80.8,170.9z"/>
	<path class="st4" d="M80.4,164.8c0.1,0,0.2,0.4,0.3,1c0,0.6,0,1-0.2,1s-0.2-0.4-0.3-1C80.3,165.3,80.3,164.8,80.4,164.8z"/>
	
		<rect x="45" y="117.8" transform="matrix(0.9989 -4.710549e-02 4.710549e-02 0.9989 -6.522 3.8465)" class="st9" width="66.7" height="45"/>
	<path class="st4" d="M46.1,164.3L46.1,164.3L44,119.4l0,0l66.6-3.1l0,0l2.1,44.9l0,0L46.1,164.3z M44,119.4l2.1,44.9l66.6-3.1
		l-2.1-44.9L44,119.4z"/>
	<path class="st4" d="M110.8,116.8c-0.2,0.2-0.4,0.4-0.6,0.6l-1.8,1.7l-6.6,6.2l-22.1,20.4l-0.2,0.2l-0.2-0.1l-0.5-0.4l-24.6-17.9
		c-3.1-2.3-5.6-4.2-7.4-5.5l-2-1.5c-0.2-0.2-0.5-0.4-0.7-0.6c0.3,0.1,0.5,0.3,0.7,0.5l2.1,1.4l7.5,5.3l24.7,17.8l0.5,0.4h-0.4
		l22.2-20.3l6.7-6.1l1.9-1.6C110.4,117.1,110.6,116.9,110.8,116.8z"/>
	<path class="st4" d="M46.3,164.8c-0.1-0.1,4.6-6.5,10.5-14.3s10.9-14,11-13.9c0.1,0.1-4.6,6.5-10.5,14.3S46.5,164.9,46.3,164.8z"/>
	<path class="st4" d="M90,135c0.1-0.1,5.4,5.8,11.7,13.1c6.3,7.4,11.4,13.4,11.2,13.5s-5.4-5.8-11.7-13.1S89.9,135.2,90,135z"/>
</g>
<g id="freepik--Character--inject-2">
	<path class="st10" d="M182.8,284.4c0.2-1.1-0.5-2-1.6-2.3l-2,0.1l-7.3-2.5c-1.2-0.3-2.3,0.4-2.7,1.5c0,0.1-0.1,0.3-0.1,0.4
		c0,2.1-0.9,7.7-2.6,6l-0.1-0.1c-2.4-2.7-5.1-3.9-6.2-3.8c-0.7,0.1-1.1,0.8-1,1.4c0.1,0.3,0.2,0.5,0.4,0.7c0.1,0.1,0.3,0.2,0.4,0.3
		c0.1,0,0.2,0.1,0.2,0.1c1,0.7,1.9,1.6,2.8,2.5c0.8,0.8,1.4,1.7,1.8,2.7c0.5,1.1,0.9,2.1,1.2,2.9l0.1,6.7l-2.9,31.1
		c0,0-19.2-20.1-18.7-20.3l1.1,31.3l11.6,9.6c6.2,5.1,15.4,4.3,20.5-1.9c2.2-2.7,3.4-6.1,3.4-9.6l-0.7-40.2l0.5-5.3L182.8,284.4z"/>
	<path class="st10" d="M75.3,328.6l-21,48l-16.6,34.6l-12.3,4.1c0,0-9.7,2.8-9.7,4.8s2.6,1.6,2.6,1.6c0.5,3,4.6,1.3,7.6,0
		s9.4-1.7,9.4-1.7c-1.2,0.8-1.5,2.5-0.7,3.7c0.1,0.2,0.3,0.4,0.5,0.6c1,0.7,2.8-0.2,4-1.5s4.4-1.9,7.9-3.1c3.5-1.3,4.1-5.9,4.1-5.9
		L93,343L75.3,328.6z"/>
	<path class="st9" d="M144.8,346l5.3,7l11.4-25.3c0,0-11.1-13.5-15.1-19.2c-4.1-5.7-7-6.6-7-6.6s-7.4-2.2-11-2.2l-18.2,1.1
		l-18.5,8.1c-4.5,2-8.4,5.2-11.1,9.4l-17.4,28l24.7,10.5L96,404c1.6,7.1,3,13.8,9.5,17l45.7-43.9l-5.4-8.4L144.8,346z"/>
	<path class="st4" d="M101.1,337.3c0.1,0.1-2.7,4.4-6.3,9.8c-3.6,5.3-6.6,9.6-6.7,9.5s2.7-4.4,6.3-9.8
		C98,341.5,101,337.3,101.1,337.3z"/>
	<path class="st4" d="M139.5,382.2c-0.4,0.3-0.8,0.5-1.2,0.7c-0.8,0.4-2,1.1-3.4,1.8c-2.9,1.5-6.9,3.5-11.4,5.6
		c-4.5,2.1-8.6,3.9-11.6,5.2c-1.5,0.6-2.7,1.1-3.6,1.5c-0.4,0.2-0.9,0.4-1.3,0.5c0.4-0.3,0.8-0.5,1.3-0.6l3.5-1.6
		c3-1.4,7-3.2,11.5-5.3s8.5-4.1,11.4-5.4l3.5-1.7C138.6,382.6,139,382.4,139.5,382.2z"/>
	<path class="st4" d="M99.7,327.1c-0.6-0.6-1.1-1.3-1.6-2c-1.2-1.7-2.6-3.2-4.1-4.6s-3.3-2.4-5.2-3.1c-1.5-0.5-2.5-0.5-2.5-0.5
		c0.2-0.1,0.5-0.1,0.7-0.1c0.6,0,1.3,0.1,1.9,0.3c2,0.6,3.9,1.6,5.4,3s2.9,3,4,4.8C98.9,325.6,99.3,326.3,99.7,327.1z"/>
	<path class="st4" d="M137.3,350.1c0,0.2,0,0.3,0,0.5c0,0.3,0,0.8,0,1.4c-0.1,1.8-0.4,3.5-0.7,5.2c-2.5,11.6-10.3,21.4-21.1,26.3
		c-1.6,0.7-3.3,1.3-5,1.8c-0.6,0.2-1.1,0.3-1.4,0.4c-0.2,0.1-0.3,0.1-0.5,0.1c0,0,0.7-0.2,1.8-0.6c1.7-0.6,3.3-1.2,4.9-2
		c10.6-5,18.3-14.7,20.9-26.1c0.4-1.7,0.7-3.4,0.9-5.2C137.2,350.8,137.3,350.1,137.3,350.1z"/>
	<g class="st7">
		<path d="M90.9,375c-0.1-0.5,5.9-31.2,5.9-31.2l-9,13.5"/>
	</g>
	<path class="st4" d="M143.7,316.5c0,0.2,0.1,0.3,0.1,0.5c0,0.4,0.1,0.9,0.1,1.5c0.1,1.4,0.2,3.3,0.3,5.6c0.2,4.8,0.5,11.3,0.9,18.4
		c0.4,7.2,0.6,13.7,0.8,18.4c0.1,2.4,0.1,4.3,0.1,5.6v1.5c0,0.2,0,0.4,0,0.5c0-0.2-0.1-0.3-0.1-0.5c0-0.4-0.1-0.9-0.1-1.5
		c-0.1-1.4-0.2-3.3-0.3-5.6c-0.2-4.8-0.5-11.3-0.9-18.4c-0.4-7.2-0.6-13.7-0.8-18.4c-0.1-2.4-0.1-4.3-0.1-5.6V317
		C143.7,316.9,143.7,316.7,143.7,316.5z"/>
	<g class="st11">
		<path d="M107.2,397.5c-1.5-1.2-1.1-3.7,0.2-5.1c1.3-1.4,3.2-2,5-2.6c8.7-2.8,17.4-6.8,23.1-13.9c0.7-1,1.6-1.9,2.6-2.7
			c1-0.8,2.4-1,3.6-0.5c1.8,0.9,1.8,3.4,1.1,5.3c-0.9,2.3-2.6,4.1-4.8,5.2"/>
	</g>
	<g class="st11">
		<polygon points="143.9,322 148.9,351.4 145,346.2 		"/>
	</g>
	<path class="st9" d="M192.1,399.3l-8.6,29.4l36.5,10.9c0.8-3.6-16-16.2-16-16.2l6.3-18.7L192.1,399.3z"/>
	<g class="st12">
		<path class="st13" d="M193.3,418.5c-0.8,0-1.5,0.6-1.5,1.4s0.6,1.5,1.4,1.5c0.8,0,1.5-0.7,1.6-1.5c-0.1-0.8-0.8-1.5-1.6-1.4"/>
	</g>
	<g class="st12">
		<path class="st13" d="M183.6,428.7l1-2.9l34.7,11.5c0,0,1.4,1.2,0.9,2.3L183.6,428.7z"/>
	</g>
	<path class="st4" d="M204.8,423.4c-0.1,0.2-1,0-2,0.3c-1.1,0.3-1.7,0.9-1.9,0.8c-0.1-0.1,0.4-1.1,1.7-1.4S204.8,423.2,204.8,423.4z
		"/>
	<path class="st4" d="M208.1,426.1c0,0.2-0.9,0.3-1.7,0.8c-0.8,0.6-1.2,1.3-1.4,1.3c-0.2-0.1,0-1.1,1.1-1.8S208.2,425.9,208.1,426.1
		z"/>
	<path class="st4" d="M208.9,431.3c-0.2,0-0.2-1,0.6-1.8s1.7-1,1.7-0.8s-0.6,0.5-1.2,1.2S209.1,431.4,208.9,431.3z"/>
	<path class="st4" d="M205.7,419c-0.1,0.1-0.9-0.4-1.9-0.6s-1.9-0.1-2-0.3c0-0.2,0.9-0.6,2.1-0.3C205.2,418,205.9,418.9,205.7,419z"
		/>
	<path class="st4" d="M206.1,414.4c-0.6,0-1.3-0.2-1.8-0.6c-0.6-0.3-1.2-0.7-1.7-1.2c-0.3-0.3-0.6-0.6-0.9-0.9
		c-0.2-0.2-0.3-0.4-0.4-0.6c-0.2-0.3-0.1-0.7,0.2-1c0.3-0.2,0.6-0.3,0.9-0.2c0.2,0.1,0.5,0.2,0.7,0.3c0.4,0.2,0.7,0.5,1,0.7
		c0.5,0.5,1,1,1.4,1.6C205.8,413.2,206,413.8,206.1,414.4c-0.2,0.1-0.4-0.6-1.1-1.5c-0.4-0.5-0.8-1-1.4-1.4c-0.3-0.2-0.6-0.5-1-0.6
		c-0.4-0.2-0.7-0.3-0.8-0.2c-0.2,0.1-0.1,0.1,0,0.2c0.1,0.2,0.2,0.3,0.3,0.4c0.3,0.3,0.5,0.6,0.8,0.8c0.5,0.4,1,0.9,1.6,1.2
		C205.5,414,206.2,414.3,206.1,414.4z"/>
	<path class="st4" d="M205.8,414.6c-0.2-0.6-0.2-1.3,0-1.9c0.2-0.7,0.4-1.3,0.8-1.9c0.2-0.4,0.5-0.7,0.8-1c0.3-0.4,0.9-0.7,1.4-0.6
		c0.3,0.1,0.6,0.4,0.6,0.7c0,0.2,0,0.5,0,0.7c-0.1,0.4-0.2,0.8-0.4,1.2c-0.3,0.7-0.8,1.2-1.3,1.7c-1,0.7-1.8,0.7-1.8,0.7
		s0.7-0.3,1.5-1c0.5-0.4,0.8-1,1.1-1.5c0.1-0.3,0.2-0.7,0.3-1.1s0-0.8-0.1-0.8s-0.6,0.1-0.8,0.4c-0.3,0.3-0.5,0.5-0.7,0.9
		c-0.4,0.5-0.7,1.1-0.9,1.7C205.9,413.8,205.9,414.6,205.8,414.6z"/>
	<path class="st4" d="M229.7,355.5c0.9,6.8-1.4,14.4-3.9,20.9l-16,37.6l-17.7-2.7c0,0-3.7,4.1-8.4,5.7c-2.1,0.7-9.1,2.1-14.8-2.1
		l0,0c0,0-8.1,11.3-20.9,14.7c-12.8,3.4-32.1,5.3-41.4-9.6l44.5-42.9c0.9,0.2,38.3-25,58.5-30.8C209.6,346.4,228,343,229.7,355.5z"
		/>
	<path class="st3" d="M190.7,411.1c0,0,0.1-0.1,0.2-0.1l0.7-0.4c0.6-0.3,1.6-0.8,2.8-1.5c1.5-0.8,2.9-1.7,4.2-2.6
		c1.8-1.2,3.4-2.7,4.8-4.5c1.6-2.1,2.7-4.6,3.1-7.2c0.5-3,0.3-6.1-0.4-9.1c-0.6-3.3-2.3-6.3-4.9-8.5c-2.9-2.1-6.4-3.4-10-3.6
		c-1.8-0.1-3.7-0.1-5.5,0c-1.8,0.2-3.5,0.5-5.3,0.9c-3.3,0.8-6.5,2-9.6,3.3c-5.9,2.6-11.1,5.4-15.6,7.3c-3.5,1.6-7.2,2.8-11,3.7
		c-0.7,0.2-1.3,0.3-1.8,0.3c-0.5,0.1-1,0.2-1.3,0.2l-0.8,0.1H140l0.3-0.1l0.8-0.1c0.4-0.1,0.8-0.1,1.3-0.2s1.1-0.2,1.8-0.4
		c3.7-0.9,7.4-2.2,10.9-3.8c4.5-2,9.6-4.8,15.6-7.4c3.1-1.4,6.3-2.5,9.6-3.4c1.8-0.4,3.5-0.7,5.3-0.9c1.9-0.2,3.7-0.2,5.6,0
		c3.7,0.2,7.3,1.5,10.3,3.7c1.4,1.1,2.5,2.5,3.3,4s1.4,3.1,1.7,4.7c0.7,3,0.8,6.2,0.3,9.2c-0.4,2.7-1.5,5.2-3.2,7.3
		c-1.4,1.7-3.1,3.2-4.9,4.5c-1.4,0.9-2.8,1.8-4.3,2.6c-1.2,0.6-2.2,1.1-2.8,1.4L191,411C190.9,411.1,190.8,411.1,190.7,411.1z"/>
	<path class="st3" d="M201.8,361.7c-1.1,2.1-2.3,4.1-3.7,6.1c-1.2,2-2.6,4-4.1,5.8c1.1-2.1,2.3-4.1,3.7-6.1
		C199,365.5,200.4,363.5,201.8,361.7z"/>
	<path class="st3" d="M189,408.1c-1.1,0.3-2.1,0.6-3.2,0.8c-2,0.5-4.7,1.2-7.7,2.3c-3,1-5.6,2.2-7.4,3c-1.9,0.9-3,1.4-3,1.4
		c0.2-0.2,0.5-0.4,0.7-0.5c0.5-0.3,1.2-0.7,2.2-1.2c4.8-2.4,9.9-4.2,15.2-5.3c1-0.2,1.8-0.4,2.4-0.4
		C188.5,408.2,188.7,408.1,189,408.1z"/>
	<path class="st3" d="M209.5,411.5c-0.1,0-0.3-0.8-1-1.9c-2-3-5.8-4.2-9.1-3c-1.3,0.5-1.9,1-2,0.9s0.1-0.2,0.4-0.4
		c0.4-0.3,0.9-0.6,1.4-0.8c3.5-1.5,7.6-0.2,9.5,3.1c0.3,0.5,0.5,1,0.7,1.5C209.5,411.3,209.5,411.5,209.5,411.5z"/>
	<path class="st3" d="M132.7,397.5c0.1,0.3,0.2,0.6,0.2,0.8c0.1,0.8,0.2,1.6,0.2,2.4c0,2.7-0.7,5.3-2.1,7.6c-1.4,2.3-3.5,4-6.1,4.9
		c-0.8,0.3-1.6,0.4-2.4,0.5c-0.3,0.1-0.6,0.1-0.9,0c1.1-0.1,2.1-0.4,3.1-0.7c2.4-0.9,4.4-2.7,5.8-4.9c1.3-2.2,2.1-4.7,2.2-7.3
		C132.9,398.7,132.6,397.5,132.7,397.5z"/>
	<path class="st3" d="M112.7,417.8c-0.1,0.1-0.6-0.3-1-0.9s-0.7-1.2-0.6-1.3s0.5,0.4,1,1C112.5,417.2,112.8,417.8,112.7,417.8z"/>
	<path class="st3" d="M116.4,421.8c-0.1,0.1-0.6-0.3-1.1-0.8s-0.9-1-0.8-1.1s0.6,0.3,1.1,0.8C116.1,421.2,116.5,421.7,116.4,421.8z"
		/>
	<path class="st3" d="M120.8,425c-0.1,0.1-0.6-0.1-1.3-0.5c-0.6-0.4-1.1-0.8-1-0.9s0.7,0.1,1.3,0.5
		C120.4,424.5,120.9,424.9,120.8,425z"/>
	<path class="st3" d="M125.8,427.1c0,0.1-0.6,0-1.4-0.2c-0.7-0.2-1.3-0.6-1.2-0.7c0.1-0.1,0.7,0,1.4,0.2
		C125.3,426.7,125.9,427,125.8,427.1z"/>
	<path class="st3" d="M131.2,428c0,0.1-0.6,0.2-1.4,0.1c-0.8-0.1-1.4-0.2-1.3-0.4c0-0.1,0.6-0.2,1.4-0.1
		C130.6,427.7,131.2,427.8,131.2,428z"/>
	<path class="st3" d="M136.6,427.7c0,0.1-0.6,0.3-1.3,0.3c-0.3,0-0.7,0-1,0l0,0c-0.2,0-0.4-0.1-0.4-0.1c0-0.1,0.1-0.1,0.3-0.2l0,0
		c0.3-0.1,0.7-0.1,1-0.1C136,427.5,136.6,427.5,136.6,427.7z"/>
	<path class="st3" d="M142,426.7c0,0.1-0.5,0.4-1.3,0.5s-1.4,0.2-1.4,0.1s0.5-0.4,1.3-0.5C141.3,426.6,141.9,426.6,142,426.7z"/>
	<path class="st3" d="M147.2,425.1c0,0.1-0.5,0.4-1.2,0.7c-0.7,0.2-1.3,0.3-1.4,0.2c0-0.1,0.5-0.4,1.2-0.7S147.1,425,147.2,425.1z"
		/>
	<path class="st3" d="M152.2,423c0.1,0.1-0.5,0.5-1.1,0.8c-0.7,0.3-1.3,0.5-1.3,0.4c-0.1-0.1,0.5-0.5,1.1-0.8
		C151.5,423,152.1,422.9,152.2,423z"/>
	<path class="st3" d="M156.9,420.4c0.1,0.1-0.4,0.5-1.1,0.9c-0.7,0.4-1.2,0.6-1.3,0.5s0.4-0.5,1.1-0.9S156.9,420.3,156.9,420.4z"/>
	<path class="st3" d="M161.4,417.3c0.1,0.1-0.4,0.5-1,1c-0.6,0.4-1.2,0.7-1.2,0.6c-0.1-0.1,0.4-0.6,1-1S161.3,417.2,161.4,417.3z"/>
	<path class="st3" d="M165.6,413.8c0.1,0.1-0.3,0.6-0.9,1.1c-0.6,0.5-1.1,0.8-1.2,0.7s0.3-0.6,0.9-1.1
		C165,414.1,165.5,413.7,165.6,413.8z"/>
	<path class="st3" d="M169.6,410.1c0.1,0.1-0.3,0.6-0.8,1.1s-1.1,0.9-1.2,0.8c-0.1-0.1,0.3-0.6,0.8-1.1
		C169,410.3,169.5,410,169.6,410.1z"/>
	<path class="st3" d="M173.9,406.7c0.1,0.1-0.4,0.6-1,1s-1.2,0.7-1.2,0.6c-0.1-0.1,0.4-0.5,1-1C173.2,406.9,173.8,406.6,173.9,406.7
		z"/>
	<path class="st3" d="M178.7,404.1c0.1,0.1-0.5,0.5-1.1,0.8c-0.7,0.3-1.3,0.5-1.3,0.4c-0.1-0.1,0.4-0.5,1.1-0.8
		C178,404.2,178.6,404,178.7,404.1z"/>
	<path class="st3" d="M183.8,402.5c0,0.1-0.5,0.4-1.3,0.6c-0.7,0.2-1.3,0.2-1.4,0.1c0-0.1,0.5-0.4,1.3-0.6
		C183.2,402.4,183.8,402.4,183.8,402.5z"/>
	<path class="st3" d="M189.3,402.2c0,0.1-0.6,0.2-1.4,0.2c-0.7,0-1.3-0.1-1.4-0.2c0-0.1,0.6-0.3,1.4-0.3
		C188.7,401.9,189.3,402.1,189.3,402.2z"/>
	<path class="st3" d="M194.5,403.6c-0.1,0.1-0.6-0.1-1.3-0.3s-1.3-0.5-1.2-0.6c0-0.1,0.7-0.1,1.4,0.2S194.6,403.5,194.5,403.6z"/>
	<path class="st3" d="M193.4,407.6c-0.1-0.1,0.3-0.6,0.8-1.1s0.9-1,1-0.9s-0.1,0.7-0.6,1.2C194,407.4,193.5,407.7,193.4,407.6z"/>
	<path class="st3" d="M188.6,410.1c0-0.1,0.5-0.5,1.2-0.7c0.7-0.3,1.3-0.4,1.4-0.3c0.1,0.1-0.5,0.4-1.2,0.7S188.6,410.2,188.6,410.1
		z"/>
	<path class="st3" d="M183.4,411.7c0-0.1,0.5-0.4,1.2-0.7c0.7-0.2,1.3-0.3,1.4-0.2c0,0.1-0.5,0.4-1.2,0.7S183.4,411.8,183.4,411.7z"
		/>
	<path class="st3" d="M178.3,413.7c-0.1-0.1,0.5-0.4,1.2-0.7c0.7-0.3,1.3-0.4,1.4-0.3c0,0.1-0.5,0.4-1.2,0.7
		C178.9,413.7,178.3,413.8,178.3,413.7z"/>
	<path class="st3" d="M173.3,415.8c-0.1-0.1,0.5-0.5,1.2-0.8s1.3-0.4,1.3-0.3s-0.5,0.5-1.2,0.8C173.9,415.8,173.3,415.9,173.3,415.8
		z"/>
	<path class="st10" d="M174.1,279.2c0.8,0.1,1.3,0.7,1.2,1.4c-0.3,1.2-0.6,3.3-1,4.4c-0.1,0.4-0.3,0.8-0.6,1.1
		c-0.3,0.5-1.1,0.7-1.7,0.4c-0.3-0.1-0.5-0.4-0.6-0.7c-0.1-0.4-0.1-0.9,0-1.3c0.2-1.1,0.6-2.9,0.9-4.4
		C172.5,279.5,173.4,279,174.1,279.2L174.1,279.2L174.1,279.2z"/>
	<path class="st10" d="M177.1,279.9c0.8,0.2,1.3,1.1,1.1,1.9c-0.4,1.5-1,4-1.5,5.4c-0.1,0.5-0.4,0.9-0.7,1.3s-0.8,0.6-1.3,0.5
		c-0.5-0.2-0.9-0.6-1-1.2c-0.1-0.5,0-1.1,0.1-1.6c0.3-1.4,0.9-3.6,1.4-5.4C175.4,280.1,176.2,279.6,177.1,279.9L177.1,279.9z"/>
	<path class="st10" d="M179.4,281.4c0.7,0.2,1.1,0.9,0.9,1.6c-0.3,1.3-0.9,3.4-1.3,4.7c-0.1,0.4-0.3,0.8-0.6,1.2
		c-0.3,0.5-1,0.6-1.5,0.3c-0.3-0.2-0.4-0.5-0.5-0.8c-0.1-0.5,0-0.9,0.1-1.4c0.3-1.2,0.8-3.1,1.2-4.6
		C178,281.6,178.7,281.2,179.4,281.4L179.4,281.4z"/>
	<path class="st10" d="M182.1,281.7c0.7,0.2,1.1,0.9,0.9,1.6c-0.3,1.3-0.9,3.4-1.3,4.7c-0.1,0.4-0.3,0.8-0.6,1.2
		c-0.3,0.5-1,0.6-1.5,0.3c-0.3-0.2-0.5-0.5-0.5-0.9c-0.1-0.5,0-0.9,0.1-1.4c0.3-1.2,0.8-3.1,1.2-4.7
		C180.7,281.9,181.4,281.5,182.1,281.7L182.1,281.7L182.1,281.7z"/>
	<path class="st14" d="M173.8,286c0.1-1,0.3-2,0.7-2.9c0.2-1,0.6-1.9,1.1-2.8c-0.1,1-0.3,2-0.7,2.9
		C174.6,284.2,174.3,285.2,173.8,286z"/>
	<path class="st14" d="M170.8,286.1c0-1,0.1-2,0.4-3c0.1-1,0.4-1.9,0.8-2.9c0,1-0.1,2-0.4,3C171.4,284.2,171.2,285.2,170.8,286.1z"
		/>
	<path class="st14" d="M178.9,288.1c0.4-1.9,1-3.8,1.7-5.7C180.5,284.4,179.9,286.4,178.9,288.1L178.9,288.1z"/>
	<path class="st14" d="M176.3,287.8c0.4-1.9,1-3.9,1.7-5.7C177.9,284.1,177.3,286,176.3,287.8z"/>
	<path class="st10" d="M100.1,272.2l6.2,35c1.1,6.1,6.8,10.2,13,9.3l0,0c6.2-0.8,10.7-6.5,9.9-12.8c0-0.1,0-0.2,0-0.3l-1-6
		c0,0,8.6-2.3,7.7-11c-0.4-4.2-2-12.7-3.6-20.4c-1.8-8.7-10.1-14.4-18.9-12.9l0,0c-8.8,1.4-14.8,9.7-13.3,18.5
		C100,271.8,100,272,100.1,272.2z"/>
	<path class="st14" d="M128,297.5c-4,0.5-8.1-0.1-11.8-1.9c0,0,3.4,5.9,12.1,4.1L128,297.5z"/>
	<path class="st4" d="M130.3,271.9c0.1,0.7-0.4,1.3-1.1,1.4c-0.6,0.1-1.3-0.3-1.4-0.9l0,0c-0.1-0.7,0.4-1.3,1.1-1.4
		C129.5,270.8,130.2,271.2,130.3,271.9L130.3,271.9z"/>
	<path class="st4" d="M130.6,269.8c-0.1,0.2-1.2-0.4-2.5-0.2s-2.3,0.9-2.4,0.8c-0.2-0.1,0-0.4,0.4-0.7c0.5-0.5,1.2-0.8,1.9-0.8
		c0.7-0.1,1.4,0.1,2,0.4C130.5,269.4,130.7,269.7,130.6,269.8z"/>
	<path class="st4" d="M117.6,273.4c0.1,0.7-0.4,1.3-1.1,1.4s-1.3-0.3-1.4-0.9l0,0c-0.1-0.7,0.4-1.3,1.1-1.4
		C116.8,272.3,117.5,272.7,117.6,273.4L117.6,273.4z"/>
	<path class="st4" d="M117.5,271.5c-0.1,0.2-1.2-0.4-2.5-0.3c-1.4,0.2-2.3,0.9-2.4,0.8c-0.2-0.1,0-0.4,0.4-0.7
		c0.5-0.5,1.2-0.8,1.9-0.8c0.7-0.1,1.4,0.1,2,0.4C117.4,271.2,117.6,271.5,117.5,271.5z"/>
	<path class="st4" d="M123.6,281.6c0.7-0.3,1.4-0.5,2.2-0.6c0.3-0.1,0.7-0.2,0.7-0.4c0-0.4-0.1-0.7-0.4-1l-1.3-2.5
		c-1.8-3.5-3.2-6.4-3.1-6.5s1.8,2.7,3.6,6.2c0.4,0.9,0.9,1.7,1.3,2.5c0.3,0.4,0.4,0.8,0.3,1.3c-0.1,0.3-0.3,0.5-0.5,0.6
		s-0.4,0.1-0.6,0.1C125.1,281.6,124.3,281.6,123.6,281.6z"/>
	<path class="st4" d="M119.7,283c0.2,0,0.4,1.4,1.8,2.3s2.9,0.5,2.9,0.7s-0.3,0.3-1,0.4c-0.9,0.1-1.7-0.1-2.5-0.5
		c-0.7-0.4-1.2-1.1-1.4-1.9C119.5,283.4,119.7,283,119.7,283z"/>
	<path class="st4" d="M117.3,267.1c-0.1,0.4-1.5,0.4-3,0.7s-2.8,0.9-3,0.6c-0.1-0.1,0.1-0.5,0.5-0.9c1.3-1,3-1.4,4.6-1
		C117,266.7,117.3,266.9,117.3,267.1z"/>
	<path class="st4" d="M129.8,266.8c-0.2,0.3-1.2,0.1-2.3,0.2c-1.1,0.1-2,0.4-2.3,0.1c-0.1-0.1,0-0.5,0.4-0.8
		c0.5-0.4,1.2-0.7,1.8-0.7c0.7-0.1,1.3,0.1,1.9,0.4C129.8,266.4,129.9,266.6,129.8,266.8z"/>
	<path class="st4" d="M132.2,251.3c-1.2-0.9-2.9-0.8-4,0.2c0.7-1.2,0.4-2.8-0.8-3.6s-2.6-1-4-0.6c-1.3,0.4-2.6,1-3.7,1.8
		c0.1-0.6-0.1-1.1-0.6-1.4c-0.5-0.3-1-0.5-1.6-0.5c-2.3-0.1-4.5,0.4-6.5,1.5c-2.1,1.2-4.2,2.6-6.1,4.1l0,0c-2.1,1.7-4,3.7-5.5,5.9
		l-0.1,0.1c-1.3,1.1-2.4,4.6-2.2,6.3c0.7,6.2,2.8,9.8,3.9,15.7c0,0.4,0.2,0.8,0.4,1.1c0.7,0.7,2,0.1,2.7-0.7c1.5-2,2.4-4.5,2.3-7
		c0.1-2.5-0.3-5-0.2-7.5v-0.2c0-0.6,0.1-1.3,0.2-1.9c0.1-0.4,1.2-4,4.6-4.5c3.6-0.6,10.8,2.9,14.4,2.4c3.6-0.6,3.8-3.1,3.8-3.1
		l2.1,4.3c0.5-1.7,0.6-3.5,0.3-5.3c0.9-0.8,1.5-1.9,1.8-3.1C133.9,253.7,133.4,252.2,132.2,251.3z"/>
	<path class="st10" d="M103.5,275.9c-0.2,0-6.2-1.1-5.4,4.8c0.9,5.9,6.7,3.8,6.7,3.6C104.8,284.2,103.5,275.9,103.5,275.9z"/>
	<path class="st14" d="M102.7,282.4c0,0-0.1,0.1-0.3,0.2c-0.2,0.1-0.5,0.2-0.8,0.1c-0.9-0.4-1.4-1.2-1.5-2.1c-0.1-0.5-0.1-1,0.1-1.5
		c0.1-0.4,0.3-0.7,0.7-0.9c0.2-0.1,0.5,0,0.7,0.2c0.1,0.2,0.1,0.3,0.1,0.3s0.1-0.1,0-0.4c-0.1-0.1-0.2-0.3-0.3-0.3
		c-0.2-0.1-0.4-0.1-0.6-0.1c-0.5,0.2-0.8,0.6-0.9,1.1c-0.2,0.5-0.2,1.1-0.1,1.7c0.1,1.1,0.9,2,1.9,2.3c0.3,0,0.7-0.1,0.9-0.3
		C102.7,282.5,102.7,282.4,102.7,282.4z"/>
	<path class="st5" d="M90.1,318.6c0.2-0.1,0.3-0.1,0.5-0.1c0.5,0,1,0.3,1.3,0.7c0.6,0.6,0.8,1.4,0.8,2.2c-0.1,1-0.3,2.1-0.7,3
		c-0.4,1.1-0.4,2.4,0.2,3.5s2,2,2.5,3.6s0,3.4-1.3,4.5c-0.7,0.6-1.6,0.9-2.5,1c-0.9,0-1.8-0.2-2.6-0.4c-0.8-0.3-1.6-0.3-2.5-0.2
		c-0.8,0.3-1.4,0.8-1.8,1.5s-1,1.3-1.5,1.9c-0.6,0.6-1.4,0.9-2.3,0.8c-1.5-0.1-2.9-1-3.6-2.4c-0.6-1.2-0.9-2.4-0.9-3.7
		c-0.1-1.2,0-2.2,0-3.1c0-0.8-0.1-1.5-0.2-2.3c-0.1-0.6-0.3-1.3-0.6-1.9c0.1,0.1,0.2,0.3,0.3,0.5c0.2,0.5,0.4,0.9,0.5,1.4
		c0.2,0.8,0.3,1.6,0.3,2.3c0,0.9,0,2,0.1,3.1c0,1.2,0.4,2.4,0.9,3.5c0.7,1.2,1.9,2,3.3,2.2c0.7,0,1.4-0.2,2-0.7
		c0.6-0.6,1-1.2,1.5-1.9c0.5-0.8,1.2-1.3,2.1-1.7c0.9-0.2,1.8-0.1,2.7,0.2c0.8,0.3,1.6,0.4,2.5,0.4c0.8,0,1.6-0.3,2.2-0.8
		c1.2-1,1.7-2.6,1.2-4.1c-0.4-1.4-1.7-2.3-2.4-3.5c-0.4-0.6-0.5-1.3-0.5-2c0-0.6,0.1-1.2,0.3-1.8c0.4-1,0.6-2,0.8-3
		c0.1-0.8-0.2-1.5-0.7-2.1c-0.3-0.4-0.7-0.6-1.2-0.7C90.3,318.5,90.1,318.6,90.1,318.6z"/>
	<path class="st5" d="M92.6,382.1c0,0,0.1,0.2,0.3,0.6c0.3,0.5,0.8,0.8,1.4,1c0.9,0.3,1.9,0.1,2.6-0.5c0.9-0.8,1.5-2,1.7-3.2
		c0.3-1.4,0.2-2.9,0.5-4.5c0.1-0.9,0.4-1.7,0.8-2.5c0.5-0.8,1.2-1.5,2.1-1.9c0.9-0.3,1.9-0.4,2.9-0.3s2,0.3,2.9,0.5
		c1,0.2,2,0.1,3-0.1c1-0.3,1.9-0.8,2.7-1.5c0.8-0.7,1.3-1.6,1.6-2.5c0.3-0.9,0.3-2-0.1-2.9c-0.5-1.8-2.1-3.2-3.9-3.5
		c-1.8-0.2-3.4,0.7-5.2,0.7c-0.8,0-1.7-0.2-2.4-0.5c-0.7-0.3-1.3-0.7-1.9-1.2c-0.9-0.8-2-1.5-3.2-1.9c-0.9-0.3-1.9-0.3-2.7,0.2
		c-0.5,0.3-0.9,0.7-1.2,1.3c-0.1,0.2-0.1,0.4-0.1,0.6c0-0.2,0-0.4,0.1-0.6c0.2-0.6,0.6-1.1,1.2-1.4c0.4-0.2,0.8-0.4,1.3-0.4
		c0.5-0.1,1.1,0,1.6,0.2c1.2,0.5,2.3,1.1,3.3,1.9c1.1,1,2.6,1.6,4.1,1.6c0.8-0.1,1.7-0.2,2.5-0.5c0.9-0.3,1.8-0.4,2.7-0.3
		c2.1,0.3,3.7,1.8,4.3,3.8c0.4,1,0.4,2.1,0.1,3.2c-0.3,1-0.9,2-1.8,2.7c-0.8,0.7-1.8,1.3-2.8,1.6c-1,0.3-2.1,0.3-3.1,0.1
		c-1-0.1-2-0.4-2.9-0.5c-0.9-0.2-1.8-0.1-2.7,0.2c-0.8,0.3-1.5,0.9-1.9,1.7c-0.4,0.7-0.7,1.5-0.8,2.3c-0.3,1.6-0.2,3.2-0.6,4.5
		c-0.2,1.3-0.9,2.5-1.9,3.3c-0.8,0.6-1.8,0.8-2.8,0.5c-0.6-0.2-1.1-0.6-1.4-1.1C92.6,382.5,92.6,382.3,92.6,382.1z"/>
	<path class="st5" d="M123.4,327.1c0.2-0.3,0.4-0.6,0.6-0.8c0.7-0.7,1.7-1.2,2.7-1.4c1.7-0.2,3.3,0.4,4.3,1.7c0.6,0.8,1,1.8,1.1,2.8
		c0,1.1,0.2,2.2,0.7,3.2c0.3,0.5,0.8,0.8,1.3,1c0.6,0.2,1.2,0.3,1.8,0.3s1.3,0,2,0.1c0.7,0,1.4,0.3,2,0.7c0.3,0.2,0.5,0.6,0.7,0.9
		c0.2,0.4,0.2,0.7,0.2,1.1c-0.1,0.8-0.4,1.5-0.9,2.1s-1.1,1.1-1.8,1.4s-1.4,0.6-2.1,1c-0.7,0.3-1.4,0.7-1.9,1.2
		c-0.6,0.5-1,1.2-1.1,1.9c-0.4,1.5,0,3.2-0.1,4.9c0,0.9-0.3,1.8-0.7,2.5c-0.4,0.9-1.2,1.5-2.2,1.6s-1.9-0.2-2.6-0.9
		c-0.7-0.6-1.3-1.3-1.7-2.1c-0.4-0.8-0.9-1.5-1.4-2.2s-1.2-1.2-1.9-1.5c-0.8-0.2-1.6-0.2-2.4,0.2c-0.8,0.3-1.5,0.7-2.2,1.2
		s-1.5,0.9-2.3,1.2c-0.8,0.3-1.6,0.4-2.5,0.4c-1.6,0-3.2-0.6-4.5-1.6c-1.3-0.9-2.2-2.3-2.5-3.8c-0.4-1.5,0-3,1.1-4.1
		c0.5-0.5,1.2-0.8,1.9-1c0.6-0.2,1.3-0.3,2-0.3c1.2-0.1,2.4-0.4,3.3-1.1c0.8-0.7,1.4-1.7,1.8-2.7s0.6-1.9,1-2.8
		c0.3-0.8,0.7-1.6,1.2-2.3c0.5-0.6,1-1.1,1.6-1.5c0.8-0.7,1.7-1.1,2.7-1.3c0.4-0.1,0.7,0,1,0.3c-0.3-0.2-0.7-0.2-1-0.2
		c-1,0.2-1.9,0.7-2.6,1.4c-0.6,0.5-1.1,1-1.5,1.5c-0.5,0.7-0.9,1.5-1.2,2.3c-0.3,0.9-0.6,1.8-0.9,2.8c-0.4,1.1-1,2.1-1.8,2.8
		c-1,0.7-2.2,1.2-3.5,1.2c-1.2,0.2-2.6,0.3-3.6,1.2c-0.9,1-1.3,2.4-0.9,3.8c0.3,1.4,1.2,2.7,2.3,3.6c1.2,0.9,2.7,1.4,4.3,1.5
		c0.8,0,1.6-0.1,2.3-0.4c0.8-0.3,1.5-0.7,2.2-1.1c0.6-0.4,1.3-0.8,2-1.2c0.9-0.4,1.8-0.4,2.7-0.2c0.9,0.3,1.6,0.9,2.2,1.7
		c0.5,0.7,1,1.5,1.4,2.3c0.4,0.7,1,1.4,1.6,2s1.4,0.8,2.2,0.8c0.8-0.1,1.5-0.7,1.8-1.4c0.4-0.7,0.6-1.5,0.6-2.3
		c0.1-1.6-0.3-3.3,0.1-5c0.2-0.8,0.6-1.6,1.3-2.2c0.6-0.5,1.3-1,2.1-1.3c0.7-0.3,1.4-0.6,2.1-0.9c0.6-0.3,1.2-0.8,1.7-1.3
		s0.8-1.1,0.9-1.8c0-0.3,0-0.6-0.1-0.9s-0.3-0.5-0.6-0.7c-0.5-0.4-1.2-0.6-1.8-0.6c-0.6-0.1-1.3-0.1-1.9-0.1c-0.6,0-1.3-0.1-1.9-0.3
		c-0.6-0.2-1.1-0.6-1.5-1.1c-0.5-1-0.7-2.2-0.7-3.3c0-1-0.4-1.9-1-2.7c-1-1.3-2.5-1.9-4.1-1.7c-1,0.1-1.9,0.6-2.6,1.2
		C123.9,326.6,123.6,326.8,123.4,327.1z"/>
	<path class="st5" d="M108.1,311.8c-0.5,0.5-1.2,0.8-1.9,0.9c-0.8,0.2-1.5,0.2-2.3,0c-1-0.2-1.9-0.7-2.5-1.4
		c-0.5-0.8-0.9-1.7-0.9-2.7c-0.1-0.8,0-1.5,0.2-2.3c0.1-0.7,0.4-1.3,1-1.8c-0.3,0.6-0.5,1.3-0.6,1.9c-0.1,0.7-0.1,1.5-0.1,2.2
		c0.1,0.9,0.4,1.7,0.8,2.5c0.6,0.7,1.3,1.1,2.2,1.3c0.7,0.2,1.4,0.2,2.2,0.1C106.8,312.2,107.5,312,108.1,311.8z"/>
	<path class="st5" d="M147.2,309.5c0,0,0,0.1-0.1,0.2c-0.1,0.2-0.2,0.5-0.4,0.7c-0.6,0.7-1.4,1.3-2.3,1.5c-0.6,0.1-1.3,0.1-1.9,0
		c-0.7-0.2-1.4-0.6-1.9-1c-0.6-0.5-1.2-0.9-1.9-1.2c-0.7-0.2-1.5,0.1-1.9,0.8c-0.4,0.7-0.8,1.4-1.1,2.2c-0.4,0.7-0.9,1.4-1.6,1.8
		c-2,1.3-4.6,0.8-5.9-1.1c0-0.1-0.1-0.1-0.1-0.2c-0.2-0.3-0.3-0.6-0.4-0.9c0,0,0.2,0.3,0.5,0.8c0.5,0.7,1.2,1.2,2.1,1.5
		c2,0.7,4.2-0.3,5-2.2c0.3-0.8,0.7-1.5,1.1-2.3c0.3-0.4,0.6-0.7,1.1-0.9c0.4-0.2,0.9-0.2,1.4-0.1c0.8,0.3,1.5,0.7,2.1,1.3
		c0.5,0.5,1.1,0.8,1.8,1c0.6,0.1,1.2,0.1,1.8,0c0.8-0.2,1.6-0.6,2.2-1.3C147,309.8,147.2,309.5,147.2,309.5z"/>
	<path class="st5" d="M153.7,345.1c-0.4-0.2-0.7-0.4-1-0.7c-0.9-0.7-1.7-1.4-2.5-2.2c-0.5-0.6-1-1.2-1.4-1.8
		c-0.5-0.8-0.8-1.6-0.9-2.5c-0.1-1,0-2,0.5-2.9c0.2-0.5,0.6-0.9,1-1.2c0.4-0.3,0.9-0.6,1.3-0.9c0.4-0.2,0.8-0.6,1.2-0.9
		c0.3-0.3,0.6-0.7,0.7-1.2c0.2-0.9,0.2-1.8,0.1-2.7c-0.1-0.9-0.2-1.7-0.2-2.6c0-0.8,0.3-1.6,0.8-2.2c0.8-0.8,1.9-1.2,3.1-1.2
		c0.4-0.1,0.8,0.1,1.1,0.4c-0.3-0.2-0.7-0.3-1.1-0.2c-1.1,0.1-2.1,0.6-2.8,1.3c-0.5,0.5-0.7,1.2-0.7,2s0.1,1.7,0.2,2.5
		c0.2,1,0.2,2-0.1,2.9c-0.1,0.5-0.4,1-0.8,1.4c-0.4,0.4-0.8,0.7-1.3,1c-0.9,0.4-1.7,1.1-2.2,1.9c-0.4,0.8-0.6,1.7-0.4,2.7
		c0.3,1.6,1,3,2.2,4.1C152.3,344.1,153.7,345,153.7,345.1z"/>
	<path class="st5" d="M134.7,363.1c0.1,0,0.3,0,0.4,0c0.4,0,0.8,0,1.2,0.1c1.5,0.1,3,0.6,4.3,1.3c2,1,3.5,2.9,4.1,5.1
		c0.3,1.3,0.1,2.7-0.6,3.9c-0.7,1.3-2,2.2-3.4,2.6c-0.7,0.1-1.5,0.1-2.2-0.1c-0.6-0.2-1.3-0.2-1.9,0c-0.6,0.2-1.1,0.6-1.5,1.1
		s-0.7,1-1,1.5c-0.5,1.1-1.3,2.1-2.4,2.7c-1,0.5-2.1,0.6-3.1,0.4c-0.9-0.2-1.6-0.7-2.2-1.4c-0.4-0.5-0.7-1.1-0.8-1.8
		c-0.1-0.4-0.1-0.8-0.1-1.2c0-0.1,0-0.3,0.1-0.4c0,0.5,0,1.1,0.2,1.6c0.2,0.6,0.5,1.2,0.9,1.6c0.5,0.6,1.2,1,2,1.2
		c1,0.2,2,0.1,2.9-0.4c1-0.6,1.7-1.5,2.2-2.6c0.5-1.3,1.5-2.3,2.7-2.9c0.7-0.2,1.5-0.2,2.2,0c0.6,0.2,1.3,0.2,2,0.1
		c1.3-0.3,2.4-1.2,3.1-2.3c0.6-1.1,0.8-2.4,0.5-3.6c-0.5-2.1-1.9-3.9-3.8-4.9c-1.3-0.7-2.7-1.2-4.2-1.4
		C135.3,363.2,134.7,363.2,134.7,363.1z"/>
	<path class="st5" d="M117.7,393.1c-0.2-0.7-0.5-1.3-0.8-1.9c-0.4-0.6-1-1.1-1.7-1.4c-1.7-0.8-3.7-0.3-4.7,1.3
		c-0.4,0.6-0.7,1.3-0.8,2c0,0.7,0,1.4,0.2,2c0,0-0.2-0.2-0.3-0.5c-0.2-0.5-0.3-1-0.2-1.6c0.1-0.8,0.3-1.6,0.8-2.3
		c1.1-1.8,3.4-2.4,5.2-1.4c0.7,0.4,1.4,0.9,1.8,1.6c0.3,0.4,0.5,0.9,0.6,1.5C117.7,392.9,117.7,393.1,117.7,393.1z"/>
	<path class="st5" d="M120.6,406.3c0,0-0.1-0.4-0.4-1.1c-0.5-1-1.2-1.8-2.2-2.2c-1.4-0.7-3.1-0.5-4.4,0.3c-0.7,0.6-1.4,1.3-1.8,2.1
		c-0.3,0.4-0.6,0.8-1,1.2c-0.4,0.4-1,0.6-1.6,0.6c-1.1-0.1-2.1-0.7-2.7-1.6c-0.5-0.8-1.2-1.4-1.9-2c-0.7-0.4-1.5-0.6-2.4-0.4
		c-0.7,0.1-1.4,0.4-2,0.8c-0.8,0.7-1.6,1.5-2.1,2.4c-0.2,0.4-0.4,0.7-0.6,1c0.1-0.4,0.3-0.8,0.5-1.1c0.5-1,1.2-1.9,2.1-2.6
		c0.6-0.5,1.4-0.8,2.1-0.9c0.9-0.2,1.9,0,2.7,0.4c0.8,0.6,1.5,1.3,2,2.1c0.6,0.8,1.4,1.3,2.4,1.5c1,0,1.7-0.8,2.2-1.6
		c0.5-0.8,1.2-1.6,2-2.2c2.2-1.5,5.1-0.9,6.5,1.3c0.2,0.3,0.4,0.6,0.5,0.9s0.2,0.6,0.2,0.9C120.6,406.2,120.6,406.3,120.6,406.3z"/>
	<path class="st5" d="M127.6,373.4c-0.8-0.5-1.7-0.9-2.6-1.2c-1-0.2-2-0.3-3-0.2c-1.2,0.1-2.4,0.6-3.4,1.3c-1,0.7-1.8,1.8-2.2,2.9
		c-0.3,1-0.5,2-0.3,3c0.2,0.9,0.5,1.8,1,2.7c0,0-0.2-0.2-0.5-0.6c-0.4-0.6-0.7-1.3-0.8-2c-0.4-2.4,0.6-4.9,2.6-6.4
		c1.1-0.8,2.3-1.3,3.6-1.4c1.1-0.1,2.2,0,3.2,0.3c0.7,0.2,1.4,0.5,1.9,0.9C127.4,373.2,127.6,373.3,127.6,373.4z"/>
</g>
</svg>
