<?xml version="1.0" encoding="utf-8"?>
<!-- Generator: Adobe Illustrator 24.2.3, SVG Export Plug-In . SVG Version: 6.00 Build 0)  -->
<svg version="1.1" id="Calque_1" xmlns="http://www.w3.org/2000/svg" xmlns:xlink="http://www.w3.org/1999/xlink" x="0px" y="0px"
	 viewBox="0 0 500 500" style="enable-background:new 0 0 500 500;" xml:space="preserve">
<style type="text/css">
	.st0{fill:#EBEBEB;}
	.st1{fill:#E0E0E0;}
	.st2{fill:#FAFAFA;}
	.st3{fill:#263238;}
	.st4{fill:#F5F5F5;}
	.st5{fill:#08ACC1;}
	.st6{fill:#FFFFFF;}
	.st7{fill:#455A64;}
	.st8{fill:#FFBE9D;}
	.st9{fill:#EB996E;}
	.st10{opacity:0.3;}
	.st11{fill:#AA6550;}
	.st12{opacity:0.6;}
	.st13{fill:#995037;}
	.st14{opacity:0.2;}
	.st15{fill:#407BFF;}
	.st16{fill:none;}
</style>
<g>
	<g id="freepik--background-complete--inject-9">
		<path class="st0" d="M102.8,121.4c0,0.1-30.2,0.2-67.5,0.2s-67.5-0.1-67.5-0.2s30.2-0.2,67.5-0.2S102.8,121.3,102.8,121.4z"/>
		<path class="st0" d="M102.8,129.4c0,0.1-30.2,0.2-67.5,0.2s-67.5-0.1-67.5-0.2s30.2-0.2,67.5-0.2S102.8,129.3,102.8,129.4z"/>
		<path class="st0" d="M102.8,137.4c0,0.1-30.2,0.2-67.5,0.2s-67.5-0.1-67.5-0.2s30.2-0.2,67.5-0.2S102.8,137.2,102.8,137.4z"/>
		<path class="st0" d="M102.8,145.3c0,0.1-30.2,0.2-67.5,0.2s-67.5-0.1-67.5-0.2c0-0.1,30.2-0.2,67.5-0.2S102.8,145.2,102.8,145.3z"
			/>
		<path class="st0" d="M102.8,153.3c0,0.1-30.2,0.2-67.5,0.2s-67.5-0.1-67.5-0.2c0-0.1,30.2-0.2,67.5-0.2S102.8,153.2,102.8,153.3z"
			/>
		<path class="st1" d="M91,144c0,0-0.1,0.1-0.3,0.4c-0.3,0.3-0.7,0.6-1.1,0.7c-1.7,0.5-3.5,0.2-4.9-0.9c-1-0.8-1.8-1.8-2.3-2.9
			c-0.7-1.2-1.2-2.6-1.8-4.1c-0.6-1.6-1.5-3-2.6-4.2c-0.6-0.6-1.4-1.1-2.3-1.4c-0.9-0.3-1.9-0.3-2.8-0.2c-2,0.4-3.9,1.4-5.4,2.9
			c-1.6,1.5-3,3.2-4.8,4.9c-1.7,1.8-4,2.9-6.5,3.2c-1.3,0.1-2.6-0.3-3.7-1c-1.1-0.8-2-1.8-2.6-3c-1.3-2.3-2-5-3.8-7.1
			c-0.8-1.1-2-1.9-3.3-2.3c-1.4-0.3-2.8,0-3.8,0.9c-1.1,0.9-1.9,2-2.5,3.3c-0.5,1.3-0.9,2.7-1.2,4.2s-0.7,2.9-1.2,4.4
			c-0.3,0.7-0.6,1.4-1.1,2s-1,1.2-1.6,1.7c-1.2,1-2.6,1.7-4.1,2.1c-1.5,0.4-3,0.4-4.5,0.1c-1.5-0.4-2.8-1-4-2
			c-1.2-0.9-2.3-1.9-3.4-2.7c-1.1-0.9-2.3-1.6-3.6-2c-1.3-0.3-2.7-0.2-3.9,0.5s-2.2,1.6-2.9,2.7c-0.7,1.1-1.4,2.3-2,3.5
			s-1.2,2.3-2,3.4c-0.7,1.1-1.7,2-2.8,2.7s-2.4,1-3.7,0.8c-1.2-0.2-2.4-0.8-3.2-1.8c-0.8-0.9-1.4-1.9-1.7-3
			c-0.4-1.1-0.6-2.2-0.8-3.3c-0.4-2.1-0.8-4.2-1.9-5.8c-0.9-1.6-2.5-2.8-4.3-3.2c-0.8-0.1-1.7,0-2.5,0.3c-0.7,0.3-1.4,0.8-2,1.3
			c-2.3,2.2-3.3,4.8-5.1,6.3c-1.7,1.5-3.3,2.3-4.5,2.3c-0.5,0-0.9-0.1-1.3-0.2l-0.4-0.2c0.6,0.2,1.1,0.3,1.7,0.3
			c1.2,0,2.8-0.7,4.4-2.3s2.7-4.2,5-6.4c0.6-0.6,1.3-1.1,2.1-1.4c0.8-0.3,1.7-0.5,2.6-0.4c1.9,0.4,3.6,1.6,4.6,3.3
			c0.6,0.9,1,1.8,1.3,2.8s0.5,2.1,0.7,3.1c0.2,1.1,0.5,2.2,0.8,3.2c0.4,1.1,0.9,2.1,1.7,2.9c0.8,0.9,1.8,1.5,3,1.7
			c1.2,0.1,2.4-0.2,3.4-0.8c1.1-0.6,2-1.5,2.7-2.6s1.4-2.2,1.9-3.3c0.6-1.2,1.2-2.4,2-3.5c0.8-1.2,1.8-2.1,3-2.8
			c1.3-0.7,2.8-0.9,4.2-0.6c1.4,0.4,2.7,1.1,3.8,2.1c1.1,0.9,2.2,1.9,3.3,2.7c1.1,0.9,2.4,1.6,3.8,1.9c1.4,0.3,2.9,0.3,4.3-0.1
			c1.4-0.3,2.8-1,3.9-2c0.6-0.5,1.1-1,1.5-1.6s0.8-1.3,1-1.9c0.5-1.4,0.9-2.8,1.2-4.3s0.7-2.9,1.2-4.3c0.6-1.4,1.5-2.6,2.7-3.5
			s2.7-1.3,4.2-1c1.4,0.4,2.6,1.2,3.5,2.4c1.8,2.2,2.5,4.9,3.8,7.2c0.6,1.1,1.5,2.1,2.5,2.9c1,0.7,2.3,1,3.5,0.9
			c2.4-0.3,4.6-1.4,6.3-3.1c1.7-1.6,3.1-3.3,4.8-4.8c1.5-1.5,3.5-2.5,5.6-2.9c1-0.2,2-0.1,3,0.2c0.9,0.3,1.7,0.8,2.4,1.5
			c1.2,1.3,2.1,2.7,2.7,4.3c0.6,1.5,1.1,2.9,1.7,4.1c0.5,1.1,1.3,2.1,2.2,2.9c1.3,1.1,3.1,1.4,4.8,1C90.1,144.8,90.6,144.5,91,144z"
			/>
		<path class="st1" d="M-41.5,121.8c-0.6,0.2-1.2,0.3-1.8,0.2c-0.6,0.1-1.2,0-1.8-0.2c0.6-0.2,1.2-0.3,1.8-0.2
			C-42.6,121.5-42,121.6-41.5,121.8z"/>
		<path class="st1" d="M-41.5,129.4c-0.6,0.2-1.2,0.3-1.8,0.2c-0.6,0.1-1.2,0-1.8-0.2c0.6-0.2,1.2-0.3,1.8-0.2
			C-42.6,129.1-42,129.2-41.5,129.4z"/>
		<path class="st1" d="M-41.5,137c-0.6,0.2-1.2,0.3-1.8,0.2c-0.6,0.1-1.2,0-1.8-0.2c0.6-0.2,1.2-0.3,1.8-0.2
			C-42.6,136.7-42,136.8-41.5,137z"/>
		<path class="st1" d="M-41.5,144.5c-0.6,0.2-1.2,0.3-1.8,0.2c-0.6,0.1-1.2,0-1.8-0.2c0.6-0.2,1.2-0.3,1.8-0.2
			C-42.6,144.2-42,144.3-41.5,144.5z"/>
		<path class="st1" d="M-41.5,152.1c-0.6,0.2-1.2,0.3-1.8,0.2c-0.6,0.1-1.2,0-1.8-0.2c0.6-0.2,1.2-0.3,1.8-0.2
			C-42.6,151.8-42,151.9-41.5,152.1z"/>
		<path class="st1" d="M-25.1,161.8c-1.2,0.2-2.4,0.3-3.6,0.2c-1.2,0.1-2.4,0-3.6-0.2c1.2-0.2,2.4-0.3,3.6-0.2
			C-27.4,161.6-26.2,161.6-25.1,161.8z"/>
		<path class="st1" d="M6.4,161.8C5.2,162,4,162.1,2.8,162c-1.2,0.1-2.4,0-3.6-0.2c1.2-0.2,2.4-0.3,3.6-0.2
			C4,161.6,5.2,161.6,6.4,161.8z"/>
		<path class="st1" d="M37.9,161.8c-1.2,0.2-2.4,0.3-3.6,0.2c-1.2,0.1-2.4,0-3.6-0.2c1.2-0.2,2.4-0.3,3.6-0.2
			C35.5,161.6,36.7,161.6,37.9,161.8z"/>
		<path class="st1" d="M69.4,161.8c-1.2,0.2-2.4,0.3-3.6,0.2c-1.2,0.1-2.4,0-3.6-0.2c1.2-0.2,2.4-0.3,3.6-0.2
			C67,161.6,68.2,161.6,69.4,161.8z"/>
		<path class="st1" d="M100.8,161.8c-2.4,0.3-4.8,0.3-7.1,0C96.1,161.6,98.5,161.6,100.8,161.8z"/>
		<rect x="199.1" y="279.1" class="st2" width="144.7" height="89.6"/>
		<path class="st0" d="M308.9,343.9c-10-3.8-21.6,6.7-31.4,2.4c-5.7-2.5-8.3-9-11.1-14.6s-7.6-11.5-13.9-10.8
			c-6.2,0.6-11.3,7.9-17.4,6.2c-3.8-1.1-5.7-5.3-6.7-9.2c-1-3.8-1.6-8.1-4.5-10.8s-9-2-9.4,2v47.5h113.2
			C327.7,356.5,312.4,345.2,308.9,343.9z"/>
		<path class="st1" d="M330.7,356.5c0,0.1-27.4,0.2-61.3,0.2s-61.3-0.1-61.3-0.2s27.4-0.2,61.3-0.2S330.7,356.4,330.7,356.5z"/>
		<path class="st1" d="M330.7,335.8c0,0.1-27.4,0.2-61.3,0.2s-61.3-0.1-61.3-0.2s27.4-0.2,61.3-0.2S330.7,335.7,330.7,335.8z"/>
		<path class="st1" d="M330.7,315c0,0.1-27.4,0.2-61.3,0.2s-61.3-0.1-61.3-0.2s27.4-0.2,61.3-0.2S330.7,314.9,330.7,315z"/>
		<path class="st1" d="M330.7,295.3c0,0.1-27.4,0.2-61.3,0.2s-61.3-0.1-61.3-0.2s27.4-0.2,61.3-0.2S330.7,295.2,330.7,295.3z"/>
		<rect x="353.2" y="65.3" class="st2" width="107.7" height="96.4"/>
		<path class="st1" d="M460.9,161.6c0,0,0-0.6,0-1.8s0-2.9,0-5.2c0-4.5,0-11.1-0.1-19.6c0-16.8-0.1-40.9-0.1-69.9l0.3,0.2H353.3l0,0
			l0.3-0.3c0,35,0,68.1,0,96.4l-0.3-0.3l77.9,0.1l22,0.1h5.8h1.5c0.3,0,0.5,0,0.5,0h-0.5H459h-5.8l-21.9,0.1l-78.1,0.1H353v-0.3
			c0-28.4,0-61.3,0-96.4v-0.3h0.3H461h0.2v0.4c-0.1,29-0.1,53.1-0.1,70c0,8.4-0.1,15-0.1,19.5c0,2.2,0,3.9,0,5.1
			S460.9,161.6,460.9,161.6z"/>
		<path class="st1" d="M394.5,82.4c0,0.2-5.7,0.3-12.7,0.3s-12.7-0.1-12.7-0.3c0-0.2,5.7-0.3,12.7-0.3S394.5,82.2,394.5,82.4z"/>
		<path class="st1" d="M440.1,89.6c0,0.2-15.6,0.3-34.8,0.3c-19.2,0-34.8-0.1-34.8-0.3s15.6-0.3,34.8-0.3S440.1,89.4,440.1,89.6z"/>
		<rect x="369.3" y="101.9" class="st1" width="4.5" height="4.5"/>
		<rect x="380.5" y="101.9" class="st1" width="4.5" height="4.5"/>
		<rect x="391.9" y="101.7" class="st1" width="4.5" height="4.5"/>
		<rect x="402.9" y="101.9" class="st1" width="4.5" height="4.5"/>
		<rect x="414" y="101.9" class="st1" width="4.5" height="4.5"/>
		<rect x="425.2" y="101.9" class="st1" width="4.5" height="4.5"/>
		<rect x="436.4" y="101.9" class="st0" width="4.5" height="4.5"/>
		<rect x="369.3" y="111.5" class="st0" width="4.5" height="4.5"/>
		<rect x="380.5" y="111.5" class="st1" width="4.5" height="4.5"/>
		<rect x="391.7" y="111.5" class="st0" width="4.5" height="4.5"/>
		<rect x="402.9" y="111.5" class="st1" width="4.5" height="4.5"/>
		<rect x="414" y="111.5" class="st1" width="4.5" height="4.5"/>
		<rect x="425.4" y="111.3" class="st1" width="4.5" height="4.5"/>
		<rect x="436.4" y="111.5" class="st1" width="4.5" height="4.5"/>
		<rect x="369.3" y="121.2" class="st1" width="4.5" height="4.5"/>
		<rect x="380.7" y="121" class="st1" width="4.5" height="4.5"/>
		<rect x="391.7" y="121.2" class="st1" width="4.5" height="4.5"/>
		<rect x="402.9" y="121.2" class="st0" width="4.5" height="4.5"/>
		<rect x="414" y="121.2" class="st1" width="4.5" height="4.5"/>
		<rect x="425.2" y="121.2" class="st1" width="4.5" height="4.5"/>
		<rect x="436.4" y="121.2" class="st1" width="4.5" height="4.5"/>
		<rect x="369.3" y="130.8" class="st1" width="4.5" height="4.5"/>
		<rect x="380.5" y="130.8" class="st1" width="4.5" height="4.5"/>
		<rect x="391.7" y="130.8" class="st1" width="4.5" height="4.5"/>
		<rect x="403.1" y="130.6" class="st1" width="4.5" height="4.5"/>
		<rect x="414" y="130.8" class="st1" width="4.5" height="4.5"/>
		<rect x="425.2" y="130.8" class="st0" width="4.5" height="4.5"/>
		<rect x="436.4" y="130.8" class="st1" width="4.5" height="4.5"/>
		<rect x="369.3" y="140.5" class="st1" width="4.5" height="4.5"/>
		<rect x="380.5" y="140.5" class="st0" width="4.5" height="4.5"/>
		<rect x="391.7" y="140.5" class="st1" width="4.5" height="4.5"/>
		<rect x="402.9" y="140.5" class="st1" width="4.5" height="4.5"/>
		<rect x="414" y="140.5" class="st1" width="4.5" height="4.5"/>
		<rect x="425.4" y="140.3" class="st1" width="4.5" height="4.5"/>
		<rect x="436.4" y="140.5" class="st1" width="4.5" height="4.5"/>
	</g>
	<g id="freepik--Floor--inject-9">
		<path class="st3" d="M519.8,421.8c0,0.1-127.7,0.2-285.3,0.2s-285.3-0.1-285.3-0.2s127.7-0.2,285.3-0.2S519.8,421.7,519.8,421.8z"
			/>
	</g>
	<g id="freepik--Panel--inject-9">
		<path class="st1" d="M310.6,74c0,0,12.8,0.2,7.3,25.4s-4.8,30-4.8,40c-0.2,6.7,3.5,12.8,9.4,15.9h-17.3l-12.7-59V74H310.6z"/>
		<polygon class="st1" points="314.3,272.8 139.7,272.8 141.2,101.9 305.8,93.3 		"/>
		<polygon class="st0" points="308.4,268.4 133.7,268.4 135.2,97.5 304.8,94.2 		"/>
		<polygon class="st2" points="304.7,263.6 130.4,263.6 130.4,92.7 304.8,92.3 		"/>
		<path class="st3" d="M304.7,263.6c0-1.6,0-68.6-0.1-171.3l0.2,0.2l-174.2,0.4h-0.3l0.2-0.2c0,62.5,0,121.1,0,170.9l-0.2-0.2
			L304.7,263.6l-174.3,0.2h-0.2v-0.2c0-49.8,0-108.4,0-170.9v-0.2h0.5l174.2-0.4h0.2v0.2C304.8,195.1,304.7,262,304.7,263.6z"/>
		<path class="st4" d="M304.8,91.9c-9-10.5,1.4-18.2,5-18.4l-166-0.1c-7.7,0-14,6.2-14,14c0,0.8,0.1,1.6,0.2,2.4
			c0.2,0.9,0.4,1.7,0.7,2.6"/>
		<path class="st3" d="M309.2,155.4h0.2h0.7h2.6l9.8-0.1v0.3c-1.5-0.5-2.9-1.2-4-2.3c-1.3-1.2-2.3-2.7-3-4.3
			c-0.8-1.8-1.4-3.6-1.8-5.5c-0.2-1-0.4-2-0.6-3c-0.1-0.5-0.2-1-0.2-1.6c-0.1-0.5-0.1-1.1-0.1-1.6c-0.1-2.2,0-4.5,0.2-6.7
			c0.2-2.3,0.4-4.6,0.7-7c0.6-4.7,1.3-9.7,2.1-14.8c0.4-2.2,0.8-4.3,1.1-6.4c0.4-2.1,0.6-4.2,0.9-6.2c0.3-2.1,0.5-4.1,0.7-6
			c0.1-1,0.2-2,0.3-2.9c0-1,0-1.9-0.2-2.8c-0.2-1.8-0.8-3.6-1.6-5.3c-0.7-1.6-1.8-2.9-3.2-4c-1.3-0.9-3-1.3-4.5-1
			c-1.5,0.2-2.9,0.8-4,1.7c-1,0.9-1.9,1.9-2.5,3.1c-0.6,1.1-1,2.2-1.2,3.4c-0.4,1.9-0.2,3.9,0.7,5.7c0.5,1.1,1.1,2.2,1.8,3.2
			l0.6,0.8c0.1,0.2,0.2,0.3,0.2,0.3s-0.1-0.1-0.2-0.2l-0.6-0.8c-0.8-1-1.4-2.1-1.9-3.2c-0.9-1.8-1.1-3.8-0.8-5.8
			c0.2-1.2,0.7-2.4,1.2-3.5c0.6-1.2,1.5-2.3,2.6-3.2c1.2-0.9,2.6-1.6,4.2-1.8c1.7-0.3,3.4,0.1,4.8,1.1c1.4,1.1,2.6,2.5,3.3,4.1
			c0.8,1.7,1.4,3.5,1.6,5.4c0.1,1,0.2,1.9,0.2,2.9s-0.2,2-0.3,3c-0.2,2-0.5,4-0.7,6.1s-0.5,4.2-0.9,6.3c-0.3,2.1-0.8,4.2-1.1,6.4
			c-0.8,5.1-1.6,10-2.1,14.7c-0.3,2.4-0.5,4.7-0.7,7c-0.2,2.2-0.3,4.4-0.2,6.6c0,0.5,0,1,0.1,1.6c0,0.5,0.2,1,0.2,1.5
			c0.2,1,0.4,2,0.6,3c0.4,1.9,1,3.7,1.7,5.4c0.7,1.6,1.7,3,2.9,4.2c1.1,1,2.4,1.8,3.9,2.3l0.8,0.3h-0.8l-9.8-0.1h-2.6h-0.7
			L309.2,155.4z"/>
		<path class="st3" d="M201.7,78.7c0.1,0.1-0.4,0.7-0.9,1.9c-0.3,0.7-0.5,1.4-0.6,2.2c-0.1,0.9-0.2,1.9-0.1,2.8
			c0.1,0.9,0.3,1.8,0.6,2.7c0.2,0.7,0.6,1.4,1,2.1c0.7,1.1,1.3,1.7,1.2,1.8c-0.1,0.1-0.2-0.1-0.5-0.4c-0.4-0.4-0.7-0.8-1-1.2
			c-0.4-0.7-0.8-1.4-1.1-2.1c-0.7-1.8-0.8-3.8-0.4-5.7c0.2-0.8,0.4-1.5,0.7-2.3c0.2-0.5,0.5-0.9,0.8-1.4
			C201.6,78.8,201.7,78.7,201.7,78.7z"/>
		<path class="st3" d="M197.6,72.8c-0.8,0.8-1.6,1.7-2.2,2.7c-3.2,4.9-2,11.5,2.8,14.9c0.9,0.7,2,1.3,3,1.7c-0.3,0-0.6-0.1-0.9-0.3
			c-0.8-0.3-1.6-0.7-2.3-1.2c-5-3.4-6.3-10.3-2.9-15.3c0,0,0,0,0-0.1c0.5-0.7,1-1.4,1.7-2C197,73.1,197.3,72.9,197.6,72.8z"/>
		<path class="st3" d="M291.4,206.2h-0.5h-1.6h-6.2l-22.7,0.1l-74.8,0.1h-32.5v-0.2c0-21.4,0.1-39.7,0.1-52.8c0-6.5,0-11.7,0.1-15.3
			c0-1.8,0-3.1,0-4.1c0-0.5,0-0.8,0-1c0-0.3,0-0.4,0-0.4s0,0.1,0,0.4c0,0.2,0,0.6,0,1c0,0.9,0,2.3,0,4.1c0,3.6,0,8.7,0.1,15.3
			c0,13,0.1,31.4,0.1,52.8l-0.2-0.2h32.2l74.8,0.1l22.7,0.1h6.2h1.6L291.4,206.2z"/>
		<rect x="164.6" y="188" class="st5" width="13.9" height="13.9"/>
		<rect x="185.1" y="178.1" class="st5" width="13.9" height="23.9"/>
		<rect x="205.6" y="166.7" class="st5" width="13.9" height="35.2"/>
		<rect x="225.5" y="154.1" class="st5" width="13.9" height="47.8"/>
		<rect x="245.8" y="138" class="st5" width="13.9" height="63.9"/>
		<rect x="266" y="125.7" class="st5" width="13.9" height="75.6"/>
		<path class="st3" d="M164.6,173.7c0.1-0.1,0.1-0.1,0.2-0.1l0.5-0.4l2.1-1.4l8-5.3l27.7-18.1l0.3-0.2v0.4c0,2,0,4.1,0,6.2l-0.3-0.2
			l10.9-7.3l38.5-25.7l11.7-7.8l3.2-2.1l0.8-0.5l0.3-0.2c-0.1,0.1-0.2,0.1-0.3,0.2l-0.8,0.6l-3.1,2.2l-11.6,7.9l-38.4,25.8
			l-10.9,7.3l-0.3,0.2v-6.7l0.3,0.2l-27.7,17.9l-8.1,5.2l-2.2,1.4l-0.6,0.4L164.6,173.7z"/>
		<path class="st3" d="M268.5,117.1c-0.1-0.6-0.2-1.1-0.2-1.7c0-1.1-0.1-2.6-0.1-4.2l0.2,0.2h-0.5c-1.8,0-3.4,0-4.6-0.1
			c-0.6,0-1.3,0-1.9-0.2c0.6-0.1,1.3-0.2,1.9-0.2c1.2,0,2.8-0.1,4.6-0.1h0.8v0.2c0,1.7,0,3.1-0.1,4.2
			C268.7,115.9,268.6,116.5,268.5,117.1z"/>
		<path class="st3" d="M194.8,217.4c0,0.1-4.3,0.2-9.6,0.2s-9.6-0.1-9.6-0.2c0-0.1,4.3-0.2,9.6-0.2S194.8,217.3,194.8,217.4z"/>
		<path class="st3" d="M185,224c-0.3-1.5-0.3-3,0-4.5C185.2,221,185.2,222.5,185,224z"/>
		<path class="st3" d="M208.5,226.3c0,0.1-11.6,0.2-25.9,0.2c-14.3,0-25.9-0.1-25.9-0.2c0-0.1,11.6-0.2,25.9-0.2
			S208.5,226.1,208.5,226.3z"/>
		<path class="st3" d="M157.2,232.7c-0.3-2.1-0.3-4.2,0-6.2C157.5,228.5,157.5,230.6,157.2,232.7z"/>
		<path class="st3" d="M175.6,232c-0.3-1.8-0.3-3.6,0-5.4C175.9,228.4,175.9,230.2,175.6,232z"/>
		<path class="st3" d="M194.5,232.3c-0.3-2-0.3-3.9,0-5.9C194.8,228.4,194.8,230.4,194.5,232.3z"/>
		<path class="st3" d="M208.9,232.3c-0.3-2-0.3-4.1,0-6.1C209.2,228.3,209.2,230.3,208.9,232.3z"/>
		<path class="st3" d="M163.6,234.4c-2.1,0.2-4.2,0.3-6.2,0.2c-2.1,0.1-4.2,0-6.2-0.2c2.1-0.2,4.2-0.3,6.2-0.2
			C159.5,234.1,161.6,234.2,163.6,234.4z"/>
		<path class="st3" d="M179.6,234.4c-3.2,0.3-6.4,0.3-9.5,0C173.2,234.1,176.4,234.1,179.6,234.4z"/>
		<path class="st3" d="M199.9,234.9c-3.4,0.3-6.8,0.3-10.2,0C193,234.6,196.5,234.6,199.9,234.9z"/>
		<path class="st3" d="M216.3,234.1c-3.6,0.3-7.3,0.3-10.9,0C209,233.8,212.7,233.8,216.3,234.1z"/>
		<path class="st3" d="M157.4,240.4c-0.3-1.2-0.3-2.4,0-3.6C157.7,238,157.7,239.2,157.4,240.4z"/>
		<path class="st3" d="M169.3,240.4c0,0.1-5,0.2-11.3,0.2s-11.3-0.1-11.3-0.2s5-0.2,11.3-0.2S169.3,240.3,169.3,240.4z"/>
		<path class="st3" d="M169.3,245.7c-0.3-1.7-0.3-3.5,0-5.2C169.5,242.2,169.5,243.9,169.3,245.7z"/>
		<path class="st3" d="M146.7,246c-0.3-1.8-0.3-3.7,0-5.5C147,242.3,147,244.2,146.7,246z"/>
		<path class="st3" d="M195,240.4c-0.3-1.2-0.3-2.4,0-3.6C195.2,238,195.2,239.2,195,240.4z"/>
		<path class="st3" d="M222.3,240.4c0,0.1-8.5,0.2-19,0.2s-19-0.1-19-0.2s8.5-0.2,19-0.2S222.3,240.3,222.3,240.4z"/>
		<path class="st3" d="M206.8,245.7c-0.3-1.7-0.3-3.5,0-5.2C207.1,242.2,207.1,243.9,206.8,245.7z"/>
		<path class="st3" d="M223.1,245.7c-0.3-1.7-0.3-3.5,0-5.2C223.4,242.2,223.4,243.9,223.1,245.7z"/>
		<path class="st3" d="M184.3,246c-0.3-1.8-0.3-3.7,0-5.5C184.6,242.3,184.6,244.2,184.3,246z"/>
		<path class="st3" d="M151.2,249.2c-3,0.3-5.9,0.3-8.9,0C145.2,248.9,148.2,248.9,151.2,249.2z"/>
		<path class="st3" d="M173.2,248.6c-3.2,0.3-6.4,0.3-9.6,0C166.8,248.3,170,248.3,173.2,248.6z"/>
		<path class="st3" d="M189.2,248.6c-2.8,0.3-5.6,0.3-8.5,0C183.5,248.3,186.4,248.3,189.2,248.6z"/>
		<path class="st3" d="M210.7,248.6c-3.1,0.3-6.1,0.3-9.2,0C204.6,248.3,207.6,248.3,210.7,248.6z"/>
		<path class="st3" d="M227.9,248c-3.1,0.3-6.2,0.3-9.3,0C221.6,247.7,224.8,247.7,227.9,248z"/>
		<path class="st3" d="M291.3,251.4h-58.8V215h58.8V251.4z M232.5,251.3h58.8V215h-58.8L232.5,251.3z"/>
		<path class="st5" d="M277.1,241.3c-4.1-1.5-8.8,2.7-12.8,1c-2.3-1-3.4-3.6-4.5-5.9s-3.1-4.7-5.6-4.4s-4.6,3.2-7.1,2.5
			c-1.6-0.5-2.3-2.2-2.7-3.7c-0.4-1.6-0.7-3.3-1.8-4.4s-3.6-0.8-3.8,0.8v19.3h46C284.7,246.5,278.5,241.8,277.1,241.3z"/>
		<path class="st1" d="M285.9,246.4c0,0-11.1,0.1-24.9,0.1c-13.7,0-24.9,0-24.9-0.1s11.1-0.1,24.9-0.1
			C274.8,246.4,285.9,246.4,285.9,246.4z"/>
		<path class="st3" d="M285.9,238c0,0-11.1,0.1-24.9,0.1c-13.7,0-24.9,0-24.9-0.1s11.1-0.1,24.9-0.1S285.9,237.9,285.9,238z"/>
		<path class="st3" d="M285.9,229.6c0,0-11.1,0.1-24.9,0.1c-13.7,0-24.9,0-24.9-0.1s11.1-0.1,24.9-0.1S285.9,229.5,285.9,229.6z"/>
		<path class="st3" d="M285.9,221.6c0,0-11.1,0.1-24.9,0.1c-13.7,0-24.9,0-24.9-0.1s11.1-0.1,24.9-0.1S285.9,221.5,285.9,221.6z"/>
		<path class="st3" d="M153.4,104.7L153.4,104.7h0.3c0.3,0,0.6,0,0.9,0.1c0.5,0.1,1,0.2,1.4,0.5c0.6,0.3,1.1,0.7,1.5,1.3
			c0.5,0.6,0.8,1.4,1,2.2c0.1,0.9,0,1.9-0.3,2.7c-0.2,0.5-0.4,0.9-0.7,1.3s-0.5,0.9-0.8,1.4c-0.5,1-0.8,2-1,3.1v0.1h-0.1l-2.2-0.1
			l-2.3-0.1H151v-0.1c-0.1-1.1-0.4-2.1-0.9-3.1c-0.2-0.5-0.5-0.9-0.8-1.3s-0.5-0.8-0.7-1.3c-0.4-0.9-0.5-1.8-0.2-2.7
			c0.2-0.8,0.5-1.5,0.9-2.2c0.4-0.5,0.9-0.9,1.5-1.2c0.4-0.2,0.9-0.4,1.4-0.5c0.3-0.1,0.6-0.1,0.9-0.1L153.4,104.7L153.4,104.7
			L153.4,104.7h-0.3c-0.3,0-0.6,0.1-0.9,0.1c-0.5,0.1-0.9,0.3-1.4,0.5c-0.6,0.3-1.1,0.7-1.4,1.2c-0.4,0.6-0.7,1.4-0.9,2.1
			c-0.2,0.9-0.1,1.8,0.2,2.6c0.2,0.4,0.5,0.9,0.7,1.3c0.3,0.4,0.5,0.9,0.8,1.3c0.6,0.9,0.9,2,1,3.1l-0.1-0.1l2.3,0.1l2.2,0.1
			l-0.1,0.1c0.2-1.1,0.5-2.1,1-3.1c0.2-0.5,0.5-0.9,0.8-1.4c0.3-0.4,0.5-0.9,0.7-1.3c0.4-0.8,0.5-1.7,0.4-2.6
			c-0.1-0.8-0.5-1.5-0.9-2.1c-0.4-0.5-0.9-1-1.4-1.3c-0.4-0.2-0.9-0.4-1.4-0.5c-0.3-0.1-0.6-0.1-0.9-0.1L153.4,104.7L153.4,104.7z"
			/>
		<path class="st3" d="M154.1,117C154.1,117,154.1,116.9,154.1,117v-0.3c0-0.2-0.1-0.5-0.1-0.8c-0.1-0.7-0.2-1.7-0.2-2.9
			c0-0.3,0-0.6,0-1s0-0.7,0-1.1s0.1-0.8,0.3-1.1c0.2-0.4,0.5-0.7,0.9-0.8c0.4-0.1,0.9,0,1.2,0.3c0.2,0.2,0.2,0.4,0.2,0.6
			s-0.1,0.4-0.3,0.6s-0.3,0.3-0.6,0.4c-0.2,0.1-0.4,0.2-0.7,0.2c-0.9,0.2-1.9,0.2-2.8,0c-0.2,0-0.4-0.1-0.7-0.2
			c-0.2-0.1-0.4-0.2-0.5-0.4c-0.2-0.2-0.3-0.4-0.3-0.6s0-0.5,0.1-0.7s0.3-0.4,0.5-0.4c0.2-0.1,0.4,0,0.6,0.1
			c0.2,0.1,0.3,0.2,0.5,0.4c0.1,0.2,0.2,0.4,0.2,0.6c0.1,0.4,0.1,0.7,0.1,1.1c0,0.7,0,1.4,0,2c0,1.2,0,2.2,0,2.9v1.1c0,0,0,0,0-0.1
			v-0.2c0-0.2,0-0.5,0-0.8c0-0.7,0-1.7-0.1-2.9c0-0.6,0-1.3,0-2c0-0.4,0-0.7-0.1-1.1c0-0.2-0.1-0.4-0.2-0.5
			c-0.1-0.2-0.3-0.3-0.4-0.4c-0.2-0.1-0.4-0.1-0.6-0.1c-0.2,0.1-0.3,0.2-0.4,0.4c-0.1,0.2-0.1,0.4-0.1,0.6s0.1,0.4,0.3,0.6
			c0.3,0.3,0.7,0.5,1.2,0.6s0.9,0.1,1.4,0.1s0.9,0,1.4-0.1c0.2,0,0.4-0.1,0.7-0.2c0.2-0.1,0.4-0.2,0.5-0.4c0.1-0.2,0.2-0.4,0.2-0.6
			s-0.1-0.4-0.2-0.6c-0.3-0.3-0.7-0.4-1.1-0.3c-0.4,0.2-0.7,0.4-0.8,0.8c-0.2,0.3-0.3,0.7-0.3,1.1s0,0.7,0,1.1c0,0.3,0,0.7,0,1
			c0,1.2,0.1,2.2,0.2,2.9c0,0.3,0.1,0.6,0.1,0.8v0.2L154.1,117z"/>
		<path class="st3" d="M151.2,117c0,0,0,0.3,0,0.7s0,1.2,0,1.9l0,0l1.4,1.8h-0.1h1.7h-0.1l0.9-1l0.5-0.5v0.1c0-1,0-2,0.1-2.8
			l0.1,0.1l-3.2-0.1h-0.9h-0.3c0.1,0,0.2,0,0.3,0h0.9h3.3v0.1c0,0.8,0,1.8,0,2.8l0,0l0,0l-0.5,0.5l-0.9,1l0,0l0,0h-1.7l0,0l0,0
			l-1.5-1.8l0,0l0,0c0-0.8,0-1.4,0.1-2C151.1,117.5,151.1,117.2,151.2,117z"/>
		<path class="st3" d="M155.5,119.7l-0.2-0.1c-0.1-0.1-0.3-0.1-0.4-0.2c-0.5-0.2-1-0.3-1.5-0.3s-1,0.1-1.5,0.3
			c-0.2,0.1-0.3,0.1-0.4,0.2l-0.2,0.1c0,0,0.1-0.1,0.2-0.1l0.4-0.2c0.5-0.2,1-0.3,1.6-0.3c0.5,0,1.1,0.1,1.6,0.3
			C155.2,119.5,155.4,119.5,155.5,119.7C155.4,119.6,155.5,119.6,155.5,119.7z"/>
		<path class="st3" d="M155.5,119l-0.2-0.1l-0.4-0.2c-0.5-0.2-1-0.3-1.5-0.3s-1,0.1-1.5,0.3c-0.2,0.1-0.3,0.1-0.4,0.2l-0.2,0.1
			l0.2-0.1c0.1-0.1,0.3-0.2,0.4-0.2c0.5-0.2,1-0.3,1.6-0.3c0.5,0,1.1,0.1,1.6,0.3C155.3,118.8,155.4,118.8,155.5,119
			C155.4,118.9,155.5,118.9,155.5,119z"/>
		<path class="st3" d="M155.5,118.3c-0.1,0-0.1,0-0.2-0.1c-0.1-0.1-0.3-0.1-0.4-0.2c-1-0.4-2.1-0.4-3.1,0c-0.2,0.1-0.3,0.1-0.4,0.2
			l-0.2,0.1l0.2-0.1c0.1-0.1,0.3-0.1,0.4-0.2c0.5-0.2,1-0.3,1.6-0.3c0.5,0,1.1,0.1,1.6,0.3C155.2,118.1,155.3,118.2,155.5,118.3
			L155.5,118.3z"/>
		<path class="st0" d="M171.4,136.3c0,0-1.7,15.4,0.5,23.8l20.6-0.9c0,0-4.4-15.2-1.7-21.9L171.4,136.3z"/>
		<path class="st5" d="M171.5,135.8c0,0,0.1,16.6,1,21.7l20.9-1c0,0-1.8-16.3-1.1-20.7H171.5z"/>
		<path class="st6" d="M189.1,142.8c0,0.1-3.1,0.3-7,0.6c-3.9,0.2-7,0.4-7,0.3s3.1-0.3,7-0.6C185.9,142.8,189.1,142.7,189.1,142.8z"
			/>
		<path class="st6" d="M189.1,146.3c0,0.1-3.1,0.3-7,0.6c-3.9,0.2-7,0.4-7,0.3s3.1-0.3,7-0.6S189.1,146.2,189.1,146.3z"/>
		<path class="st6" d="M185.5,149.7c-0.4,0.1-0.8,0.2-1.2,0.2c-0.7,0.1-1.7,0.1-2.8,0.2s-2.1,0.1-2.8,0.1c-0.4,0.1-0.8,0.1-1.2,0
			c0.4-0.1,0.8-0.2,1.2-0.2c0.7-0.1,1.7-0.1,2.8-0.2c1.1-0.1,2.1-0.1,2.8-0.1C184.8,149.7,185.2,149.7,185.5,149.7z"/>
		<path class="st3" d="M219,108.8c0,0.1-12.2,0.2-27.2,0.2s-27.2-0.1-27.2-0.2s12.2-0.2,27.2-0.2C206.8,108.6,219,108.7,219,108.8z"
			/>
		<path class="st3" d="M184.6,113.8c0,0.1-4.6,0.2-10.2,0.2s-10.2-0.1-10.2-0.2s4.6-0.2,10.2-0.2S184.6,113.6,184.6,113.8z"/>
		<path class="st3" d="M195.4,113.8c-2.6,0.3-5.3,0.3-7.9,0C190.2,113.5,192.8,113.5,195.4,113.8z"/>
		<path class="st3" d="M309.2,166.1c0-0.1,0-0.1,0-0.2c0-0.2,0-0.3-0.1-0.6c0-0.5-0.1-1.2-0.2-2.1c-0.1-1.9-0.3-4.6-0.5-7.9
			c-0.4-6.7-1-15.9-1.6-26.1c-0.6-10.2-1.1-19.4-1.5-26.1c-0.2-3.3-0.3-6-0.4-7.9c0-0.9-0.1-1.6-0.1-2.2c0-0.2,0-0.4,0-0.6
			c0-0.1,0-0.1,0-0.2c0,0.1,0,0.1,0,0.2l0.1,0.6c0,0.5,0.1,1.2,0.2,2.1c0.1,1.9,0.3,4.6,0.5,7.9c0.4,6.7,1,15.9,1.6,26.1
			s1.1,19.4,1.5,26.1c0.2,3.3,0.3,6,0.4,7.9c0,0.9,0.1,1.6,0.1,2.2c0,0.2,0,0.4,0,0.6C309.2,166,309.2,166,309.2,166.1z"/>
		<path class="st3" d="M304.8,73.5h-0.5h-1.4h-5.5h-20.1h-66.2l-68.5-0.2l0,0c-3.4,0.8-6.5,2.7-8.7,5.4c-1.7,2-2.8,4.4-3.4,7
			c-0.3,1.6-0.5,3.3-0.3,4.9c0.1,0.6,0.1,1,0.2,1.3c0,0.1,0,0.3,0.1,0.4c-0.1-0.5-0.2-1.1-0.3-1.7c-0.2-1.7-0.1-3.3,0.3-5
			c0.5-2.6,1.7-5,3.3-7.1c2.3-2.8,5.4-4.7,8.8-5.6l0,0l68.5,0.1l66.2,0.2l20.1,0.1l5.5,0.1h1.4L304.8,73.5z"/>
	</g>
	<g id="freepik--Plant--inject-9">
		<path class="st5" d="M438.8,335.1c11.4-11.4,28-15.9,43.6-12c-13,8.9-28.4,13.7-44.1,13.8"/>
		<path class="st5" d="M453.6,282.7c-1.8-12.8,3.2-27.3,12.8-36.6C466.7,258.8,461.4,273.2,453.6,282.7"/>
		<path class="st5" d="M445.9,307c6.9-13.2,18-23.8,31.5-30.1c-4.3,15-16.4,26.6-31.6,30.2"/>
		<path class="st5" d="M444.3,311.7c7.8,0.2,15.6-0.1,23.1-2c7.5-2,14.7-5.8,19.7-11.7c-15.2,0-30,4.6-42.7,13"/>
		<path class="st5" d="M448.3,296.2c-3.9-14.8-10.4-25-22-33.2C424.4,278,433.7,292.1,448.3,296.2"/>
		<path class="st5" d="M419,321.7c-0.1-8.8,5.2-16.8,13.3-20.2C431.6,309.1,425.6,317.9,419,321.7"/>
		<path class="st5" d="M415.3,309.3c-1.1-12.6-9.4-23.4-21.3-27.8C396.6,293.8,403.8,304.1,415.3,309.3"/>
		<path class="st5" d="M420.9,331.3c-2.7-3.9-7.2-6.3-11.8-7.6c-4.6-1.2-9.4-1.3-14.2-1.4c6.6,7.1,15.9,11,25.6,10.7"/>
		<path class="st5" d="M426.4,362.8c-18-5.6-37.3,3.6-44.5,21.1C398.1,380.8,414,373.6,426.4,362.8"/>
		<path class="st5" d="M444.1,351.8c-2.7,7.9-2.2,17.5,3.8,24.4C450.3,367.9,448.9,359,444.1,351.8"/>
		<path class="st5" d="M454.6,347.4c0.9,10.4,7.1,19.6,16.5,24.2c0.4,0.3,1,0.4,1.5,0.2c0.7-0.3,0.8-1.3,0.7-2.1
			C472.1,359.6,464.6,349.8,454.6,347.4"/>
		<path class="st5" d="M461.5,346.4c9.2,9.9,24.7,10.5,34.6,1.3c0.4-0.4,0.8-0.8,1.2-1.2C485.8,345.3,472.7,344.5,461.5,346.4"/>
		<path class="st3" d="M463.1,255.6c0,0.1-0.1,0.2-0.1,0.3l-0.3,1c-0.3,0.8-0.8,2.1-1.4,3.7s-1.3,3.6-2.1,5.8
			c-0.4,1.1-0.8,2.4-1.3,3.6c-0.5,1.3-0.9,2.7-1.4,4.1c-2,5.7-4.2,12.7-6.7,20.3c-2.4,7.7-4.9,16.2-7.3,25.2s-4.6,17.6-6.4,25.4
			c-1.8,7.9-3.3,15-4.4,20.9c-0.3,1.5-0.6,2.9-0.8,4.3c-0.3,1.3-0.5,2.6-0.7,3.8c-0.4,2.4-0.8,4.4-1,6.1s-0.5,3-0.6,3.9
			c-0.1,0.4-0.1,0.8-0.2,1c0,0.1,0,0.2-0.1,0.3c0-0.1,0-0.2,0-0.3l0.1-1c0.1-0.9,0.3-2.2,0.5-3.9c0.2-1.7,0.5-3.7,0.9-6.1
			c0.2-1.2,0.4-2.5,0.6-3.8s0.5-2.8,0.8-4.3c1.1-6,2.6-13.1,4.3-21c1.7-7.9,3.9-16.5,6.3-25.5s5-17.5,7.3-25.2
			c2.4-7.7,4.7-14.6,6.7-20.3l1.5-4.1l1.4-3.6c0.8-2.3,1.6-4.2,2.2-5.8c0.6-1.6,1.1-2.8,1.4-3.6c0.2-0.4,0.3-0.7,0.4-1
			C463,255.8,463.1,255.7,463.1,255.6z"/>
		<path class="st3" d="M400.7,288.1c0.1,0.1,0.1,0.1,0.2,0.2l0.6,0.6c0.5,0.5,1.2,1.3,2,2.3c2.4,2.8,4.7,5.8,6.7,8.9
			c3,4.6,5.4,9.7,7,15c1.9,6,3,12.7,4.2,19.8c2.3,14.2,5.1,26.9,7.2,36c1,4.6,1.9,8.3,2.5,10.8c0.3,1.3,0.5,2.3,0.7,3l0.2,0.8
			c0,0.1,0,0.2,0,0.3c0-0.1-0.1-0.2-0.1-0.3l-0.2-0.8c-0.2-0.7-0.4-1.7-0.7-2.9c-0.6-2.6-1.5-6.3-2.6-10.8c-2.1-9.2-5-21.9-7.3-36
			c-1.2-7.1-2.3-13.8-4.2-19.8c-1.6-5.3-3.9-10.3-6.9-14.9c-2-3.1-4.2-6.1-6.6-9c-0.8-1-1.5-1.8-2-2.3l-0.5-0.6
			C400.8,288.2,400.7,288.1,400.7,288.1z"/>
		<path class="st3" d="M464.8,345.9c-0.1,0-0.3,0.1-0.4,0.1l-1.2,0.1l-0.8,0.1l-1,0.2c-0.7,0.1-1.6,0.2-2.4,0.4l-1.4,0.3l-1.5,0.4
			c-1.1,0.2-2.1,0.6-3.3,1c-2.5,0.9-4.9,1.9-7.2,3.2c-2.3,1.3-4.4,2.8-6.4,4.5c-0.9,0.7-1.7,1.5-2.5,2.4c-0.7,0.7-1.4,1.5-2,2.3
			c-0.5,0.6-1,1.3-1.5,2c-0.4,0.5-0.7,1-1,1.6l-0.6,1c-0.1,0.2-0.2,0.4-0.2,0.3s0.1-0.3,0.2-0.4c0.2-0.3,0.3-0.6,0.5-1.1
			c0.3-0.6,0.6-1.1,0.9-1.6c0.4-0.7,0.9-1.4,1.4-2.1c0.6-0.8,1.2-1.6,1.9-2.3c0.8-0.9,1.6-1.7,2.5-2.4c2-1.7,4.2-3.3,6.5-4.6
			c2.3-1.3,4.8-2.3,7.3-3.2c1.2-0.3,2.3-0.7,3.3-0.9l1.5-0.4l1.4-0.3c0.9-0.2,1.7-0.3,2.5-0.4l1-0.1h0.8l1.2-0.1
			C464.6,346,464.7,345.9,464.8,345.9z"/>
		<path class="st3" d="M468.1,288.3c-0.3,0.3-0.5,0.6-0.8,0.8l-2.3,2c-2,1.7-4.7,4-7.8,6.6c-3.1,2.5-5.8,4.8-7.9,6.5l-2.4,1.9
			c-0.3,0.3-0.6,0.5-0.9,0.7c0.2-0.3,0.5-0.6,0.8-0.8l2.3-2c2-1.7,4.8-4,7.8-6.6c3.1-2.5,5.8-4.8,7.9-6.5l2.4-1.9
			C467.5,288.8,467.8,288.5,468.1,288.3z"/>
		<path class="st3" d="M470.9,303.4c0,0.1-5.9,2-13.3,4.2s-13.4,3.9-13.4,3.7s5.9-2,13.3-4.2S470.8,303.3,470.9,303.4z"/>
		<path class="st3" d="M448.8,297.4c-0.2-0.3-0.4-0.5-0.6-0.8l-1.6-2.4c-1.3-2-3.2-4.8-5.5-7.7c-2.2-2.9-4.4-5.5-6-7.3l-1.9-2.2
			c-0.3-0.3-0.5-0.5-0.7-0.8c0.3,0.2,0.5,0.4,0.8,0.7c0.5,0.5,1.2,1.2,2,2.1c1.7,1.8,3.9,4.3,6.1,7.2c2.3,2.9,4.1,5.7,5.4,7.8
			c0.6,1,1.1,1.9,1.5,2.5C448.6,296.8,448.7,297.1,448.8,297.4z"/>
		<path class="st3" d="M428.1,305.7c-0.4,0.8-0.9,1.6-1.4,2.3c-0.9,1.4-2.1,3.3-3.3,5.5c-1.2,2.2-2.3,4.2-3.1,5.7
			c-0.4,0.8-0.8,1.6-1.3,2.4c0.3-0.9,0.6-1.7,1-2.5c0.7-1.5,1.7-3.6,3-5.8c1.3-2.3,2.5-4.2,3.5-5.5
			C427,307.1,427.5,306.4,428.1,305.7z"/>
		<path class="st3" d="M421,331.7c0,0.1-1.2-0.5-3-1.3c-1.9-0.8-4.5-1.9-7.4-3c-2.9-1-5.7-1.8-7.6-2.3c-2-0.5-3.2-0.8-3.2-0.8
			c0.3,0,0.6,0,0.9,0.1c0.6,0.1,1.4,0.2,2.4,0.5c2.6,0.6,5.2,1.3,7.7,2.2c2.5,0.9,5,1.9,7.4,3.1c0.9,0.5,1.7,0.8,2.2,1.1
			C420.6,331.4,420.8,331.5,421,331.7z"/>
		<path class="st3" d="M426.6,362.8c-0.1,0.1-0.2,0.1-0.4,0.1l-1.1,0.3l-4,0.9c-4.4,0.9-8.7,2.1-13,3.4c-4.2,1.4-8.3,3.3-12.1,5.7
			c-1.5,0.9-2.6,1.7-3.3,2.3c-0.4,0.3-0.8,0.6-1.2,0.9c0.1-0.1,0.2-0.2,0.3-0.3c0.2-0.2,0.5-0.4,0.8-0.7c1-0.9,2.1-1.7,3.3-2.4
			c3.8-2.5,7.8-4.4,12.1-5.8c4.3-1.4,8.6-2.5,13-3.3l4-0.8C425.6,362.9,426.1,362.8,426.6,362.8z"/>
		<path class="st3" d="M446.8,370.5c-0.1,0-0.8-4.2-1.6-9.3c-0.8-5.2-1.3-9.4-1.2-9.4c0.1,0,0.8,4.2,1.6,9.3
			C446.4,366.2,446.9,370.5,446.8,370.5z"/>
		<path class="st3" d="M467.8,362.9c-0.7-0.7-1.3-1.5-1.9-2.3c-1.1-1.4-2.7-3.3-4.5-5.5c-1.8-2.1-3.4-4-4.6-5.4
			c-0.7-0.7-1.3-1.5-1.9-2.3c0.2,0.1,0.4,0.3,0.6,0.5c0.4,0.4,0.9,0.9,1.5,1.5c1.3,1.3,2.9,3.2,4.7,5.3s3.3,4.1,4.4,5.6
			c0.5,0.7,1,1.3,1.3,1.8C467.6,362.4,467.7,362.6,467.8,362.9z"/>
		<polygon class="st7" points="412.2,382.3 412.2,392.7 414.8,392.7 424,421.8 444.5,421.8 453.4,393 456.9,392.7 456.9,382.3 		"/>
		<path class="st3" d="M455.2,393c0,0.1-9,0.2-20.2,0.2s-20.2-0.1-20.2-0.2s9-0.2,20.2-0.2C446.1,392.8,455.2,392.9,455.2,393z"/>
		<path class="st3" d="M469.9,326.2c-0.4,0.1-0.9,0.3-1.3,0.4l-3.6,0.8c-3,0.8-7.2,1.9-11.7,3.4s-8.5,3.1-11.4,4.4l-3.4,1.5
			c-0.4,0.2-0.8,0.4-1.3,0.6c0.4-0.3,0.8-0.5,1.2-0.7c0.8-0.4,1.9-1,3.3-1.6c7.4-3.4,15.2-6,23.1-7.8c1.5-0.3,2.8-0.6,3.6-0.7
			C469,326.3,469.4,326.3,469.9,326.2z"/>
		<path class="st2" d="M448.4,409.2c0,0.1-6.3,0.2-14.2,0.2s-14.2-0.1-14.2-0.2s6.3-0.2,14.2-0.2S448.4,409.1,448.4,409.2z"/>
		<path class="st2" d="M449.2,406.8c0,0.1-6.7,0.2-15,0.2s-15-0.1-15-0.2s6.7-0.2,15-0.2S449.2,406.7,449.2,406.8z"/>
	</g>
	<g id="freepik--character-2--inject-9">
		<path class="st5" d="M324,395.4l-1.4,17.1c0,0-16.9,5.4-17,8.6l33.1,0.4l1-26.2L324,395.4z"/>
		<path class="st0" d="M332.9,410.7c0.7,0.2,1.1,0.8,1,1.5c-0.2,0.7-0.8,1.1-1.5,1c-0.7-0.2-1.2-0.9-1.1-1.6
			C331.6,410.9,332.3,410.6,332.9,410.7"/>
		<path class="st0" d="M338.8,421.5l-0.1-2.7l-31.4,0.2c0,0-1.8,1.1-1.7,2.1L338.8,421.5z"/>
		<path class="st3" d="M322.1,412.3c0,0.2,0.8,0.2,1.7,0.7c0.8,0.5,1.3,1.2,1.4,1.1s-0.1-1-1.1-1.6S322.1,412.2,322.1,412.3z"/>
		<path class="st3" d="M318.7,413.9c0,0.2,0.7,0.4,1.2,1.1c0.6,0.7,0.8,1.4,0.9,1.4s0.2-0.9-0.5-1.8
			C319.7,413.8,318.7,413.7,318.7,413.9z"/>
		<path class="st3" d="M316.9,418.1c0.2,0,0.4-0.8-0.1-1.7c-0.4-0.9-1.2-1.2-1.3-1.1c-0.1,0.1,0.4,0.6,0.8,1.3
			S316.7,418.1,316.9,418.1z"/>
		<path class="st3" d="M322.3,408.4c0.1,0.1,0.8-0.1,1.7-0.1c0.9,0,1.7,0.3,1.7,0.2s-0.6-0.7-1.7-0.7
			C323.1,407.8,322.2,408.3,322.3,408.4z"/>
		<path class="st3" d="M322.1,405c0.6,0.1,1.1,0.1,1.7-0.1c0.6-0.1,1.2-0.3,1.7-0.6c0.3-0.2,0.6-0.3,0.9-0.5
			c0.2-0.1,0.3-0.2,0.5-0.4c0.2-0.2,0.2-0.6,0-0.8c-0.2-0.2-0.4-0.4-0.7-0.4c-0.2,0-0.4,0-0.6,0.1c-0.4,0.1-0.7,0.2-1,0.4
			c-0.6,0.3-1.1,0.6-1.5,1.1c-0.8,0.7-1,1.3-0.9,1.4s0.4-0.5,1.2-1.1c0.4-0.4,0.9-0.6,1.5-0.9c0.3-0.1,0.6-0.2,0.9-0.3
			c0.3-0.1,0.6-0.1,0.7,0s0,0.1,0,0.2c-0.1,0.1-0.2,0.2-0.4,0.3c-0.3,0.2-0.5,0.4-0.8,0.5c-0.5,0.3-1,0.5-1.6,0.7
			C323.2,404.6,322.7,404.8,322.1,405z"/>
		<path class="st3" d="M322.4,405.2c0.3-0.5,0.4-1.1,0.4-1.6c0-0.6-0.1-1.2-0.3-1.8c-0.1-0.3-0.3-0.7-0.5-1
			c-0.2-0.5-0.6-0.8-1.1-0.8c-0.3,0-0.6,0.2-0.7,0.5c-0.1,0.2-0.1,0.4-0.2,0.6c-0.1,0.4-0.1,0.7,0,1.1c0.1,0.6,0.4,1.2,0.8,1.7
			c0.7,0.8,1.4,1,1.4,1s-0.5-0.4-1-1.2c-0.3-0.5-0.5-1-0.6-1.5c0-0.3,0-0.6,0-1s0.2-0.6,0.3-0.6s0.5,0.3,0.6,0.5
			c0.2,0.3,0.3,0.6,0.4,0.9c0.2,0.5,0.3,1.1,0.4,1.7C322.4,404.6,322.3,405.2,322.4,405.2z"/>
		<path class="st5" d="M395.6,392.5l3.8,20l7.6,14.9c0.5,1,0.1,2.3-0.9,2.8c0,0-0.1,0-0.1,0.1l0,0c-0.6,0.3-1.3,0.2-1.9-0.1
			c-3.7-2.3-17.1-10.6-17.3-12.1c-0.2-1.7-5.4-20.9-5.4-20.9L395.6,392.5z"/>
		<path class="st0" d="M406,430.3l-19.5-13.6l0.2,0.8c0.2,0.7,0.6,1.4,1.2,1.8c1.6,1.2,6,4.5,16.2,10.8
			C404.6,430.6,405.4,430.6,406,430.3L406,430.3z"/>
		<path class="st0" d="M389.2,410.8c0.6,0.3,0.9,0.9,0.7,1.5c-0.2,0.6-0.9,0.9-1.5,0.7c-0.6-0.3-1-1-0.7-1.7
			c0.3-0.6,1.1-0.8,1.7-0.5"/>
		<path class="st3" d="M399.6,422.6c0.3-0.7,0.8-1.4,1.4-1.9c0.7-0.4,1.4-0.8,2.2-0.9c0-0.1-0.3-0.2-0.8-0.1
			c-0.6,0.1-1.2,0.3-1.7,0.7c-0.5,0.4-0.9,0.9-1.1,1.5C399.5,422.3,399.5,422.6,399.6,422.6z"/>
		<path class="st3" d="M401.6,425c0.1,0.1,0.6-0.7,1.6-1.2c0.6-0.3,1.2-0.5,1.9-0.7c-0.7-0.2-1.5-0.1-2.1,0.3
			C401.8,423.9,401.4,424.9,401.6,425z"/>
		<path class="st3" d="M396.2,419.7c0.7-0.7,1.5-1.4,2.3-2.1c0.9-0.5,1.8-1,2.8-1.3C399.1,416.4,397.1,417.7,396.2,419.7z"/>
		<path class="st3" d="M394.5,413.8c0.1,0.1,1.1-0.6,2.5-1s2.6-0.3,2.6-0.4C397.8,411.9,395.9,412.4,394.5,413.8L394.5,413.8z"/>
		<path class="st3" d="M393.3,407.9c0.8-0.5,1.7-0.8,2.6-1.1c0.9-0.1,1.9-0.1,2.8,0.1c0,0-0.3-0.3-0.8-0.4c-1.4-0.4-2.9-0.1-4,0.7
			C393.4,407.6,393.2,407.9,393.3,407.9z"/>
		<path class="st3" d="M395.5,405.8c0,0,0-0.3-0.1-0.8c-0.2-0.7-0.6-1.3-1-1.8c-0.3-0.4-0.7-0.7-1.2-0.9c-0.3-0.1-0.7,0.1-0.9,0.4
			c-0.2,0.3-0.2,0.6-0.1,1c0.4,1.4,1.7,2.3,3.1,2.1c1.4-0.2,2.5-1.1,2.9-2.5c0.1-0.3,0.1-0.7-0.1-1s-0.6-0.4-0.9-0.2
			c-0.5,0.2-0.9,0.5-1.2,1c-0.4,0.5-0.8,1.2-1,1.8c-0.1,0.2-0.2,0.5-0.2,0.8c0.4-0.9,0.8-1.7,1.4-2.4c0.3-0.4,0.6-0.6,1-0.8
			c0.2-0.1,0.4,0,0.5,0.1c0.1,0.2,0.1,0.4,0.1,0.7c-0.4,1.1-1.3,1.9-2.5,2.1c-1.2,0.1-2.3-0.6-2.7-1.8c-0.1-0.2,0-0.5,0.1-0.7
			s0.3-0.3,0.5-0.2c0.4,0.1,0.8,0.4,1.1,0.7C394.8,404.1,395.3,404.9,395.5,405.8z"/>
		<path class="st3" d="M323.8,237.9c-0.2,0-2.7,167.8-2.7,167.8l20.3-0.7l7-82.5L350,262l13.8,56.1L381,406l20.2-5.1l-25.8-164
			l-24.3-4.7L323.8,237.9z"/>
		<path class="st3" d="M367.9,134.3c2.4-4.8,3.2-13.4,0.4-18.2c-2.8-4.8-8.4-8.2-13.7-9.8c-0.9-0.3-1.8-0.4-2.7-0.2
			c-0.9,0.3-1.5,1.2-1.3,2.1c-1-0.8-2.1-1.5-3.3-1.9c-1.2-0.4-2.6-0.2-3.6,0.5c-1,0.8-1.2,2.3-0.4,3.4l0,0c-2.1-0.9-4.6,0.1-5.5,2.2
			c-0.4,0.9-0.4,2-0.1,2.9c0.6,1.6,1.5,3,2.7,4.2c1.1,1.1,1.2,2.2,0.8,3.7"/>
		<path class="st8" d="M347.9,173.8c0.2-2.3,0.5-23.1,0.5-23.2c0-0.1-7.7-1-8.1-8.6c-0.2-3.7,0.1-11.4,0.5-18.3
			c0.4-7.4,6.4-13.4,13.8-13.6h0.7c8,0.2,12.3,7.1,11.9,15.1l-1.1,44.5"/>
		<path class="st9" d="M348.4,150.6c3.6-0.1,7-1.3,9.9-3.3c0,0-2.3,4.8-10,4.4L348.4,150.6z"/>
		<path class="st3" d="M342.2,128.8c0,0.6,0.5,1.1,1.1,1.1s1.1-0.4,1.1-1l0,0c0-0.6-0.5-1.1-1.1-1.1l0,0
			C342.7,127.7,342.2,128.2,342.2,128.8L342.2,128.8z"/>
		<path class="st3" d="M342.6,127.3c0.1,0.1,1-0.5,2.1-0.5c1.2,0,2.1,0.5,2.2,0.4s-0.1-0.3-0.5-0.6c-0.5-0.3-1.1-0.5-1.8-0.5
			c-0.6,0-1.2,0.2-1.7,0.6C342.6,127,342.5,127.2,342.6,127.3z"/>
		<path class="st3" d="M354,129c0,0.6,0.5,1.1,1.1,1.1s1.1-0.4,1.1-1l0,0c0-0.6-0.5-1.1-1.1-1.1C354.5,127.9,354,128.4,354,129z"/>
		<path class="st3" d="M354.2,127.2c0.1,0.1,1-0.5,2.1-0.5s2.1,0.5,2.2,0.4c0.1-0.2-0.1-0.3-0.5-0.6c-0.5-0.3-1.1-0.5-1.8-0.5
			c-0.6,0-1.2,0.2-1.7,0.6C354.3,126.8,354.1,127.1,354.2,127.2z"/>
		<path class="st3" d="M350.2,136.1c-0.6-0.2-1.3-0.3-1.9-0.3c-0.3,0-0.6-0.1-0.7-0.3c0-0.3,0-0.6,0.2-0.9l0.8-2.3
			c1.1-3.3,2-6,1.8-6.1s-1.2,2.6-2.3,5.9c-0.3,0.8-0.5,1.6-0.8,2.3c-0.2,0.4-0.2,0.8-0.1,1.2c0.1,0.2,0.3,0.4,0.5,0.4
			s0.3,0.1,0.5,0.1C348.9,136.2,349.6,136.2,350.2,136.1z"/>
		<path class="st3" d="M353.7,136.8c-0.2,0-0.2,1.3-1.2,2.2s-2.4,0.8-2.4,1s0.3,0.2,0.9,0.2c0.8,0,1.5-0.3,2.1-0.8
			c0.5-0.5,0.9-1.1,0.9-1.9C353.9,137.1,353.8,136.8,353.7,136.8z"/>
		<path class="st3" d="M353.8,122.5c0.1,0.3,1.3,0.1,2.7,0.3c1.4,0.1,2.5,0.5,2.7,0.2c0.1-0.1-0.1-0.4-0.6-0.7
			c-0.6-0.4-1.3-0.6-2-0.6c-0.7-0.1-1.4,0-2.1,0.3C354,122.1,353.7,122.4,353.8,122.5z"/>
		<path class="st3" d="M342.9,123.9c0.2,0.3,1,0,2-0.1s1.8,0.1,2-0.2c0.1-0.1-0.1-0.4-0.4-0.7c-0.5-0.3-1.1-0.4-1.7-0.4
			s-1.1,0.2-1.6,0.6C342.9,123.5,342.8,123.7,342.9,123.9z"/>
		<path class="st8" d="M366.8,130.8c0.1-0.1,5.2-1.7,5.2,3.5c0,5.3-5.3,4.2-5.3,4C366.8,138.2,366.8,130.8,366.8,130.8z"/>
		<path class="st9" d="M368.4,136.4c0,0,0.1,0.1,0.3,0.1c0.2,0.1,0.5,0.1,0.7,0c0.7-0.4,1.1-1.2,1.1-2c0-0.5-0.1-0.9-0.3-1.3
			c-0.1-0.3-0.4-0.6-0.7-0.7c-0.2-0.1-0.4,0-0.5,0.3c-0.1,0.1,0,0.3-0.1,0.3s-0.1-0.1-0.1-0.3c0-0.1,0.1-0.2,0.2-0.3
			s0.3-0.2,0.5-0.1c0.4,0.1,0.8,0.4,1,0.8c0.2,0.5,0.3,1,0.3,1.5c0.1,1-0.5,1.9-1.3,2.3c-0.3,0.1-0.6,0-0.8-0.1
			C368.4,136.5,368.4,136.4,368.4,136.4z"/>
		<path class="st3" d="M337.5,113.6c-0.6,6.8,7.8,9.7,11.5,5.8c1.7-1.8,3.2-4,5.5-4.8c1.6-0.5,3.3-0.3,4.8,0.5l0,0
			c2.2,1.1,3.4,3.6,3.8,6.1c0.5,3.3-0.1,6.3,0.8,9.4c0.1,0.5,0.3,0.9,0.7,1.2c0.7,0.4,1.6,0.1,2.1-0.5c0.8-1,1.2-2.2,1.3-3.5
			c0.5-2.8,0.4-5.7-0.3-8.5c-0.7-2.8-2.2-5.3-4.3-7.3c-2.7-2.4-6.3-3.6-9.9-3.4s-7,1.6-9.8,3.9c-1.3,1-2.4,2.3-3.1,3.8"/>
		<path class="st7" d="M343,109.9c-0.2-0.1-0.5-0.1-0.7,0c-0.7,0.2-1.3,0.5-1.7,1c-0.7,0.7-1.2,1.6-1.3,2.6c-0.1,1.2,0.3,2.5,1,3.5
			s1.7,1.8,2.8,2.2c0.9,0.4,1.9,0.6,2.9,0.6c0.7,0,1.3,0,2-0.1c0.2,0,0.5-0.1,0.7-0.1c0-0.1-1,0.1-2.7-0.1c-0.9-0.1-1.9-0.3-2.7-0.7
			c-1.1-0.5-2-1.2-2.7-2.1s-1-2-1-3.1c0.1-0.9,0.5-1.8,1.1-2.5c0.4-0.5,1-0.8,1.6-1C342.8,110,343,110,343,109.9z"/>
		<path class="st7" d="M346.6,107.5c0,0-0.2-0.1-0.5,0.1c-0.4,0.2-0.7,0.6-0.8,1.1c-0.1,0.7,0,1.4,0.4,2c0.4,0.7,0.9,1.4,1.4,2
			c1,1.1,2.3,1.9,3.8,2.4c0.6,0.2,1.2,0.3,1.8,0.3c0-0.1-0.7-0.2-1.7-0.6c-1.3-0.5-2.6-1.3-3.6-2.4c-0.5-0.6-1-1.2-1.4-1.9
			c-0.3-0.5-0.5-1.2-0.5-1.8c0.1-0.4,0.3-0.8,0.6-1C346.4,107.6,346.6,107.5,346.6,107.5z"/>
		<path class="st8" d="M300.8,175.6l-36.2-3.4l-5.7-1.4c0,0-13.1-2.3-14.3-2.7c-1.4-0.4-2,0.1-2.1,0.7c-0.2,0.8,0.6,1.7,1.8,2.1
			c0.4,0.2,7.1,2.2,7.1,2.2c-0.7,0.2-1.5,0.4-2.2,0.7c-1.6,0.6-3,2.7-3.6,5.1s-0.6,3.1,0.3,3.4c0.4,0.1,0.7,0,1-0.2
			c0.5-0.3,0.9-0.8,1.1-1.4c1.1-3.8,3.5-4.2,3.5-4.2l0.8,0.2c0,0-2.4,1.8-2.2,3.8c0,0.3,0.1,0.6,0.2,0.8c-0.6,1.6,0.3,3.4,1.9,3.9
			c0.5,0.2,1.1,0.2,1.7,0.1c0.5-0.1,1.1-0.4,1.1-1c0-0.3-0.1-0.6-0.2-0.8c-0.1-0.1-0.1-0.3-0.1-0.4l2.2,0.2c0,0,4.9,0.2,7,0.6
			l34.1,8.8c4.7,1.2,9.4-1.6,10.6-6.3c0-0.1,0-0.1,0-0.2l0,0c1.1-4.7-1.8-9.4-6.5-10.5C301.6,175.7,301.2,175.7,300.8,175.6z"/>
		<path class="st8" d="M263.8,173.1c-0.1,0.8-0.7,1.4-1.5,1.5c-0.7,0.2-1.5,0.1-2.3,0.2c-2.2,0.4-3.9,2.5-6.1,2.8
			c-0.3,0-0.7,0-0.8-0.3s0.1-0.6,0.3-0.8l5.4-5.2"/>
		<path class="st9" d="M258.9,171.4c-0.2,0.1-0.4,0.3-0.6,0.5c-0.4,0.3-1,0.8-1.7,1.5l-2.4,2.2c-0.2,0.2-0.5,0.4-0.7,0.7
			c-0.2,0.2-0.6,0.4-0.6,0.9c0,0.3,0.2,0.5,0.4,0.6s0.4,0.1,0.6,0.1c0.4,0,0.7-0.1,1.1-0.3c1.2-0.6,2.4-1.2,3.5-2
			c0.5-0.3,1-0.5,1.6-0.6c0.5-0.1,1-0.1,1.5-0.2c0.8,0,1.5-0.4,2-1c0.2-0.2,0.3-0.5,0.2-0.8c-0.1,0.2-0.2,0.5-0.4,0.7
			c-0.5,0.5-1.2,0.8-1.9,0.8c-0.5,0-1,0-1.5,0.1c-0.6,0.1-1.1,0.3-1.7,0.6c-1.1,0.7-2.3,1.3-3.5,1.9c-0.3,0.1-0.6,0.2-1,0.2
			c-0.3,0-0.6-0.1-0.6-0.2c0-0.2,0.2-0.4,0.5-0.6c0.2-0.2,0.5-0.5,0.7-0.7l2.3-2.3c0.7-0.7,1.2-1.2,1.6-1.6
			C258.7,171.6,258.9,171.4,258.9,171.4z"/>
		<path class="st9" d="M252.2,176.6c-0.5-0.1-1-0.1-1.4,0c-0.5,0.2-0.9,0.5-1.2,0.9c-0.4,0.5-0.6,1.1-0.8,1.7
			c-0.2,0.6-0.4,1.2-0.8,1.8c-0.3,0.5-0.7,0.9-1.1,1.2c-0.3,0.2-0.7,0.2-1.1,0.1c-0.2-0.1-0.3-0.2-0.3-0.2s0.1,0.1,0.4,0.1
			c0.3,0.1,0.7,0,1-0.1c0.4-0.3,0.8-0.7,1-1.1c0.3-0.6,0.5-1.2,0.7-1.8s0.5-1.2,0.9-1.8c0.3-0.5,0.8-0.8,1.4-0.9
			c0.4-0.1,0.7-0.1,1.1,0C251.9,176.5,252,176.5,252.2,176.6z"/>
		<path class="st9" d="M243.8,170.7c0.5,0.1,0.9,0.2,1.3,0.4l3.2,1l3.2,1c0.5,0.1,0.9,0.3,1.3,0.4c-0.5,0-0.9-0.1-1.4-0.3
			c-0.8-0.2-2-0.5-3.2-0.9c-1.3-0.4-2.4-0.8-3.2-1.1C244.7,171.2,244.2,171,243.8,170.7z"/>
		<path class="st9" d="M253.2,178.6c0,0-0.1,0.1-0.3,0.3c-0.3,0.3-0.4,0.6-0.4,1c0,0.2,0.2,0.4,0.4,0.5c0.3,0.1,0.6,0.2,0.9,0.2
			c0.4,0,0.7,0.2,1,0.5s0.3,0.8,0.2,1.2s-0.4,0.7-0.8,0.9c-0.3,0.2-0.7,0.2-1.1,0.2c-0.6-0.1-1.1-0.3-1.7-0.6
			c-0.4-0.2-0.7-0.4-1-0.7c-0.1-0.1-0.2-0.2-0.2-0.4c0,0,0.1,0.1,0.3,0.3c0.3,0.2,0.6,0.4,1,0.6c0.5,0.2,1.1,0.4,1.7,0.5
			c0.7,0.1,1.3-0.3,1.6-0.9c0.1-0.3,0-0.7-0.2-0.9s-0.5-0.4-0.8-0.4s-0.6-0.1-0.9-0.3c-0.3-0.1-0.5-0.4-0.5-0.7
			C252.4,179.4,252.7,178.9,253.2,178.6L253.2,178.6z"/>
		<path class="st9" d="M254.1,183c0,0,0.2,0,0.4,0.2c0.3,0.2,0.5,0.6,0.4,1c0,0.6-0.4,1.1-0.9,1.3c-0.6,0.3-1.3,0.3-2,0.1
			c-0.6-0.2-1.2-0.6-1.6-1.1c-0.3-0.4-0.5-0.9-0.6-1.5c0-0.4,0-0.7,0.1-1.1c0.1-0.2,0.1-0.4,0.2-0.4c-0.1,0.5-0.1,0.9,0,1.4
			s0.3,1,0.6,1.4c0.4,0.5,0.9,0.8,1.5,1s1.2,0.2,1.8-0.1c0.4-0.2,0.8-0.6,0.8-1.1c0-0.3-0.1-0.7-0.3-0.9
			C254.3,183.1,254.1,183,254.1,183z"/>
		<path class="st9" d="M260,179.8c0-0.2,0.1-0.4,0.2-0.6c0.3-0.5,0.7-0.9,1.3-1.1v0.2c-0.3-0.1-0.6-0.3-0.8-0.4
			c-1-0.5-1.8-1.3-2.3-2.2c0.8,0.8,1.6,1.4,2.5,2c0.3,0.2,0.6,0.3,0.8,0.4l0.3,0.1l-0.3,0.1c-0.5,0.2-0.9,0.5-1.2,1
			C260.1,179.6,260,179.8,260,179.8z"/>
		<path class="st9" d="M248.6,176.4c0.1-0.1,0.5,0.4,0.5,1c0.1,0.7-0.2,1.1-0.3,1.1s0.1-0.5,0-1.1
			C248.8,176.9,248.6,176.5,248.6,176.4z"/>
		<path class="st5" d="M301.4,193.3l23.6-5.4c0,0-1.2,43.2-1.2,43.6s-1.9,1.1-1.8,4.2l1.7,3.7l51.7,0.7l1.4-42l4.7-32.5l-10.8-6.7
			l-3.8-5.2L352,169.4l-3.7-13.4l0.1-4l-3.7,4l-19.9,5.7L298.5,174l-17.8-1.4l-4.6,15.6L301.4,193.3z"/>
		<path class="st3" d="M349.9,164.6c-0.5,0.3-0.9,0.7-1.1,1.2c-0.2,0.6-0.3,1.2-0.3,1.8c0,0.8-0.1,1.7-0.4,2.5l-0.2,0.4l-0.2-0.4
			c-0.5-1.2-0.9-2.5-1.2-3.8c-0.6-2.7-1-5.2-1.3-7c-0.2-1-0.3-1.9-0.3-2.9c0.3,0.9,0.5,1.9,0.6,2.9c0.3,1.8,0.8,4.2,1.4,6.9
			c0.3,1.3,0.6,2.5,1.1,3.8h-0.4c0.3-0.7,0.4-1.5,0.4-2.3c0-0.7,0.2-1.3,0.4-1.9c0.2-0.4,0.5-0.7,0.8-1
			C349.6,164.7,349.7,164.6,349.9,164.6z"/>
		<path class="st3" d="M369,158c-0.1,0.3-0.3,0.5-0.5,0.7c-0.4,0.4-0.8,1.1-1.5,1.9c-1.3,1.6-3.1,3.7-5.1,6.1l-3.2,3.7l-0.3,0.3
			l-0.1-0.4c-0.5-1.8-0.8-3.3-1.1-4.4c-0.1-0.5-0.4-0.8-0.7-0.8c-0.1,0-0.3,0-0.4,0.1c0,0,0.1-0.2,0.4-0.2c0.2,0,0.4,0.1,0.6,0.2
			c0.2,0.2,0.3,0.4,0.4,0.7c0.3,1.1,0.7,2.6,1.2,4.4l-0.3-0.1l3.2-3.7c2-2.4,3.8-4.5,5.2-6c0.7-0.8,1.2-1.4,1.6-1.8
			C368.8,158.2,369,158,369,158z"/>
		<path class="st3" d="M347,227.1c0-0.2-0.1-0.4-0.1-0.6c0-0.4,0-0.9,0-1.6c0-1.4,0-3.4,0-5.9c0.1-5,0.3-11.9,0.8-19.5
			s1.4-14.4,2.1-19.4c0.3-2.5,0.6-4.5,0.8-5.8l0.3-1.6c0-0.2,0.1-0.4,0.1-0.5c0,0.2,0,0.4,0,0.6c-0.1,0.4-0.1,0.9-0.2,1.6
			c-0.2,1.4-0.4,3.4-0.7,5.8c-0.6,4.9-1.3,11.8-1.9,19.4c-0.6,7.6-0.8,14.5-1,19.4c-0.1,2.5-0.1,4.5-0.1,5.9c0,0.7,0,1.2,0,1.6
			C347.1,226.7,347.1,226.9,347,227.1z"/>
		<path class="st3" d="M342.8,237.2c-0.4-1.2-0.5-2.5-0.4-3.7c0-1.2,0.1-2.5,0.4-3.7c0.1,1.2,0.1,2.5,0,3.7
			C342.8,235.5,343,237.2,342.8,237.2z"/>
		<path class="st3" d="M364,225.1c-0.4,0.2-0.9,0.4-1.3,0.5c-0.8,0.3-2.1,0.7-3.7,1.2c-4.1,1.2-8.3,2.1-12.5,2.9
			c-4.2,0.8-8.5,1.3-12.7,1.6c-1.6,0.1-3,0.2-3.9,0.2c-0.5,0-0.9,0-1.4,0c0.5-0.1,0.9-0.1,1.4-0.2l3.9-0.3c3.3-0.3,7.7-0.8,12.6-1.7
			c4.9-0.8,9.3-1.9,12.5-2.8l3.7-1C363.1,225.3,363.5,225.2,364,225.1z"/>
		<path class="st3" d="M324.7,197c-0.1,0-0.2-6.1-0.2-13.7c0-7.6,0.1-13.7,0.3-13.7c0.1,0,0.2,6.1,0.2,13.7S324.9,197,324.7,197z"/>
		<path class="st5" d="M380.6,165c0,0,6.5,5.6,6.9,8.8c0.3,2.4,6.7,25.4,9.6,35.7c0.9,3.2,0.7,6.6-0.6,9.7l-8.3,20.6l-13.5-8
			l6.7-19.3l-5.6-16.4L380.6,165z"/>
		<path class="st3" d="M388.3,239.8c-0.1,0-0.2-0.1-0.3-0.1l-0.7-0.4l-2.7-1.6l-9.9-5.7l-0.1-0.1l0.1-0.1c1.9-5.4,4.2-12.1,6.7-19.3
			v0.1c-0.8-2.1-1.6-4.3-2.5-6.6c-2-5.3-3.9-10.4-5.6-15l0,0c-1.7-3.6-3.2-7-3.6-10.4c-0.2-1.6-0.2-3.1,0.1-4.7
			c0.3-1.3,0.7-2.6,1.4-3.7c0.9-1.7,2.1-3.1,3.5-4.4c0.4-0.3,0.8-0.6,1.2-0.9c0.1-0.1,0.3-0.2,0.4-0.3c-0.1,0.1-0.3,0.2-0.4,0.3
			c-0.3,0.2-0.7,0.5-1.1,1c-1.4,1.3-2.5,2.8-3.3,4.4c-0.6,1.2-1,2.4-1.3,3.7c-0.3,1.5-0.3,3-0.1,4.6c0.4,3.2,1.9,6.7,3.6,10.2l0,0
			l5.6,15c0.8,2.3,1.7,4.5,2.5,6.6v0.1v0.1c-2.6,7.3-4.9,13.9-6.8,19.3l-0.1-0.2l9.8,5.8l2.7,1.7l0.7,0.4
			C388.2,239.7,388.3,239.8,388.3,239.8z"/>
		<g class="st10">
			<path d="M353.6,168c0.9,0,1.8,0.6,2,1.5s0,1.8,0.3,2.7s1,1.8,1.9,1.6c0.5-0.2,1-0.5,1.3-1c1.8-2.4,3.2-5,4.2-7.8
				c0,0.1-4.6,5.3-4.6,5.3c-0.2-1.3-0.5-2.6-1-3.9c-0.2-0.4-0.3-1.1-0.7-1.3c-0.6-0.3-1.5,0.6-1.9,1.2
				C354.5,166.9,354.1,167.5,353.6,168"/>
		</g>
		<g class="st10">
			<path d="M346,163.3c0.1,2.9,0.6,5.8,1.7,8.6c0.1,0.3,0.2,0.5,0.5,0.8c0.2,0.2,0.6,0.3,0.8,0.1c0.3-0.6,0.6-1.2,0.8-1.8
				c0.4-1.2,2.2-1.3,2.2-1.3c-0.3-1.3-0.7-2.7-1.1-4c-0.2-0.4-0.6-0.7-1.1-0.7c-0.6,0.2-1.1,0.7-1.2,1.4c-0.3,2.1-0.2,3.1-0.5,3.9
				C347.2,167.9,346.6,165.2,346,163.3"/>
		</g>
		<g class="st10">
			<path d="M358.8,226.5c0.8-0.6,1-1.7,0.4-2.5l0,0c-0.6-0.8-1.6-1.2-2.6-1s-1.9,0.6-2.6,1.2c-0.8,0.6-1.5,1.2-2.4,1.7
				c-2,1.3-4.5,1.5-6.9,1.6c-2.4-0.1-4.8,0-7.2,0.3c-2.4,0.5-4.7,1.7-5.8,3.8C331.7,231.5,352.2,230,358.8,226.5z"/>
		</g>
		<path class="st8" d="M372.2,256.6c-2.2-1.4-4-3.3-5.4-5.5c0-0.1,0-0.1,0-0.2c-0.1-0.1-0.1-0.1-0.2-0.1c-0.6-0.9-1.1-1.8-1.6-2.8
			c1.7-1.1,3.9-2.7,1.5-3.1c-2.9-0.4-5-1.8-5.3-2.6c-0.1-0.5,0.2-1,0.7-1.1c0.3-0.1,0.6,0,0.8,0.1c0.9,0.5,1.8,0.8,2.8,1
			c0.8,0.2,1.6,0.2,2.4,0.2c0.5-0.1,2.2-1.3,4.1-2.1c0.3-0.1,0.6-0.2,0.8-0.1l0.7-0.1c0.8,0,1.5-0.5,1.8-1.2l2.7-5.2l8.2,4.8l-6.5,9
			C377.4,250.7,374.9,253.7,372.2,256.6z"/>
		<path class="st7" d="M373.9,257.5c-0.7-0.2-1.3-0.5-1.9-0.9c-1.4-0.9-2.7-2-3.9-3.2c-1.1-1.2-2.1-2.7-2.8-4.2
			c-0.3-0.6-0.6-1.3-0.7-2C366.6,251.6,369.8,255.2,373.9,257.5L373.9,257.5z"/>
		<path class="st7" d="M348.2,262.8c0,0-0.1,0-0.2-0.1c-0.2-0.1-0.4-0.2-0.6-0.4c-0.6-0.6-1.1-1.3-1.3-2.1c-0.4-1.2-0.7-2.4-0.9-3.6
			c-0.3-1.4-0.6-2.8-0.9-4.4c-0.6-3.1-1.1-6-1.4-8.1c-0.2-1-0.3-1.9-0.3-2.5c-0.1-0.3-0.1-0.6-0.1-0.9c0.1,0.3,0.2,0.5,0.2,0.8
			l0.5,2.4c0.4,2.1,0.9,4.9,1.5,8c0.3,1.6,0.6,3,0.9,4.4c0.3,1.4,0.5,2.6,0.8,3.6c0.2,0.8,0.6,1.5,1.2,2.1
			C347.9,262.6,348.2,262.8,348.2,262.8z"/>
		<path class="st7" d="M347.5,244.1c0,0,0.1-0.1,0.4,0s0.6,0.4,0.8,0.7c0.3,0.5,0.2,1.1-0.1,1.5c-0.4,0.6-1.1,0.8-1.8,0.7
			c-0.6-0.2-1.1-0.7-1.2-1.4c-0.1-0.5,0.1-1.1,0.5-1.4c0.7-0.6,1.3-0.4,1.3-0.4c-0.4,0.1-0.8,0.3-1.1,0.6c-0.3,0.3-0.4,0.7-0.3,1.2
			s0.5,0.9,0.9,1.1c0.5,0.1,1-0.1,1.3-0.5c0.2-0.3,0.3-0.8,0.1-1.2C348,244.2,347.4,244.1,347.5,244.1z"/>
		<path class="st7" d="M329.7,240.7c0.2,0.6,0.3,1.3,0.2,1.9c-0.1,3.2-1.7,6.2-4.3,8c-0.5,0.4-1.1,0.7-1.7,0.8
			c0-0.1,0.6-0.4,1.5-1.1c2.4-1.9,3.9-4.7,4.2-7.8C329.7,241.4,329.6,240.7,329.7,240.7z"/>
		<path class="st3" d="M297.3,182.2c0-1.4,0.2-2.8,0.4-4.2c0.1-1.4,0.3-2.8,0.6-4.1c0.1,1.4,0.1,2.8-0.2,4.2
			C298.1,179.5,297.8,180.8,297.3,182.2z"/>
		<path class="st3" d="M280.7,172.6c0,0.1,0,0.2-0.1,0.3c-0.1,0.2-0.1,0.5-0.2,0.8c-0.2,0.8-0.5,1.8-0.9,3.2l-3.3,11.3l-0.1-0.2
			c4.7,1.2,10.4,2.1,16.5,3.2c3,0.6,5.9,1.2,8.6,1.8h-0.1l16.9-3.8l4.9-1.1l1.3-0.3c0.2,0,0.3-0.1,0.5-0.1c-0.1,0.1-0.3,0.1-0.5,0.1
			l-1.3,0.3l-4.9,1.2l-16.9,4H301c-2.7-0.7-5.6-1.3-8.6-1.8c-6-1.1-11.7-2.1-16.5-3.3h-0.2l0.1-0.2c1.4-4.6,2.6-8.5,3.4-11.3
			c0.4-1.3,0.7-2.4,1-3.1c0.1-0.3,0.2-0.6,0.3-0.8C280.6,172.8,280.7,172.7,280.7,172.6z"/>
	</g>
	<g id="freepik--character-1--inject-9">
		<polygon class="st11" points="47.3,365.4 44.9,410 61.1,413.9 64.3,370.3 		"/>
		<polygon class="st5" points="44.5,409.6 41.7,421.7 60.3,421.7 61.1,413.8 		"/>
		<path class="st3" d="M60.7,420c-0.9,0.1-1.8,0.2-2.7,0.2c-1.7,0-4,0-6.5-0.1l-6.5-0.3c-0.9,0-1.8-0.1-2.7-0.2
			c0.9-0.1,1.8-0.2,2.7-0.2c1.7,0,4,0,6.5,0.1l6.5,0.3C58.9,419.8,59.8,419.8,60.7,420z"/>
		<path class="st3" d="M52.8,412c0.1,0,0.1,1.8,0,3.9c-0.1,2.2-0.4,3.9-0.5,3.9s-0.1-1.8,0-3.9C52.4,413.7,52.7,412,52.8,412z"/>
		<g class="st12">
			<polyline class="st6" points="41.7,421.7 60.3,421.7 60.5,420 42,419.5 41.7,421.5 			"/>
		</g>
		<polygon class="st11" points="108.7,387.1 112.7,416.6 127,415.6 124,388.5 		"/>
		<path class="st5" d="M127.1,412.4L127.1,412.4c0,0,16.1,5.4,16.4,8.3l-30.8,0.9l-0.3-8l1.1,0.2
			C118.2,414.8,122.9,414.3,127.1,412.4z"/>
		<g class="st12">
			<path class="st6" d="M116.1,415.1c-0.6,0.2-1,0.8-0.8,1.5c0.2,0.6,0.8,1,1.4,0.8s1-0.9,0.8-1.5c-0.3-0.6-1-0.9-1.6-0.7"/>
		</g>
		<g class="st12">
			<path class="st6" d="M112.7,421.7v-2.5l29.5,0.1c0,0,1.4,0.6,1.3,1.5L112.7,421.7z"/>
		</g>
		<path class="st3" d="M127.6,412.3c0,0.2-0.7,0.2-1.5,0.7s-1.1,1.1-1.2,1.1c-0.1-0.1,0.1-0.9,1-1.5S127.7,412.1,127.6,412.3z"/>
		<path class="st3" d="M130.9,413.5c0,0.1-0.6,0.4-1.1,1.1s-0.6,1.3-0.8,1.3s-0.3-0.8,0.4-1.7C130,413.4,130.9,413.4,130.9,413.5z"
			/>
		<path class="st3" d="M132.8,417.3c-0.1,0-0.4-0.7,0-1.5s1.1-1.2,1.1-1.1c0.1,0.1-0.4,0.6-0.6,1.3S133,417.3,132.8,417.3z"/>
		<path class="st3" d="M127.3,412.2c-0.5,0.2-1,0.2-1.5,0c-0.6-0.1-1.1-0.2-1.6-0.5c-0.3-0.1-0.6-0.3-0.9-0.4
			c-0.2-0.1-0.3-0.2-0.5-0.4c-0.2-0.2-0.2-0.5-0.1-0.8c0.1-0.2,0.4-0.4,0.7-0.4c0.2,0,0.4,0,0.6,0.1c0.3,0.1,0.7,0.2,1,0.3
			c0.5,0.2,1,0.5,1.4,0.9C127.1,411.6,127.4,412.2,127.3,412.2c-0.1,0-0.4-0.4-1.2-0.9c-0.4-0.3-0.9-0.5-1.4-0.7
			c-0.3-0.1-0.6-0.2-0.9-0.2c-0.3-0.1-0.6-0.1-0.7,0.1s0,0.1,0,0.2c0.1,0.1,0.2,0.2,0.3,0.3c0.3,0.2,0.5,0.3,0.8,0.4
			c0.5,0.2,1,0.4,1.5,0.5C126.3,411.9,126.8,412,127.3,412.2z"/>
		<path class="st3" d="M127.1,412.4c-0.3-0.4-0.5-1-0.4-1.5c0-0.6,0-1.1,0.2-1.7c0.1-0.3,0.2-0.6,0.4-0.9c0.1-0.4,0.5-0.7,1-0.8
			c0.3,0,0.5,0.2,0.7,0.4c0.1,0.2,0.1,0.4,0.2,0.6c0.1,0.3,0.1,0.7,0,1c-0.1,0.6-0.3,1.1-0.6,1.6c-0.6,0.8-1.2,1-1.2,1
			c0-0.1,0.5-0.4,0.9-1.2c0.3-0.4,0.4-0.9,0.4-1.5c0-0.3,0-0.6-0.1-0.9s-0.2-0.6-0.3-0.5c-0.1,0-0.4,0.3-0.5,0.5
			c-0.1,0.3-0.3,0.5-0.4,0.8c-0.2,0.5-0.2,1-0.3,1.6C127,411.8,127.2,412.4,127.1,412.4z"/>
		<path class="st3" d="M59.3,237.3c0,0-11.4,19-11.4,30.3l-2.8,138.2l17.9,4.3l13.7-135c0,0,33.1,135.4,34.2,135.4
			s17.4-2.9,17.4-2.9l-24.7-169.5L59.3,237.3z"/>
		<path class="st7" d="M66.4,271.3c0,0.1,0,0.2,0,0.4c0,0.3-0.1,0.6-0.1,1c-0.2,0.9-0.4,2.2-0.6,3.9c-0.6,3.4-1.3,8.3-2.2,14.3
			c-1.8,12.1-4.1,28.8-6,47.5c-1.9,18.6-3.1,35.5-3.7,47.7c-0.3,6.1-0.6,11.1-0.7,14.5c-0.1,1.7-0.1,3-0.2,3.9c0,0.4-0.1,0.8-0.1,1
			c0,0.1,0,0.2,0,0.4c0-0.1,0-0.2,0-0.4c0-0.3,0-0.6,0-1c0-0.9,0.1-2.3,0.1-3.9c0.1-3.4,0.3-8.3,0.6-14.5
			c0.6-12.2,1.7-29.1,3.6-47.7s4.2-35.4,6.2-47.5c1-6,1.8-10.9,2.4-14.3c0.3-1.7,0.5-3,0.7-3.9c0.1-0.4,0.1-0.8,0.2-1
			C66.3,271.5,66.3,271.4,66.4,271.3z"/>
		<path class="st7" d="M94.8,273.6c0.1,0,5.6,30.3,12.2,67.7s11.9,67.8,11.7,67.8c-0.1,0-5.6-30.3-12.2-67.7
			C99.9,304,94.6,273.6,94.8,273.6z"/>
		<path class="st7" d="M76.1,274.8c0,0-0.1-0.1-0.2-0.3c-0.1-0.2-0.3-0.6-0.5-1c-0.5-1.3-1-2.6-1.3-3.9c-1.2-4.4-1.6-8.9-1.3-13.5
			c0.1-1.3,0.3-2.6,0.5-3.9c0.2-1.2,0.5-2.4,0.8-3.5c0.6-2.2,1.3-4.2,1.9-5.8c0.6-1.7,1.1-3,1.4-3.9l0.4-1c0-0.1,0.1-0.2,0.2-0.4
			c0,0.1,0,0.3-0.1,0.4l-0.3,1.1c-0.3,1-0.8,2.3-1.3,3.9s-1.2,3.6-1.8,5.8c-0.3,1.1-0.6,2.3-0.8,3.5s-0.4,2.5-0.5,3.8
			c-0.3,4.5,0,9,1.1,13.3c0.4,1.7,0.9,3,1.2,3.9C75.8,273.8,76,274.3,76.1,274.8z"/>
		<path class="st7" d="M81.2,251.6v0.3c0,0.2,0,0.4,0,0.7c0,0.7,0.1,1.6,0.1,2.7c0.1,2.4,0.2,5.7,0.3,9.6l-0.1-0.2l6.9,2.8h-0.2
			l5.6-3.4l0.4-0.2l-0.1,0.2c0.4-4.6,0.8-8.8,1.2-12.5l0.2,0.2l-10.3-0.1l-2.9-0.1h-0.8L81.2,251.6c0.3,0,0.6,0,1,0l2.9-0.1
			l10.4-0.1h0.2v0.2c-0.3,3.7-0.7,8-1.1,12.5v0.1l-0.1,0.1l-0.4,0.2l-5.6,3.4l-0.1,0.1h-0.1l-6.9-2.9h-0.1V265
			c-0.1-4-0.1-7.3-0.1-9.7c0-1.1,0-2,0-2.7C81.2,252.2,81.2,251.9,81.2,251.6z"/>
		<path class="st7" d="M55.3,248c0,0,0,0.3-0.1,0.9c-0.1,0.6-0.2,1.5-0.4,2.5c-0.4,2.2-0.8,5.2-1.4,8.9l-0.1-0.2l5.2,3.9h-0.2
			l6.3-1.8l0.3-0.1l-0.2,0.2c1.2-4.2,2.4-8,3.3-11.4l0.1,0.2l-9.4-2.2l-2.7-0.7C55.6,248.1,55.3,248,55.3,248c0.3,0,0.6,0.1,0.9,0.2
			l2.6,0.6l9.5,2.1l0.2,0.1l-0.1,0.2l-3.3,11.4v0.1H65l-0.3,0.1l-6.3,1.8h-0.1l-0.1-0.1l-5.2-3.8l-0.1-0.1v-0.1
			c0.7-3.7,1.2-6.8,1.7-9c0.2-1,0.4-1.9,0.5-2.5C55.1,248.5,55.2,248.2,55.3,248z"/>
		<path class="st7" d="M91.5,272.1c-2.5,0.8-5.1,1.4-7.6,1.9c-2.5,0.6-5.1,1.1-7.7,1.5c2.5-0.8,5.1-1.4,7.6-1.9
			C86.3,273,88.9,272.5,91.5,272.1z"/>
		<path class="st7" d="M69.2,272.7c-0.6,0.1-1.3,0.1-2,0c-1.6-0.1-3.1-0.4-4.7-0.7c-1.5-0.3-3-0.8-4.5-1.4c-0.6-0.2-1.2-0.5-1.8-0.8
			c0.6,0.1,1.3,0.3,1.9,0.6c1.1,0.4,2.7,0.8,4.5,1.2c1.8,0.4,3.4,0.7,4.6,0.8C67.9,272.5,68.6,272.6,69.2,272.7z"/>
		<path class="st3" d="M67.2,128.8c0.6,1.8-1.5,3.3-3.3,3.7s-4.1,0.7-4.9,2.4c-0.7,1.5,0,3.3-0.7,4.8c-1.3,2.8-6.4,2.3-7.4,5.2
			c-0.7,2.1,1.2,4.1,0.9,6.2c-0.2,1.8-1.9,3.1-3.3,4.2s-3,2.6-2.8,4.5c0.3,2.1,2.9,3.6,2.6,5.7c-0.2,2.1-3,3.1-3.4,5.1
			c-0.5,2.4,2.6,4,3.6,6.3c0.8,1.7,0.3,4,1.6,5.4s3.6,1.2,5.5,0.8l19-4c-1.3-3-0.1-6.5,1.8-9.2c1.8-2.7,4.3-5,5.8-7.8
			c1.6-2.8,2.1-6.7,0-9.2"/>
		<path class="st3" d="M100.6,144c-0.1-1-0.3-2-0.6-3c-0.1-0.5-0.4-0.9-0.8-1.2c-0.4-0.4-0.8-0.1-1.2,0.4c-1.1,2.4-1.1,5.3,0,7.7
			c0.3,0.5,0.8,0.7,1.2,0.4c0.3-0.3,0.6-0.8,0.8-1.2C100.3,146,100.5,145,100.6,144c0.1,0.3,0.1,0.6,0.1,0.8c0,0.8-0.1,1.5-0.4,2.3
			c-0.2,0.5-0.4,1-0.8,1.4c-0.3,0.3-0.7,0.3-1,0.2s-0.6-0.4-0.8-0.7c-1.3-2.6-1.3-5.6,0-8.2c0.2-0.3,0.5-0.5,0.8-0.7
			c0.4-0.1,0.7,0,1,0.2c0.4,0.4,0.7,0.9,0.8,1.4c0.2,0.7,0.3,1.5,0.4,2.3C100.7,143.4,100.7,143.7,100.6,144z"/>
		<path class="st3" d="M69.6,161.5c-3.4-5.8-4.4-13.5-5.3-20.2c-0.4-3.2-1.1-7.6,1.1-9.6c2.4-2.1,2.6-5.4,5.3-7
			c2.7-1.6,6.4-1.8,9,0.1"/>
		<path class="st11" d="M79.1,182L79.1,182c5.1,0.4,9.6-3.4,10-8.6c0-0.1,0-0.2,0-0.3c0.2-5.1,0.4-10.2,0.4-10.2s7.7-0.7,8.3-8.3
			s0.4-25.2,0.4-25.2l0,0c-8.6-4.3-18.8-3.7-26.8,1.7l0.4,26.8v14.4C71.9,177.1,74.4,181.7,79.1,182z"/>
		<path class="st3" d="M90.3,145.3c-1.3-1.6-3.4-2.3-5.2-1.1c-1.8,1.2-2.4,3.6-1.5,5.5c0.8,1.4,2.1,2.4,3.7,2.8
			c1.4,0.3,2.4,1.7,2.3,3.2c-0.2,1.9-3.4,2.6-4.8,4.2c-2.2,2.5-7.1,3.5-10.4,3.9s-2.9,0.4-4.7-2.3c-1.3-1.8-1.9-4-1.8-6.2
			c-0.1-5.6-0.2-11.2-0.3-16.8c-0.1-2,0-4,0.4-6s1.5-3.8,3.2-5c1.9-1.2,4.2-1.3,6.3-2c2.6-0.8,4.9-2.6,7.3-3.8c2.5-1.3,5.5-2,8-0.8
			c1.8,0.9,3,2.7,4.7,3.7c2.5,1.4,5.8,1.1,7,4.7c0.4,1.3,0.4,2.6-0.1,3.9c-1.7,4.9-7.8,6.9-12.2,4.7c-0.1,0.8,0.7,2.7-0.2,5.3
			C91.7,144,91.6,145.3,90.3,145.3"/>
		<path class="st13" d="M88.9,150.1c0,0,0,0.1-0.1,0.3c-0.2,0.3-0.5,0.4-0.8,0.4c-1.1-0.1-2-1-2-2.1c0-0.6,0.2-1.2,0.6-1.6
			c0.3-0.3,0.7-0.6,1.2-0.7c0.8-0.2,1.2,0.1,1.2,0.2s-0.5,0-1.1,0.2c-0.8,0.3-1.4,1-1.3,1.9c0,0.8,0.6,1.6,1.4,1.7
			C88.6,150.5,88.9,150,88.9,150.1z"/>
		<path class="st3" d="M100.6,143.7c-1.7,0.5-3.4,0.9-5.1,1.1c-1.7,0.4-3.5,0.6-5.2,0.6c0-0.1,2.3-0.6,5.1-1.1
			C97.1,143.9,98.9,143.7,100.6,143.7z"/>
		<path class="st3" d="M70.2,168.9c0.5,0.9,1.6,1.4,2.6,1.1c1-0.4,1.9-1,2.6-1.7c0.7-0.8,1.5-1.4,2.5-1.8c2-0.6,4.5,0.7,6.2-0.5
			c1.6-1.1,1.4-3.7,2.9-4.9c0.8-0.6,1.9-0.7,2.8-1.3c1.5-1.1,1.3-3.7,0-5.1c-1.3-1.4-3.2-2-5.1-2.5l-16.3,7L70.2,168.9z"/>
		<path class="st7" d="M89.6,139.4c0,0,0,0-0.1,0.1s-0.3,0.2-0.4,0.2c-0.6,0.3-1.2,0.5-1.8,0.6c-1,0.2-2,0.4-3,0.5
			c-1.3,0.1-2.6,0.3-3.9,0.5c-1.5,0.3-3,1.1-4,2.2c-1.1,1.3-1.5,3.1-2.4,4.9c-0.4,0.9-1.1,1.8-1.9,2.4c-0.9,0.6-1.8,1.1-2.8,1.4
			c-2,0.7-4.2,1.1-5.9,2.5c-0.8,0.7-1.4,1.6-1.5,2.7c-0.1,1.1-0.1,2.1,0,3.2c0.1,1.1-0.1,2.2-0.6,3.1c-0.5,0.9-1.3,1.6-2.2,2.1
			c-1.7,1-3.5,1.5-4.9,2.5c-0.7,0.4-1.3,1-1.8,1.6c-0.4,0.6-0.6,1.3-0.7,2.1c0,1.3,0.2,2.6,0.5,3.9c0.2,1,0.3,2,0.3,3
			c0,0.6-0.2,1.3-0.5,1.8c-0.1,0.2-0.3,0.4-0.4,0.5c0.5-0.7,0.7-1.5,0.8-2.4c0-1-0.1-2-0.4-2.9c-0.4-1.3-0.6-2.6-0.6-3.9
			c0-0.8,0.3-1.6,0.7-2.3c0.5-0.7,1.1-1.3,1.9-1.8c1.5-1,3.3-1.5,4.9-2.5c1.8-0.9,2.8-2.9,2.6-4.9c-0.1-1.1-0.1-2.2,0-3.3
			c0.2-1.2,0.8-2.2,1.7-3c1.8-1.5,4.1-1.9,6.1-2.6c1-0.3,1.9-0.7,2.7-1.3c0.8-0.6,1.4-1.4,1.8-2.2c0.8-1.7,1.3-3.6,2.5-5
			c1.1-1.2,2.6-2,4.3-2.3c1.3-0.3,2.6-0.4,4-0.5c1-0.1,2-0.2,3-0.4C88.1,140,88.9,139.7,89.6,139.4z"/>
		<path class="st7" d="M85.2,142.1c0,0.1-0.6,0-1.6,0.2c-1.4,0.3-2.7,1.1-3.7,2.2c-0.7,0.7-1.2,1.6-1.5,2.6
			c-0.3,1.1-0.4,2.3-0.3,3.4c0.1,1.3-0.1,2.7-0.6,3.9c-0.3,0.7-0.8,1.2-1.4,1.6c-0.6,0.4-1.2,0.7-1.8,1c-0.6,0.3-1.2,0.7-1.6,1.2
			s-0.6,1.1-0.6,1.8c-0.1,1.3,0.2,2.7-0.4,3.9c-0.6,1.1-1.5,1.9-2.5,2.5s-1.9,1-2.7,1.5c-0.7,0.4-1.4,0.9-1.9,1.6
			c-0.4,0.5-0.7,1.1-0.8,1.7c-0.1,0.5-0.1,1.1,0,1.6c-0.1-0.1-0.1-0.3-0.2-0.4c-0.1-0.4-0.1-0.8-0.1-1.2c0.1-0.6,0.4-1.3,0.8-1.8
			c0.5-0.7,1.2-1.2,1.9-1.7c0.8-0.5,1.7-1,2.6-1.5c1-0.6,1.8-1.4,2.3-2.4c0.5-1.1,0.3-2.4,0.4-3.7c0-0.7,0.3-1.5,0.7-2
			c0.5-0.5,1.1-1,1.8-1.3c1.3-0.6,2.6-1.2,3.1-2.4c0.4-1.2,0.6-2.4,0.5-3.7c-0.1-1.2,0.1-2.4,0.4-3.5c0.3-1,0.9-1.9,1.6-2.7
			c1-1.1,2.4-1.9,3.9-2.1c0.4-0.1,0.8-0.1,1.2-0.1C84.9,142.1,85.1,142.1,85.2,142.1z"/>
		<polyline class="st5" points="91.4,170.1 89.5,166 72.3,165.3 69.6,170.6 91.2,170.6 		"/>
		<path class="st7" d="M150.5,206.8c-0.1-0.6,4.5-24.9,5.8-31.5c0.1-0.8-0.4-1.5-1.1-1.6c-0.1,0-0.2,0-0.3,0h-34.4
			c-0.7,0-1.2,0.4-1.4,1.1l-7,29.7l-17.4,1.3l0.6,1.1L150.5,206.8z"/>
		<polygon class="st0" points="149,204.6 154.5,175.2 120.7,175.4 113.3,204.7 		"/>
		<path class="st3" d="M113.3,204.7L113.3,204.7l7.4-29.3l0,0l33.8-0.2l0,0l-5.6,29.4l0,0L113.3,204.7z M120.7,175.5l-7.4,29.2h35.6
			l5.6-29.4L120.7,175.5z"/>
		<path class="st3" d="M148.9,204.8c0,0.1-9.9,0.2-22.1,0.2s-22.1-0.1-22.1-0.2s9.9-0.2,22.1-0.2S148.9,204.7,148.9,204.8z"/>
		<path class="st7" d="M146.6,197.4c-0.1,0-0.3,0-0.4,0h-1.3l-4.7,0.1c-3.9,0-9.4,0.1-15.4,0.1h-5.2l0.1-0.3c1.2-4.6,2.2-8.7,3-11.7
			c0.4-1.4,0.7-2.5,0.9-3.4c0.1-0.4,0.2-0.8,0.4-1.2c0,0.4-0.1,0.8-0.2,1.3c-0.2,0.8-0.5,2-0.8,3.4c-0.7,3-1.7,7-2.9,11.7l-0.2-0.3
			h4.9c6,0,11.4,0,15.4,0.1l4.7,0.1h1.3C146.3,197.3,146.5,197.3,146.6,197.4z"/>
		<polygon class="st5" points="122.1,196.3 122.7,193.5 127.1,193.5 126.5,196.3 		"/>
		<polygon class="st5" points="128,196.3 129.3,190.7 133.7,190.7 132.5,196.3 		"/>
		<polygon class="st5" points="134,196.3 134.6,193.5 138.9,193.5 138.4,196.3 		"/>
		<polygon class="st5" points="139.9,196.3 142.4,185.5 146.7,185.5 144.3,196.3 		"/>
		<path class="st7" d="M125.5,199.5c-0.6,0.2-1.2,0.3-1.8,0.2c-1,0-1.8-0.1-1.8-0.2C123.2,199.2,124.4,199.2,125.5,199.5
			L125.5,199.5z"/>
		<path class="st7" d="M131.3,199.5c-0.6,0.2-1.2,0.3-1.8,0.2c-0.6,0.1-1.2,0-1.8-0.2c0.6-0.2,1.2-0.3,1.8-0.2
			C130.1,199.2,130.7,199.2,131.3,199.5z"/>
		<path class="st7" d="M137,199.5c-0.6,0.2-1.2,0.3-1.8,0.2c-0.6,0.1-1.2,0-1.8-0.2c0.6-0.2,1.2-0.3,1.8-0.2
			C135.8,199.2,136.4,199.2,137,199.5z"/>
		<path class="st7" d="M142.8,199.4c-1.2,0.3-2.4,0.3-3.5,0C140.4,199.2,141.6,199.2,142.8,199.4z"/>
		<path class="st7" d="M134.3,179.8c-1.6,0.2-3.2,0.3-4.9,0.2c-1.6,0.1-3.3,0-4.9-0.2c1.6-0.2,3.2-0.3,4.9-0.2
			C131.1,179.6,132.7,179.6,134.3,179.8z"/>
		<path class="st7" d="M129.2,178.6c-1.4,0.3-2.9,0.3-4.3,0C126.3,178.3,127.8,178.3,129.2,178.6z"/>
		<path class="st5" d="M119.9,224.7l19.9-14.4l-0.7-1.2c-1.1-1.8-2.7-3.1-4.7-3.9l-3.1,0.6l-18.5,2.8L119.9,224.7z"/>
		<polygon class="st5" points="49.1,221.4 65.6,214.8 61.9,201.1 48.5,205.7 		"/>
		<path class="st5" d="M119.2,225.1c4.1-2,5.2-7,3.2-11.1l-17.1-36.6c-0.4-0.9-1-1.7-1.7-2.4c-3.9-3.5-9-5.2-14.2-4.9l-17.9-0.5
			c0,0-14,0-19.3,11.1c-0.4,0.8-8.5,17-13.9,27.7c-2.3,4.5-0.5,10.1,4.1,12.4c0.3,0.2,0.6,0.3,1,0.4l0,0c4.5,1.7,9.6-0.4,11.6-4.9
			l5.8-13l3.6,18.7l-5.3,15.4l44.3,0.6l-3.4-20.6l-1.1-14.7l9,18.6c2,4.2,7,5.9,11.1,3.9C119.1,225.1,119.1,225.1,119.2,225.1
			L119.2,225.1z"/>
		<g class="st14">
			<path d="M65.9,221.6c3.3,2.5,8.3,1.7,12.4,1c4.2-0.6,8-2.7,10.8-5.8c1.3-1.4,2-3.2,2-5.1c-0.2-1.9-1.8-3.7-3.7-3.5
				c-2.1,0.3-3.2,2.7-4.2,4.6c-3.5,6.1-10.4,9.3-17.3,8.1C66,220.8,65.3,221.1,65.9,221.6z"/>
		</g>
		<g class="st14">
			<path d="M93.2,192.8c1,8.4,0.6,7.8,2.3,16.1c0.8,4.1,1.9,8.3,4.7,11.4l-1.4-17.6L93.2,192.8z"/>
		</g>
		<polygon class="st5" points="59.1,237.3 57.8,233.6 61.1,231.4 101.8,228.1 104.6,233.5 103.4,237.9 		"/>
		<path class="st3" d="M67.5,167.6c-3.1,1.2-4.7,4.7-3.5,7.8c0.2,0.4,0.4,0.8,0.6,1.2c0.4,0.5,0.7,1,0.8,1.7
			c-0.1,1.5-2.5,1.5-3.3,2.8c-0.4,0.9-0.1,2.1,0.7,2.7c0.8,0.6,1.6,1.2,2.5,1.7s1.5,1.4,1.5,2.4c0.8,0,1.4-1.1,1.2-1.9
			c-0.2-0.8-0.6-1.6-1-2.3c-0.5-0.7-0.5-1.6-0.1-2.4c0.6-0.8,1.7-0.8,2.6-1.2c1.8-0.8,2.6-2.8,1.9-4.6c-0.6-1.2-1.8-2.5-1.2-3.6
			c0.3-0.7,1.1-0.9,1.8-1.3c2.2-1.2,3.1-4.1,1.8-6.3c-0.3-0.6-0.7-1-1.2-1.4"/>
		<path class="st5" d="M60.6,205.1c-0.2,0.7-0.5,1.4-0.9,2.1c-0.6,1.3-1.5,3-2.6,4.8s-2.2,3.4-3,4.6c-0.4,0.6-0.9,1.2-1.4,1.8
			c0.3-0.7,0.7-1.3,1.1-2c0.7-1.2,1.8-2.8,2.8-4.6c1.1-1.8,2-3.5,2.7-4.7C59.8,206.3,60.1,205.7,60.6,205.1z"/>
		<path class="st3" d="M56.7,212.1c0.3,2.1-0.4,4.2-1.8,5.7c-0.1-0.1,0.6-1.2,1.1-2.8S56.6,212.1,56.7,212.1z"/>
		<path class="st3" d="M121.6,212.6c-0.1,0.1-3.6-7.2-7.7-16.2c-4.2-9-7.5-16.3-7.3-16.4c0.1-0.1,3.6,7.2,7.7,16.2
			C118.4,205.3,121.7,212.6,121.6,212.6z"/>
		<path class="st3" d="M100.5,175.2c0,0.1-0.8,0.3-1.9,1c-2.9,1.8-4.9,4.8-5.4,8.2c-0.2,1.3-0.1,2.1-0.2,2.1
			c-0.2-0.7-0.2-1.4-0.1-2.2c0.3-3.5,2.4-6.7,5.5-8.4C99.1,175.6,99.8,175.4,100.5,175.2z"/>
		<path class="st3" d="M64.4,222.1c-0.1,0-2.1-8.5-4.5-19c-2.3-10.5-4.2-19-4-19.1c0.1,0,2.1,8.5,4.5,19
			C62.7,213.5,64.5,222.1,64.4,222.1z"/>
		<polyline class="st11" points="139.8,210.3 147.8,206.8 137.1,206.8 139.4,209.8 		"/>
		<path class="st3" d="M123.2,211.2c-0.7-0.6-1.4-1.2-2-1.8c-0.7-0.6-1.3-1.2-1.9-1.9c0.8,0.4,1.6,0.9,2.2,1.6
			C122.2,209.6,122.8,210.3,123.2,211.2z"/>
		<path class="st3" d="M108.3,221.9c-0.3-0.4-0.5-0.7-0.7-1.1c-0.4-0.7-1-1.8-1.7-3.1c-1.4-2.7-3.3-6.4-5.3-10.5s-3.9-7.9-5.3-10.5
			c-0.7-1.3-1.2-2.4-1.7-3.2c-0.2-0.4-0.4-0.8-0.6-1.2c0.3,0.3,0.5,0.7,0.7,1.1c0.4,0.7,1,1.8,1.8,3.1c1.5,2.6,3.4,6.3,5.4,10.5
			c2,4.1,3.8,7.8,5.2,10.6l1.6,3.2C108,221.1,108.1,221.5,108.3,221.9z"/>
		<path class="st3" d="M92.3,210.6c0,0,0,0.1,0,0.3c0,0.3-0.1,0.6-0.1,0.8c-0.2,1-0.6,2-1.1,2.9c-1.7,3-4.4,5.3-7.5,6.7
			c-3.1,1.3-6.4,2.1-9.8,2.4c-1.3,0.1-2.3,0.2-3,0.3c-0.4,0-0.7,0-1.1,0c0.4-0.1,0.7-0.2,1.1-0.2l3-0.4c3.3-0.4,6.6-1.2,9.6-2.5
			s5.6-3.6,7.4-6.4C91.4,213.2,92,211.9,92.3,210.6z"/>
		<path class="st3" d="M83.4,232.1c0,0.1-5.5,0.6-12.3,1.1s-12.3,0.8-12.3,0.6s5.5-0.6,12.3-1.1C77.9,232.3,83.4,231.9,83.4,232.1z"
			/>
		<path class="st3" d="M90.5,228.8c0.9,2.7,1.2,5.6,0.9,8.4c-0.1,0-0.2-1.9-0.4-4.2C90.7,230.7,90.4,228.8,90.5,228.8z"/>
		<path class="st3" d="M93.3,226.1c0.2,0.5,0.3,1.1,0.4,1.7c0.3,2.8,0.2,5.6-0.6,8.2c-0.1,0.6-0.3,1.1-0.6,1.6
			c-0.1,0,0.7-2.5,0.8-5.7C93.5,228.7,93.2,226.1,93.3,226.1z"/>
		<path class="st3" d="M91.5,170.4c-3,0.1-5.9,0-8.9-0.3c-4.9-0.3-8.8-0.6-8.8-0.7c0-0.1,4,0,8.9,0.3
			C87.5,169.9,91.5,170.2,91.5,170.4z"/>
	</g>
	<g id="freepik--Chart--inject-9">
		<path class="st3" d="M172.3,313.7c-0.2,0-0.5,0.1-0.7,0.1h-2l-7.5,0.1l-24.6,0.1h-2v-0.2c0-9.2,0.1-17.5,0.1-23.5
			c0-2.9,0.1-5.3,0.1-7c0-0.8,0-1.4,0-1.9c0-0.2,0-0.4,0.1-0.7c0,0.2,0,0.4,0,0.7c0,0.5,0,1.1,0,1.9c0,1.7,0,4.1,0.1,7
			c0,6,0,14.3,0.1,23.5l-0.2-0.2h1.8l24.6,0.1l7.5,0.1l2,0.1C171.8,313.7,172.1,313.7,172.3,313.7z"/>
		<path class="st3" d="M168.2,288.7c-0.3,0.4-0.7,0.7-1.1,1l-3.1,2.7c-2.6,2.3-6.3,5.4-10.3,8.8l-0.6,0.5l-0.2,0.1l-0.2-0.1
			l-4.6-4.3h0.3l-6.7,5.6l-2,1.6c-0.2,0.2-0.5,0.4-0.7,0.5c0.2-0.2,0.4-0.4,0.6-0.6l1.9-1.7l6.6-5.7l0.1-0.1l0.1,0.1l4.6,4.2h-0.3
			l0.6-0.5c4-3.4,7.7-6.5,10.4-8.7l3.2-2.6C167.4,289.2,167.8,288.9,168.2,288.7z"/>
		<path class="st3" d="M168.2,296.3c-0.1-0.8-0.2-1.5-0.2-2.3c0-1.4-0.1-3.3-0.1-5.6l0.2,0.2h-0.4c-2.3,0-4.3,0-5.8-0.1
			c-0.8,0-1.6,0-2.4-0.2c0.8-0.1,1.6-0.2,2.4-0.2c1.5-0.1,3.6-0.1,5.8-0.1h0.6v0.2c0,2.2,0,4.2-0.1,5.6
			C168.4,294.8,168.4,295.6,168.2,296.3z"/>
	</g>
	<g id="freepik--Gears--inject-9">
		<path class="st5" d="M27,245.8c1.1,0.2,2.3,0.5,3.3,0.9l2.5-2.1l4.3,3.2l-1.3,2.9c0.7,0.9,1.3,1.9,1.8,3l3.2,0.3l0.7,5.3l-3,1.1
			c-0.1,1.1-0.4,2.3-0.9,3.3l2.1,2.5l-3.2,4.3l-2.9-1.3c-0.9,0.7-1.9,1.3-3,1.8l-0.3,3.2l-5.3,0.7l-1.1-3c-1.1-0.2-2.3-0.5-3.3-0.9
			l-2.5,2.1l-4.3-3.2l1.3-2.9c-0.7-0.9-1.3-1.9-1.8-3l-3.2-0.3l-0.7-5.3l3-1.1c0.1-1.2,0.4-2.3,0.9-3.4l-2.1-2.5l3.2-4.3l2.9,1.3
			c0.9-0.7,1.9-1.3,3-1.8l0.3-3.2l5.3-0.7L27,245.8L27,245.8z M24.8,253.1c-3.1,0.4-5.3,3.3-4.9,6.5c0.4,3.1,3.3,5.3,6.5,4.9
			c3.1-0.4,5.3-3.3,4.9-6.5C30.9,254.9,28,252.7,24.8,253.1L24.8,253.1z"/>
		<path class="st15" d="M24.8,253.1c0.1,0,0.2-0.1,0.4-0.1c0.4,0,0.7,0,1.1,0c1.3,0.1,2.6,0.7,3.5,1.6c2.3,2.3,2.4,6,0.1,8.4
			l-0.1,0.1c-1.9,1.8-4.7,2.2-7,1c-2.9-1.6-3.9-5.2-2.3-8c0,0,0-0.1,0.1-0.1c0.7-1.2,1.7-2,3-2.5c0.3-0.1,0.7-0.2,1-0.3
			C24.6,253.2,24.7,253.2,24.8,253.1c0,0.1-0.5,0.2-1.3,0.5c-1.2,0.5-2.1,1.4-2.7,2.5c-1.5,2.7-0.5,6.1,2.2,7.5
			c2.1,1.1,4.7,0.8,6.4-0.8c0.8-0.8,1.3-1.7,1.6-2.8c0.4-1.8-0.1-3.8-1.5-5.1c-0.9-0.9-2.1-1.5-3.3-1.7
			C25.3,253.1,24.8,253.2,24.8,253.1z"/>
		<path class="st5" d="M27,245.8c0,0,0-0.1-0.1-0.2l-0.2-0.6c-0.2-0.5-0.5-1.3-0.9-2.3l0.1,0.1l-5.3,0.8l0.1-0.1
			c-0.1,1-0.2,2.1-0.3,3.2v0.1h-0.1c-1.1,0.5-2.1,1-3,1.8l-0.1,0.1h-0.1l-2.9-1.3l0.2-0.1l-3.2,4.3v-0.2l2.1,2.5l0.1,0.1v0.1
			c-0.4,1.1-0.7,2.2-0.9,3.3v0.1h-0.1l-3,1.1l0.1-0.2c0.2,1.7,0.5,3.5,0.7,5.3l-0.2-0.2l3.2,0.3h0.1l0.1,0.1c0.4,1.1,1,2,1.7,3
			l0.1,0.1l-0.1,0.1c-0.4,0.9-0.8,1.9-1.3,2.9l-0.1-0.3l4.3,3.2h-0.3l2.5-2.1l0.1-0.1l0.1,0.1c1.1,0.4,2.2,0.7,3.3,0.8l0,0
			c0.1,0.1-0.2-0.1,0.2,0.2l0,0l0,0l0,0v0.1l0.1,0.2l0.1,0.4l0.3,0.8c0.2,0.5,0.4,1,0.6,1.5l-0.3-0.2l5.3-0.7l-0.2,0.2
			c0.1-1.1,0.2-2.2,0.3-3.2v-0.1l0.1-0.1c1.1-0.4,2.1-1,3-1.7l0.1-0.1l0.1,0.1l2.9,1.3l-0.3,0.1l3.2-4.3v0.3l-2.1-2.5l-0.1-0.1
			l0.1-0.1c0.4-1.1,0.7-2.2,0.9-3.3v-0.1h0.1l3-1.1l-0.1,0.2c-0.2-1.9-0.5-3.6-0.7-5.3l0.2,0.2l-3.2-0.3h-0.1v-0.1
			c-0.4-1.1-1-2.1-1.7-3l-0.1-0.1v-0.1l1.4-2.9v0.2l-4.2-3.3h0.1l-2.5,2.1l0,0l0,0c-0.8-0.3-1.6-0.6-2.5-0.8l-0.6-0.1
			C27.1,245.7,27.1,245.7,27,245.8l0.3-0.1c0.1,0,0.4,0,0.6,0.1c0.9,0.2,1.7,0.4,2.5,0.7h-0.1l2.5-2.1l0.1-0.1l0.1,0.1l4.3,3.2
			l0.1,0.1l-0.1,0.1l-1.3,2.9v-0.2c0.7,0.9,1.3,1.9,1.8,3l-0.1-0.1l3.2,0.3H41v0.1c0.2,1.7,0.5,3.4,0.7,5.3v0.2l-0.2,0.1l-3,1.1
			l0.1-0.2c-0.1,1.2-0.4,2.3-0.9,3.4v-0.2c0.7,0.8,1.4,1.7,2.1,2.5l0.1,0.1l-0.1,0.1l-3.2,4.3l-0.1,0.1l-0.2-0.1l-2.9-1.3h0.2
			c-0.9,0.7-2,1.3-3.1,1.8l0.1-0.2c-0.1,1.1-0.2,2.1-0.3,3.2v0.2h-0.2l-5.3,0.7h-0.2l-0.1-0.2c-0.2-0.5-0.4-1-0.6-1.5l-0.3-0.8
			l-0.1-0.4l-0.1-0.2v-0.1v0.3l0,0l0,0c0.4,0.3,0.1,0.1,0.2,0.1l0,0c-1.2-0.1-2.3-0.5-3.4-0.9h0.2l-2.5,2.1l-0.1,0.1l-0.2-0.1
			l-4.3-3.2l-0.1-0.1l0.1-0.2c0.5-1,0.9-2,1.3-2.9v0.2c-0.7-0.9-1.3-2-1.8-3.1l0.2,0.1l-3.2-0.3h0.1v-0.2c-0.2-1.8-0.5-3.6-0.7-5.3
			v-0.2l0.2-0.1l3-1.1l-0.1,0.2c0.1-1.2,0.5-2.3,0.9-3.4v0.2c-0.7-0.8-1.4-1.7-2.1-2.5l-0.1-0.1l0.1-0.1l3.3-4.2l0.1-0.1l0.1,0.1
			l2.9,1.4h-0.2c0.9-0.7,2-1.3,3.1-1.8l-0.1,0.1c0.1-1.2,0.2-2.2,0.3-3.2v-0.1h0.1l5.3-0.7l0,0v0.1c0.4,1,0.6,1.7,0.8,2.3
			C26.9,245.3,27,245.5,27,245.8C27,245.6,27,245.7,27,245.8z"/>
		<path class="st16" d="M17.2,281.6c0.7,0.1,1.4,0.3,2.1,0.6l1.6-1.3l2.7,2l-0.8,1.8c0.4,0.6,0.8,1.2,1.1,1.9l2,0.2l0.5,3.3
			l-1.9,0.7c-0.1,0.7-0.3,1.4-0.6,2.1l1.3,1.6l-2,2.7l-1.8-0.8c-0.6,0.4-1.2,0.8-1.9,1.1l-0.2,2L16,300l-0.7-1.9
			c-0.7-0.1-1.4-0.3-2.1-0.6l-1.6,1.3l-2.7-2l0.8-1.9c-0.4-0.6-0.8-1.2-1.1-1.9l-2-0.2L6,289.5l1.9-0.7c0.1-0.7,0.3-1.4,0.6-2.1
			l-1.3-1.6l2-2.7l1.8,0.8c0.6-0.4,1.2-0.8,1.9-1.1l0.2-2l3.3-0.5L17.2,281.6L17.2,281.6z M15.8,286.2c-2,0.3-3.4,2.1-3.1,4.1
			c0.3,2,2.1,3.4,4.1,3.1s3.4-2.1,3.1-4.1l0,0C19.6,287.3,17.8,285.9,15.8,286.2z"/>
		<path class="st3" d="M15.8,286.2l0.2-0.1c0.2,0,0.4,0,0.7,0c0.8,0.1,1.6,0.4,2.2,1c1.5,1.4,1.5,3.8,0,5.3c-1.2,1.2-3,1.4-4.4,0.6
			c-0.7-0.4-1.2-0.9-1.5-1.6c-0.6-1.1-0.5-2.5,0.1-3.6c0.4-0.7,1.1-1.3,1.9-1.6c0.2-0.1,0.4-0.1,0.6-0.2L15.8,286.2
			c0,0-0.3,0.1-0.8,0.3c-0.7,0.3-1.3,0.9-1.7,1.6c-0.6,1-0.6,2.3,0,3.3c0.3,0.6,0.8,1.1,1.4,1.4c1.3,0.7,3,0.5,4.1-0.6
			c0.5-0.5,0.8-1.1,1-1.8c0.3-1.2-0.1-2.4-0.9-3.2c-0.6-0.6-1.3-0.9-2.1-1.1C16.1,286.2,15.8,286.2,15.8,286.2z"/>
		<path class="st3" d="M17.2,281.6l-0.1-0.1l-0.2-0.4c-0.1-0.3-0.3-0.8-0.6-1.4l0,0l-3.3,0.5l0.1-0.1c-0.1,0.6-0.1,1.3-0.2,2v0.1H13
			c-0.7,0.3-1.3,0.7-1.9,1.1l0,0H11l-1.9-0.8h0.1l-2.1,2.7V285l1.3,1.6l0.1,0.1v0.1c-0.3,0.7-0.5,1.4-0.6,2.1v0.1H8l-1.9,0.7
			l0.1-0.1c0.1,1,0.3,2.2,0.5,3.3l-0.1-0.1l2,0.2h0.1v0.1c0.3,0.7,0.6,1.3,1.1,1.9l0.1,0.1v0.1l-0.8,1.9v-0.2l2.7,2h-0.3
			c0.5-0.4,1-0.8,1.6-1.3l0.1-0.1H13c0.7,0.3,1.4,0.5,2.1,0.6l0,0l0.1,0.1l0,0l0,0v0.1v0.1l0.1,0.2l0.2,0.5c0.1,0.3,0.2,0.6,0.4,0.9
			l-0.2-0.1l3.3-0.5l-0.1,0.1c0.1-0.7,0.1-1.4,0.2-2v-0.1h0.1c0.7-0.3,1.3-0.6,1.9-1.1l0.1-0.1h0.1L23,297l-0.2,0.1
			c0.7-0.9,1.4-1.8,2-2.7v0.2l-1.3-1.6l-0.1-0.1v-0.1c0.3-0.7,0.5-1.4,0.6-2.1v-0.1h0.1l1.9-0.7l-0.1,0.1c-0.2-1.2-0.3-2.3-0.4-3.3
			l0.1,0.1l-2-0.2h-0.1v-0.1c-0.3-0.7-0.6-1.3-1.1-1.9l0,0v-0.1c0.3-0.7,0.6-1.3,0.8-1.8v0.1l-2.7-2.1h0.1L19,282l0,0l0,0
			c-0.5-0.2-1-0.4-1.6-0.5L17.2,281.6L17.2,281.6L17.2,281.6h0.5c0.5,0.1,1.1,0.2,1.6,0.5h-0.1l1.5-1.3l0,0l0,0l2.7,2h0.1v0.1
			c-0.3,0.6-0.5,1.2-0.8,1.9v-0.1c0.5,0.6,0.8,1.2,1.1,1.9l-0.1-0.1l2,0.2h0.1v0.1c0.1,1.1,0.3,2.2,0.5,3.3v0.1h-0.1l-1.9,0.7
			l0.1-0.1c-0.1,0.7-0.3,1.5-0.6,2.2v-0.1l1.3,1.6l0.1,0.1l-0.1,0.1l-2,2.7l-0.1,0.1h-0.1l-1.8-0.8h0.1c-0.6,0.5-1.2,0.8-1.9,1.1
			l0.1-0.1c-0.1,0.7-0.1,1.3-0.2,2v0.1h-0.1l-3.3,0.5h-0.1v-0.1l-0.4-1l-0.2-0.5l-0.1-0.2v-0.1V298l0,0l0,0l0.1,0.1l0,0
			c-0.7-0.1-1.5-0.3-2.2-0.6H13l-1.6,1.3l-0.1,0.1l-0.1-0.1l-2.7-2l-0.1-0.1l0.1-0.1l0.8-1.9v0.2c-0.5-0.6-0.8-1.2-1.1-1.9l0.1,0.1
			l-2-0.2h0v-0.1c-0.2-1.2-0.3-2.3-0.4-3.3v-0.1H6l1.9-0.7l-0.1,0.1c0.1-0.7,0.3-1.5,0.6-2.1v0.1l-1.3-1.6L7,285.1l0.1-0.1l2-2.7
			l0.1-0.1h0.1l1.8,0.8H11c0.6-0.5,1.2-0.8,1.9-1.1l-0.1,0.1l0.2-2v0h0.1l3.3-0.4l0,0l0,0l0.5,1.4l0.1,0.4
			C17.1,281.4,17.1,281.5,17.2,281.6z"/>
	</g>
	<g id="freepik--Clock--inject-9">
		<circle class="st4" cx="97" cy="77.9" r="18.1"/>
		<path class="st3" d="M78.9,76.7c0,0.1,0,0.2,0,0.3c0,0.2,0,0.5,0,0.8v0.6c0,0.2,0,0.5,0.1,0.8c0,0.6,0.1,1.3,0.3,1.9
			c0.3,1.7,0.9,3.4,1.8,5c1,2,2.5,3.8,4.2,5.3c2.1,1.8,4.6,3.1,7.3,3.8c3.1,0.8,6.4,0.7,9.5-0.2c0.8-0.2,1.6-0.5,2.4-0.9
			s1.6-0.8,2.3-1.3c0.7-0.5,1.5-1,2.1-1.6c0.7-0.6,1.3-1.3,1.9-1.9c1.2-1.4,2.2-3,2.9-4.8c1.5-3.6,1.8-7.6,0.8-11.3
			c-0.5-1.8-1.2-3.5-2.2-5.1c-0.5-0.8-1-1.5-1.6-2.2s-1.2-1.3-1.9-1.9c-0.7-0.6-1.4-1.1-2.1-1.6c-0.7-0.4-1.5-0.8-2.3-1.2
			c-2.9-1.3-6.2-1.8-9.4-1.4c-5.1,0.6-9.7,3.4-12.7,7.6c-1,1.4-1.8,3-2.3,4.6c-0.2,0.6-0.4,1.2-0.5,1.8c-0.1,0.3-0.1,0.5-0.2,0.8
			c0,0.2-0.1,0.4-0.1,0.6c-0.1,0.4-0.1,0.6-0.1,0.8C79,76.5,79,76.6,78.9,76.7c0-0.1,0-0.2,0-0.3c0-0.2,0.1-0.5,0.1-0.8
			c0-0.2,0-0.4,0.1-0.6s0.1-0.5,0.2-0.8c0.1-0.6,0.3-1.3,0.5-1.9c0.5-1.7,1.3-3.3,2.3-4.7c3-4.3,7.6-7.2,12.8-7.8
			c3.3-0.4,6.6,0.1,9.6,1.4c0.8,0.3,1.6,0.7,2.3,1.2c0.8,0.5,1.5,1,2.2,1.6c1.4,1.2,2.7,2.6,3.6,4.2c1,1.6,1.8,3.4,2.3,5.2
			c1,3.8,0.7,7.9-0.8,11.6c-0.7,1.8-1.7,3.4-3,4.8c-0.6,0.7-1.2,1.4-1.9,2c-0.7,0.6-1.4,1.2-2.2,1.7c-0.7,0.5-1.5,0.9-2.3,1.3
			s-1.6,0.6-2.5,0.9c-8.4,2.4-17.4-1.5-21.4-9.3c-0.8-1.6-1.4-3.3-1.7-5c-0.1-0.6-0.2-1.3-0.2-1.9c0-0.3,0-0.5-0.1-0.8v-0.6
			c0-0.4,0-0.7,0-0.8C78.9,76.9,78.9,76.8,78.9,76.7z"/>
		<path class="st3" d="M105.3,78.5c-0.2,0-0.4,0.1-0.6,0.1h-1.8c-1.5,0-3.6,0-5.9,0h-0.1v-1.2c0-2.6,0-5,0-6.7c0-0.8,0-1.5,0-2
			c0-0.3,0-0.5,0-0.8c0,0.2,0.1,0.5,0.1,0.8c0,0.5,0,1.2,0,2c0,1.7,0,4.1,0,6.7v1.2l-0.1-0.1c2.4,0,4.4,0,5.9,0h1.8
			C104.8,78.4,105,78.4,105.3,78.5z"/>
		<path class="st3" d="M97,62.7c0.1,0.5,0.2,1,0.1,1.5c0,0.5,0,1-0.1,1.5c-0.1-0.5-0.2-1-0.1-1.5C96.8,63.8,96.9,63.2,97,62.7z"/>
		<path class="st3" d="M105.2,65.2c-0.3,0.4-0.6,0.8-1,1.1c-0.3,0.4-0.7,0.7-1.1,1c0.3-0.4,0.6-0.8,1-1.1
			C104.4,65.8,104.8,65.4,105.2,65.2z"/>
		<path class="st3" d="M110.1,70.5c-0.4,0.3-0.8,0.6-1.3,0.8c-0.4,0.3-0.9,0.5-1.3,0.7c0.3-0.4,0.7-0.7,1.2-0.9
			C109.1,70.8,109.6,70.6,110.1,70.5z"/>
		<path class="st3" d="M112.9,78.3c-1.4,0.2-2.8,0.2-4.2,0C110.1,78.1,111.5,78.1,112.9,78.3z"/>
		<path class="st3" d="M84.1,78c-0.6,0.1-1.3,0.2-2,0.1c-0.7,0-1.3,0-2-0.1c0.6-0.1,1.3-0.2,2-0.1C82.8,77.9,83.5,77.9,84.1,78z"/>
		<path class="st3" d="M86.1,83.9c-0.4,0.5-0.9,1-1.5,1.3c-0.5,0.4-1,0.8-1.6,1.2c0.4-0.5,0.9-1,1.5-1.3
			C85,84.6,85.6,84.2,86.1,83.9z"/>
		<path class="st3" d="M91.2,88.4c-0.3,0.6-0.6,1.2-1,1.8c-0.3,0.6-0.7,1.1-1.1,1.7c0.2-0.7,0.5-1.3,0.9-1.8
			C90.3,89.4,90.7,88.8,91.2,88.4z"/>
		<path class="st3" d="M97,94.2c-0.1-0.7-0.2-1.4-0.1-2.1c0-0.7,0-1.4,0.1-2.1c0.1,0.7,0.2,1.4,0.1,2.1C97.2,92.8,97.1,93.5,97,94.2
			z"/>
		<path class="st3" d="M106,91.4c-0.6-0.3-1.2-0.7-1.7-1.1s-1-0.9-1.4-1.5c0.5,0.4,1.1,0.9,1.6,1.3C104.9,90.5,105.5,90.9,106,91.4z
			"/>
		<path class="st3" d="M110.2,86.9c-0.5-0.3-1-0.7-1.4-1.2c-0.5-0.4-0.9-0.9-1.2-1.4c0.5,0.3,1,0.8,1.4,1.2
			C109.4,85.9,109.8,86.4,110.2,86.9z"/>
		<path class="st3" d="M86,72.4c-0.4-0.3-0.9-0.6-1.2-1.1c-0.4-0.4-0.8-0.8-1.1-1.2c0.5,0.3,0.9,0.6,1.2,1.1
			C85.3,71.6,85.7,72,86,72.4z"/>
		<path class="st3" d="M91.1,67c-0.4-0.3-0.8-0.6-1.2-1c-0.4-0.3-0.7-0.7-1-1.2c0.4,0.3,0.8,0.6,1.2,1C90.5,66.1,90.9,66.5,91.1,67z
			"/>
	</g>
</g>
</svg>
