<?xml version="1.0" encoding="utf-8"?>
<!-- Generator: Adobe Illustrator 24.2.3, SVG Export Plug-In . SVG Version: 6.00 Build 0)  -->
<svg version="1.1" id="Calque_1" xmlns="http://www.w3.org/2000/svg" xmlns:xlink="http://www.w3.org/1999/xlink" x="0px" y="0px"
	 viewBox="0 0 500 500" style="enable-background:new 0 0 500 500;" xml:space="preserve">
<style type="text/css">
	.st0{fill:#F5F5F5;}
	.st1{opacity:0.2;}
	.st2{fill:#FFFFFF;}
	.st3{fill:#263238;}
	.st4{fill:#E0E0E0;}
	.st5{fill:none;}
	.st6{fill:#455A64;}
	.st7{fill:#FFBE9D;}
	.st8{fill:#A36957;}
	.st9{fill:#09ACC1;}
	.st10{opacity:0.2;enable-background:new    ;}
	.st11{fill:#FAFAFA;}
	.st12{fill:#EB996E;}
	.st13{fill:#B78876;}
	.st14{fill:#AA6550;}
	.st15{opacity:0.3;}
	.st16{opacity:0.4;}
</style>
<g id="freepik--light-bulb--inject-8">
	<path class="st0" d="M189.4,47.5c-37.8-2.5-70.5,26-73.1,63.8c-0.7,11.1,1.2,22.2,5.7,32.4c8,18,23.4,32,30.2,50.6
		c4.6,12.6,5,26.6,9.8,39.2c9.8,25.9,39.8,42.4,66.9,36.8c16.3-3.3,30.9-13.5,47.5-14.6c17.8-1.1,38.1,7.9,52.2-3
		c9.9-7.7,11.5-22.3,8-34.3c-3.6-11.9-11.3-22.1-17.6-32.9s-11.5-23.2-9.1-35.4c2.1-11.1,10-20.1,14.9-30.3
		c14.7-30.1,2.1-66.4-28-81.1c-9.6-4.7-20.2-6.7-30.9-6c-14.2,1-27.4,6.9-41.1,10.8S204.6,48,189.4,47.5"/>
	<g class="st1">
		<path class="st2" d="M204.2,155.9c-0.5,0.5-1.7,0.4-3.5-0.5c-2.4-1.4-4.5-3.2-6.2-5.5c-2.5-3.3-4.4-7.1-5.4-11.1
			c-2.7-10.3-0.4-21.2,6.4-29.4c2.6-3.2,5.9-5.9,9.6-7.8c2.4-1.3,5.1-2.1,7.9-2.4c2-0.1,3.1,0.3,3.3,1c0.4,1.5-2.8,3.6-6.8,7.6
			c-2.3,2.3-4.3,4.8-6,7.5c-2,3.2-3.4,6.7-4.3,10.3c-0.8,3.7-0.9,7.4-0.4,11.2c0.4,3.2,1.2,6.3,2.3,9.3
			C203.1,151.4,205.2,154.7,204.2,155.9z"/>
	</g>
	<g class="st1">
		<path class="st2" d="M215.5,168.4c-0.3,2.7-2.7,4.7-5.4,4.4c-2.7-0.3-4.7-2.7-4.4-5.4c0.3-2.5,2.4-4.5,5-4.4
			C213.5,163.1,215.7,165.6,215.5,168.4z"/>
	</g>
	<path class="st3" d="M181.1,101.2c-0.1,0.1-4.6-3.1-10-7.2s-9.8-7.6-9.7-7.7c0.1-0.2,4.6,3.1,10,7.2
		C176.8,97.6,181.2,101,181.1,101.2z"/>
	<path class="st3" d="M188.5,91.3c-1.5-1.5-2.9-3.1-4.2-4.8c-1.4-1.6-2.7-3.3-3.8-5.1c1.5,1.5,2.9,3.1,4.2,4.8
		C186.2,87.8,187.4,89.5,188.5,91.3z"/>
	<path class="st3" d="M204.6,89.1c-0.1,0-1.9-4.9-4-11.1c-2.1-6.2-3.6-11.3-3.5-11.3c0.1,0,1.9,4.9,4,11.1
		C203.2,84,204.8,89,204.6,89.1z"/>
	<path class="st3" d="M224.4,84.8c-0.5-1.8-0.9-3.7-1.1-5.6c-0.4-1.9-0.5-3.8-0.5-5.7c0.5,1.8,0.9,3.7,1.1,5.6
		C224.3,81,224.5,82.9,224.4,84.8z"/>
	<path class="st3" d="M243.9,91.5c-0.2,0,1.3-5.9,3.3-13.1c2-7.2,3.7-13,3.9-13c0.1,0-1.4,5.9-3.4,13.1
		C245.7,85.7,244,91.6,243.9,91.5z"/>
	<path class="st3" d="M260.2,99.6c0.9-1.9,2-3.8,3.3-5.5c1.1-1.8,2.3-3.6,3.7-5.2c-0.9,1.9-2,3.8-3.3,5.5
		C262.9,96.2,261.6,98,260.2,99.6z"/>
</g>
<g id="freepik--background-complete--inject-8">
	<path class="st0" d="M498.9,317.6l-4.5-7.8l-7,1l-5.8-7.3l3-7.2l-7.8-5.2l-5.8,5.9l-7.7-1.3l-3.1-9.1l-9.4,1l-0.5,7.9l-7,3.5
		l-7.4-5.2l-7.5,5.5l3.9,8.4l-4.5,6.7l-8.1-0.4l-2.1,10l7.7,3l0.7,8.4l-8,4.6l3.8,8.7l8.3-1.3l5.5,6.3l-2.9,7.9l7.6,5.3l5.9-6.4
		l8.2,2.2l2.6,8.5l9.1-0.6l1.2-7.6l7.8-4.5l6.4,5.1l8.1-6l-4.1-7.1l4-7.1l8.2,0.6l2.5-9.3l-7-3.8l-0.9-8.5L498.9,317.6z
		 M467.1,344.9c-8.8,5.1-20.1,2-25.1-6.8c-5.1-8.8-2-20.1,6.8-25.1c8.8-5.1,20.1-2,25.1,6.8C479,328.6,475.9,339.8,467.1,344.9z"/>
	<path class="st0" d="M72.2,409.8c13.9-12,15.2-31.7,12.9-49c-0.4-2.9-0.4-6-2-8.4c-1.6-2.4-5.1-3.8-7.5-2.3c-2.1,1.2-2.7,3.8-3.7,6
		c-1.3,2.9-3.5,5.4-6.1,7.2c-1.8,1.1-4,2-5.9,1.2c-2.6-1.1-3.3-4.6-3.6-7.4l-1.5-16.2c-0.3-2.9-0.6-5.8-1.8-8.5
		c-1.2-2.7-3.4-5-6.3-5.5c-2.8-0.5-6.1,1.4-6.3,4.3c-0.1,1.2,0.2,2.4,0.3,3.6c0,1.2-0.4,2.6-1.4,3c-1.1,0.4-2.4-0.2-3.3-1
		c-3.3-2.6-5.7-6.2-8-9.7s-4.5-7.2-7.5-10.1c-3-2.9-7-5.1-11.2-4.8c-4.2,0.2-8.3,3.2-8.9,7.4c-0.6,4.2,2.2,8.1,5.1,11.1
		c4.3,4.5,9.3,8.3,14.7,11.4c1,0.5,2,1.1,2.5,2.2c0.8,1.9-0.8,4-2.6,4.8c-2.1,0.9-4.4,1-6.7,1.4s-4.6,1.7-5.2,4
		c-0.9,3.1,1.9,5.9,4.5,7.7c5.3,3.6,11.2,6.2,17.4,7.8c2.2,0.6,4.5,1,6.4,2.3s3.2,3.8,2.3,5.9s-3.4,3.1-5.7,2.9s-4.4-1.2-6.6-1.8
		c-4.1-1.1-9.2-0.3-11.4,3.4c-1.4,2.4-1.3,5.6-0.1,8.2s3.1,4.7,5.1,6.7c7.1,6.8,15.9,12,25.4,14.2C54.8,414.1,63.4,414.1,72.2,409.8
		"/>
	<path class="st4" d="M73.7,422.7c-1.6-8-4-15.8-7.2-23.3c-3.9-9.2-8.3-18.1-13.2-26.8c-1.3-2.3-2.6-4.6-3.8-6.8
		c-1.3-2.2-2.5-4.5-3.8-6.6c-2.6-4-5.4-7.9-8.5-11.6c-2.9-3.6-5.7-6.9-8.4-9.9c-2.7-3.1-5.3-5.8-7.7-8.3c-3.8-3.9-8-7.5-12.4-10.7
		c-1.6-1.1-2.8-2-3.6-2.5c-0.4-0.3-0.7-0.5-1-0.6c-0.1-0.1-0.2-0.1-0.3-0.2c0.1,0.1,0.2,0.2,0.3,0.2l0.9,0.7c0.8,0.6,2,1.4,3.6,2.6
		c4.4,3.3,8.5,6.9,12.3,10.8c2.4,2.5,5,5.3,7.6,8.3s5.5,6.4,8.4,9.9c3,3.7,5.8,7.6,8.4,11.6c1.3,2.1,2.6,4.3,3.8,6.6
		c1.3,2.2,2.5,4.5,3.8,6.8c4.9,8.7,9.3,17.6,13.2,26.8c3.1,7.5,5.6,15.3,7.2,23.2"/>
	<path class="st4" d="M45.6,359.1c0.1-0.4,0.2-0.8,0.2-1.3c0.1-0.8,0.1-2,0.2-3.5c0.1-2.9,0.1-6.9,0.1-11.4c0-4.5,0.1-8.5,0.2-11.4
		c0.1-1.4,0.1-2.6,0.2-3.4c0-0.4,0-0.8,0-1.3c-0.1,0.4-0.2,0.8-0.2,1.2c-0.1,0.8-0.3,2-0.4,3.4c-0.3,2.9-0.4,7-0.4,11.4
		s0,8.4,0,11.4c0,1.4,0,2.5,0,3.5C45.5,358.3,45.5,358.7,45.6,359.1z"/>
	<path class="st4" d="M7.7,356c0.5,0.1,1,0.1,1.5,0c1,0,2.3,0,4.1,0c3.4,0,8.2,0.2,13.4,0.6c5.2,0.4,9.9,1.1,13.3,1.6
		c1.7,0.3,3.1,0.5,4,0.7c0.5,0.1,1,0.2,1.4,0.2c-0.5-0.2-1-0.3-1.4-0.4c-0.9-0.2-2.3-0.5-4-0.8c-3.4-0.6-8.1-1.3-13.4-1.7
		c-4.5-0.4-9-0.6-13.5-0.5c-1.7,0-3.1,0.1-4.1,0.2C8.7,355.8,8.2,355.9,7.7,356z"/>
	<path class="st4" d="M66,398.7c0.1-0.2,0.2-0.3,0.2-0.5c0.1-0.4,0.3-0.8,0.5-1.4c0.4-1.2,1-3,1.7-5.2c1.4-4.4,3-10.6,4.8-17.5
		s3.4-13.1,4.6-17.5c0.6-2.2,1.1-4,1.5-5.3c0.2-0.6,0.3-1.1,0.4-1.4c0.1-0.2,0.1-0.3,0.1-0.5c-0.1,0.2-0.2,0.3-0.2,0.5
		c-0.1,0.4-0.3,0.8-0.5,1.4c-0.4,1.2-1,3-1.7,5.2c-1.4,4.4-3,10.6-4.8,17.5c-1.8,6.9-3.4,13.1-4.6,17.5c-0.6,2.2-1.1,4-1.5,5.3
		l-0.4,1.4C66.1,398.4,66,398.6,66,398.7z"/>
	<path class="st4" d="M15,387.9c0.2,0.1,0.3,0.1,0.5,0.2l1.5,0.3l5.5,1.2c4.6,1,11,2.4,18,4c7,1.6,13.4,3,18,3.9
		c2.3,0.4,4.2,0.8,5.5,1l1.5,0.2c0.2,0,0.4,0.1,0.5,0c-0.2-0.1-0.3-0.1-0.5-0.2l-1.4-0.3l-5.5-1.1c-4.6-1-11-2.4-18-4
		s-13.4-3-18-3.9c-2.3-0.4-4.2-0.8-5.5-1l-1.5-0.2C15.4,387.9,15.2,387.9,15,387.9z"/>
	<path class="st5" d="M419.3,273.5l-2.7-4.6l-4.2,0.6l-3.4-4.3l1.8-4.3l-4.6-3.1l-3.5,3.5l-4.6-0.8l-1.9-5.4l-5.6,0.6l-0.3,4.7
		l-4.1,2.1l-4.4-3.1l-4.5,3.2l2.3,5l-2.6,4l-4.8-0.3l-1.3,5.9l4.6,1.8l0.4,5l-4.7,2.7l2.3,5.1l4.9-0.8l3.3,3.8l-1.7,4.7l4.5,3.2
		l3.5-3.8l4.9,1.3l1.5,5.1l5.4-0.4l0.7-4.5l4.6-2.7l3.8,3l4.8-3.6l-2.4-4.2l2.4-4.2l4.9,0.4l1.5-5.5l-4.2-2.3l-0.6-5.1L419.3,273.5z
		 M400.4,289.8c-5.2,3-11.9,1.2-14.9-4c-3-5.2-1.2-11.9,4-14.9c5.2-3,11.9-1.2,14.9,4C407.5,280.1,405.7,286.8,400.4,289.8
		L400.4,289.8z"/>
	<path class="st4" d="M400.5,289.8c0.7-0.5,1.4-1.1,2.1-1.7c0.8-0.7,1.4-1.6,1.9-2.5c2.5-4.5,1.5-10.2-2.5-13.5
		c-0.8-0.7-1.7-1.2-2.6-1.6c-1-0.4-2-0.7-3.1-0.8c-4.7-0.5-9.1,2-11,6.3c-0.9,1.9-1.1,4.1-0.8,6.2c0.3,1.9,1.2,3.7,2.4,5.1
		c2,2.4,4.9,3.8,8,3.8c1,0,2.1-0.1,3.1-0.4C398.8,290.5,399.7,290.2,400.5,289.8c0,0,0,0-0.1,0.1l-0.5,0.3c-0.2,0.1-0.5,0.3-0.8,0.4
		c-0.4,0.2-0.7,0.3-1.1,0.4c-1,0.3-2.1,0.5-3.2,0.4c-3.2,0-6.2-1.4-8.3-3.8c-1.3-1.5-2.2-3.3-2.5-5.3c-0.2-1.1-0.2-2.1-0.1-3.2
		c0.1-1.1,0.4-2.2,0.9-3.2c1.9-4.5,6.6-7.1,11.4-6.6c2.2,0.2,4.2,1.1,5.9,2.6c1.5,1.3,2.7,3,3.3,4.8c1,3,0.7,6.3-0.9,9.1
		c-0.5,0.9-1.2,1.8-2,2.5c-0.3,0.3-0.6,0.5-0.9,0.7c-0.2,0.2-0.5,0.3-0.7,0.5l-0.4,0.3C400.5,289.8,400.5,289.8,400.5,289.8z"/>
	<path class="st4" d="M419.3,273.5l-0.2,0.2l-0.7,0.5l-3,2.1v-0.1c0.2,1.4,0.4,3.1,0.6,5.1l0-0.1l4.2,2.3h0.1v0.1
		c-0.4,1.7-0.9,3.5-1.4,5.5v0.1h-0.1l-4.9-0.3l0.1-0.1l-2.5,4.2v-0.1c0.8,1.3,1.6,2.7,2.4,4.2l0.1,0.1l-0.1,0.1l-4.8,3.6l-0.1,0.1
		l-0.1-0.1l-3.8-3h0.2l-4.6,2.7l0.1-0.1c-0.2,1.4-0.4,2.9-0.7,4.5v0.1h-0.1l-5.4,0.4h-0.1l0-0.1l-1.5-5.1l0.1,0.1l-4.9-1.3l0.2-0.1
		l-3.5,3.8l-0.1,0.1l-0.1-0.1l-4.5-3.2l-0.1-0.1l0.1-0.1c0.5-1.4,1.1-3.1,1.7-4.7l0,0.2l-3.3-3.8l0.2,0.1l-4.9,0.8h-0.1l-0.1-0.1
		c-0.7-1.6-1.5-3.4-2.3-5.1l-0.1-0.2l0.2-0.1l0.1-0.1c1.6-0.9,3.1-1.8,4.6-2.7l-0.1,0.2c-0.1-1.7-0.3-3.3-0.4-5l0.1,0.2l-4.6-1.7
		l-0.1-0.1v-0.2c0.4-2,0.8-4,1.3-5.9v-0.2h0.2l4.8,0.3l-0.2,0.1l2.7-4v0.2c-0.8-1.7-1.6-3.3-2.3-5l-0.1-0.1l0.1-0.1l4.5-3.2l0.1-0.1
		l0.1,0.1l4.4,3.1h-0.2l4.1-2.1l-0.1,0.1c0.1-1.6,0.2-3.2,0.3-4.7v-0.1h0.1l5.6-0.6h0.1v0.1l1.9,5.4l-0.1-0.1l4.6,0.8h-0.1l3.5-3.5
		l0.1-0.1l0.1,0.1l4.6,3.1l0.1,0.1v0.1c-0.7,1.6-1.3,3-1.8,4.3v-0.1l3.4,4.3h-0.1l4.2-0.6h0v0l2,3.5l0.5,0.9
		C419.2,273.5,419.2,273.6,419.3,273.5c-0.1,0.1-0.2,0-0.3-0.2s-0.3-0.5-0.5-0.9l-2-3.5h0.1l-4.2,0.6h0v0l-3.5-4.3v0v-0.1
		c0.5-1.3,1.1-2.7,1.8-4.3l0,0.1l-4.7-3.1h0.2c-1.1,1.1-2.2,2.3-3.5,3.5l0,0.1h-0.1l-4.5-0.8H398v-0.1c-0.6-1.7-1.2-3.5-1.9-5.4
		l0.2,0.1l-5.6,0.6l0.1-0.1c-0.1,1.5-0.2,3.1-0.3,4.7v0.1l-0.1,0l-4.1,2.1l-0.1,0l-0.1-0.1l-4.4-3.2h0.2l-4.4,3.2l0.1-0.2l2.3,5
		l0,0.1l-0.1,0.1l-2.6,4l-0.1,0.1H377l-4.8-0.3l0.2-0.1c-0.4,2-0.8,3.9-1.3,5.9l-0.1-0.2l4.6,1.8l0.1,0v0.1c0.1,1.6,0.3,3.3,0.4,5
		v0.1l-0.1,0.1l-4.6,2.7l-0.1,0.1l0.1-0.2l2.3,5.1l-0.2-0.1l4.9-0.8h0.1l0.1,0.1c1.1,1.3,2.2,2.6,3.3,3.8l0.1,0.1v0.1
		c-0.6,1.6-1.2,3.2-1.7,4.7l-0.1-0.2l4.5,3.2h-0.2l3.5-3.8l0.1-0.1h0.1l4.9,1.3h0.1v0.1c0.5,1.7,1,3.5,1.5,5.1l-0.2-0.1l5.4-0.4
		l-0.2,0.1c0.2-1.6,0.5-3.1,0.7-4.5v-0.1l0.1,0l4.6-2.7l0.1-0.1l0.1,0.1l3.8,3h-0.2l4.8-3.6v0.2c-0.9-1.4-1.7-2.9-2.4-4.2l0-0.1
		l0-0.1l2.4-4.2l0-0.1h0.1l4.9,0.4l-0.1,0.1c0.5-2,1.1-3.9,1.5-5.5l0,0.1l-4.2-2.3l0,0v0l-0.5-5.1v0l0,0l3-2l0.8-0.5L419.3,273.5z"
		/>
</g>
<g id="freepik--Floor--inject-8">
	<path class="st3" d="M478.9,424.5c0,0.1-103,0.2-230,0.2s-230-0.1-230-0.2s103-0.2,230-0.2S478.9,424.4,478.9,424.5z"/>
</g>
<g id="freepik--character-2--inject-8">
	<path class="st3" d="M459.5,324.9l-39.8,99.5H308l35.5-100.8c0.3-0.7,0.9-1.2,1.7-1.2l112.6,0.1c1,0,1.8,0.8,1.8,1.8
		C459.6,324.4,459.5,324.7,459.5,324.9z"/>
	<path class="st6" d="M453.3,327.8l-36.5,89.1c-0.2,0.4-0.5,0.6-1,0.6H314.1c-0.6,0-1-0.4-1-1c0-0.1,0-0.2,0.1-0.4l32.4-89.1
		c0.1-0.4,0.5-0.7,1-0.7h105.9c0.6,0,1,0.5,1,1C453.4,327.5,453.3,327.7,453.3,327.8z"/>
	<polygon class="st3" points="419.7,424.5 418.7,424.5 267.9,424.5 267.9,417.5 415.5,417.5 	"/>
	<path class="st7" d="M304.4,328.8c0,0-3.1,36.4-9.6,38.1c-17.9,4.8-38.4,1.3-45.6-0.2c-0.8-0.7-1.7-1.5-2.8-2.6
		c-0.9-0.9-1.6-2-2.2-3.1c-0.7-1.4-1.3-2.9-1.6-4.5c-0.2-1.4-2-2-2.6-0.8c-0.6,1.2-0.9,5.6,1.5,9.7c0.4,1-0.1,2.1-1,2.5
		c-0.1,0-0.2,0.1-0.3,0.1c-3,1.1-13.8,4.5-15.5,5.3c-1.5,0.7-3,2-1.4,2.3c1.6,0.3,10.5-1,10.5-1s-11.6,1.4-11.4,3.1
		c0.2,1.2,3.3,1.7,10.9,0c0,0-9.6,1.3-10.6,2.3c-2.3,2.3,9.3,0.9,9.3,0.9c-8.1,1-8,0.6-8.1,1.7c-0.1,0.8,1.8,1.2,6.2,1.2
		c3.6,0,7.3,0.8,12.8,1.2l0,0c0,0,69.3,19.6,78.8-10.9c5.1-16.4,5.2-22.7,6.9-33.5"/>
	<path class="st8" d="M236.8,380.3c0,0.2-2.4,0.6-5.5,0.9c-3.1,0.3-5.6,0.4-5.6,0.2s2.5-0.6,5.5-0.9
		C234.3,380.2,236.8,380.1,236.8,380.3z"/>
	<path class="st8" d="M236.7,377.2c0,0.2-2.6,0.8-5.8,1.3c-3.2,0.5-5.9,0.8-5.9,0.6c0-0.2,2.6-0.8,5.8-1.3
		C234,377.3,236.7,377,236.7,377.2z"/>
	<path class="st8" d="M236.6,373.9c0,0.2-2.4,0.8-5.5,1.4c-3.1,0.5-5.6,0.8-5.6,0.6s2.4-0.8,5.5-1.4
		C234.1,374,236.6,373.7,236.6,373.9z"/>
	<polygon class="st3" points="394.4,390.8 398.9,417 328.6,417 331.3,396.7 	"/>
	<path class="st9" d="M311.6,300.7c0,0-10.2,30.7-9.6,31.9l22.5,5.2L311.6,300.7z"/>
	<path class="st10" d="M311.6,300.7c0,0-10.2,30.7-9.6,31.9l22.5,5.2L311.6,300.7z"/>
	<path class="st9" d="M330.8,358.3l-2.2,43.9l67.9-7.7l-10.6-42.4c0,0-7.3-49.2-20.6-54.7c-4.6-1.8-9.3-3.3-14.1-4.5
		c-8.5-2.4-17.4-3.1-26.1-1.9l-1.4,0.2c-5.5,0.6-10.2,4.3-12.1,9.6c0,0-0.2,15.1,4.4,25.1L330.8,358.3z"/>
	<path class="st6" d="M346.9,416.2c-0.1,0-0.3-3.6-0.3-8c-0.1-4.4-0.1-8,0-8c0.1,0,0.3,3.6,0.3,8C347,412.6,347,416.2,346.9,416.2z"
		/>
	<path class="st6" d="M350.6,402.3c0,0,0.1-0.1,0.3-0.2c0.7-0.2,1.4,0.2,1.6,0.9c0,0.1,0.1,0.3,0,0.4c0,0.7-0.4,1.2-1,1.4
		c-0.6,0.2-1.3,0-1.7-0.5c-0.3-0.4-0.5-0.9-0.4-1.4c0.2-0.8,0.7-1.1,0.7-1.1c-0.2,0.3-0.3,0.7-0.4,1.1c-0.1,0.8,0.5,1.4,1.3,1.5
		c0.2,0,0.3,0,0.5,0c0.5-0.2,0.8-0.6,0.8-1.1c0-0.4-0.2-0.8-0.5-1C351.4,402.2,351,402.2,350.6,402.3z"/>
	<path class="st6" d="M395.5,406.6c-0.1,0.1-0.2,0.2-0.3,0.2c-0.3,0.2-0.5,0.4-0.8,0.5c-1,0.6-2.1,1.1-3.3,1.5
		c-7.8,2.7-16.5-0.1-21.2-6.8c-0.7-1-1.3-2-1.8-3.1c-0.2-0.4-0.3-0.7-0.4-0.9c-0.1-0.2-0.1-0.3-0.1-0.3c0,0,0.2,0.4,0.6,1.2
		c1.3,2.7,3.2,5,5.5,6.8c3.4,2.7,7.7,4.1,12.1,3.9c1.8-0.1,3.5-0.4,5.2-0.9c1.1-0.4,2.2-0.8,3.3-1.4
		C394.7,407,395.1,406.8,395.5,406.6z"/>
	<path class="st11" d="M340.7,320.2c-0.2,0.3-0.5,0.5-0.8,0.8c-0.8,0.7-1.6,1.3-2.4,1.9c-1.3,0.9-2.7,1.5-4.3,1.7
		c-1.9,0.1-3.8-0.3-5.5-1.1c-1.8-0.8-3.5-1.7-5.1-2.3c-1.4-0.6-2.9-0.8-4.4-0.6c-1,0.1-2,0.5-2.8,1.1c-0.6,0.4-0.8,0.8-0.8,0.7
		c0-0.1,0.1-0.2,0.2-0.2c0.2-0.2,0.4-0.4,0.6-0.6c0.8-0.7,1.8-1.1,2.8-1.2c1.5-0.2,3.1,0,4.5,0.6c1.6,0.6,3.3,1.5,5.1,2.3
		c1.6,0.8,3.5,1.2,5.3,1.1c1.5-0.2,2.9-0.7,4.2-1.6c0.9-0.6,1.7-1.2,2.5-1.8C340.1,320.6,340.4,320.4,340.7,320.2z"/>
	<path class="st11" d="M322.9,303c-0.4,0.5-0.8,0.9-1.3,1.1c-2.4,1.6-5.2,2.2-8,1.8c-0.6-0.1-1.1-0.2-1.7-0.5c0-0.1,0.7,0.1,1.7,0.2
		c2.7,0.3,5.5-0.3,7.9-1.7C322.3,303.4,322.8,303,322.9,303z"/>
	<path class="st11" d="M384.3,344.4c-0.1,0.1-0.3,0.3-0.5,0.4c-0.5,0.3-1,0.6-1.6,0.9c-2.1,0.7-4.3,0.9-6.5,0.6
		c-1.5-0.2-3-0.5-4.4-0.9c-1.7-0.4-3.4-0.8-5.1-1c-1.9-0.2-3.8,0-5.6,0.4c-2,0.5-3.9,1.1-5.8,1.9c-3.9,1.6-7.5,3.3-11.1,4.1
		c-3.2,0.7-6.5,0.6-9.6-0.2c-2.1-0.5-4.2-1.2-6.2-2l-1.6-0.7c-0.2-0.1-0.4-0.2-0.6-0.3c0.2,0,0.4,0.1,0.6,0.2l1.7,0.6
		c2,0.7,4.1,1.4,6.2,1.9c3.1,0.8,6.4,0.8,9.5,0.2c3.5-0.7,7.2-2.5,11-4.1c1.9-0.8,3.8-1.5,5.8-1.9c1.9-0.4,3.8-0.6,5.7-0.4
		c1.7,0.2,3.4,0.6,5.1,1c1.4,0.4,2.9,0.7,4.3,1c2.1,0.4,4.3,0.2,6.4-0.5C382.9,345.2,383.6,344.9,384.3,344.4z"/>
	<path class="st11" d="M330.5,371.3c0,0,0-0.1,0.1-0.1l0.3-0.4c0.4-0.5,0.9-0.9,1.4-1.3c0.8-0.6,1.8-1,2.8-1.3
		c1.3-0.4,2.6-0.5,4-0.5c3,0,6.4,1.3,10,2.9c1.9,0.9,3.8,1.6,5.7,2.3c2.1,0.7,4.3,1,6.4,0.9c2.2-0.2,4.3-0.9,6.1-2
		c1.9-1,3.6-2.2,5.3-3.1c1.6-0.9,3.4-1.6,5.2-2c4-0.7,8.1,0.4,11.2,3.1c0.7,0.6,1.2,1.2,1.7,1.9c0,0-0.1-0.1-0.1-0.1
		c-0.1-0.1-0.2-0.2-0.3-0.4c-0.2-0.2-0.4-0.4-0.6-0.6c-0.3-0.3-0.5-0.5-0.8-0.7c-1.8-1.5-4-2.5-6.3-2.9c-1.6-0.3-3.2-0.3-4.8,0
		c-1.8,0.4-3.5,1.1-5.1,2c-1.7,0.9-3.4,2.1-5.3,3.1c-1.9,1.1-4.1,1.9-6.3,2.1c-2.2,0.1-4.5-0.2-6.6-0.9c-2-0.7-3.9-1.4-5.7-2.3
		c-3.6-1.6-6.9-2.9-9.9-2.9c-1.3-0.1-2.6,0.1-3.9,0.4c-1,0.3-1.9,0.7-2.7,1.2C331.7,370.1,331,370.6,330.5,371.3z"/>
	<path class="st11" d="M391.8,394.4c-0.3-0.8-0.8-1.6-1.3-2.3c-1.5-1.9-3.5-3.3-5.9-4c-1.6-0.5-3.3-0.7-4.9-0.7
		c-1.9,0.1-3.8,0.4-5.6,1c-2,0.6-4,1.4-5.9,2.4c-2,0.9-4.1,2-6.2,2.9c-2.1,1-4.3,1.7-6.5,2.2c-2.1,0.4-4.3,0.6-6.4,0.4
		c-3.6-0.3-7.2-1.1-10.6-2.5c-2.9-1.1-5.2-2.2-6.7-2.9l-1.8-0.9l-0.5-0.2l-0.2-0.1c0.1,0,0.1,0,0.2,0.1l0.5,0.2l1.8,0.8
		c1.6,0.7,3.9,1.7,6.8,2.8c3.4,1.3,6.9,2.1,10.5,2.4c2.1,0.1,4.2,0,6.3-0.4c2.2-0.5,4.4-1.2,6.5-2.2c2.2-0.9,4.2-2,6.2-2.9
		c1.9-0.9,3.9-1.7,6-2.4c1.9-0.6,3.8-0.9,5.7-1c1.7-0.1,3.4,0.2,5.1,0.7c2.4,0.7,4.4,2.2,5.9,4.2c0.4,0.5,0.7,1.1,0.9,1.8
		c0.1,0.2,0.1,0.4,0.2,0.5C391.8,394.4,391.8,394.4,391.8,394.4z"/>
	<g class="st1">
		<path d="M340,400.8c6.9-0.3,13.8-2.6,19.1-7c7.2-6.1,10.8-15.6,11.6-25.1c0.8-9.4-0.9-18.8-2.6-28.1c-6.5,9-11.7,18.9-15.6,29.3
			c-2.6,6.8-4.8,14.3-10.5,18.9c-2,1.6-4.4,2.9-6,4.9c-1.6,2.1-1.9,5.5,0.2,7l1.9,0.6"/>
	</g>
	<path class="st7" d="M290.2,401.1c1.4,0.7,2.8,1.1,4.3,1.4c1.2,0.3,2.4,0.3,3.6,0.2c0.6-0.1,1.1-0.2,1.6-0.2
		c2.3-0.4,4.5-1.4,6.3-2.9c7.8-6.8,29-28.3,32.8-33.2c4.6-5.8,5.8-44.5,5.8-44.5l25.4,4.2c0,0-0.5,27.9-6.7,49.5
		c-4,13.8-52.1,42.2-52.1,42.2c-3.6,3.9-7.6,8.1-10,10.2c-5.1,4.3-5.5,3.8-5.9,3.2c-1.1-1.8,8.7-7.9,5.9-7.8
		c-2.9,0.1-11.1,8.8-12.2,6.9c-1.4-2.6,9-8.7,9.9-9.3s0-1.8-0.7-1.3c-1,0.8-12.3,9.2-13.6,6.7c-0.7-1.4,1.9-2.5,1.9-2.5
		s11.1-7,10.4-8.2s-7.3,2.7-9.5,4.2c-2.2,1.5-3.7,1-3.5-0.4c0.1-1,6.6-5.7,8.7-7.1c2.2-1.4,8.1-5.2,3.7-5.7
		c-4.5-0.5-7.7-2.7-8.2-3.8C287.6,401.5,289,400.4,290.2,401.1z"/>
	<path class="st9" d="M354.3,296.6c4.9-1,9.9,0.6,13.4,4.1c3,3.1,5.9,8.3,5.7,16.4c-0.5,16-1.8,21.4-1.8,21.4l-31.3-1.1l1.2-26.9
		C341.5,310.7,343.9,298.8,354.3,296.6z"/>
	<path class="st10" d="M354.3,296.6c4.9-1,9.9,0.6,13.4,4.1c3,3.1,6,8.7,5.7,16.9c-0.5,16-1.8,21-1.8,21l-31.3-1.1l1.3-26.4
		C341.5,311.1,343.9,298.8,354.3,296.6z"/>
	<path class="st11" d="M372.8,329.3c0,0-0.4-0.3-1.1-0.8c-1-0.7-2.1-1.2-3.3-1.4c-1.7-0.4-3.5-0.5-5.3-0.2c-2.1,0.5-4.2,1.2-6.2,2.2
		c-2,1-4.1,1.8-6.2,2.3c-1.8,0.4-3.6,0.5-5.4,0.3c-1.2-0.2-2.4-0.6-3.5-1.2c-0.3-0.2-0.6-0.4-0.8-0.6c-0.1-0.1-0.2-0.1-0.3-0.2
		c0,0,0.4,0.3,1.1,0.7c1.1,0.5,2.3,0.9,3.5,1c1.8,0.2,3.6,0.1,5.3-0.3c2.1-0.6,4.2-1.4,6.2-2.4c2-1,4.1-1.7,6.3-2.2
		c1.8-0.3,3.7-0.2,5.4,0.3c1.2,0.3,2.3,0.9,3.3,1.6c0.3,0.2,0.5,0.4,0.7,0.7C372.6,329.2,372.7,329.2,372.8,329.3z"/>
	<path class="st11" d="M371.5,306.7c-0.3,0.2-0.7,0.3-1,0.4c-0.3,0.1-0.7,0.3-1.2,0.4c-0.5,0.2-1,0.3-1.7,0.5
		c-1.5,0.4-3,0.6-4.5,0.8c-1.8,0.2-3.7,0.3-5.6,0.2c-1.9-0.1-3.7-0.3-5.5-0.6c-1.5-0.3-3-0.7-4.4-1.2c-0.6-0.2-1.1-0.4-1.6-0.7
		c-0.4-0.2-0.8-0.4-1.2-0.6c-0.3-0.2-0.7-0.4-1-0.6c0.4,0.1,0.7,0.3,1,0.4c0.4,0.2,0.8,0.4,1.2,0.5c0.5,0.2,1.1,0.4,1.6,0.6
		c1.4,0.5,2.9,0.8,4.3,1.1c1.8,0.3,3.6,0.5,5.5,0.6c1.8,0.1,3.7,0,5.5-0.2c1.5-0.2,3-0.4,4.4-0.7c0.6-0.1,1.2-0.3,1.7-0.4
		c0.5-0.1,0.9-0.2,1.3-0.4C370.8,306.8,371.1,306.7,371.5,306.7z"/>
	<path class="st3" d="M337.8,261.8c-0.1,1.2,0.7,2.3,1.9,2.4c0.5,0.1,1-0.1,1.4-0.4c1.3-0.9,1.2-2.9,0.6-4.3
		c-0.5-1.4-1.3-3.1-0.9-4.6c0.3-1.2,1.3-2,2-3c1.2-1.7,1.6-4,1-6c-0.7-2-2.5-3.5-4.6-3.8c-2.1-0.2-4.6,0.8-6.3-0.5
		c-1.3-0.9-1.6-2.6-2.7-3.8c-1.6-1.8-4.5-1.7-6.8-1c-2.3,0.7-4.6,1.8-7,1.6c-2-0.2-3.8-1.3-5.8-1.8c-5.6-1.6-11.5,1.8-13,7.4
		c-0.9,3.1-0.2,6.5,1.7,9.1c0.9,1.3,2.2,2.3,3.8,2.7"/>
	<path class="st7" d="M334.2,307.2L334.2,307.2c-6.5,1.2-12.8-3.1-14-9.6c-0.7-3.7-1.3-6.9-1.3-6.9s-9.7,0.1-11.4-9.3
		c-1.7-9.4-3.7-30.1-3.7-30.1l-0.1-1.3c10.1-6.6,23.1-6.1,33.8-0.4l0.3,1.9L344,294C344.7,300.3,340.4,306.1,334.2,307.2z"/>
	<path class="st2" d="M323.7,274.3l-6.1,2.9c1.1,1.3,3,1.6,4.5,0.7C324.7,276.4,323.7,274.3,323.7,274.3z"/>
	<path class="st12" d="M318.9,290.6c4.4-0.7,8.4-2.6,11.7-5.6c0,0-1.7,7.3-11.3,8L318.9,290.6z"/>
	<path class="st7" d="M338.3,258c0.2-0.1,6.9-1.7,7.2,6.4c0.2,8.1-8.1,5.7-8.1,5.4C337.4,269.6,338.3,258,338.3,258z"/>
	<path class="st12" d="M339.9,266.9c0,0,0.1,0.1,0.4,0.2c0.3,0.1,0.7,0.1,1.1,0c0.8-0.3,1.5-1.7,1.5-3.2c0-0.7-0.2-1.4-0.4-2
		c-0.2-0.5-0.6-0.9-1.1-1.1c-0.3-0.1-0.7,0.1-0.8,0.4c-0.1,0.2-0.1,0.4-0.1,0.4s-0.2-0.1-0.1-0.5c0-0.2,0.2-0.4,0.3-0.5
		c0.2-0.2,0.5-0.3,0.8-0.2c0.7,0.1,1.3,0.6,1.5,1.2c0.4,0.7,0.6,1.5,0.6,2.3c0,1.6-0.8,3.2-2,3.6c-0.4,0.1-0.9,0.1-1.3-0.2
		C339.9,267.1,339.8,266.9,339.9,266.9z"/>
	<path class="st3" d="M302.3,255.6c0,0,6.1,2,13-2.7c4.5-3.1,10.1-5.1,11.5-4.3c1.4,0.8,2.3,5.8,7.4,6.6c0,0,1,9.6,4.8,8.8
		c3.8-0.9-0.6-15.4-0.6-15.4l-9.6-5.1l-10.5-0.5l-11.1,2.8l-5.9,4.8L302.3,255.6z"/>
	<path class="st3" d="M337.8,240.4c-1.4,0.3-2.8,1-3.7,2.1C334.7,241,336.2,240.2,337.8,240.4z"/>
	<path class="st3" d="M333.4,237.2c0.5,0.9,0.7,1.9,0.7,3c0,0.7-0.1,1.5-0.4,2.2c-0.1,0.3-0.2,0.6-0.4,0.8c0.2-1,0.4-1.9,0.4-2.9
		C333.6,238.5,333.3,237.2,333.4,237.2z"/>
	<path class="st3" d="M306.8,265.1c0,0.8,0.7,1.4,1.4,1.3c0.7,0,1.3-0.6,1.4-1.3c0,0,0,0,0,0c0-0.7-0.7-1.3-1.4-1.3
		C307.5,263.7,306.8,264.3,306.8,265.1C306.8,265,306.8,265,306.8,265.1z"/>
	<path class="st3" d="M306.7,264c0.2,0.2,1.2-0.7,2.7-0.7c1.5-0.1,2.6,0.6,2.8,0.4c0.1-0.1-0.1-0.4-0.6-0.7
		c-0.7-0.4-1.4-0.6-2.2-0.6c-0.8,0-1.5,0.3-2.1,0.8C306.8,263.6,306.7,263.9,306.7,264z"/>
	<path class="st3" d="M321.4,264.3c0.1,0.7,0.7,1.3,1.4,1.3c0.7,0,1.3-0.6,1.3-1.3c0,0,0,0,0,0c-0.1-0.7-0.7-1.3-1.4-1.3
		C322,262.9,321.4,263.5,321.4,264.3C321.4,264.3,321.4,264.3,321.4,264.3z"/>
	<path class="st3" d="M321,263.2c0.2,0.2,1.2-0.7,2.6-0.9s2.6,0.5,2.8,0.3c0.1-0.2-0.1-0.4-0.6-0.7c-0.7-0.4-1.5-0.5-2.3-0.5
		c-0.8,0.1-1.5,0.4-2.1,0.9C321,262.8,320.9,263.1,321,263.2z"/>
	<path class="st3" d="M316.7,274.7c-0.8-0.2-1.6-0.2-2.5-0.2c-0.4,0-0.7,0-0.8-0.3c-0.1-0.4,0-0.8,0.1-1.1c0.3-0.9,0.5-1.9,0.8-3
		c1.2-4.3,2-7.7,1.8-7.8c-0.2-0.1-1.2,3.4-2.4,7.6c-0.3,1-0.5,2-0.8,3c-0.2,0.5-0.2,1-0.1,1.5c0.1,0.3,0.4,0.4,0.7,0.5
		c0.2,0,0.4,0,0.7,0C315.1,275,315.9,274.9,316.7,274.7z"/>
	<path class="st3" d="M320.1,258.8c0.2,0.4,1.6,0.1,3.4,0.1c1.8,0,3.2,0.4,3.4,0c0.1-0.2-0.2-0.5-0.8-0.9c-1.6-0.8-3.5-0.8-5.2-0.1
		C320.3,258.3,320,258.6,320.1,258.8z"/>
	<path class="st3" d="M306.5,260c0.3,0.3,1.3-0.1,2.5-0.3c1.2-0.1,2.3,0,2.5-0.4c0.1-0.2-0.1-0.5-0.6-0.8c-1.3-0.7-2.9-0.4-4,0.5
		C306.5,259.5,306.4,259.9,306.5,260z"/>
</g>
<g id="freepik--character-1--inject-8">
	<path class="st3" d="M44.3,327.6L83,424.5h108.8l-34.6-98.2c-0.2-0.7-0.9-1.2-1.7-1.2l-109.6,0.1c-1,0-1.8,0.8-1.8,1.8
		C44.2,327.2,44.2,327.4,44.3,327.6z"/>
	<path class="st6" d="M50.3,330.3l35.6,86.8c0.2,0.4,0.5,0.6,0.9,0.6h99.1c0.6,0,1-0.4,1-1c0-0.1,0-0.2-0.1-0.3l-31.5-86.8
		c-0.2-0.4-0.5-0.7-1-0.7H51.2c-0.5,0-1,0.4-1,1C50.2,330,50.2,330.2,50.3,330.3z"/>
	<polygon class="st3" points="83,424.5 84,424.5 230.8,424.5 230.8,417.7 87.1,417.7 	"/>
	<path class="st13" d="M253,330.2c0,0,2.7-3.5,0.9-7.6c-1.8-4.1-6.8-8.7-6.8-8.7c-1.4-0.4,0.5-8.5,1.3-11.2c0.8-2.7-0.1-4.2-1.6-3.6
		c-1,0.4-3.7,8.6-4.5,11.3c-0.4,1.4-1.2,4.3-2.1,5.9c-0.8,1.3-1.7,1.7-2.6-0.3c-2-4.5-5.2-7.3-6.5-7.4c-1.3-0.2-2,1.7-0.9,2.8
		c1.1,1.2,2.1,2.6,2.8,4.1c0.7,1.2,1.1,2.4,1.3,3.8c0.2,1.1,0.3,2.2,0.4,3.1c0.2,2.3,0.2,4.6-0.1,6.8l-27.3,32.2l-5.9-21.8l-0.5-1.7
		l-23.4,8.7c-0.7,0.2,5.1,17.2,8.7,27.8c1.8,5.2,5.8,9.5,10.9,11.6l0,0c8.2,3.4,17.7,0.7,22.9-6.5l29.2-42.3l-0.6-0.4l0.6,0.3
		L253,330.2z"/>
	<path class="st14" d="M249.4,316c0,0.3-0.1,0.5-0.2,0.8l-0.8,2.1l-1.2,3.2c-0.2,0.6-0.5,1.3-0.9,1.8c-0.3,0.3-0.6,0.5-1,0.6
		c-0.4,0.1-0.9-0.1-1.1-0.4c-0.3-0.3-0.4-0.7-0.4-1.1c0-0.4,0-0.7,0.1-1.1c0.2-0.7,0.3-1.3,0.5-1.9c0.4-1.2,0.7-2.3,1.1-3.2
		c0.3-0.9,0.6-1.6,0.9-2.1c0.1-0.3,0.2-0.5,0.4-0.7c-0.1,0.3-0.1,0.5-0.3,0.8c-0.2,0.5-0.4,1.2-0.7,2.1c-0.3,0.9-0.7,2-1,3.2
		c-0.2,0.6-0.3,1.2-0.5,1.9c-0.2,0.6-0.1,1.3,0.2,1.9c0.2,0.2,0.5,0.4,0.8,0.3c0.3-0.1,0.6-0.2,0.8-0.4c0.4-0.5,0.6-1.1,0.8-1.7
		l1.3-3.1l0.9-2.1C249.1,316.5,249.2,316.3,249.4,316z"/>
	<path class="st14" d="M252.1,319.2c0,0.2-0.1,0.5-0.2,0.7c-0.2,0.4-0.4,1.1-0.7,1.9c-0.3,0.8-0.7,1.7-1.1,2.7
		c-0.2,0.6-0.6,1.1-1.1,1.4c-0.3,0.2-0.6,0.3-1,0.3c-0.4,0-0.7-0.2-1-0.4c-0.5-0.5-0.7-1.2-0.6-1.9c0.1-0.6,0.2-1.2,0.4-1.7
		c0.3-0.9,0.6-1.9,1-2.8c0.3-0.8,0.6-1.4,0.8-1.8c0.1-0.2,0.2-0.4,0.4-0.6c0.1,0-0.4,1-1,2.5c-0.3,0.9-0.6,1.8-0.9,2.8
		c-0.2,0.5-0.3,1.1-0.3,1.7c-0.1,0.6,0.1,1.1,0.5,1.6c0.4,0.4,1,0.4,1.4,0.1c0.4-0.3,0.8-0.8,1-1.3l1.1-2.7c0.3-0.8,0.6-1.4,0.8-1.8
		C251.8,319.6,252,319.4,252.1,319.2z"/>
	<path class="st14" d="M253.7,322.4c-0.1,0.7-0.3,1.4-0.5,2.1c-0.2,0.6-0.4,1.4-0.7,2.2c-0.1,0.5-0.5,0.9-0.9,1.1
		c-0.3,0.1-0.6,0.1-0.8,0c-0.3-0.1-0.5-0.3-0.7-0.5c-0.3-0.5-0.4-1-0.3-1.5c0.1-1.3,0.4-2.5,0.9-3.6c0.2-0.5,0.5-0.9,0.8-1.3
		c0.2-0.3,0.4-0.4,0.4-0.4c0,0-0.5,0.7-1,1.9c-0.3,0.7-0.5,1.4-0.7,2.2c-0.1,0.4-0.1,0.9-0.1,1.3c0,0.5,0,0.9,0.2,1.3
		c0.2,0.4,0.6,0.5,1,0.4c0.4-0.2,0.6-0.5,0.7-0.9c0.3-0.8,0.5-1.5,0.8-2.2C253,323.7,253.3,323,253.7,322.4z"/>
	<path class="st14" d="M244.4,329.4c-0.1,0,0-0.6-0.1-1.4c-0.2-2.4-1.3-4.5-3.1-6.1c-0.7-0.6-1.2-0.9-1.1-0.9
		c0.5,0.1,0.9,0.4,1.3,0.7c2,1.5,3.1,3.8,3.2,6.3C244.6,328.4,244.5,328.9,244.4,329.4z"/>
	<path class="st3" d="M92.5,417.1l70.7,0.4l0.9-12.5l-55.2-24.5c-4.8,5.8-7.9,12.7-9.2,20.1L92.5,417.1"/>
	<path class="st6" d="M125.9,393.1c-0.2,0.3-0.4,0.5-0.6,0.7c-0.3,0.3-0.5,0.5-0.8,0.8c-0.4,0.3-0.8,0.7-1.2,1c-0.5,0.4-1,0.7-1.5,1
		c-0.6,0.4-1.2,0.7-1.8,1c-2.9,1.4-6,2.3-9.2,2.4c-0.7,0-1.4,0-2.1,0c-0.6,0-1.2-0.1-1.8-0.2c-0.5-0.1-1-0.2-1.4-0.3
		c-0.4-0.1-0.7-0.2-1.1-0.3c-0.3-0.1-0.6-0.2-0.9-0.3c0-0.1,1.3,0.4,3.5,0.6c0.5,0.1,1.1,0.1,1.8,0.1s1.3,0,2.1,0
		c3.1-0.2,6.2-1,9.1-2.3c0.6-0.3,1.3-0.6,1.8-1c0.5-0.3,1-0.6,1.5-1C124.9,394,125.8,393,125.9,393.1z"/>
	<path class="st6" d="M145.1,416c0.2-0.8,0.5-1.6,0.9-2.4c0.6-1.6,1.4-3.5,2.2-5.7c0.8-2.2,1.6-4.2,2.2-5.7c0.3-0.8,0.6-1.6,1-2.3
		c-0.2,0.8-0.4,1.6-0.8,2.4c-0.5,1.4-1.3,3.5-2.1,5.8c-0.9,2.3-1.7,4.3-2.3,5.7c-0.3,0.7-0.6,1.3-0.8,1.7
		C145.4,415.6,145.3,415.8,145.1,416z"/>
	<path class="st6" d="M145.5,399.2c-0.4,0.2-0.7,0.5-0.9,0.9c-0.2,0.4-0.2,0.9,0.1,1.3c0.4,0.7,1.2,0.9,1.9,0.5
		c0.3-0.2,0.6-0.5,0.7-0.9c0.1-0.4,0-0.9-0.3-1.3c-0.3-0.3-0.7-0.5-1.2-0.6c0,0,0.1-0.1,0.4-0.1c0.4,0,0.7,0.2,1,0.4
		c0.4,0.4,0.6,1,0.5,1.5c-0.2,0.9-1.1,1.5-2,1.4c-0.5-0.1-0.9-0.4-1.2-0.9c-0.3-0.5-0.3-1.1,0-1.6c0.2-0.3,0.5-0.6,0.8-0.7
		C145.4,399.2,145.5,399.2,145.5,399.2z"/>
	<path class="st9" d="M193.3,311.5c0,0,10.3,30.4,9.8,31.7l-20.9,5.7L193.3,311.5z"/>
	<path class="st10" d="M193.3,311.5c0,0,10.3,30.4,9.8,31.7l-20.9,5.7L193.3,311.5z"/>
	<path class="st9" d="M176.4,361.9l-6.6,28l-4.3,15.7l-56.6-25.2l18-28.9c0,0,9.8-40.2,23.7-47.7c10.1-5.4,18.7-3.5,19.9-3.5
		l12.1,1.7c0.3,0,0.5,0.1,0.8,0.1c6.4,1.3,10.8,7.3,10.5,13.8c-0.3,5.2-1.1,14.1-4,20.7C185.9,345.5,176.4,361.9,176.4,361.9z"/>
	<path class="st11" d="M167.6,399.3l-0.4-0.2c-0.4-0.2-0.8-0.4-1.2-0.6c-1.5-0.9-2.7-2.1-3.7-3.5c-1.6-2.2-2.6-4.8-2.8-7.5
		c-0.1-1.7,0.2-3.4,1-5c0.4-0.8,1-1.6,1.6-2.2c0.7-0.7,1.7-1.1,2.6-1.3c3.4-0.3,6.4,2.1,6.8,5.5c0,0,0,0,0,0
		c0.1,1.2-0.1,2.4-0.6,3.4c-1,2.3-3,4-5.5,4.6c-2.5,0.6-5.2,0.4-7.6-0.7c-2.5-1.2-4.6-2.9-6.3-5.1c-0.9-1.1-1.7-2.2-2.4-3.4
		c-0.7-1.2-1.3-2.6-1.6-4c-0.4-1.4-0.4-2.9-0.1-4.3c0.3-1.5,1.1-2.8,2.3-3.8c1.2-1,2.8-1.4,4.3-1.3c0.8,0.1,1.5,0.4,2.2,0.8
		c0.6,0.5,1.1,1.1,1.4,1.8c0.6,1.4,0.6,3.1,0.1,4.5c-0.6,1.4-1.5,2.6-2.8,3.5c-4.8,3.4-11,4.1-16.5,1.9c-2.5-1.1-4.7-2.8-6.2-5.1
		c-1.5-2.1-2.4-4.6-2.5-7.2c0-1.2,0.2-2.5,0.6-3.7c0.4-1.1,1.1-2.2,2.1-2.9c0.9-0.7,2.1-1.2,3.3-1.2c1.2-0.1,2.3,0.3,3.2,1.1
		c0.8,0.8,1.3,1.8,1.4,2.9c0.1,1,0,2.1-0.4,3c-0.8,1.8-2.3,3.1-4.2,3.8c-1.6,0.6-3.3,0.9-5,0.9c-2.7,0-5.4-0.5-7.9-1.6
		c-1.6-0.7-3-1.6-4.3-2.7c-0.5-0.4-0.8-0.7-1-0.9c-0.2-0.2-0.3-0.3-0.3-0.3s0.1,0.1,0.3,0.3c0.2,0.2,0.5,0.5,1,0.9
		c3.5,2.7,7.8,4.2,12.2,4.1c1.7,0,3.3-0.3,4.9-0.9c0.8-0.3,1.6-0.8,2.3-1.4c0.7-0.6,1.3-1.4,1.7-2.2c0.4-0.9,0.5-1.9,0.4-2.9
		c-0.1-1-0.6-2-1.3-2.7c-0.8-0.7-1.9-1.1-2.9-1c-1.1,0.1-2.2,0.5-3.1,1.1c-0.9,0.7-1.6,1.7-2,2.8c-0.4,1.1-0.6,2.3-0.6,3.5
		c0.1,2.5,0.9,5,2.4,7.1c1.5,2.2,3.6,3.9,6.1,4.9c5.3,2.1,11.4,1.4,16.1-1.8c1.2-0.9,2.1-2,2.6-3.4c0.5-1.4,0.5-2.9-0.1-4.3
		c-0.3-0.7-0.8-1.2-1.3-1.7c-0.6-0.4-1.3-0.6-2-0.7c-1.4-0.2-2.9,0.3-4,1.2c-1.1,0.9-1.9,2.2-2.2,3.6c-0.3,1.4-0.3,2.8,0,4.2
		c0.7,2.7,2.3,5.1,3.9,7.2c1.6,2.1,3.7,3.8,6.1,5c2.3,1.1,4.9,1.3,7.4,0.7c2.3-0.6,4.2-2.2,5.2-4.4c0.5-1,0.7-2.1,0.6-3.3
		c-0.3-3.2-3.2-5.6-6.4-5.3c0,0,0,0,0,0c-0.9,0.2-1.8,0.6-2.5,1.2c-0.7,0.6-1.2,1.4-1.6,2.2c-0.7,1.5-1,3.2-1,4.8
		c0.1,2.7,1.1,5.3,2.7,7.4c1,1.4,2.2,2.6,3.7,3.5c0.4,0.2,0.8,0.5,1.1,0.7L167.6,399.3z"/>
	<path class="st11" d="M184.6,345.3c0,0-0.1-0.1-0.1-0.2l-0.4-0.5c-0.5-0.6-0.9-1.3-1.2-2c-1.2-2.7-1.5-5.7-0.9-8.5
		c0.4-2,1.3-3.8,2.7-5.4c0.4-0.4,0.9-0.7,1.4-0.9c0.6-0.2,1.2-0.1,1.8,0.2c0.5,0.3,1,0.8,1.2,1.3c0.2,0.6,0.4,1.2,0.4,1.8
		c0,2.6-0.9,5.1-2.6,7.1c-0.8,1.1-1.9,2-3.1,2.7c-1.2,0.7-2.6,1.1-4,1.2c-1.4,0-2.8-0.5-3.9-1.4c-1-0.9-1.8-2.1-2.3-3.4
		c-0.4-1.2-0.6-2.5-0.6-3.9c0-1.3,0.1-2.5,0.5-3.7c0.2-0.6,0.5-1.1,0.8-1.6c0.4-0.5,0.9-0.9,1.5-1c0.6-0.1,1.2,0,1.7,0.3
		c0.5,0.3,0.9,0.7,1.2,1.2c0.3,0.4,0.5,0.9,0.7,1.4c0.1,0.5,0.2,1,0.2,1.5c0,1-0.1,1.9-0.5,2.9c-0.6,1.6-1.5,3-2.8,4.1
		c-0.9,0.8-1.9,1.6-3,2.2c-0.9,0.5-1.6,0.9-2.1,1.1l-0.5,0.3c-0.1,0-0.1,0.1-0.2,0.1l0.2-0.1l0.5-0.3c0.5-0.3,1.2-0.7,2-1.2
		c1-0.7,2-1.4,2.9-2.2c1.2-1.1,2.1-2.5,2.7-4c0.3-0.9,0.5-1.8,0.4-2.8c0-0.5-0.1-1-0.2-1.4c-0.1-0.5-0.3-1-0.6-1.4
		c-0.3-0.4-0.7-0.8-1.1-1.1c-0.4-0.3-1-0.4-1.5-0.3c-1.1,0.2-1.7,1.3-2.1,2.4c-0.3,1.2-0.5,2.4-0.4,3.6c0,1.3,0.2,2.5,0.6,3.7
		c0.4,1.2,1.2,2.3,2.2,3.2c1,0.9,2.3,1.4,3.7,1.4c1.3,0,2.7-0.4,3.8-1.1c1.1-0.7,2.1-1.5,3-2.6c1.6-1.9,2.5-4.4,2.5-6.9
		c0-0.6-0.1-1.1-0.3-1.7c-0.2-0.5-0.6-0.9-1.1-1.2c-0.5-0.3-1-0.3-1.5-0.2c-0.5,0.2-0.9,0.5-1.3,0.8c-1.3,1.5-2.2,3.3-2.7,5.2
		c-0.4,1.6-0.4,3.2-0.2,4.9c0.2,1.2,0.5,2.4,1,3.5c0.3,0.7,0.7,1.4,1.1,2l0.4,0.5C184.5,345.2,184.6,345.3,184.6,345.3z"/>
	<path class="st13" d="M167.3,336.8c0,0,0,25.7,6.4,28.1c17.5,6.6,38.4,5.1,45.8,4.4c0.9-0.6,1.9-1.4,3.1-2.3l2.4-2
		c0,0,11.6,2.2,11.4,2.8c-0.2,0.6-4.5,2-9,1c-0.5,0.9-0.1,2.1,0.8,2.6c0.1,0,0.2,0.1,0.3,0.1c2.9,1.4,13.4,5.8,15,6.8
		c1.4,0.9,2.8,2.3,1.2,2.5c-1.6,0.1-10.4-2.1-10.4-2.1s11.6,2.6,11.1,4.3c-0.3,1.1-3.5,1.4-11-1.1c0,0,9.5,2.2,10.4,3.3
		c2,2.5-9.4-0.1-9.4-0.1c8,1.9,8,1.4,8,2.6c0,0.8-1.9,1-6.3,0.6c-3.6-0.3-7.4,0.1-13-0.1l0,0c0,0-71.5,12.7-78-18.8
		c-3.5-17-2.9-23.3-3.6-34.3"/>
	<path class="st14" d="M230.5,384.2c-0.1,0.2,2.4,0.9,5.4,1.5c3.1,0.6,5.5,1,5.6,0.8c0-0.2-2.4-0.9-5.4-1.5
		C233.1,384.4,230.6,384,230.5,384.2z"/>
	<path class="st14" d="M230.9,381.1c-0.1,0.2,2.5,1.1,5.7,1.9c3.2,0.9,5.8,1.4,5.9,1.2s-2.5-1.1-5.7-1.9
		C233.6,381.4,231,380.9,230.9,381.1z"/>
	<path class="st14" d="M231.3,377.8c-0.1,0.2,2.3,1.1,5.4,1.9s5.5,1.4,5.6,1.2c0.1-0.2-2.3-1.1-5.4-1.9
		C233.9,378.1,231.4,377.6,231.3,377.8z"/>
	<path class="st9" d="M154.1,311.6c-4.7-0.4-9.3,1.7-12,5.6c-2.4,3.4-4.7,8.9-3.6,17c2.2,15.8,3.9,21.1,3.9,21.1l29.1-4.6l-4-26.5
		C167.5,324.1,164,312.6,154.1,311.6z"/>
	<path class="st10" d="M154.1,311.6c-4.7-0.4-9.3,1.7-12,5.6c-2.4,3.4-4.7,8.9-3.6,17c2.2,15.8,3.9,21.1,3.9,21.1l29.1-4.6l-4-26.5
		C167.5,324.1,164,312.6,154.1,311.6z"/>
	<path class="st14" d="M227.3,365.5c-0.2,0-0.4,0-0.6-0.1c-0.4-0.1-1-0.2-1.8-0.3c-0.4,0-0.8,0.2-1.1,0.4c-0.4,0.3-0.8,0.6-1.2,0.9
		c-0.9,0.8-1.8,1.7-2.6,2.6l0,0l0,0c-2.3,0.7-4.6,1-6.9,1.1c-2.8,0-5.5-0.1-8.3-0.3c-6.7-0.5-12.7-0.8-17.1-1.4
		c-2.2-0.3-3.9-0.6-5.1-0.8c-0.6-0.1-1.1-0.2-1.4-0.3c-0.2,0-0.3-0.1-0.5-0.1c0.2,0,0.3,0,0.5,0.1l1.4,0.2c1.2,0.2,3,0.5,5.1,0.7
		c4.3,0.5,10.4,0.9,17.1,1.3c2.9,0.2,5.7,0.4,8.2,0.4c2.3,0,4.6-0.4,6.8-1l-0.1,0c0.8-0.9,1.7-1.8,2.7-2.6c0.4-0.3,0.8-0.7,1.2-0.9
		c0.4-0.3,0.8-0.4,1.3-0.4c0.8,0.1,1.4,0.3,1.8,0.4C227,365.3,227.1,365.4,227.3,365.5z"/>
	<path class="st11" d="M169.5,335.9c-0.1,0-0.1,0.1-0.2,0.1l-0.7,0.1l-1.1,0.1c-0.5,0-1,0-1.5-0.1c-2.3-0.3-4.4-1.2-6.1-2.7
		c-0.8-0.6-1.4-1.4-2-2.2c-0.6-0.9-1.1-1.9-1.4-2.9c-0.1-0.6-0.2-1.2-0.1-1.7c0-0.6,0.3-1.2,0.7-1.7c0.4-0.5,1.1-0.8,1.7-0.8
		c0.7,0,1.3,0.2,1.9,0.5c1.2,0.7,2.2,1.7,2.8,2.9c0.6,1.3,0.9,2.7,0.8,4.1c-0.1,1.5-0.6,2.9-1.5,4.1c-2,2.5-5,3.8-8.2,3.4
		c-3.1-0.4-5.9-2.1-7.6-4.7c-0.9-1.2-1.4-2.6-1.6-4c-0.1-0.7,0-1.5,0.2-2.2c0.2-0.7,0.6-1.3,1.2-1.8c0.5-0.5,1.1-0.8,1.8-0.9
		c0.7-0.1,1.4,0,2,0.3c1.2,0.6,2,1.7,2.3,3c0.3,1.2,0.3,2.4,0,3.5c-0.2,1.1-0.7,2.1-1.2,3c-1.8,2.8-4.9,4.5-8.2,4.3
		c-0.9,0-1.8-0.2-2.6-0.5c-0.3-0.1-0.6-0.2-0.8-0.4c0,0,0.3,0.1,0.9,0.3c0.8,0.2,1.7,0.4,2.6,0.4c1.4,0,2.7-0.2,4-0.8
		c1.7-0.8,3.1-2,4-3.5c0.6-0.9,1-1.9,1.2-2.9c0.3-1.1,0.3-2.3,0-3.4c-0.3-1.2-1-2.2-2.1-2.8c-0.5-0.3-1.2-0.4-1.8-0.3
		c-0.6,0.1-1.2,0.4-1.7,0.8c-0.5,0.4-0.8,1-1.1,1.6c-0.2,0.6-0.3,1.3-0.2,2c0.2,1.4,0.7,2.7,1.6,3.9c1.7,2.5,4.4,4.2,7.4,4.6
		c3,0.3,6-0.9,7.8-3.3c1.7-2.3,2-5.3,0.7-7.8c-0.3-0.6-0.7-1.1-1.1-1.6c-0.4-0.5-0.9-0.8-1.5-1.1c-0.5-0.3-1.1-0.4-1.7-0.4
		c-0.6,0-1.1,0.2-1.5,0.7c-0.4,0.4-0.6,1-0.6,1.5c0,0.5,0,1.1,0.1,1.6c0.3,1,0.7,2,1.3,2.8c0.5,0.8,1.2,1.5,1.9,2.2
		c0.6,0.6,1.4,1,2.1,1.4c1.2,0.6,2.5,1.1,3.9,1.3C167.1,336.1,168.3,336.1,169.5,335.9z"/>
	<path class="st3" d="M154.2,255.7c-1.6-4.4-6.4-6.7-10.8-5.2c-1.7,0.6-3.2,1.8-4.2,3.3c-1.1,1.7-1.6,3.6-2.3,5.5
		c-0.7,1.9-1.7,3.8-3.5,4.7c-2.1,1.1-4.8,0.7-6.6,2.2c-2.1,1.6-2.2,5-0.4,6.9s4.8,2.3,7.2,1.4c-0.6,1.5-0.9,3.1-1,4.8
		c0,1.7,0.7,3.2,2.1,4.2c1.5,0.8,3.3,0.8,4.7-0.1c1.4-0.8,2.6-2,3.6-3.4c0.2,1.1,0.6,2.3,1.2,3.3c0.6,1,1.6,1.8,2.7,2
		c1.5,0.1,2.9-0.6,3.7-1.8c0.8-1.2,1.2-2.6,1.3-4.1c0.4-3.5,0.2-7.1-0.7-10.6c-0.5-2.2-1.3-4.5-0.9-6.7c0.4-2.2,2.6-4.3,4.8-3.7"/>
	<path class="st6" d="M125.7,270.9c0.1,0.1,0.2,0.1,0.4,0.2c0.4,0.1,0.7,0.2,1.1,0.3c3.6,0.8,7.3-0.3,9.9-2.8c0.9-0.9,1.7-1.9,2.3-3
		c0.6-1.2,1-2.5,1.3-3.9c0.2-1.3,0.6-2.6,1.1-3.8c0.4-1.1,1.2-2.1,2.2-2.8c1.7-1.2,3.8-1.6,5.8-1.1c1.3,0.3,2.6,1,3.6,2
		c0.7,0.7,1.1,1.1,1.1,1.1s-0.1-0.1-0.2-0.4c-0.2-0.3-0.5-0.6-0.7-0.9c-1-1-2.3-1.8-3.7-2.2c-2.1-0.6-4.4-0.2-6.2,1.1
		c-1.1,0.8-1.9,1.8-2.4,3c-0.5,1.3-0.9,2.6-1.1,3.9c-0.2,1.3-0.6,2.5-1.2,3.7c-1.5,3-4.3,5.1-7.5,5.8c-1.4,0.3-2.8,0.3-4.2,0.1
		C126.2,271,125.7,270.9,125.7,270.9z"/>
	<path class="st6" d="M144.7,284.3c0,0,0.1-0.1,0.3-0.2c0.3-0.2,0.5-0.4,0.7-0.7c0.7-1,1.2-2.2,1.3-3.4c0.2-1.8,0-3.6-0.6-5.4
		c-0.5-2-1.4-4-1.7-6.3c-0.3-2.1,0.1-4.3,1.2-6.1c0.9-1.5,2.2-2.7,3.8-3.5c1.1-0.5,2.2-0.8,3.4-0.9c0.4,0,0.9,0,1.3-0.1
		c-0.4-0.1-0.9-0.2-1.3-0.1c-1.2,0-2.4,0.3-3.6,0.8c-1.7,0.8-3.1,2-4.1,3.6c-1.2,1.9-1.7,4.3-1.3,6.5c0.3,2.4,1.2,4.4,1.8,6.3
		c0.6,1.7,0.8,3.4,0.7,5.2c-0.1,1.2-0.4,2.3-1.1,3.3C145.1,283.9,144.7,284.2,144.7,284.3z"/>
	<path class="st3" d="M193,270.6c5.7-13.1-2.1-21.1-7.2-24c-3-1.7-6.6-2.1-10.1-2.2c-3.4-0.2-6.9,0.1-10.2,0.9
		c-3.3,0.8-6.4,2.5-8.8,5c-4.1,4.4-5.1,11-4.7,17.1c0.4,7.2,2.5,14.1,6,20.4c0.4,0.8,1,1.6,1.8,2.1c0.8,0.5,1.9,0.3,2.5-0.4"/>
	<path class="st13" d="M183.3,303.3l-0.2-6.9c0,0,8.1-1.3,9.7-11.9c0.8-5.2,0.6-13.8,0.1-20.8c-0.4-6.1-5.7-10.8-11.8-10.4
		c-0.2,0-0.3,0-0.5,0l-18.2,1.9c-1.9,0.2-3.4,1.8-3.3,3.8l0,0l2.4,45.2c0.3,5.8,5.1,10.3,10.8,10.3l0,0c6,0,10.9-4.8,10.9-10.8
		C183.3,303.6,183.3,303.4,183.3,303.3z"/>
	<path class="st3" d="M191.1,269.7c0,0.7-0.6,1.3-1.3,1.4c-0.7,0.1-1.3-0.5-1.4-1.2c0,0,0,0,0,0c0-0.7,0.6-1.3,1.3-1.4
		C190.5,268.4,191.1,268.9,191.1,269.7C191.1,269.6,191.1,269.6,191.1,269.7z"/>
	<path class="st3" d="M191.1,268.1c-0.2,0.2-1.2-0.6-2.6-0.6c-1.5,0-2.5,0.7-2.7,0.5s0.1-0.4,0.6-0.7c0.6-0.4,1.4-0.7,2.2-0.7
		c0.8,0,1.5,0.2,2.1,0.7C191,267.7,191.2,268.1,191.1,268.1z"/>
	<path class="st3" d="M176.6,270c0,0.7-0.6,1.3-1.3,1.4c-0.7,0.1-1.3-0.5-1.4-1.2c0,0,0,0,0,0c0-0.7,0.6-1.3,1.3-1.4
		C175.9,268.8,176.5,269.3,176.6,270C176.6,270,176.6,270,176.6,270z"/>
	<path class="st3" d="M176.8,268.4c-0.2,0.2-1.2-0.6-2.6-0.6c-1.4,0-2.5,0.7-2.7,0.6c-0.2-0.2,0.1-0.4,0.6-0.7
		c0.6-0.4,1.4-0.7,2.2-0.7c0.8,0,1.5,0.2,2.1,0.7C176.8,268,176.9,268.3,176.8,268.4z"/>
	<path class="st3" d="M182.1,279.2c0.8-0.2,1.6-0.4,2.4-0.4c0.4,0,0.7-0.1,0.8-0.4c0-0.4-0.1-0.8-0.2-1.1l-1.1-2.8
		c-1.5-4-2.6-7.3-2.5-7.4c0.2-0.1,1.5,3.2,3.1,7.2c0.4,1,0.7,1.9,1,2.8c0.2,0.4,0.3,1,0.2,1.4c-0.1,0.3-0.3,0.5-0.6,0.5
		c-0.2,0.1-0.4,0.1-0.6,0.1C183.7,279.3,182.9,279.3,182.1,279.2z"/>
	<path class="st14" d="M183.1,296.4c-5,0.1-9.8-1.2-14.1-3.8c0,0,3.4,7.2,13.9,6.2L183.1,296.4z"/>
	<path class="st14" d="M181.5,282.7c-0.6-0.7-1.5-1.1-2.3-1c-0.6,0.1-1.2,0.4-1.6,0.9c-0.4,0.5-0.4,1.2-0.1,1.7
		c0.5,0.5,1.2,0.7,1.9,0.5c0.7-0.2,1.3-0.6,1.9-1.1c0.2-0.1,0.3-0.3,0.4-0.4C181.6,283.1,181.6,282.9,181.5,282.7"/>
	<path class="st3" d="M177.8,280.2c0.2,0,0.2,1.6,1.6,2.7c1.3,1.1,3,0.9,3,1.2c0,0.1-0.4,0.3-1.1,0.3c-0.9,0-1.8-0.3-2.5-0.9
		c-0.7-0.6-1.1-1.4-1.2-2.2C177.5,280.6,177.7,280.2,177.8,280.2z"/>
	<path class="st3" d="M177.5,265.9c-0.1,0.4-1.6,0.2-3.3,0.4c-1.7,0.2-3.1,0.7-3.3,0.3c-0.1-0.2,0.1-0.5,0.7-0.9
		c0.7-0.5,1.6-0.8,2.5-0.9c0.9-0.1,1.8,0,2.6,0.3C177.2,265.4,177.5,265.7,177.5,265.9z"/>
	<path class="st3" d="M190.6,263.9c-0.3,0.3-1.3,0-2.5,0c-1.2,0-2.2,0.2-2.5-0.1c-0.1-0.2,0.1-0.5,0.5-0.8c0.6-0.4,1.3-0.6,2-0.5
		c0.7,0,1.4,0.2,2,0.7C190.5,263.4,190.7,263.8,190.6,263.9z"/>
	<path class="st3" d="M193,263.7c-1.8-9-4.3-5.4-7.2-9.7c-4.1,4.1-13.5,8.9-19.3,9.9c-0.6,0-1.2,0.2-1.7,0.5c-0.9,0.7-1,1.9-1,3
		c0.1,3.1-0.1,6.2-0.8,9.3c-0.6,3.1-2.2,5.9-4.5,8c-3.5-7.3-3.8-15.8-2.3-23.8c0.6-3.2,1.7-6.6,4.3-8.7c1.9-1.4,4.2-2.1,6.6-2.5
		c5.7-1.1,11.8-1.3,17.3,0.7c5.5,2,9.7,4.6,10.5,10.4"/>
	<path class="st6" d="M153.2,257.4c0.4,0.3,0.8,0.5,1.2,0.6c0.5,0.2,0.9,0.4,1.4,0.6l0.9,0.3l1.1,0.3c1.8,0.4,3.6,0.7,5.4,0.7
		c4.5,0.2,8.9-0.6,13.1-2.2c0.9-0.4,1.9-0.8,2.6-1.2l1.2-0.6l1-0.7c0.6-0.4,1.1-0.8,1.7-1.2l0.7-0.5l0.5-0.5c0.3-0.3,0.6-0.6,0.9-1
		c-0.1-0.1-1.4,1.3-4,2.9l-1,0.6l-1.2,0.6c-0.8,0.4-1.7,0.7-2.6,1.1c-2.1,0.7-4.2,1.3-6.3,1.7c-2.2,0.3-4.3,0.5-6.5,0.5
		c-1.8,0-3.6-0.2-5.3-0.6C154.9,258.2,153.3,257.3,153.2,257.4z"/>
	<path class="st6" d="M156.2,250.3c0.3,0.3,0.6,0.5,0.9,0.7c0.4,0.3,0.8,0.5,1.2,0.7l0.8,0.4l0.9,0.4c3.3,1.3,6.8,1.9,10.3,1.8
		c3.5,0,7-0.4,10.4-1.2c1.3-0.3,2.4-0.6,3.1-0.8c0.4-0.1,0.7-0.2,1.1-0.4c0-0.1-1.6,0.3-4.2,0.8c-3.4,0.7-6.9,1-10.4,1
		c-3.5,0-6.9-0.5-10.2-1.6C158.7,251.6,157.4,251,156.2,250.3z"/>
	<path class="st6" d="M188.5,248c0-0.1-0.4-0.1-0.9,0c-1.5,0.4-2.6,1.7-2.7,3.3c0,0.6,0.1,0.9,0.2,0.9c0.1,0,0.1-1.4,1.1-2.6
		C187.2,248.4,188.5,248.2,188.5,248z"/>
	<path class="st3" d="M134.2,259.3c-0.1-0.1-0.2-0.3-0.3-0.4c-0.4-0.3-0.8-0.5-1.3-0.6c-0.8-0.1-1.5,0.1-2.2,0.5
		c-0.9,0.6-1.4,1.6-1.3,2.7c0.1,1.3,0.9,2.4,2,3c1.3,0.6,2.9,0.5,4.1-0.4c0.6-0.4,1.2-1,1.5-1.7c0.3-0.7,0.5-1.5,0.6-2.3
		c0.1-1.6-0.2-3.2,0.1-4.8c0.6-3,2.7-5.5,5.6-6.5c2.4-0.8,5-0.5,7,0.9c1.4,0.9,2.6,2.2,3.3,3.7c0.5,1.1,0.6,1.7,0.7,1.7
		c0-0.2,0-0.3-0.1-0.5c-0.1-0.5-0.2-0.9-0.4-1.3c-0.7-1.6-1.8-3-3.3-3.9c-1-0.7-2.1-1.1-3.3-1.4c-1.4-0.3-2.8-0.1-4.1,0.3
		c-3.1,1.1-5.4,3.7-6,6.9c-0.3,1.7,0,3.3-0.1,4.8c0,0.7-0.2,1.4-0.5,2.1c-0.3,0.6-0.7,1.2-1.3,1.5c-1,0.8-2.4,1-3.6,0.4
		c-1-0.5-1.7-1.5-1.8-2.6c-0.1-0.9,0.3-1.8,1-2.3c0.6-0.4,1.3-0.6,2-0.5C133.2,258.7,133.7,258.9,134.2,259.3z"/>
	<path class="st3" d="M161.8,264.1c0.4,0.1,0.7,0.1,1.1,0.1c0.7,0,1.7,0,3,0c3.3-0.1,6.6-0.6,9.7-1.7c3.2-1.1,5.9-3.1,8-5.8
		c0.6-0.8,1.1-1.7,1.4-2.7c0.1-0.3,0.2-0.7,0.3-1.1c-0.6,1.2-1.2,2.4-2,3.5c-2,2.5-4.7,4.4-7.8,5.5c-3.1,1-6.3,1.6-9.6,1.8
		C164.5,263.8,163.1,263.9,161.8,264.1z"/>
	<path class="st3" d="M146.9,289.8c0,0,0,0.4,0.5,1c0.7,0.8,1.7,1.3,2.7,1.3c1.6,0,3.1-0.5,4.2-1.6c0.7-0.6,1.2-1.5,1.3-2.4
		c0.1-1.1-0.4-2.1-1.4-2.6c-1-0.5-2.3,0-2.8,1c-0.2,0.5-0.2,1.1,0.1,1.5c0.2,0.4,0.6,0.8,1,1c0.8,0.3,1.7,0.4,2.5,0
		c0.7-0.2,1.3-0.6,1.8-1.2c0.7-0.7,1.2-1.7,1.3-2.7c0.1-0.4,0.1-0.7-0.1-1.1c-0.1,0,0,0.4-0.2,1.1c-0.2,0.9-0.7,1.8-1.4,2.5
		c-0.5,0.5-1,0.8-1.7,1c-0.7,0.2-1.4,0.2-2.1-0.1c-0.7-0.3-1.1-1.1-0.8-1.8c0.4-0.7,1.3-1,2-0.7c0.7,0.4,1.1,1.2,1,2.1
		c-0.1,0.8-0.5,1.5-1.1,2.1c-1,1-2.4,1.5-3.8,1.6c-1,0-1.9-0.4-2.6-1.1C147.1,290.1,146.9,289.8,146.9,289.8z"/>
	<path class="st6" d="M207.2,417.7c0,0.1-26.2,0.2-58.6,0.2s-58.6-0.1-58.6-0.2s26.2-0.2,58.6-0.2S207.2,417.6,207.2,417.7z"/>
</g>
<g id="freepik--Plant--inject-8">
	<path class="st9" d="M53.6,375.7c2.5,0.4,4.8,1.8,6.3,4c1.4,2.1,2.4,4.5,2.7,7c0.8,4.8-0.5,10.4-2.2,14.9c-5-2.3-7.6-8-8.8-11.1
		C49.8,385.9,49.3,376.2,53.6,375.7"/>
	<path class="st9" d="M67.2,408.1c-1.3-2.6-1.2-5.7,0.4-8.1c1.6-2.4,4.1-4,6.9-4.6c1.3-0.3,2.7-0.3,3.8,0.5c0.9,0.8,1.3,2.1,1,3.3
		c-0.3,1.2-0.9,2.3-1.8,3.2C74.7,405.6,71.4,408.1,67.2,408.1"/>
	<path class="st3" d="M66.3,423.9c-0.1-0.3-0.1-0.7-0.1-1c-0.1-0.7-0.2-1.6-0.3-2.7c-0.4-3-0.3-6.1,0.3-9.1c0.6-3,2.1-5.8,4.1-8.1
		c0.6-0.7,1.3-1.3,2.1-1.8c0.2-0.1,0.4-0.3,0.7-0.4c0.1,0,0.2-0.1,0.2-0.1c-1,0.7-2,1.5-2.8,2.4c-2,2.3-3.3,5-4,8
		c-0.8,3.4-0.5,6.7-0.4,9c0.1,1.2,0.1,2.1,0.2,2.8C66.3,423.2,66.3,423.6,66.3,423.9z"/>
	<path class="st3" d="M54.6,383.1c0.1,0.1,0.1,0.3,0.2,0.4c0.1,0.3,0.3,0.7,0.4,1.2c0.4,1,0.9,2.5,1.4,4.4c1.2,3.7,2.8,8.9,4.4,14.6
		c1.6,5.7,3,11,3.9,14.8c0.5,1.9,0.8,3.4,1.1,4.5c0.1,0.5,0.2,0.9,0.3,1.2c0,0.1,0.1,0.3,0.1,0.4c-0.1-0.1-0.1-0.3-0.1-0.4L66,423
		c-0.3-1.1-0.7-2.6-1.2-4.5c-1-3.8-2.4-9-4-14.7c-1.6-5.7-3.2-10.9-4.3-14.7c-0.6-1.8-1-3.3-1.4-4.4c-0.1-0.5-0.3-0.9-0.4-1.2
		C54.7,383.4,54.6,383.2,54.6,383.1z"/>
	<path class="st9" d="M61.2,412.9c-2.6-5.5-7.7-9.4-13.7-10.4c-1.5-0.3-3.3-0.2-4.2,1.1c-0.8,1.3,0,3,0.9,4.2
		c4.1,5.1,10.8,7.3,17,5.5"/>
	<path class="st3" d="M49.4,406.8c0.3,0,0.6,0.1,0.9,0.1c0.4,0.1,0.7,0.1,1.1,0.2c0.4,0.1,0.9,0.2,1.4,0.4c0.6,0.2,1.1,0.4,1.7,0.6
		c0.6,0.3,1.3,0.6,1.9,0.9c1.4,0.8,2.7,1.7,3.8,2.8c1.1,1.1,2.2,2.3,3,3.6c0.4,0.6,0.7,1.2,1,1.8c0.3,0.5,0.5,1.1,0.7,1.6
		c0.2,0.5,0.3,0.9,0.5,1.4c0.1,0.4,0.2,0.7,0.3,1.1c0.1,0.3,0.1,0.6,0.2,0.9c-0.1,0-0.3-1.3-1.1-3.3c-0.2-0.5-0.5-1.1-0.8-1.6
		c-0.3-0.6-0.7-1.2-1-1.7c-1.7-2.6-4-4.8-6.8-6.3c-0.6-0.3-1.2-0.7-1.8-0.9c-0.6-0.3-1.1-0.5-1.6-0.7
		C50.7,407,49.4,406.8,49.4,406.8z"/>
</g>
<g>
	
		<rect x="205.2" y="137.5" transform="matrix(0.9962 -8.732961e-02 8.732961e-02 0.9962 -14.3864 21.7492)" class="st9" width="72.3" height="75.6"/>
	
		<rect x="183.4" y="140" transform="matrix(0.9962 -8.732961e-02 8.732961e-02 0.9962 -14.7082 19.3113)" class="st9" width="59.9" height="75.6"/>
	<polygon class="st11" points="203.7,143.1 210.6,215.9 220.1,215.1 212.2,142.3 	"/>
	<path class="st11" d="M183.9,184.1c0-0.1,0.6,0,1.6-0.2c1.4-0.2,2.7-0.6,4-1.3c1.9-0.9,3.5-2.3,4.6-4.1c1.4-2.1,2-4.7,1.8-7.3
		c-0.2-2.6-1.3-5-3.1-6.8c-1.5-1.5-3.4-2.5-5.4-2.9c-1.4-0.3-2.8-0.4-4.2-0.2c-1,0.2-1.5,0.4-1.5,0.3s0.1-0.1,0.4-0.2
		c0.4-0.1,0.7-0.3,1.1-0.3c1.4-0.3,2.9-0.3,4.3,0c4.9,0.9,8.6,5,8.9,10c0.3,2.7-0.4,5.3-1.9,7.6c-1.2,1.8-2.9,3.2-4.9,4.1
		c-1.3,0.6-2.7,1-4.2,1.1c-0.4,0-0.8,0-1.2,0C184.1,184.1,183.9,184.1,183.9,184.1z"/>
	<path class="st11" d="M246.1,169.4c-0.1-0.9-0.2-1.7-0.4-2.6c-0.6-2.3-2-4.3-3.9-5.7c-2.8-2.1-6.5-2.7-9.9-1.4
		c-0.9,0.3-1.8,0.8-2.6,1.4c-0.8,0.6-1.6,1.4-2.2,2.2c-2.7,3.6-2.7,8.6,0,12.2c0.6,0.9,1.3,1.6,2.2,2.2c0.8,0.6,1.7,1.1,2.6,1.4
		c3.3,1.2,7,0.7,9.9-1.5c1.9-1.4,3.3-3.4,3.9-5.7C245.9,171.2,246,170.3,246.1,169.4c0.1,0.9,0,1.8-0.2,2.6c-1,4.1-4.3,7.2-8.4,8
		c-1.9,0.4-3.9,0.2-5.7-0.4c-1-0.3-1.9-0.8-2.8-1.5c-0.9-0.6-1.7-1.4-2.3-2.3c-2.8-3.8-2.8-9,0-12.9c0.6-0.9,1.4-1.7,2.3-2.3
		c0.8-0.6,1.8-1.1,2.8-1.5c1.8-0.7,3.8-0.8,5.7-0.4c4.1,0.8,7.4,3.9,8.4,8C246.1,167.6,246.2,168.5,246.1,169.4z"/>
	<path class="st11" d="M271.3,198.6c-0.1-0.9-0.2-1.7-0.4-2.6c-0.6-2.3-2-4.3-3.9-5.7c-2.8-2.1-6.5-2.7-9.8-1.4
		c-0.9,0.3-1.8,0.8-2.6,1.4c-0.8,0.6-1.6,1.4-2.2,2.2c-2.7,3.6-2.7,8.6,0,12.2c0.6,0.8,1.3,1.6,2.2,2.2c0.8,0.6,1.7,1.1,2.6,1.4
		c5.5,2,11.5-0.8,13.4-6.3c0.1-0.3,0.2-0.6,0.3-0.9C271.1,200.3,271.2,199.5,271.3,198.6c0.1,0.9,0,1.8-0.2,2.6
		c-1,4.1-4.3,7.2-8.4,8c-1.9,0.4-3.9,0.2-5.7-0.4c-1-0.3-1.9-0.8-2.8-1.5c-0.9-0.6-1.7-1.4-2.3-2.3c-2.8-3.8-2.8-9,0-12.9
		c1.3-1.7,3-3,5.1-3.8c1.8-0.7,3.8-0.8,5.7-0.4c4.1,0.8,7.4,3.9,8.4,8C271.3,196.8,271.4,197.7,271.3,198.6z"/>
	<path class="st11" d="M222.5,214.4c-0.4-1.6-1-3.1-1.8-4.4c-2.2-3.3-6.1-5-10-4.5c-2.1,0.3-4.1,1.2-5.7,2.6
		c-1.3,1.2-2.3,2.6-2.9,4.3c-0.5,1.5-0.7,3.1-0.7,4.8c0,0,0-0.1-0.1-0.3c-0.1-0.3-0.1-0.7-0.1-1c0-1.2,0.1-2.4,0.5-3.6
		c0.6-1.7,1.6-3.3,2.9-4.5c0.8-0.7,1.7-1.3,2.6-1.8c1-0.5,2.2-0.8,3.3-1c2.2-0.3,4.5,0.2,6.4,1.2c1.6,0.9,2.9,2.1,3.9,3.6
		c0.7,1,1.1,2.1,1.4,3.3c0.1,0.4,0.1,0.8,0.1,1S222.6,214.4,222.5,214.4z"/>
	<path class="st11" d="M259.4,137.5c-0.1-0.9-0.2-1.7-0.4-2.6c-0.6-2.3-2-4.3-3.9-5.7c-2.8-2.1-6.5-2.7-9.9-1.4
		c-1.9,0.7-3.6,2-4.8,3.6c-2.7,3.6-2.7,8.6,0,12.2c0.6,0.9,1.3,1.6,2.2,2.2c0.8,0.6,1.7,1.1,2.6,1.4c3.3,1.2,7,0.7,9.9-1.5
		c1.9-1.4,3.3-3.4,3.9-5.7C259.2,139.2,259.4,138.3,259.4,137.5c0.1,0.9,0,1.8-0.2,2.6c-1,4.1-4.3,7.2-8.4,8
		c-1.9,0.4-3.9,0.2-5.7-0.4c-2-0.7-3.8-2-5.1-3.8c-2.8-3.8-2.8-9,0-12.9c0.6-0.9,1.4-1.7,2.3-2.3c0.8-0.6,1.8-1.1,2.8-1.4
		c3.5-1.2,7.3-0.6,10.2,1.6c1.9,1.5,3.3,3.6,3.9,6C259.4,135.7,259.5,136.6,259.4,137.5z"/>
	<path class="st11" d="M213.8,139.9c-0.1-0.9-0.2-1.7-0.4-2.6c-0.6-2.3-2-4.3-3.9-5.7c-2.8-2.1-6.5-2.7-9.9-1.4
		c-0.9,0.3-1.8,0.8-2.6,1.4c-0.8,0.6-1.6,1.4-2.2,2.2c-2.7,3.6-2.7,8.6,0,12.2c1.2,1.7,2.9,2.9,4.8,3.6c1.7,0.6,3.6,0.8,5.5,0.5
		c1.6-0.3,3.1-1,4.4-1.9c1.9-1.4,3.3-3.4,3.9-5.7C213.5,141.6,213.7,140.8,213.8,139.9c0.1,0.9,0,1.8-0.2,2.6
		c-0.6,2.4-1.9,4.5-3.8,6c-2.9,2.2-6.8,2.8-10.2,1.5c-1-0.3-1.9-0.8-2.8-1.5c-0.9-0.6-1.7-1.4-2.3-2.3c-2.8-3.8-2.8-9,0-12.9
		c0.6-0.9,1.4-1.7,2.3-2.3c0.8-0.6,1.8-1.1,2.8-1.5c1.8-0.7,3.8-0.8,5.7-0.4c4.1,0.8,7.4,3.9,8.4,8
		C213.8,138.1,213.8,139,213.8,139.9z"/>
	<polygon class="st4" points="255.7,138.5 262.9,211.3 273,210.4 265.5,137.6 	"/>
	<path class="st4" d="M226.8,118.5c0-0.4,1-0.8,2.8-1.2s4.5-0.8,7.6-1.4c1.6-0.3,3.3-0.7,5.1-1.1c0.9-0.2,1.8-0.5,2.7-0.8
		c0.9-0.3,1.8-0.6,2.7-1c0.5-0.2,1-0.5,1.3-1c0-0.1,0-0.2,0-0.4c-0.1-0.4-0.2-0.7-0.3-1.1c-0.7-2.2-1.6-4.3-2.6-6.4
		c-0.5-0.9-1.1-1.8-1.8-2.6c-0.3-0.4-0.7-0.8-1-1.1c-0.3-0.3-0.6-0.5-1-0.7c-0.4-0.3-0.9-0.4-1.4-0.3c-0.7,0.3-1.4,0.7-1.9,1.2
		c-2.7,2.4-5.1,5.1-7.1,8.2c-3.3,5.3-4.2,9.3-5,9.2c-0.3,0-0.6-1.1-0.4-3.1c0.3-2.7,1-5.4,2.2-7.9c1.7-3.7,4.1-7.1,7.1-10
		c1-1.1,2.3-1.9,3.7-2.4c0.9-0.3,1.8-0.4,2.8-0.3c0.9,0.1,1.7,0.4,2.5,0.8c0.7,0.4,1.4,0.8,2,1.4c0.5,0.5,1.1,1,1.5,1.6
		c0.9,1.1,1.7,2.3,2.4,3.5c1.2,2.3,2.1,4.8,2.9,7.2c0.3,0.8,0.4,1.5,0.5,2.3c0.1,1-0.1,2.1-0.6,3c-0.5,0.8-1.1,1.5-1.9,2.1
		c-0.6,0.4-1.3,0.7-1.9,1c-1.1,0.4-2.2,0.7-3.3,1c-1.1,0.3-2.1,0.5-3.1,0.6c-4.5,0.7-9,0.9-13.5,0.4
		C227.9,119.1,226.8,118.8,226.8,118.5z"/>
	<path class="st11" d="M228.1,118.9c0,0.4-1.2,0.6-3.3,0.8c-3,0.2-5.9,0.1-8.9-0.1c-4.5-0.3-8.9-1-13.2-2.2
		c-1.4-0.4-2.8-0.9-4.1-1.7c-0.9-0.5-1.6-1.2-2.2-2.1c-0.7-1-1-2.2-0.9-3.5c0.1-0.9,0.3-1.8,0.6-2.6c0.2-0.6,0.5-1.3,0.7-2
		c0.5-1.4,1.1-2.8,1.9-4.1c0.8-1.4,1.7-2.7,2.8-3.9c0.6-0.6,1.2-1.1,1.8-1.6c0.7-0.5,1.4-1,2.2-1.3c1.7-0.8,3.6-1,5.4-0.5
		c1.5,0.4,3,1.2,4.2,2.2c3.6,2.9,6.6,6.3,9,10.2c1.6,2.6,2.8,5.5,3.4,8.5c0.4,2.1,0.3,3.4-0.1,3.4c-0.8,0.2-2-4.3-6.4-9.8
		c-2.6-3.2-5.6-6.1-8.9-8.5c-0.7-0.6-1.6-1-2.5-1.2c-0.8-0.1-1.5,0-2.2,0.3c-0.4,0.2-0.8,0.5-1.2,0.8c-0.4,0.3-0.8,0.7-1.2,1.1
		c-0.8,0.9-1.5,1.8-2,2.9c-0.6,1.1-1.1,2.3-1.6,3.5l-0.7,1.9c-0.2,0.4-0.3,0.8-0.4,1.3c0,0.2,0,0.2,0,0.3c0.2,0.2,0.4,0.4,0.6,0.6
		c0.9,0.5,1.8,1,2.8,1.3c4,1.3,8.1,2.4,12.2,3.1c3.6,0.7,6.5,1.2,8.6,1.7S228.1,118.6,228.1,118.9z"/>
	
		<rect x="196.2" y="114.8" transform="matrix(0.9962 -8.732961e-02 8.732961e-02 0.9962 -10.2002 21.4658)" class="st9" width="88" height="25"/>
	
		<rect x="172.4" y="117.3" transform="matrix(0.9962 -8.732961e-02 8.732961e-02 0.9962 -10.522 19.027)" class="st9" width="79.6" height="25"/>
	<polygon class="st11" points="195.8,118.6 198.4,143.7 207.6,142.7 205,117.8 	"/>
	<polygon class="st4" points="261.5,113 264.4,137.8 274.5,136.9 272,112 	"/>
	<path class="st11" d="M213.2,117.8c0.3,1.6,0.9,3.1,1.8,4.5c1,1.5,2.3,2.6,3.8,3.5c5.1,2.7,11.4,0.8,14.2-4.3
		c0.2-0.4,0.4-0.8,0.6-1.3c0.5-1.5,0.8-3.1,0.8-4.8c0,0,0,0.1,0.1,0.3c0.1,0.3,0.1,0.7,0.1,1c0,1.2-0.2,2.4-0.6,3.6
		c-0.6,1.7-1.6,3.3-3,4.5c-0.8,0.7-1.7,1.3-2.7,1.8c-1,0.5-2.2,0.8-3.3,0.9c-2.2,0.2-4.5-0.2-6.4-1.3c-1.6-0.9-2.9-2.2-3.9-3.7
		c-0.6-1-1.1-2.2-1.3-3.3c-0.1-0.3-0.1-0.7-0.1-1C213.2,118,213.2,117.9,213.2,117.8z"/>
	<path class="st11" d="M222.8,141c-0.3-1.6-0.9-3.1-1.8-4.4c-1-1.5-2.3-2.6-3.8-3.5c-3.8-2.1-8.6-1.5-11.8,1.3
		c-1.3,1.1-2.3,2.6-2.9,4.2c-0.5,1.5-0.8,3.1-0.8,4.7c0,0,0-0.1-0.1-0.3c-0.1-0.3-0.1-0.7-0.1-1c0-1.2,0.2-2.4,0.6-3.6
		c0.6-1.7,1.6-3.2,3-4.4c0.8-0.7,1.7-1.3,2.7-1.8c1.1-0.5,2.2-0.8,3.3-0.9c2.2-0.2,4.5,0.2,6.4,1.3c1.6,0.9,2.9,2.1,3.9,3.7
		c0.6,1,1.1,2.2,1.3,3.3c0.1,0.3,0.1,0.7,0.1,1C222.8,140.9,222.8,141,222.8,141z"/>
	<path class="st11" d="M265.6,126.1c-0.1-0.9-0.2-1.7-0.4-2.6c-0.6-2.3-2-4.3-3.9-5.7c-1.3-1-2.8-1.6-4.4-1.9
		c-1.8-0.3-3.7-0.2-5.5,0.5c-0.9,0.3-1.8,0.8-2.6,1.4c-0.8,0.6-1.6,1.4-2.2,2.2c-2.7,3.6-2.7,8.6,0,12.2c0.6,0.8,1.3,1.6,2.2,2.2
		c0.8,0.6,1.7,1.1,2.6,1.4c1.7,0.6,3.6,0.8,5.5,0.5c1.6-0.3,3.1-0.9,4.4-1.9c1.9-1.4,3.3-3.4,3.9-5.7
		C265.4,127.8,265.5,126.9,265.6,126.1c0.1,0.9,0,1.8-0.2,2.6c-0.5,2.4-1.9,4.5-3.8,6c-2.9,2.3-6.8,2.9-10.2,1.6
		c-1-0.3-1.9-0.8-2.8-1.5c-0.9-0.6-1.7-1.4-2.3-2.3c-2.8-3.8-2.8-9,0-12.9c0.6-0.9,1.4-1.7,2.3-2.3c0.8-0.6,1.8-1.1,2.8-1.5
		c1.8-0.7,3.8-0.8,5.7-0.4c1.7,0.3,3.2,1,4.5,2.1c1.9,1.5,3.3,3.6,3.9,6C265.6,124.4,265.7,125.2,265.6,126.1z"/>
	<path class="st11" d="M196.7,131.1c-0.1-0.9-0.2-1.7-0.4-2.6c-1-3.9-4.3-6.9-8.3-7.6c-1.8-0.3-3.7-0.2-5.5,0.5
		c-0.9,0.3-1.8,0.8-2.6,1.4c-0.8,0.6-1.6,1.4-2.2,2.2c-2.7,3.6-2.7,8.6,0,12.2c0.6,0.9,1.3,1.6,2.2,2.2c0.8,0.6,1.7,1.1,2.6,1.4
		c1.7,0.6,3.6,0.8,5.5,0.5c4-0.7,7.2-3.7,8.3-7.6C196.5,132.8,196.6,131.9,196.7,131.1c0.1,0.9,0,1.8-0.2,2.6
		c-0.5,2.4-1.9,4.5-3.9,6c-1.3,1-2.9,1.7-4.5,2.1c-1.9,0.4-3.9,0.2-5.7-0.4c-1-0.3-1.9-0.8-2.8-1.5c-0.9-0.6-1.7-1.4-2.3-2.3
		c-2.8-3.8-2.8-9,0-12.9c1.3-1.7,3-3,5.1-3.8c1.8-0.7,3.8-0.8,5.7-0.4c1.7,0.3,3.2,1,4.5,2.1c1.9,1.5,3.3,3.6,3.9,6
		C196.7,129.3,196.8,130.2,196.7,131.1z"/>
	<g class="st15">
		<polygon points="274.3,136.9 240.1,139.9 180.4,145.1 240.8,148.2 246.5,212.8 280.7,209.8 		"/>
	</g>
	<g class="st16">
		
			<rect x="251.8" y="112.4" transform="matrix(0.9962 -8.732961e-02 8.732961e-02 0.9962 -9.8829 23.8766)" width="32.4" height="25"/>
	</g>
</g>
</svg>
