<?xml version="1.0" encoding="utf-8"?>
<!-- Generator: Adobe Illustrator 24.2.3, SVG Export Plug-In . SVG Version: 6.00 Build 0)  -->
<svg version="1.1" id="Calque_1" xmlns="http://www.w3.org/2000/svg" xmlns:xlink="http://www.w3.org/1999/xlink" x="0px" y="0px"
	 viewBox="0 0 500 500" style="enable-background:new 0 0 500 500;" xml:space="preserve">
<style type="text/css">
	.st0{fill:#08ACC1;}
	.st1{fill:#455A64;}
	.st2{fill:#FFFFFF;}
	.st3{fill:#EBEBEB;}
	.st4{fill:#F5F5F5;}
	.st5{fill:#E0E0E0;}
	.st6{fill:#263238;}
	.st7{fill:#FFBE9D;}
	.st8{opacity:0.4;}
	.st9{opacity:0.5;}
	.st10{opacity:0.6;}
	.st11{fill:#EB996E;}
</style>
<g id="freepik--Icons--inject-4">
	<path class="st0" d="M393.4,183.1L393.4,183.1c-20.2,9.8-44.5,1.4-54.3-18.8l0,0c-9.8-20.2-1.4-44.5,18.8-54.3l0,0
		c20.2-9.8,44.5-1.4,54.3,18.8c0,0,0,0,0,0l0,0C422,149,413.6,173.3,393.4,183.1C393.4,183.1,393.4,183.1,393.4,183.1z"/>
	<path class="st0" d="M434,297.8L434,297.8c-14.4-5.5-21.7-21.7-16.2-36.1c0,0,0,0,0,0l0,0c5.5-14.5,21.7-21.7,36.1-16.2
		c0,0,0,0,0,0l0,0c14.4,5.5,21.7,21.7,16.2,36.1c0,0,0,0,0,0l0,0C464.7,296,448.5,303.3,434,297.8C434,297.8,434,297.8,434,297.8z"
		/>
	<path class="st0" d="M69.6,168.2L69.6,168.2c-11.8,0-21.4-9.6-21.4-21.4l0,0c0-11.8,9.6-21.4,21.4-21.4h0l0,0
		c11.8,0,21.4,9.6,21.4,21.4l0,0C91,158.7,81.4,168.2,69.6,168.2L69.6,168.2z"/>
	<path class="st1" d="M108,407.6L108,407.6c-19.8,4.7-39.6-7.5-44.3-27.3l0,0C59,360.6,71.2,340.7,91,336c0,0,0,0,0,0l0,0
		c19.8-4.7,39.6,7.5,44.3,27.3c0,0,0,0,0,0l0,0C140,383,127.8,402.9,108,407.6C108,407.6,108,407.6,108,407.6z"/>
	<path class="st1" d="M386.8,375.2L386.8,375.2c-9.5,0-17.2-7.7-17.2-17.1c0,0,0,0,0,0l0,0c0-9.5,7.7-17.2,17.2-17.2c0,0,0,0,0,0
		l0,0c9.5,0,17.2,7.7,17.2,17.1c0,0,0,0,0,0l0,0C404,367.5,396.3,375.2,386.8,375.2C386.8,375.2,386.8,375.2,386.8,375.2z"/>
</g>
<g>
	<g>
		<g>
			<path class="st2" d="M398,147.7c-0.2-0.4-0.2-0.9,0-1.3l1.8-3.8c1-2.1,0.2-4.6-1.8-5.7l-3.7-2c-0.4-0.2-0.7-0.6-0.7-1l-0.7-4.1
				c-0.4-2.3-2.5-3.8-4.8-3.5l-4.1,0.6c-0.4,0.1-0.9-0.1-1.2-0.4l-3-2.9c-1.7-1.6-4.3-1.6-6,0l-3,2.9c-0.3,0.3-0.8,0.5-1.2,0.4
				l-4.1-0.6c-2.3-0.3-4.4,1.2-4.8,3.5l-0.7,4.1c-0.1,0.4-0.4,0.8-0.7,1l-3.7,2c-2.1,1.1-2.9,3.6-1.8,5.7l1.8,3.8
				c0.2,0.4,0.2,0.9,0,1.3l-1.8,3.8c-1,2.1-0.2,4.6,1.8,5.7l3.7,2c0.4,0.2,0.7,0.6,0.7,1l0.7,4.1c0.4,2.1,2.2,3.5,4.2,3.5
				c0.2,0,0.4,0,0.6,0l4.1-0.6c0.4-0.1,0.9,0.1,1.2,0.4l3,2.9c0.8,0.8,1.9,1.2,3,1.2s2.1-0.4,3-1.2l3-2.9c0.3-0.3,0.8-0.5,1.2-0.4
				l4.1,0.6c2.3,0.3,4.4-1.2,4.8-3.5l0.7-4.1c0.1-0.4,0.4-0.8,0.7-1l3.7-2c2.1-1.1,2.9-3.6,1.8-5.7L398,147.7z M371,134.3
				c2.9,0,5.2,2.3,5.2,5.2s-2.3,5.2-5.2,5.2s-5.2-2.3-5.2-5.2S368.1,134.3,371,134.3z M368.3,157.4c-0.3,0.3-0.6,0.4-1,0.4
				s-0.7-0.1-1-0.4c-0.6-0.6-0.6-1.5,0-2l18.7-18.7c0.6-0.6,1.5-0.6,2,0c0.6,0.6,0.6,1.5,0,2L368.3,157.4z M382.3,159.8
				c-2.9,0-5.2-2.3-5.2-5.2s2.3-5.2,5.2-5.2c2.9,0,5.2,2.3,5.2,5.2S385.2,159.8,382.3,159.8z"/>
		</g>
	</g>
	<g>
		<g>
			<path class="st2" d="M382.3,152.3c-1.3,0-2.4,1.1-2.4,2.4s1.1,2.4,2.4,2.4s2.4-1.1,2.4-2.4S383.6,152.3,382.3,152.3z"/>
		</g>
	</g>
	<g>
		<g>
			<path class="st2" d="M371,137.2c-1.3,0-2.4,1.1-2.4,2.4s1.1,2.4,2.4,2.4s2.4-1.1,2.4-2.4C373.4,138.2,372.3,137.2,371,137.2z"/>
		</g>
	</g>
</g>
<g id="freepik--background-complete--inject-4">
	<path class="st3" d="M136.3,126.4L136.3,126.4c-18.9,0-34.3-15.3-34.3-34.3l0,0l0,0c0-18.9,15.3-34.3,34.3-34.3l0,0
		c18.9,0,34.3,15.3,34.3,34.3l0,0C170.6,111,155.2,126.4,136.3,126.4L136.3,126.4z"/>
	<rect x="120.8" y="84.5" class="st2" width="7.1" height="22.9"/>
	<path class="st2" d="M124.3,81.5c2.3,0,4.2-1.9,4.3-4.2s-1.9-4.2-4.2-4.3c-2.3,0-4.2,1.9-4.3,4.2c0,0,0,0,0,0
		C120.1,79.6,122,81.5,124.3,81.5z"/>
	<path class="st2" d="M139.2,95.4c0-3.2,1.5-5.1,4.3-5.1c2.6,0,3.9,1.8,3.9,5.1v12h7.1V92.9c0-6.1-3.5-9.1-8.3-9.1
		c-2.8,0-5.4,1.4-6.9,3.8v-3.1h-6.8v22.9h6.8L139.2,95.4z"/>
	<polygon class="st4" points="182.2,23.9 186.9,32.5 195.5,37.2 186.9,41.8 182.2,50.4 177.5,41.8 168.9,37.2 177.5,32.5 	"/>
	<polygon class="st3" points="377.9,256.3 381.4,262.7 387.8,266.2 381.4,269.7 377.9,276.2 374.4,269.7 367.9,266.2 374.4,262.7 	
		"/>
	<polygon class="st5" points="387.8,224.5 389.4,227.4 392.3,229 389.4,230.6 387.8,233.5 386.2,230.6 383.3,229 386.2,227.4 	"/>
	<polygon class="st5" points="148.7,27.1 150.3,30 153.2,31.6 150.3,33.2 148.7,36.1 147.1,33.2 144.2,31.6 147.1,30 	"/>
	<path class="st5" d="M69.1,296.8c3.8-1.7,6.2-5.5,6.1-9.7c0-5.7-4.4-10.3-9.8-10.3s-9.7,4.7-9.6,10.5c0,4.2,2.5,8,6.3,9.6
		C47.1,299.3,48,315.6,48,315.6l35.4-0.3C83.4,315.3,84,298.8,69.1,296.8z"/>
	<path class="st3" d="M408.6,403.9c-0.6-3-3.5-4.9-6.5-4.4c-2.3,0.5-4.1,2.3-4.4,4.7c-0.4-3-3.2-5.1-6.2-4.7
		c-2.3,0.3-4.2,2.1-4.6,4.4c-0.3,1.9,0.2,3.8,1.3,5.4c1.1,1.5,2.4,2.9,3.9,4.1c2,1.8,3.8,3.4,5.8,5.2c2-1.8,3.6-3.5,5.6-5.2
		c1.5-1.2,2.8-2.6,3.9-4.1C408.4,407.7,408.9,405.8,408.6,403.9z"/>
	<path class="st5" d="M431.7,193.1l3.8-0.8l6-13.2l-1.5-7.6c0,0,5.8-1.5,7.1,8.5s1.5,7.4,1.5,7.4s12.5-2.4,13.7-1.6
		c0.9,0.6,3.7,12.9,5.2,19.6c0.8,3.3-0.7,6.7-3.7,8.3c-0.4,0.2-0.9,0.4-1.3,0.4c-3.1,0.6-19.5,1.2-19.5,1.2l-6.5,1.3L431.7,193.1z"
		/>
	<polygon class="st5" points="420.4,193.2 427.9,218.7 434.4,217.4 429.4,192 	"/>
</g>
<g id="freepik--Floor--inject-4">
	<path class="st6" d="M470.5,469.3c0,0.1-99.2,0.3-221.5,0.3s-221.5-0.1-221.5-0.3s99.2-0.3,221.5-0.3S470.5,469.2,470.5,469.3z"/>
</g>
<g id="freepik--Device--inject-4">
	<path class="st6" d="M328.3,470l-137.9,0c-16.6,0-30-13.4-30-30l0,0l0.1-345.7c0-16.6,13.4-30,30-30c0,0,0,0,0.1,0l137.9,0.1
		c16.6,0,30,13.4,30,30L358.3,440c0,16.6-13.4,30-29.9,30C328.3,470.1,328.3,470.1,328.3,470z"/>
	<path class="st2" d="M328.2,76.5h-26.7c-3.7,0.1-6.6,3.1-6.5,6.8v4.8c0.1,3.7-2.8,6.7-6.5,6.8c0,0,0,0,0,0h-52.1
		c-3.7-0.1-6.6-3.1-6.5-6.8c0,0,0,0,0,0v-4.9c0.1-3.7-2.8-6.7-6.5-6.8H214h-23.4c-11.6,0-21,9.4-21,20.9c0,0,0,0,0,0.1l-0.1,337.4
		c0,11.6,9.4,21,21,21l0,0l137.6,0.1c11.6,0,21-9.4,21-21l0,0l0.1-337.4C349.2,85.9,339.8,76.5,328.2,76.5z"/>
	<path class="st6" d="M330.2,103.9c0,0.1-3.5,0.2-7.8,0.2s-7.8,0-7.8-0.1s3.5-0.2,7.8-0.2S330.2,103.8,330.2,103.9z"/>
	<path class="st6" d="M330.3,107.9c0,0.1-3.5,0.2-7.8,0.2s-7.8,0-7.8-0.1s3.5-0.2,7.8-0.2S330.3,107.8,330.3,107.9z"/>
	<path class="st6" d="M330.3,111.9c0,0.1-3.5,0.2-7.8,0.2s-7.8,0-7.8-0.1s3.5-0.2,7.8-0.2S330.3,111.8,330.3,111.9z"/>
	<path class="st6" d="M184,115.8h0.4h1.1l4.2-0.1l-0.1,0.1c0-0.9,0-1.9-0.1-3c0-0.6,0-1.1,0-1.7c0.1-0.7,0.7-1.2,1.4-1.3
		c0.7,0,1.3,0,2,0c0.8,0.1,1.4,0.8,1.4,1.6c0,1.4,0,2.9,0.1,4.4l-0.2-0.2h5.3l-0.2,0.2c0-2.1,0-4.3-0.1-6.6c0-0.6,0-1.1,0-1.7
		c0-0.5-0.3-1-0.7-1.2l-2.3-2.3l-2.2-2.2l-1.1-1.1c-0.4-0.4-0.7-0.7-1.1-0.8c-0.4-0.1-0.9,0-1.2,0.2c-0.3,0.3-0.7,0.7-1,1l-1.9,1.9
		c-1.2,1.2-2.4,2.4-3.3,3.4c-0.3,0.6-0.4,1.3-0.3,2c0,0.7,0,1.3,0,1.8c0,1.1,0,2.1,0,3s0,1.4,0,1.9c0,0.2,0,0.5,0,0.7
		c0-0.2,0-0.4,0-0.6c0-0.5,0-1.1,0-1.9s0-1.9-0.1-3c0-0.6,0-1.2,0-1.9c0-0.3,0-0.7,0-1c0-0.4,0.1-0.8,0.3-1.1c1-1.2,2.1-2.2,3.3-3.5
		l1.9-1.9c0.3-0.3,0.6-0.7,1-1c0.4-0.3,1-0.4,1.5-0.3c0.5,0.2,0.9,0.5,1.3,0.9l1.1,1.1l2.2,2.2l2.3,2.3c0.2,0.2,0.4,0.4,0.6,0.6
		c0.2,0.3,0.3,0.6,0.3,0.9c0,0.6,0,1.1,0,1.7c0,2.2,0,4.4,0.1,6.6v0.2h-0.2h-5.3H194v-0.2c0-1.5,0-3,0-4.4c0-0.6-0.4-1.2-1.1-1.3
		c-0.6,0-1.3,0-1.9,0c-0.6,0.1-1,0.5-1.1,1c0,0.5,0,1.1,0,1.7c0,1.1,0,2.1,0,3v0.1h-0.1h-4.2h-1.1
		C184.3,115.9,184.1,115.8,184,115.8z"/>
	<path class="st1" d="M275,379.4c-0.5,0.1-1,0.1-1.5,0.1l-3.9,0.1c-3.3,0-7.9,0.1-13,0.1s-9.7,0-13-0.1l-3.9-0.1c-0.5,0-1,0-1.4-0.1
		c0.5-0.1,1-0.1,1.4-0.1l3.9-0.1c3.3,0,7.9-0.1,13-0.1c5.1,0,9.7,0,13,0.1l3.9,0.1C274,379.3,274.5,379.3,275,379.4z"/>
	<path class="st1" d="M332.8,388.5c0,0.1-21.2,0.3-47.3,0.3s-47.3-0.1-47.3-0.3s21.2-0.3,47.3-0.3S332.8,388.3,332.8,388.5z"/>
	<path class="st1" d="M303.2,397c0,0.1-14.5,0.3-32.5,0.3s-32.5-0.1-32.5-0.3s14.6-0.3,32.5-0.3S303.2,396.8,303.2,397z"/>
	<path class="st6" d="M334.6,413.5l-2.9-3l-2.8,2.8v-8.4h5.7L334.6,413.5z M331.7,410.2L331.7,410.2l2.7,2.7v-7.7h-5.2v7.5
		L331.7,410.2z"/>
	<path class="st6" d="M256.4,412.4l-1-0.5c-1.3,0.6-2.9,0.1-3.5-1.3c-0.6-1.3-0.1-2.9,1.3-3.5c1.3-0.6,2.9-0.1,3.5,1.3
		c0.5,1,0.3,2.2-0.5,2.9L256.4,412.4z M254,406.8c-1.5,0.1-2.6,1.4-2.5,2.9c0.1,1.4,1.2,2.4,2.5,2.5c0.5,0,0.9-0.2,1.3-0.4l0,0
		l0.8,0.3l-0.2-0.8l0,0c1-1.1,0.9-2.8-0.2-3.8C255.3,407.1,254.6,406.9,254,406.8L254,406.8z"/>
	<path class="st6" d="M263.1,412l-1.2-2.9l-2.2-2h5.4L263.1,412z M260.2,407.3l1.9,1.7l1,2.5l1.7-4.2L260.2,407.3z"/>
	
		<rect x="261.8" y="408" transform="matrix(0.8382 -0.5454 0.5454 0.8382 -179.9141 209.7487)" class="st6" width="3.5" height="0.2"/>
	<path class="st0" d="M247.9,407.7c-0.2-0.9-1.1-1.5-2-1.3c-0.7,0.1-1.2,0.7-1.3,1.4c-0.1-0.9-1-1.6-1.9-1.4
		c-0.7,0.1-1.3,0.7-1.4,1.4c-0.1,0.6,0.1,1.2,0.4,1.6c0.3,0.5,0.7,0.9,1.2,1.2c0.6,0.5,1.2,1,1.8,1.6c0.6-0.5,1.1-1,1.7-1.6
		c0.4-0.4,0.8-0.8,1.2-1.3C247.9,408.8,248,408.2,247.9,407.7z"/>
	<path class="st6" d="M340.7,421c0,0,0-0.3,0-0.9s0-1.5,0-2.7c0-2.4,0-6,0-10.6c0-9.2,0-22.6-0.1-39.3l0.2,0.2l-159.9,0.1l0,0
		l0.3-0.3c0,18.6,0,36.7,0,53.6l-0.2-0.2l114.4,0.1l33.4,0.1h9h2.3L340.7,421l-0.7-0.1h-2.3h-8.9l-33.4,0.1l-114.6,0.1h-0.3V421
		c0-16.9,0-35,0-53.6v-0.3h0.3l159.9,0.1h0.2v0.2c0,16.8-0.1,30.2-0.1,39.4c0,4.6,0,8.1,0,10.5c0,1.2,0,2.1,0,2.7
		S340.7,421,340.7,421z"/>
	
		<rect x="191.7" y="372.1" transform="matrix(5.759587e-03 -1 1 5.759587e-03 -185.974 601.3996)" class="st3" width="35.4" height="44.3"/>
	<path class="st6" d="M231.7,376.6h-0.9h-2.4h-9.1l-32-0.1l0.2-0.2c-0.1,10.5-0.1,22.6-0.2,35.4c0.1,0.1-0.5-0.5-0.3-0.3h3.1h3h6
		l11.5,0.1l20.7,0.1l-0.2,0.2c0.1-10.6,0.2-19.5,0.3-25.7c0-3.1,0.1-5.5,0.1-7.2c0-0.8,0-1.4,0-1.9s0-0.7,0-0.7s0,0.2,0,0.6
		s0,1.1,0,1.9c0,1.7,0,4.1,0,7.1c0,6.2,0,15.1,0,25.8v0.2h-0.2l-20.7-0.1l-11.5-0.1h-6h-3h-3.1l-0.3-0.3c0.1-12.8,0.2-24.9,0.2-35.4
		v-0.2h0.2l32.1,0.3l9,0.1h2.4h0.6L231.7,376.6z"/>
	
		<rect x="193.9" y="373.6" transform="matrix(5.759587e-03 -1 1 5.759587e-03 -185.999 601.3745)" class="st5" width="31" height="41.2"/>
	<polygon class="st4" points="188.7,409.6 203.2,390.4 212.1,402.5 218.1,396.1 229.9,409.8 	"/>
	<path class="st4" d="M215.9,388.1c0,1.8-1.5,3.2-3.3,3.2c-1.8,0-3.2-1.5-3.2-3.3c0-1.8,1.5-3.2,3.3-3.2c0,0,0,0,0,0
		C214.5,384.9,215.9,386.3,215.9,388.1C215.9,388.1,215.9,388.1,215.9,388.1z"/>
	<path class="st6" d="M262.1,146.9c-0.2,0-0.3,0-0.5,0l-1.4,0.1l-5,0.1c-4.2,0-10,0.1-16.5,0.1s-12.2,0-16.5-0.1l-5-0.1l-1.4-0.1
		c-0.2,0-0.3,0-0.5,0c0.2,0,0.3-0.1,0.5-0.1h1.4l5-0.1c4.2-0.1,10-0.1,16.5-0.1s12.2,0,16.5,0.1l5,0.1h1.4
		C261.8,146.8,261.9,146.8,262.1,146.9z"/>
	<path class="st6" d="M327.5,342.6l-4.4-4.4l-4.2,4.2v-12.5h8.5L327.5,342.6z M323.2,337.7l0.1,0.1l3.9,3.9v-11.4h-7.8v11.2
		L323.2,337.7z"/>
	<path class="st6" d="M216.7,341.3l-2-0.9c-2.6,1.2-5.7,0.1-6.9-2.5c-1.2-2.6-0.1-5.7,2.5-6.9c2.6-1.2,5.7-0.1,6.9,2.5
		c0.9,1.9,0.5,4.2-0.9,5.7L216.7,341.3z M211.9,330.3c-2.9,0-5.3,2.4-5.2,5.3c0,2.9,2.4,5.3,5.3,5.2c0.9-0.1,1.8-0.3,2.5-0.8l0.1,0
		l1.5,0.7l-0.3-1.5l0.1-0.1c2-2.1,1.8-5.5-0.3-7.4C214.5,330.8,213.2,330.3,211.9,330.3L211.9,330.3z"/>
	<path class="st6" d="M229.8,340.5l-2.3-5.7l-4.4-4l10.6-0.1L229.8,340.5z M224.1,331.1l3.7,3.4l2,4.9l3.3-8.4L224.1,331.1z"/>
	
		<rect x="227.2" y="332.5" transform="matrix(0.8382 -0.5454 0.5454 0.8382 -144.1173 179.6525)" class="st6" width="6.9" height="0.4"/>
	<path class="st0" d="M199.9,332c-0.4-1.8-2.1-2.9-3.9-2.6c-1.4,0.3-2.4,1.4-2.6,2.8c-0.3-1.8-1.9-3-3.7-2.8
		c-1.4,0.2-2.5,1.3-2.8,2.7c-0.2,1.1,0.1,2.3,0.8,3.2c0.7,0.9,1.5,1.7,2.3,2.5c1.2,1,2.3,2,3.5,3.1c1.2-1.1,2.2-2.1,3.3-3.1
		c0.9-0.7,1.6-1.6,2.3-2.5C199.8,334.3,200.1,333.1,199.9,332z"/>
	<circle class="st3" cx="199" cy="146.9" r="7.2"/>
	<path class="st1" d="M324.8,301.2c0,0.1-30.3,0.3-67.6,0.3s-67.6-0.1-67.6-0.3s30.3-0.3,67.6-0.3S324.8,301.1,324.8,301.2z"/>
	<path class="st1" d="M324.8,290c0,0.1-30.3,0.3-67.6,0.3s-67.6-0.1-67.6-0.3s30.3-0.3,67.6-0.3S324.8,289.9,324.8,290z"/>
	<path class="st1" d="M263.2,312.7c0,0.1-16.5,0.3-36.8,0.3s-36.8-0.1-36.8-0.3s16.5-0.3,36.8-0.3S263.2,312.5,263.2,312.7z"/>
	<path class="st6" d="M254.1,435.3c0,1.6-1.3,2.9-2.9,2.8c-1.6,0-2.9-1.3-2.8-2.9c0-1.6,1.3-2.8,2.9-2.8
		C252.9,432.4,254.2,433.7,254.1,435.3C254.1,435.3,254.1,435.3,254.1,435.3z"/>
	<path class="st6" d="M263,435.3c0,1.6-1.3,2.8-2.9,2.8s-2.8-1.3-2.8-2.9c0-1.6,1.3-2.8,2.9-2.8C261.7,432.4,263,433.7,263,435.3
		C263,435.3,263,435.3,263,435.3z"/>
	<path class="st6" d="M271.9,435.4c0,1.6-1.3,2.8-2.9,2.8s-2.8-1.3-2.8-2.9c0-1.6,1.3-2.8,2.9-2.8
		C270.7,432.5,271.9,433.8,271.9,435.4C271.9,435.4,271.9,435.4,271.9,435.4z"/>
	<rect x="181.7" y="161.1" class="st5" width="159.9" height="97.8"/>
	<polygon class="st4" points="196.5,259 242.3,197.6 270.7,236 290,215.5 327.7,258.9 	"/>
	<path class="st4" d="M282.7,190.1c0,5.7-4.6,10.3-10.3,10.3c-5.7,0-10.3-4.6-10.4-10.3c0-5.7,4.6-10.3,10.3-10.4c0,0,0,0,0,0
		C278.1,179.8,282.7,184.4,282.7,190.1z"/>
	<path class="st6" d="M341.2,349.9c0-2.1-0.1-90.4-0.2-221.2l0.2,0.2H181.3l0,0l0.3-0.3c0,82.7,0,159.3,0,221.2l-0.2-0.2
		L341.2,349.9l-159.9,0.2h-0.2v-0.2c0-61.9,0-138.5-0.1-221.2v-0.3h0.3h159.9h0.2v0.2c0,65.5-0.1,120.8-0.1,159.8
		c0,19.5,0,34.8-0.1,45.4c0,5.2,0,9.3,0,12c0,1.4,0,2.4,0,3.1S341.2,349.9,341.2,349.9z"/>
</g>
<g id="freepik--Megaphone--inject-4">
	<path class="st7" d="M266,377.3l3.5-11.9c0.6-2.6,1.4-5.6,2.5-9.1c1-3.1,3.5-6.4,5.9-8.8c3.6-3.7,5.3-3.7,7.8-5.6
		c0.2-0.1,0.5-0.4,0.7-0.5c0.5-0.2,0.9-0.6,1.2-1c2.1-2.3,0.1-5.8-4.2-5.4c-3.2,0.2-8.4,1.2-16.9,9.9c-0.1,0.1-0.2,0.2-0.3,0.4
		c-4.5,5.8-8.6-10.7-9.4-16.9c-0.5-3.5-3.8-5.9-7.3-5.4c-0.5,0.1-0.9,0.2-1.4,0.4l-20.7,9.7c-2-0.6-4.1-0.5-6,0.2
		c-3,1.1-4.7,4.2-3.9,7.3l8.4,33.4l-24.6,81.9h53.1L266,377.3z"/>
	<path class="st0" d="M306.8,302.1l-16.4,32.1l-8.2-2.3L241,365.5c-3.5,2.9-8.6,2.4-11.6-1l-15.7-18.2c0,0,31.6-13.6,37.5-24.9
		c5.8-11.3-0.9-13.9-0.9-13.9l14.9-16.9L306.8,302.1z"/>
	<path class="st0" d="M285.5,236.4c0,0-24-5.3-57.8-37.8S178.1,123,174,123.2s-22.2-8.2-56.5,66.5s-20.8,92-14,91.9
		s53.2-13.1,82.2-9.8s66.2,18.4,66.2,18.4L285.5,236.4z"/>
	<path class="st0" d="M336.5,277.1l-8.2,15.6l-3.7,7c-5,9.6-16.7,13.5-26.5,9l-51.4-17.9l30-68.4l51.4,27.4
		C338,255,341.7,267.3,336.5,277.1z"/>
	<g class="st8">
		<path d="M336.5,277.1l-8.2,15.6l-3.7,7c-5,9.6-16.7,13.5-26.5,9l-51.4-17.9l30-68.4l51.4,27.4C338,255,341.7,267.3,336.5,277.1z"
			/>
	</g>
	<path class="st0" d="M120.2,191.1c-18.3,40.5-25.9,76.5-17,80.5s30.9-25.5,49.2-66s25.9-76.5,17-80.5S138.5,150.7,120.2,191.1z"/>
	<g class="st9">
		<path d="M120.2,191.1c-18.3,40.5-25.9,76.5-17,80.5s30.9-25.5,49.2-66s25.9-76.5,17-80.5S138.5,150.7,120.2,191.1z"/>
	</g>
	<polygon class="st0" points="340.9,299.6 327,295.3 335.6,278.9 346.1,285.4 	"/>
	<g class="st10">
		<polygon points="335.6,278.9 327,295.3 329.9,296.2 336.9,279.6 		"/>
	</g>
	<path class="st0" d="M326,282.6c-0.2,0.5-7.2-2.2-15.5-6s-15-7.2-14.8-7.7s7.2,2.3,15.5,6S326.2,282.2,326,282.6z"/>
	<path class="st0" d="M330.3,272.9c-0.2,0.4-6.5-2.2-14.1-5.9s-13.5-7.1-13.3-7.5s6.5,2.2,14.1,5.9S330.5,272.4,330.3,272.9z"/>
	<path class="st0" d="M320.6,292.9c-0.1,0.2-1.7-0.1-4.4-1c-1.3-0.4-2.9-0.9-4.6-1.5s-3.5-1.5-5.4-2.4c-7.6-3.5-13.5-7-13.3-7.4
		s6.5,2.3,14,5.8c1.9,0.9,3.7,1.8,5.3,2.5s3.1,1.3,4.4,1.9C319.1,291.9,320.7,292.7,320.6,292.9z"/>
	<path class="st0" d="M157.5,182.1c0,0-20.9-12.9-32.3,15.2s10.5,32.8,10.5,32.8C145.2,215.3,152.5,199.1,157.5,182.1z"/>
	<g class="st9">
		<path d="M179.6,148.5c0.1,0-0.2,1.9-0.8,5.4s-1.6,8.4-2.9,14.6l-2.9,9.9c-0.5,1.8-1.1,3.6-1.6,5.5l-0.9,2.9
			c-0.3,1-0.7,1.9-1.1,2.9l-4.7,12.2c-0.4,1.1-0.8,2.1-1.2,3.2s-1,2.1-1.5,3.1l-3.1,6.4l-3.1,6.4c-0.5,1-1,2.1-1.6,3.1
			s-1.2,2-1.7,2.9l-6.6,11.2c-0.5,0.9-1,1.8-1.6,2.6l-1.7,2.4l-3.3,4.7l-6,8.4c-4,4.8-7.3,8.6-9.6,11.3c-1.1,1.4-2.4,2.8-3.7,4
			c0.9-1.6,2-3,3.2-4.4c2.2-2.8,5.3-6.8,9.2-11.7l5.8-8.4l3.2-4.7c0.6-0.8,1.1-1.6,1.7-2.4s1-1.7,1.6-2.6l6.6-11.2l1.7-2.9
			c0.6-1,1-2,1.6-3.1l3.1-6.4c1-2.1,2.1-4.3,3.1-6.4c0.5-1,1.1-2.1,1.5-3.1l1.2-3.2l4.8-12c0.4-1,0.8-1.9,1.1-2.9s0.6-1.9,0.9-2.8
			l1.7-5.4l3.1-9.8l3.5-14.4C178.5,152,179,150.3,179.6,148.5z"/>
	</g>
	<g class="st8">
		<path d="M218.7,344c1.9,3.5,3.9,7,6.7,9.7s6.6,4.7,10.6,4.3s7.6-3.7,7.7-7.6c1.9,1.4,4.8,0.6,6.3-1.1s2.1-4.2,2.2-6.6
			c2.6,1.5,6.1,0.3,7.8-2.1c1.6-2.6,2-5.7,1-8.6c-1-2.8-2.4-5.5-4.1-7.9c2,0.2,4.1,0.3,5.8-0.6s3-3.2,1.9-4.9
			c-0.7-0.9-1.7-1.6-2.9-1.8c-3.1-1-5.2-1.7-8.5-1.4c-0.7,0,1.3,8.5-18.9,20.1C222.6,342.4,218.7,344,218.7,344z"/>
	</g>
	<path class="st11" d="M264.1,356.2c0,0.1-1.4-0.2-3.5-0.1c-5.7,0.1-11.1,2.7-14.8,7.1c-1.4,1.7-2,2.9-2.1,2.8
		c0.1-0.3,0.2-0.6,0.4-0.9c0.4-0.8,0.9-1.5,1.4-2.2c3.6-4.6,9.2-7.3,15.1-7.2c0.9,0,1.7,0.1,2.6,0.2
		C263.5,356,263.8,356.1,264.1,356.2z"/>
	<path class="st7" d="M220,338.6c3.2,3.1,5.5,6.6,8.9,9.7c1.6,1.4,4,4.1,6,4.5s3.4,0.1,4.2-1.9c0.7-1.6-0.5-3.7-1.4-5
		c-2.2-3.4-4.2-6.1-5.9-8.7c-0.8-1.2,0.2-1.5,0.6-0.9c1.6,1.6,3.9,3,5.3,4.8c1.9,2.4,2.3,5.6,7.3,4.6c0.7-0.1,1.3-0.4,1.9-0.8
		c1.9-1.5,2-4,1.2-6c-0.7-1.5-1.7-3-2.8-4.2c2.1,2.4,4.5,5,7.9,5.2c2,0.2,3.9-0.8,4.8-2.6c1-2.3-0.4-4.5-1.9-6.3
		c-2.6-3.2-5.4-6.1-8.5-8.7c-1.2-1-2.6-1.5-4.1-1.5c-1.8,0-4,0.3-5,1.8c-1.2,1.5-1.6,3.4-1.4,5.2c0,0-4.4-2.2-7.9,0.1
		c-2.2,1.5-3.7,3.8-4.4,6.4L220,338.6z"/>
	<path class="st7" d="M243.4,319.9c-1.4-1.7-1.7-4.1-0.6-6c0.8-1.5,1.7-2.9,2.6-3.2c4.2-1.4,22.5,1.8,22.3,5.8s-1.5,6-11.4,4.6
		c-1.8-0.2-4.5-0.6-4.5-0.6l-2.4,3.6L243.4,319.9z"/>
	<path class="st11" d="M246.7,336.9c-2.4-4-5.9-7.1-10.1-9.1c0.7,0.1,1.3,0.3,1.9,0.7c3,1.5,5.5,3.7,7.3,6.6
		C246.3,335.6,246.6,336.2,246.7,336.9z"/>
	<path class="st11" d="M249.8,324.4c-0.1,0.1-1.3-0.9-2.9-1.9c-0.7-0.4-1.4-0.8-2.1-1.2c-0.6-0.3-0.9-0.3-0.9-0.4s0.4-0.1,1.1,0.1
		c0.8,0.3,1.6,0.6,2.3,1.1C248.8,323.1,249.9,324.3,249.8,324.4z"/>
	<path class="st11" d="M252.9,320.6c-1.2,0.1-2.4,0-3.5-0.4c-0.8-0.3-1.6-0.7-2.3-1.2c-0.5-0.4-0.7-0.8-0.7-0.8c1,0.6,2,1.1,3.1,1.5
		C250.7,319.9,251.8,320.2,252.9,320.6z"/>
	<path class="st11" d="M235.1,341.9c-0.6-0.7-1.2-1.4-1.7-2.2c-1.1-1.8-2.6-3.5-4.3-4.9c-1.7-1.3-3.9-1.8-6.1-1.6
		c-0.9,0.2-1.7,0.4-2.6,0.8c0,0,0.2-0.2,0.6-0.5c0.6-0.4,1.2-0.6,1.9-0.7c2.3-0.4,4.6,0.2,6.4,1.5c1.7,1.4,3.2,3.1,4.3,5.1
		C234.2,340.3,234.7,341.1,235.1,341.9z"/>
	<path class="st11" d="M249.1,382.4c-2.5,0.5-5,0.9-7.5,1.1c-2.5,0.4-5,0.5-7.6,0.6c2.5-0.5,5-0.9,7.5-1.1
		C244.1,382.6,246.6,382.4,249.1,382.4z"/>
</g>
<g id="freepik--Stars--inject-4">
	<polygon class="st0" points="406.6,49.8 407.8,51.9 409.8,53 407.8,54.2 406.6,56.2 405.5,54.2 403.4,53 405.5,51.9 	"/>
	<polygon class="st0" points="430.2,101 431.4,103.1 433.4,104.2 431.4,105.3 430.2,107.4 429.1,105.3 427,104.2 429.1,103.1 	"/>
	<polygon class="st0" points="51.9,237.5 53,239.6 55.1,240.7 53,241.9 51.9,243.9 50.8,241.9 48.7,240.7 50.8,239.6 	"/>
	<polygon class="st0" points="375.7,62.6 378.3,67.3 383,69.9 378.3,72.5 375.7,77.3 373.1,72.5 368.3,69.9 373.1,67.3 	"/>
	<polygon class="st0" points="73.1,205.1 75.7,209.9 80.4,212.4 75.7,215.1 73.1,219.8 70.5,215.1 65.7,212.4 70.5,209.9 	"/>
	<polygon class="st0" points="436.7,318.6 439.3,323.3 444,325.9 439.3,328.5 436.7,333.3 434.1,328.5 429.3,325.9 434.1,323.3 	"/>
</g>
<g>
	<path class="st2" d="M386.1,360.7l0.7-0.7l-1.6-0.9L386.1,360.7z"/>
	<path class="st2" d="M393.8,350h-4.1c-0.9,0-2.1,0.5-2.8,1.2l-8.5,8.6c-0.4,0.4-0.6,0.9-0.6,1.4s0.2,1,0.6,1.4l5,5
		c0.4,0.4,0.8,0.6,1.4,0.6c0.5,0,1-0.2,1.4-0.6l8.5-8.6c0.6-0.6,1.1-1.9,1.1-2.8V352C395.8,350.9,394.9,350,393.8,350z M385.3,363.6
		c-0.5,0.5-1.2,0.7-1.4,0.4c-0.1-0.1-0.2-0.4-0.1-0.5c0.2-0.2,0.6,0,1-0.4c0.2-0.2,0.3-0.6,0.1-0.8c-0.6-0.6-1.7,0.9-2.6-0.1
		c-0.6-0.6-0.3-1.3,0.2-1.8c0.2-0.2,0.8-0.7,1.1-0.4c0.1,0.1,0.2,0.3,0.1,0.5c-0.1,0.1-0.4,0.1-0.7,0.4c-0.3,0.3-0.3,0.6-0.1,0.8
		c0.5,0.5,1.6-1,2.6,0.1C385.9,362.4,385.8,363.1,385.3,363.6z M388.2,360.6c-0.1,0.1-0.2,0.1-0.3,0.1l-0.7-0.4l-0.9,0.9l0.4,0.7
		c0.1,0.1,0,0.2-0.1,0.3c-0.1,0.1-0.4,0.2-0.5,0.1l0,0l-1.7-3.3c-0.1-0.2,0-0.4,0.2-0.5c0.2-0.2,0.4-0.2,0.5-0.2l3.3,1.7l0,0
		C388.5,360.1,388.4,360.4,388.2,360.6z M390.3,358.5l-1.3,1.3c-0.1,0.1-0.3,0.2-0.4,0.1l-2.6-2.6c-0.1-0.1,0-0.3,0.1-0.4
		s0.3-0.2,0.4-0.1l2.3,2.3l1-1c0.1-0.1,0.3,0,0.4,0.1C390.4,358.2,390.4,358.4,390.3,358.5z M392.4,356.4l-1.4,1.4
		c-0.1,0.1-0.3,0.2-0.4,0.1l-2.6-2.6c-0.1-0.1-0.1-0.3,0.1-0.4l1.4-1.4c0.1-0.1,0.3,0,0.4,0.1s0.2,0.3,0.1,0.4l-1.1,1.1l0.8,0.8
		l0.6-0.6c0.1-0.1,0.3-0.1,0.4,0s0.1,0.3,0,0.4l-0.6,0.6l0.8,0.8l1.1-1.1c0.1-0.1,0.3-0.1,0.4,0.1
		C392.4,356.1,392.5,356.3,392.4,356.4z M392.8,353.8c-0.1,0.1-0.2,0.2-0.4,0.2c-0.1,0-0.3-0.1-0.4-0.2s-0.2-0.2-0.2-0.4
		c0-0.1,0.1-0.3,0.2-0.4s0.2-0.2,0.4-0.2c0.1,0,0.3,0.1,0.4,0.2s0.2,0.2,0.2,0.4C393,353.5,392.9,353.7,392.8,353.8z"/>
</g>
<g>
	<g>
		<g>
			<path class="st2" d="M425.7,269.3c0,1.4,0.8,2.6,2.1,3.1v-5.8c0-0.1,0-0.2,0-0.3C426.5,266.7,425.7,267.9,425.7,269.3z"/>
			<path class="st2" d="M437.1,276.5h-5.5l2.1,7.5c0.3,1.1,1.3,1.9,2.5,1.9c0.8,0,1.6-0.4,2.1-1s0.7-1.5,0.4-2.3L437.1,276.5z"/>
			<path class="st2" d="M427.8,266.2L427.8,266.2L427.8,266.2C427.9,266.2,427.9,266.2,427.8,266.2z"/>
			<path class="st2" d="M457.9,265.6h-0.3v7.5h0.3c2.1,0,3.8-1.7,3.8-3.8C461.7,267.3,460,265.6,457.9,265.6z"/>
			<path class="st2" d="M429,266.5v6c0,1.5,1.3,2.8,2.9,2.8h7.6V264h-7.6C430.4,263.9,429,265,429,266.5z"/>
			<polygon class="st2" points="440.8,275.4 456.3,281.6 456.3,257.3 440.8,263.6 			"/>
		</g>
	</g>
</g>
<g>
	<g>
		<path class="st2" d="M81.9,376.5h16.3v16.7H85c-1.7,0-3.1-1.4-3.1-3.1V376.5z"/>
	</g>
	<g>
		<path class="st2" d="M117.1,376.5v13.6c0,1.7-1.4,3.1-3.1,3.1h-13.2v-16.7H117.1z"/>
	</g>
	<g>
		<path class="st2" d="M78.4,366.4v4.4c0,1.7,1.4,3.1,3.1,3.1h0.4h16.3v-2.6v-7.9H81.5C79.8,363.3,78.4,364.7,78.4,366.4z"/>
	</g>
	<g>
		<path class="st2" d="M117.5,363.3h-16.7v7.9v2.6h16.3h0.4c1.7,0,3.1-1.4,3.1-3.1v-4.4C120.6,364.7,119.2,363.3,117.5,363.3z"/>
	</g>
	<g>
		<path class="st2" d="M99.5,365.2c-0.4,0-0.7-0.2-1-0.5s-0.4-0.7-0.3-1.1c0.7-4.4,4.1-12.7,12.4-12.7c4.8,0,6.5,2.6,6.5,4.8
			C117.1,359.6,111.6,365.2,99.5,365.2L99.5,365.2z M110.6,353.6c-6.3,0-8.7,6-9.5,8.9c5-0.2,8.1-1.5,9.9-2.6
			c2.5-1.5,3.4-3.1,3.4-4.2C114.5,354.1,112.5,353.6,110.6,353.6z"/>
	</g>
	<g>
		<path class="st2" d="M99.5,365.2c-12.1,0-17.6-5.5-17.6-9.4c0-2.2,1.7-4.8,6.5-4.8c8.4,0,11.8,8.3,12.4,12.7
			c0.1,0.4-0.1,0.8-0.3,1.1C100.3,365,99.9,365.2,99.5,365.2L99.5,365.2z M88.4,353.6c-1.8,0-3.8,0.6-3.8,2.1
			c0,2.2,3.9,6.3,13.3,6.8C97.1,359.6,94.7,353.6,88.4,353.6L88.4,353.6z"/>
	</g>
</g>
<g>
	<path class="st2" d="M66,138.2h-3.9v1.2h3.1l1.2,3.5h1.2L66,138.2z"/>
	<path class="st2" d="M73.2,150.4c0-0.6-0.1-1.1-0.3-1.6l0,0c-0.3-0.6-0.3-1.4-0.2-2.1c0-0.1,0.1-0.2,0.1-0.3h-7.3
		c0.2,0.8,0.2,1.7-0.1,2.6c-0.3,0.7-0.3,1.5-0.2,2.2c0.3,1.6,1.6,3,3.4,3.3v2.5h-2.9v1.2h7V157h-2.9v-2.5
		C71.7,154.1,73.2,152.4,73.2,150.4z"/>
	<path class="st2" d="M65,145.2h2.1l-0.8-2.3h-2.2L65,145.2z"/>
	<path class="st2" d="M73.1,145.2l0.9-2.3h-6.4l0.8,2.3H73.1z"/>
	<path class="st2" d="M73.7,139.4c-1.6,0-3,1-3.7,2.3h5.6l-1.7,4.7c-0.1,0.2-0.1,0.4-0.2,0.6c0,0.2,0,0.4,0,0.6l0,0
		c0.8,0,1.5-0.2,2.2-0.6c1.2-0.8,1.9-2,1.9-3.4C77.8,141.2,76,139.4,73.7,139.4z"/>
</g>
</svg>
