
<svg width="180" version="1.1" xmlns="http://www.w3.org/2000/svg" xmlns:xlink="http://www.w3.org/1999/xlink" x="0px" y="0px" viewBox="0 0 80 80" style="enable-background:new 0 0 80 80;" xml:space="preserve">
<style>
.st0 {
    fill: #EBEBEB;
}

.st1 {
    fill: #DBDBDB;
}

.st2 {
    fill: #C7C7C7;
}

.st3 {
    fill: #A6A6A6;
}

.st4 {
    fill: #263238;
}

.st5 {
    fill: #08ACC1;
}

.st6 {
    fill: #37474F;
}

.st7 {
    opacity: 0.2;
}

.st8 {
    fill: #AD6359;
}

.st9 {
    opacity: 0.1;
    fill: #030402;
    enable-background: new;
}

</style>
                                    <g id="freepik--background-complete--inject-16">
                                        <rect x="5.6" y="17" class="st0" width="29.9" height="1.3"></rect>
                                        <rect x="32.5" y="18.3" class="st0" width="1.3" height="4.4"></rect>
                                        <rect x="32.5" y="18.3" class="st1" width="1.3" height="1.4"></rect>
                                        <rect x="7.3" y="18.3" class="st0" width="1.3" height="4.4"></rect>
                                        <rect x="7.3" y="18.3" class="st1" width="1.3" height="1.4"></rect>
                                        <rect x="27.8" y="8.4" class="st2" width="2.1" height="8.6"></rect>
                                        <rect x="27.8" y="7.9" class="st1" width="2.1" height="0.9"></rect>
                                        <rect x="27.8" y="10.1" class="st1" width="2.1" height="0.3"></rect>
                                        <rect x="27.6" y="14.9" class="st1" width="2.4" height="0.9"></rect>
                                        <rect x="26.4" y="7" class="st1" width="1.5" height="10"></rect>
                                        <rect x="26.7" y="7.9" class="st0" width="0.9" height="3.8"></rect>
                                        <polygon class="st2" points="23.9,9.9 16.9,17 15.9,15.9 22.8,8.9 	"></polygon>
                                        <polygon class="st1" points="21,12.4 18.4,15.1 17.7,14.4 20.4,11.7 	"></polygon>
                                        <rect x="23.9" y="9.4" class="st3" width="2.5" height="7.6"></rect>
                                        <rect x="23.9" y="15.4" class="st2" width="2.5" height="0.7"></rect>
                                        <rect x="23.9" y="14.7" class="st2" width="2.5" height="0.3"></rect>
                                        <rect x="30" y="9.8" class="st3" width="1.7" height="7.1"></rect>
                                        <rect x="30" y="15.5" class="st2" width="1.7" height="0.7"></rect>
                                        <rect x="30" y="11.3" class="st2" width="1.7" height="0.7"></rect>
                                        <rect x="30" y="12.4" class="st2" width="1.7" height="0.3"></rect>
                                        <path class="st3" d="M11.7,7.8c1.5,1.5,1.7,3.8,1.4,5.8c0,0-0.1,0-0.1,0c0-0.5,0-0.9,0-1.4c0,0,0,0,0-0.1c-0.4-0.3-0.7-0.6-1-1.1
                                            c-0.2-0.5-0.3-1.1-0.5-1.6c0,0,0,0,0.1,0c0.9,0.7,1.2,1.4,1.4,2.4c0-0.5-0.1-1-0.2-1.5C12.7,9.4,12.2,8.6,11.7,7.8
                                            C11.6,7.8,11.6,7.8,11.7,7.8C11.6,7.8,11.6,7.8,11.7,7.8z"></path>
                                        <path class="st1" d="M11.4,8c-0.3,0-0.4,0.4-0.6,0.6c-0.1,0.1-0.2,0.1-0.3,0c0,0,0,0,0,0c-0.2-0.3,0.1-0.6,0.3-0.8
                                            c-0.2,0.1-0.3,0.2-0.5,0.2c-0.1,0-0.2,0-0.2-0.1c0,0,0,0,0,0c-0.1-0.4,0.4-0.6,0.7-0.6c-0.2-0.1-0.6-0.4-0.4-0.6
                                            c0.2-0.1,0.8,0.3,0.9,0.4c0.3,0.2,0.5,0.5,0.6,0.8C11.9,8.3,11.6,8.1,11.4,8z"></path>
                                        <path class="st0" d="M11.5,8c-0.3-0.2-0.9,0.1-1-0.1c-0.1-0.3,0.4-0.4,0.7-0.5c-0.2-0.1-0.7-0.2-0.7-0.4c0-0.3,0.7,0,1.1,0.2
                                            c0.5,0.4,0.4,0.7,0.4,0.8C11.8,8.2,11.5,8.1,11.5,8z"></path>
                                        <path class="st3" d="M15,7.7c-1.5,1.4-1.9,3.7-1.6,5.7c0,0,0.1,0,0.1,0c0-0.5,0-0.9,0-1.4l0-0.1c0.4-0.3,0.7-0.6,1-1
                                            c0.3-0.5,0.4-1,0.6-1.6c0,0,0,0-0.1,0c-0.9,0.6-1.2,1.4-1.5,2.3c0-0.5,0.1-1,0.2-1.5C13.9,9.3,14.4,8.4,15,7.7
                                            C15.1,7.7,15.1,7.7,15,7.7C15,7.7,15,7.7,15,7.7z"></path>
                                        <path class="st1" d="M15.3,7.8c0.3,0,0.4,0.4,0.6,0.6c0.1,0.1,0.2,0.1,0.3,0c0,0,0,0,0,0c0.2-0.3-0.1-0.6-0.3-0.8
                                            c0.2,0.1,0.3,0.2,0.5,0.3c0.1,0,0.2,0,0.2-0.1c0,0,0,0,0,0c0.1-0.4-0.4-0.6-0.7-0.6c0.2-0.1,0.6-0.4,0.4-0.6s-0.8,0.3-0.9,0.4
                                            c-0.3,0.2-0.6,0.5-0.6,0.8C14.8,8.1,15.1,7.9,15.3,7.8z"></path>
                                        <path class="st0" d="M15.2,7.9c0.3-0.1,0.9,0.1,1,0c0.1-0.3-0.4-0.4-0.6-0.5c0.2-0.1,0.7-0.2,0.7-0.4c0-0.3-0.7-0.1-1.1,0.2
                                            c-0.5,0.3-0.5,0.7-0.4,0.8C14.9,8,15.2,7.9,15.2,7.9z"></path>
                                        <path class="st3" d="M13.5,11.4c-0.1,0.8-0.3,1.5-0.5,2.2c0,0,0,0-0.1,0c0,0,0,0,0-0.1c0.1-0.7,0.3-1.4,0.4-2.1
                                            c0.1-0.7,0.2-1.4,0.1-2.1C13.3,8.3,13,7,12.3,6.1c0,0,0-0.1,0,0c1.5,1.8,1.3,4,1.3,4.1c0.2-0.7,0.4-1.6,1.2-2.3c0,0,0.1,0,0.1,0
                                            c-0.1,1.4-0.5,2.1-1.3,2.8C13.5,11,13.5,11.2,13.5,11.4z"></path>
                                        <path class="st1" d="M12.2,6.3c-0.3-0.1-0.6,0.2-0.9,0.3c-0.1,0-0.2,0-0.3-0.2c0,0,0,0,0,0C11,6,11.5,5.8,11.8,5.7
                                            c-0.2,0-0.4,0-0.7,0c-0.1,0-0.2-0.1-0.2-0.2c0,0,0,0,0,0c0.1-0.4,0.7-0.4,1-0.2c-0.1-0.2-0.4-0.7-0.1-0.8s0.7,0.7,0.8,0.9
                                            c0.2,0.3,0.3,0.8,0.2,1.2C12.6,6.9,12.4,6.5,12.2,6.3z"></path>
                                        <path class="st0" d="M12.3,6.4c-0.3-0.3-1-0.4-1-0.6c0-0.3,0.6-0.2,0.9-0.1c-0.2-0.2-0.7-0.6-0.5-0.8c0.2-0.3,0.8,0.3,1,0.8
                                            c0.3,0.6,0.1,1,0,1C12.5,6.8,12.3,6.5,12.3,6.4z"></path>
                                        <path class="st1" d="M14.4,11.8l0.7,5.1h-4c0.1-0.5,0.8-5.1,0.8-5.1L14.4,11.8z"></path>
                                        <path class="st0" d="M62,13.1c0.1-0.5,0.3-0.9,0.6-1.3c0.3-0.4,0.7-0.6,1.3-0.8c0.2-0.1,0.4-0.1,0.6-0.2c0.3-0.1,0.5-0.2,0.8-0.3
                                            c0.3-0.1,0.5-0.3,0.7-0.4c0.2-0.2,0.3-0.4,0.4-0.7c0.1-0.2,0.1-0.4,0-0.6c0-0.2-0.1-0.4-0.2-0.5c-0.1-0.2-0.2-0.3-0.4-0.4
                                            c-0.2-0.1-0.3-0.2-0.5-0.2c-0.2-0.1-0.4-0.1-0.6,0c-0.2,0-0.4,0.1-0.6,0.2c-0.2,0.1-0.3,0.2-0.5,0.3c-0.1,0.1-0.3,0.2-0.4,0.4
                                            L62,7.2c0.2-0.3,0.5-0.5,0.7-0.7C63,6.3,63.4,6.1,63.7,6c0.3-0.1,0.7-0.2,1-0.2c0.4,0,0.7,0,1,0.1c0.4,0.1,0.8,0.3,1.1,0.5
                                            c0.3,0.2,0.6,0.5,0.9,0.8c0.2,0.3,0.4,0.7,0.5,1.2c0.1,0.5,0.1,1-0.1,1.5c-0.1,0.3-0.2,0.6-0.3,0.9c-0.1,0.2-0.3,0.4-0.5,0.6
                                            c-0.2,0.2-0.4,0.3-0.6,0.4c-0.3,0.1-0.5,0.2-0.8,0.3c-0.2,0.1-0.5,0.1-0.7,0.2c-0.2,0.1-0.4,0.1-0.7,0.2c-0.2,0.1-0.4,0.2-0.5,0.4
                                            c-0.2,0.2-0.3,0.4-0.3,0.6L62,13.1z M61.1,16.8l0.5-2.2l1.7,0.4l-0.5,2.2L61.1,16.8z"></path>
                                        <path class="st0" d="M8.6,53.1c0.1,0.3,0.1,0.7,0,1.1c-0.1,0.4-0.3,0.7-0.6,1c-0.1,0.1-0.2,0.2-0.4,0.3c-0.2,0.1-0.3,0.3-0.4,0.4
                                            c-0.1,0.2-0.2,0.3-0.3,0.5c-0.1,0.2-0.1,0.4,0,0.6c0,0.1,0.1,0.3,0.2,0.4c0.1,0.1,0.2,0.2,0.3,0.3c0.1,0.1,0.3,0.1,0.4,0.1
                                            c0.1,0,0.3,0,0.4,0c0.2,0,0.3-0.1,0.4-0.2c0.1-0.1,0.2-0.2,0.3-0.3C9,57.2,9.1,57.1,9.1,57c0.1-0.1,0.1-0.2,0.2-0.4l1.1,0.5
                                            c0,0.3-0.1,0.5-0.3,0.7C10,58,9.9,58.2,9.7,58.4c-0.2,0.2-0.4,0.3-0.6,0.4C8.8,59,8.6,59,8.4,59.1c-0.3,0.1-0.6,0.1-0.9,0.1
                                            c-0.3,0-0.6-0.1-0.8-0.2c-0.3-0.1-0.5-0.4-0.7-0.6c-0.2-0.3-0.4-0.6-0.4-1c0-0.2-0.1-0.4-0.1-0.7c0-0.2,0.1-0.4,0.1-0.6
                                            c0.1-0.2,0.2-0.3,0.3-0.5c0.1-0.2,0.3-0.3,0.4-0.5c0.1-0.1,0.3-0.2,0.4-0.4c0.1-0.1,0.3-0.2,0.4-0.4c0.1-0.1,0.2-0.3,0.2-0.4
                                            c0.1-0.2,0.1-0.3,0-0.5L8.6,53.1z M8,50.4L8.3,52l-1.3,0.3l-0.3-1.6L8,50.4z"></path>
                                        <path class="st0" d="M65.1,36.7c0.2,0.3,0.4,0.6,0.5,1c0.1,0.4,0,0.8-0.1,1.1c-0.1,0.1-0.1,0.3-0.2,0.5c-0.1,0.2-0.2,0.4-0.2,0.6
                                            C65,40,64.9,40.2,65,40.4c0,0.2,0.1,0.4,0.2,0.6c0.1,0.1,0.2,0.2,0.3,0.3c0.1,0.1,0.2,0.1,0.4,0.1c0.1,0,0.3,0,0.4-0.1
                                            c0.1,0,0.3-0.1,0.4-0.2c0.1-0.1,0.2-0.2,0.3-0.4c0.1-0.1,0.1-0.3,0.2-0.4c0-0.1,0.1-0.3,0.1-0.4c0-0.1,0-0.3,0-0.4l1.2,0
                                            c0.1,0.3,0.1,0.5,0.1,0.8c0,0.3-0.1,0.5-0.2,0.7c-0.1,0.2-0.2,0.5-0.4,0.7c-0.2,0.2-0.3,0.4-0.6,0.6c-0.2,0.2-0.5,0.3-0.8,0.4
                                            c-0.3,0.1-0.6,0.1-0.9,0.1c-0.3,0-0.6-0.1-0.9-0.2c-0.3-0.2-0.6-0.4-0.8-0.7c-0.1-0.2-0.2-0.4-0.3-0.6c-0.1-0.2-0.1-0.4-0.1-0.6
                                            c0-0.2,0-0.4,0.1-0.6c0-0.2,0.1-0.4,0.2-0.6c0.1-0.2,0.1-0.3,0.2-0.5c0.1-0.2,0.1-0.3,0.2-0.5c0-0.2,0.1-0.3,0-0.5
                                            c0-0.2-0.1-0.3-0.2-0.5L65.1,36.7z M63.5,34.5l1,1.3l-1,0.8l-1-1.3L63.5,34.5z"></path>
                                        <path class="st0" d="M71,33.4c0-0.4,0.1-0.8,0.2-1.2c0.2-0.4,0.5-0.7,0.8-0.9c0.1-0.1,0.3-0.2,0.5-0.3c0.2-0.1,0.4-0.2,0.5-0.4
                                            c0.2-0.1,0.3-0.3,0.5-0.5c0.1-0.2,0.2-0.4,0.2-0.6c0-0.3-0.1-0.6-0.4-0.8c-0.1-0.1-0.2-0.2-0.4-0.2c-0.1,0-0.3-0.1-0.5-0.1
                                            c-0.2,0-0.3,0-0.5,0.1c-0.1,0.1-0.3,0.1-0.4,0.2c-0.1,0.1-0.2,0.2-0.3,0.3c-0.1,0.1-0.2,0.2-0.2,0.4l-1.1-0.8
                                            c0.1-0.3,0.3-0.5,0.4-0.7c0.2-0.2,0.4-0.4,0.6-0.5c0.2-0.1,0.5-0.3,0.8-0.3c0.3-0.1,0.6-0.1,0.8-0.1c0.3,0,0.6,0,1,0.1
                                            c0.3,0.1,0.6,0.2,0.8,0.5c0.3,0.2,0.5,0.5,0.6,0.8c0.2,0.4,0.3,0.8,0.2,1.2c0,0.2,0,0.5-0.1,0.7c-0.1,0.2-0.2,0.4-0.3,0.6
                                            c-0.1,0.2-0.3,0.3-0.4,0.5c-0.2,0.1-0.4,0.3-0.5,0.4c-0.2,0.1-0.3,0.2-0.5,0.3c-0.2,0.1-0.3,0.2-0.5,0.3c-0.1,0.1-0.3,0.3-0.3,0.4
                                            c-0.1,0.2-0.1,0.4-0.1,0.6L71,33.4z M71.1,36.4v-1.8h1.4v1.8H71.1z"></path>
                                        <path class="st0" d="M26.7,43.9c-0.1-0.4-0.1-0.8,0-1.2c0.1-0.4,0.3-0.8,0.6-1c0.1-0.1,0.2-0.2,0.4-0.4c0.2-0.1,0.3-0.3,0.5-0.5
                                            c0.1-0.2,0.3-0.4,0.3-0.6c0.1-0.2,0.1-0.4,0.1-0.7c0-0.2-0.1-0.3-0.2-0.5c-0.1-0.1-0.2-0.2-0.3-0.3c-0.1-0.1-0.3-0.1-0.4-0.1
                                            c-0.2,0-0.3,0-0.5,0c-0.2,0-0.3,0.1-0.5,0.2c-0.1,0.1-0.3,0.2-0.4,0.3c-0.1,0.1-0.2,0.3-0.3,0.4c-0.1,0.1-0.1,0.3-0.2,0.4l-1.2-0.5
                                            c0.1-0.3,0.1-0.5,0.3-0.8c0.1-0.2,0.3-0.5,0.5-0.6c0.2-0.2,0.4-0.4,0.7-0.5c0.3-0.1,0.5-0.2,0.8-0.3c0.3-0.1,0.6-0.1,1-0.1
                                            c0.3,0,0.6,0.1,0.9,0.3c0.3,0.2,0.6,0.4,0.8,0.7c0.4,0.5,0.6,1.2,0.5,1.8c0,0.2-0.1,0.4-0.2,0.6c-0.1,0.2-0.2,0.4-0.3,0.6
                                            c-0.1,0.2-0.3,0.4-0.5,0.5c-0.1,0.1-0.3,0.3-0.4,0.4c-0.1,0.1-0.3,0.3-0.4,0.4c-0.1,0.1-0.2,0.3-0.3,0.5c-0.1,0.2-0.1,0.4,0,0.6
                                            L26.7,43.9z M27.4,46.8L27,45.1l1.4-0.3l0.4,1.8L27.4,46.8z"></path>
                                        <path class="st0" d="M70,58.1l2.4-0.1l1.2,0c0.4,0,0.8,0,1.2,0l-0.1,0.1l0-2.1l0.1,0.1l-2.4,0c-0.8,0-1.6,0-2.4,0l0.1,0
                                            c0,0.3,0,0.7,0,1L70,58.1z M70,58.1l0-1c0-0.3,0-0.7,0-1v0h0c0.8,0,1.6,0,2.4,0l2.4,0h0.1v0.1v2.1v0.1h-0.1c-0.4,0-0.8,0-1.2,0
                                            l-1.2,0L70,58.1z"></path>
                                        <path class="st0" d="M72.6,60.7l2.4-0.1l1.2,0c0.4,0,0.8,0,1.2,0l-0.1,0.1l0-2.1l0.1,0.1l-2.4,0c-0.8,0-1.6,0-2.4,0l0.1,0
                                            c0,0.3,0,0.7,0,1L72.6,60.7z M72.6,60.7l0-1c0-0.3,0-0.7,0-1v0h0c0.8,0,1.6,0,2.4,0l2.4,0h0.1v0.1l0,2.1v0.1h-0.1
                                            c-0.4,0-0.8,0-1.2,0l-1.2,0L72.6,60.7z"></path>
                                        <path class="st0" d="M67.3,60.7l2.4-0.1l1.2,0c0.4,0,0.8,0,1.2,0L72,60.7l0-2.1l0.1,0.1l-2.4,0c-0.8,0-1.6,0-2.4,0l0,0
                                            c0,0.3,0,0.7,0,1L67.3,60.7z M67.3,60.7l0-1c0-0.3,0-0.7,0-1v0h0c0.8,0,1.6,0,2.4,0l2.4,0h0.1v0.1l0,2.1v0.1h-0.1
                                            c-0.4,0-0.8,0-1.2,0l-1.2,0L67.3,60.7z"></path>
                                        <path class="st0" d="M6,60.7l2.4-0.1l1.2,0c0.4,0,0.8,0,1.2,0l-0.1,0.1l0-2.1l0.1,0.1l-2.4,0c-0.8,0-1.6,0-2.4,0l0,0
                                            c0,0.3,0,0.7,0,1L6,60.7z M6,60.7l0-1c0-0.3,0-0.7,0-1v0H6c0.8,0,1.6,0,2.4,0l2.4,0h0.1v0.1l0,2.1v0.1h-0.1c-0.4,0-0.8,0-1.2,0
                                            l-1.2,0L6,60.7z"></path>
                                        <path class="st0" d="M6,3.4l2.4-0.1l1.2,0c0.4,0,0.8,0,1.2,0l-0.1,0.1l0-2.1l0.1,0.1l-2.4,0c-0.8,0-1.6,0-2.4,0l0,0
                                            c0,0.3,0,0.7,0,1L6,3.4z M6,3.4l0-1c0-0.3,0-0.7,0-1v0H6c0.8,0,1.6,0,2.4,0l2.4,0h0.1v0.1l0,2.1v0.1h-0.1c-0.4,0-0.8,0-1.2,0
                                            l-1.2,0L6,3.4z"></path>
                                        <path class="st0" d="M3.3,6L5.7,6l1.2,0c0.4,0,0.8,0,1.2,0L8,6V4l0.1,0.1l-2.4,0c-0.8,0-1.6,0-2.4,0l0,0c0,0.3,0,0.7,0,1L3.3,6z
                                            M3.3,6l0-1c0-0.3,0-0.7,0-1v0h0.1c0.8,0,1.6,0,2.4,0l2.4,0h0.1V4l0,2.1v0.1H8.1c-0.4,0-0.8,0-1.2,0l-1.2,0L3.3,6z"></path>
                                        <path class="st0" d="M72.6,3.4L75,3.4l1.2,0c0.4,0,0.8,0,1.2,0l-0.1,0.1l0-2.1l0.1,0.1l-2.4,0c-0.8,0-1.6,0-2.4,0l0.1,0
                                            c0,0.3,0,0.7,0,1L72.6,3.4z M72.6,3.4l0-1c0-0.3,0-0.7,0-1v0h0c0.8,0,1.6,0,2.4,0l2.4,0h0.1v0.1l0,2.1v0.1h-0.1c-0.4,0-0.8,0-1.2,0
                                            l-1.2,0L72.6,3.4z"></path>
                                        <path class="st0" d="M46.9,30.1l-2.4,0.1l-1.2,0c-0.4,0-0.8,0-1.2,0l0.1-0.1l0,2.1l-0.1-0.1l2.4,0c0.8,0,1.6,0,2.4,0l0,0
                                            c0-0.3,0-0.7,0-1L46.9,30.1z M46.9,30.1l0,1c0,0.3,0,0.7,0,1v0h-0.1c-0.8,0-1.6,0-2.4,0l-2.4,0H42v-0.1l0-2.1v-0.1h0.1
                                            c0.4,0,0.8,0,1.2,0l1.2,0L46.9,30.1z"></path>
                                        <path class="st0" d="M44.2,27.5l-2.4,0.1l-1.2,0c-0.4,0-0.8,0-1.2,0l0.1-0.1l0,2.1l-0.1-0.1l2.4,0c0.8,0,1.6,0,2.4,0l0,0
                                            c0-0.3,0-0.7,0-1L44.2,27.5z M44.2,27.5l0,1c0,0.3,0,0.7,0,1v0h-0.1c-0.8,0-1.6,0-2.4,0l-2.4,0h-0.1v-0.1l0-2.1v-0.1h0.1
                                            c0.4,0,0.8,0,1.2,0l1.2,0L44.2,27.5z"></path>
                                    </g>
                                    <g id="freepik--Floor--inject-16">
                                        <polygon class="st4" points="2.3,70 11.8,70 21.3,70 40.3,69.9 59.4,70 68.9,70 78.4,70 68.9,70.1 59.4,70.1 40.3,70.1 21.3,70.1 
                                            11.8,70.1 	"></polygon>
                                    </g>
                                    <g id="freepik--Shadow--inject-16">
                                        <ellipse class="st0" cx="40.3" cy="76.3" rx="32.4" ry="3.2"></ellipse>
                                    </g>
                                    <g id="freepik--Plant--inject-16">
                                        <path class="st4" d="M72.1,49.8c-0.7-0.7-1.6-1.5-2.6-1.2c-1,0.3-1.4,1.4-1.5,2.3c-0.2,1.2-0.4,2.4-0.6,3.6s-0.4,2.4-0.5,3.6
                                            c-0.1,0.7-0.2,1.4-0.3,2c0,0.3-0.1,0.7-0.1,1c0,0.3-0.1,0.7-0.1,1c0,0.1,0.2,0.1,0.2,0c0.1-0.6,0.2-1.2,0.3-1.7s0.2-1.2,0.2-1.7
                                            c0.2-1.1,0.3-2.3,0.5-3.4c0.2-1.1,0.3-2.3,0.5-3.4c0.2-1,0.2-2.2,1.1-2.8c0.5-0.3,1.1-0.4,1.6-0.2C71.2,49,71.7,49.4,72.1,49.8
                                            C72.1,49.8,72.2,49.8,72.1,49.8z"></path>
                                        <path class="st5" d="M71.2,49.1c0,0-1.4-0.5-2.1,0.5c-0.7,1,0.1,3.7,6.5,5.2c-0.2-2-0.7-4-1.5-5.9C72.7,45.9,70.3,47,71.2,49.1z"></path>
                                        <path class="st4" d="M75.3,54.4c-0.1-0.2-0.2-0.4-0.3-0.5c-0.1-0.2-0.2-0.3-0.3-0.5c-0.1-0.1-0.2-0.3-0.2-0.4c0,0,0-0.1,0-0.1
                                            l0-0.2c0-0.1,0-0.2,0.1-0.4c0-0.1,0-0.2,0.1-0.4c0-0.1,0-0.3,0.1-0.4c0,0,0,0,0,0c0,0.1,0,0.1-0.1,0.2l0,0.2c0,0.1-0.1,0.2-0.1,0.4
                                            c0,0.1,0,0.2-0.1,0.3c0,0.1,0,0.1,0,0.2c-0.1-0.2-0.2-0.3-0.3-0.5c-0.3-0.5-0.7-0.9-1.1-1.3c0,0,0,0,0,0c0-0.7,0-1.4,0.2-2
                                            c0,0,0,0,0,0c-0.2,0.6-0.2,1.3-0.2,1.9c-0.1-0.2-0.3-0.3-0.4-0.5c-0.3-0.3-0.6-0.7-0.9-1c0,0,0,0,0,0c0.5,0.6,1,1.2,1.5,1.8
                                            c-0.4,0-0.8,0-1.2,0c-0.4,0-0.9,0.1-1.3,0.1c0,0,0,0,0,0c0.4-0.1,0.9-0.1,1.3-0.1c0.4,0,0.8,0,1.2,0c0.3,0.3,0.5,0.7,0.8,1h-0.1
                                            c-0.1,0-0.2,0-0.3,0c-0.2,0-0.4,0-0.6,0c-0.4,0-0.8,0.1-1.2,0.2c0,0,0,0,0,0c0,0,0,0,0,0c0.4,0,0.8-0.1,1.2-0.1c0.2,0,0.4,0,0.6,0
                                            h0.3c0.1,0,0.1,0,0.2,0c0.2,0.2,0.3,0.5,0.5,0.7c0.1,0.2,0.3,0.4,0.4,0.6C75,54,75.1,54.2,75.3,54.4C75.2,54.4,75.3,54.4,75.3,54.4
                                            z"></path>
                                        <path class="st4" d="M71.8,50.6c-0.2,0-0.5,0-0.7,0c-0.2,0-0.5,0-0.7,0c0,0,0,0,0,0c0.2,0,0.5,0,0.7,0
                                            C71.4,50.6,71.6,50.6,71.8,50.6C71.8,50.6,71.8,50.6,71.8,50.6z"></path>
                                        <path class="st4" d="M73.8,51.1c0-0.2,0.1-0.4,0.1-0.7c0,0,0,0,0,0s0,0,0,0l0,0C73.9,50.6,73.8,50.9,73.8,51.1
                                            c-0.1,0.1-0.1,0.2-0.1,0.3c0,0.1,0,0.2,0,0.3c0,0,0,0,0,0c0,0,0,0,0,0c0-0.1,0-0.2,0-0.3C73.8,51.3,73.8,51.2,73.8,51.1z"></path>
                                        <path class="st4" d="M73.4,48.6c-0.1,0.2-0.1,0.4-0.1,0.7c0,0.1,0,0.2-0.1,0.3c0,0.1,0,0.2,0,0.3c0,0,0,0,0,0s0,0,0,0
                                            c0-0.1,0-0.2,0-0.3c0-0.1,0-0.2,0-0.3C73.3,49.1,73.4,48.9,73.4,48.6C73.4,48.6,73.4,48.6,73.4,48.6z"></path>
                                        <path class="st4" d="M65.1,61.8c0-0.4-0.1-0.8-0.1-1.2c-0.1-0.8-0.2-1.6-0.3-2.4c-0.1-0.8-0.2-1.6-0.3-2.4c0-0.4-0.1-0.7-0.2-1.1
                                            c-0.1-0.3-0.3-0.6-0.6-0.7c-0.7-0.3-1.3,0.5-1.6,1.1c0,0,0,0,0,0c0.2-0.3,0.7-1,1.2-1c0.4,0,0.7,0.3,0.9,1.3
                                            c0.5,2.4,0.9,7.4,0.9,7.7c0,0.2,0.1,0.2,0.1,0C65.2,62.6,65.2,62.2,65.1,61.8z"></path>
                                        <path class="st5" d="M62.2,54.8c0,0,0.7-2.4-0.8-1.2c-2.4,2-2.5,6.2-2.5,6.2s4.3-2.5,4.8-4.2C64.5,53.1,62.2,54.8,62.2,54.8z"></path>
                                        <path class="st4" d="M63,55.9c-0.3,0.1-0.7,0.1-1,0.2l-0.5,0.1c-0.1,0-0.2,0-0.3,0c0.3-0.4,0.6-0.9,0.9-1.4c0,0,0,0,0,0
                                            c0,0,0,0,0,0c-0.3,0.3-0.5,0.5-0.7,0.8l-0.2-0.6c-0.1-0.2-0.2-0.4-0.2-0.6c0,0,0,0,0,0c0.1,0.2,0.1,0.4,0.2,0.7
                                            c0.1,0.2,0.1,0.4,0.2,0.6c-0.2,0.2-0.3,0.4-0.5,0.6c-0.1-0.2-0.2-0.4-0.2-0.6c0,0,0,0,0,0c0.1,0.2,0.1,0.5,0.2,0.7
                                            c-0.1,0.1-0.2,0.3-0.3,0.4c-0.2,0.3-0.3,0.6-0.5,0.8c0,0,0,0,0,0.1c-0.3,0.5-0.5,1-0.8,1.5c0,0,0,0,0,0c0,0,0,0,0,0
                                            c0.3-0.5,0.5-1,0.8-1.4l0,0c0,0,0.1,0,0.1,0l0.1,0c0.1,0,0.2-0.1,0.3-0.1c0.2-0.1,0.4-0.1,0.7-0.1c0,0,0,0,0,0
                                            c-0.3,0-0.5,0.1-0.8,0.1c-0.1,0-0.2,0-0.4,0.1h0c0.2-0.2,0.3-0.5,0.5-0.7c0.2-0.2,0.3-0.5,0.5-0.7c0.1,0,0.3-0.1,0.4-0.1l0.5-0.1
                                            C62.4,56.1,62.7,56,63,55.9C63,56,63,55.9,63,55.9z"></path>
                                        <path class="st4" d="M60.4,56.2c0-0.1,0-0.1-0.1-0.2c0-0.1-0.1-0.3-0.1-0.4c0,0,0,0,0,0c0,0.1,0.1,0.3,0.1,0.4
                                            c0,0.1,0.1,0.3,0.1,0.4c0,0,0,0,0,0c0,0,0,0,0,0C60.5,56.3,60.5,56.2,60.4,56.2z"></path>
                                        <path class="st4" d="M63.5,55.4c-0.2,0-0.4,0-0.6,0.1c-0.2,0-0.4,0-0.6,0.1c0,0,0,0,0,0c0.2,0,0.4,0,0.6-0.1
                                            C63.1,55.4,63.3,55.4,63.5,55.4C63.5,55.4,63.5,55.4,63.5,55.4z"></path>
                                        <path class="st4" d="M68.3,58.8c-0.1-1.7-0.2-3.5-0.4-5.2c-0.1-0.9-0.2-1.7-0.3-2.6c-0.1-0.8-0.3-1.7-0.5-2.5
                                            c-0.2-0.6-0.4-1.2-0.8-1.8c-0.4-0.5-1-0.8-1.6-0.7c-0.7,0.1-1.3,0.6-1.9,1.1c-0.6,0.6-1.1,1.2-1.6,1.8c-0.1,0.2-0.3,0.3-0.4,0.5
                                            c0,0,0,0,0,0c0.5-0.6,1.1-1.2,1.6-1.8c0.5-0.5,1.1-1.1,1.8-1.3c0.3-0.1,0.7-0.1,1,0c0.3,0.1,0.5,0.2,0.7,0.5c0.4,0.4,0.6,1,0.8,1.6
                                            c0.5,1.6,0.6,3.3,0.8,4.9c0.2,1.7,0.3,3.4,0.4,5c0.1,1.7,0.1,3.4,0.3,5.1c0,0.2,0,0.4,0.1,0.6c0,0.1,0.2,0.1,0.2,0
                                            C68.4,62.3,68.3,60.6,68.3,58.8z"></path>
                                        <path class="st5" d="M62.7,47.3c0,0,1-1.8-0.2-2.4c-1.1-0.6-5,3.8-6.1,10.2c0,0,6.2-2.8,8.3-5.6C66.8,46.7,64.5,46.1,62.7,47.3z"></path>
                                        <path class="st4" d="M63.6,48.8c-0.7,0-1.4-0.1-2.1,0l0.4-0.5c0.2-0.2,0.4-0.4,0.5-0.6c0,0,0,0,0,0c-0.2,0.2-0.4,0.3-0.5,0.5
                                            c-0.2,0.2-0.3,0.4-0.5,0.6c-0.3,0.3-0.5,0.6-0.8,0.9c0,0,0-0.1,0-0.1c0-0.1,0-0.3,0-0.4c0-0.2,0-0.5,0-0.7c0-0.5,0-1,0-1.5
                                            c0,0,0,0,0,0c0,0.5-0.1,1-0.1,1.5c0,0.2,0,0.5,0,0.7c0,0.1,0,0.2,0,0.4c0,0.1,0,0.1,0,0.2c0,0-0.1,0.1-0.1,0.1
                                            c-0.6,0.7-1.1,1.3-1.6,2c0,0,0-0.1,0-0.1c0-0.1,0-0.2,0-0.2c0-0.2,0-0.3-0.1-0.5c0-0.2,0-0.3-0.1-0.5c0-0.2-0.1-0.3-0.1-0.5
                                            c0,0,0,0,0,0c0,0,0,0,0,0c0,0,0,0,0,0c0,0.2,0,0.3,0.1,0.5l0,0.5c0,0.2,0,0.3,0,0.5l0,0.2c0,0,0,0.1,0,0.1c0,0,0,0.1,0,0.1
                                            l-0.3,0.4c-0.4,0.5-0.7,1-1,1.4c0,0,0,0,0,0c0.3-0.4,0.7-0.9,1-1.3c0.3,0,0.5,0,0.8,0c0.3,0,0.5,0,0.8,0c0,0,0,0,0,0c0,0,0,0,0,0
                                            c-0.3,0-0.5,0-0.8,0c-0.3,0-0.5,0-0.7,0c0.3-0.4,0.6-0.7,0.9-1.1l0.4-0.4c0.1,0,0.2,0,0.3,0h0.4c0.2,0,0.5,0,0.7,0
                                            c0.5,0,0.9,0,1.4,0c0,0,0,0,0,0c0,0,0,0,0,0c0,0,0,0,0,0c-0.5,0-0.9,0-1.4,0c-0.2,0-0.5,0-0.7,0H60c-0.1,0-0.1,0-0.2,0l0.8-0.9
                                            c0,0,0,0,0,0c0.3-0.3,0.5-0.6,0.8-0.9c0,0,0.1-0.1,0.1-0.1C62.2,48.9,62.9,48.8,63.6,48.8C63.7,48.8,63.7,48.8,63.6,48.8z"></path>
                                        <path class="st4" d="M63.3,50.1h-0.2c0,0,0,0,0,0s0,0,0,0L63.3,50.1C63.3,50.1,63.3,50.1,63.3,50.1C63.3,50.1,63.3,50.1,63.3,50.1z
                                            "></path>
                                        <path class="st4" d="M62.9,50.1c-0.2,0-0.4,0-0.7,0l-0.3,0c-0.1,0-0.2,0-0.3,0c0,0,0,0,0,0c0,0,0,0,0,0c0.1,0,0.2,0,0.3,0h0.3
                                            L62.9,50.1C62.9,50.1,62.9,50.1,62.9,50.1z"></path>
                                        <path class="st4" d="M61,52.2c-0.5-0.1-0.9-0.1-1.4-0.1 M59.6,52.1c0.5,0,0.9,0.1,1.4,0.1c0,0,0,0,0,0L59.6,52.1z"></path>
                                        <path class="st4" d="M59.1,50.2c0,0,0-0.1,0-0.1c0-0.1,0-0.2,0-0.3c0-0.2-0.1-0.3-0.1-0.5c0,0,0,0,0,0c0,0.2,0,0.4,0.1,0.5l0,0.3
                                            c0,0.1,0,0.2,0,0.3c0,0,0,0,0,0c0,0,0,0,0,0C59.1,50.3,59.1,50.2,59.1,50.2z"></path>
                                        <path class="st4" d="M68.2,45c-0.2-0.4-0.5-1-1.1-0.9c-0.5,0-0.7,0.5-0.8,0.9c-0.3,1.2-0.3,2.5-0.4,3.8c-0.1,2.6-0.2,5.3-0.3,7.9
                                            c0,0.7,0,1.5,0,2.2c0,0.7,0,1.5,0.1,2.2c0,0,0,0.1,0.1,0.1c0,0,0.1,0,0.1-0.1c0-0.6,0-1.3,0-1.9c0-0.6,0-1.2,0-1.9
                                            c0-1.3,0.1-2.5,0.1-3.8c0-1.3,0.1-2.5,0.2-3.8c0-0.6,0.1-1.3,0.1-1.9c0-0.6,0.1-1.2,0.1-1.8c0-0.3,0.1-0.7,0.2-1
                                            c0-0.2,0.1-0.5,0.3-0.7c0.2-0.2,0.6-0.2,0.8-0.1C67.9,44.4,68.1,44.7,68.2,45C68.2,45,68.2,45,68.2,45C68.2,45,68.2,45,68.2,45
                                            L68.2,45z"></path>
                                        <path class="st5" d="M68.1,44.8c0,0-0.5-1.6,0.6-0.8c1.7,1.4,1.7,4.4,1.7,4.4s-3-1.8-3.3-2.9C66.4,43.6,68.1,44.8,68.1,44.8z"></path>
                                        <path class="st4" d="M69.7,47.1c0,0-0.1-0.1-0.1-0.1c0,0,0-0.1,0-0.1c0-0.1,0-0.1,0-0.2c0-0.1,0-0.3,0-0.4c0,0,0,0,0,0c0,0,0,0,0,0
                                            c0,0.1,0,0.3,0,0.4c0,0.1,0,0.1,0,0.2c0,0,0,0.1,0,0.1c-0.1-0.2-0.2-0.4-0.4-0.6c0-0.1-0.1-0.1-0.1-0.2c0-0.2,0-0.4,0-0.5
                                            c0-0.2,0-0.4,0-0.6c0,0,0,0,0,0c0,0.2,0,0.4,0,0.6c0,0.1,0,0.3,0,0.4c-0.3-0.4-0.6-0.8-0.9-1.2c0,0,0,0,0,0
                                            c0.2,0.2,0.4,0.5,0.6,0.8c-0.4-0.1-0.7-0.1-1.1-0.2c0,0,0,0,0,0c0.4,0.1,0.7,0.2,1.1,0.2l0,0c0.1,0.2,0.3,0.4,0.4,0.6l0.2,0.3h0
                                            l-0.1,0l-0.2,0c-0.2,0-0.3,0-0.5,0c0,0,0,0,0,0c0.2,0,0.3,0,0.5,0l0.3,0l0.1,0h0C69.5,46.8,69.6,47,69.7,47.1
                                            c0.1,0.3,0.3,0.6,0.4,0.8c0,0,0,0,0,0c0,0,0,0,0,0C70,47.6,69.9,47.3,69.7,47.1z"></path>
                                        <path class="st4" d="M69,45.2c0-0.1,0-0.1,0-0.2c0-0.1,0-0.3,0-0.4c0,0,0,0,0,0c0,0,0,0,0,0c0,0,0,0,0,0c0,0.1,0,0.3,0,0.4
                                            C68.9,45.1,68.9,45.1,69,45.2L69,45.2c0,0.1,0,0.2,0,0.2c0,0,0,0,0,0c0,0,0,0,0,0c0,0,0-0.1,0-0.1L69,45.2z"></path>
                                        <path class="st4" d="M68.6,45.9c-0.1,0-0.2,0-0.3,0c-0.1,0-0.2,0-0.4,0c0,0,0,0,0,0c0,0,0,0,0,0C68.2,45.9,68.4,45.9,68.6,45.9
                                            C68.6,45.9,68.6,45.9,68.6,45.9z"></path>
                                        <path class="st4" d="M69.5,45.9C69.6,45.9,69.5,45.9,69.5,45.9v0.2c0,0,0,0.1,0,0.1c0,0,0,0.1,0,0.1c0,0,0,0,0,0c0,0,0,0,0,0
                                            c0,0,0,0,0-0.1v-0.1c0,0,0-0.1,0-0.1L69.5,45.9C69.6,45.9,69.6,45.9,69.5,45.9C69.6,45.9,69.5,45.9,69.5,45.9z"></path>
                                        <path class="st4" d="M68.3,53.7c-0.6-0.5-1.2-1.2-2-1.2c-0.7,0-1.2,0.5-1.5,1.1c-0.1,0.3-0.3,0.6-0.3,1c-0.1,0.4-0.2,0.9-0.4,1.4
                                            c-0.2,0.9-0.4,1.8-0.6,2.7c-0.1,0.5-0.2,1-0.2,1.5c-0.1,0.5-0.1,1-0.1,1.6c0,0,0,0.1,0.1,0.1c0,0,0.1,0,0.1-0.1
                                            c0.1-0.4,0.1-0.9,0.2-1.3s0.1-0.9,0.2-1.3c0.1-0.9,0.3-1.7,0.5-2.6c0.2-0.8,0.4-1.6,0.6-2.4c0.2-0.6,0.5-1.2,1.1-1.4
                                            C66.8,52.5,67.6,53.3,68.3,53.7C68.3,53.8,68.3,53.8,68.3,53.7z"></path>
                                        <path class="st5" d="M67.6,53.3c0,0-0.6-1.7,0.3-2c1.3-0.5,4.5,3.3,3.9,9.1c0,0-2.5-1.4-4.4-3c-1.9-1.6-2.3-3.7-1.5-4.2
                                            S67.6,53.3,67.6,53.3z"></path>
                                        <path class="st4" d="M71.4,59.1c-0.1-0.2-0.2-0.4-0.3-0.6c-0.1-0.2-0.2-0.4-0.3-0.6c-0.2-0.4-0.4-0.8-0.7-1.1L70,56.6
                                            c0,0,0,0,0-0.1l0-0.2c0-0.1,0.1-0.3,0.1-0.4c0-0.2,0.1-0.5,0.2-0.7c0,0,0,0,0,0c-0.1,0.2-0.1,0.5-0.2,0.7c0,0.1-0.1,0.2-0.1,0.4
                                            l0,0.1c-0.3-0.5-0.5-0.9-0.8-1.3c0-0.1,0-0.1,0-0.2c0-0.1,0-0.2,0-0.3c0-0.2,0-0.4,0.1-0.6c0.1-0.4,0.1-0.7,0.2-1.1c0,0,0,0,0,0
                                            c-0.1,0.4-0.2,0.7-0.3,1.1c0,0.2-0.1,0.4-0.1,0.6c0,0.1,0,0.2,0,0.3c0,0,0,0.1,0,0.1c-0.1-0.1-0.2-0.3-0.3-0.4
                                            c-0.3-0.4-0.6-0.8-0.9-1.1c0,0,0,0,0,0c0.5,0.7,1,1.4,1.4,2.1l0.2,0.4l-0.1,0c-0.1,0-0.2,0-0.3,0l-0.6-0.1c-0.4,0-0.9-0.1-1.3-0.1
                                            c0,0,0,0,0,0c0.4,0.1,0.9,0.1,1.3,0.2c0.2,0,0.4,0.1,0.6,0.1c0.2,0,0.3,0,0.5,0c0.2,0.3,0.3,0.6,0.5,0.8c0,0-0.1,0-0.1,0h-0.6
                                            c-0.3,0-0.5,0-0.8,0c0,0,0,0,0,0c0.3,0,0.6,0,0.8,0l0.4,0l0.2,0c0.1,0,0.1,0,0.2,0l0.4,0.7c0.1,0.2,0.3,0.4,0.4,0.7
                                            C71.1,58.7,71.2,58.9,71.4,59.1C71.4,59.1,71.4,59.1,71.4,59.1z"></path>
                                        <path class="st4" d="M70.2,54.4c0,0.2-0.1,0.4-0.1,0.6c0,0.2-0.1,0.4-0.2,0.6c0,0,0,0,0,0c0,0,0,0,0,0c0,0,0,0,0,0
                                            c0.1-0.2,0.1-0.4,0.1-0.6S70.2,54.6,70.2,54.4C70.2,54.4,70.2,54.4,70.2,54.4C70.2,54.4,70.2,54.4,70.2,54.4L70.2,54.4z"></path>
                                        <path class="st4" d="M68.3,55.5c0,0-0.1-0.1-0.1-0.1l-0.2,0c-0.1,0-0.3,0-0.4-0.1c-0.3,0-0.6-0.1-0.9-0.1c0,0,0,0,0,0
                                            c0.3,0,0.6,0.1,0.9,0.1l0.4,0.1l0.2,0C68.2,55.5,68.2,55.5,68.3,55.5C68.3,55.6,68.3,55.6,68.3,55.5C68.3,55.5,68.3,55.5,68.3,55.5
                                            z"></path>
                                        <path class="st4" d="M70.2,58.1c-0.1,0-0.3,0-0.4,0h-0.2h-0.1c0,0-0.1,0-0.1,0c0,0,0,0,0,0c0,0,0.1,0,0.1,0h0.1l0.2,0
                                            C69.9,58.1,70,58.1,70.2,58.1C70.2,58.1,70.2,58.1,70.2,58.1z"></path>
                                        <path class="st4" d="M71.1,57.4l0-0.3c0-0.2,0.1-0.3,0.1-0.5c0,0,0,0,0,0c0,0,0,0,0,0l0,0l-0.1,0.5C71.1,57.3,71,57.3,71.1,57.4
                                            C71,57.5,71,57.5,71.1,57.4C71,57.6,71,57.6,71,57.7c0,0,0,0,0,0c0,0,0,0,0,0C71.1,57.6,71.1,57.5,71.1,57.4z"></path>
                                        <polygon class="st6" points="62.5,61.1 62.7,63.2 63.3,70.1 68.6,70.1 69.3,63.2 69.6,61.1 	"></polygon>
                                        <polygon class="st4" points="62.5,61.1 62.7,63.2 69.3,63.2 69.6,61.1 	"></polygon>
                                        <rect x="62" y="60.6" class="st6" width="8.1" height="1.7"></rect>
                                    </g>
                                    <g id="freepik--question-mark--inject-16">
                                        <path class="st5" d="M33.9,54.3c0-2.9,0.5-5.6,1.4-7.9c0.9-2.3,2.9-4.4,5.8-6.1c0.9-0.5,2-1.2,3.3-1.8c1.3-0.7,2.6-1.5,3.8-2.5
                                            c1.2-0.9,2.3-2.1,3.1-3.4c0.9-1.3,1.3-2.9,1.3-4.5c0-1.2-0.2-2.3-0.7-3.3c-0.4-0.9-1.1-1.8-1.8-2.4c-0.8-0.7-1.7-1.2-2.7-1.5
                                            c-1-0.3-2.1-0.5-3.1-0.5c-1.2,0-2.4,0.2-3.5,0.7c-1,0.4-2,1-2.9,1.7c-0.8,0.7-1.6,1.5-2.3,2.3c-0.6,0.8-1.2,1.6-1.7,2.5h-1.3
                                            l-6.3-5.4c0.7-1.8,1.8-3.5,3-5c1.2-1.4,2.7-2.7,4.3-3.7c1.6-1,3.4-1.8,5.2-2.2c1.9-0.5,3.9-0.8,5.8-0.8c2.2,0,4.5,0.3,6.6,1
                                            c2.1,0.6,4.1,1.7,5.9,3.2c1.8,1.5,3.2,3.4,4.2,5.5c1.1,2.3,1.6,4.9,1.6,8.1c0,1.7-0.2,3.4-0.7,5.1c-0.4,1.4-1.1,2.8-1.9,4
                                            c-0.8,1.2-1.8,2.3-2.9,3.2c-1.2,1-2.5,2-3.8,2.8c-1.2,0.7-2.3,1.4-3.5,2.1c-1.1,0.6-2.2,1.4-3.2,2.2c-0.9,0.8-1.7,1.7-2.4,2.8
                                            c-0.6,1.1-0.9,2.3-0.9,3.8L33.9,54.3z M34.1,75.3V62.9h9.8v12.5H34.1z"></path>
                                        <g class="st7">
                                            <path d="M33.9,54.3c0-2.9,0.5-5.6,1.4-7.9c0.9-2.3,2.9-4.4,5.8-6.1c0.9-0.5,2-1.2,3.3-1.8c1.3-0.7,2.6-1.5,3.8-2.5
                                                c1.2-0.9,2.3-2.1,3.1-3.4c0.9-1.3,1.3-2.9,1.3-4.5c0-1.2-0.2-2.3-0.7-3.3c-0.4-0.9-1.1-1.8-1.8-2.4c-0.8-0.7-1.7-1.2-2.7-1.5
                                                c-1-0.3-2.1-0.5-3.1-0.5c-1.2,0-2.4,0.2-3.5,0.7c-1,0.4-2,1-2.9,1.7c-0.8,0.7-1.6,1.5-2.3,2.3c-0.6,0.8-1.2,1.6-1.7,2.5h-1.3
                                                l-6.3-5.4c0.7-1.8,1.8-3.5,3-5c1.2-1.4,2.7-2.7,4.3-3.7c1.6-1,3.4-1.8,5.2-2.2c1.9-0.5,3.9-0.8,5.8-0.8c2.2,0,4.5,0.3,6.6,1
                                                c2.1,0.6,4.1,1.7,5.9,3.2c1.8,1.5,3.2,3.4,4.2,5.5c1.1,2.3,1.6,4.9,1.6,8.1c0,1.7-0.2,3.4-0.7,5.1c-0.4,1.4-1.1,2.8-1.9,4
                                                c-0.8,1.2-1.8,2.3-2.9,3.2c-1.2,1-2.5,2-3.8,2.8c-1.2,0.7-2.3,1.4-3.5,2.1c-1.1,0.6-2.2,1.4-3.2,2.2c-0.9,0.8-1.7,1.7-2.4,2.8
                                                c-0.6,1.1-0.9,2.3-0.9,3.8L33.9,54.3z M34.1,75.3V62.9h9.8v12.5H34.1z"></path>
                                        </g>
                                        <path class="st5" d="M32.6,54.3c0-2.9,0.5-5.6,1.4-7.9c0.9-2.3,2.9-4.4,5.8-6.1c0.9-0.5,2-1.2,3.3-1.8c1.3-0.7,2.6-1.5,3.8-2.5
                                            c1.2-0.9,2.3-2.1,3.1-3.4c0.9-1.3,1.3-2.9,1.3-4.5c0-1.2-0.2-2.3-0.7-3.3c-0.4-0.9-1.1-1.8-1.8-2.4c-0.8-0.7-1.7-1.2-2.7-1.5
                                            c-1-0.3-2.1-0.5-3.1-0.5c-1.2,0-2.4,0.2-3.5,0.7c-1,0.4-2,1-2.9,1.7c-0.8,0.7-1.6,1.5-2.3,2.3c-0.6,0.8-1.2,1.6-1.7,2.5l-7.7-5.4
                                            c0.7-1.8,1.8-3.5,3-5c1.2-1.4,2.7-2.7,4.3-3.7c1.6-1,3.4-1.8,5.2-2.2c1.9-0.5,3.9-0.8,5.8-0.8c2.2,0,4.5,0.3,6.6,1
                                            c2.1,0.6,4.1,1.7,5.9,3.2c1.8,1.5,3.2,3.4,4.2,5.5c1.1,2.3,1.6,4.9,1.6,8.1c0,1.7-0.2,3.4-0.7,5.1c-0.4,1.4-1.1,2.8-1.9,4
                                            c-0.8,1.2-1.8,2.3-2.9,3.2c-1.2,1-2.5,2-3.8,2.8c-1.2,0.7-2.3,1.4-3.5,2.1c-1.1,0.6-2.2,1.4-3.2,2.2c-0.9,0.8-1.7,1.7-2.4,2.8
                                            c-0.6,1.1-0.9,2.3-0.9,3.8L32.6,54.3z M32.7,75.3V62.9h9.8v12.5H32.7z"></path>
                                    </g>
                                    <g id="freepik--Character--inject-16">
                                        <path class="st8" d="M28.5,76.3c-0.4,0.1-11.3,0-11.7-0.3c-0.2-0.1-0.2-1.7-0.3-3.7v-0.1c0-0.4,0-0.8,0-1.2c0-0.1,0-0.1,0-0.2
                                            c0-2.8,0-5.8,0-5.8l7.3,0.1l-0.2,5.7l0,0.2l0,1.2v0.1c0,0,4.1,2,4.6,2.3S28.9,76.2,28.5,76.3z"></path>
                                        <path class="st0" d="M28.5,76.3c-0.4,0.1-11.3,0-11.7-0.3c-0.2-0.1-0.2-1.7-0.3-3.7v-0.1c0-0.4,0-0.8,0-1.2c0-0.1,0-0.1,0-0.2
                                            l7.1,0l0,0.2l0,1.2v0.1c0,0,4.1,2,4.6,2.3S28.9,76.2,28.5,76.3z"></path>
                                        <path class="st5" d="M28.5,76.3c-0.2,0.1-4.5,0.1-7.8,0c-2.1-0.1-3.8-0.1-3.9-0.3c-0.2-0.1-0.2-1.7-0.3-3.6c0,0,0-0.1,0-0.1
                                            s0,0,0-0.1l7,0v0.1c0,0,4.2,2,4.6,2.3C28.6,75.1,28.9,76.2,28.5,76.3z"></path>
                                        <path class="st4" d="M28.4,75.9c-1.8-0.1-9.3-0.2-11.1-0.1c0,0,0,0,0,0C19.2,75.9,26.6,76,28.4,75.9C28.5,75.9,28.5,75.9,28.4,75.9
                                            z"></path>
                                        <path class="st4" d="M24.4,72.3c-0.7-0.1-1.6,0-2.2,0.5c0,0,0,0.1,0,0C22.9,72.6,23.7,72.5,24.4,72.3
                                            C24.4,72.4,24.4,72.4,24.4,72.3C24.4,72.3,24.4,72.3,24.4,72.3z"></path>
                                        <path class="st4" d="M24.9,72.6c-0.7-0.1-1.6,0-2.2,0.5c0,0,0,0.1,0,0C23.5,72.9,24.2,72.8,24.9,72.6
                                            C24.9,72.7,24.9,72.7,24.9,72.6C24.9,72.7,24.9,72.7,24.9,72.6z"></path>
                                        <path class="st4" d="M25.4,73c-0.7-0.1-1.6,0-2.2,0.5c0,0,0,0.1,0,0C24,73.3,24.7,73.1,25.4,73C25.4,73.1,25.5,73.1,25.4,73
                                            C25.5,73,25.4,73,25.4,73L25.4,73z"></path>
                                        <path class="st4" d="M25.3,70.7c-0.3-0.4-0.8-0.2-1.1,0c-0.5,0.4-0.9,1-1.1,1.7c0,0,0,0,0,0c0,0,0,0,0,0c0,0.1,0.1,0.1,0.1,0.1
                                            c0.6-0.2,1.3-0.4,1.8-0.8C25.3,71.5,25.6,71.1,25.3,70.7z M24.1,72c-0.3,0.1-0.6,0.2-0.9,0.3c0.2-0.3,0.4-0.7,0.7-1
                                            c0.1-0.1,0.3-0.3,0.4-0.4c0.2-0.2,1.1-0.6,0.9,0.2C25.1,71.6,24.4,71.9,24.1,72z"></path>
                                        <path class="st4" d="M21.3,72.2c0.6,0.3,1.3,0.3,1.9,0.3c0.1,0,0.1-0.1,0.1-0.1c0,0,0,0,0,0c0,0,0,0,0,0c-0.4-0.6-0.9-1.1-1.5-1.4
                                            c-0.4-0.2-0.9-0.2-1.1,0.2C20.5,71.7,20.9,72,21.3,72.2z M20.9,71.7c-0.3-0.8,0.6-0.6,0.9-0.4c0.2,0.1,0.3,0.2,0.5,0.3
                                            c0.3,0.2,0.6,0.5,0.9,0.8c-0.3-0.1-0.6-0.1-0.9-0.1C21.9,72.2,21.1,72.1,20.9,71.7L20.9,71.7z"></path>
                                        <path class="st4" d="M20.8,76.3c-2.1-0.1-3.8-0.1-3.9-0.3c-0.2-0.1-0.2-1.7-0.3-3.6C17.4,73.2,19.5,75.1,20.8,76.3z"></path>
                                        <path class="st6" d="M14.3,32.8c0,0,1.6,18.9,1.9,20.3c0.1,0.3,0.1,2.1,0.1,4.4c0.1,5,0,14,0,14h7.7c0,0-0.2-15.6-0.6-18.5
                                            C23.2,50.2,21,32.8,21,32.8L14.3,32.8z"></path>
                                        <path class="st4" d="M23.7,70.3c-1.2,0-0.9,0-2.1,0c-0.6,0-4.4,0-5,0.1c0,0,0,0,0,0s0,0,0,0c0.5,0.1,4.4,0.1,5,0.1
                                            C22.9,70.3,22.5,70.3,23.7,70.3C23.7,70.3,23.8,70.3,23.7,70.3C23.8,70.3,23.7,70.3,23.7,70.3z"></path>
                                        <path class="st4" d="M17.9,61.3c0-1.1,0-2.3,0-3.4c0-1.1,0-2.2-0.1-3.3c-0.1-2.2-0.5-4.4-0.9-6.7c-0.3-2.2-0.6-4.4-0.8-6.7
                                            c-0.3-2.5-0.5-5-0.8-7.5c0,0,0,0,0,0c0.4,4.5,0.8,8.9,1.4,13.4c0.2,1.1,0.3,2.2,0.5,3.3c0.2,1.1,0.4,2.2,0.4,3.3
                                            c0.1,1.1,0.1,2.2,0.1,3.3c0,1.1,0,2.3,0,3.4c0,2.5,0,6.4,0.1,9c0,0,0,0,0,0c0,0,0,0,0,0C17.9,67.2,17.9,63.6,17.9,61.3z"></path>
                                        <path class="st4" d="M12.7,32.8c0,0,3.3,18.9,3.5,20.3c0.1,0.3,0.1,2.1,0.1,4.4l0,0L20,32.8H12.7z"></path>
                                        <path class="st8" d="M19.6,77c-0.4,0.1-11.3-0.8-11.7-1.1c-0.2-0.1-0.1-1.7,0-3.7c0,0,0,0,0-0.1c0-0.4,0-0.8,0.1-1.2l0-0.2
                                            c0.2-2.8,0.4-5.8,0.4-5.8l7.3,0.6l-0.6,5.7l0,0.2L15,72.6l0,0.1c0,0,4,2.3,4.4,2.6S20,76.9,19.6,77z"></path>
                                        <path class="st0" d="M19.6,77c-0.4,0.1-11.3-0.8-11.7-1.1c-0.2-0.1-0.1-1.7,0-3.7c0,0,0,0,0-0.1c0-0.4,0-0.8,0.1-1.2l0-0.2l7.1,0.5
                                            l0,0.2L15,72.6l0,0.1c0,0,4,2.3,4.4,2.6S20,76.9,19.6,77z"></path>
                                        <path class="st5" d="M19.6,77c-0.4,0.1-11.3-0.8-11.7-1.1c-0.2-0.1-0.1-1.7,0-3.7c0,0,0,0,0-0.1l7,0.5l0,0.1c0,0,4,2.3,4.4,2.6
                                            S20,76.9,19.6,77z"></path>
                                        <path class="st4" d="M19.5,76.6c-1.8-0.2-9.2-0.8-11-0.9c0,0,0,0,0,0C10.3,75.9,17.7,76.5,19.5,76.6C19.5,76.6,19.6,76.6,19.5,76.6
                                            z"></path>
                                        <path class="st4" d="M15.7,72.7c-0.7-0.2-1.6-0.2-2.2,0.3c0,0,0,0.1,0,0C14.3,72.9,15,72.8,15.7,72.7
                                            C15.8,72.8,15.8,72.8,15.7,72.7C15.8,72.7,15.8,72.7,15.7,72.7z"></path>
                                        <path class="st4" d="M16.2,73.1c-0.7-0.2-1.6-0.2-2.2,0.3c0,0,0,0.1,0,0C14.8,73.3,15.5,73.2,16.2,73.1
                                            C16.3,73.2,16.3,73.1,16.2,73.1C16.3,73.1,16.3,73.1,16.2,73.1z"></path>
                                        <path class="st4" d="M16.7,73.4c-0.7-0.2-1.6-0.2-2.2,0.3c0,0,0,0.1,0,0C15.3,73.6,16,73.5,16.7,73.4
                                            C16.7,73.5,16.8,73.5,16.7,73.4C16.8,73.4,16.8,73.4,16.7,73.4z"></path>
                                        <path class="st4" d="M16.8,71.2c-0.2-0.4-0.8-0.3-1.1-0.1c-0.5,0.4-1,1-1.3,1.6c0,0,0,0,0,0c0,0.1,0,0.1,0.1,0.1c0,0,0,0,0,0
                                            c0.6-0.2,1.3-0.3,1.8-0.6C16.7,72,17.1,71.6,16.8,71.2z M15.4,72.4c-0.3,0.1-0.6,0.2-0.9,0.3c0.2-0.3,0.5-0.6,0.7-0.9
                                            c0.1-0.1,0.3-0.3,0.4-0.4c0.2-0.2,1.1-0.5,0.9,0.3C16.5,72,15.8,72.3,15.4,72.4L15.4,72.4z"></path>
                                        <path class="st4" d="M12.6,72.4c0.6,0.3,1.3,0.4,1.9,0.5c0.1,0,0.1-0.1,0.1-0.1c0,0,0,0,0,0c0,0,0,0,0,0c-0.3-0.6-0.8-1.1-1.4-1.5
                                            c-0.3-0.2-0.9-0.3-1.1,0.2C11.9,71.8,12.3,72.2,12.6,72.4z M12.3,71.8c-0.3-0.8,0.6-0.5,0.9-0.3c0.2,0.1,0.3,0.2,0.4,0.4
                                            c0.3,0.3,0.6,0.5,0.8,0.8c-0.3-0.1-0.6-0.1-0.9-0.2C13.2,72.4,12.5,72.2,12.3,71.8L12.3,71.8z"></path>
                                        <path class="st6" d="M15.3,72.1l-7.7-0.3c0,0,2.1-17.3,2.1-18.3c0.1-2.8,1.9-20.5,1.9-20.5H21c0,0-0.6,4.1-1.6,6.7
                                            c-0.7,0.2-1.3,0.6-2,0.9c0,0-0.9,11.8-0.9,13.2C16.5,56.6,15.3,72.1,15.3,72.1z"></path>
                                        <path class="st4" d="M15.1,70.6c-1.2-0.1-0.9-0.1-2.1-0.1c-0.6,0-4.4-0.2-5-0.2c0,0,0,0,0,0c0.5,0.1,4.4,0.3,5,0.3
                                            C14.2,70.6,13.9,70.6,15.1,70.6C15.1,70.6,15.1,70.6,15.1,70.6C15.1,70.6,15.1,70.6,15.1,70.6z"></path>
                                        <path class="st4" d="M12.3,33.9c-0.3,4.5-0.7,9-1.1,13.4s-0.9,9-1.4,13.4c-0.3,2.5-0.7,6-1.1,8.5c0,0,0,0,0,0
                                            c0.8-4.4,1.3-9.9,1.8-14.4s0.9-8.9,1.2-13.4C12,39,12.2,36.4,12.3,33.9C12.4,33.9,12.3,33.9,12.3,33.9z"></path>
                                        <path class="st4" d="M19.7,39.4c-0.8,0.3-1.6,0.7-2.3,1.1c0,0,0,0,0,0s0,0,0,0c0.8-0.3,1.6-0.7,2.3-1.1
                                            C19.8,39.5,19.8,39.4,19.7,39.4C19.8,39.4,19.8,39.4,19.7,39.4L19.7,39.4z"></path>
                                        <path class="st4" d="M20,33.9C20,33.9,19.9,33.9,20,33.9c0,0.9-0.1,1.8-0.2,2.7c0,0.4-0.4,2.7-1,2.5c-0.1,0-0.2-0.1-0.2-0.3
                                            c0-0.2,0-0.5,0.1-0.7c0.1-0.5,0.1-0.9,0.2-1.4c0.1-0.9,0.1-1.8,0-2.7c0,0,0,0,0,0c0,0,0,0,0,0c0,1.2,0,2.5-0.2,3.7
                                            c-0.1,0.6-0.4,1.5,0.2,1.6c0.6,0.1,1-1.4,1.1-1.8C20,36.3,20.1,35.1,20,33.9z"></path>
                                        <path class="st4" d="M18.8,39.1c-0.1,0.2-0.1,0.3-0.2,0.5c0,0.1-0.1,0.3-0.1,0.4c0,0,0,0,0,0c0.1-0.1,0.1-0.2,0.2-0.4
                                            c0.1-0.1,0.1-0.3,0.2-0.4c0,0,0-0.1,0-0.1C18.8,39.1,18.8,39.1,18.8,39.1z"></path>
                                        <path class="st4" d="M15.6,34.7c0-0.1,0-0.2,0-0.3c0,0,0,0,0,0c0,0,0,0,0,0C15.6,34.5,15.6,34.5,15.6,34.7
                                            c-0.1,0.1-0.1,0.1-0.1,0.3c0,0.2-0.1,0.4-0.1,0.6c-0.1,0.4-0.3,0.7-0.5,1c-0.3,0.3-0.6,0.5-0.9,0.6c-0.4,0.1-0.7,0.2-1.1,0.3
                                            c0,0,0,0,0,0c0,0,0,0,0,0c0.4,0,0.8-0.1,1.2-0.3c0.3-0.1,0.7-0.3,0.9-0.6c0.3-0.3,0.5-0.6,0.5-1c0-0.2,0.1-0.4,0.1-0.6
                                            C15.6,34.9,15.6,34.8,15.6,34.7z"></path>
                                        <path class="st8" d="M24.8,16.7c0.6,0.7,1.2,2.7,1.2,3.2c0,0.5-3.2,1.7-3.7,1.4c-0.4-0.3-2.2-2.8-2.2-3.8
                                            C20.1,16.5,24.2,15.9,24.8,16.7z"></path>
                                        <path class="st8" d="M20,15.3c-0.3-0.3-1.2-1.2-1.7-0.8c-0.3,0.3,0.4,1,0.6,1.3c0.5,0.6,1,1.6,1.2,2.1c0.2,0.5,1.1-0.5,1.1-0.5
                                            S20.8,16.2,20,15.3z"></path>
                                        <path class="st8" d="M20.8,18.5c0,0,0.3,0.9,0.9,0.9c0.5,0,0.4-0.8,0.4-0.8c0,0,0.3,0.9,0.9,0.8c0.5-0.1,0.3-0.8,0.3-0.9
                                            c0,0,0.4,0.6,0.8,0.4c0.7-0.3-0.3-1.6-0.2-2.2c0,0,1,0.1,1,0.1c0,0-0.9-1.3-1.7-1.4c-0.2,0-0.5,0.1-0.5,0.3c0,0-0.3-0.5-0.7-0.4
                                            c-0.2,0-0.4,0.4-0.4,0.4c-0.1-0.2-0.4-0.3-0.6-0.3c-0.3,0-0.4,0.4-0.5,0.6C20.3,17,20.8,18.5,20.8,18.5z"></path>
                                        <path class="st4" d="M20.5,15.8C20.5,15.8,20.5,15.8,20.5,15.8c-0.2,0.9-0.1,1.9,0.3,2.7c0,0,0.1,0,0.1,0
                                            C20.6,17.6,20.5,16.7,20.5,15.8z"></path>
                                        <path class="st4" d="M21.5,15.6C21.5,15.6,21.5,15.6,21.5,15.6c-0.2,1,0,2,0.5,2.9c0,0,0.1,0,0,0C21.8,17.9,21.5,16.4,21.5,15.6z"></path>
                                        <path class="st4" d="M23.3,18.4c-0.5-0.9-0.7-1.8-0.7-2.8c0,0,0,0,0,0c-0.1,0.5,0,1.1,0.1,1.6C22.7,17.7,22.9,18.1,23.3,18.4
                                            C23.3,18.5,23.3,18.5,23.3,18.4z"></path>
                                        <path class="st4" d="M20.8,18.5c0.1,0.2,0.2,0.3,0.3,0.5c0.1,0.1,0.2,0.3,0.4,0.3c0.1,0,0.2,0,0.2,0c0.1,0,0.1-0.1,0.2-0.1
                                            C22,19,22,18.8,22,18.7l-0.1-0.4l0.2,0.3c0.1,0.2,0.2,0.3,0.3,0.4c0.1,0.1,0.3,0.2,0.4,0.2c0.2,0,0.3-0.1,0.3-0.3
                                            c0-0.2,0-0.3-0.1-0.5L23,18l0.3,0.4c0.1,0.1,0.2,0.2,0.3,0.3c0.1,0.1,0.2,0.1,0.3,0.1c0.1,0,0.2-0.1,0.3-0.2c0-0.1,0.1-0.2,0-0.4
                                            c-0.1-0.3-0.1-0.5-0.2-0.8c0-0.1-0.1-0.3-0.1-0.4c0-0.1-0.1-0.3,0-0.4c0,0.1,0,0.3,0.1,0.4c0,0.1,0.1,0.3,0.2,0.4
                                            c0.1,0.3,0.2,0.5,0.3,0.8c0,0.1,0,0.3,0,0.5c-0.1,0.2-0.2,0.3-0.4,0.2c-0.2,0-0.3-0.1-0.4-0.2c-0.1-0.1-0.2-0.2-0.3-0.3l0.1-0.1
                                            c0.1,0.2,0.1,0.4,0.1,0.6c0,0.1-0.1,0.2-0.2,0.3c-0.1,0.1-0.2,0.1-0.3,0.1c-0.2,0-0.4-0.1-0.6-0.2c-0.1-0.1-0.3-0.3-0.4-0.5l0.1,0
                                            c0,0.2,0,0.4-0.2,0.6c-0.1,0.1-0.2,0.1-0.3,0.2c-0.1,0-0.2,0-0.3,0c-0.2-0.1-0.3-0.2-0.4-0.4C21,18.8,20.9,18.6,20.8,18.5z"></path>
                                        <path class="st8" d="M22,20.9c0,0-3.4-1.8-2.1-2.8c0.4-0.3,2.4-1.1,2.5-0.7c0.2,0.5-0.6,1-1.1,1.2c0,0,1.2,0.4,1.2,1.4
                                            C22.5,20.4,22.3,20.8,22,20.9z"></path>
                                        <path class="st4" d="M19.8,18.2c0.1-0.1,0.3-0.3,0.5-0.3c0.2-0.1,0.4-0.2,0.5-0.3c0.4-0.1,0.7-0.3,1.1-0.3c0.1,0,0.2,0,0.3,0
                                            c0.1,0,0.1,0,0.2,0.1c0,0,0.1,0,0.1,0.1c0,0,0,0.1,0,0.1c0,0.1,0,0.2,0,0.4c0,0.1-0.1,0.2-0.2,0.3c-0.1,0.2-0.3,0.3-0.5,0.4
                                            c-0.2,0.1-0.4,0.2-0.5,0.3v-0.1c0.1,0.1,0.3,0.1,0.4,0.2c0.1,0.1,0.2,0.2,0.4,0.3c0.1,0.1,0.2,0.2,0.3,0.4c0.1,0.1,0.1,0.3,0.1,0.4
                                            c0-0.1-0.1-0.3-0.2-0.4c-0.1-0.1-0.2-0.2-0.3-0.3C22,19,21.9,19,21.7,18.9c-0.1-0.1-0.3-0.1-0.4-0.2l-0.2-0.1l0.2-0.1
                                            c0.2-0.1,0.3-0.2,0.5-0.3c0.2-0.1,0.3-0.2,0.4-0.4c0.1-0.1,0.2-0.3,0.1-0.5c0-0.1-0.3-0.1-0.4-0.1c-0.2,0-0.4,0.1-0.6,0.1
                                            c-0.2,0-0.4,0.1-0.6,0.2C20.5,17.8,20.1,18,19.8,18.2z"></path>
                                        <path class="st8" d="M18,23.4c3,3.8,7.4,6.3,8.5,5.5c1.1-0.8-2.6-5-2.6-5.1c-0.2-0.2-1.8-1.1-4.8-2.3C16.3,20.3,16.7,21.7,18,23.4z
                                            "></path>
                                        <path class="st5" d="M22.6,23l-2.3,3.1c0,0-1.9-2-2.9-3.4c-1-1.3-0.9-2.4,1.4-1.5C20,21.7,21.3,22.3,22.6,23z"></path>
                                        <path class="st4" d="M20.1,25.4c0.3-0.4,0.6-0.8,0.9-1.2c0.1-0.2,0.3-0.4,0.4-0.6c0.2-0.2,0.3-0.4,0.5-0.6c0,0,0,0,0,0
                                            c-0.1,0.2-0.3,0.4-0.4,0.6c-0.1,0.2-0.3,0.4-0.5,0.6C20.7,24.6,20.4,25,20.1,25.4C20.1,25.4,20,25.4,20.1,25.4z"></path>
                                        <path class="st4" d="M21.4,24.6l-1.1,1.5c0,0-1.9-2-2.9-3.4l-0.1-0.1l0-0.1l-0.1-0.1c-0.1-0.1-0.1-0.2-0.1-0.2c0,0,0-0.1,0-0.1
                                            c-0.1-0.1-0.1-0.3-0.2-0.4c0,0,0-0.1,0-0.1c0,0,0,0,0-0.1C17.7,22.2,20.1,23.7,21.4,24.6z"></path>
                                        <path class="st5" d="M21.5,34.7c0,0-10.4,0.2-10.5,0.1c-0.2-0.2,1.9-11.2,4.1-13.4c0.8-0.8,2.3-0.5,2.6-0.3c0.6,0.3,1.2,1,1.7,2.2
                                            C20.3,25.7,21.6,34.6,21.5,34.7z"></path>
                                        <path class="st9" d="M18.2,21.5h-3.1l0,0c0.1-0.1,0.2-0.1,0.2-0.2H18C18.1,21.3,18.2,21.4,18.2,21.5z M18.6,21.8h-3.8
                                            c-0.1,0.1-0.1,0.1-0.1,0.2h4.1C18.7,22,18.7,21.9,18.6,21.8L18.6,21.8z M19,22.4h-4.5c0,0.1-0.1,0.1-0.1,0.2h4.8
                                            C19.1,22.6,19,22.5,19,22.4L19,22.4z M19.3,23h-5.1L14,23.2h5.3C19.3,23.1,19.3,23.1,19.3,23L19.3,23z M19.5,23.6h-5.6l-0.1,0.2
                                            h5.8C19.6,23.7,19.5,23.7,19.5,23.6L19.5,23.6z M19.7,24.2h-6c0,0.1-0.1,0.1-0.1,0.2h6.2L19.7,24.2z M19.8,24.8h-6.4
                                            c0,0.1-0.1,0.1-0.1,0.2h6.6C19.9,24.9,19.9,24.8,19.8,24.8L19.8,24.8z M20,25.3h-6.8c0,0.1,0,0.1-0.1,0.2H20L20,25.3z M20.1,25.9
                                            H13c0,0.1,0,0.1-0.1,0.2h7.2C20.1,26.1,20.1,26,20.1,25.9L20.1,25.9z M20.2,26.5h-7.4c0,0.1,0,0.1-0.1,0.2h7.5
                                            C20.3,26.7,20.3,26.6,20.2,26.5L20.2,26.5z M20.3,27.1h-7.7c0,0.1,0,0.1-0.1,0.2h7.8L20.3,27.1z M20.5,27.7h-8c0,0.1,0,0.1-0.1,0.2
                                            h8.1C20.5,27.8,20.5,27.8,20.5,27.7L20.5,27.7z M20.6,28.3h-8.2c0,0.1,0,0.1-0.1,0.2h8.3C20.6,28.4,20.6,28.4,20.6,28.3L20.6,28.3z
                                            M20.7,28.9h-8.5c0,0.1,0,0.1-0.1,0.2h8.6C20.7,29,20.7,28.9,20.7,28.9L20.7,28.9z M20.8,29.5H12c0,0.1,0,0.1-0.1,0.2h8.8
                                            C20.8,29.6,20.8,29.5,20.8,29.5L20.8,29.5z M20.9,30h-9c0,0.1,0,0.1-0.1,0.2h9C20.9,30.2,20.9,30.1,20.9,30L20.9,30z M21,30.6h-9.2
                                            c0,0.1,0,0.1-0.1,0.2H21C21,30.8,21,30.7,21,30.6L21,30.6z M21.1,31.2h-9.4c0,0.1,0,0.1,0,0.2h9.5C21.1,31.4,21.1,31.3,21.1,31.2
                                            L21.1,31.2z M21.1,31.8h-9.6c0,0.1,0,0.1,0,0.2h9.7L21.1,31.8z M21.2,32.4h-9.8c0,0.1,0,0.1,0,0.2h9.9
                                            C21.2,32.5,21.2,32.5,21.2,32.4L21.2,32.4z M21.3,33h-10c0,0.1,0,0.1,0,0.2h10.1C21.3,33.1,21.3,33.1,21.3,33L21.3,33z M21.4,33.6
                                            H11.2c0,0.1,0,0.2,0,0.2h10.3C21.4,33.7,21.4,33.7,21.4,33.6L21.4,33.6z M21.4,34.2H11.1c0,0.1,0,0.2,0,0.2h10.4
                                            C21.5,34.3,21.4,34.2,21.4,34.2L21.4,34.2z M11,34.8C11,34.8,11,34.8,11,34.8c0,0.1,6.5,0,9.2,0H11z"></path>
                                        <path class="st8" d="M15.7,22.8c-0.7,1-4.3,5.1-4.4,5.4c-0.1,0.4,0.7,1.2,0.7,1.4c-0.1,0.6-1.4,4.9-1.9,4.4
                                            c-0.7-0.6-3.7-4.6-3.3-6.4c0.4-1.8,7.4-6,8.5-6.3C16.4,20.9,16.4,21.8,15.7,22.8z"></path>
                                        <path class="st5" d="M12.9,26.5l-2-2.9c0,0,2.3-1.5,3.8-2.2s2.3-0.3,0.9,1.7C14.7,24.3,13.8,25.4,12.9,26.5z"></path>
                                        <path class="st4" d="M11.4,23.3c0.3,0.4,0.6,0.8,0.9,1.2c0.2,0.2,0.3,0.4,0.4,0.6c0.1,0.2,0.3,0.4,0.4,0.6c0,0,0,0,0,0
                                            c-0.2-0.2-0.3-0.4-0.5-0.6c-0.2-0.2-0.3-0.4-0.5-0.6C12,24.2,11.7,23.8,11.4,23.3C11.4,23.3,11.4,23.3,11.4,23.3z"></path>
                                        <path class="st4" d="M12.9,26.5c0.3-0.4,0.7-0.8,1-1.2c0.3-0.4,0.7-0.8,1-1.2c0,0,0,0,0,0c-0.1,0.2-0.3,0.4-0.5,0.7
                                            c-0.1,0.1-0.2,0.2-0.2,0.3l0.1-0.1c0.1-0.1,0.3-0.2,0.4-0.3c0,0,0,0,0,0c-0.1,0.1-0.2,0.2-0.4,0.3c-0.1,0.1-0.2,0.1-0.3,0.2
                                            l-0.1,0.2C13.6,25.8,13.3,26.1,12.9,26.5C12.9,26.5,12.9,26.5,12.9,26.5z"></path>
                                        <path class="st8" d="M11.8,35.6c0.5-0.3-0.2-0.7-0.2-0.7s1.1,0.3,1.4-0.2c0.4-0.5-0.5-1-0.5-1c0.1,0,1.1,0.3,1.4-0.3
                                            s-0.6-0.9-0.6-0.9c0.1,0,0.8,0,1-0.5c0.2-0.9-2-1-2.5-1.5c0,0,0.2-1.1,0.2-1.2c-0.1,0.3-0.4,0.4-0.6,0.6c-0.5,0.1-0.9,0.2-1.1,0.5
                                            c-0.2,0.2-0.2,0.5-0.1,0.8c0,0-0.6-0.1-0.9,0.4c-0.1,0.2,0.1,0.7,0.1,0.7c-0.3,0-0.6,0.1-0.7,0.4c-0.2,0.3,0.1,0.7,0.1,0.7
                                            s-0.5,0.2-0.6,0.6C8.2,34.6,10.8,36.3,11.8,35.6z"></path>
                                        <path class="st4" d="M8.9,33.3C8.9,33.3,8.9,33.3,8.9,33.3c0.7,0.8,1.7,1.4,2.8,1.6c0,0,0.1,0,0-0.1C10.7,34.5,9.7,33.9,8.9,33.3z"></path>
                                        <path class="st4" d="M9.4,32.1C9.4,32.1,9.4,32.1,9.4,32.1C9.4,32.1,9.4,32.1,9.4,32.1c0.8,0.9,1.9,1.5,3.1,1.6c0,0,0.1,0,0,0
                                            C11.8,33.6,10.2,32.8,9.4,32.1z"></path>
                                        <path class="st4" d="M13.4,32.4c-1.2-0.1-2.2-0.6-3.1-1.3c0,0,0,0,0,0c0.4,0.5,1,0.8,1.6,1.1C12.3,32.4,12.8,32.5,13.4,32.4
                                            C13.4,32.5,13.4,32.5,13.4,32.4z"></path>
                                        <path class="st4" d="M8.8,33.2c-0.2-0.2-0.3-0.5-0.2-0.8c0.1-0.1,0.2-0.2,0.3-0.3c0.1-0.1,0.3-0.1,0.5,0c-0.2-0.3-0.2-0.6,0-0.9
                                            c0.1-0.1,0.2-0.2,0.4-0.2c0.2,0,0.3,0,0.5,0c-0.1-0.2-0.2-0.4-0.1-0.6c0.1-0.2,0.2-0.4,0.4-0.5c0.2-0.1,0.5-0.2,0.8-0.2
                                            c0.1,0,0.3-0.1,0.4-0.1c0.1-0.1,0.2-0.2,0.3-0.3c0,0,0,0,0,0c-0.1,0.1-0.1,0.2-0.2,0.2c-0.1,0.1-0.2,0.1-0.3,0.2
                                            c-0.2,0.1-0.5,0.2-0.7,0.2c-0.2,0.1-0.4,0.2-0.5,0.4c-0.1,0.2-0.1,0.4,0,0.6c0,0,0,0,0,0c-0.1,0-0.3,0-0.4,0.1
                                            c-0.1,0-0.2,0.1-0.3,0.2c-0.1,0.2-0.2,0.5,0,0.8c-0.2,0-0.3,0.1-0.4,0.1c-0.1,0.1-0.2,0.1-0.2,0.2C8.7,32.7,8.7,33,8.8,33.2
                                            C8.8,33.2,8.8,33.2,8.8,33.2L8.8,33.2L8.8,33.2L8.8,33.2L8.8,33.2c0,0-0.1,0.1-0.1,0.1c0,0,0,0,0,0C8.7,33.2,8.8,33.2,8.8,33.2z"></path>
                                        <path class="st8" d="M17.7,22.7c-0.6,0.2-1.7-0.6-2.2-1.3c0,0-0.1-2.1-0.1-2.5c0-0.1,2.6,0.3,2.6,0.3c-0.1,0.5-0.1,1.1-0.1,1.6
                                            C18,20.9,18.3,22.5,17.7,22.7z"></path>
                                        <path class="st4" d="M18,19.2c0,0,0,0.2-0.1,0.4c-0.7,0.9-1.9,1-2.5,1c0-0.6,0-1.5-0.1-1.7C15.4,18.8,18,19.2,18,19.2z"></path>
                                        <path class="st4" d="M15.4,14.5c0,0-0.8,0.3-1,1.2c-0.2,0.8,0,1.7,0.1,1.8S15.4,14.5,15.4,14.5z"></path>
                                        <path class="st8" d="M18.8,15.6c0.2,0.9-0.4,3.5-1.1,4.1c-1,0.8-2.5,0.8-3.1-0.4c-0.6-1.1,0.3-4.5,1-5
                                            C16.7,13.5,18.5,14.2,18.8,15.6z"></path>
                                        <path class="st4" d="M16.2,17.1C16.2,17.1,16.2,17.1,16.2,17.1c0,0.2,0,0.4,0.1,0.5c0,0,0,0,0,0C16.1,17.5,16.2,17.2,16.2,17.1z"></path>
                                        <path class="st4" d="M16.4,16.9c0.3,0,0.2,0.6-0.1,0.6S16.2,16.9,16.4,16.9z"></path>
                                        <path class="st4" d="M15.2,16.9C15.2,16.9,15.2,16.9,15.2,16.9c0,0.2-0.1,0.4-0.2,0.4v0C15.2,17.3,15.2,17.1,15.2,16.9z"></path>
                                        <path class="st4" d="M15.1,16.7c-0.3-0.1-0.4,0.5-0.1,0.6C15.2,17.3,15.3,16.7,15.1,16.7z"></path>
                                        <path class="st4" d="M16.2,18.6c0,0-0.1,0.1-0.2,0.1c-0.1,0-0.1,0-0.2-0.1l0,0c0,0.1,0.1,0.1,0.2,0.1
                                            C16.1,18.7,16.2,18.7,16.2,18.6C16.2,18.6,16.2,18.6,16.2,18.6z"></path>
                                        <path class="st4" d="M15.4,17.7c0,0-0.1,0.3-0.1,0.4c0.2,0,0.5,0.1,0.7,0.2c0.1,0,0.1,0,0-0.1c-0.2-0.1-0.4-0.2-0.6-0.2
                                            c0,0,0.1-0.4,0.1-0.4c-0.1,0-0.2,0-0.3,0c0.1-0.6,0.4-1.1,0.5-1.7c0,0,0,0,0,0c-0.3,0.6-0.5,1.1-0.6,1.8
                                            C15,17.8,15.3,17.8,15.4,17.7z"></path>
                                        <path class="st4" d="M16.6,16.7c-0.1,0-0.1-0.1-0.2-0.1c-0.1,0-0.1-0.1-0.2-0.2c0-0.1,0-0.1,0.1-0.1c0.1,0,0.2,0,0.3,0.1
                                            c0.1,0.1,0.2,0.2,0.2,0.3C16.8,16.6,16.8,16.7,16.6,16.7C16.7,16.7,16.7,16.7,16.6,16.7z"></path>
                                        <path class="st4" d="M15,16c0.1,0,0.2,0,0.2-0.1c0.1,0,0.2,0,0.2-0.1c0,0,0-0.1,0-0.2c-0.1-0.1-0.2-0.1-0.3-0.1
                                            c-0.1,0-0.2,0.1-0.3,0.2C14.8,15.9,14.8,16,15,16C14.9,16,14.9,16,15,16z"></path>
                                        <path class="st4" d="M18.4,17.8c-0.5-0.1-0.2-2.4-0.2-2.4c-0.3,0.1-0.7,0.2-1,0.2c-0.3,0-0.7-0.1-1-0.2c-0.1,0,0.9-0.3,0.9-0.3
                                            s-2.3,0.2-2.4-0.2c0-0.2,0.4-1.6,2.4-1.5C18.3,13.4,19,15,19,15s0.7,0.8,0.6,1.2C19.4,16.8,18.9,17.9,18.4,17.8z"></path>
                                        <path class="st8" d="M18,17.8c0,0,0.7-0.8,1-0.6s-0.2,1.4-0.6,1.6c-0.2,0.1-0.5,0-0.6-0.3c0,0,0,0,0,0L18,17.8z"></path>
                                        <path class="st4" d="M18.9,17.6c-0.3,0.1-0.5,0.4-0.7,0.7c0.1-0.1,0.2-0.1,0.4-0.1c0,0,0,0,0,0c0,0,0,0,0,0c0,0,0,0,0,0
                                            c-0.1,0-0.2,0-0.3,0.1c-0.1,0.1-0.1,0.2-0.2,0.2c0,0-0.1,0-0.1,0l0,0C18.1,18.2,18.5,17.6,18.9,17.6L18.9,17.6z"></path>
                                        <path class="st8" d="M26.8,28.8c1.5-1.2,0.1-7-0.8-9.2c-0.2-0.6-4.2,0.6-4,1.3C23,24.9,25.2,30.1,26.8,28.8z"></path>
                                        <path class="st4" d="M22.6,23.1l0.4,1.1c0.1,0.4,0.3,0.7,0.5,1.1c0.2,0.4,0.3,0.7,0.5,1.1c0.2,0.4,0.3,0.7,0.5,1.1
                                            c-0.2-0.3-0.4-0.7-0.6-1c-0.2-0.4-0.4-0.7-0.5-1.1c-0.2-0.4-0.3-0.7-0.4-1.1S22.7,23.5,22.6,23.1z"></path>
                                    </g>
                                </svg>